<svg width="65" height="62" viewBox="0 0 65 62" fill="none" xmlns="http://www.w3.org/2000/svg">
<g clip-path="url(#clip0_123_7530)">
<path d="M64.8606 58.7061C64.6672 57.8169 64.279 56.9822 63.7242 56.2629C63.1694 55.5435 62.4621 54.9576 61.6536 54.5478C60.9071 54.2284 60.1277 53.9934 59.3296 53.847C60.6281 53.2121 61.7544 52.2706 62.6123 51.1031C63.4702 49.9356 64.0343 48.5767 64.2563 47.1424C64.5771 45.6475 64.4965 44.0937 64.0228 42.6405C63.5491 41.1872 62.6993 39.8868 61.5606 38.8726C61.4291 38.7429 61.3275 38.5857 61.2633 38.4121C61.199 38.2385 61.1736 38.0527 61.1888 37.8681C61.277 36.8797 60.9873 35.8947 60.3786 35.1135C59.7698 34.3323 58.8878 33.8137 57.912 33.6632L54.5424 32.8455C53.9033 32.6707 53.2294 32.6707 52.5903 32.8455C51.1494 33.2193 49.7319 33.5697 48.3143 33.9668C47.6489 34.1017 47.0405 34.4382 46.5711 34.931C46.1016 35.4238 45.7935 36.0494 45.6882 36.7234C45.4453 37.8887 44.9001 38.9687 44.108 39.8538C42.6708 41.7963 42.0396 44.2236 42.3473 46.6247C42.6551 49.0257 43.8778 51.2129 45.758 52.7257C46.2925 53.1695 46.8967 53.4499 47.5009 53.9405C46.7425 53.9797 46.0066 54.2129 45.3629 54.618C44.9446 54.9216 44.8051 54.7581 44.5728 54.4311C43.9623 53.5321 43.179 52.7651 42.269 52.1753C41.359 51.5855 40.3407 51.1849 39.2742 50.997C37.5913 50.8255 35.8985 50.7708 34.2081 50.8334C33.9524 50.8334 33.5109 51.0437 33.5109 50.5298C33.5109 50.0158 33.2785 49.642 33.906 49.3383C36.4265 48.0689 38.389 45.9047 39.4137 43.2645C39.4717 43.0112 39.6138 42.7853 39.8165 42.624C40.0192 42.4626 40.2706 42.3755 40.5291 42.3768C41.3356 42.3078 42.0868 41.9371 42.6343 41.338C43.1818 40.7388 43.4856 39.9549 43.4856 39.1413C43.4856 38.3277 43.1818 37.5438 42.6343 36.9446C42.0868 36.3455 41.3356 35.9747 40.5291 35.9058C39.739 35.7189 40.2503 35.0882 40.2038 34.691C40.1573 34.2939 40.5756 34.5742 40.7151 34.691C42.0351 35.0157 43.4249 34.8923 44.668 34.34C45.911 33.7878 46.9374 32.8377 47.5872 31.6379C48.237 30.4381 48.4738 29.0559 48.2607 27.7066C48.0475 26.3574 47.3963 25.117 46.4087 24.1786C45.384 23.1732 44.0285 22.58 42.5983 22.5111C41.1681 22.4423 39.7623 22.9025 38.6468 23.8048C38.2517 24.0852 38.0658 24.0618 37.7637 23.688C36.0503 21.4265 33.5956 19.8479 30.8348 19.2321C28.0741 18.6164 25.1856 19.0032 22.6814 20.324C20.9972 21.1553 19.5383 22.3843 18.4294 23.9058C17.3205 25.4273 16.5947 27.1961 16.3139 29.061C16.0776 31.053 16.0154 33.0619 16.128 35.0648C16.128 35.6488 16.128 36.0226 15.3843 36.0927C14.8865 36.1586 14.4309 36.4085 14.1062 36.7935C13.7586 37.2043 13.4328 37.6332 13.1301 38.0784C13.2136 37.1131 12.9323 36.1515 12.3423 35.3853C11.7523 34.619 10.8969 34.1043 9.94637 33.9435L6.25134 33.0324C5.54932 32.8573 4.81536 32.8573 4.11334 33.0324L0.116196 33.9902V36.3263C1.64998 35.9058 3.20701 35.5554 4.76403 35.1816C5.09997 35.0994 5.45062 35.0994 5.78655 35.1816L9.7837 36.2562C9.96574 36.276 10.1419 36.3329 10.3013 36.4234C10.4608 36.5139 10.6002 36.6361 10.7111 36.7826C10.822 36.9291 10.9021 37.0967 10.9464 37.2753C10.9907 37.4539 10.9984 37.6397 10.9689 37.8214C10.9689 38.896 10.9689 39.9473 10.9689 40.9985C10.9855 41.0832 10.9847 41.1703 10.9664 41.2547C10.9482 41.339 10.9129 41.4186 10.8628 41.4887C10.8127 41.5588 10.7488 41.6178 10.6751 41.662C10.6015 41.7063 10.5195 41.7349 10.4344 41.746C9.51593 42.0077 8.54061 41.9874 7.63373 41.6877C6.72684 41.388 5.92981 40.8225 5.34501 40.064C4.5084 38.7558 3.4394 38.8259 2.23096 39.0128C1.42187 39.1369 0.637484 39.3892 -0.0929565 39.7604V42.3067C0.720362 41.7208 1.66002 41.3366 2.64927 41.1854C2.81664 41.1557 2.98898 41.1751 3.14562 41.2414C3.30226 41.3077 3.43655 41.418 3.53236 41.5591C4.26298 42.4371 5.18785 43.131 6.23299 43.5853C7.27813 44.0396 8.41454 44.2418 9.55131 44.1756C9.96961 44.1756 10.3879 44.0354 10.8527 43.9653C10.9258 45.5274 10.8401 47.0929 10.5971 48.6375C10.3275 49.8668 9.66227 50.9725 8.7044 51.7833C7.74654 52.5942 6.54947 53.065 5.29853 53.1228C4.26406 53.1834 3.23194 52.9693 2.30592 52.5018C1.37991 52.0343 0.592632 51.33 0.0232376 50.4597V53.6601L1.41759 54.618C0.929571 54.618 0.464782 54.618 0.0232376 54.618V56.954H0.650697C1.19288 56.8684 1.7478 56.922 2.26383 57.1099C2.77986 57.2977 3.24023 57.6138 3.60207 58.0286C3.81236 58.1825 3.98027 58.3875 4.09003 58.6246C4.19979 58.8616 4.2478 59.1228 4.22953 59.3836C4.18014 60.1615 4.18014 60.9418 4.22953 61.7197C4.2602 61.8503 4.2602 61.9862 4.22953 62.1168H6.55345C6.54026 62.0473 6.54026 61.976 6.55345 61.9066C6.55345 61.0422 6.55345 60.1545 6.55345 59.2901C6.55345 58.8696 6.85556 58.6827 7.04147 58.4024C7.3562 57.8715 7.82685 57.4517 8.38866 57.2007C8.95047 56.9497 9.57584 56.8798 10.1788 57.0007C11.3407 57.1175 11.364 57.0008 11.2013 58.2155C11.0969 59.389 11.0969 60.5695 11.2013 61.743C11.23 61.8659 11.23 61.9939 11.2013 62.1168H13.5252V58.5426C13.5787 57.2622 14.0705 56.0397 14.9174 55.0819C15.7643 54.1241 16.9144 53.4898 18.173 53.2864C18.3357 53.2864 18.5913 53.0294 18.7075 53.2864C18.7444 53.3979 18.7357 53.5195 18.6834 53.6246C18.6311 53.7297 18.5395 53.8097 18.4287 53.847C17.5491 54.2458 16.8147 54.9098 16.3275 55.747C15.8403 56.5842 15.6244 57.5531 15.7097 58.5192C15.7097 59.5938 15.7097 60.6918 15.7097 61.7664H18.7773C18.715 61.6547 18.6283 61.5587 18.5235 61.4859C18.4188 61.413 18.299 61.3651 18.173 61.3459C17.7083 61.3459 17.685 61.0188 17.685 60.6451C17.685 59.7573 17.685 58.8696 17.685 57.9586C17.5914 57.6121 17.5784 57.2486 17.6471 56.8963C17.7159 56.5439 17.8645 56.2123 18.0814 55.9271C18.2983 55.6419 18.5777 55.4107 18.8979 55.2517C19.2181 55.0926 19.5704 55.0098 19.9276 55.0098C20.2848 55.0098 20.6371 55.0926 20.9573 55.2517C21.2775 55.4107 21.5569 55.6419 21.7738 55.9271C21.9907 56.2123 22.1393 56.5439 22.2081 56.8963C22.2768 57.2486 22.2638 57.6121 22.1702 57.9586C22.1702 58.7995 22.1702 59.6405 22.1702 60.5049C22.1702 60.9721 22.1702 61.2758 21.5427 61.2525C21.3593 61.2462 21.1776 61.2908 21.0178 61.3815C20.8579 61.4721 20.7259 61.6053 20.6364 61.7664H24.4244C24.4244 60.4115 24.4244 59.0799 24.4244 57.7249C24.3779 56.7829 24.049 55.877 23.4807 55.1265C22.9124 54.376 22.1315 53.8159 21.2406 53.52C21.0082 53.52 20.6364 53.52 20.6829 53.1228C20.7293 52.7257 21.0779 52.936 21.2871 52.936C22.2563 52.7713 23.2461 52.7713 24.2152 52.936C25.0983 53.2397 25.6096 54.2909 26.3532 54.9216C26.6228 55.1582 26.8343 55.4542 26.9713 55.7865C27.1084 56.1187 27.1673 56.4783 27.1434 56.8372C27.1434 58.4491 27.1434 60.0844 27.1434 61.6963H29.4673V56.627C29.4589 56.4514 29.4901 56.2761 29.5585 56.1143C29.6269 55.9525 29.7308 55.8084 29.8623 55.6925C30.118 55.4823 30.3271 55.2253 30.5595 54.9917C31.2799 54.2909 31.8842 53.2864 32.744 52.9593C33.8242 52.7552 34.9289 52.7158 36.0207 52.8425C36.4158 52.8425 36.6017 52.9593 36.5552 53.3564C36.5316 53.4484 36.5316 53.5448 36.5552 53.6368C36.6611 53.8736 36.718 54.1297 36.7223 54.3893C36.7267 54.649 36.6785 54.9068 36.5807 55.1471C36.4829 55.3875 36.3375 55.6053 36.1534 55.7874C35.9692 55.9695 35.7501 56.1121 35.5095 56.2065C35.1017 56.4879 34.7569 56.8517 34.497 57.2747C34.2371 57.6977 34.0678 58.1705 34 58.663C33.9322 59.1555 33.9674 59.6568 34.1032 60.1348C34.2391 60.6129 34.4727 61.0572 34.7891 61.4394C35.0024 61.7007 35.253 61.929 35.5327 62.1168H39.9249H40.0876C40.8275 61.4821 41.2906 60.5813 41.3774 59.6074C41.4643 58.6335 41.1681 57.6642 40.5524 56.9073C40.1826 56.3944 39.6626 56.0105 39.0651 55.8093C38.763 55.8093 38.6932 55.5757 38.6932 55.2954C38.6932 55.0151 38.6932 54.5479 38.6932 54.1741C38.6932 53.3798 38.6932 53.3798 39.5066 53.6134C40.8105 54.0267 41.9488 54.8479 42.7557 55.9574C43.5625 57.0668 43.9956 58.4064 43.9918 59.7807C43.9918 60.5983 43.9918 61.3926 43.9918 62.1168H46.3157C46.2994 62.0398 46.2994 61.9602 46.3157 61.8832C46.4051 60.422 46.3193 58.9553 46.0601 57.5147C46.0407 57.4003 46.0572 57.2827 46.1071 57.1781C46.1571 57.0735 46.2381 56.987 46.3389 56.9307C46.7276 56.5842 47.216 56.3714 47.7333 56.3233C48.8023 56.3233 49.8945 56.3233 50.9635 56.3233C51.3433 56.3749 51.6908 56.5655 51.9395 56.8586C52.1882 57.1517 52.3206 57.5267 52.3114 57.9118C52.3114 59.1733 52.3114 60.4582 52.3114 61.7197C52.3416 61.8582 52.3416 62.0016 52.3114 62.1401H54.6353C54.6171 62.0319 54.6171 61.9213 54.6353 61.8131C54.6353 60.3881 54.6353 58.9631 54.6353 57.5147C54.6287 57.3935 54.6584 57.2731 54.7205 57.169C54.7827 57.0649 54.8744 56.9818 54.9839 56.9307C56.5141 56.1772 58.2631 56.003 59.9106 56.4401C60.7661 56.5762 61.5428 57.0216 62.0948 57.6926C62.6468 58.3636 62.9361 59.2141 62.9085 60.0844C62.9085 60.6684 62.9085 61.2525 62.9085 61.8365C62.9254 61.937 62.9254 62.0396 62.9085 62.1401H65.2324V59.0098C64.8606 58.9631 64.8838 58.8229 64.8606 58.7061ZM60.7472 49.3617C61.2524 46.9124 61.4321 44.4065 61.2817 41.9096C62.0424 43.0548 62.4168 44.4154 62.3499 45.7908C62.2829 47.1661 61.7781 48.4835 60.9099 49.5486C60.8922 49.6275 60.8553 49.7008 60.8026 49.762C60.7499 49.8231 60.683 49.8702 60.6078 49.899C60.5782 49.8017 60.5755 49.698 60.6001 49.5992C60.6247 49.5005 60.6755 49.4103 60.7472 49.3383V49.3617ZM45.4791 42.0731C45.2247 44.7041 45.5094 47.3596 46.3157 49.8756C45.3701 48.8282 44.7796 47.5061 44.6293 46.0997C44.4789 44.6933 44.7765 43.2753 45.4791 42.0497V42.0731ZM40.1573 38.1952C40.6918 38.4054 40.9939 38.6624 41.0636 39.1296C41.0885 39.315 41.0602 39.5036 40.9819 39.6733C40.9037 39.843 40.7789 39.9867 40.6221 40.0874C40.5629 40.1247 40.4944 40.1445 40.4246 40.1445C40.3547 40.1445 40.2862 40.1247 40.227 40.0874C40.227 40.0874 40.227 39.9005 40.227 39.7837L40.1573 38.1952ZM42.0629 32.4484C43.2946 31.4672 44.5727 30.7197 45.8509 29.832C45.6475 30.6538 45.1529 31.373 44.4599 31.8546C43.7669 32.3362 42.9229 32.5473 42.0862 32.4484H42.0629ZM45.5023 26.6549C45.665 26.8885 45.7347 27.1221 45.5023 27.309L40.4594 30.7664C40.3726 30.5647 40.3678 30.3369 40.446 30.1317C40.5242 29.9265 40.6791 29.7602 40.8777 29.6684C42.2721 28.7106 43.6199 27.7061 44.9911 26.725C45.1073 26.6081 45.2932 26.3512 45.5256 26.6549H45.5023ZM39.5763 25.8372C40.0899 25.3692 40.7133 25.0401 41.3881 24.8807C42.0629 24.7213 42.7669 24.737 43.434 24.9261L40.0644 27.2622C40.0644 27.2622 39.9249 27.379 39.832 27.2622C39.739 27.1454 39.3439 26.1176 39.5763 25.8372ZM5.29853 56.37C5.11262 56.5803 4.97318 56.37 4.83375 56.37L3.92742 55.4356C4.70526 55.4471 5.48268 55.3924 6.25134 55.2721C5.98598 55.6807 5.6653 56.0503 5.29853 56.37ZM28.0265 21.3286C26.1873 23.06 23.7825 24.0568 21.2638 24.1319C22.1466 23.1958 23.2096 22.45 24.3882 21.9399C25.5668 21.4299 26.8363 21.1662 28.1194 21.165L28.0265 21.3286ZM20.6829 26.3745C22.5133 26.4213 24.3329 26.0792 26.0228 25.3707C27.7127 24.6622 29.2349 23.6033 30.4898 22.263C30.7226 22.0429 31.0301 21.9203 31.3497 21.9203C31.6692 21.9203 31.9768 22.0429 32.2095 22.263C32.5116 22.52 32.2095 22.6835 32.2095 22.8704C30.8384 24.9095 28.932 26.5268 26.7018 27.5426C25.0114 28.2736 23.1966 28.6702 21.3568 28.7106L19.4512 28.5471C19.1026 28.5471 18.9167 28.3836 19.0329 27.9163C19.4047 26.4446 19.5442 26.3044 20.7758 26.3044L20.6829 26.3745ZM19.7068 30.5094C21.8199 30.7152 23.9525 30.4902 25.977 29.8479C28.0015 29.2057 29.8763 28.1594 31.4891 26.7716C32.4885 25.9257 33.3647 24.9427 34.0919 23.8515C34.3708 23.431 34.5567 23.4778 34.882 23.8515C35.8049 24.6546 36.5551 25.6386 37.0865 26.7432C37.618 27.8479 37.9196 29.0499 37.9728 30.2758C37.9728 30.486 38.1587 30.6496 37.9728 30.9299C36.9064 30.0245 36.1034 28.846 35.6489 27.5192C35.4398 26.9819 35.2306 26.5614 34.6264 26.468C34.3572 26.4479 34.0882 26.5109 33.8557 26.6487C33.6231 26.7864 33.4379 26.9924 33.325 27.2389C32.4106 28.6823 31.1829 29.8988 29.7339 30.797C28.285 31.6952 26.6524 32.2518 24.9589 32.425C22.996 32.7403 20.9958 32.7403 19.0329 32.425C18.9421 32.426 18.8521 32.4072 18.7692 32.3698C18.6863 32.3324 18.6125 32.2774 18.5528 32.2086C18.4931 32.1397 18.4491 32.0586 18.4236 31.971C18.3982 31.8833 18.392 31.7911 18.4054 31.7008C18.4751 30.5094 18.4519 30.5094 19.7068 30.5094ZM15.7562 38.4054C15.9653 38.2419 16.1512 38.1718 16.1745 38.5689C16.1977 38.9661 16.1745 39.6436 16.3139 40.2276C16.0731 40.222 15.8433 40.1249 15.6709 39.9558C15.4984 39.7868 15.396 39.5584 15.3843 39.3165C15.3576 39.1484 15.3783 38.9761 15.444 38.8192C15.5097 38.6623 15.6179 38.5271 15.7562 38.4288V38.4054ZM23.0533 50.8802C21.34 50.7712 19.6204 50.8259 17.9174 51.0437C15.8443 51.4028 13.9794 52.5276 12.6886 54.1974C12.5706 54.3668 12.4083 54.5001 12.2196 54.5826C12.031 54.665 11.8233 54.6934 11.6196 54.6646C10.7133 54.6646 9.80693 54.6646 8.90061 54.6646C9.64426 53.847 10.5738 53.3798 11.2245 52.5622C12.4396 51.1433 13.122 49.3414 13.1534 47.4695C13.1534 45.1334 13.1534 42.7973 13.1534 40.1809C13.7111 41.4423 14.478 42.3534 15.6865 42.517C16.8949 42.6805 17.0343 43.1243 17.4294 43.9186C18.6461 46.4224 20.6689 48.4394 23.1695 49.6421C23.4019 49.7589 23.6807 49.8289 23.6807 50.2261C23.6807 50.6232 23.6807 50.9035 23.0533 50.9035V50.8802ZM30.9778 51.4642L28.8398 53.6134C28.5842 53.8937 28.4448 53.8937 28.1891 53.6134C27.5617 52.9593 26.911 52.3052 26.237 51.6744C26.0696 51.4874 25.9712 51.2483 25.9582 50.997C25.9582 50.5999 25.9582 50.4597 26.4694 50.5298C27.8394 50.7519 29.236 50.7519 30.606 50.5298C30.9081 50.5298 31.3032 50.3429 31.2102 50.9269C31.2301 51.0398 31.2189 51.156 31.178 51.2631C31.137 51.3701 31.0678 51.4638 30.9778 51.5343V51.4642ZM29.3046 48.3572C27.1234 48.6238 24.9171 48.1318 23.0526 46.963C21.1881 45.7943 19.7778 44.0192 19.0561 41.9329C18.6407 40.6585 18.4289 39.326 18.4287 37.9849C18.4287 37.0972 18.4287 36.2329 18.4287 35.3685C18.4287 34.5041 18.6611 34.5509 19.2653 34.6443C21.2619 34.9247 23.2876 34.9247 25.2842 34.6443C28.6271 34.2768 31.7196 32.6891 33.9757 30.1824C34.2546 29.8553 34.3708 29.8787 34.6031 30.1824C35.4082 31.4308 36.4225 32.5294 37.601 33.4295C37.7355 33.5203 37.8417 33.6474 37.9075 33.7962C37.9733 33.9449 37.9959 34.1094 37.9728 34.2705C37.9728 35.1115 37.9728 35.9759 37.9728 37.1907C38.1349 39.0235 37.8476 40.8683 37.1362 42.5637C36.4782 44.156 35.4018 45.5384 34.0223 46.5631C32.6427 47.5877 31.012 48.2159 29.3046 48.3805V48.3572ZM39.2045 58.9864C39.1874 59.3775 39.0253 59.7478 38.75 60.0246C38.4746 60.3013 38.1062 60.4644 37.7172 60.4815C37.3289 60.4815 36.9565 60.3265 36.6819 60.0505C36.4074 59.7745 36.2531 59.4001 36.2531 59.0098C36.2531 58.6195 36.4074 58.2451 36.6819 57.9691C36.9565 57.6931 37.3289 57.5381 37.7172 57.5381C38.1024 57.5548 38.4677 57.7145 38.7424 57.9864C39.0172 58.2582 39.1818 58.6229 39.2045 59.0098V58.9864ZM47.71 37.9616C47.6775 37.7251 47.6921 37.4844 47.753 37.2536C47.8139 37.0228 47.9199 36.8065 48.0648 36.6173C48.2098 36.4281 48.3907 36.2699 48.5971 36.1517C48.8035 36.0336 49.0313 35.9579 49.2671 35.9292C49.7881 35.8277 50.3008 35.6872 50.8009 35.5087C53.3107 34.3173 55.6114 35.5087 57.9353 36.0693C58.2502 36.1504 58.5271 36.3394 58.7181 36.6039C58.909 36.8684 59.002 37.1916 58.981 37.5177V39.1997C58.981 39.8071 58.981 40.3911 58.981 40.9751C58.981 41.5591 58.9811 41.4891 58.5395 41.5124C57.6442 41.6557 56.7275 41.5774 55.8691 41.2843C55.0106 40.9913 54.2362 40.4922 53.6128 39.8305L53.4036 39.5735C52.5903 38.5923 52.079 38.6157 51.3586 39.5735C50.7821 40.4057 49.9735 41.0478 49.0347 41.419C47.9192 41.8395 47.803 41.7461 47.803 40.6014L47.71 37.9616ZM58.3768 49.1982C57.9772 50.1933 57.2791 51.0386 56.3794 51.6163C55.4798 52.1941 54.4234 52.4757 53.3572 52.422C52.2434 52.4242 51.1559 52.0827 50.2415 51.4434C49.3271 50.8042 48.6301 49.8982 48.2446 48.8478C47.7554 47.4231 47.5732 45.9101 47.71 44.4092C47.71 44.1055 47.896 44.0588 48.1283 44.0588C49.6903 43.9824 51.1632 43.3049 52.2417 42.1665C52.5438 41.8395 52.7065 42.1665 52.8691 42.2833C54.0339 43.2103 55.4532 43.7565 56.936 43.8485H58.5627C58.7486 43.8485 59.0043 43.8485 59.0043 44.1289C59.1564 45.8443 58.9424 47.5725 58.3768 49.1982Z" fill="#010101"/>
<path d="M58.5627 43.7317H58.3304C58.4063 43.7538 58.4868 43.7538 58.5627 43.7317Z" fill="#010101"/>
<path d="M37.1362 42.6337C37.8476 40.9384 38.1349 39.0935 37.9728 37.2607C37.9728 36.0459 37.9728 35.1816 37.9728 34.3406C37.996 34.1794 37.9733 34.015 37.9075 33.8662C37.8417 33.7174 37.7355 33.5903 37.601 33.4996C36.4226 32.5995 35.4082 31.5008 34.6032 30.2524C34.3708 29.902 34.2546 29.8787 33.9757 30.2524C31.7196 32.7592 28.6271 34.3468 25.2842 34.7144C23.2876 34.9948 21.2619 34.9948 19.2653 34.7144C18.6611 34.7144 18.359 34.7144 18.4287 35.4386C18.4984 36.1628 18.4287 37.1673 18.4287 38.055C18.4289 39.3961 18.6407 40.7286 19.0561 42.003C19.7778 44.0893 21.1881 45.8644 23.0526 47.0331C24.9171 48.2019 27.1234 48.6938 29.3046 48.4273C31.0095 48.2647 32.6385 47.64 34.0177 46.6196C35.397 45.5993 36.4749 44.2217 37.1362 42.6337ZM24.0526 41.4657C23.6477 41.5391 23.2319 41.5253 22.8328 41.4251C22.4336 41.3248 22.0602 41.1405 21.7372 40.8843C21.4143 40.6282 21.1491 40.3059 20.9593 39.9389C20.7696 39.572 20.6595 39.1687 20.6364 38.7558V38.4755C20.6128 38.2659 20.6128 38.0543 20.6364 37.8447C20.6704 37.5909 20.7954 37.3582 20.9879 37.1905C21.1805 37.0227 21.4274 36.9314 21.6822 36.9337C21.9198 36.9092 22.1583 36.9712 22.3544 37.1084C22.5505 37.2455 22.6913 37.4488 22.7512 37.6812C22.7862 37.9135 22.7862 38.1498 22.7512 38.382C22.7512 38.8726 22.9138 39.2464 23.4483 39.223C23.9829 39.1997 24.1688 38.8493 24.1688 38.3587C24.1688 38.3587 24.1688 38.1718 24.1688 38.0784C24.1618 37.7925 24.2639 37.5147 24.4539 37.3019C24.644 37.0891 24.9078 36.9574 25.1913 36.9337C25.475 36.9191 25.7538 37.0117 25.9731 37.1932C26.1924 37.3748 26.3363 37.6321 26.3765 37.9148C26.5162 38.6934 26.3529 39.4961 25.9203 40.157C25.4878 40.8179 24.8191 41.2865 24.0526 41.4657ZM29.9553 37.9382C29.9787 37.6635 30.104 37.4077 30.3063 37.2215C30.5087 37.0354 30.7733 36.9327 31.0476 36.9337C31.309 36.9249 31.5645 37.0128 31.7658 37.1807C31.9671 37.3486 32.1001 37.5849 32.1398 37.8447C32.1622 38.031 32.1622 38.2192 32.1398 38.4054C32.1398 38.8726 32.349 39.1997 32.837 39.1997C33.325 39.1997 33.5574 38.896 33.6271 38.4521C33.6968 38.0083 33.6271 38.0316 33.6271 37.8214C33.6786 37.5747 33.8129 37.3533 34.0076 37.1943C34.2022 37.0354 34.4454 36.9487 34.6961 36.9487C34.9469 36.9487 35.19 37.0354 35.3847 37.1943C35.5793 37.3533 35.7137 37.5747 35.7651 37.8214C35.8677 38.2645 35.8684 38.7252 35.7671 39.1686C35.6658 39.6119 35.4653 40.0262 35.1807 40.3799C34.896 40.7336 34.5349 41.0173 34.1247 41.2095C33.7146 41.4017 33.2662 41.4973 32.8137 41.489C32.3877 41.4613 31.972 41.3452 31.5929 41.1479C31.2137 40.9507 30.8794 40.6766 30.6108 40.343C30.3423 40.0094 30.1454 39.6235 30.0326 39.2096C29.9197 38.7957 29.8934 38.3628 29.9553 37.9382Z" fill="#F7CBA6"/>
<path d="M26.3765 55.2253C25.6328 54.5946 25.1216 53.5433 24.2385 53.2396C23.2693 53.0749 22.2795 53.0749 21.3103 53.2396C21.1012 53.2396 20.7758 53.0761 20.7061 53.4265C20.6364 53.7769 21.0315 53.7536 21.2639 53.8236C22.1548 54.1196 22.9357 54.6797 23.5039 55.4302C24.0722 56.1807 24.4012 57.0866 24.4476 58.0286C24.4476 59.3836 24.4476 60.7151 24.4476 62.0701H27.1666C27.1666 60.4582 27.1666 58.8229 27.1666 57.211C27.2017 56.8407 27.1483 56.4673 27.0109 56.1219C26.8734 55.7765 26.6559 55.4692 26.3765 55.2253Z" fill="#C1D8F0"/>
<path d="M21.566 61.486C22.1934 61.486 22.2167 61.2057 22.1934 60.7385C22.1934 59.8742 22.1934 59.0332 22.1934 58.1922C22.2871 57.8457 22.3 57.4822 22.2313 57.1299C22.1626 56.7776 22.014 56.4459 21.797 56.1607C21.5801 55.8754 21.3007 55.6443 20.9805 55.4853C20.6603 55.3262 20.308 55.2434 19.9508 55.2434C19.5937 55.2434 19.2413 55.3262 18.9211 55.4853C18.601 55.6443 18.3216 55.8754 18.1046 56.1607C17.8877 56.4459 17.7391 56.7776 17.6704 57.1299C17.6016 57.4822 17.6146 57.8457 17.7083 58.1922C17.7083 59.1033 17.7083 59.991 17.7083 60.8787C17.7083 61.2524 17.7083 61.4861 18.1963 61.5795C18.3222 61.5987 18.4421 61.6466 18.5468 61.7195C18.6515 61.7924 18.7383 61.8883 18.8005 62H20.6829C20.7706 61.8425 20.8988 61.7116 21.0542 61.6212C21.2096 61.5307 21.3864 61.484 21.566 61.486Z" fill="#C1D8F0"/>
<path d="M18.1498 53.9872C18.2607 53.9499 18.3523 53.8699 18.4045 53.7648C18.4568 53.6597 18.4655 53.538 18.4287 53.4265C18.4287 53.0761 18.0568 53.3097 17.8942 53.4265C16.6355 53.63 15.4855 54.2643 14.6385 55.2221C13.7916 56.1799 13.2998 57.4024 13.2463 58.6827V62.0934H15.5703C15.5703 61.0188 15.5703 59.9209 15.5703 58.8463C15.4327 57.8661 15.6084 56.8673 16.0721 55.994C16.5357 55.1207 17.2632 54.418 18.1498 53.9872Z" fill="#C1D8F0"/>
<path d="M34.7426 61.3225C34.4477 60.9403 34.233 60.5019 34.1116 60.0338C33.9902 59.5657 33.9646 59.0778 34.0363 58.5994C34.108 58.1211 34.2755 57.6624 34.5287 57.2511C34.782 56.8398 35.1156 56.4844 35.5095 56.2065C35.8963 56.0169 36.2079 55.7013 36.3935 55.3111C36.5792 54.9209 36.628 54.479 36.532 54.0573C36.5084 53.9654 36.5084 53.8689 36.532 53.777C36.532 53.3798 36.3926 53.263 35.9975 53.263C34.9056 53.1364 33.801 53.1757 32.7208 53.3798C31.8609 53.7069 31.2567 54.7114 30.5363 55.4122C30.3039 55.6458 30.0947 55.9028 29.8391 56.1131C29.7076 56.2289 29.6037 56.3731 29.5353 56.5349C29.4669 56.6967 29.4357 56.8719 29.444 57.0475V62.1168H30.4898C30.4767 62.0317 30.4767 61.945 30.4898 61.8598C30.4958 61.7125 30.5306 61.5679 30.5923 61.4341C30.6539 61.3004 30.7412 61.1801 30.8491 61.0803C30.957 60.9805 31.0835 60.9031 31.2212 60.8524C31.3589 60.8018 31.5052 60.779 31.6518 60.7853H32.1398C32.3488 60.7737 32.5583 60.7737 32.7672 60.7853C32.8955 60.7941 33.0208 60.8284 33.1359 60.8861C33.251 60.9438 33.3536 61.0238 33.4378 61.1215C33.522 61.2192 33.5862 61.3326 33.6267 61.4553C33.6671 61.578 33.6831 61.7076 33.6736 61.8365C33.687 61.9216 33.687 62.0083 33.6736 62.0935H35.5095C35.2146 61.8792 34.9557 61.6189 34.7426 61.3225ZM32.4187 59.991H31.8609C30.7919 59.991 30.2109 59.5238 30.3504 58.7295C30.3657 58.5181 30.4487 58.3174 30.5869 58.1574C30.7251 57.9973 30.9112 57.8866 31.1173 57.8418C31.5905 57.7249 32.0848 57.7249 32.5581 57.8418C32.7015 57.851 32.8418 57.8885 32.9708 57.9521C33.0998 58.0158 33.2151 58.1044 33.31 58.2129C33.405 58.3214 33.4777 58.4476 33.5242 58.5843C33.5706 58.721 33.5898 58.8656 33.5806 59.0098C33.5715 59.154 33.5341 59.295 33.4708 59.4246C33.4074 59.5543 33.3193 59.6702 33.2114 59.7657C33.1035 59.8611 32.978 59.9343 32.842 59.9809C32.7059 60.0276 32.5621 60.0469 32.4187 60.0377V59.991Z" fill="#C1D8F0"/>
<path d="M39.5066 53.4032C38.7165 53.1695 38.7165 53.1695 38.6932 53.9638C38.6932 54.3376 38.6932 54.7114 38.6932 55.0851C38.6932 55.4589 38.6932 55.529 39.0651 55.5991C39.6626 55.8002 40.1826 56.1841 40.5524 56.6971C41.1681 57.454 41.4643 58.4233 41.3774 59.3971C41.2906 60.371 40.8275 61.2719 40.0876 61.9065H39.9249H44.015C44.015 61.0889 44.015 60.2946 44.015 59.5704C44.0173 58.1932 43.5808 56.8514 42.7696 55.7416C41.9583 54.6318 40.8148 53.8123 39.5066 53.4032Z" fill="#C1D8F0"/>
<path d="M5.29854 53.1228C6.54777 53.0995 7.75468 52.6637 8.7332 51.8827C9.71172 51.1017 10.4075 50.0189 10.7133 48.8011C10.9564 47.2564 11.042 45.6909 10.9689 44.1289C10.5041 44.1289 10.0858 44.3157 9.66751 44.3391C8.53074 44.4053 7.39433 44.2032 6.34918 43.7488C5.30404 43.2945 4.37917 42.6006 3.64856 41.7227C3.55275 41.5816 3.41847 41.4712 3.26183 41.4049C3.10518 41.3386 2.93283 41.3192 2.76546 41.3489C1.77621 41.5001 0.836558 41.8843 0.0232391 42.4702V44.9465C0.11225 44.8256 0.227698 44.727 0.360669 44.6581C0.493641 44.5893 0.640582 44.552 0.790137 44.5493C1.02919 44.5354 1.26577 44.6043 1.46034 44.7446C1.65491 44.885 1.79568 45.0881 1.85914 45.3203C1.85914 45.5305 1.85914 45.7408 1.99858 45.9977C2.23097 45.8109 2.16124 45.6006 2.18448 45.4371C2.19331 45.3112 2.2268 45.1883 2.28304 45.0754C2.33927 44.9626 2.41714 44.862 2.51216 44.7795C2.60718 44.697 2.71748 44.6342 2.83673 44.5947C2.95598 44.5552 3.08181 44.5398 3.20701 44.5493C3.45739 44.5181 3.71056 44.579 3.91983 44.7207C4.1291 44.8623 4.28036 45.0753 4.34573 45.3203C4.45721 45.7816 4.43311 46.2656 4.27636 46.7134C4.11961 47.1613 3.83693 47.5537 3.46264 47.8432C3.06464 48.1356 2.58446 48.2932 2.09153 48.2932C1.59859 48.2932 1.11841 48.1356 0.720413 47.8432C0.430587 47.6356 0.192066 47.3639 0.0232391 47.049V50.483C0.595433 51.349 1.38393 52.0487 2.30976 52.512C3.23558 52.9753 4.26625 53.1859 5.29854 53.1228ZM5.90275 45.2268C5.9469 45.0321 6.05196 44.8567 6.20252 44.7264C6.35309 44.596 6.54123 44.5176 6.73936 44.5026C6.95973 44.4537 7.18976 44.4746 7.39783 44.5625C7.6059 44.6503 7.78179 44.8008 7.90132 44.9932C8.04076 45.1567 7.90132 45.4137 8.20343 45.5305C8.50554 45.6473 8.20344 45.2268 8.38935 45.0867C8.49234 44.8746 8.66193 44.7024 8.87195 44.5969C9.08196 44.4913 9.32071 44.4582 9.55131 44.5026C9.7888 44.5183 10.0129 44.6187 10.1833 44.7857C10.3537 44.9528 10.4592 45.1755 10.4809 45.4137C10.5554 45.8826 10.4942 46.3631 10.3047 46.798C10.1151 47.2329 9.80524 47.6038 9.41187 47.8666C9.01359 48.1159 8.54956 48.2382 8.08085 48.2173C7.61213 48.1965 7.16067 48.0335 6.78584 47.7498C6.39525 47.4738 6.09871 47.0835 5.93654 46.6321C5.77438 46.1807 5.75447 45.69 5.87952 45.2268H5.90275Z" fill="#F7CBA6"/>
<path d="M58.5628 43.7317C58.4868 43.7538 58.4063 43.7538 58.3304 43.7317H57.9585C58.2918 44.1245 58.4862 44.6172 58.5114 45.1329C58.5367 45.6485 58.3913 46.158 58.098 46.5818C57.7938 47.0018 57.3591 47.308 56.8624 47.4519C56.3658 47.5957 55.8356 47.569 55.3558 47.376C54.8698 47.1484 54.4771 46.759 54.2442 46.2736C54.0112 45.7883 53.9524 45.2369 54.0776 44.7129C54.1039 44.5141 54.1888 44.3278 54.3213 44.1779C54.4538 44.028 54.6279 43.9214 54.8212 43.8719C55.3557 43.7084 55.7508 43.8719 56.3086 44.5727C56.3086 44.1055 56.9128 44.0354 56.936 43.5916C55.4532 43.4996 54.034 42.9533 52.8692 42.0264C52.7065 41.8862 52.5438 41.5825 52.2417 41.9096C51.1632 43.0479 49.6903 43.7255 48.1284 43.8018C47.896 43.8018 47.7101 43.8018 47.7101 44.1522C47.5732 45.6531 47.7554 47.1661 48.2446 48.5908C48.6301 49.6412 49.3271 50.5472 50.2415 51.1864C51.1559 51.8257 52.2434 52.1673 53.3572 52.165C54.3943 52.2394 55.4294 51.9956 56.3257 51.4658C57.222 50.9361 57.9372 50.1454 58.3768 49.1982C58.9425 47.5725 59.1564 45.8443 59.0043 44.1289C59.0043 43.6616 58.7487 43.7551 58.5628 43.7317ZM50.8938 47.6797C50.3206 47.7168 49.7541 47.5392 49.3035 47.1811C48.8529 46.8231 48.5502 46.31 48.4537 45.7408C48.3453 45.4369 48.3464 45.1045 48.4568 44.8014C48.5672 44.4982 48.78 44.2437 49.0579 44.0821C49.6157 43.8018 50.1037 43.9653 50.7079 44.6895C50.7549 44.5528 50.8283 44.4267 50.9239 44.3186C51.0195 44.2104 51.1354 44.1224 51.265 44.0594C51.3946 43.9965 51.5352 43.9599 51.6789 43.9517C51.8226 43.9436 51.9665 43.9641 52.1023 44.012C52.3595 44.0968 52.5793 44.2693 52.7235 44.4996C52.8678 44.7299 52.9275 45.0037 52.8924 45.2736C52.9153 45.8523 52.7235 46.419 52.3542 46.8636C51.9849 47.3082 51.4644 47.5991 50.8938 47.6797Z" fill="#F7CBA6"/>
<path d="M48.9417 41.4424C49.8805 41.0711 50.6891 40.429 51.2657 39.5968C51.9861 38.5923 52.4973 38.569 53.3107 39.5968L53.5199 39.8538C54.1432 40.5156 54.9177 41.0146 55.7761 41.3077C56.6346 41.6008 57.5512 41.6791 58.4466 41.5358C58.8184 41.5358 58.9113 41.3256 58.8881 40.9985C58.8649 40.6715 58.8881 39.8305 58.8881 39.2231V37.5177C58.9091 37.1916 58.8161 36.8684 58.6251 36.6039C58.4342 36.3394 58.1573 36.1504 57.8423 36.0694C55.5184 35.4153 53.1945 34.3173 50.7079 35.5087C50.2078 35.6872 49.6951 35.8277 49.1741 35.9292C48.9383 35.958 48.7106 36.0336 48.5042 36.1517C48.2978 36.2699 48.1168 36.4282 47.9719 36.6173C47.8269 36.8065 47.7209 37.0228 47.66 37.2536C47.5991 37.4844 47.5845 37.7251 47.6171 37.9616V40.6481C47.7101 41.7694 47.8263 41.8628 48.9417 41.4424Z" fill="#A2C4E8"/>
<path d="M5.29853 40.1575C5.88333 40.916 6.68036 41.4814 7.58725 41.7811C8.49414 42.0809 9.46945 42.1012 10.3879 41.8395C10.473 41.8283 10.555 41.7997 10.6287 41.7555C10.7024 41.7112 10.7662 41.6522 10.8163 41.5822C10.8664 41.5121 10.9017 41.4324 10.9199 41.3481C10.9382 41.2638 10.939 41.1766 10.9224 41.0919C10.9224 40.0407 10.9224 38.9894 10.9224 37.9148C10.9519 37.7332 10.9442 37.5474 10.8999 37.3688C10.8556 37.1902 10.7755 37.0225 10.6646 36.876C10.5537 36.7296 10.4143 36.6074 10.2548 36.5169C10.0954 36.4264 9.91927 36.3695 9.73722 36.3497L5.74008 35.1816C5.40414 35.0994 5.05349 35.0994 4.71755 35.1816C3.16053 35.5554 1.6035 35.9058 0.0697174 36.3263V39.8538C0.800158 39.4827 1.58455 39.2303 2.39364 39.1062C3.41616 38.9194 4.48516 38.8493 5.29853 40.1575Z" fill="#A2C4E8"/>
<path d="M19.2421 32.4016C21.2049 32.717 23.2052 32.717 25.1681 32.4016C26.8616 32.2284 28.4941 31.6718 29.9431 30.7736C31.3921 29.8754 32.6198 28.6589 33.5342 27.2155C33.6471 26.969 33.8322 26.7631 34.0648 26.6253C34.2974 26.4875 34.5663 26.4245 34.8356 26.4446C35.4398 26.4446 35.6489 26.9586 35.8581 27.4959C36.3125 28.8227 37.1155 30.0012 38.182 30.9065C38.3214 30.6262 38.182 30.4627 38.182 30.2524C38.1287 29.0266 37.8271 27.8245 37.2957 26.7199C36.7642 25.6153 36.0141 24.6313 35.0912 23.8282C34.7658 23.5011 34.5799 23.4544 34.3011 23.8282C33.5738 24.9193 32.6977 25.9023 31.6983 26.7483C30.0622 28.1671 28.1536 29.2331 26.0909 29.8801C24.0282 30.527 21.8553 30.7412 19.7068 30.5094C18.4519 30.5094 18.4752 30.5094 18.5216 31.6541C18.5013 31.7546 18.5056 31.8585 18.5342 31.9569C18.5628 32.0552 18.6149 32.1452 18.6858 32.2188C18.7568 32.2924 18.8445 32.3475 18.9414 32.3794C19.0384 32.4113 19.1415 32.4189 19.2421 32.4016Z" fill="#555057"/>
<path d="M62.7458 59.9443C62.7969 59.0583 62.5183 58.1849 61.9642 57.494C61.4101 56.8032 60.6201 56.3442 59.748 56.2065C58.1004 55.7694 56.3514 55.9436 54.8212 56.6971C54.7117 56.7483 54.62 56.8312 54.5579 56.9353C54.4957 57.0394 54.4661 57.1599 54.4727 57.2811C54.4727 58.7295 54.4727 60.1545 54.4727 61.5795C54.4545 61.6878 54.4545 61.7983 54.4727 61.9066H62.6529C62.6698 61.8061 62.6698 61.7034 62.6529 61.6029C62.7226 61.1123 62.7691 60.5283 62.7458 59.9443Z" fill="#C1D8F0"/>
<path d="M4.18305 59.3369C4.20132 59.0761 4.15332 58.8149 4.04356 58.5778C3.9338 58.3408 3.76588 58.1358 3.55559 57.9819C3.19827 57.5744 2.74558 57.2627 2.23841 57.0751C1.73125 56.8875 1.18558 56.8298 0.650693 56.9073H0.0464783V62H4.15981C4.19047 61.8694 4.19047 61.7335 4.15981 61.6029C4.12107 60.8478 4.12884 60.091 4.18305 59.3369Z" fill="#C1D8F0"/>
<path d="M52.2417 57.7717C52.2509 57.3865 52.1184 57.0116 51.8697 56.7185C51.621 56.4254 51.2736 56.2348 50.8938 56.1831C49.8248 56.1831 48.7326 56.1831 47.6636 56.1831C47.1463 56.2312 46.6578 56.444 46.2692 56.7905C46.1683 56.8469 46.0873 56.9333 46.0374 57.0379C45.9874 57.1425 45.971 57.2601 45.9903 57.3745C46.2496 58.8151 46.3354 60.2818 46.246 61.743C46.2297 61.82 46.2297 61.8996 46.246 61.9766H52.1255C52.1557 61.8381 52.1557 61.6946 52.1255 61.5561C52.2184 60.318 52.2417 59.0331 52.2417 57.7717Z" fill="#C1D8F0"/>
<path d="M19.4512 28.1733L21.3568 28.3369C23.1966 28.2965 25.0114 27.8999 26.7018 27.1688C28.932 26.153 30.8384 24.5358 32.2095 22.4966C32.349 22.3097 32.6046 22.1462 32.2095 21.8892C31.9768 21.6691 31.6692 21.5466 31.3497 21.5466C31.0301 21.5466 30.7226 21.6691 30.4898 21.8892C29.2349 23.2295 27.7127 24.2885 26.0228 24.9969C24.3329 25.7054 22.5133 26.0475 20.6829 26.0008C19.4512 26.0008 19.3118 26.1409 18.9399 27.3323C18.9167 28.1733 19.1026 28.1733 19.4512 28.1733Z" fill="#555057"/>
<path d="M11.0618 58.0987C11.2245 56.9073 11.2013 57.0007 10.0393 56.8839C9.4364 56.763 8.81102 56.8329 8.24921 57.0839C7.6874 57.3349 7.21676 57.7547 6.90203 58.2856C6.71611 58.5659 6.39077 58.7528 6.41401 59.1733C6.41401 60.0377 6.41401 60.9254 6.41401 61.7898C6.40082 61.8592 6.40082 61.9305 6.41401 62H10.8759C10.9046 61.8771 10.9046 61.7492 10.8759 61.6262C10.8333 60.4472 10.8955 59.2666 11.0618 58.0987Z" fill="#C1D8F0"/>
<path d="M56.4247 44.6662C56.1691 44.9231 55.9832 44.6662 55.774 44.4559C55.65 44.3272 55.491 44.2381 55.3169 44.1997C55.1428 44.1614 54.9613 44.1755 54.7951 44.2404C54.6289 44.3052 54.4854 44.4178 54.3826 44.5642C54.2798 44.7106 54.2222 44.8842 54.217 45.0633C54.1615 45.5297 54.2471 46.0021 54.4626 46.4188C54.6782 46.8355 55.0137 47.1773 55.4254 47.3994C55.828 47.5503 56.267 47.573 56.6828 47.4643C57.0985 47.3557 57.471 47.1209 57.7494 46.792C58.0342 46.4491 58.2015 46.0231 58.2266 45.5771C58.2517 45.131 58.1333 44.6888 57.8888 44.3158C57.8888 44.3158 57.6796 44.1055 57.7261 43.942C57.7726 43.7784 58.0282 43.942 58.2141 43.942H58.4465H56.8198C57.1219 44.2223 56.6804 44.526 56.4247 44.6662Z" fill="#F7CBA6"/>
<path d="M56.4248 44.7129C55.867 44.0354 55.4719 43.8485 54.9374 44.0121C54.7441 44.0616 54.57 44.1682 54.4375 44.3181C54.305 44.468 54.2201 44.6543 54.1938 44.853C54.0686 45.377 54.1274 45.9284 54.3604 46.4138C54.5933 46.8991 54.986 47.2886 55.4719 47.5162C55.9518 47.7092 56.482 47.7359 56.9786 47.592C57.4753 47.4482 57.91 47.142 58.2142 46.7219C58.5075 46.2982 58.6529 45.7887 58.6276 45.273C58.6024 44.7574 58.408 44.2647 58.0747 43.8719H58.4466C58.2607 43.8719 58.098 43.8719 57.9585 43.8719C57.8191 43.8719 57.9585 44.1289 58.1212 44.2457C58.3657 44.6187 58.4841 45.061 58.459 45.507C58.4339 45.953 58.2666 46.379 57.9818 46.7219C57.7034 47.0508 57.331 47.2856 56.9152 47.3943C56.4994 47.5029 56.0604 47.4802 55.6579 47.3293C55.2461 47.1072 54.9106 46.7655 54.695 46.3487C54.4795 45.932 54.3939 45.4596 54.4494 44.9932C54.4546 44.8141 54.5122 44.6405 54.615 44.4941C54.7178 44.3478 54.8613 44.2351 55.0275 44.1702C55.1937 44.1054 55.3752 44.0913 55.5493 44.1296C55.7234 44.168 55.8824 44.2571 56.0064 44.3858C56.2156 44.526 56.4015 44.853 56.6571 44.5961C56.9128 44.3391 57.3311 44.1522 57.1452 43.6617C56.9128 44.1756 56.4248 44.2457 56.4248 44.7129Z" fill="#F7CBA6"/>
<path d="M30.606 50.5298C29.236 50.7519 27.8394 50.7519 26.4694 50.5298C26.0511 50.5298 25.9582 50.5298 25.9582 50.997C25.9712 51.2483 26.0696 51.4874 26.237 51.6745C26.911 52.3052 27.5617 52.9593 28.1891 53.6134C28.4448 53.8938 28.5842 53.8938 28.8398 53.6134L30.9778 51.4642C31.0604 51.398 31.125 51.3118 31.1656 51.2138C31.2062 51.1158 31.2216 51.0091 31.2102 50.9035C31.3032 50.3429 30.8616 50.4831 30.606 50.5298Z" fill="#EDB388"/>
<path d="M21.3568 24.0618C23.8755 23.9868 26.2802 22.9899 28.1194 21.2585C26.8635 21.251 25.6187 21.495 24.4576 21.9763C23.2965 22.4576 22.2424 23.1666 21.3568 24.0618Z" fill="#555057"/>
<path d="M36.2764 59.0098C36.2702 59.2039 36.3028 59.3973 36.3724 59.5784C36.442 59.7596 36.5472 59.9248 36.6816 60.0643C36.816 60.2038 36.977 60.3147 37.1549 60.3904C37.3328 60.4661 37.524 60.505 37.7172 60.5049C38.1062 60.4877 38.4747 60.3247 38.75 60.048C39.0253 59.7712 39.1875 59.4008 39.2045 59.0098C39.1776 58.6346 39.0171 58.2818 38.7525 58.0158C38.4879 57.7498 38.1369 57.5885 37.7637 57.5614C37.5706 57.5552 37.3782 57.588 37.198 57.658C37.0178 57.7279 36.8534 57.8336 36.7147 57.9687C36.5759 58.1039 36.4656 58.2657 36.3903 58.4445C36.315 58.6234 36.2763 58.8156 36.2764 59.0098Z" fill="#ED1C24"/>
<path d="M61.2817 41.8862C61.4321 44.3831 61.2524 46.889 60.7472 49.3384L60.9099 49.5252C61.7781 48.4601 62.2829 47.1428 62.3499 45.7674C62.4168 44.392 62.0424 43.0314 61.2817 41.8862Z" fill="#C1D8F0"/>
<path d="M45.4791 42.0497C44.782 43.2727 44.4874 44.6861 44.6377 46.0875C44.788 47.489 45.3753 48.8067 46.3157 49.8523C45.5094 47.3362 45.2247 44.6807 45.4791 42.0497Z" fill="#C1D8F0"/>
<path d="M40.1573 27.3791L43.527 25.043C42.8599 24.8538 42.1558 24.8381 41.4811 24.9975C40.8063 25.1568 40.1828 25.486 39.6693 25.954C39.4369 26.1643 39.6693 27.3323 39.9249 27.4959C40.1806 27.6594 39.9946 27.4258 40.1573 27.3791Z" fill="#555057"/>
<path d="M40.4129 30.7664L45.4558 27.309C45.758 27.1221 45.6882 26.8885 45.4558 26.6549C45.2235 26.4213 45.0375 26.6549 44.8749 26.6549C43.5038 27.636 42.1559 28.6405 40.7615 29.5983C40.6603 29.6498 40.5705 29.7215 40.4976 29.8089C40.4248 29.8964 40.3704 29.9979 40.3378 30.1071C40.3052 30.2164 40.295 30.3312 40.308 30.4445C40.3209 30.5579 40.3566 30.6674 40.4129 30.7664Z" fill="#555057"/>
<path d="M45.8742 29.832C44.596 30.7197 43.3179 31.4672 42.0862 32.4484C42.9266 32.5534 43.7762 32.3451 44.4743 31.863C45.1723 31.3809 45.6703 30.6583 45.8742 29.832Z" fill="#555057"/>
<path d="M4.92671 56.2065C5.06615 56.3466 5.20558 56.5102 5.3915 56.2065C5.79813 55.8649 6.15074 55.4632 6.43726 55.0151C5.6686 55.1354 4.89118 55.1901 4.11334 55.1786L4.92671 56.2065Z" fill="#E3AD86"/>
<path d="M16.3139 40.2509C16.3139 39.6669 16.1977 39.1296 16.1745 38.5923C16.1512 38.055 15.9653 38.2653 15.7562 38.4288C15.6139 38.5289 15.5032 38.668 15.4372 38.8295C15.3713 38.991 15.353 39.1681 15.3843 39.3399C15.396 39.5817 15.4984 39.8101 15.6709 39.9792C15.8433 40.1482 16.0731 40.2453 16.3139 40.2509Z" fill="#E7B087"/>
<path d="M40.1573 40.1809C40.2165 40.2182 40.285 40.238 40.3548 40.238C40.4247 40.238 40.4932 40.2182 40.5524 40.1809C40.7091 40.0801 40.834 39.9364 40.9122 39.7667C40.9904 39.597 41.0188 39.4084 40.9939 39.223C40.9939 38.7558 40.6221 38.4989 40.0876 38.2886V39.8538C40.1573 39.994 40.1573 40.1575 40.1573 40.1809Z" fill="#EAB188"/>
<path d="M60.9099 49.5252C60.7705 49.5252 60.7007 49.5252 60.7472 49.3383C60.6796 49.408 60.6311 49.4942 60.6067 49.5884C60.5822 49.6827 60.5826 49.7816 60.6078 49.8756C60.683 49.8468 60.7499 49.7997 60.8026 49.7386C60.8553 49.6774 60.8922 49.6042 60.9099 49.5252Z" fill="#9AAFC9"/>
<path d="M60.9099 49.5252L60.7472 49.3383C60.7007 49.5019 60.7705 49.5252 60.9099 49.5252Z" fill="#9AAFC9"/>
<path d="M25.3307 36.9337C25.0472 36.9574 24.7834 37.0891 24.5934 37.3019C24.4033 37.5147 24.3013 37.7925 24.3082 38.0784C24.3082 38.0784 24.3082 38.2652 24.3082 38.3587C24.3082 38.8493 24.1223 39.223 23.5878 39.223C23.0533 39.223 22.8906 38.8726 22.8906 38.382C22.9256 38.1498 22.9256 37.9135 22.8906 37.6812C22.8307 37.4488 22.69 37.2455 22.4938 37.1084C22.2977 36.9712 22.0592 36.9093 21.8216 36.9337C21.5668 36.9314 21.3199 37.0227 21.1273 37.1905C20.9348 37.3582 20.8098 37.5909 20.7758 37.8447C20.7522 38.0543 20.7522 38.2659 20.7758 38.4755V38.7558C20.7989 39.1687 20.909 39.572 21.0987 39.939C21.2885 40.3059 21.5537 40.6282 21.8766 40.8844C22.1996 41.1405 22.573 41.3248 22.9722 41.4251C23.3713 41.5253 23.7871 41.5391 24.192 41.4657C24.9842 41.3177 25.6868 40.8623 26.1477 40.1978C26.6086 39.5334 26.791 38.7133 26.6553 37.9148C26.6356 37.7615 26.5853 37.6139 26.5073 37.4807C26.4293 37.3475 26.3253 37.2315 26.2015 37.1398C26.0777 37.0482 25.9367 36.9827 25.7871 36.9472C25.6374 36.9118 25.4822 36.9072 25.3307 36.9337Z" fill="#F7CBA6"/>
<path d="M35.8581 37.8214C35.8066 37.5747 35.6723 37.3533 35.4776 37.1944C35.283 37.0354 35.0398 36.9487 34.7891 36.9487C34.5383 36.9487 34.2952 37.0354 34.1005 37.1944C33.9058 37.3533 33.7715 37.5747 33.7201 37.8214C33.7201 38.0316 33.7201 38.2419 33.7201 38.4521C33.7201 38.6624 33.4412 39.223 32.9299 39.1997C32.4187 39.1763 32.256 38.8726 32.2327 38.4054C32.2551 38.2192 32.2551 38.031 32.2327 37.8447C32.1931 37.5849 32.06 37.3486 31.8587 37.1807C31.6575 37.0128 31.4019 36.9249 31.1405 36.9337C30.8662 36.9327 30.6016 37.0354 30.3993 37.2215C30.1969 37.4077 30.0716 37.6635 30.0483 37.9382C29.986 38.3702 30.0149 38.8107 30.1333 39.2307C30.2517 39.6508 30.4568 40.041 30.7352 40.3761C31.0137 40.7111 31.3593 40.9834 31.7494 41.1752C32.1396 41.3669 32.5656 41.4739 32.9996 41.4891C33.4443 41.4832 33.8819 41.3773 34.2805 41.179C34.679 40.9807 35.0282 40.6951 35.3024 40.3432C35.5767 39.9913 35.7689 39.5821 35.8651 39.1457C35.9612 38.7093 35.9588 38.2568 35.8581 37.8214Z" fill="#F7CBA6"/>
<path d="M32.6511 57.795C32.1778 57.6782 31.6835 57.6782 31.2102 57.795C31.0042 57.8399 30.8181 57.9506 30.6799 58.1106C30.5416 58.2706 30.4586 58.4713 30.4433 58.6827C30.3039 59.477 30.8849 59.9442 31.9539 59.9442H32.5116C32.8013 59.9628 33.0865 59.865 33.3044 59.6722C33.5223 59.4794 33.6551 59.2075 33.6736 58.9164C33.6921 58.6252 33.5947 58.3385 33.403 58.1194C33.2112 57.9004 32.9407 57.7669 32.6511 57.7483V57.795Z" fill="#010101"/>
<path d="M32.6743 60.6918C32.4653 60.6802 32.2558 60.6802 32.0468 60.6918H31.5588C31.4123 60.6855 31.266 60.7084 31.1283 60.759C30.9905 60.8096 30.8641 60.8871 30.7562 60.9869C30.6482 61.0867 30.5609 61.2069 30.4993 61.3407C30.4376 61.4744 30.4028 61.6191 30.3968 61.7664C30.3838 61.8515 30.3838 61.9382 30.3968 62.0234H33.4644C33.4779 61.9382 33.4779 61.8515 33.4644 61.7664C33.4921 61.5201 33.426 61.2723 33.2795 61.073C33.1329 60.8736 32.9167 60.7374 32.6743 60.6918Z" fill="#010101"/>
<path d="M0.650696 47.8199C1.0487 48.1123 1.52887 48.2698 2.02181 48.2698C2.51475 48.2698 2.99492 48.1123 3.39292 47.8199C3.76721 47.5304 4.04988 47.1379 4.20663 46.69C4.36339 46.2422 4.38749 45.7582 4.27601 45.2969C4.21065 45.0519 4.05938 44.839 3.85011 44.6973C3.64084 44.5556 3.38767 44.4948 3.13729 44.526C3.01209 44.5164 2.88626 44.5319 2.76701 44.5714C2.64777 44.6109 2.53746 44.6737 2.44244 44.7562C2.34741 44.8387 2.26955 44.9392 2.21332 45.0521C2.15709 45.1649 2.12359 45.2878 2.11477 45.4137C2.11477 45.5772 2.11476 45.7875 1.92885 45.9744C1.92885 45.7174 1.92885 45.5072 1.78942 45.2969C1.72597 45.0648 1.58519 44.8616 1.39062 44.7213C1.19605 44.581 0.959467 44.512 0.72041 44.526C0.570856 44.5287 0.423923 44.5659 0.290952 44.6348C0.157981 44.7036 0.0425324 44.8023 -0.0464783 44.9231V47.0723C0.128014 47.3703 0.366132 47.6257 0.650696 47.8199Z" fill="#F7CBA6"/>
<path d="M9.38863 47.8666C9.782 47.6038 10.0919 47.2329 10.2815 46.798C10.471 46.3631 10.5321 45.8826 10.4576 45.4137C10.436 45.1755 10.3305 44.9528 10.1601 44.7857C9.98968 44.6187 9.76556 44.5183 9.52807 44.5026C9.29747 44.4582 9.05873 44.4913 8.84872 44.5969C8.63871 44.7024 8.46911 44.8746 8.36611 45.0867C8.36611 45.2268 8.36612 45.3903 8.1802 45.5305C7.99429 45.6707 8.01753 45.1567 7.87809 44.9932C7.75856 44.8008 7.58266 44.6503 7.37459 44.5625C7.16652 44.4746 6.9365 44.4537 6.71613 44.5026C6.518 44.5176 6.32986 44.596 6.17929 44.7264C6.02873 44.8567 5.92367 45.0321 5.87952 45.2268C5.75207 45.6877 5.76841 46.1767 5.92634 46.6279C6.08427 47.0791 6.37618 47.4707 6.76261 47.7498C7.13744 48.0335 7.5889 48.1965 8.05762 48.2173C8.52634 48.2382 8.99035 48.1159 9.38863 47.8666Z" fill="#F7CBA6"/>
<path d="M52.1023 44.012C51.9665 43.9641 51.8226 43.9436 51.6789 43.9517C51.5352 43.9599 51.3946 43.9965 51.265 44.0594C51.1354 44.1224 51.0195 44.2104 50.9239 44.3186C50.8283 44.4267 50.7549 44.5528 50.7079 44.6895C50.1037 43.9653 49.6157 43.8018 49.0579 44.0821C48.78 44.2437 48.5672 44.4982 48.4568 44.8014C48.3464 45.1045 48.3453 45.4369 48.4537 45.7408C48.5502 46.31 48.8529 46.8231 49.3035 47.1811C49.7541 47.5392 50.3206 47.7168 50.8938 47.6797C51.4522 47.6004 51.9629 47.3197 52.3306 46.8899C52.6983 46.46 52.898 45.9105 52.8924 45.3436C52.9455 45.063 52.8944 44.7724 52.7488 44.5271C52.6032 44.2817 52.3732 44.0984 52.1023 44.012Z" fill="#F7CBA6"/>
<path d="M56.8431 19.413C56.7442 18.5533 56.3344 17.7602 55.6916 17.1846C55.0489 16.6089 54.218 16.2908 53.3572 16.2908C52.4963 16.2908 51.6655 16.6089 51.0228 17.1846C50.38 17.7602 49.9702 18.5533 49.8713 19.413C50.5001 21.9455 51.6919 24.3017 53.3572 26.3044C55.0293 24.3063 56.222 21.9484 56.8431 19.413ZM51.4516 19.413C51.4485 19.1625 51.4949 18.9139 51.5881 18.6816C51.6813 18.4494 51.8195 18.238 51.9946 18.0598C52.1697 17.8816 52.3783 17.7402 52.6082 17.6436C52.8381 17.547 53.0848 17.4973 53.3339 17.4973C53.6003 17.4676 53.8699 17.4948 54.1251 17.5769C54.3803 17.659 54.6154 17.7944 54.8151 17.974C55.0147 18.1537 55.1745 18.3737 55.2838 18.6196C55.3932 18.8656 55.4497 19.1319 55.4497 19.4013C55.4497 19.6707 55.3932 19.937 55.2838 20.183C55.1745 20.4289 55.0147 20.6489 54.8151 20.8285C54.6154 21.0082 54.3803 21.1435 54.1251 21.2257C53.8699 21.3078 53.6003 21.3349 53.3339 21.3052C53.0828 21.3053 52.8342 21.2548 52.6027 21.1568C52.3712 21.0588 52.1616 20.9153 51.9862 20.7346C51.8108 20.5539 51.6731 20.3397 51.5813 20.1047C51.4895 19.8697 51.4454 19.6186 51.4516 19.3662V19.413Z" fill="#A2C4E8"/>
<path d="M53.3339 28.6873C53.6825 28.6873 54.5191 28.6873 56.7268 25.0196C57.8655 23.3398 58.6123 21.4233 58.9113 19.413C58.8199 17.9916 58.1938 16.6585 57.16 15.6843C56.1263 14.7102 54.7625 14.168 53.3455 14.168C51.9286 14.168 50.5648 14.7102 49.5311 15.6843C48.4973 16.6585 47.8712 17.9916 47.7798 19.413C48.0788 21.4233 48.8256 23.3398 49.9642 25.0196C52.172 28.6873 52.9853 28.6873 53.3339 28.6873ZM53.3339 14.8576C54.5467 14.8572 55.7117 15.3334 56.58 16.1845C57.4484 17.0356 57.9514 18.1942 57.9818 19.413C57.2685 22.5597 55.6525 25.4269 53.3339 27.6594C51.0229 25.421 49.4083 22.5562 48.6861 19.413C48.7164 18.1942 49.2194 17.0356 50.0878 16.1845C50.9562 15.3334 52.1211 14.8572 53.3339 14.8576Z" fill="#010101"/>
<path d="M53.3339 27.6594C55.6525 25.4269 57.2685 22.5597 57.9818 19.413C57.9818 18.2048 57.5043 17.0461 56.6545 16.1918C55.8047 15.3375 54.652 14.8576 53.4501 14.8576C52.2483 14.8576 51.0956 15.3375 50.2458 16.1918C49.3959 17.0461 48.9185 18.2048 48.9185 19.413C49.5755 22.5297 51.1079 25.3916 53.3339 27.6594ZM53.3339 15.9789C53.7937 15.9758 54.2494 16.0642 54.6751 16.2389C55.1007 16.4136 55.4877 16.6712 55.8139 16.9969C56.14 17.3226 56.3989 17.71 56.5755 18.1367C56.7521 18.5633 56.8431 19.0209 56.8431 19.483C56.2152 22.0205 55.0144 24.3786 53.3339 26.3745C51.6687 24.3718 50.4768 22.0156 49.8481 19.483C49.8388 19.017 49.9221 18.5538 50.0931 18.1205C50.2641 17.6873 50.5194 17.2926 50.8441 16.9598C51.1687 16.6269 51.5561 16.3625 51.9836 16.1821C52.4112 16.0016 52.8702 15.9087 53.3339 15.9088V15.9789Z" fill="#010101"/>
<path d="M55.2395 19.3662C55.2395 18.8582 55.0388 18.371 54.6814 18.0117C54.324 17.6525 53.8393 17.4507 53.3339 17.4507C52.957 17.4507 52.5886 17.563 52.2752 17.7735C51.9619 17.984 51.7176 18.2831 51.5734 18.6332C51.4292 18.9832 51.3914 19.3684 51.4649 19.7399C51.5385 20.1115 51.72 20.4529 51.9865 20.7208C52.253 20.9887 52.5925 21.1711 52.9622 21.245C53.3318 21.3189 53.715 21.281 54.0632 21.136C54.4114 20.991 54.709 20.7455 54.9184 20.4305C55.1278 20.1155 55.2395 19.7451 55.2395 19.3662Z" fill="#010101"/>
<path d="M32.4419 5.58327C32.4988 5.08913 32.451 4.58848 32.3018 4.11419C32.1525 3.63991 31.9052 3.20271 31.576 2.83131C31.2468 2.45991 30.8432 2.16269 30.3917 1.95918C29.9401 1.75567 29.4509 1.65047 28.956 1.65047C28.4612 1.65047 27.9719 1.75567 27.5204 1.95918C27.0688 2.16269 26.6652 2.45991 26.336 2.83131C26.0068 3.20271 25.7595 3.63991 25.6103 4.11419C25.461 4.58848 25.4133 5.08913 25.4701 5.58327C26.098 8.12078 27.2988 10.4789 28.9793 12.4747C30.6362 10.4698 31.82 8.11375 32.4419 5.58327ZM27.0504 5.58327C27.0565 5.07928 27.26 4.59803 27.6167 4.24382C27.9734 3.88961 28.4546 3.69098 28.956 3.69102C29.4553 3.69102 29.934 3.89038 30.2871 4.24525C30.6401 4.60011 30.8384 5.08142 30.8384 5.58327C30.8384 6.0873 30.6408 6.57104 30.2885 6.92962C29.9361 7.2882 29.4574 7.49271 28.956 7.49885C28.6998 7.49903 28.4462 7.44727 28.2103 7.34664C27.9744 7.24602 27.7612 7.09863 27.5833 6.91326C27.4054 6.72789 27.2665 6.50834 27.1749 6.26778C27.0834 6.02722 27.041 5.77059 27.0504 5.51319V5.58327Z" fill="#A2C4E8"/>
<path d="M28.956 14.8576C29.3046 14.8576 30.118 14.8576 32.3257 11.1899C33.4644 9.51013 34.2111 7.59362 34.5102 5.58328C34.4188 4.16189 33.7926 2.82876 32.7589 1.85462C31.7251 0.88048 30.3613 0.338364 28.9444 0.338364C27.5275 0.338364 26.1636 0.88048 25.1299 1.85462C24.0962 2.82876 23.47 4.16189 23.3786 5.58328C23.6823 7.59238 24.4286 9.50789 25.5631 11.1899C27.7708 14.8576 28.5377 14.8576 28.956 14.8576ZM28.956 1.02788C30.1887 1.02788 31.3709 1.52014 32.2425 2.39635C33.1142 3.27256 33.6038 4.46095 33.6038 5.70009C32.8817 8.84335 31.267 11.7082 28.956 13.9465C26.6375 11.714 25.0214 8.84683 24.3082 5.70009C24.3082 4.46095 24.7979 3.27256 25.6695 2.39635C26.5411 1.52014 27.7233 1.02788 28.956 1.02788Z" fill="#010101"/>
<path d="M28.956 13.8297C31.267 11.5913 32.8817 8.72654 33.6039 5.58328C33.759 4.89904 33.7588 4.18846 33.6033 3.50431C33.4478 2.82017 33.1409 2.18004 32.7056 1.63144C32.2702 1.08283 31.7175 0.639858 31.0885 0.335419C30.4595 0.03098 29.7703 -0.127106 29.0722 -0.127106C28.3741 -0.127106 27.6849 0.03098 27.0559 0.335419C26.4269 0.639858 25.8742 1.08283 25.4389 1.63144C25.0035 2.18004 24.6967 2.82017 24.5412 3.50431C24.3856 4.18846 24.3854 4.89904 24.5406 5.58328C25.1888 8.70322 26.7225 11.5675 28.956 13.8297ZM28.956 2.14921C29.8827 2.15538 30.7693 2.52974 31.4223 3.19061C32.0754 3.85148 32.4419 4.74519 32.4419 5.6767C31.8131 8.20923 30.6213 10.5655 28.956 12.5682C27.2755 10.5723 26.0748 8.21421 25.4469 5.6767C25.4377 5.20649 25.5214 4.73913 25.6933 4.30173C25.8653 3.86433 26.1219 3.46562 26.4484 3.12875C26.7749 2.79187 27.1646 2.52356 27.5951 2.33937C28.0256 2.15517 28.4882 2.05877 28.956 2.05577V2.14921Z" fill="#010101"/>
<path d="M30.8616 5.51319C30.8616 5.01134 30.6633 4.53003 30.3103 4.17517C29.9573 3.8203 29.4785 3.62094 28.9793 3.62094C28.4779 3.6209 27.9966 3.81951 27.6399 4.17372C27.2832 4.52793 27.0798 5.0092 27.0736 5.51319C27.0736 6.02124 27.2744 6.50846 27.6318 6.8677C27.9892 7.22695 28.4739 7.42877 28.9793 7.42877C29.4806 7.42263 29.9594 7.21812 30.3117 6.85954C30.6641 6.50096 30.8617 6.01722 30.8616 5.51319Z" fill="#010101"/>
</g>
<defs>
<clipPath id="clip0_123_7530">
<rect width="65" height="62" fill="white"/>
</clipPath>
</defs>
</svg>
