<svg width="85" height="118" viewBox="0 0 85 118" fill="none" xmlns="http://www.w3.org/2000/svg">
<g clip-path="url(#clip0_427_6698)">
<path d="M85 0.296585H0V117.51H85V0.296585Z" fill="#8FD8F8"/>
<path d="M7.92943 116.188C8.74271 113.52 9.59411 110.864 10.4709 108.246C10.8394 107.217 10.9538 106.785 9.60681 106.302C8.25983 105.819 8.13275 106.632 7.85319 107.433C6.97638 109.974 5.9852 112.402 5.3117 114.956C5.00672 116.226 4.43489 116.074 3.67244 115.833C2.4017 115.426 1.13096 114.994 -0.0762482 114.562V117.408L0.254145 117.523H8.8952L8.27253 117.332C7.00179 116.976 7.8659 116.404 7.92943 116.188Z" fill="#010101"/>
<path d="M35.5808 114.956C33.9543 114.422 34.1449 115.464 33.9034 116.163C33.7382 116.608 33.5857 117.065 33.4333 117.51H36.3433C36.3864 117.359 36.4373 117.211 36.4957 117.065C36.8515 115.985 37.1438 115.477 35.5808 114.956Z" fill="#010101"/>
<path d="M72.6103 74.0505C73.1496 72.5013 73.1183 70.8104 72.5219 69.2822C71.9255 67.754 70.8033 66.4889 69.3572 65.7144C68.2897 65.0537 66.3582 65.4984 66.104 64.1006C65.9134 62.9315 66.7648 61.5591 67.1461 60.2884C67.2477 59.958 67.2731 59.6022 67.3875 59.2718C67.8866 57.893 68.0024 56.4047 67.7226 54.9653C67.4428 53.5259 66.7778 52.1894 65.7986 51.098C64.8193 50.0066 63.5624 49.2012 62.1617 48.7676C60.7609 48.334 59.2688 48.2884 57.8442 48.6356C57.1834 48.8648 56.4723 48.9078 55.7887 48.7599C55.1051 48.612 54.4754 48.2788 53.9685 47.797C49.1853 43.7742 43.0998 41.6328 36.8515 41.7736C34.3017 41.807 31.7845 42.3517 29.449 43.3754C27.1135 44.3991 25.0071 45.881 23.2546 47.7334C22.0474 48.9279 21.0689 49.6014 19.0484 48.8517C12.8599 46.5516 6.46808 44.798 0.241441 42.5615L0 42.4853V45.2682C5.94708 47.2887 11.8814 49.36 17.8539 51.2915C19.2645 51.749 19.7473 51.9142 19.023 53.6551C17.1423 58.2298 15.5666 62.9569 14.0544 67.6333C13.8673 68.9439 13.8673 70.2746 14.0544 71.5853L6.22664 69.0438C3.36747 68.2178 1.8807 68.9675 0.381223 71.509L0 72.1825V77.6975C1.04201 75.8761 2.09673 74.0675 3.16415 72.2715C3.33343 71.9318 3.63029 71.673 3.98984 71.5515C4.3494 71.4301 4.74241 71.4559 5.08297 71.6234C8.97145 73.0212 12.8853 74.3343 16.8246 75.5627C17.6379 75.8168 17.6887 75.9693 17.6887 76.8334C17.7414 80.5607 18.9786 84.1745 21.2214 87.1519C22.4922 88.9563 20.5733 90.532 20.2938 92.2348C20.154 93.0481 18.9214 92.7813 18.0827 92.7431C14.8423 92.6288 11.6019 92.3873 8.34878 92.5779C6.95962 92.7325 5.61568 93.1646 4.39677 93.8487C2.36353 95.4338 0.951359 97.6825 0.406638 100.202L0 100.063V109.631C0.94035 107.09 1.8807 104.548 2.64315 101.931C4.67633 95.0051 7.61175 95.094 13.2157 95.1576C15.1727 95.1576 15.4777 95.9835 15.2616 97.699C15.0456 99.4145 14.9312 101.371 14.8804 103.201C14.8169 105.578 15.6047 106.099 17.676 105.095C19.7473 104.091 21.6662 103.087 24.0298 101.905C23.4644 104.363 22.7168 106.776 21.7932 109.123C20.8656 111.931 19.849 114.714 18.9722 117.535H21.8568C23.4833 112.681 25.148 107.789 26.9398 102.528C28.147 105.069 29.1127 107.23 30.1547 109.339C31.057 111.182 31.9465 111.309 33.1918 109.72C34.4371 108.132 35.8604 106.162 37.0676 104.294C37.6775 103.354 38.2494 103.176 39.1262 103.799C40.3023 104.562 41.4389 105.385 42.5318 106.264C44.7302 108.259 45.8357 110.61 44.7937 113.672C44.3489 114.943 43.9169 116.214 43.5229 117.485H57.6409C58.0572 116.962 58.3835 116.373 58.6067 115.744C63.283 101.867 67.9085 87.9397 72.6103 74.0505ZM67.7433 68.1161C70.0434 69.2344 70.7041 71.3438 69.7257 74.2411C66.8538 82.7678 63.9565 91.2945 60.9575 100.164C58.1619 95.7421 56.942 91.2691 58.4161 86.4657C60.4365 79.9722 62.673 73.5422 64.7698 67.0741C65.7792 67.3671 66.7718 67.715 67.7433 68.1161ZM59.8647 51.3423C63.6769 51.3423 65.9897 54.8242 64.7444 58.6364C61.9233 67.252 59.115 75.8804 56.1287 84.4452C55.2863 86.8088 54.9352 89.3195 55.0969 91.8235C55.2586 94.3276 55.9297 96.7723 57.0691 99.0079C57.2851 99.4527 57.4757 99.9101 57.679 100.368C52.469 98.0421 48.517 94.6493 47.4368 88.8038C47.0937 86.9867 47.4368 85.9574 49.6606 85.9828C50.8683 86.0454 52.0653 85.7287 53.0839 85.077C54.1025 84.4253 54.8917 83.4712 55.3409 82.3485C57.2343 77.3799 58.8862 72.3096 60.2968 67.1758C61.5675 62.4867 60.5382 57.9375 58.4542 53.6043C57.4122 51.4694 57.5138 51.3169 59.8647 51.3423ZM40.3969 68.8786C39.1262 68.383 38.1731 68.8151 37.8554 69.9841C37.5378 71.1532 37.4107 70.7974 36.5847 70.5178C35.7587 70.2383 34.7929 70.035 35.2123 69.0946C36.0256 67.3029 34.7802 67.0614 33.7001 66.6548C31.8829 65.9813 30.0404 65.384 28.2105 64.7233C27.1177 64.7233 25.9359 63.7448 24.9701 65.1172C24.716 65.4603 24.322 65.041 24.0933 64.7868C23.3817 63.9862 24.3729 63.3636 24.3474 62.6011C24.3474 62.1309 24.7287 62.1945 25.1226 62.3597C26.1392 62.779 27.1812 63.1475 28.2105 63.5288C30.0442 63.6416 31.8669 63.1748 33.4205 62.1945C33.8145 61.9276 34.2974 61.6481 34.5642 62.3343C36.2035 66.5277 40.1174 67.4172 43.7644 68.688C45.5307 69.3106 47.3352 69.8443 49.1142 70.4543C49.3909 70.539 49.6404 70.6949 49.8379 70.9064C50.0353 71.1178 50.1738 71.3774 50.2394 71.6592C50.3051 71.941 50.2955 72.2351 50.2118 72.512C50.128 72.7889 49.973 73.039 49.7623 73.2372C49.2794 73.6693 48.7076 73.6566 48.4916 72.8306C48.2374 71.5598 47.2208 71.3057 46.1915 70.9626C44.3362 70.2383 42.3412 69.6283 40.3969 68.8786ZM45.1241 74.1903C44.692 75.2704 44.8699 76.9097 43.0274 76.9351C41.4389 76.9351 38.9102 75.3975 39.2787 74.5461C39.6472 73.6947 39.2787 72.0809 40.6129 71.8267C41.9472 71.5726 45.3528 73.6312 45.1241 74.1903ZM32.1371 69.7808C31.7686 70.9245 31.7813 72.4494 30.0531 72.5892C28.5917 72.7035 25.9994 71.1532 26.2408 70.2383C26.3623 69.2231 26.7334 68.2539 27.321 67.4172C28.6425 67.4045 32.3023 69.2598 32.1371 69.7808ZM51.8717 75.8295C54.4132 79.3749 53.2695 82.5518 49.4192 82.9838C50.2198 80.6457 51.0076 78.371 51.8717 75.8295ZM27.4226 47.8732C29.359 46.321 31.6307 45.2417 34.0572 44.7212C36.4837 44.2006 38.9981 44.253 41.4008 44.8742C45.5816 45.8527 49.5844 47.3141 52.7612 50.5672C57.7171 55.6502 58.9752 61.6226 57.2343 68.3576C56.6624 70.5687 55.7856 72.6908 54.9978 74.9654C53.6126 73.9997 52.4563 73.1356 53.3839 71.2295C54.0066 69.8825 53.511 69.0184 51.9607 68.5228C48.3391 67.3664 44.7429 66.1211 41.1848 64.7105C39.549 64.1983 38.1737 63.0749 37.3453 61.5742C36.5168 60.0736 36.299 58.3112 36.7372 56.654C36.9659 55.5866 36.9405 54.7098 35.8604 54.3921C34.7802 54.0744 34.3609 55.0529 34.0686 55.8535C33.4205 57.6579 33.052 59.5767 30.8155 60.2884C29.8609 60.575 28.8463 60.597 27.8801 60.3519C26.9398 60.0215 25.9486 59.7801 25.0463 59.3607C24.8053 59.1947 24.5255 59.0936 24.234 59.0673C23.9424 59.0409 23.649 59.0901 23.3821 59.2102C23.1151 59.3302 22.8836 59.5171 22.71 59.7527C22.5363 59.9883 22.4262 60.2647 22.3905 60.5552C21.8695 62.474 20.6369 62.8807 18.7689 62.5249C20.7639 57.1623 21.7932 51.1771 27.4226 47.924V47.8732ZM18.1335 72.7798C17.4717 72.2964 16.9832 71.6126 16.7406 70.8298C16.4979 70.0469 16.5141 69.2068 16.7865 68.4338C17.0002 67.6408 17.4572 66.9347 18.0932 66.4149C18.7292 65.8952 19.5122 65.588 20.3319 65.5365C20.3319 65.7907 20.4844 65.9432 20.4463 66.0575C19.6965 68.2305 18.9468 70.3781 18.1335 72.7798ZM21.0816 72.7798C21.501 71.3692 22.022 69.9968 22.5557 68.6372C22.7082 68.2559 22.3778 67.3664 23.1911 67.5824C24.0043 67.7985 24.106 68.383 23.801 69.1327C23.4072 69.9803 23.3385 70.943 23.6079 71.838C23.8773 72.7329 24.4661 73.4976 25.2624 73.987C27.8039 74.6859 30.142 76.808 32.8868 74.5461C33.2402 74.3238 33.5467 74.0346 33.7891 73.6947C34.0051 73.3135 33.7128 72.3223 34.7548 72.9069C35.4283 73.3008 36.3941 73.1229 36.5466 74.3555C36.8082 75.9925 37.6676 77.4742 38.9587 78.5141C40.2497 79.5539 41.8805 80.078 43.5357 79.9849C44.4036 79.8569 45.2191 79.4912 45.892 78.9282C46.5648 78.3652 47.0687 77.627 47.3479 76.7953C47.475 76.5412 46.8904 75.5881 48.0087 76.0583C48.1262 76.0859 48.2368 76.1375 48.3335 76.2098C48.4301 76.2822 48.5108 76.3737 48.5705 76.4787C48.6301 76.5837 48.6675 76.6999 48.6801 76.8199C48.6928 76.94 48.6805 77.0614 48.644 77.1765C48.1933 80.5578 46.647 83.6981 44.2418 86.117C41.8367 88.5359 38.7052 90.1001 35.3267 90.5702C33.0498 90.9647 30.7066 90.5607 28.6934 89.4265C22.2253 86.8723 19.0611 79.5274 21.0816 72.6654V72.7798ZM17.981 101.892C17.9237 100.283 17.9491 98.6709 18.0573 97.0637C18.0573 96.6697 17.3583 95.6531 18.591 95.6531C19.3153 95.6531 20.1667 95.3355 20.6623 96.225C20.7015 96.2824 20.744 96.3375 20.7894 96.3902C23.5723 99.6941 23.5469 99.7704 17.981 101.778V101.892ZM26.3679 98.9698C25.0972 98.2582 24.4618 96.5427 23.4198 95.399C22.0855 93.9376 23.3308 92.6923 23.5723 91.358C23.801 90.3541 24.2839 90.0873 25.1861 90.7354C27.5833 92.4879 30.4642 93.4556 33.4332 93.5056C34.9708 93.5056 34.1194 94.2553 33.8399 94.7763C33.6239 96.0471 33.5857 97.3178 32.0736 97.8134C30.1929 98.2963 28.3249 99.961 26.3679 98.8554V98.9698ZM35.2631 102.185C34.615 102.502 34.6659 103.265 34.2719 103.76C33.573 104.637 32.9122 105.552 32.0354 106.709C31.4255 105.438 30.9426 104.383 30.4089 103.328C30.0149 102.528 29.0492 101.816 30.752 101.194C32.9377 100.393 35.136 100.393 35.5681 101.499C35.5936 101.616 35.5755 101.739 35.517 101.844C35.4585 101.95 35.3638 102.03 35.2504 102.07L35.2631 102.185ZM51.8971 117.434C50.296 117.51 48.9617 116.531 47.4877 116.074C46.3948 115.731 47.3606 115.159 47.4114 114.994C49.0888 109.987 46.9412 105.705 42.7224 102.985C40.5748 101.6 38.5671 100.024 36.4449 98.6267C35.8095 98.22 35.8731 97.9532 36.051 97.3559C36.7118 95.0813 37.1057 92.6669 40.1555 92.273C40.7181 92.1486 41.2525 91.9202 41.7312 91.5995C44.5268 90.1381 44.5522 90.1127 45.8357 93.0227C46.9343 95.5623 48.5643 97.8371 50.616 99.6937C52.6677 101.55 55.0934 102.946 57.7299 103.786C59.242 104.307 59.547 104.764 59.0006 106.124C58.073 108.755 57.3359 111.436 56.3066 114.015C55.595 115.871 54.5276 117.675 51.8844 117.345L51.8971 117.434Z" fill="#010101"/>
<path d="M6.17581 69.1073L14.0036 71.6488C13.8164 70.3381 13.8164 69.0075 14.0036 67.6968C15.5158 62.9823 17.0915 58.2552 18.9722 53.7186C19.6965 51.9777 19.2136 51.8125 17.8031 51.355C11.8306 49.4235 5.89625 47.3522 0.0127106 45.3317V72.2206L0.381226 71.509C1.8807 68.9675 3.36747 68.2178 6.17581 69.1073Z" fill="#FFD55D"/>
<path d="M27.842 60.4282C28.8081 60.6733 29.8227 60.6513 30.7774 60.3646C33.0139 59.653 33.3824 57.7342 34.0305 55.9297C34.3228 55.1292 34.704 54.1253 35.8222 54.4684C36.9405 54.8115 36.9278 55.6629 36.6991 56.7303C36.2609 58.3875 36.4787 60.1499 37.3071 61.6505C38.1356 63.1512 39.5108 64.2746 41.1467 64.7868C44.7047 66.1465 48.3009 67.3283 51.9226 68.599C53.4729 69.0946 53.9685 69.9587 53.3458 71.3057C52.4563 73.2118 53.5745 74.0759 54.9596 75.0417C55.7475 72.7671 56.6243 70.6449 57.1961 68.4338C58.9371 61.7243 57.679 55.7264 52.7231 50.6434C49.5463 47.3903 45.5434 45.929 41.3627 44.9505C38.96 44.3292 36.4455 44.2768 34.019 44.7974C31.5925 45.318 29.3209 46.3973 27.3845 47.9495C26.8283 49.9453 26.4498 51.9864 26.2535 54.049C26.3795 56.256 26.9183 58.4198 27.842 60.4282Z" fill="#444545"/>
<path d="M4.43489 93.7979C2.80847 91.8453 1.32626 89.777 0 87.6093L0 100.063L0.44476 100.202C0.978438 97.664 2.39161 95.3957 4.43489 93.7979Z" fill="#FEC23B"/>
<path d="M42.5191 106.238C41.4262 105.36 40.2896 104.537 39.1135 103.773C38.2367 103.151 37.6648 103.328 37.0549 104.269C35.8477 106.137 34.5134 107.941 33.1791 109.695C31.8448 111.448 31.0442 111.156 30.142 109.314C29.1 107.204 28.1342 105.044 26.927 102.502C25.148 107.763 23.4833 112.668 21.8441 117.51H33.446C33.5984 117.065 33.7509 116.608 33.9161 116.163C34.1576 115.464 33.9161 114.422 35.5935 114.956C37.2709 115.489 36.8643 116.036 36.5084 117.065C36.45 117.211 36.3991 117.359 36.356 117.51H43.4594C43.8915 116.239 44.3235 114.968 44.7302 113.698C45.823 110.584 44.7174 108.234 42.5191 106.238Z" fill="#E2E7F5"/>
<path d="M24.0043 101.88C21.6662 103.062 19.6838 104.091 17.6506 105.069C15.6174 106.048 14.7914 105.552 14.855 103.176C14.855 101.346 15.0075 99.5035 15.2362 97.6736C15.4649 95.8438 15.1473 95.2211 13.1903 95.1321C7.58634 95.1321 4.65092 94.9797 2.61773 101.905C1.8807 104.548 0.94035 107.09 0 109.631V114.511C1.27074 114.956 2.54149 115.388 3.81223 115.782C4.57468 116.023 5.08297 116.125 5.45149 114.905C6.09957 112.363 7.09075 109.822 7.99297 107.382C8.27254 106.582 8.27254 105.73 9.7466 106.251C11.2207 106.772 11.0173 107.166 10.6107 108.195C9.68306 110.813 8.83166 113.469 8.06922 116.138C8.06922 116.354 7.14158 116.925 8.3742 117.268L8.99686 117.459H14.8931C14.8931 116.722 14.8931 115.451 16.1639 115.642C16.7611 115.731 18.0191 115.642 18.0445 116.913C17.95 116.969 17.8698 117.047 17.8102 117.139C17.7507 117.232 17.7135 117.337 17.7015 117.446H19.1501C20.0269 114.625 21.0435 111.842 21.9711 109.034C22.8227 106.702 23.5022 104.311 24.0043 101.88ZM17.9937 114.854C17.3583 114.791 16.0114 114.854 16.0114 113.774C16.0114 113.037 16.0876 111.69 17.1932 111.753C17.7269 111.753 19.0103 111.753 19.1501 113.024C18.4639 113.444 19.0611 114.956 17.9937 114.854ZM19.1628 110.889C18.4766 110.813 17.2948 110.8 17.2948 109.911C17.2255 109.467 17.2973 109.012 17.5002 108.611C17.7031 108.209 18.0269 107.882 18.4258 107.674C18.9595 108.399 20.4971 107.865 20.3446 108.945C20.3319 109.631 20.5098 111.042 19.1628 110.902V110.889Z" fill="#E2E7F5"/>
<path d="M4.43489 93.7979C5.65381 93.1138 6.99774 92.6817 8.3869 92.5271C11.64 92.3365 14.8804 92.5271 18.1208 92.6923C18.9595 92.6923 20.1921 92.9973 20.3319 92.184C20.6115 90.4685 22.5557 88.8928 21.2595 87.101C19.042 84.1193 17.8273 80.5111 17.7904 76.7953C17.7904 75.9693 17.7904 75.8169 16.9263 75.5246C12.987 74.2962 9.07311 72.9831 5.18463 71.5853C5.01571 71.4955 4.83055 71.4403 4.64002 71.4231C4.44949 71.4058 4.25743 71.4268 4.07513 71.4848C3.89282 71.5428 3.72395 71.6366 3.57842 71.7608C3.43289 71.885 3.31365 72.037 3.22769 72.2079C2.11791 74.0378 1.04201 75.8592 0 77.6721V86.3259C0.406638 87.0756 0.800568 87.8254 1.27074 88.5751C2.2238 90.3668 4.04096 91.6503 4.43489 93.7979ZM2.12214 85.7795C3.39288 84.9535 4.80341 84.1656 6.12498 83.3396C6.42798 83.1315 6.70899 82.8931 6.96367 82.628C6.25206 80.9252 5.69293 79.3368 4.91778 77.7992C4.4476 76.8207 4.56197 76.3887 5.65481 75.9439C6.74765 75.4992 7.24324 75.7025 7.51009 76.7826C7.51009 76.8588 7.59904 76.897 7.62446 76.9605C8.24712 78.4346 8.31066 80.7727 9.64494 81.154C10.9792 81.5352 12.5422 79.8832 13.9401 79.1081C15.0329 78.4473 15.4522 78.8539 16.113 79.7562C17.0534 81.0269 15.7572 81.1158 15.3252 81.4335C14.1222 82.3073 12.8468 83.0768 11.5129 83.7336C10.6361 84.1529 10.6107 84.6104 10.9665 85.3728C11.6273 86.7961 12.2373 88.2701 12.8726 89.6807C13.508 91.0912 12.161 90.8243 11.6019 91.2818C10.8267 91.9934 10.5472 91.4597 10.2676 90.7862C9.86097 89.795 9.42891 88.8165 8.99686 87.8508C7.94214 85.4745 7.92944 85.4745 5.56586 86.8977C4.89236 87.3044 4.21887 87.6983 3.5835 88.1685C2.54149 88.9309 2.08402 88.4353 1.42323 87.5204C0.584542 86.3386 1.51218 86.1607 2.12214 85.7795Z" fill="#FFD55D"/>
<path d="M1.27074 88.5751C0.851398 87.8254 0.457468 87.0756 0 86.3259V87.5966C1.32626 89.7643 2.80847 91.8326 4.43489 93.7852C4.04096 91.6503 2.2238 90.3668 1.27074 88.5751Z" fill="#FFD55D"/>
<path d="M57.7171 103.722C55.0807 102.882 52.655 101.487 50.6033 99.6302C48.5516 97.7735 46.9215 95.4988 45.823 92.9592C44.5523 90.0492 44.5523 90.0746 41.7185 91.5359C41.2398 91.8566 40.7054 92.085 40.1428 92.2094C37.093 92.5525 36.6991 94.9669 36.0383 97.2924C35.8604 97.9151 35.7968 98.1819 36.4322 98.5631C38.5543 99.961 40.5621 101.537 42.7097 102.922C46.9285 105.641 49.0634 109.924 47.3987 114.93C47.3987 115.096 46.3821 115.667 47.475 116.01C48.949 116.468 50.2833 117.446 51.8844 117.37C54.5276 117.701 55.595 115.896 56.3574 113.977C57.3868 111.436 58.1238 108.716 59.0514 106.086C59.5343 104.701 59.2293 104.243 57.7171 103.722Z" fill="#FFD55D"/>
<path d="M27.3718 88.0287C27.8293 88.4862 28.2486 88.969 28.6426 89.4392C30.6558 90.5734 32.999 90.9774 35.2758 90.5829C38.6591 90.1045 41.7919 88.5288 44.1931 86.0977C46.5943 83.6667 48.1312 80.5147 48.5678 77.1257C48.6043 77.0106 48.6165 76.8892 48.6039 76.7691C48.5912 76.649 48.5539 76.5329 48.4942 76.4279C48.4346 76.3229 48.3539 76.2314 48.2572 76.159C48.1606 76.0867 48.05 76.0351 47.9324 76.0074C46.8142 75.5373 47.3987 76.4903 47.2716 76.7445C46.9925 77.5762 46.4886 78.3144 45.8157 78.8774C45.1429 79.4403 44.3273 79.8061 43.4594 79.9341C41.8043 80.0272 40.1735 79.5031 38.8824 78.4633C37.5914 77.4234 36.7319 75.9416 36.4703 74.3047C36.3178 73.0339 35.3521 73.2499 34.6786 72.856C33.6366 72.2715 33.9288 73.2626 33.7128 73.6439C33.4704 73.9838 33.1639 74.273 32.8106 74.4953C30.0658 76.7572 27.7276 74.6351 25.1861 73.9362C23.0767 77.0876 24.6778 85.2203 27.3718 88.0287ZM27.9691 82.4247C29.316 81.7766 29.5829 82.4882 29.8498 83.1236C30.6249 85.017 32.1498 85.2076 33.7636 84.5977C35.0344 84.1275 35.9493 84.2419 36.4449 85.3982C36.9405 86.5546 35.6062 86.974 34.8819 87.279C34.0939 87.6336 33.2367 87.808 32.3728 87.7893C31.5089 87.7706 30.6601 87.5594 29.8881 87.171C29.1162 86.7826 28.4407 86.2268 27.9109 85.5442C27.381 84.8616 27.0102 84.0694 26.8254 83.2253C26.4187 81.4717 27.8547 82.4628 27.9563 82.3612L27.9691 82.4247Z" fill="#FADAC2"/>
<path d="M58.4542 86.4657C56.942 91.3072 58.1619 95.7421 60.9957 100.164C63.9946 91.2691 66.8919 82.7678 69.7638 74.2411C70.7423 71.3438 70.0815 69.2344 67.7814 68.1161C66.839 67.718 65.8761 67.3701 64.8968 67.0741C62.7112 73.5422 60.4747 79.9722 58.4542 86.4657Z" fill="#FFD55D"/>
<path d="M60.2968 67.1758C58.8862 72.2588 57.2343 77.3417 55.3409 82.3485C54.8917 83.4712 54.1025 84.4253 53.0839 85.077C52.0653 85.7287 50.8683 86.0454 49.6606 85.9828C47.4114 85.9828 47.1192 86.9867 47.4368 88.8038C48.517 94.6493 52.5198 98.0421 57.679 100.368C57.4757 99.9101 57.2851 99.4527 57.0691 99.0079C55.9297 96.7723 55.2586 94.3276 55.0969 91.8235C54.9352 89.3195 55.2863 86.8088 56.1287 84.4452C59.115 75.8804 61.9233 67.252 64.7444 58.6364C66.0151 54.8242 63.6388 51.3932 59.8647 51.3423C57.5138 51.3423 57.4122 51.4694 58.4542 53.6043C60.5382 57.9375 61.5929 62.4867 60.2968 67.1758Z" fill="#3A3B3A"/>
<path d="M28.6934 89.3757C24.5762 86.8342 24.0297 82.7424 23.7248 78.5235C23.6385 77.5167 23.7245 76.5025 23.9789 75.5246C24.1822 74.8511 24.106 73.8472 25.2497 73.8726C24.4432 73.38 23.8484 72.6054 23.5807 71.699C23.3131 70.7927 23.3916 69.8193 23.801 68.9675C24.106 68.2178 23.8773 67.5824 23.1911 67.4172C22.5049 67.252 22.7082 68.0907 22.5557 68.4719C22.022 69.8316 21.501 71.204 21.0816 72.6146C19.0611 79.5274 22.2253 86.8723 28.6934 89.3757Z" fill="#F4C9AE"/>
<path d="M23.9789 75.5246C23.7245 76.5025 23.6385 77.5167 23.7248 78.5235C24.0298 82.7424 24.5762 86.885 28.6934 89.3757C28.2486 88.9055 27.8293 88.4226 27.4226 87.9651C24.7287 85.2203 23.1275 77.0876 25.3132 73.8726C24.1441 73.8472 24.1441 74.8511 23.9789 75.5246Z" fill="#F4C9AE"/>
<path d="M22.3524 60.6315C22.3881 60.341 22.4981 60.0645 22.6718 59.8289C22.8455 59.5933 23.077 59.4065 23.344 59.2864C23.6109 59.1664 23.9043 59.1171 24.1958 59.1435C24.4873 59.1699 24.7671 59.2709 25.0082 59.437C25.9104 59.8563 26.9016 60.0978 27.842 60.4281C26.565 58.6099 25.8453 56.4591 25.7709 54.2385C25.6964 52.0179 26.2704 49.8237 27.4226 47.924C21.7932 51.2026 20.7639 57.1623 18.7307 62.6011C20.5987 62.9569 21.8314 62.6138 22.3524 60.6315Z" fill="#3A3B3A"/>
<path d="M27.842 60.4282C26.9345 58.4251 26.4087 56.2703 26.2917 54.0744C26.488 52.0119 26.8664 49.9707 27.4226 47.9749C26.281 49.8689 25.713 52.0534 25.7874 54.2636C25.8619 56.4739 26.5755 58.6152 27.842 60.4282Z" fill="#3A3B3A"/>
<path d="M48.5932 72.7798C48.7711 73.6058 49.343 73.6185 49.864 73.1864C50.0747 72.9882 50.2297 72.7381 50.3134 72.4612C50.3972 72.1842 50.4067 71.8902 50.3411 71.6084C50.2755 71.3266 50.137 71.067 49.9395 70.8555C49.7421 70.6441 49.4925 70.4882 49.2159 70.4035C47.4368 69.7935 45.6324 69.2598 43.8661 68.6372C40.219 67.3664 36.2416 66.4769 34.6659 62.2834C34.399 61.5972 33.9161 61.8768 33.5222 62.1437C31.9685 63.124 30.1458 63.5908 28.3122 63.4779V64.6724C30.142 65.3078 31.9846 65.9432 33.8018 66.604C34.8819 67.0106 36.1272 67.252 35.314 69.0438C34.8946 69.9841 35.8731 70.1875 36.6864 70.467C37.4996 70.7466 37.6521 70.9499 37.9571 69.9333C38.2621 68.9167 39.2278 68.3322 40.4986 68.8278C42.4428 69.5775 44.4379 70.2129 46.3948 70.9118C47.2843 71.3057 48.2882 71.5726 48.5932 72.7798Z" fill="#FAD9C2"/>
<path d="M33.8399 94.7001C30.1367 94.6702 26.5397 93.4593 23.5723 91.2437C23.3308 92.5779 22.0855 93.7852 23.4198 95.2846C24.4618 96.4283 25.1099 98.1438 26.3679 98.8554C28.3249 99.961 30.1801 98.2963 32.0735 97.7372C33.5857 97.2924 33.6239 95.9327 33.8399 94.7001Z" fill="#F4C9AE"/>
<path d="M20.6623 96.1106C20.1667 95.2211 19.3153 95.5515 18.591 95.5388C17.3202 95.5388 18.0954 96.5554 18.0573 96.9493C17.9491 98.5566 17.9237 100.168 17.981 101.778C23.5469 99.7704 23.5723 99.6941 20.7894 96.2758C20.744 96.2232 20.7015 96.168 20.6623 96.1106Z" fill="#F1F2F5"/>
<path d="M26.2663 70.2383C25.9994 71.1532 28.5917 72.7035 30.0785 72.5892C31.8067 72.4494 31.794 70.9245 32.1625 69.7808C32.3277 69.2598 28.668 67.4045 27.3718 67.4172C26.7752 68.2515 26.3953 69.2209 26.2663 70.2383Z" fill="#FAD9C2"/>
<path d="M40.6638 71.8267C39.393 72.0809 39.7234 73.6185 39.3295 74.5461C38.9356 75.4738 41.4898 76.9351 43.0782 76.9351C44.9208 76.9351 44.7429 75.2704 45.1749 74.1903C45.3528 73.6312 41.8329 71.5853 40.6638 71.8267Z" fill="#FAD9C2"/>
<path d="M30.7393 101.079C29.0365 101.702 30.0022 102.35 30.3962 103.214C30.9299 104.269 31.4128 105.324 32.0227 106.594C32.8995 105.438 33.5603 104.523 34.2592 103.646C34.6532 103.151 34.6023 102.375 35.2504 102.07C35.3187 102.05 35.3817 102.015 35.4351 101.968C35.4886 101.92 35.5312 101.862 35.5602 101.797C35.5891 101.732 35.6037 101.661 35.6029 101.59C35.602 101.519 35.5858 101.449 35.5554 101.384C35.1233 100.279 32.925 100.279 30.7393 101.079Z" fill="#F4F5F9"/>
<path d="M16.7865 68.3703C16.4987 69.1515 16.4746 70.0055 16.7179 70.8017C16.9611 71.598 17.4583 72.2927 18.1335 72.7798C18.9468 70.4416 19.6965 68.294 20.4463 66.1211C20.4463 66.0067 20.3827 65.8542 20.3319 65.6001C19.5283 65.6429 18.7572 65.9315 18.1231 66.427C17.489 66.9225 17.0224 67.6009 16.7865 68.3703Z" fill="#EEB79F"/>
<path d="M51.8717 75.8296C51.0076 78.371 50.2198 80.6457 49.4192 82.9838C53.2695 82.5518 54.464 79.3749 51.8717 75.8296Z" fill="#EEB79F"/>
<path d="M24.932 91.358C27.0723 92.9612 29.6439 93.8862 32.315 94.0139C32.6025 94.0183 32.8861 94.0814 33.1483 94.1994C33.4106 94.3174 33.6459 94.4878 33.8399 94.7001C34.1194 94.141 34.9708 93.4293 33.4332 93.4293C30.4544 93.3535 27.5727 92.3544 25.1861 90.5702C24.2839 89.8967 23.801 90.189 23.5723 91.1928C24.0679 90.8116 24.538 91.0531 24.932 91.358Z" fill="#EFB8A0"/>
<path d="M32.315 94.0139C29.6439 93.8863 27.0723 92.9612 24.932 91.358C24.538 91.0531 24.0679 90.8116 23.5723 91.2437C26.5397 93.4593 30.1367 94.6702 33.8399 94.7001C33.6459 94.4878 33.4106 94.3175 33.1483 94.1995C32.8861 94.0814 32.6025 94.0183 32.315 94.0139Z" fill="#EFB8A0"/>
<path d="M28.274 63.5288C27.2447 63.1475 26.2027 62.779 25.1861 62.3597C24.7922 62.1945 24.3983 62.131 24.411 62.6011C24.411 63.3636 23.4452 63.9862 24.1568 64.7868C24.3856 65.041 24.7795 65.4603 25.0336 65.1172C25.9994 63.7448 27.1812 64.6724 28.274 64.7233C28.1881 64.6493 28.1191 64.5577 28.0718 64.4546C28.0245 64.3515 28 64.2394 28 64.126C28 64.0126 28.0245 63.9005 28.0718 63.7975C28.1191 63.6944 28.1881 63.6027 28.274 63.5288Z" fill="#F3C8AE"/>
<path d="M28.274 64.7233V63.5288C28.1881 63.6027 28.1191 63.6944 28.0718 63.7975C28.0245 63.9005 28 64.0126 28 64.126C28 64.2394 28.0245 64.3515 28.0718 64.4546C28.1191 64.5577 28.1881 64.6493 28.274 64.7233Z" fill="#F3C8AE"/>
<path d="M18.4258 107.674C18.0268 107.882 17.7031 108.209 17.5002 108.611C17.2973 109.012 17.2255 109.467 17.2948 109.911C17.2948 110.8 18.4766 110.813 19.1628 110.889C20.5098 111.042 20.2683 109.619 20.3446 109.009C20.4971 107.865 18.9595 108.361 18.4258 107.674Z" fill="#010101"/>
<path d="M17.1932 111.753C16.0876 111.753 16.0114 113.024 16.0114 113.774C16.0114 114.854 17.3584 114.791 17.9937 114.854C19.0866 114.956 18.4639 113.456 19.1501 112.999C19.0612 111.753 17.7904 111.792 17.1932 111.753Z" fill="#010101"/>
<path d="M17.7904 116.976C17.7904 115.705 16.5197 115.782 15.9097 115.705C14.639 115.515 14.7406 116.786 14.639 117.523H17.3838C17.4005 117.405 17.4464 117.293 17.5175 117.198C17.5885 117.102 17.6823 117.026 17.7904 116.976Z" fill="#010101"/>
<path d="M3.58349 88.1558C4.21887 87.6983 4.85424 87.3044 5.56585 86.885C7.92944 85.4618 7.94214 85.4618 8.99686 87.8381C9.44162 88.8038 9.87367 89.7823 10.2676 90.7735C10.5472 91.447 10.8267 92.0442 11.6019 91.2691C12.1102 90.8116 13.5334 91.1166 12.8726 89.6679C12.2118 88.2193 11.6019 86.7833 10.9665 85.3601C10.6107 84.5977 10.6361 84.0894 11.5129 83.7209C12.8468 83.0641 14.1222 82.2946 15.3252 81.4208C15.7572 81.1031 17.0534 81.0269 16.113 79.7434C15.4522 78.8412 15.0329 78.4727 13.94 79.0954C12.5422 79.9213 11.0046 81.6369 9.64494 81.1413C8.28524 80.6457 8.24712 78.4219 7.62446 76.9478C7.62446 76.9478 7.5228 76.8461 7.51009 76.7699C7.24323 75.6898 6.77306 75.4992 5.65481 75.9312C4.53655 76.3633 4.38406 76.808 4.91777 77.7865C5.6421 79.3241 6.18852 80.9125 6.96367 82.6153C6.70899 82.8804 6.42798 83.1188 6.12498 83.3269C4.85424 84.1529 3.44371 84.9408 2.12214 85.7668C1.51218 86.148 0.584541 86.3259 1.42323 87.495C2.08402 88.4226 2.54148 88.9182 3.58349 88.1558Z" fill="#030303"/>
<path d="M34.8819 87.2154C35.6062 86.9104 37.004 86.6563 36.4449 85.3347C35.8858 84.0132 34.9963 84.064 33.7636 84.5342C32.1498 85.1441 30.6249 84.9535 29.8498 83.0601C29.5829 82.4247 29.316 81.7131 27.9691 82.3612C27.8547 82.4628 26.4187 81.4717 26.8254 83.1617C27.0102 84.0059 27.381 84.7981 27.9109 85.4807C28.4407 86.1633 29.1162 86.7191 29.8881 87.1075C30.6601 87.4959 31.5089 87.7071 32.3728 87.7258C33.2367 87.7444 34.0939 87.5701 34.8819 87.2154Z" fill="#070605"/>
<path d="M48.9998 17.3118H45.2766V20.7683H44.0058V12.8642H45.2766V16.2444H48.9998V12.8642H50.2706V20.7683H48.9998V17.3118Z" fill="#010101"/>
<path d="M55.6077 20.8445C54.809 20.8445 54.0283 20.6078 53.364 20.1643C52.6997 19.7209 52.1818 19.0905 51.8756 18.3529C51.5694 17.6152 51.4886 16.8034 51.6435 16.0198C51.7984 15.2363 52.182 14.5163 52.7459 13.9506C53.3097 13.385 54.0286 12.9991 54.8116 12.8418C55.5946 12.6844 56.4067 12.7626 57.1453 13.0665C57.8839 13.3704 58.5159 13.8864 58.9615 14.5493C59.407 15.2121 59.6462 15.9921 59.6487 16.7908C59.6626 17.3259 59.5677 17.8582 59.3697 18.3554C59.1717 18.8527 58.8747 19.3046 58.4969 19.6836C58.119 20.0627 57.6681 20.361 57.1714 20.5606C56.6748 20.7601 56.1428 20.8567 55.6077 20.8445ZM55.6077 19.7262C56.1925 19.7696 56.7768 19.636 57.2847 19.3429C57.7925 19.0498 58.2005 18.6107 58.4555 18.0826C58.7105 17.5546 58.8008 16.9621 58.7147 16.3821C58.6285 15.8021 58.3699 15.2614 57.9724 14.8303C57.5749 14.3992 57.0569 14.0976 56.4857 13.9648C55.9146 13.832 55.3167 13.874 54.7698 14.0854C54.2228 14.2969 53.7522 14.668 53.4189 15.1504C53.0856 15.6329 52.9052 16.2045 52.901 16.7908C52.8653 17.1659 52.909 17.5442 53.0292 17.9012C53.1495 18.2582 53.3436 18.5859 53.599 18.8628C53.8544 19.1398 54.1653 19.3598 54.5114 19.5086C54.8575 19.6573 55.231 19.7315 55.6077 19.7262Z" fill="#010101"/>
<path d="M60.9957 12.8642H62.3935L65.1637 19.0655L67.9339 12.8642H69.2555V20.7683H67.9848V15.3549L65.5703 20.7683H64.6681L62.2664 15.3549V20.7683H60.9957V12.8642Z" fill="#010101"/>
<path d="M75.3297 13.9062H72.2672V16.2317H74.9738V17.2864H72.2672V19.7135H75.3297V20.7683H70.9583V12.8515H75.3297V13.9062Z" fill="#010101"/>
<path d="M39.7107 26.512H45.2385V27.5794H43.129V34.4288H41.8583V27.5794H39.7107V26.512Z" fill="#010101"/>
<path d="M46.5346 26.512H47.8054V31.595C47.8054 32.0702 47.9941 32.5259 48.3301 32.8619C48.6662 33.198 49.1219 33.3867 49.5971 33.3867C50.0723 33.3867 50.528 33.198 50.8641 32.8619C51.2001 32.5259 51.3888 32.0702 51.3888 31.595V26.512H52.6596V31.595C52.6682 31.9959 52.5923 32.3942 52.4369 32.7639C52.2815 33.1336 52.0501 33.4665 51.7577 33.7409C51.4653 34.0153 51.1184 34.2252 50.7396 34.3568C50.3608 34.4885 49.9586 34.539 49.559 34.505C49.1545 34.5423 48.7468 34.4918 48.3637 34.357C47.9805 34.2222 47.631 34.0062 47.3391 33.7239C47.0471 33.4415 46.8195 33.0995 46.6719 32.7211C46.5243 32.3427 46.4601 31.9369 46.4838 31.5315L46.5346 26.512Z" fill="#010101"/>
<path d="M53.9812 26.512H59.5089V27.5794H57.3995V34.4288H56.1287V27.5794H53.9812V26.512Z" fill="#010101"/>
<path d="M64.414 34.505C63.6117 34.5075 62.8267 34.2719 62.1584 33.828C61.4901 33.3841 60.9686 32.7519 60.6598 32.0114C60.351 31.2709 60.269 30.4555 60.4239 29.6683C60.5789 28.8811 60.964 28.1577 61.5304 27.5895C62.0968 27.0213 62.8191 26.6339 63.6057 26.4765C64.3924 26.3191 65.2081 26.3986 65.9496 26.705C66.691 27.0115 67.3249 27.531 67.7709 28.1979C68.2169 28.8648 68.4549 29.649 68.4549 30.4513C68.4688 30.9864 68.3739 31.5187 68.1759 32.0159C67.9779 32.5132 67.681 32.9651 67.3031 33.3441C66.9253 33.7232 66.4743 34.0215 65.9777 34.2211C65.481 34.4206 64.949 34.5172 64.414 34.505ZM64.414 33.374C64.9993 33.4174 65.5841 33.2836 66.0923 32.9899C66.6005 32.6962 67.0085 32.2564 67.2632 31.7276C67.5179 31.1988 67.6074 30.6056 67.5203 30.0252C67.4331 29.4448 67.1732 28.904 66.7744 28.4734C66.3756 28.0428 65.8564 27.7422 65.2843 27.6108C64.7123 27.4794 64.114 27.5233 63.5672 27.7367C63.0205 27.9501 62.5506 28.3232 62.2189 28.8074C61.8872 29.2916 61.7089 29.8644 61.7073 30.4513C61.6715 30.8263 61.7152 31.2047 61.8355 31.5617C61.9557 31.9187 62.1499 32.2464 62.4053 32.5233C62.6606 32.8003 62.9715 33.0203 63.3176 33.1691C63.6637 33.3178 64.0373 33.392 64.414 33.3867V33.374Z" fill="#010101"/>
<path d="M72.4324 26.512C74.3003 26.512 75.228 27.5921 75.228 28.8883C75.2403 29.421 75.0631 29.9407 74.728 30.355C74.3929 30.7692 73.9216 31.051 73.3981 31.1502L75.3551 34.4288H73.8429L72.0257 31.2646H71.0345V34.4288H69.7638V26.512H72.4324ZM72.4324 27.5794H71.0345V30.2226H72.4324C72.62 30.2514 72.8116 30.2379 72.9933 30.1829C73.175 30.1279 73.342 30.033 73.4822 29.905C73.6224 29.777 73.7321 29.6193 73.8033 29.4433C73.8745 29.2674 73.9054 29.0777 73.8937 28.8883C73.9318 28.0877 73.4744 27.5794 72.4324 27.5794Z" fill="#010101"/>
</g>
<defs>
<clipPath id="clip0_427_6698">
<path d="M0 10.2966C0 4.77374 4.47715 0.296585 10 0.296585H75C80.5229 0.296585 85 4.77374 85 10.2966V107.51C85 113.033 80.5229 117.51 75 117.51H10C4.47715 117.51 0 113.033 0 107.51V10.2966Z" fill="white"/>
</clipPath>
</defs>
</svg>
