<svg width="65" height="65" viewBox="0 0 65 65" fill="none" xmlns="http://www.w3.org/2000/svg">
<g clip-path="url(#clip0_123_7527)">
<path d="M42.0514 49.5806C42.2982 49.5547 42.5373 49.4782 42.754 49.3557C42.9707 49.2332 43.1605 49.0672 43.3119 48.868C43.4633 48.6687 43.5731 48.4403 43.6346 48.1967C43.6961 47.9531 43.708 47.6993 43.6696 47.4508V45.3211C43.6816 45.0662 43.6409 44.8115 43.5501 44.5734C43.4593 44.3354 43.3204 44.1192 43.1423 43.9387C42.9642 43.7582 42.7509 43.6175 42.516 43.5255C42.2811 43.4334 42.0298 43.3922 41.7782 43.4043H19.4811C19.2295 43.3922 18.9782 43.4334 18.7433 43.5255C18.5084 43.6175 18.2951 43.7582 18.117 43.9387C17.9389 44.1192 17.8 44.3354 17.7092 44.5734C17.6184 44.8115 17.5777 45.0662 17.5897 45.3211V47.6212C17.575 48.0674 17.7235 48.5034 18.0066 48.8454C18.2898 49.1874 18.6877 49.4113 19.1238 49.4741C19.6282 49.4741 19.6072 49.751 19.6072 50.113V56.3532C19.6072 57.3116 19.6072 57.4607 20.6369 57.8227C21.4355 57.5672 21.6457 57.0347 21.6246 56.2041C21.6246 54.2022 21.6246 52.1789 21.6246 50.1769C21.6246 49.6871 21.6246 49.4954 22.2341 49.4954C24.4827 49.4954 26.7103 49.4954 28.9379 49.4954C29.4633 49.4954 29.5684 49.6871 29.5684 50.1769C29.5684 55.0967 29.5684 60.0164 29.5684 64.9361H31.6699V50.2195C31.6699 49.8575 31.6699 49.6871 32.1533 49.7084H39.1093C39.5086 49.7084 39.6137 49.8575 39.6137 50.2195C39.6137 55.1818 39.6137 60.1655 39.6137 65.1278H41.7152V50.2195C41.5891 49.6871 41.6731 49.6232 42.0514 49.5806ZM41.6101 47.4508C41.6101 47.7064 41.3369 47.6212 41.1688 47.6212H21.0362C19.4811 47.6212 19.4811 47.6212 19.5441 46.0239C19.5441 45.6619 19.6912 45.5554 20.0275 45.5767H41.0427C41.1898 45.5767 41.421 45.5767 41.442 45.7258C41.507 46.2771 41.5421 46.8317 41.547 47.387L41.6101 47.4508Z" fill="#010101"/>
<path d="M20.3847 60.5914C20.2588 60.6144 20.1386 60.6626 20.0312 60.733C19.9237 60.8035 19.8312 60.8948 19.7588 61.0018C19.6865 61.1088 19.6359 61.2293 19.6098 61.3562C19.5838 61.4832 19.5829 61.6142 19.6072 61.7415V65.1278H21.7087V61.9545C21.6036 60.8683 21.3304 60.5914 20.3847 60.5914Z" fill="#010101"/>
<path d="M60.6498 21.4253C58.8858 21.3295 57.118 21.3295 55.354 21.4253C54.6185 21.4253 54.3243 21.7661 54.1562 22.5328H54.3033C54.5134 23.3634 54.7866 23.5976 55.6062 23.5976H58.6114C59.2524 23.5018 59.9038 23.5018 60.5448 23.5976C61.1815 23.7432 61.7548 24.0936 62.179 24.5964C62.6032 25.0992 62.8555 25.7275 62.8985 26.3876C62.909 26.5863 62.909 26.7853 62.8985 26.9839C62.8985 39.6347 62.8985 52.2854 62.8985 64.9361H65V26.1533C64.9562 24.9671 64.4926 23.8365 63.6938 22.9683C62.895 22.1001 61.8144 21.5524 60.6498 21.4253V21.4253Z" fill="#010101"/>
<path d="M52.1177 63.4453H56.6149C56.914 63.4671 57.2141 63.4239 57.4953 63.3185C57.7765 63.2131 58.0322 63.0479 58.2452 62.8341C58.4582 62.6202 58.6235 62.3627 58.7302 62.0787C58.8369 61.7948 58.8823 61.491 58.8636 61.1877C58.8636 59.5904 58.8636 58.0144 58.8636 56.4384C58.8639 56.1495 58.8063 55.8636 58.6942 55.598C58.582 55.3324 58.4178 55.0927 58.2114 54.8935C58.005 54.6943 57.7607 54.5397 57.4935 54.4391C57.2263 54.3386 56.9416 54.2942 56.657 54.3086H52.2017C51.7814 54.3086 51.6133 54.3086 51.6343 53.7762C51.6343 52.7752 51.6343 51.7955 51.6343 50.7945C51.6343 50.3899 51.6343 50.3047 52.1177 50.3047H56.3207C56.6731 50.362 57.0339 50.3326 57.3727 50.219C57.7115 50.1055 58.0184 49.9111 58.2676 49.6523C58.5169 49.3935 58.7011 49.0777 58.8048 48.7317C58.9085 48.3856 58.9287 48.0194 58.8636 47.6638V43.2339C58.8639 42.9451 58.8063 42.6591 58.6942 42.3935C58.582 42.1279 58.4178 41.8883 58.2114 41.689C58.005 41.4898 57.7607 41.3352 57.4935 41.2347C57.2263 41.1341 56.9416 41.0897 56.657 41.1042C55.1439 41.1042 53.6518 41.1042 52.1597 41.1042C51.7184 41.1042 51.5923 40.9764 51.6133 40.5504C51.6133 39.5566 51.6133 38.5556 51.6133 37.5475C51.6133 37.1429 51.6133 37.0151 52.1177 37.0364H56.3207C56.674 37.0988 57.0369 37.073 57.3781 36.9613C57.7193 36.8495 58.0285 36.6552 58.279 36.3951C58.5294 36.135 58.7135 35.817 58.8154 35.4686C58.9172 35.1202 58.9338 34.7518 58.8636 34.3955V29.923C58.8636 29.3581 58.6422 28.8164 58.248 28.417C57.8539 28.0176 57.3194 27.7932 56.762 27.7932C55.2489 27.7932 53.7148 27.7932 52.2017 27.7932C51.8655 27.7932 51.6764 27.7932 51.6764 27.3247C51.6764 23.9597 51.6764 22.6605 51.6764 22.6605H51.8865C51.8865 20.8999 51.8865 19.1323 51.8865 17.3575C51.9427 16.0215 51.4968 14.7136 50.6387 13.6978C49.7807 12.6819 48.5743 12.0338 47.2632 11.884C46.2839 11.8092 45.3004 11.8092 44.321 11.884C43.7957 11.884 43.5855 11.6923 43.5015 11.1599C43.2138 9.06663 42.4361 7.0735 41.2333 5.34696C40.0305 3.62043 38.4375 2.21061 36.5875 1.23524C35.194 0.47375 33.6504 0.0371815 32.0692 -0.0426025H29.1271C29.065 -0.0263717 28.9999 -0.0263717 28.9379 -0.0426025C27.0978 -0.0143502 25.3068 0.563508 23.7892 1.6186C22.1448 2.62186 20.7412 3.98313 19.6799 5.60386C18.6186 7.22458 17.9261 9.0642 17.6528 10.9895C17.7067 11.1083 17.7246 11.2406 17.7042 11.3697C17.6838 11.4988 17.6261 11.6189 17.5383 11.7147C17.4505 11.8105 17.3366 11.8777 17.2111 11.9079C17.0856 11.938 16.954 11.9297 16.8332 11.884C16.1607 11.884 15.4672 11.884 14.7316 11.884C13.3743 11.8172 12.0435 12.2819 11.0147 13.1818C9.98593 14.0817 9.33787 15.3479 9.20465 16.7185C9.12097 17.867 9.12097 19.0202 9.20465 20.1687C9.20465 21.5957 9.20465 21.5105 7.90171 21.5105H1.42903C0.947826 21.5118 0.468367 21.569 0 21.6809V24.0449C0.523636 23.7688 1.11434 23.6506 1.70223 23.7041C3.34141 23.7041 4.95958 23.7041 6.59877 23.7041C7.41836 23.7041 8.23796 23.7041 9.07856 23.7041C9.41481 23.7041 9.47785 23.8319 9.47785 24.1301C9.47785 25.1807 9.47785 26.2243 9.47785 27.2608C9.47785 27.6868 9.33075 27.7932 8.93146 27.7932C7.27126 27.7932 5.59004 27.7932 3.90882 27.7932C3.39321 27.9497 2.94844 28.2852 2.65254 28.7409C2.35665 29.1965 2.22853 29.7432 2.29066 30.285C2.29066 31.7333 2.29066 33.2028 2.29066 34.6723C2.25944 34.9805 2.29492 35.2918 2.39462 35.5846C2.49432 35.8774 2.65585 36.1446 2.86793 36.3677C3.08001 36.5907 3.33754 36.7642 3.62258 36.876C3.90761 36.9878 4.21327 37.0353 4.51826 37.0151H6.61978H9.07856C9.43582 37.0151 9.49886 37.1428 9.49886 37.441C9.49886 38.4917 9.49886 39.5353 9.49886 40.5717C9.49886 40.9977 9.35176 41.0829 8.95247 41.0829H3.90882C3.39187 41.2054 2.93984 41.5217 2.64356 41.9681C2.34728 42.4145 2.2287 42.9581 2.31167 43.4895V47.962C2.28533 48.2574 2.32015 48.555 2.4139 48.836C2.50766 49.1169 2.65827 49.3749 2.8561 49.5935C3.05394 49.812 3.29463 49.9863 3.56276 50.1051C3.83089 50.2239 4.12055 50.2846 4.41319 50.2834H6.51471H8.97348C9.28871 50.2834 9.39379 50.2834 9.39379 50.7094C9.39379 51.7742 9.39379 52.8391 9.39379 53.8827C9.39379 54.2235 9.39379 54.3086 8.97348 54.2873H4.45522C3.89786 54.2873 3.36333 54.5117 2.96922 54.9111C2.57511 55.3105 2.3537 55.8523 2.3537 56.4171C2.3537 58.0144 2.3537 59.633 2.3537 61.2303C2.33419 61.5374 2.38059 61.8452 2.4897 62.1324C2.59882 62.4196 2.76805 62.6794 2.98576 62.894C3.20346 63.1085 3.46446 63.2727 3.75079 63.3753C4.03712 63.4778 4.34197 63.5162 4.64436 63.4879H6.74588C7.56547 63.4879 8.38506 63.4879 9.20465 63.4879C9.54089 63.4879 9.62496 63.5944 9.62496 63.9138V65.1278H11.7265V61.2516C11.7265 46.7267 11.7265 32.1805 11.7265 17.6556C11.666 17.1972 11.7038 16.7309 11.8372 16.2886C11.9707 15.8463 12.1968 15.4384 12.5 15.0927C12.8032 14.7471 13.1764 14.4717 13.5942 14.2855C14.012 14.0993 14.4645 14.0066 14.9208 14.0138C15.3621 14.0138 15.8034 14.0138 16.2658 14.0138C17.6738 14.0138 17.6738 14.0138 17.968 15.3981C18.5313 18.3548 20.0874 21.0227 22.3719 22.9483C24.6564 24.8739 27.5283 25.9385 30.4996 25.9611C33.471 25.9836 36.3584 24.9628 38.6711 23.0722C40.9838 21.1815 42.5793 18.5376 43.1862 15.5898C43.5015 13.8647 43.5015 13.8647 45.2877 14.0351H45.603C48.5661 13.7582 49.6169 15.5685 49.5959 17.9538C49.5959 33.6288 49.5959 49.2824 49.5959 64.9574H51.6974V63.8712C51.6343 63.5518 51.7394 63.4453 52.1177 63.4453ZM52.1177 43.0423C52.8322 43.0423 53.5467 43.0423 54.2192 43.0423C54.8917 43.0423 55.6482 43.0423 56.3207 43.0423C56.678 43.0423 56.8251 43.0423 56.8251 43.5108C56.8251 44.8951 56.8251 46.2795 56.8251 47.7703C56.8251 48.1111 56.8251 48.3027 56.3627 48.3027H52.0546C51.7184 48.3027 51.6343 48.3027 51.6343 47.8768C51.6343 46.4499 51.6343 45.0442 51.6343 43.6173C51.6343 43.1062 51.7604 43.021 52.0967 43.0423H52.1177ZM52.1177 29.7313H56.4678C56.7831 29.7313 56.9091 29.7313 56.9091 30.1573C56.9091 31.5842 56.9091 32.9898 56.9091 34.4168C56.9091 34.8001 56.7831 34.8853 56.4468 34.8853H52.0336C51.6974 34.8853 51.6343 34.7575 51.6343 34.4594C51.6343 33.0395 51.6343 31.6197 51.6343 30.1999C51.6343 29.7952 51.7604 29.7313 52.0967 29.7313H52.1177ZM9.45684 34.4381C9.45684 34.6297 9.45683 34.8853 9.20465 34.8853C7.6075 34.8853 6.01034 35.0131 4.41319 34.8853C4.32943 34.2207 4.32943 33.548 4.41319 32.8833C4.41319 32.0101 4.41319 31.137 4.41319 30.2425C4.41319 29.923 4.41319 29.7952 4.83349 29.8165C5.2538 29.8378 5.98933 29.8165 6.55674 29.8165C7.12415 29.8165 8.301 29.8165 9.16262 29.8165C9.49886 29.8165 9.58292 29.923 9.58292 30.2425C9.45683 31.5842 9.47785 33.0111 9.45684 34.4381ZM9.45684 47.749C9.45684 47.962 9.45683 48.1963 9.16262 48.175C7.56546 48.175 5.98933 48.175 4.41319 48.175C4.20304 47.9194 4.30811 47.6212 4.30811 47.3444C4.30811 46.1091 4.30811 44.8738 4.30811 43.6386C4.30811 43.1913 4.45522 43.0636 4.87552 43.1062C5.29583 43.1488 5.92628 43.1062 6.45166 43.1062H9.05754C9.4148 43.1062 9.47785 43.2339 9.47785 43.5534C9.45683 44.9164 9.47785 46.3221 9.47785 47.749H9.45684ZM8.97348 61.422H6.45166C5.75816 61.422 4.87552 61.7202 4.35014 61.422C3.82477 61.1238 4.35014 60.1442 4.22405 59.4839C4.22405 58.4829 4.22405 57.5033 4.22405 56.5023C4.22405 56.268 4.47623 56.3745 4.60233 56.3745H8.80536C9.18364 56.3745 9.28871 56.5023 9.28871 56.8856C9.28871 58.27 9.28871 59.6756 9.28871 61.1451C9.47785 61.3155 9.37277 61.4433 8.9945 61.422H8.97348ZM40.7695 16.6972C40.1619 18.5674 39.0547 20.2302 37.5707 21.501C36.0868 22.7718 34.2843 23.6008 32.3634 23.8958C32.1467 23.917 31.9286 23.917 31.7119 23.8958C29.6043 24.2266 27.4477 23.8449 25.5755 22.8096C23.5359 21.7648 21.875 20.0925 20.8307 18.0324C19.7865 15.9722 19.4126 13.63 19.7626 11.3412C20.1125 9.05251 21.1684 6.93478 22.7789 5.29152C24.3894 3.64827 26.4718 2.56384 28.7278 2.19363C29.7103 1.97 30.7294 1.97 31.7119 2.19363V2.19363C33.0504 2.29584 34.3546 2.67115 35.5463 3.29698C36.7381 3.92281 37.7927 4.78628 38.6469 5.83551C39.972 7.26095 40.8754 9.03481 41.2544 10.9551C41.6333 12.8754 41.4726 14.865 40.7905 16.6972H40.7695ZM51.6343 56.6088C51.6343 56.2893 51.6343 56.1828 52.0546 56.1828C53.4557 56.1828 54.9267 56.1828 56.4678 56.1828C56.7831 56.1828 56.8881 56.1828 56.8671 56.6088V60.8683C56.8671 61.1877 56.8671 61.2942 56.4468 61.2729C55.7113 61.2729 54.9757 61.2729 54.3453 61.2729H52.2438C51.9285 61.2729 51.7604 61.2729 51.7604 60.8683C51.6904 59.5194 51.6483 58.0996 51.6343 56.6088Z" fill="#010101"/>
<path d="M45.3508 14.1202C43.5225 13.9499 43.5225 13.9499 43.2493 15.675C42.6423 18.6228 41.0469 21.2667 38.7342 23.1574C36.4214 25.048 33.534 26.0688 30.5627 26.0462C27.5914 26.0237 24.7194 24.9591 22.4349 23.0335C20.1504 21.1079 18.5943 18.44 18.031 15.4833C17.6738 14.0138 17.6738 14.0138 16.2658 14.0138C15.8034 14.0138 15.3621 14.0138 14.9208 14.0138C14.4596 13.9717 13.9949 14.0325 13.5594 14.1918C13.1238 14.351 12.728 14.605 12.3995 14.9358C12.0711 15.2666 11.8181 15.6662 11.6583 16.1067C11.4984 16.5471 11.4356 17.0176 11.4743 17.4852C11.4743 32.0101 11.4743 46.5563 11.4743 61.0812V65.1278H19.5862V61.848C19.5619 61.7206 19.5628 61.5897 19.5888 61.4627C19.6149 61.3357 19.6655 61.2153 19.7378 61.1083C19.8102 61.0013 19.9027 60.9099 20.0102 60.8395C20.1176 60.769 20.2378 60.7209 20.3637 60.6979C20.6369 60.5488 20.5949 60.2932 20.5949 60.0377C20.5949 59.3775 20.5949 58.6959 20.5949 57.9079C19.6702 57.5459 19.5652 57.3968 19.5652 56.4384V50.2195C19.5652 49.8575 19.5652 49.6232 19.0818 49.5806C18.6456 49.5178 18.2478 49.2939 17.9646 48.9519C17.6814 48.6099 17.533 48.1739 17.5477 47.7277V45.4063C17.5357 45.1513 17.5764 44.8967 17.6672 44.6586C17.758 44.4206 17.8969 44.2044 18.075 44.0239C18.2531 43.8434 18.4664 43.7027 18.7013 43.6106C18.9362 43.5186 19.1875 43.4773 19.4391 43.4895H41.7152C41.9667 43.4773 42.218 43.5186 42.4529 43.6106C42.6878 43.7027 42.9012 43.8434 43.0792 44.0239C43.2573 44.2044 43.3962 44.4206 43.487 44.6586C43.5778 44.8967 43.6185 45.1513 43.6065 45.4063V47.536C43.6449 47.7845 43.633 48.0382 43.5715 48.2819C43.51 48.5255 43.4003 48.7539 43.2489 48.9532C43.0975 49.1524 42.9077 49.3184 42.691 49.4409C42.4742 49.5634 42.2352 49.6399 41.9884 49.6658C41.6731 49.6658 41.5891 49.6658 41.5891 50.0917V65H46.6748C46.6748 49.3818 46.6748 33.7637 46.6748 18.1455C46.7344 17.4187 46.6478 16.6871 46.4202 15.9952C46.1926 15.3033 45.8288 14.6655 45.3508 14.1202V14.1202ZM28.5386 37.2067C28.5386 37.7716 28.3172 38.3133 27.9231 38.7127C27.529 39.1121 26.9945 39.3365 26.4371 39.3365C23.495 39.3365 20.5739 39.3365 17.6528 39.3365C17.0954 39.3365 16.5609 39.1121 16.1668 38.7127C15.7727 38.3133 15.5513 37.7716 15.5513 37.2067C15.5513 35.5029 15.5513 33.7778 15.5513 32.0527C15.5936 31.5179 15.8336 31.019 16.2232 30.6558C16.6128 30.2925 17.1234 30.0917 17.6528 30.0934C19.1238 30.0934 20.5949 30.0934 22.066 30.0934H26.4371C26.9945 30.0934 27.529 30.3178 27.9231 30.7172C28.3172 31.1166 28.5386 31.6583 28.5386 32.2231V37.2067ZM43.4804 39.3365C40.5383 39.3365 37.5962 39.3365 34.6331 39.3365C34.0757 39.3365 33.5412 39.1121 33.1471 38.7127C32.7529 38.3133 32.5315 37.7716 32.5315 37.2067C32.5315 35.5242 32.5315 33.863 32.5315 32.1805C32.5315 31.6157 32.7529 31.074 33.1471 30.6746C33.5412 30.2752 34.0757 30.0508 34.6331 30.0508C36.1041 30.0508 37.5752 30.0508 39.0673 30.0508C40.5593 30.0508 41.9674 30.0508 43.4174 30.0508C43.9748 30.0508 44.5093 30.2752 44.9034 30.6746C45.2975 31.074 45.5189 31.6157 45.5189 32.1805C45.5189 33.8204 45.5189 35.4816 45.5189 37.1215C45.5389 37.4048 45.5027 37.6892 45.4126 37.958C45.3225 38.2268 45.1802 38.4747 44.9942 38.687C44.8082 38.8994 44.5822 39.0718 44.3294 39.1943C44.0767 39.3169 43.8023 39.3869 43.5225 39.4004L43.4804 39.3365Z" fill="#F7F7F7"/>
<path d="M4.60233 63.4666C4.29994 63.4949 3.99509 63.4565 3.70876 63.354C3.42244 63.2515 3.16143 63.0873 2.94373 62.8727C2.72602 62.6581 2.55678 62.3983 2.44767 62.1111C2.33856 61.8239 2.29216 61.5162 2.31167 61.209C2.31167 59.6117 2.31167 57.9931 2.31167 56.3958C2.31167 55.831 2.53308 55.2892 2.92719 54.8898C3.3213 54.4904 3.85583 54.2661 4.41319 54.2661H6.51471V50.2195H4.41319C4.12055 50.2207 3.83089 50.16 3.56276 50.0412C3.29463 49.9224 3.05394 49.7481 2.8561 49.5296C2.65827 49.311 2.50766 49.053 2.4139 48.7721C2.32015 48.4912 2.28533 48.1935 2.31167 47.8981V43.4256C2.2287 42.8942 2.34728 42.3507 2.64356 41.9042C2.93984 41.4578 3.39187 41.1415 3.90882 41.019C4.53155 40.8461 5.18352 40.8098 5.8212 40.9125C6.40963 40.9125 6.6408 40.7847 6.61978 40.1458C6.61978 39.0809 6.61978 38.016 6.61978 36.9725H4.51826C4.21327 36.9927 3.90761 36.9452 3.62258 36.8334C3.33754 36.7216 3.08001 36.5481 2.86793 36.3251C2.65585 36.102 2.49432 35.8348 2.39462 35.542C2.29492 35.2492 2.25944 34.9379 2.29066 34.6297C2.29066 33.1602 2.29066 31.6907 2.29066 30.2425C2.22853 29.7006 2.35665 29.1539 2.65254 28.6983C2.94844 28.2426 3.39321 27.9071 3.90882 27.7506C4.37484 27.5881 4.8746 27.5514 5.35887 27.6442C6.59877 27.6442 6.59877 27.6442 6.59877 26.3237V23.6615C4.95958 23.6615 3.34141 23.6615 1.70223 23.6615C1.11434 23.608 0.523636 23.7262 0 24.0023V65.1278H6.59877V63.5944L4.60233 63.4666Z" fill="#F7F7F7"/>
<path d="M58.8636 23.8532H58.6534C57.6447 23.8532 56.5519 23.8532 55.6062 23.8532C55.4255 23.8708 55.2432 23.8505 55.0706 23.7937C54.898 23.7369 54.7387 23.6447 54.6027 23.5228C54.4667 23.401 54.3569 23.2521 54.2801 23.0855C54.2033 22.9188 54.1611 22.7379 54.1562 22.5541H51.8445C51.8445 23.8745 51.8445 25.2162 51.8445 26.558C51.8445 27.4312 51.8445 27.4738 52.7481 27.4738H56.762C57.0875 27.4449 57.4153 27.4883 57.7226 27.6008C58.0298 27.7134 58.3092 27.8925 58.5412 28.1256C58.7733 28.3587 58.9524 28.6403 59.0661 28.9507C59.1798 29.2611 59.2255 29.5929 59.1998 29.923C59.1998 31.3428 59.1998 32.8337 59.1998 34.3955C59.234 34.7548 59.1908 35.1173 59.0732 35.458C58.9555 35.7987 58.7662 36.1095 58.5184 36.3687C58.2706 36.628 57.9701 36.8296 57.6378 36.9596C57.3055 37.0896 56.9493 37.1448 56.5939 37.1216C55.354 37.1216 54.1351 37.1216 52.8952 37.1216C52.0126 37.1216 51.9706 37.1215 51.9706 38.1012C51.9706 38.7189 51.9706 39.3578 51.9706 39.9967C51.9706 40.6356 52.1597 40.7634 52.7061 40.7634C54.0301 40.7634 55.333 40.7634 56.6569 40.7634C56.9987 40.723 57.345 40.7611 57.6702 40.875C57.9954 40.9888 58.2912 41.1754 58.5355 41.4209C58.7798 41.6664 58.9663 41.9646 59.0813 42.2932C59.1963 42.6218 59.2368 42.9725 59.1998 43.3191C59.1998 44.739 59.1998 46.1588 59.1998 47.5786C59.2409 47.9488 59.2011 48.3235 59.083 48.6763C58.965 49.0291 58.7717 49.3511 58.5168 49.6195C58.262 49.8879 57.9519 50.0961 57.6087 50.2293C57.2654 50.3624 56.8974 50.4173 56.5309 50.3899C55.312 50.3899 54.0721 50.3899 52.8532 50.3899C52.0336 50.3899 51.9706 50.3899 51.9706 51.2844C51.9706 52.1789 51.9706 52.5409 51.9706 53.1799C51.9706 53.8188 52.1807 53.904 52.6851 53.904C53.904 53.904 55.1439 53.904 56.3627 53.904C58.3171 53.904 59.1998 54.7985 59.1998 56.7579C59.1998 58.1777 59.1998 59.562 59.1998 60.9109C59.236 61.2695 59.1929 61.6318 59.0736 61.9715C58.9544 62.3111 58.762 62.6196 58.5105 62.8745C58.259 63.1294 57.9546 63.3244 57.6194 63.4452C57.2843 63.566 56.9268 63.6097 56.5729 63.5731C55.312 63.5731 54.03 63.5731 52.7481 63.5731C52.0546 63.5731 51.9916 63.5731 51.9706 64.3611V65.1278H60.0614V27.559C60.1564 26.2124 59.7263 24.8818 58.8636 23.8532V23.8532Z" fill="#F7F7F7"/>
<path d="M52.559 63.6795C53.8409 63.6795 55.1229 63.6795 56.3838 63.6795C56.7376 63.7162 57.0952 63.6725 57.4303 63.5517C57.7655 63.4309 58.0699 63.2359 58.3214 62.981C58.5729 62.7261 58.7653 62.4176 58.8845 62.078C59.0037 61.7383 59.0468 61.376 59.0107 61.0174C59.0107 59.5975 59.0107 58.2132 59.0107 56.8644C59.0107 54.905 58.128 54.0105 56.1736 54.0105C54.9547 54.0105 53.7148 54.0105 52.496 54.0105C51.9916 54.0105 51.7604 53.8188 51.7814 53.2864C51.8024 52.7539 51.7814 52.0298 51.7814 51.3909C51.7814 50.752 51.7814 50.5177 52.6641 50.4964C53.883 50.4964 55.1229 50.4964 56.3417 50.4964C56.7083 50.5238 57.0763 50.4689 57.4195 50.3358C57.7628 50.2026 58.0729 49.9944 58.3277 49.726C58.5826 49.4576 58.7759 49.1355 58.8939 48.7828C59.012 48.43 59.0518 48.0553 59.0107 47.6851C59.0107 46.2653 59.0107 44.8454 59.0107 43.4256C59.0477 43.079 59.0072 42.7283 58.8922 42.3997C58.7772 42.0711 58.5906 41.7729 58.3463 41.5274C58.102 41.2819 57.8063 41.0953 57.4811 40.9814C57.1559 40.8676 56.8096 40.8295 56.4678 40.8699C55.1439 40.8699 53.8409 40.8699 52.517 40.8699C51.9706 40.8699 51.7604 40.6569 51.7814 40.1032C51.8024 39.5495 51.7814 38.8254 51.7814 38.2077C51.7814 37.2706 51.7814 37.2493 52.7061 37.228C53.946 37.228 55.1649 37.228 56.4048 37.228C56.7602 37.2513 57.1164 37.196 57.4487 37.066C57.781 36.9361 58.0814 36.7345 58.3293 36.4752C58.5771 36.2159 58.7664 35.9052 58.884 35.5645C59.0017 35.2238 59.0449 34.8613 59.0107 34.502C59.0107 33.0111 59.0107 31.5203 59.0107 30.0295C59.0431 29.7111 59.0091 29.3894 58.9107 29.0853C58.8123 28.7812 58.6519 28.5015 58.4397 28.2644C58.2276 28.0273 57.9686 27.8382 57.6795 27.7093C57.3904 27.5804 57.0778 27.5147 56.762 27.5164H52.7691C51.9075 27.5164 51.8655 27.5164 51.8655 26.6006C51.8655 25.2588 51.8655 23.9171 51.8655 22.5966H51.6553C51.6553 22.5966 51.6553 23.8958 51.6553 27.2608C51.6553 27.7081 51.8445 27.7294 52.1807 27.7294C53.6938 27.7294 55.2279 27.7294 56.741 27.7294C57.2984 27.7294 57.8329 27.9537 58.227 28.3531C58.6211 28.7526 58.8425 29.2943 58.8425 29.8591V34.3316C58.8927 34.6781 58.8619 35.0316 58.7525 35.3638C58.6432 35.696 58.4584 35.9975 58.2131 36.2441C57.9677 36.4907 57.6687 36.6754 57.34 36.7834C57.0113 36.8914 56.6622 36.9197 56.3207 36.866H52.1177C51.7184 36.866 51.5923 36.866 51.6133 37.3771C51.6133 38.371 51.6133 39.372 51.6133 40.3801C51.6133 40.806 51.6133 40.9551 52.1597 40.9338C53.6518 40.9338 55.1439 40.9338 56.657 40.9338C56.9416 40.9194 57.2263 40.9638 57.4935 41.0643C57.7607 41.1649 58.005 41.3194 58.2114 41.5187C58.4178 41.7179 58.582 41.9576 58.6942 42.2232C58.8063 42.4888 58.8639 42.7747 58.8636 43.0636V47.6638C58.9128 48.011 58.8815 48.3651 58.7722 48.6979C58.6629 49.0308 58.4785 49.3332 58.2338 49.5813C57.989 49.8293 57.6906 50.0161 57.3621 50.1269C57.0337 50.2377 56.6844 50.2694 56.3417 50.2195H52.1387C51.7604 50.2195 51.6343 50.2195 51.6553 50.7094C51.6553 51.7104 51.6553 52.69 51.6553 53.691C51.6553 54.1596 51.8024 54.2447 52.2227 54.2234H56.762C57.0467 54.209 57.3313 54.2534 57.5986 54.354C57.8658 54.4545 58.11 54.6091 58.3164 54.8083C58.5228 55.0075 58.6871 55.2472 58.7992 55.5128C58.9114 55.7784 58.969 56.0643 58.9686 56.3532C58.9686 57.9292 58.9686 59.5052 58.9686 61.1026C58.9906 61.4075 58.9474 61.7137 58.8422 62.0002C58.7369 62.2868 58.572 62.547 58.3587 62.7632C58.1453 62.9794 57.8885 63.1465 57.6058 63.2532C57.323 63.3599 57.0209 63.4036 56.72 63.3814H52.1177C51.7394 63.3814 51.6343 63.4879 51.6343 63.8712V65.1278H51.8655V64.574C51.8865 63.7647 51.9496 63.7008 52.559 63.6795Z" fill="#F7F7F7"/>
<path d="M55.6062 23.8532C56.6149 23.8532 57.7077 23.8532 58.6534 23.8532H58.8636L58.6954 23.6615H55.6903C54.8707 23.6615 54.5975 23.4273 54.3873 22.5966H54.2402C54.2619 22.945 54.4167 23.2711 54.6717 23.5057C54.9268 23.7403 55.262 23.865 55.6062 23.8532V23.8532Z" fill="#F7F7F7"/>
<path d="M49.6589 18.0177C49.6589 15.6324 48.6292 13.7582 45.666 14.099H45.3508C45.7029 14.2952 46.0067 14.5695 46.2396 14.9014C46.4725 15.2333 46.6284 15.6142 46.6958 16.0157C46.8497 16.6351 46.9204 17.2727 46.9059 17.9112V65.1278H49.6379C49.6169 49.3463 49.5959 33.6927 49.6589 18.0177Z" fill="#EDEBEC"/>
<path d="M46.6958 16.1435C46.6284 15.742 46.4725 15.3611 46.2396 15.0292C46.0067 14.6973 45.7029 14.423 45.3508 14.2267C45.8352 14.7728 46.2044 15.4134 46.4357 16.1092C46.667 16.8051 46.7555 17.5415 46.6958 18.2733C46.6958 33.8914 46.6958 49.5096 46.6958 65.1278H46.9269V17.9325C46.9254 17.3286 46.8477 16.7274 46.6958 16.1435V16.1435Z" fill="#EDEBEC"/>
<path d="M37.8484 16.5482C37.8484 16.3139 37.8484 16.2074 37.6172 16.1648H34.2127C33.7924 16.1648 33.6243 16.1648 33.6243 16.7185C33.6243 17.7834 33.6243 18.8483 33.6243 19.9132C33.6624 20.2019 33.6342 20.4957 33.5421 20.7717C33.4499 21.0477 33.2962 21.2984 33.093 21.5044C32.8897 21.7104 32.6423 21.8662 32.37 21.9596C32.0976 22.053 31.8078 22.0815 31.5228 22.0429H29.5684C29.2826 22.086 28.9908 22.0607 28.7164 21.9689C28.442 21.8771 28.1927 21.7215 27.9884 21.5144C27.784 21.3074 27.6304 21.0547 27.5399 20.7766C27.4493 20.4985 27.4243 20.2028 27.4669 19.9132C27.4669 18.8483 27.4669 17.7834 27.4669 16.7398C27.4669 16.2074 27.3408 16.0796 26.8364 16.1009C25.8137 16.1009 24.7839 16.1009 23.7472 16.1009C23.4622 16.1395 23.1723 16.111 22.9 16.0176C22.6277 15.9242 22.3803 15.7684 22.177 15.5624C21.9737 15.3564 21.82 15.1057 21.7279 14.8297C21.6357 14.5537 21.6076 14.2599 21.6457 13.9712V12.0118C21.6071 11.734 21.6305 11.451 21.7142 11.1836C21.798 10.9162 21.9399 10.6713 22.1295 10.4669C22.319 10.2625 22.5515 10.1038 22.8097 10.0026C23.0678 9.90136 23.3451 9.86016 23.6211 9.88203C24.6929 9.88203 25.7226 9.88203 26.8364 9.88203C27.3408 9.88203 27.4669 9.71166 27.4458 9.22181C27.4458 8.18533 27.4458 7.14175 27.4458 6.09108C27.4078 5.80229 27.4359 5.5085 27.5281 5.23253C27.6202 4.95655 27.7739 4.70582 27.9772 4.49981C28.1805 4.29379 28.4279 4.13806 28.7002 4.04467C28.9725 3.95128 29.2624 3.92275 29.5474 3.96133H31.5438C31.8186 3.918 32.0996 3.93879 32.3653 4.02211C32.631 4.10543 32.8744 4.24909 33.0771 4.44214C33.2797 4.63519 33.4362 4.87254 33.5347 5.13614C33.6332 5.39974 33.671 5.68264 33.6453 5.9633C33.6453 7.05657 33.6453 8.14274 33.6453 9.22181C33.6453 9.73295 33.7924 9.88204 34.2968 9.86075C35.4316 9.86075 36.5664 9.86075 37.7013 9.86075C38.0375 9.86075 37.9745 9.60516 37.8904 9.34959C37.3922 7.78567 36.5921 6.33776 35.5367 5.09009C34.4582 3.90528 33.2031 2.89919 31.817 2.10845V2.10845C30.8345 1.88483 29.8153 1.88483 28.8328 2.10845C26.5769 2.47866 24.4944 3.56308 22.884 5.20633C21.2735 6.84959 20.2176 8.96732 19.8676 11.2561C19.5177 13.5448 19.8916 15.8871 20.9358 17.9472C21.98 20.0074 23.641 21.6796 25.6806 22.7244C27.5528 23.7597 29.7093 24.1414 31.817 23.8106V23.8106C32.8362 23.1972 33.7934 22.4838 34.6751 21.6809C36.151 20.2752 37.2441 18.5073 37.8484 16.5482V16.5482Z" fill="#DE636F"/>
<path d="M28.9169 49.5806C26.6893 49.5806 24.4617 49.5806 22.2131 49.5806C21.6877 49.5806 21.6036 49.7723 21.6036 50.2621C21.6036 52.2641 21.6036 54.2873 21.6036 56.2893C21.6036 57.1199 21.4145 57.6524 20.6159 57.9079C20.9437 58.6591 21.0031 59.5025 20.784 60.2933C20.784 60.5062 20.5319 60.5275 20.3637 60.5914C21.3094 60.5914 21.5826 60.8683 21.5826 61.848V65.1278H29.5264C29.5264 60.2081 29.5264 55.2883 29.5264 50.3686C29.5474 49.7723 29.4423 49.5806 28.9169 49.5806ZM27.5509 59.846C27.5147 60.0737 27.395 60.2791 27.2158 60.4212C27.0366 60.5634 26.811 60.6317 26.5842 60.6127C26.3474 60.6268 26.1137 60.5521 25.9277 60.4028C25.7417 60.2536 25.6164 60.0402 25.5755 59.8034C25.5452 59.3922 25.5452 58.9793 25.5755 58.5681C25.5424 58.1571 25.5424 57.744 25.5755 57.3329C25.6164 57.0961 25.7417 56.8827 25.9277 56.7335C26.1137 56.5843 26.3474 56.5095 26.5842 56.5236C26.811 56.5046 27.0366 56.5729 27.2158 56.7151C27.395 56.8572 27.5147 57.0626 27.5509 57.2903C27.6982 58.1357 27.6982 59.0006 27.5509 59.846V59.846Z" fill="#665F68"/>
<path d="M20.805 60.2933C21.0241 59.5025 20.9647 58.6591 20.6369 57.9079C20.6369 58.5894 20.6369 59.271 20.6369 60.0377C20.6369 60.2932 20.6369 60.5488 20.4058 60.6979C20.5529 60.5275 20.784 60.5062 20.805 60.2933Z" fill="#665F68"/>
<path d="M62.5832 26.0469C62.4571 25.4579 62.1405 24.9284 61.6836 24.5426C61.2268 24.1568 60.6558 23.9366 60.0614 23.9171H58.8636C59.4279 24.3727 59.8029 25.0263 59.9143 25.7487C60.0503 26.3853 60.1137 27.0355 60.1034 27.6868V65.1278H62.6043V27.4738C62.6499 26.9988 62.6428 26.5202 62.5832 26.0469V26.0469Z" fill="#EDEBEC"/>
<path d="M62.8985 26.4728C62.8556 25.8127 62.6032 25.1844 62.179 24.6816C61.7548 24.1787 61.1816 23.8284 60.5448 23.6828C59.9038 23.5869 59.2524 23.5869 58.6114 23.6828C58.7349 23.7333 58.8488 23.8054 58.9476 23.8958H60.0614C60.6558 23.9153 61.2268 24.1355 61.6836 24.5213C62.1405 24.9071 62.4571 25.4366 62.5833 26.0256C62.6358 26.4997 62.6358 26.9783 62.5833 27.4525V65.1278H62.8144C62.8144 52.4771 62.8144 39.8263 62.8144 27.1756C62.8571 26.9434 62.8852 26.7086 62.8985 26.4728V26.4728Z" fill="#EDEBEC"/>
<path d="M59.9984 25.7061C59.8869 24.9837 59.5119 24.33 58.9476 23.8745H58.8636C59.7188 24.9063 60.1412 26.2366 60.0404 27.5803V65.1278H60.2716V27.6442C60.2543 26.9896 60.1626 26.3393 59.9984 25.7061V25.7061Z" fill="#EDEBEC"/>
<path d="M58.8636 23.8745C58.7647 23.7841 58.6509 23.712 58.5273 23.6615L58.6954 23.8532L58.8636 23.8745Z" fill="#EDEBEC"/>
<path d="M32.1322 49.6019C31.733 49.6019 31.6489 49.751 31.6489 50.113V65.0213H36.6295V49.6232L32.1322 49.6019ZM34.612 60.6127C34.3874 60.6375 34.1619 60.574 33.982 60.4353C33.8022 60.2967 33.6817 60.0933 33.6453 59.8673C33.498 59.0219 33.498 58.157 33.6453 57.3116C33.6768 57.0719 33.8005 56.8545 33.9894 56.7069C34.1784 56.5593 34.4173 56.4934 34.6541 56.5236C34.8753 56.5191 35.0911 56.5933 35.2639 56.7334C35.4367 56.8735 35.5555 57.0706 35.5998 57.2903C35.6415 57.7223 35.6415 58.1574 35.5998 58.5894C35.6415 59.0072 35.6415 59.4282 35.5998 59.846C35.5545 60.0732 35.4294 60.2762 35.2478 60.4172C35.0662 60.5581 34.8403 60.6276 34.612 60.6127Z" fill="#665F68"/>
<path d="M31.796 2.17235C33.8418 3.02388 35.565 4.51649 36.7135 6.43185C37.2734 7.30375 37.7118 8.24976 38.0165 9.24312C38.0165 9.56258 38.0165 9.83944 37.8694 9.96723C39.1093 10.3506 39.4455 10.8404 39.4455 12.2674V13.6943C39.4455 15.1851 39.1303 15.6537 37.8694 16.0583C38.0795 16.1861 38.1216 16.4417 38.0165 16.7611C37.0991 19.7048 35.0968 22.1764 32.4264 23.6615C32.2163 23.7893 31.9851 23.6615 31.796 23.8745C32.0126 23.8957 32.2308 23.8957 32.4475 23.8745C34.3683 23.5795 36.1709 22.7505 37.6548 21.4797C39.1388 20.209 40.246 18.5461 40.8535 16.6759C41.5453 14.8447 41.7151 12.8532 41.3435 10.9289C40.9719 9.00452 40.0739 7.2248 38.752 5.79292C37.8935 4.7451 36.8347 3.88417 35.6392 3.26195C34.4438 2.63973 33.1365 2.2691 31.796 2.17235V2.17235Z" fill="#DB4B55"/>
<path d="M35.5157 5.17529C36.5711 6.42296 37.3712 7.87087 37.8694 9.43479C37.8694 9.69036 38.0165 9.88203 37.6802 9.94593H37.8694C38.1005 9.81814 38.1006 9.54128 38.0165 9.22182C37.7118 8.22846 37.2734 7.28245 36.7135 6.41055C35.565 4.49519 33.8418 3.00257 31.796 2.15105C33.185 2.95472 34.4403 3.97533 35.5157 5.17529V5.17529Z" fill="#DB4B55"/>
<path d="M38.0165 16.8037C38.1216 16.4843 38.0165 16.2287 37.8694 16.1009H37.6802C37.9114 16.1009 37.9955 16.25 37.9114 16.4843C37.3098 18.5139 36.1855 20.3443 34.6541 21.7874C33.7724 22.5903 32.8151 23.3037 31.796 23.9171C31.9851 23.7893 32.2163 23.9171 32.4264 23.7041C35.0968 22.219 37.0991 19.7473 38.0165 16.8037Z" fill="#DB4B55"/>
<path d="M39.0883 49.6019H36.6295C36.7281 49.726 36.7998 49.8699 36.8396 50.0241C36.8794 50.1782 36.8866 50.3392 36.8607 50.4964V65.1278H39.5926C39.5926 60.1655 39.5926 55.1818 39.5926 50.2195C39.5926 49.751 39.4876 49.5806 39.0883 49.6019Z" fill="#555057"/>
<path d="M36.6295 49.6232V65.1278H36.8607V50.5177C36.8866 50.3605 36.8794 50.1995 36.8396 50.0454C36.7998 49.8912 36.7281 49.7473 36.6295 49.6232V49.6232Z" fill="#555057"/>
<path d="M38.6259 45.5554H20.0695C19.7333 45.5554 19.6072 45.5554 19.5862 46.0026C19.5862 47.5999 19.5862 47.5999 21.0783 47.5999H38.4999C38.6651 46.932 38.7078 46.239 38.6259 45.5554V45.5554Z" fill="#8C818E"/>
<path d="M52.1177 61.422H54.2192C54.9547 61.422 55.6903 61.422 56.3207 61.422C56.6359 61.422 56.741 61.422 56.741 61.0174V56.7579C56.741 56.4384 56.741 56.3319 56.3417 56.3319C54.9407 56.3319 53.4697 56.3319 51.9285 56.3319C51.6133 56.3319 51.5082 56.3319 51.5082 56.7579C51.5082 58.1777 51.5082 59.5975 51.5082 61.0174C51.6343 61.4007 51.8025 61.4433 52.1177 61.422Z" fill="#C1D8F0"/>
<path d="M52.0336 34.8853H56.4048C56.741 34.8853 56.8671 34.8853 56.8671 34.4168C56.8671 32.9899 56.8671 31.5842 56.8671 30.1573C56.8671 29.8165 56.741 29.7313 56.4258 29.7313H52.0967C51.7604 29.7313 51.6343 29.7313 51.6343 30.1786C51.6343 31.5984 51.6343 33.0182 51.6343 34.4381C51.6343 34.7575 51.6974 34.8853 52.0336 34.8853Z" fill="#C1D8F0"/>
<path d="M52.0546 48.0898H56.4048C56.8041 48.0898 56.8671 47.8981 56.8671 47.5573C56.8671 46.173 56.8671 44.7887 56.8671 43.2978C56.8671 42.8932 56.72 42.808 56.3627 42.8293C55.6482 42.8293 54.9337 42.8293 54.2612 42.8293C53.5887 42.8293 52.8322 42.8293 52.1597 42.8293C51.8235 42.8293 51.6974 42.8293 51.6974 43.2765C51.6974 44.7035 51.6974 46.1091 51.6974 47.536C51.6343 48.0898 51.7184 48.1963 52.0546 48.0898Z" fill="#C1D8F0"/>
<path d="M8.99451 56.2467H4.79147C4.66538 56.2467 4.45522 56.2467 4.41319 56.3745H6.01034C6.43065 56.3745 6.53572 56.5236 6.53572 56.9283C6.53572 58.4191 6.53572 59.8886 6.53572 61.3794H9.05755C9.43582 61.3794 9.5409 61.2729 9.5409 60.8896C9.5409 59.5053 9.5409 58.0996 9.5409 56.6301C9.47785 56.3745 9.37278 56.2467 8.99451 56.2467Z" fill="#A2C5E8"/>
<path d="M9.05755 43.0422H6.45167C6.45167 44.5118 6.45167 46.0026 6.45167 47.4934C6.45167 47.9194 6.30456 48.0898 5.88426 48.0685C5.46395 48.0472 4.89654 48.0685 4.41319 48.0685C5.98933 48.2388 7.56547 48.0685 9.16262 48.0685C9.45684 48.0685 9.45684 47.8555 9.45684 47.6425C9.45684 46.2156 9.45684 44.8099 9.45684 43.383C9.47786 43.17 9.41481 43.0209 9.05755 43.0422Z" fill="#A2C4E8"/>
<path d="M9.05755 29.7313C8.19593 29.7313 7.33431 29.7313 6.45167 29.7313C6.45167 31.2009 6.45167 32.6491 6.45167 34.1186C6.45167 34.6298 6.28355 34.7788 5.8002 34.7575C5.31685 34.7362 4.87553 34.7575 4.39218 34.7575C5.98934 34.9705 7.58649 34.7575 9.18364 34.7575C9.47786 34.7575 9.43582 34.502 9.43582 34.3103C9.43582 32.8834 9.43582 31.4564 9.43582 30.0508C9.47785 29.8378 9.39379 29.7313 9.05755 29.7313Z" fill="#A2C4E8"/>
<path d="M6.80892 40.231C6.80892 40.7634 6.6408 41.019 6.05237 40.9977C5.35362 40.9265 4.6496 40.9265 3.95085 40.9977H8.97348C9.37277 40.9977 9.5409 40.9977 9.51988 40.4866C9.51988 39.4359 9.51988 38.3923 9.51988 37.3558C9.51988 37.0577 9.51988 36.9086 9.09958 36.9299H6.6408C6.72013 37.0228 6.77973 37.1312 6.81589 37.2485C6.85204 37.3657 6.86398 37.4893 6.85095 37.6114C6.82994 38.5272 6.82993 39.3791 6.80892 40.231Z" fill="#EDEAEB"/>
<path d="M6.61979 40.1458C6.61979 40.7847 6.40964 40.9338 5.82121 40.9125C5.18353 40.8098 4.53156 40.8461 3.90883 41.019C4.60758 40.9478 5.3116 40.9478 6.01035 41.019C6.59877 41.019 6.7669 40.7847 6.7669 40.2523C6.7669 39.4004 6.7669 38.5485 6.7669 37.6753C6.77992 37.5532 6.76799 37.4296 6.73183 37.3124C6.69568 37.1951 6.63608 37.0867 6.55675 36.9938C6.59878 38.0161 6.55675 39.0809 6.61979 40.1458Z" fill="#EDEAEB"/>
<path d="M6.80892 27.0052C6.80892 27.4525 6.61979 27.6868 6.11542 27.6655C5.41608 27.6076 4.71324 27.6076 4.0139 27.6655C5.69512 27.6655 7.37633 27.6655 9.03653 27.6655C9.43582 27.6655 9.58292 27.559 9.58292 27.133C9.58292 26.0824 9.58292 25.0388 9.58292 24.0023C9.58292 23.7041 9.58293 23.555 9.18364 23.5763C8.34303 23.5763 7.52344 23.5763 6.70384 23.5763C6.7793 23.6588 6.83696 23.7564 6.87315 23.8627C6.90933 23.9691 6.92324 24.0819 6.91399 24.194C6.82993 25.195 6.82993 26.0894 6.80892 27.0052Z" fill="#EDEAEB"/>
<path d="M5.35888 27.6016C4.87461 27.5088 4.37485 27.5455 3.90883 27.7081C4.60817 27.6502 5.31101 27.6502 6.01035 27.7081C6.51471 27.7081 6.70385 27.4951 6.70385 27.0478C6.70385 26.132 6.70385 25.2375 6.70385 24.3217C6.7131 24.2096 6.69919 24.0968 6.66301 23.9905C6.62682 23.8842 6.56916 23.7866 6.4937 23.7041V26.3237C6.59878 27.5803 6.59878 27.559 5.35888 27.6016Z" fill="#EDEAEB"/>
<path d="M9.05754 63.4453C8.23795 63.4453 7.41836 63.4453 6.59877 63.4453C6.7297 63.5742 6.80521 63.7502 6.80892 63.9351C6.80892 64.2759 6.80892 64.6166 6.80892 64.9787H9.47785V63.8286C9.47785 63.5518 9.39379 63.4453 9.05754 63.4453Z" fill="#EDEBEC"/>
<path d="M6.59877 63.4879V65.1278H6.80892C6.80892 64.7657 6.80892 64.425 6.80892 64.0842C6.82237 63.9751 6.81037 63.8643 6.77387 63.7607C6.73737 63.6571 6.6774 63.5637 6.59877 63.4879V63.4879Z" fill="#EDEBEC"/>
<path d="M6.80892 53.5845C6.81817 53.6966 6.80426 53.8095 6.76807 53.9158C6.73189 54.0221 6.67423 54.1197 6.59877 54.2022H9.05754C9.37277 54.2022 9.47785 54.2022 9.47785 53.7975C9.47785 52.7326 9.47785 51.6678 9.47785 50.6242C9.47785 50.3047 9.47785 50.1982 9.05754 50.1982H6.59877C6.74136 50.3709 6.81618 50.5908 6.80892 50.8159C6.83694 51.7671 6.83694 52.69 6.80892 53.5845Z" fill="#EDEBEC"/>
<path d="M6.80892 53.5845C6.80892 52.69 6.80892 51.7955 6.80892 50.901C6.81618 50.676 6.74136 50.4561 6.59877 50.2834V54.2022C6.67423 54.1197 6.73189 54.0221 6.76807 53.9158C6.80426 53.8095 6.81817 53.6966 6.80892 53.5845V53.5845Z" fill="#EDEBEC"/>
<path d="M5.56902 47.8981C6.07338 47.8981 6.2415 47.6851 6.2415 47.1953V44.0433C6.19165 43.7084 6.26657 43.3668 6.45166 43.0849C5.92628 43.0849 5.4009 43.0849 4.87552 43.0849C4.35014 43.0849 4.28709 43.0849 4.30811 43.6173C4.30811 44.8526 4.30811 46.0878 4.30811 47.3231C4.30811 47.5999 4.30811 47.8981 4.41318 48.1537C4.77044 47.7916 5.19074 47.8981 5.56902 47.8981Z" fill="#C1D8F0"/>
<path d="M5.90526 48.0898C6.32557 48.0898 6.47267 47.9407 6.47267 47.5148C6.47267 46.0239 6.47267 44.5331 6.47267 43.0636C6.28759 43.3455 6.21268 43.6871 6.26252 44.0219V47.174C6.26252 47.6638 6.0944 47.8768 5.59004 47.8768C5.08567 47.8768 4.79146 47.8768 4.45522 48.0898C4.91755 48.0898 5.42191 48.0898 5.90526 48.0898Z" fill="#C1D8F0"/>
<path d="M6.32557 33.5649V30.6684C6.27718 30.3539 6.35265 30.0326 6.53572 29.7739C5.96831 29.7739 5.37989 29.7739 4.81248 29.7739C4.24507 29.7739 4.39218 29.8804 4.39218 30.1999C4.39218 31.0944 4.39218 31.9676 4.39218 32.8408C4.30842 33.5054 4.30842 34.1781 4.39218 34.8427C4.64537 34.6518 4.96177 34.5678 5.27481 34.6085C6.32557 34.5446 6.32557 34.5446 6.32557 33.5649Z" fill="#C1D7F0"/>
<path d="M6.47268 34.1612C6.47268 32.6917 6.47268 31.2435 6.47268 29.7739C6.28961 30.0326 6.21414 30.3539 6.26253 30.6684V33.5649C6.26253 34.5446 6.26253 34.5446 5.31685 34.5659C5.0038 34.5252 4.68739 34.6092 4.4342 34.8001C4.91755 34.8001 5.37989 34.8001 5.84223 34.8001C6.30456 34.8001 6.4937 34.6723 6.47268 34.1612Z" fill="#C1D7F0"/>
<path d="M6.32557 57.5459C6.32557 56.6727 6.32558 56.6514 5.44294 56.6088C5.08568 56.6088 4.72842 56.6088 4.4342 56.3958C4.4342 57.3968 4.4342 58.3765 4.4342 59.3775C4.4342 60.0377 4.13999 60.9535 4.5603 61.3155C4.9806 61.6776 5.88425 61.422 6.66182 61.3155C6.56316 61.1914 6.49155 61.0475 6.45171 60.8934C6.41186 60.7392 6.40469 60.5782 6.43065 60.421L6.32557 57.5459Z" fill="#C1D8F0"/>
<path d="M5.94729 56.3958H4.35014C4.64436 56.6727 5.00161 56.6088 5.35887 56.6088C6.19948 56.6088 6.24151 56.6088 6.24151 57.5459V60.5062C6.21554 60.6634 6.22272 60.8244 6.26257 60.9786C6.30241 61.1327 6.37402 61.2766 6.47267 61.4007C6.47267 59.9099 6.47267 58.4404 6.47267 56.9495C6.47267 56.6088 6.32557 56.3745 5.94729 56.3958Z" fill="#C1D8F0"/>
<path d="M41.1688 45.5341H38.6259C38.8058 45.8382 38.89 46.1905 38.8675 46.5443C38.845 46.8981 38.7168 47.2366 38.4998 47.5148H41.1057C41.2738 47.5148 41.547 47.5148 41.547 47.3444C41.5786 46.7769 41.5786 46.2081 41.547 45.6406C41.547 45.4702 41.3159 45.5341 41.1688 45.5341Z" fill="#776E79"/>
<path d="M38.6259 45.5554C38.7001 46.2179 38.6574 46.8886 38.4998 47.536C38.7168 47.2579 38.845 46.9194 38.8675 46.5656C38.89 46.2118 38.8058 45.8595 38.6259 45.5554V45.5554Z" fill="#776E79"/>
<path d="M26.4161 30.1786H22.0449C20.5739 30.1786 19.1028 30.1786 17.6317 30.1786C17.1023 30.1768 16.5918 30.3777 16.2022 30.741C15.8125 31.1042 15.5726 31.6031 15.5302 32.1379C15.5302 33.863 15.5302 35.5881 15.5302 37.2919C15.5302 37.8568 15.7516 38.3985 16.1457 38.7979C16.5399 39.1973 17.0744 39.4217 17.6317 39.4217C20.5529 39.4217 23.474 39.4217 26.4161 39.4217C26.9735 39.4217 27.508 39.1973 27.9021 38.7979C28.2962 38.3985 28.5176 37.8568 28.5176 37.2919V32.3935C28.5289 32.1067 28.483 31.8206 28.3824 31.5523C28.2819 31.284 28.1289 31.039 27.9326 30.8322C27.7363 30.6253 27.5008 30.4608 27.2402 30.3484C26.9796 30.2361 26.6993 30.1783 26.4161 30.1786ZM26.5842 36.9725C26.5842 37.2493 26.5842 37.3771 26.2059 37.3771H17.7999C17.7778 37.3801 17.7553 37.3786 17.7338 37.3727C17.7122 37.3668 17.6921 37.3566 17.6745 37.3427C17.6569 37.3288 17.6422 37.3116 17.6312 37.2919C17.6203 37.2722 17.6133 37.2505 17.6107 37.228C17.6107 35.6733 17.6107 34.1399 17.6107 32.5852C17.6107 32.2657 17.6107 32.2018 17.989 32.2018H26.2059C26.5422 32.2018 26.6262 32.2018 26.6262 32.6278C26.5842 34.076 26.5702 35.5242 26.5842 36.9725Z" fill="#010101"/>
<path d="M43.4804 30.1786C42.0304 30.1786 40.5803 30.1786 39.1303 30.1786C37.6803 30.1786 36.1672 30.1786 34.6961 30.1786C34.1387 30.1786 33.6042 30.403 33.2101 30.8024C32.816 31.2018 32.5946 31.7435 32.5946 32.3083C32.5946 33.9908 32.5946 35.652 32.5946 37.3345C32.5946 37.8994 32.816 38.4411 33.2101 38.8405C33.6042 39.2399 34.1387 39.4643 34.6961 39.4643C37.6592 39.4643 40.6014 39.4643 43.5435 39.4643C44.1008 39.4643 44.6354 39.2399 45.0295 38.8405C45.4236 38.4411 45.645 37.8994 45.645 37.3345C45.645 35.6946 45.645 34.0334 45.645 32.3935C45.6567 32.1013 45.6089 31.8098 45.5045 31.5371C45.4001 31.2644 45.2414 31.0164 45.0384 30.8086C44.8353 30.6008 44.5922 30.4377 44.3241 30.3293C44.0561 30.2209 43.7689 30.1695 43.4804 30.1786ZM43.6065 36.9512C43.6065 37.2067 43.6065 37.3771 43.2703 37.3771H34.8642C34.8421 37.3801 34.8196 37.3786 34.7981 37.3727C34.7766 37.3668 34.7564 37.3566 34.7388 37.3427C34.7212 37.3288 34.7065 37.3116 34.6956 37.2919C34.6846 37.2722 34.6777 37.2505 34.6751 37.228C34.6751 35.6946 34.6751 34.1612 34.6751 32.6278C34.6751 32.3083 34.6751 32.2018 35.0954 32.2018H40.7064H43.2493C43.5645 32.2018 43.6906 32.2018 43.6696 32.6065C43.5855 34.0547 43.6065 35.5029 43.6065 36.9512V36.9512Z" fill="#010101"/>
<path d="M34.4019 10.1376C33.6453 10.1376 33.4982 9.96724 33.4772 9.15794C33.4562 8.34863 33.4772 7.39024 33.4772 6.49575C33.4772 4.91973 32.8257 4.366 31.2496 4.366H29.7155C29.4622 4.33443 29.2051 4.35958 28.9624 4.43968C28.7198 4.51979 28.4974 4.65288 28.311 4.82957C28.1246 5.00627 27.9788 5.22226 27.8838 5.46231C27.7888 5.70236 27.7469 5.96062 27.7611 6.21887C27.7611 6.7939 27.7611 7.39025 27.7611 7.96528C27.7611 8.54031 27.7611 8.88107 27.7611 9.32832C27.7611 9.77557 27.5719 10.1802 26.9205 10.2015H24.3986C24.0426 10.1596 23.6829 10.1596 23.3269 10.2015C22.9481 10.2664 22.6039 10.4639 22.3542 10.7598C22.1046 11.0556 21.9654 11.4309 21.9609 11.8201C21.9609 12.5442 21.9609 13.2542 21.9609 13.9499C21.9375 14.1885 21.9635 14.4295 22.0372 14.6574C22.1108 14.8853 22.2306 15.0952 22.3888 15.2735C22.547 15.4519 22.7402 15.5949 22.956 15.6933C23.1718 15.7918 23.4054 15.8436 23.6421 15.8454C24.2726 15.8454 24.903 15.8454 25.5124 15.8454C26.1219 15.8454 26.3741 15.8454 26.7944 15.8454C27.5509 15.8454 27.698 16.0157 27.719 16.7611C27.7401 17.5066 27.719 18.4011 27.719 19.2104C27.6877 19.529 27.6877 19.8501 27.719 20.1687C27.7663 20.5884 27.9676 20.9747 28.283 21.2509C28.5983 21.5271 29.0047 21.673 29.4213 21.6596C30.1148 21.6596 30.8083 21.6596 31.5228 21.6596C31.7587 21.6769 31.9957 21.6455 32.2193 21.5672C32.4428 21.4888 32.6484 21.3652 32.8233 21.2039C32.9983 21.0425 33.139 20.8467 33.237 20.6285C33.3349 20.4103 33.3881 20.1742 33.3931 19.9345C33.4248 19.3031 33.4248 18.6704 33.3931 18.039C33.3931 17.5917 33.3931 17.1445 33.3931 16.676C33.3931 16.2074 33.5823 15.8453 34.2337 15.8241C35.3055 15.8241 36.3353 15.8241 37.4491 15.8241C37.5429 15.8175 37.6358 15.8465 37.7096 15.9056C37.7835 15.9647 37.8329 16.0495 37.8484 16.1435C37.9393 16.0283 38.0646 15.9461 38.2056 15.9092C38.5308 15.8046 38.8143 15.5973 39.0148 15.3175C39.2152 15.0377 39.322 14.7003 39.3194 14.3545C39.3614 13.5458 39.3614 12.7353 39.3194 11.9266C39.3253 11.5801 39.2199 11.241 39.019 10.9606C38.818 10.6801 38.5326 10.4735 38.2056 10.3719C38.0683 10.327 37.945 10.2462 37.8484 10.1376C37.7788 10.15 37.7077 10.15 37.6382 10.1376C36.5034 10.1589 35.4526 10.1589 34.4019 10.1376ZM35.915 14.0138H33.2881C32.0902 14.0138 31.6068 14.5249 31.6068 15.7602C31.6068 16.9954 31.6068 18.2094 31.6068 19.4233C31.6068 19.8067 31.6069 19.9345 31.1445 19.9345C29.5894 19.9345 29.5894 19.9345 29.5894 18.4223C29.5894 17.4853 29.5894 16.5695 29.5894 15.6324C29.5894 14.6953 29.064 14.0138 27.9712 14.0138C26.8784 14.0138 25.5124 14.0138 24.2725 14.0138C23.8733 14.0138 23.7472 14.0138 23.7472 13.4813C23.7472 11.9692 23.7472 11.9692 25.2182 11.9692H27.698C29.1271 11.9692 29.5894 11.4794 29.5894 10.0524C29.5894 8.62549 29.5894 7.7097 29.5894 6.53834C29.5894 6.15498 29.5894 6.0272 30.0517 6.0272C31.5858 6.0272 31.5858 6.0272 31.5858 7.53932V10.2015C31.5858 11.4581 32.1112 11.9479 33.3511 11.9692H36.9867C37.302 11.9692 37.4281 11.9692 37.4491 12.3951C37.4911 14.0138 37.5121 14.0138 35.915 14.0138Z" fill="#010101"/>
<path d="M37.5331 15.9944C36.4614 15.9944 35.4316 15.9944 34.3178 15.9944C33.6663 15.9944 33.5192 16.1861 33.4772 16.8463C33.4352 17.5066 33.4772 17.7621 33.4772 18.2094C33.5089 18.8408 33.5089 19.4734 33.4772 20.1049C33.4721 20.3445 33.419 20.5807 33.321 20.7989C33.2231 21.0171 33.0823 21.2129 32.9074 21.3742C32.7324 21.5356 32.5269 21.6592 32.3033 21.7376C32.0798 21.8159 31.8428 21.8473 31.6069 21.8299C30.9134 21.8299 30.2199 21.8299 29.5053 21.8299C29.0887 21.8434 28.6824 21.6975 28.367 21.4213C28.0517 21.1451 27.8504 20.7588 27.8031 20.3391C27.7718 20.0205 27.7718 19.6994 27.8031 19.3807C27.8031 18.5714 27.8031 17.7621 27.8031 16.9315C27.8031 16.1009 27.635 16.037 26.8784 16.0157C26.4581 16.0157 26.0378 16.0157 25.5965 16.0157C25.1552 16.0157 24.3566 16.0157 23.7262 16.0157C23.4895 16.0139 23.2558 15.9622 23.04 15.8637C22.8242 15.7653 22.6311 15.6223 22.4729 15.4439C22.3147 15.2655 22.1949 15.0557 22.1212 14.8278C22.0475 14.5999 22.0216 14.3589 22.0449 14.1203C22.0449 13.3961 22.0449 12.6862 22.0449 11.9905C22.0494 11.6013 22.1886 11.226 22.4383 10.9301C22.688 10.6343 23.0322 10.4367 23.4109 10.3719C23.767 10.33 24.1266 10.33 24.4827 10.3719H26.9625C27.614 10.3719 27.7611 10.1802 27.8031 9.49869C27.8451 8.81717 27.8031 8.60419 27.8031 8.13565C27.8031 7.6671 27.8031 6.96428 27.8031 6.38925C27.7889 6.13101 27.8308 5.87275 27.9258 5.6327C28.0208 5.39264 28.1667 5.17665 28.3531 4.99995C28.5394 4.82326 28.7618 4.69017 29.0045 4.61007C29.2471 4.52997 29.5042 4.50482 29.7575 4.53638H31.2916C32.8678 4.53638 33.3931 5.15401 33.5192 6.66613C33.5192 7.56063 33.5192 8.43382 33.5192 9.32832C33.5192 10.2228 33.6874 10.2867 34.4439 10.308C35.2005 10.3293 36.5454 10.308 37.5962 10.308C37.6657 10.3203 37.7368 10.3203 37.8063 10.308C37.8063 10.308 37.8063 10.308 37.8063 10.308C36.6715 10.308 35.5367 10.308 34.4019 10.308C33.8975 10.308 33.7294 10.1802 33.7504 9.66907C33.7504 8.5758 33.7504 7.48963 33.7504 6.41055C33.7761 6.1299 33.7383 5.847 33.6398 5.5834C33.5413 5.3198 33.3848 5.08245 33.1821 4.8894C32.9795 4.69635 32.736 4.55269 32.4704 4.46937C32.2047 4.38605 31.9237 4.36526 31.6489 4.40858H29.7155C29.4305 4.37001 29.1406 4.39853 28.8683 4.49192C28.596 4.58531 28.3486 4.74107 28.1453 4.94708C27.942 5.1531 27.7884 5.40383 27.6962 5.6798C27.604 5.95577 27.5759 6.24955 27.614 6.53833C27.614 7.57481 27.614 8.61839 27.614 9.66907C27.614 10.1589 27.5089 10.3506 27.0045 10.3293C25.9328 10.3293 24.903 10.3293 23.7892 10.3293C23.5132 10.3074 23.2359 10.3486 22.9778 10.4498C22.7196 10.5511 22.4872 10.7097 22.2976 10.9141C22.108 11.1185 21.9661 11.3635 21.8824 11.6308C21.7986 11.8982 21.7752 12.1812 21.8138 12.459V14.0138C21.7757 14.3025 21.8038 14.5963 21.896 14.8723C21.9882 15.1483 22.1418 15.399 22.3451 15.605C22.5484 15.811 22.7958 15.9668 23.0681 16.0602C23.3404 16.1536 23.6303 16.1821 23.9153 16.1435C24.938 16.1435 25.9678 16.1435 27.0045 16.1435C27.5089 16.1435 27.656 16.1435 27.635 16.7824C27.635 17.826 27.635 18.9122 27.635 19.9558C27.5924 20.2454 27.6174 20.5411 27.708 20.8192C27.7986 21.0973 27.9522 21.35 28.1565 21.557C28.3608 21.7641 28.6101 21.9197 28.8845 22.0115C29.1589 22.1033 29.4507 22.1286 29.7365 22.0855H31.5438C31.8288 22.1241 32.1187 22.0956 32.391 22.0022C32.6633 21.9088 32.9107 21.7531 33.114 21.547C33.3173 21.341 33.471 21.0903 33.5631 20.8143C33.6553 20.5383 33.6834 20.2446 33.6453 19.9558C33.6453 18.8909 33.6453 17.826 33.6453 16.7611C33.6453 16.3139 33.8134 16.1861 34.2338 16.2074H37.7013C37.7412 16.169 37.7934 16.1464 37.8484 16.1435C37.8114 16.0949 37.7635 16.056 37.7087 16.0301C37.6538 16.0041 37.5936 15.9919 37.5331 15.9944V15.9944Z" fill="#010101"/>
<path d="M37.8484 10.0524C37.945 10.161 38.0683 10.2419 38.2056 10.2867C38.5326 10.3883 38.818 10.5949 39.019 10.8754C39.2199 11.1558 39.3253 11.4949 39.3194 11.8414C39.3614 12.6502 39.3614 13.4606 39.3194 14.2693C39.322 14.6151 39.2152 14.9525 39.0148 15.2323C38.8143 15.5121 38.5308 15.7194 38.2056 15.8241C38.052 15.8828 37.925 15.9964 37.8484 16.1435C39.1093 15.7389 39.4245 15.2703 39.4245 13.7795V12.31C39.4245 10.883 39.0883 10.3932 37.8484 10.0098V10.0524Z" fill="#010101"/>
<path d="M37.6802 16.1435H37.8484C37.7943 16.1221 37.7343 16.1221 37.6802 16.1435V16.1435Z" fill="#010101"/>
<path d="M37.8484 10.0524H37.6592C37.6592 10.0524 37.8484 10.0098 37.8484 10.0524Z" fill="#010101"/>
<path d="M26.5842 56.6088C26.3474 56.5947 26.1137 56.6694 25.9277 56.8187C25.7417 56.9679 25.6163 57.1812 25.5755 57.4181C25.5424 57.8291 25.5424 58.2423 25.5755 58.6533C25.5452 59.0645 25.5452 59.4774 25.5755 59.8886C25.6163 60.1254 25.7417 60.3388 25.9277 60.488C26.1137 60.6372 26.3474 60.7119 26.5842 60.6979C26.811 60.7169 27.0365 60.6486 27.2157 60.5064C27.3949 60.3643 27.5146 60.1589 27.5509 59.9312C27.6982 59.0858 27.6982 58.2209 27.5509 57.3755C27.5146 57.1478 27.3949 56.9424 27.2157 56.8003C27.0365 56.6581 26.811 56.5897 26.5842 56.6088V56.6088Z" fill="#030303"/>
<path d="M35.5998 57.2903C35.5555 57.0706 35.4367 56.8735 35.2639 56.7334C35.0911 56.5933 34.8753 56.5191 34.6541 56.5236C34.4173 56.4934 34.1784 56.5593 33.9894 56.7069C33.8005 56.8545 33.6768 57.0719 33.6453 57.3116C33.498 58.157 33.498 59.0219 33.6453 59.8673C33.6817 60.0933 33.8022 60.2967 33.982 60.4353C34.1619 60.574 34.3874 60.6375 34.612 60.6127C34.8403 60.6276 35.0662 60.5581 35.2478 60.4172C35.4294 60.2762 35.5545 60.0732 35.5998 59.846C35.6415 59.4282 35.6415 59.0072 35.5998 58.5894C35.6415 58.1574 35.6415 57.7223 35.5998 57.2903V57.2903Z" fill="#030303"/>
<path d="M23.495 36.5039C23.495 35.077 23.495 33.6501 23.495 32.2444H17.947C17.6738 32.2444 17.5687 32.2444 17.5687 32.6278C17.5687 34.1825 17.5687 35.7159 17.5687 37.2706C19.313 37.2706 21.0572 37.2706 22.7805 37.2706C23.3899 37.2706 23.516 37.0364 23.495 36.5039Z" fill="#C1D8F0"/>
<path d="M26.1639 32.2018H23.495C23.5799 32.3083 23.6423 32.4312 23.6785 32.5631C23.7146 32.695 23.7237 32.833 23.7051 32.9686C23.7051 34.1186 23.7051 35.2687 23.7051 36.44C23.7051 37.2068 23.7051 37.2919 22.8645 37.2919H18.1781C17.968 37.2919 17.7789 37.2919 17.5897 37.2919C17.5923 37.3144 17.5993 37.3361 17.6102 37.3558C17.6212 37.3755 17.6359 37.3928 17.6535 37.4066C17.6711 37.4205 17.6912 37.4307 17.7128 37.4366C17.7343 37.4425 17.7568 37.444 17.7789 37.441H26.1849C26.5002 37.441 26.5632 37.3132 26.5632 37.0364C26.5632 35.6165 26.5632 34.1967 26.5632 32.7769C26.5842 32.3083 26.5002 32.2018 26.1639 32.2018Z" fill="#A2C5E8"/>
<path d="M18.1781 37.2919H22.8645C23.6211 37.2919 23.7051 37.2919 23.7051 36.44C23.7051 35.2687 23.7051 34.1186 23.7051 32.9686C23.7237 32.833 23.7146 32.695 23.6785 32.5631C23.6423 32.4312 23.5799 32.3083 23.495 32.2018C23.495 33.6288 23.495 35.0557 23.495 36.4613C23.495 36.9938 23.3899 37.2281 22.8015 37.2068C21.0782 37.2068 19.334 37.2068 17.5897 37.2068C17.7789 37.441 17.968 37.2919 18.1781 37.2919Z" fill="#A2C5E8"/>
<path d="M40.6644 36.6317C40.6644 35.1622 40.6644 33.6926 40.6644 32.2444H35.0534C34.7171 32.2444 34.6331 32.2444 34.6331 32.6704C34.6331 34.2038 34.6331 35.7372 34.6331 37.2706H40.055C40.5173 37.2493 40.6644 37.1003 40.6644 36.6317Z" fill="#C1D8F0"/>
<path d="M43.1862 32.2018H40.6434C40.7326 32.3019 40.7994 32.4203 40.8393 32.549C40.8792 32.6776 40.8912 32.8135 40.8746 32.9473C40.8746 34.1115 40.8746 35.2829 40.8746 36.4613C40.8746 37.1855 40.8746 37.2706 40.034 37.2706H35.2215C35.0303 37.3341 34.8242 37.3341 34.6331 37.2706C34.6356 37.2931 34.6426 37.3148 34.6536 37.3345C34.6645 37.3542 34.6792 37.3715 34.6968 37.3853C34.7144 37.3992 34.7346 37.4094 34.7561 37.4153C34.7776 37.4212 34.8001 37.4227 34.8222 37.4197H43.2283C43.5435 37.4197 43.5645 37.2494 43.5645 36.9938C43.5645 35.5456 43.5645 34.0973 43.5645 32.7343C43.6276 32.2657 43.5015 32.2018 43.1862 32.2018Z" fill="#A2C4E8"/>
<path d="M35.2215 37.2919H39.9499C40.6854 37.2919 40.7695 37.292 40.7905 36.4826C40.7905 35.3184 40.7905 34.147 40.7905 32.9686C40.8072 32.8348 40.7951 32.6989 40.7552 32.5703C40.7153 32.4416 40.6485 32.3232 40.5593 32.2231C40.5593 33.6714 40.5593 35.1409 40.5593 36.6104C40.5593 37.079 40.4122 37.2281 39.9499 37.2281H34.6331C34.8174 37.3126 35.0236 37.335 35.2215 37.2919V37.2919Z" fill="#A2C4E8"/>
<path d="M36.9867 12.0544H33.3511C32.1112 12.0544 31.6068 11.5433 31.5858 10.2867V7.62451C31.5858 6.06979 31.5858 6.09109 30.0517 6.11239C29.6524 6.11239 29.5894 6.24017 29.5894 6.62352C29.5894 7.79489 29.5894 8.96625 29.5894 10.1376C29.5894 11.309 29.127 12.0331 27.698 12.0544H25.2392C23.7472 12.0544 23.7682 12.0544 23.7682 13.5665C23.7682 14.0138 23.8943 14.099 24.2936 14.099C25.5335 14.099 26.7523 14.099 27.9922 14.099C29.2321 14.099 29.5894 14.6101 29.6104 15.7176C29.6314 16.825 29.6104 17.5704 29.6104 18.5075C29.6104 20.0623 29.6104 20.041 31.1655 20.0197C31.5438 20.0197 31.6279 19.8919 31.6279 19.5085C31.6279 18.2946 31.6279 17.0593 31.6279 15.8454C31.6279 14.6314 32.1112 14.1203 33.3091 14.099H35.936C37.5331 14.099 37.5121 14.099 37.4701 12.5016C37.4281 12.097 37.302 12.0331 36.9867 12.0544Z" fill="white"/>
</g>
<defs>
<clipPath id="clip0_123_7527">
<rect width="65" height="65" fill="white"/>
</clipPath>
</defs>
</svg>
