<svg width="66" height="65" viewBox="0 0 66 65" fill="none" xmlns="http://www.w3.org/2000/svg">
<g clip-path="url(#clip0_186_4061)">
<path d="M9.40376 30.7492C10.1182 26.4798 11.9637 22.4846 14.7447 19.1864C15.3127 18.502 15.9359 17.8654 16.5276 17.2049C17.1035 17.563 17.4349 17.4277 17.5769 16.799C17.6242 16.5762 17.5769 16.3375 17.7031 16.1465C18.3342 15.7964 18.8075 15.2154 19.4702 14.921C19.5336 15.0926 19.5863 15.268 19.628 15.4462C19.6911 15.8043 19.7858 16.1624 20.2039 16.1863C20.622 16.2102 20.7561 15.7884 20.8429 15.4303C20.9849 14.8573 21.1033 14.2764 21.2295 13.6955C21.4741 13.6398 21.6555 13.401 21.9237 13.4169C22.0081 13.6578 22.176 13.8597 22.3963 13.9855C22.6167 14.1113 22.8748 14.1524 23.1229 14.1013C23.5804 14.0616 24.038 14.1013 24.4877 14.1013C24.9374 14.1013 25.2766 14.2605 25.2371 14.8335C25.1541 15.9605 25.1779 17.093 25.3081 18.2156C25.5404 19.667 26.2191 21.0082 27.2483 22.0492C28.2775 23.0903 29.6052 23.7786 31.0435 24.0169C31.4143 24.0964 31.5642 24.2317 31.5563 24.6535C31.5563 26.2451 31.5169 27.8366 31.5563 29.4282C31.5563 29.9693 31.3748 30.0887 30.8857 30.0728C29.9075 30.0728 28.9292 30.0728 27.951 30.0728C27.6433 30.0728 27.312 30.0728 27.312 30.5025C27.312 30.9323 27.6433 30.9323 27.951 30.9323H38.6801C38.9878 30.9323 39.3191 30.9322 39.3349 30.5184C39.3507 30.1046 38.972 30.0728 38.6486 30.0728C37.5599 30.0728 36.4633 30.0728 35.3746 30.0728C34.8539 30.0728 34.6488 29.9534 34.6646 29.3884C34.704 27.8446 34.6646 26.3087 34.6646 24.7649C34.6646 24.2715 34.8066 24.0964 35.2878 24.0169C36.6609 23.7522 37.9247 23.081 38.918 22.0889C39.9114 21.0967 40.5893 19.8287 40.8654 18.4463C41.0282 17.26 41.0653 16.0595 40.9759 14.8653C40.9759 14.2366 41.1731 14.0695 41.7648 14.1172C42.175 14.157 42.5537 14.1172 42.9955 14.1172C43.1396 14.1536 43.2895 14.1603 43.4363 14.1369C43.583 14.1135 43.7236 14.0604 43.8495 13.9809C43.9755 13.9014 44.0842 13.7971 44.1693 13.6742C44.2543 13.5513 44.3139 13.4124 44.3445 13.2657L44.9283 13.4806C45.0703 14.1093 45.2123 14.73 45.3622 15.3587C45.449 15.7407 45.5042 16.2102 45.9933 16.2022C46.4824 16.1943 46.5455 15.7486 46.6086 15.3428C46.65 15.1174 46.7027 14.8943 46.7664 14.6743C47.4133 14.929 47.8551 15.5099 48.4862 15.8043L48.6282 16.6717C48.7939 17.5391 49.0779 17.6585 49.7879 17.1492C50.8676 17.9871 51.8123 18.9884 52.5886 20.1175C54.9512 23.228 56.5368 26.8664 57.2116 30.7253C57.334 31.2139 57.3819 31.7184 57.3536 32.2214C53.8047 31.0769 50.0332 30.8201 46.3641 31.4734C42.6247 32.1578 39.2639 33.5902 36.6842 36.5585C35.5735 37.7784 34.8745 39.3219 34.6874 40.9675C34.5003 42.613 34.8348 44.2761 35.6428 45.718C36.9649 47.9698 38.9624 49.7394 41.3466 50.7713C41.7332 50.9622 42.2381 51.0418 42.5063 51.3363C42.7746 51.6307 42.5063 52.2037 42.4669 52.6493C42.3643 54.3364 42.7588 55.9996 42.6247 57.6787C40.6549 58.447 38.603 58.9812 36.5106 59.2703C32.6154 59.7952 28.652 59.3582 24.961 57.997C24.8585 57.9494 24.7629 57.8879 24.677 57.814C24.8506 57.6548 25.0084 57.4957 25.1819 57.3524C27.7513 55.2581 29.5907 52.391 30.4321 49.1687C31.2736 45.9463 31.0731 42.5372 29.8599 39.4378C28.6467 36.3385 26.4842 33.7108 23.6874 31.9375C20.8906 30.1643 17.6055 29.3381 14.3108 29.5794C12.6315 29.7516 10.9818 30.1449 9.40376 30.7492Z" fill="#A7A9AC"/>
<path d="M42.6168 57.6628C42.7509 55.9837 42.3565 54.3205 42.459 52.6334C42.459 52.1878 42.8219 51.6705 42.4985 51.3204C42.175 50.9702 41.7095 50.9464 41.3388 50.7554C38.9545 49.7235 36.957 47.9539 35.6349 45.7021C34.8269 44.2602 34.4924 42.5971 34.6795 40.9516C34.8666 39.306 35.5656 37.7625 36.6763 36.5426C39.256 33.5743 42.6168 32.1419 46.3562 31.4575C50.0253 30.8042 53.7969 31.061 57.3457 32.2055C59.432 32.9396 61.3562 34.0777 63.01 35.5558C64.9034 37.3782 66.1183 39.5347 65.9921 42.2484C65.8659 44.962 64.4695 47.0231 62.4894 48.7022C61.31 49.7063 59.9781 50.5124 58.5448 51.0896C58.1346 51.2567 57.9847 51.4477 58.0636 51.8854C58.2505 53.1363 58.2158 54.4108 57.961 55.6495C57.819 56.5487 58.0557 57.4638 57.961 58.3949C57.688 60.0193 56.9248 61.5192 55.7755 62.6899C54.6263 63.8605 53.1469 64.645 51.5393 64.9363C49.6009 65.2253 47.6258 64.7641 46.0104 63.6453C44.395 62.5265 43.2588 60.8329 42.8298 58.9042C42.7509 58.4745 42.6878 58.1084 42.6168 57.6628ZM35.5166 41.381C35.4516 42.6528 35.7239 43.9192 36.3055 45.0495C37.6467 47.5961 39.8398 49.116 42.3801 50.246C42.7746 50.4211 42.9402 50.3972 43.1138 49.9516C43.679 48.5336 44.768 47.3924 46.1511 46.7685C47.7931 46.078 49.5646 45.7576 51.3421 45.8294C52.9554 45.8408 54.5654 45.6835 56.1465 45.3599C57.1406 45.1371 57.4246 45.2803 57.1011 46.1557C56.8936 46.7872 56.8384 47.4595 56.9399 48.1169C57.0414 48.7743 57.2968 49.3978 57.6849 49.9357C57.6849 49.9357 57.6849 49.9755 57.6849 49.9994C57.7559 50.3256 57.8979 50.3813 58.2214 50.2381C60.1306 49.4698 61.8392 48.2691 63.2152 46.7287C64.4673 45.3897 65.1554 43.6128 65.1348 41.7723C65.1142 39.9317 64.3864 38.171 63.1047 36.8609C62.0985 35.7324 60.8917 34.8039 59.5467 34.1234C55.5379 32.0733 50.9677 31.424 46.5534 32.2772C43.448 32.703 40.5406 34.0585 38.2068 36.1685C36.6536 37.4808 35.6804 39.3613 35.5008 41.3969L35.5166 41.381ZM57.1958 57.3604C57.2219 56.2561 56.9839 55.1618 56.5019 54.17C56.0199 53.1781 55.3081 52.3181 54.4267 51.6625C54.3404 51.5733 54.225 51.5185 54.1018 51.5082C53.9786 51.498 53.8558 51.533 53.7562 51.6068C52.6415 52.2243 51.3982 52.5678 50.1272 52.6095C48.3678 52.6877 46.6675 53.2732 45.2281 54.2966C44.5182 54.7475 43.9776 55.4242 43.6918 56.2198C43.406 57.0154 43.3914 57.8844 43.6503 58.6894C43.9993 60.3466 44.9412 61.8161 46.2962 62.8171C47.6512 63.8182 49.3243 64.2807 50.996 64.1163C52.6676 63.9519 54.2206 63.1722 55.3585 61.926C56.4963 60.6797 57.1391 59.0544 57.1642 57.3604H57.1958ZM43.3584 54.9253C44.252 53.8709 45.3865 53.0516 46.6639 52.5379C48.0646 52.0557 49.5248 51.7719 51.0029 51.6944C52.2571 51.5318 53.4286 50.9744 54.3507 50.1014C55.2727 49.2285 55.8984 48.0845 56.1387 46.8321C56.2097 46.482 56.2333 46.2751 55.7284 46.3865C54.7448 46.5816 53.7479 46.7013 52.7464 46.7446C51.381 46.7461 50.0168 46.8231 48.6598 46.9754C46.2931 47.3971 44.4549 48.4555 43.6739 50.9066C43.3183 52.2141 43.2112 53.5776 43.3584 54.9253ZM56.2254 49.0603C56.0913 49.2513 56.0124 49.3866 55.9099 49.506C55.5628 49.9596 54.9001 50.437 54.9474 50.8429C54.9947 51.2487 55.689 51.6785 56.0913 52.0923C56.5617 52.6658 56.9914 53.2721 57.3772 53.9067C57.4692 52.1999 57.0691 50.5028 56.2254 49.0205V49.0603Z" fill="#231F20"/>
<path d="M9.40377 30.7493C10.98 30.1511 12.627 29.7632 14.3029 29.5954C17.5976 29.3541 20.8827 30.1803 23.6795 31.9535C26.4763 33.7267 28.6389 36.3544 29.852 39.4538C31.0652 42.5532 31.2657 45.9623 30.4243 49.1846C29.5828 52.4069 27.7434 55.2741 25.174 57.3684C25.0005 57.5117 24.8427 57.6708 24.6691 57.83C23.3426 58.7086 21.9214 59.4321 20.4327 59.9865C18.4192 60.6704 16.2877 60.9288 14.1709 60.7457C12.0541 60.5625 9.99735 59.9417 8.1287 58.922C6.26006 57.9023 4.61953 56.5054 3.30928 54.8184C1.99903 53.1314 1.04711 51.1903 0.512789 49.1161C-0.088296 46.8587 -0.171226 44.4928 0.270324 42.1982C0.711875 39.9036 1.66629 37.7408 3.06097 35.8742C4.5242 33.8517 6.46243 32.2274 8.70165 31.1472C8.96988 31.0517 9.17498 30.8846 9.40377 30.7493ZM15.4784 30.5026L15.3364 30.4548H14.9892C12.97 30.5084 10.9848 30.9912 9.16316 31.8715C7.34154 32.7519 5.72458 34.0101 4.41789 35.5638C2.40554 37.8347 1.18626 40.7082 0.946679 43.7445C0.520668 49.315 2.52451 53.9624 7.05284 57.1774C12.0466 60.7027 17.356 60.854 22.7442 57.9732C22.9001 57.911 23.0324 57.8004 23.1217 57.6573C23.2111 57.5142 23.2529 57.3461 23.2412 57.1774C23.1939 55.3391 23.1702 53.4929 23.1781 51.6547C23.1781 51.0976 23.0282 51.026 22.5075 51.1453C21.0748 51.5251 19.5928 51.6807 18.1133 51.6069C16.6617 51.4955 15.5809 50.461 15.7466 49.2195C15.7998 49.0189 15.7905 48.8067 15.72 48.6116C15.6494 48.4165 15.521 48.2481 15.3521 48.1293C14.8236 47.7155 14.863 47.3335 15.4231 46.9038C15.7466 46.673 16.0937 46.482 16.5197 46.2194L15.8255 45.9329C15.6153 45.8455 15.4122 45.7417 15.218 45.6226C15.0915 45.5663 14.9818 45.4775 14.9001 45.365C14.8183 45.2526 14.7673 45.1204 14.7521 44.9818C14.7369 44.8431 14.7581 44.7029 14.8136 44.5751C14.8691 44.4474 14.9568 44.3366 15.0681 44.2538C15.218 44.1026 15.5257 44.0071 15.3916 43.7206C15.2575 43.4342 14.9892 43.649 14.7762 43.6013C14.7081 43.5933 14.6393 43.5933 14.5711 43.6013C14.2501 43.6344 13.9268 43.5675 13.6447 43.4096C13.3626 43.2517 13.1352 43.0103 12.9933 42.7179C12.8512 42.4152 12.803 42.0762 12.8551 41.7453C12.9072 41.4145 13.0571 41.1072 13.2852 40.8637L14.7605 39.0573C15.048 38.7787 15.2538 38.4256 15.3554 38.0368C15.457 37.6479 15.4504 37.2383 15.3364 36.853C14.9552 35.5994 14.8396 34.279 14.9971 32.9775C15.0839 32.134 15.2811 31.3222 15.4784 30.5026ZM24.1563 57.0262C24.3694 56.8671 24.4877 56.8034 24.5902 56.7159C28.9529 52.9916 30.799 48.2566 29.8365 42.5747C29.2934 39.4187 27.7421 36.5284 25.419 34.3445C23.0959 32.1607 20.1286 30.8031 16.9694 30.4787C16.3462 30.4151 16.1805 30.7572 16.1253 31.2188C15.6918 33.2019 15.746 35.2619 16.283 37.219C16.3803 37.5391 16.3898 37.8797 16.3106 38.2047C16.2315 38.5298 16.0666 38.8271 15.8334 39.0653C15.1944 39.8611 14.5869 40.6568 13.9637 41.4128C13.8554 41.5321 13.7831 41.6801 13.7552 41.8393C13.7272 41.9986 13.7448 42.1626 13.8059 42.3121C13.9479 42.6463 14.2477 42.6781 14.5475 42.6861H15.2338C15.6283 42.6861 16.0227 42.6861 16.1647 43.1954C16.3067 43.7047 16.5671 44.1742 16.0148 44.5721C15.7308 44.779 15.8018 44.9382 16.0937 45.0496L17.3639 45.5509C17.6715 45.6783 17.9713 45.8454 17.9713 46.2194C17.9713 46.5934 17.6479 46.6332 17.4112 46.7685C16.9576 46.9682 16.5265 47.2163 16.1253 47.5086C16.6775 48.1691 16.6775 48.1691 16.6381 49.1559C16.6011 49.4929 16.6933 49.8314 16.8956 50.1022C17.098 50.3729 17.3954 50.5553 17.7268 50.6122C18.2809 50.7512 18.8549 50.7916 19.4229 50.7315C20.7397 50.6281 22.0427 50.3908 23.3122 50.0233C23.9512 49.8323 24.0301 50.0233 24.0301 50.5962C24.0301 52.721 23.9591 54.8139 24.1406 57.0262H24.1563Z" fill="#231F20"/>
<path d="M46.7585 14.6584C46.6948 14.8784 46.6421 15.1015 46.6008 15.3269C46.5376 15.7327 46.4745 16.1784 45.9854 16.1864C45.4963 16.1943 45.4411 15.7248 45.3543 15.3428C45.2044 14.7141 45.0624 14.0934 44.9204 13.4647C44.8929 13.0312 44.7831 12.6071 44.5969 12.2154L44.3366 13.2499C44.306 13.3966 44.2464 13.5355 44.1614 13.6584C44.0763 13.7813 43.9676 13.8856 43.8416 13.9651C43.7157 14.0446 43.5751 14.0976 43.4283 14.121C43.2816 14.1445 43.1317 14.1378 42.9876 14.1014C42.5773 14.0616 42.1986 14.1014 41.7569 14.1014C41.1731 14.0377 40.9679 14.2208 40.9679 14.8494C41.0574 16.0437 41.0204 17.2441 40.8575 18.4305C40.5815 19.8128 39.9035 21.0809 38.9101 22.073C37.9168 23.0651 36.653 23.7363 35.2799 24.001C34.7987 24.0806 34.6488 24.2556 34.6567 24.749C34.6567 26.2929 34.6961 27.8287 34.6567 29.3726C34.6567 29.9376 34.846 30.0729 35.3667 30.0569C36.4554 30.0569 37.552 30.0569 38.6407 30.0569C38.9641 30.0569 39.3349 30.0569 39.327 30.5026C39.3191 30.9482 38.9799 30.9164 38.6722 30.9164H27.9431C27.6354 30.9164 27.312 30.9164 27.3041 30.4867C27.2962 30.0569 27.6354 30.0569 27.9431 30.0569C28.9213 30.0569 29.8996 30.0569 30.8778 30.0569C31.3669 30.0569 31.5563 29.9535 31.5484 29.4124C31.5089 27.8208 31.5484 26.2292 31.5484 24.6376C31.5484 24.2159 31.4064 24.0806 31.0356 24.001C29.5973 23.7628 28.2696 23.0744 27.2404 22.0334C26.2112 20.9923 25.5325 19.6512 25.3003 18.1997C25.17 17.0772 25.1462 15.9447 25.2292 14.8176C25.2292 14.2446 25.0478 14.0218 24.4798 14.0855C23.9118 14.1491 23.5725 14.0855 23.115 14.0855C22.8669 14.1365 22.6088 14.0954 22.3884 13.9696C22.1681 13.8438 22.0002 13.6419 21.9158 13.4011L21.4977 12.3188L21.2216 13.6796C21.0954 14.2605 20.977 14.8415 20.835 15.4144C20.7483 15.7725 20.6773 16.2102 20.196 16.1704C19.7148 16.1306 19.6832 15.7884 19.6201 15.4303C19.5784 15.2521 19.5257 15.0767 19.4623 14.9051C19.3024 13.3742 19.004 11.8612 18.5709 10.385L17.6952 16.1306C17.5453 16.3216 17.6163 16.5604 17.569 16.7832C17.4269 17.4119 17.0956 17.579 16.5197 17.189C16.2752 15.9476 16.0148 14.7141 15.786 13.4727C15.6993 13.0112 15.5336 12.7326 14.9971 12.8122C14.7346 12.8343 14.4707 12.8343 14.2082 12.8122C14.1523 12.8164 14.096 12.8094 14.0428 12.7917C13.9895 12.7739 13.9402 12.7458 13.8977 12.7089C13.8553 12.6719 13.8204 12.6269 13.7952 12.5763C13.7699 12.5258 13.7548 12.4707 13.7506 12.4143C13.7465 12.3579 13.7534 12.3012 13.771 12.2474C13.7886 12.1937 13.8165 12.144 13.8531 12.1011C13.8897 12.0583 13.9344 12.0231 13.9845 11.9977C14.0346 11.9722 14.0892 11.9569 14.1451 11.9528C14.7599 11.9169 15.3763 11.9169 15.9911 11.9528C16.3067 11.9528 16.3777 12.287 16.4329 12.5655C16.5828 13.2976 16.7248 14.0298 16.9142 14.9529C17.3165 12.5098 17.7031 10.2736 18.0581 8.03746C18.1054 7.70323 18.1527 7.36902 18.5788 7.36106C19.0048 7.3531 19.06 7.71916 19.1152 8.02952C19.4623 9.89167 19.8016 11.7618 20.2512 13.6478C20.4406 12.852 20.622 12.0562 20.8035 11.2604C20.8508 11.0535 20.906 10.8546 20.9376 10.6556C20.9397 10.5261 20.9921 10.4027 21.0836 10.3119C21.1751 10.2211 21.2984 10.1702 21.4267 10.1702C21.7028 10.1702 21.8527 10.3532 21.9395 10.6317C22.1841 11.4275 22.4602 12.1278 22.7284 12.8838C22.7284 13.1862 22.9809 13.1544 23.186 13.1544C23.8723 13.1544 24.5587 13.1544 25.2371 13.1544C25.9156 13.1544 26.0655 13.3295 26.026 13.9502C26.026 14.9688 26.026 15.9794 26.026 16.9901C26.0314 18.4872 26.5696 19.9326 27.5426 21.0631C28.5156 22.1936 29.8588 22.934 31.3275 23.1495C32.2542 23.2607 33.1891 23.2847 34.1202 23.2211C35.5584 23.1647 36.9318 22.6034 38.0034 21.6344C39.0751 20.6653 39.7776 19.3491 39.9897 17.9132C40.1203 16.5911 40.1493 15.2608 40.0765 13.9343C40.0765 13.3533 40.2816 13.1385 40.8654 13.1783C41.4492 13.2181 42.1829 13.1783 42.8456 13.1783C43.24 13.1783 43.4451 13.0589 43.4925 12.6769C43.7212 12.0005 43.9579 11.332 44.1788 10.6556C44.2656 10.385 44.4155 10.1781 44.6916 10.1861C44.9677 10.1941 45.1413 10.4248 45.2044 10.7272C45.3928 11.6911 45.6566 12.6384 45.9933 13.5602C46.2694 12.0323 46.5534 10.5124 46.8295 8.98445C46.8926 8.62635 46.9321 8.2603 47.0189 7.91016C47.1057 7.56001 47.1688 7.3531 47.5317 7.36106C47.8946 7.36902 48.0129 7.64755 48.0602 7.9579L48.8886 13.0589C48.9754 13.6239 49.0779 14.181 49.212 14.937C49.4014 14.0059 49.5749 13.2658 49.7012 12.5496C49.7722 12.1278 49.9615 11.9448 50.3796 11.9528H51.8154C52.1389 11.9528 52.3677 12.088 52.3755 12.4064C52.3834 12.7247 52.1468 12.8042 51.8628 12.8361C51.4131 12.8918 50.8293 12.5735 50.5374 13.0271C50.3567 13.4503 50.255 13.9035 50.2376 14.364C50.0033 15.2701 49.8398 16.1934 49.7485 17.1254C49.0385 17.6347 48.7545 17.5153 48.5888 16.6479L48.4468 15.7805C48.1523 14.0032 47.8656 12.2313 47.5869 10.4646H47.4133L46.7585 14.6584ZM33.7337 27.1603C33.7337 26.3645 33.7337 25.4971 33.7337 24.6695C33.7337 24.3034 33.568 24.1999 33.2919 24.2795C33.0158 24.3591 32.4477 23.9771 32.432 24.6058C32.432 26.2849 32.432 27.964 32.432 29.6431C32.432 30.2559 32.9842 29.9137 33.284 29.9853C33.5838 30.0569 33.7258 29.9296 33.71 29.5715C33.71 28.7678 33.7337 27.964 33.7337 27.1603Z" fill="#231F20"/>
<path d="M26.8386 11.348C26.8386 9.57336 26.8386 7.80672 26.8386 6.03211C26.8425 4.54669 27.3909 3.1152 28.3785 2.01329C29.366 0.911379 30.7227 0.21695 32.1874 0.0636974C35.5245 -0.35807 38.2384 1.34492 39.1062 4.39279C39.2886 5.15025 39.3656 5.92965 39.3349 6.70854C39.3349 8.22849 39.3349 9.74845 39.3349 11.2604C39.3349 13.1491 39.3349 15.0351 39.3349 16.9185C39.3396 17.7494 39.16 18.5709 38.8092 19.3227C38.4584 20.0745 37.9453 20.7377 37.3074 21.2635C35.9032 22.4652 34.2149 22.6163 32.4793 22.5686C31.7134 22.5695 30.9552 22.4134 30.2509 22.1099C29.5465 21.8064 28.9106 21.3617 28.3817 20.8029C27.8528 20.2441 27.4419 19.5827 27.1739 18.8589C26.906 18.1351 26.7865 17.364 26.8229 16.5922C26.9254 14.8494 26.8465 13.0907 26.8386 11.348ZM28.2192 3.81982H30.507C30.8305 3.81982 31.0593 3.94714 31.0514 4.28933C31.0435 4.63152 30.7989 4.71111 30.5307 4.71906H28.8188C27.7932 4.71906 27.7301 4.80659 27.7064 5.8252C27.7064 6.22309 27.8248 6.33452 28.2034 6.31861C28.8819 6.31861 29.5683 6.31861 30.2546 6.31861C30.5623 6.31861 30.8936 6.31861 30.9094 6.74037C30.9252 7.16214 30.5702 7.20987 30.2388 7.21783C29.5525 7.21783 28.8661 7.21783 28.1877 7.21783C27.5092 7.21783 27.7064 7.54411 27.7143 7.87835C27.7222 8.21258 27.5802 8.58659 28.1719 8.53884C28.7636 8.49109 29.5367 8.53884 30.2231 8.53884C30.5623 8.53884 30.9173 8.53885 30.9094 8.99244C30.9015 9.44604 30.5149 9.41421 30.1915 9.41421C29.513 9.41421 28.8267 9.41421 28.1403 9.41421C27.454 9.41421 27.738 9.82803 27.7222 10.1225C27.7064 10.4169 27.6118 10.7511 28.1482 10.7432C31.4564 10.7432 34.7593 10.7432 38.0569 10.7432C38.4987 10.7432 38.5224 10.5363 38.5145 10.202C38.5145 8.86511 38.5145 7.52819 38.5145 6.22309C38.5143 5.43054 38.3384 4.64808 37.9997 3.93294C37.661 3.21781 37.1681 2.5881 36.557 2.08994C35.9459 1.59177 35.2322 1.23775 34.4679 1.05377C33.7037 0.869787 32.9083 0.860491 32.1401 1.02659C31.3188 1.16005 30.5385 1.48111 29.859 1.96521C29.1794 2.44931 28.6186 3.08366 28.2192 3.81982ZM33.1578 13.7513C31.4932 13.7513 29.8365 13.7513 28.1719 13.7513C27.8248 13.7513 27.6985 13.8308 27.7064 14.2048C27.7064 15.12 27.7064 16.0431 27.7064 16.9662C27.7225 17.9935 28.0666 18.9882 28.6877 19.8025C29.3088 20.6168 30.1737 21.2073 31.154 21.4863C32.1374 21.6888 33.1459 21.7371 34.1439 21.6296C35.1619 21.5561 36.1281 21.1484 36.8946 20.4686C37.661 19.7888 38.1857 18.8745 38.3882 17.8655C38.6091 16.6957 38.3882 15.5179 38.5302 14.364C38.5934 13.7672 38.3882 13.7433 37.9307 13.7433C36.345 13.7672 34.7514 13.7513 33.1578 13.7513ZM33.1183 11.539C31.5011 11.539 29.8838 11.539 28.2744 11.539C27.7459 11.539 27.667 11.7459 27.7064 12.1836C27.7459 12.6212 27.6118 12.9794 28.2508 12.9316C31.4853 12.8998 34.7172 12.8998 37.9465 12.9316C38.5539 12.9316 38.5145 12.6212 38.5223 12.2074C38.5302 11.7936 38.5224 11.5231 37.9622 11.531C36.345 11.5628 34.7277 11.539 33.1183 11.539Z" fill="#231F20"/>
<path d="M26.8386 11.3479C26.8386 13.0907 26.9254 14.8494 26.8386 16.5921C26.8023 17.3639 26.9217 18.1351 27.1897 18.8589C27.4577 19.5827 27.8686 20.244 28.3975 20.8028C28.9264 21.3617 29.5623 21.8063 30.2667 22.1098C30.971 22.4133 31.7292 22.5694 32.4951 22.5685C34.2307 22.6163 35.919 22.4651 37.3232 21.2634C37.961 20.7376 38.4742 20.0745 38.825 19.3226C39.1758 18.5708 39.3554 17.7493 39.3507 16.9184C39.3507 15.0297 39.3507 13.1437 39.3507 11.2604C40.7794 11.6419 42.175 12.1395 43.524 12.7485C43.4767 13.1305 43.2716 13.2737 42.8771 13.2498C42.2144 13.2498 41.5518 13.2498 40.897 13.2498C40.2422 13.2498 40.1081 13.4249 40.1081 14.0058C40.1809 15.3324 40.1518 16.6627 40.0213 17.9848C39.8091 19.4207 39.1066 20.7368 38.035 21.7059C36.9634 22.675 35.5899 23.2362 34.1518 23.2927C33.2207 23.3562 32.2858 23.3323 31.3591 23.2211C29.8903 23.0056 28.5472 22.2652 27.5742 21.1347C26.6011 20.0042 26.063 18.5588 26.0576 17.0617C26.0576 16.051 26.0576 15.0404 26.0576 14.0218C26.0576 13.409 25.8288 13.226 25.2687 13.226C24.7086 13.226 23.9039 13.226 23.2175 13.226C23.0124 13.226 22.7915 13.226 22.76 12.9554C24.0535 12.2627 25.4222 11.7233 26.8386 11.3479Z" fill="#A7A9AC"/>
<path d="M35.5008 41.3969C35.6924 39.3824 36.6615 37.5246 38.1989 36.2243C40.5326 34.1143 43.4401 32.7588 46.5455 32.3329C50.9598 31.4797 55.53 32.1291 59.5388 34.1791C60.8838 34.8596 62.0906 35.7881 63.0968 36.9166C64.3785 38.2268 65.1063 39.9875 65.1269 41.828C65.1475 43.6686 64.4593 45.4454 63.2073 46.7844C61.8313 48.3248 60.1227 49.5255 58.2135 50.2938C57.89 50.4371 57.748 50.3814 57.677 50.0551C57.677 50.0551 57.677 50.0073 57.677 49.9914C57.2825 49.4489 57.0235 48.8185 56.9219 48.1536C56.8203 47.4886 56.879 46.8088 57.0932 46.1716C57.4167 45.2645 57.0932 45.1212 56.1387 45.3759C54.5576 45.6994 52.9475 45.8568 51.3342 45.8454C49.5567 45.7735 47.7851 46.094 46.1432 46.7844C44.7601 47.4083 43.6711 48.5496 43.1059 49.9676C42.9323 50.4132 42.7667 50.4371 42.3722 50.262C39.8319 49.132 37.6388 47.612 36.2976 45.0655C35.7133 43.9359 35.4382 42.6695 35.5008 41.3969ZM38.5776 43.7445C38.9244 43.7313 39.2556 43.5959 39.5136 43.3618C39.7716 43.1277 39.9401 42.8097 39.9897 42.4633C40.0209 42.1297 39.9332 41.7959 39.7423 41.5217C39.5515 41.2475 39.27 41.0509 38.9484 40.9672C38.6959 40.8876 38.3803 40.8717 38.3567 40.4977C38.349 40.4175 38.3652 40.3369 38.4031 40.266C38.4411 40.1952 38.499 40.1373 38.5697 40.0998C38.8458 39.9486 38.9878 40.1635 39.1613 40.3067C39.1998 40.3494 39.2467 40.3836 39.299 40.4069C39.3513 40.4303 39.4079 40.4424 39.4651 40.4424C39.5223 40.4424 39.5789 40.4303 39.6312 40.4069C39.6835 40.3836 39.7304 40.3494 39.7688 40.3067C39.9818 40.0918 39.9187 39.861 39.7688 39.6303C39.6278 39.4632 39.4474 39.3346 39.2441 39.2565C39.0408 39.1784 38.8213 39.1532 38.6058 39.1834C38.3903 39.2135 38.1858 39.298 38.0113 39.429C37.8368 39.5599 37.6978 39.7332 37.6072 39.9327C37.2601 40.7285 37.6546 41.4447 38.6091 41.755C38.8537 41.8346 39.0983 41.8983 39.1298 42.2086C39.1479 42.3005 39.1398 42.3957 39.1062 42.4831C39.0727 42.5705 39.0152 42.6464 38.9405 42.702C38.8258 42.7787 38.6883 42.8127 38.5515 42.7981C38.4148 42.7836 38.2873 42.7215 38.191 42.6224C38.1487 42.5743 38.0958 42.5368 38.0365 42.5129C37.9773 42.4891 37.9133 42.4794 37.8498 42.4848C37.7862 42.4902 37.7248 42.5105 37.6703 42.5441C37.6159 42.5776 37.57 42.6235 37.5362 42.6781C37.3548 42.9328 37.481 43.1476 37.694 43.3307C37.9522 43.5336 38.2554 43.6701 38.5776 43.7286V43.7445ZM47.4528 39.1846C47.1557 39.1858 46.8681 39.2901 46.6383 39.4799C46.4084 39.6697 46.2503 39.9336 46.1905 40.2271C46.133 40.5235 46.1805 40.8309 46.3247 41.0956C46.4688 41.3603 46.7006 41.5655 46.9794 41.6754C47.1688 41.755 47.3818 41.7709 47.5632 41.8664C47.6213 41.8912 47.6737 41.9277 47.7171 41.9738C47.7605 42.0199 47.7939 42.0746 47.8154 42.1343C47.8369 42.1941 47.8459 42.2577 47.8419 42.3212C47.8379 42.3846 47.8209 42.4466 47.792 42.5031C47.7717 42.5638 47.7395 42.6198 47.6973 42.6678C47.6551 42.7157 47.6037 42.7546 47.5463 42.782C47.4889 42.8095 47.4266 42.825 47.363 42.8277C47.2995 42.8304 47.2361 42.8201 47.1767 42.7975C47.0511 42.7452 46.932 42.6785 46.8217 42.5986C46.7787 42.5596 46.7277 42.5307 46.6724 42.5138C46.6171 42.4969 46.5587 42.4924 46.5015 42.5008C46.4444 42.5091 46.3897 42.5301 46.3414 42.5621C46.2931 42.5941 46.2524 42.6364 46.2221 42.6861C46.1571 42.7838 46.1323 42.9032 46.1529 43.019C46.1735 43.1348 46.2379 43.238 46.3325 43.3068C46.5013 43.4758 46.7108 43.5977 46.9404 43.6605C47.17 43.7233 47.4118 43.7248 47.6421 43.6649C47.8981 43.6075 48.1314 43.4748 48.3126 43.2835C48.4937 43.0923 48.6146 42.8511 48.6598 42.5906C48.8176 41.7948 48.4547 41.2457 47.5238 40.9274C47.295 40.8558 47.0741 40.7842 47.0426 40.5136C47.036 40.4204 47.0603 40.3275 47.1117 40.2497C47.1631 40.172 47.2387 40.1136 47.3265 40.0839C47.5632 39.9645 47.7131 40.1475 47.8551 40.2828C47.9971 40.4181 48.2969 40.5295 48.5099 40.2828C48.7229 40.0361 48.6203 39.8133 48.431 39.6223C48.3119 39.4777 48.1622 39.362 47.993 39.2835C47.8237 39.205 47.6391 39.1658 47.4528 39.1687V39.1846ZM57.1563 42.3678C57.1752 42.0448 57.0767 41.7259 56.8792 41.471C56.6816 41.2161 56.3987 41.0426 56.0834 40.9831C55.8468 40.9035 55.5864 40.8717 55.5154 40.5693C55.4444 40.2669 55.5864 40.2669 55.7126 40.1635C55.9966 39.9406 56.1702 40.1634 56.3517 40.3306C56.3901 40.3733 56.437 40.4074 56.4893 40.4308C56.5416 40.4542 56.5982 40.4662 56.6554 40.4662C56.7126 40.4662 56.7692 40.4542 56.8215 40.4308C56.8738 40.4074 56.9206 40.3733 56.9591 40.3306C57.1879 40.0998 57.109 39.869 56.9197 39.6621C56.7662 39.4592 56.5533 39.3101 56.3113 39.2358C56.0692 39.1616 55.8101 39.1659 55.5706 39.2483C55.3263 39.3132 55.1078 39.4528 54.9454 39.6481C54.7829 39.8433 54.6844 40.0845 54.6634 40.3385C54.6267 40.648 54.7024 40.9603 54.8764 41.2178C55.0505 41.4753 55.3111 41.6605 55.6101 41.7391C55.8783 41.8346 56.2175 41.8426 56.2964 42.2166C56.3173 42.307 56.312 42.4015 56.2812 42.4889C56.2505 42.5763 56.1955 42.6531 56.1229 42.71C56.0272 42.7924 55.9055 42.8376 55.7797 42.8376C55.6539 42.8376 55.5322 42.7924 55.4365 42.71C55.1762 42.519 54.8843 42.3757 54.6476 42.71C54.4109 43.0442 54.7107 43.267 54.9632 43.4421C55.1675 43.5869 55.4071 43.6727 55.6562 43.6903C55.9053 43.7079 56.1544 43.6567 56.3768 43.5421C56.5991 43.4275 56.7863 43.2539 56.9181 43.0399C57.0499 42.826 57.1214 42.5799 57.1248 42.328L57.1563 42.3678ZM58.7815 41.938V43.1079C58.7815 43.4182 58.8683 43.6808 59.2075 43.6968C59.5467 43.7127 59.6493 43.4182 59.6572 43.1238C59.6572 42.4633 59.6572 41.7948 59.6572 41.1264C59.6572 40.6409 59.602 40.1953 60.3277 40.3306C60.3912 40.3428 60.4566 40.3396 60.5184 40.321C60.5803 40.3024 60.6368 40.2691 60.6832 40.2238C60.7297 40.1785 60.7646 40.1227 60.7851 40.0609C60.8056 39.9992 60.8111 39.9333 60.8011 39.869C60.8011 39.5905 60.5881 39.487 60.3277 39.487H58.1425C57.8506 39.487 57.6533 39.5825 57.6612 39.9168C57.6691 40.251 57.8506 40.3783 58.0951 40.3306C58.8051 40.1953 58.8209 40.6091 58.7815 41.1264C58.7657 41.3412 58.7815 41.6197 58.7815 41.8983V41.938ZM50.2928 41.938V43.1795C50.2928 43.4978 50.4191 43.7365 50.7662 43.7286C51.1133 43.7206 51.1449 43.458 51.1449 43.1795C51.1449 42.5349 51.1449 41.8903 51.1449 41.2457C51.1449 40.6011 51.0818 40.2191 51.8707 40.3465C52.1231 40.3942 52.3046 40.1953 52.3124 39.9247C52.3203 39.6541 52.1468 39.5189 51.8707 39.5189H49.6144C49.354 39.5189 49.1726 39.6144 49.1647 39.9088C49.1568 40.2032 49.3225 40.3942 49.5749 40.3465C50.3638 40.2191 50.3165 40.7285 50.2928 41.2457C50.285 41.3969 50.2928 41.6357 50.2928 41.8664V41.938ZM41.6149 41.9858V43.1636C41.6149 43.4739 41.6938 43.7365 42.0567 43.7206C42.4195 43.7047 42.4827 43.4421 42.4748 43.1317C42.4748 42.4394 42.4748 41.755 42.4748 41.0627C42.4748 40.5932 42.4748 40.2669 43.1059 40.3544C43.1682 40.3718 43.2338 40.3735 43.2969 40.3593C43.36 40.3451 43.4187 40.3155 43.4678 40.2731C43.5169 40.2306 43.5549 40.1767 43.5785 40.1159C43.602 40.0552 43.6104 39.9895 43.6029 39.9247C43.6029 39.5905 43.382 39.5109 43.098 39.5109H40.9759C40.6918 39.5109 40.4552 39.5984 40.4473 39.9088C40.4407 39.9739 40.4496 40.0397 40.4732 40.1007C40.4968 40.1617 40.5344 40.2162 40.5829 40.2597C40.6314 40.3033 40.6895 40.3345 40.7523 40.351C40.8151 40.3674 40.8809 40.3686 40.9443 40.3544C41.6622 40.2271 41.6543 40.6648 41.6228 41.1502C41.607 41.3969 41.6149 41.6436 41.6149 41.9142V41.9858ZM53.0146 41.2935C52.8804 41.2935 52.7463 41.2935 52.6043 41.2935C52.3124 41.2935 52.0206 41.2935 52.0206 41.6914C52.0206 42.0893 52.3124 42.1609 52.6438 42.1529H53.3932C53.7167 42.1529 54.0323 42.0972 54.0481 41.7232C54.0638 41.3492 53.7483 41.2855 53.4248 41.2935C53.2907 41.2298 53.1487 41.2218 53.0146 41.2218V41.2935ZM44.5259 41.2935C44.4155 41.2935 44.2972 41.2935 44.1867 41.2935C43.879 41.2935 43.5398 41.2935 43.5319 41.6993C43.524 42.1052 43.8317 42.1609 44.163 42.1529H45.0466C45.3385 42.1529 45.5436 42.0176 45.5594 41.7232C45.5752 41.4288 45.3701 41.2855 45.0703 41.2935C44.7705 41.3014 44.7074 41.2218 44.5259 41.2218V41.2935ZM63.0416 42.9885C63.0889 43.2352 63.223 43.4341 63.4755 43.4341C63.5332 43.4321 63.5899 43.4185 63.6423 43.3941C63.6947 43.3697 63.7418 43.335 63.7807 43.292C63.8196 43.249 63.8497 43.1986 63.869 43.1438C63.8884 43.0889 63.8968 43.0307 63.8936 42.9726C63.8936 42.9207 63.8834 42.8693 63.8634 42.8215C63.8435 42.7737 63.8143 42.7303 63.7776 42.694C63.7409 42.6577 63.6973 42.6291 63.6495 42.61C63.6017 42.5909 63.5506 42.5816 63.4992 42.5826C63.223 42.5747 63.0968 42.7498 63.0416 42.9885ZM62.7339 43.0362C62.7339 42.8055 62.6156 42.6145 62.3395 42.5826C62.2894 42.5724 62.2378 42.5729 62.1879 42.5841C62.138 42.5953 62.0911 42.617 62.0501 42.6478C62.0092 42.6786 61.9751 42.7178 61.9502 42.7628C61.9253 42.8078 61.9101 42.8576 61.9056 42.9089C61.8891 42.9644 61.8846 43.0228 61.8924 43.0802C61.9002 43.1376 61.9201 43.1927 61.9507 43.2417C61.9814 43.2907 62.0221 43.3325 62.0701 43.3643C62.1181 43.3962 62.1723 43.4172 62.229 43.4262C62.4894 43.4898 62.6156 43.2909 62.7339 43.0442V43.0362ZM61.093 42.5826C60.8327 42.5826 60.667 42.7498 60.6906 43.0203C60.6901 43.0787 60.702 43.1364 60.7256 43.1897C60.7492 43.2429 60.7839 43.2904 60.8273 43.329C60.8707 43.3675 60.9219 43.3961 60.9772 43.4129C61.0326 43.4296 61.0909 43.4342 61.1482 43.4262C61.2515 43.418 61.3474 43.3692 61.4153 43.2903C61.4832 43.2114 61.5176 43.1087 61.5111 43.0044C61.5111 42.7338 61.3612 42.6065 61.093 42.5906V42.5826Z" fill="#FACB62"/>
<path d="M57.18 57.3604C57.1388 59.0424 56.4891 60.6511 55.3532 61.8832C54.2174 63.1154 52.6739 63.8858 51.0138 64.0492C49.3537 64.2127 47.6917 63.7578 46.3411 62.7705C44.9905 61.7832 44.0446 60.3316 43.6818 58.6894C43.423 57.8844 43.4376 57.0154 43.7233 56.2198C44.0091 55.4242 44.5497 54.7474 45.2596 54.2966C46.6991 53.2731 48.3993 52.6876 50.1587 52.6095C51.4297 52.5678 52.673 52.2242 53.7877 51.6068C53.8874 51.533 54.0101 51.498 54.1333 51.5082C54.2565 51.5185 54.3719 51.5733 54.4583 51.6625C55.3309 52.3232 56.0336 53.1855 56.5072 54.177C56.9808 55.1685 57.2115 56.2602 57.18 57.3604ZM50.2297 59.8194C49.5613 59.8654 48.9302 60.1471 48.4468 60.6151C48.218 60.8221 48.0839 61.0767 48.2811 61.3393C48.4784 61.6019 48.7387 61.4985 48.9912 61.3393C50.0483 60.5435 50.569 60.5435 51.5945 61.3871C51.8233 61.5621 52.0521 61.6576 52.2651 61.4507C52.4781 61.2438 52.415 60.9494 52.1941 60.7266C51.6839 60.1742 50.9776 59.8481 50.2297 59.8194Z" fill="#FFDDB5"/>
<path d="M43.3583 54.9253C43.2082 53.5698 43.3153 52.1979 43.6739 50.8828C44.4628 48.4317 46.301 47.3733 48.6598 46.9516C50.0168 46.7993 51.381 46.7223 52.7463 46.7208C53.7479 46.6775 54.7448 46.5578 55.7284 46.3627C56.2333 46.2512 56.2097 46.4581 56.1386 46.8083C55.8984 48.0606 55.2727 49.2047 54.3506 50.0776C53.4286 50.9506 52.2571 51.508 51.0029 51.6706C49.5248 51.7481 48.0646 52.0319 46.6639 52.5141C45.3839 53.0346 44.2493 53.8623 43.3583 54.9253ZM50.498 51.1135C51.4092 51.0592 52.2909 50.7675 53.0569 50.2667C53.8229 49.766 54.4471 49.0734 54.8685 48.2566C55.0184 47.9702 55.0894 47.6598 54.7423 47.4608C54.3951 47.2619 54.2532 47.5404 54.1112 47.803C53.7555 48.4984 53.2267 49.0885 52.5766 49.5154C51.9265 49.9423 51.1776 50.1914 50.4033 50.2381C50.0719 50.2779 49.7643 50.3416 49.7958 50.7236C49.8274 51.1056 50.1824 51.1056 50.498 51.0737V51.1135Z" fill="#A7A9AC"/>
<path d="M56.2254 49.0205C57.0617 50.4913 57.4615 52.1735 57.3772 53.8669C56.9914 53.2323 56.5617 52.626 56.0913 52.0525C55.689 51.6387 54.9947 51.2567 54.9474 50.8031C54.9001 50.3495 55.5627 49.9198 55.9099 49.4662C56.0124 49.3548 56.0913 49.2115 56.2254 49.0205Z" fill="#A7A9AC"/>
<path d="M15.4784 30.5026C15.2969 31.2984 15.0839 32.134 14.9813 32.9775C14.8238 34.279 14.9394 35.5994 15.3206 36.853C15.4346 37.2383 15.4412 37.6479 15.3396 38.0368C15.238 38.4256 15.0322 38.7787 14.7447 39.0573L13.2694 40.8637C13.0413 41.1072 12.8914 41.4145 12.8393 41.7453C12.7872 42.0762 12.8354 42.4152 12.9775 42.7179C13.1194 43.0102 13.3468 43.2516 13.6289 43.4096C13.911 43.5675 14.2343 43.6344 14.5553 43.6013C14.6235 43.5933 14.6923 43.5933 14.7605 43.6013C14.9735 43.649 15.2575 43.466 15.3758 43.7206C15.4941 43.9753 15.2022 44.1026 15.0523 44.2538C14.941 44.3366 14.8533 44.4474 14.7978 44.5751C14.7423 44.7029 14.7211 44.8431 14.7363 44.9818C14.7515 45.1204 14.8025 45.2526 14.8843 45.365C14.9661 45.4775 15.0757 45.5663 15.2022 45.6226C15.3964 45.7417 15.5996 45.8455 15.8097 45.9329L16.5039 46.2194C16.0779 46.482 15.715 46.673 15.4074 46.9038C14.8472 47.3017 14.8078 47.6996 15.3364 48.1293C15.5052 48.2481 15.6336 48.4165 15.7042 48.6116C15.7748 48.8067 15.7841 49.0189 15.7308 49.2195C15.5809 50.4689 16.6617 51.5034 18.0975 51.6069C19.5771 51.6807 21.0591 51.5251 22.4918 51.1453C23.0124 51.026 23.1623 51.0976 23.1623 51.6546C23.1623 53.4929 23.1623 55.3391 23.2254 57.1774C23.2372 57.3461 23.1953 57.5142 23.106 57.6573C23.0166 57.8004 22.8843 57.911 22.7284 57.9732C17.3402 60.8539 12.0308 60.7027 7.03704 57.1774C2.47716 53.9942 0.504896 49.3309 0.930906 43.7445C1.17049 40.7082 2.38974 37.8347 4.40209 35.5638C5.70878 34.0101 7.32577 32.7519 9.14738 31.8715C10.969 30.9912 12.9543 30.5084 14.9734 30.4548H15.3206L15.4784 30.5026ZM6.65048 46.8242C6.67604 47.9264 6.92836 49.0112 7.39146 50.0099C7.85455 51.0085 8.51832 51.8992 9.34066 52.6255C9.62467 52.8881 9.96389 53.469 10.3899 52.9756C10.8159 52.4822 10.2164 52.2674 9.94024 52.0048C9.06129 51.2622 8.38322 50.3071 7.96934 49.2286C7.55547 48.1501 7.41929 46.9834 7.57352 45.8374C7.82989 44.3715 8.46378 42.9993 9.41166 41.8585C9.601 41.6197 9.71145 41.3651 9.41166 41.1343C9.11188 40.9035 8.90676 41.0627 8.71742 41.3094C7.4529 42.8724 6.72735 44.8083 6.65048 46.8242ZM8.69375 46.9595C8.67803 47.3467 8.72601 47.734 8.83575 48.1054C9.17937 49.4733 9.95128 50.6929 11.0368 51.583C11.2419 51.7581 11.4786 51.8456 11.6995 51.583C11.9204 51.3204 11.8099 51.1215 11.6206 50.9225C11.4313 50.7236 11.3839 50.7076 11.2735 50.5962C10.6047 49.9995 10.1058 49.2335 9.82848 48.3774C9.55112 47.5213 9.50528 46.606 9.69568 45.726C9.92609 44.7653 10.3653 43.8683 10.9816 43.0999C11.1551 42.8612 11.3129 42.6224 11.0289 42.3758C10.7449 42.1291 10.4846 42.3121 10.2874 42.5667C9.26762 43.8036 8.70443 45.3588 8.69375 46.9674V46.9595ZM10.4846 46.6412C10.497 47.2662 10.6381 47.8818 10.8988 48.449C11.1596 49.0161 11.5343 49.5224 11.9993 49.9357C12.2596 50.1824 12.5673 50.461 12.8671 50.1506C13.1669 49.8402 12.8671 49.5379 12.6146 49.2912C12.0231 48.7861 11.6082 48.1026 11.4313 47.3415C11.3527 46.7845 11.3968 46.2169 11.5604 45.6791C11.7241 45.1413 12.0032 44.6465 12.378 44.2299C12.5436 44.0071 12.6304 43.7604 12.378 43.5615C12.3275 43.5144 12.267 43.4795 12.2011 43.4597C12.1352 43.4399 12.0656 43.4356 11.9978 43.4471C11.93 43.4586 11.8657 43.4857 11.8099 43.5262C11.7541 43.5668 11.7082 43.6196 11.6758 43.6808C10.9885 44.5218 10.5729 45.5549 10.4846 46.6412Z" fill="#FFDDB5"/>
<path d="M24.1406 57.0262C23.9907 54.8139 24.0301 52.721 24.0143 50.6599C24.0143 50.0869 23.9354 49.8641 23.2964 50.0869C22.0269 50.4544 20.7239 50.6917 19.4071 50.7951C18.8392 50.8552 18.2651 50.8148 17.711 50.6758C17.3796 50.619 17.0822 50.4365 16.8798 50.1658C16.6775 49.895 16.5853 49.5565 16.6223 49.2195C16.6617 48.2327 16.6617 48.2327 16.1095 47.5722C16.5107 47.2799 16.9418 47.0318 17.3954 46.8321C17.6321 46.6968 17.9476 46.6014 17.9555 46.283C17.9634 45.9647 17.6557 45.7419 17.3481 45.6146L16.0779 45.1132C15.786 45.0018 15.715 44.8427 15.999 44.6358C16.5513 44.2379 16.2673 43.7365 16.1489 43.259C16.0306 42.7816 15.6125 42.7736 15.218 42.7497H14.5317C14.2319 42.7497 13.9321 42.7099 13.7901 42.3757C13.729 42.2262 13.7114 42.0622 13.7394 41.903C13.7673 41.7437 13.8396 41.5958 13.9479 41.4765C14.5711 40.6807 15.1786 39.8849 15.8176 39.1289C16.0508 38.8907 16.2157 38.5934 16.2949 38.2683C16.374 37.9433 16.3645 37.6027 16.2673 37.2827C15.7302 35.3255 15.676 33.2655 16.1095 31.2824C16.1963 30.8209 16.3304 30.4866 16.9536 30.5423C20.1128 30.8667 23.0802 32.2243 25.4032 34.4081C27.7263 36.592 29.2776 39.4823 29.8207 42.6383C30.7832 48.3202 28.9371 53.0552 24.5745 56.7795C24.4719 56.8033 24.3536 56.867 24.1406 57.0262Z" fill="#70C6B9"/>
<path d="M33.7337 27.1603C33.7337 27.9561 33.7337 28.7519 33.7337 29.5477C33.7337 29.9058 33.6153 30.0251 33.3077 29.9615C33 29.8978 32.4714 30.2321 32.4556 29.6193C32.4556 27.9402 32.4083 26.2611 32.4556 24.5819C32.4556 23.9533 33.0158 24.3432 33.3155 24.2557C33.6153 24.1681 33.7731 24.2557 33.7574 24.6456C33.7574 25.4414 33.7574 26.3088 33.7574 27.1364L33.7337 27.1603Z" fill="#70C6B9"/>
<path d="M28.2192 3.81981C28.6127 3.06741 29.1736 2.41719 29.858 1.92015C30.5423 1.4231 31.3316 1.09272 32.1638 0.954965C32.932 0.788862 33.7274 0.798157 34.4916 0.98214C35.2558 1.16612 35.9696 1.52014 36.5807 2.01831C37.1918 2.51647 37.6847 3.14618 38.0234 3.86131C38.3621 4.57645 38.5379 5.35891 38.5381 6.15146C38.5381 7.48043 38.5381 8.81735 38.5381 10.1304C38.5381 10.4646 38.5381 10.6716 38.0806 10.6716C34.7829 10.6716 31.48 10.6716 28.1719 10.6716C27.6354 10.6716 27.7222 10.3532 27.7459 10.0508C27.7695 9.74842 27.5565 9.31871 28.164 9.34258C28.7714 9.36646 29.5367 9.34258 30.2151 9.34258C30.5386 9.34258 30.9252 9.38237 30.9331 8.92081C30.9409 8.45926 30.5859 8.46721 30.2467 8.46721C29.5604 8.46721 28.874 8.42742 28.1955 8.46721C27.5171 8.507 27.7459 8.11707 27.738 7.80672C27.7301 7.49636 27.6354 7.10641 28.2113 7.1462C28.7872 7.18599 29.5761 7.1462 30.2625 7.1462C30.5938 7.1462 30.9488 7.14619 30.9331 6.66872C30.9173 6.19125 30.5859 6.24695 30.2783 6.24695C29.5919 6.24695 28.9056 6.24695 28.2271 6.24695C27.8484 6.24695 27.7222 6.15146 27.7301 5.75357C27.7301 4.73496 27.8169 4.65539 28.8425 4.64743H30.5544C30.8226 4.64743 31.0672 4.53602 31.0751 4.2177C31.0829 3.89939 30.8542 3.74819 30.5307 3.74819H28.2429L28.2192 3.81981Z" fill="#FFDDB5"/>
<path d="M33.1578 13.7512C34.7356 13.7512 36.3134 13.7512 37.9386 13.7512C38.3961 13.7512 38.6012 13.7512 38.5381 14.3719C38.404 15.5258 38.617 16.7036 38.3961 17.8734C38.1936 18.8824 37.6689 19.7967 36.9024 20.4765C36.1359 21.1563 35.1698 21.5641 34.1518 21.6375C33.1538 21.745 32.1453 21.6967 31.1618 21.4942C30.1816 21.2152 29.3167 20.6247 28.6956 19.8104C28.0745 18.9961 27.7304 18.0015 27.7143 16.9742C27.7143 16.051 27.7143 15.1279 27.7143 14.2128C27.7143 13.8387 27.8327 13.7512 28.1798 13.7592C29.8365 13.7671 31.4932 13.7512 33.1578 13.7512ZM38.1121 16.2977V15.0881C38.1121 14.7937 38.0096 14.5788 37.694 14.5868C37.3784 14.5947 37.2759 14.8096 37.2759 15.0961V16.5524C37.3157 17.0285 37.2595 17.5077 37.1109 17.9614C36.9622 18.415 36.7241 18.8336 36.4108 19.1919C36.0976 19.5503 35.7157 19.841 35.2882 20.0466C34.8606 20.2521 34.3963 20.3683 33.923 20.3881C33.5996 20.3881 33.3708 20.5393 33.3866 20.8735C33.4023 21.2077 33.6942 21.2873 33.994 21.2714C34.5858 21.249 35.1651 21.0941 35.6902 20.8178C36.5108 20.4134 37.1855 19.7601 37.6198 18.9496C38.0541 18.1391 38.2262 17.2118 38.1121 16.2977Z" fill="#FFDDB5"/>
<path d="M33.1183 11.5389C34.6961 11.5389 36.345 11.5389 37.9622 11.5389C38.5145 11.5389 38.5223 11.8015 38.5223 12.2153C38.5223 12.6292 38.5223 12.9395 37.9464 12.9395C34.7119 12.9077 31.48 12.9077 28.2508 12.9395C27.6118 12.9395 27.7301 12.5734 27.7064 12.1915C27.6828 11.8095 27.7459 11.531 28.2744 11.5469C29.8838 11.5628 31.5011 11.5389 33.1183 11.5389Z" fill="#70C6B9"/>
<path d="M38.5776 43.7286C38.2444 43.6751 37.9297 43.5383 37.6624 43.3307C37.4494 43.1477 37.3232 42.9328 37.5047 42.6781C37.5384 42.6235 37.5844 42.5777 37.6388 42.5441C37.6932 42.5105 37.7547 42.4903 37.8182 42.4848C37.8818 42.4794 37.9457 42.4891 38.005 42.5129C38.0642 42.5368 38.1171 42.5743 38.1594 42.6224C38.2557 42.7215 38.3832 42.7836 38.52 42.7982C38.6568 42.8127 38.7943 42.7787 38.9089 42.702C38.9837 42.6464 39.0412 42.5705 39.0747 42.4831C39.1082 42.3957 39.1164 42.3005 39.0982 42.2086C39.0982 41.8983 38.8221 41.8346 38.5776 41.755C37.623 41.4447 37.2285 40.7126 37.5757 39.9327C37.6662 39.7332 37.8052 39.5599 37.9798 39.429C38.1543 39.298 38.3588 39.2135 38.5742 39.1834C38.7897 39.1533 39.0092 39.1784 39.2125 39.2565C39.4158 39.3346 39.5963 39.4632 39.7373 39.6303C39.9187 39.8611 39.9818 40.0918 39.7373 40.3067C39.6988 40.3494 39.6519 40.3836 39.5996 40.4069C39.5473 40.4303 39.4907 40.4424 39.4335 40.4424C39.3763 40.4424 39.3198 40.4303 39.2675 40.4069C39.2151 40.3836 39.1683 40.3494 39.1298 40.3067C38.9563 40.1635 38.8142 39.9486 38.5381 40.0998C38.4675 40.1373 38.4095 40.1952 38.3716 40.266C38.3337 40.3369 38.3175 40.4175 38.3251 40.4977C38.3251 40.8717 38.6643 40.8876 38.9168 40.9672C39.2384 41.0509 39.5199 41.2475 39.7108 41.5217C39.9016 41.7959 39.9893 42.1297 39.9582 42.4633C39.9063 42.8017 39.741 43.112 39.4897 43.3423C39.2385 43.5726 38.9165 43.7089 38.5776 43.7286Z" fill="#231F20"/>
<path d="M47.4528 39.1687C47.6358 39.1672 47.8169 39.2063 47.9833 39.2833C48.1496 39.3603 48.2971 39.4734 48.4152 39.6144C48.6046 39.8054 48.7229 40.0282 48.4941 40.2749C48.2654 40.5216 48.0602 40.4738 47.8393 40.2749C47.6184 40.0759 47.5474 39.9566 47.3108 40.0759C47.2229 40.1057 47.1473 40.164 47.0959 40.2418C47.0445 40.3196 47.0202 40.4124 47.0268 40.5057C47.0268 40.7762 47.2792 40.8478 47.508 40.9195C48.4389 41.2378 48.8018 41.763 48.644 42.5827C48.5988 42.8432 48.4779 43.0843 48.2968 43.2756C48.1156 43.4668 47.8823 43.5995 47.6263 43.657C47.396 43.7169 47.1542 43.7153 46.9246 43.6526C46.695 43.5898 46.4856 43.4679 46.3167 43.2989C46.2221 43.2301 46.1577 43.1269 46.1371 43.0111C46.1165 42.8952 46.1413 42.7759 46.2063 42.6782C46.2366 42.6285 46.2773 42.5862 46.3256 42.5541C46.3739 42.5221 46.4286 42.5012 46.4858 42.4929C46.543 42.4845 46.6013 42.4889 46.6566 42.5058C46.7119 42.5227 46.7629 42.5517 46.8059 42.5906C46.9162 42.6705 47.0353 42.7373 47.1609 42.7896C47.2204 42.8122 47.2837 42.8224 47.3473 42.8198C47.4108 42.8171 47.4731 42.8016 47.5305 42.7741C47.5879 42.7466 47.6393 42.7078 47.6815 42.6598C47.7237 42.6119 47.7559 42.5559 47.7762 42.4951C47.8051 42.4386 47.8221 42.3767 47.8261 42.3132C47.8301 42.2498 47.8211 42.1862 47.7997 42.1264C47.7782 42.0666 47.7447 42.012 47.7013 41.9659C47.6579 41.9198 47.6055 41.8832 47.5474 41.8585C47.366 41.763 47.153 41.7471 46.9637 41.6675C46.6848 41.5575 46.4531 41.3523 46.3089 41.0876C46.1647 40.8229 46.1172 40.5156 46.1747 40.2192C46.2334 39.9215 46.3932 39.6538 46.6264 39.462C46.8597 39.2703 47.1519 39.1666 47.4528 39.1687Z" fill="#231F20"/>
<path d="M57.1563 42.328C57.1529 42.5799 57.0815 42.826 56.9497 43.04C56.8179 43.2539 56.6307 43.4275 56.4084 43.5421C56.186 43.6567 55.9369 43.708 55.6878 43.6903C55.4387 43.6727 55.1991 43.5869 54.9947 43.4421C54.7423 43.267 54.4977 43.0442 54.6792 42.71C54.8606 42.3758 55.1762 42.4872 55.4681 42.71C55.5638 42.7924 55.6854 42.8377 55.8113 42.8377C55.9371 42.8377 56.0587 42.7924 56.1544 42.71C56.2273 42.6483 56.2804 42.5663 56.3071 42.4743C56.3337 42.3822 56.3328 42.2842 56.3043 42.1927C56.2254 41.8187 55.8862 41.8107 55.618 41.7153C55.319 41.6367 55.0584 41.4515 54.8843 41.194C54.7103 40.9365 54.6346 40.6241 54.6713 40.3147C54.6923 40.0607 54.7908 39.8194 54.9533 39.6242C55.1157 39.429 55.3342 39.2893 55.5785 39.2244C55.818 39.1421 56.0771 39.1377 56.3192 39.212C56.5613 39.2862 56.7741 39.4354 56.9276 39.6383C57.1169 39.8452 57.1958 40.0759 56.967 40.3067C56.9286 40.3494 56.8817 40.3836 56.8294 40.4069C56.7771 40.4303 56.7205 40.4424 56.6633 40.4424C56.6061 40.4424 56.5495 40.4303 56.4972 40.4069C56.4449 40.3836 56.398 40.3494 56.3596 40.3067C56.1781 40.1396 56.0045 39.9168 55.7205 40.1396C55.5943 40.2431 55.476 40.3545 55.5233 40.5454C55.5706 40.7364 55.8547 40.8797 56.0913 40.9593C56.4023 41.0201 56.6812 41.192 56.8768 41.4434C57.0724 41.6948 57.1716 42.0088 57.1563 42.328Z" fill="#231F20"/>
<path d="M58.7815 41.8982C58.7815 41.6197 58.7815 41.3412 58.7815 41.1025C58.821 40.5932 58.7815 40.1793 58.0952 40.3067C57.8506 40.3544 57.6692 40.1793 57.6613 39.8928C57.6534 39.6064 57.8506 39.4631 58.1425 39.4631H60.3278C60.5881 39.4631 60.7932 39.5666 60.8011 39.8451C60.8111 39.9094 60.8057 39.9753 60.7852 40.037C60.7647 40.0988 60.7297 40.1546 60.6833 40.1999C60.6369 40.2452 60.5803 40.2785 60.5185 40.2971C60.4566 40.3157 60.3912 40.319 60.3278 40.3067C59.602 40.1793 59.6493 40.625 59.6572 41.1025C59.6572 41.7709 59.6572 42.4394 59.6572 43.0999C59.6572 43.3943 59.5704 43.6808 59.2075 43.6728C58.8446 43.6649 58.7736 43.3943 58.7815 43.084V41.8982Z" fill="#231F20"/>
<path d="M50.2929 41.8665C50.2929 41.6357 50.2929 41.4049 50.2929 41.1741C50.2929 40.6569 50.3717 40.1476 49.575 40.2749C49.3225 40.3226 49.1568 40.1158 49.1647 39.8372C49.1726 39.5587 49.354 39.4393 49.6144 39.4473H51.8707C52.1468 39.4473 52.3125 39.5826 52.3125 39.8531C52.3125 40.1237 52.1231 40.3226 51.8707 40.2749C51.0818 40.1476 51.1291 40.6489 51.1449 41.1741C51.1606 41.6994 51.1449 42.4633 51.1449 43.1079C51.1449 43.3864 51.0818 43.6411 50.7662 43.657C50.4506 43.6729 50.2929 43.4262 50.2929 43.1079V41.8665Z" fill="#231F20"/>
<path d="M41.6149 41.9141C41.6149 41.6435 41.6149 41.365 41.6149 41.1183C41.6149 40.6249 41.6543 40.1873 40.9364 40.3225C40.873 40.3367 40.8072 40.3355 40.7444 40.3191C40.6816 40.3026 40.6235 40.2714 40.575 40.2278C40.5265 40.1843 40.4889 40.1298 40.4653 40.0688C40.4417 40.0078 40.4329 39.942 40.4394 39.8769C40.4394 39.5665 40.684 39.479 40.968 39.479H43.0901C43.3741 39.479 43.595 39.5586 43.595 39.8928C43.6025 39.9576 43.5942 40.0233 43.5706 40.084C43.547 40.1448 43.509 40.1987 43.4599 40.2412C43.4108 40.2836 43.3522 40.3133 43.2891 40.3274C43.2259 40.3416 43.1603 40.3399 43.098 40.3225C42.4906 40.227 42.4511 40.5613 42.4669 41.0308C42.4669 41.7231 42.4669 42.4075 42.4669 43.0999C42.4669 43.4102 42.3959 43.6728 42.0488 43.6887C41.7016 43.7046 41.5991 43.442 41.607 43.1317V41.9539L41.6149 41.9141Z" fill="#231F20"/>
<path d="M53.0146 41.2219C53.1566 41.2219 53.2907 41.2219 53.4248 41.2219C53.7483 41.2219 54.0717 41.2219 54.0481 41.6516C54.0244 42.0814 53.7167 42.0893 53.3933 42.0813H52.6438C52.3124 42.0813 52.0206 42.0097 52.0206 41.6198C52.0206 41.2299 52.3125 41.2139 52.6044 41.2219C52.7464 41.2299 52.8805 41.2219 53.0146 41.2219Z" fill="#231F20"/>
<path d="M44.5259 41.2218C44.7074 41.2218 44.8888 41.2218 45.0703 41.2218C45.2517 41.2218 45.5752 41.3333 45.5594 41.6516C45.5436 41.9699 45.3385 42.0813 45.0466 42.0813H44.163C43.8317 42.0813 43.524 42.0176 43.5319 41.6277C43.5398 41.2378 43.8791 41.2139 44.1867 41.2218C44.2972 41.2298 44.4155 41.2218 44.5259 41.2218Z" fill="#231F20"/>
<path d="M63.0416 42.9885C63.0968 42.7418 63.223 42.5668 63.4992 42.5827C63.5506 42.5816 63.6017 42.5909 63.6495 42.61C63.6973 42.6292 63.7409 42.6577 63.7776 42.694C63.8143 42.7304 63.8435 42.7737 63.8634 42.8215C63.8834 42.8694 63.8936 42.9207 63.8936 42.9726C63.8968 43.0308 63.8884 43.0889 63.869 43.1438C63.8497 43.1986 63.8196 43.249 63.7807 43.292C63.7418 43.335 63.6947 43.3697 63.6423 43.3941C63.5899 43.4185 63.5332 43.4321 63.4755 43.4342C63.223 43.4421 63.0889 43.2432 63.0416 42.9885Z" fill="#231F20"/>
<path d="M62.7339 43.0442C62.6235 43.2909 62.4894 43.4899 62.229 43.4342C62.1723 43.4252 62.1181 43.4041 62.0701 43.3723C62.0221 43.3405 61.9814 43.2987 61.9507 43.2497C61.9201 43.2007 61.9002 43.1456 61.8924 43.0882C61.8846 43.0308 61.8891 42.9724 61.9056 42.9169C61.9101 42.8656 61.9253 42.8158 61.9502 42.7708C61.9751 42.7258 62.0092 42.6866 62.0501 42.6558C62.0911 42.625 62.138 42.6033 62.1879 42.5921C62.2378 42.5808 62.2894 42.5803 62.3395 42.5906C62.6156 42.6225 62.7024 42.8134 62.7339 43.0442Z" fill="#231F20"/>
<path d="M61.093 42.5906C61.3612 42.5906 61.5111 42.7338 61.5111 43.0123C61.5177 43.1166 61.4833 43.2193 61.4154 43.2982C61.3475 43.3771 61.2515 43.426 61.1482 43.4341C61.091 43.4421 61.0326 43.4376 60.9773 43.4208C60.9219 43.404 60.8707 43.3754 60.8273 43.3369C60.7839 43.2984 60.7492 43.2509 60.7256 43.1976C60.702 43.1443 60.6901 43.0866 60.6907 43.0283C60.667 42.7577 60.8327 42.6224 61.093 42.5906Z" fill="#231F20"/>
<path d="M50.2297 59.8195C50.9674 59.8293 51.6722 60.1291 52.1941 60.6551C52.415 60.8779 52.5018 61.1484 52.2651 61.3792C52.0284 61.61 51.8233 61.4906 51.5945 61.3155C50.5532 60.5198 50.0167 60.5198 48.9912 61.2678C48.7387 61.4588 48.4862 61.5702 48.2811 61.2678C48.076 60.9654 48.218 60.7505 48.4468 60.5436C48.9403 60.1017 49.5703 59.8458 50.2297 59.8195Z" fill="#231F20"/>
<path d="M50.498 51.0737C50.1824 51.0737 49.8353 51.0737 49.7958 50.7077C49.7564 50.3416 50.072 50.262 50.4033 50.2222C51.1776 50.1755 51.9266 49.9264 52.5766 49.4995C53.2267 49.0726 53.7555 48.4825 54.1112 47.7871C54.2532 47.5245 54.4188 47.2858 54.7423 47.4449C55.0657 47.6041 55.0184 47.9304 54.8685 48.2407C54.4441 49.0531 53.8186 49.7408 53.0527 50.2372C52.2869 50.7337 51.4068 51.0218 50.498 51.0737Z" fill="#231F20"/>
<path d="M6.65049 46.8242C6.73107 44.7824 7.47698 42.8244 8.77265 41.2537C8.96199 41.007 9.18289 40.8558 9.4669 41.0786C9.7509 41.3014 9.64045 41.564 9.4669 41.8028C8.51902 42.9436 7.8851 44.3158 7.62873 45.7817C7.4745 46.9277 7.6107 48.0944 8.02458 49.1729C8.43845 50.2514 9.1165 51.2065 9.99545 51.9491C10.2716 52.2117 10.8317 52.4823 10.4451 52.9199C10.0586 53.3576 9.65624 52.8324 9.3959 52.5698C8.5702 51.8549 7.90004 50.9754 7.42758 49.9866C6.95511 48.9978 6.69054 47.9211 6.65049 46.8242Z" fill="#231F20"/>
<path d="M8.69376 46.9675C8.70545 45.369 9.26264 43.8233 10.2716 42.5907C10.4688 42.336 10.7055 42.1371 11.0132 42.3997C11.3208 42.6623 11.1394 42.8851 10.9658 43.1238C10.3495 43.8923 9.91031 44.7893 9.6799 45.7499C9.4895 46.6299 9.53536 47.5452 9.81272 48.4013C10.0901 49.2575 10.5889 50.0234 11.2577 50.6202C11.3682 50.7316 11.4944 50.8271 11.6048 50.9464C11.7153 51.0658 11.9046 51.3682 11.6837 51.6069C11.4628 51.8457 11.2262 51.7661 11.021 51.6069C9.93552 50.7168 9.16361 49.4972 8.81999 48.1293C8.71383 47.7519 8.67116 47.3592 8.69376 46.9675Z" fill="#231F20"/>
<path d="M10.4846 46.6412C10.5796 45.5522 11.0037 44.5189 11.6995 43.6808C11.7319 43.6196 11.7777 43.5667 11.8336 43.5262C11.8894 43.4857 11.9537 43.4586 12.0215 43.4471C12.0893 43.4356 12.1588 43.4399 12.2247 43.4597C12.2906 43.4795 12.3512 43.5144 12.4016 43.5615C12.6304 43.7604 12.5436 44.0071 12.4016 44.2299C12.0269 44.6465 11.7477 45.1413 11.5841 45.6791C11.4205 46.2169 11.3764 46.7845 11.4549 47.3415C11.6319 48.1026 12.0468 48.7861 12.6383 49.2912C12.8986 49.5378 13.2063 49.8243 12.8907 50.1506C12.5752 50.4769 12.2833 50.1506 12.0229 49.9357C11.5537 49.5246 11.1745 49.0192 10.9096 48.452C10.6447 47.8847 10.5 47.268 10.4846 46.6412Z" fill="#231F20"/>
<path d="M38.1121 16.2977C38.2262 17.2119 38.0541 18.1391 37.6198 18.9496C37.1855 19.7601 36.5108 20.4134 35.6902 20.8178C35.1651 21.0941 34.5858 21.249 33.994 21.2714C33.6942 21.2714 33.4102 21.2237 33.3866 20.8735C33.3629 20.5234 33.5996 20.4279 33.923 20.3881C34.3962 20.3683 34.8606 20.2522 35.2881 20.0466C35.7157 19.841 36.0976 19.5503 36.4108 19.192C36.7241 18.8336 36.9622 18.415 37.1109 17.9614C37.2595 17.5078 37.3157 17.0285 37.2759 16.5524V15.1359C37.2759 14.8494 37.3705 14.6266 37.694 14.6266C38.0174 14.6266 38.1121 14.8335 38.1121 15.1279V16.2977Z" fill="#231F20"/>
</g>
<defs>
<clipPath id="clip0_186_4061">
<rect width="66" height="65" fill="white"/>
</clipPath>
</defs>
</svg>
