<svg width="66" height="60" viewBox="0 0 66 60" fill="none" xmlns="http://www.w3.org/2000/svg">
<g clip-path="url(#clip0_186_4282)">
<path d="M15.0543 46.068C13.6275 44.5076 12.4008 42.7701 11.4032 40.8968C10.47 39.058 9.77809 37.1028 9.34532 35.0812C9.07877 33.5532 8.91857 32.008 8.86589 30.4572H9.95016H18.0637C18.2168 30.5097 18.3826 30.5097 18.5358 30.4572H22.9023C23.1162 30.8619 23.3375 30.8843 23.5662 30.4572C23.6473 30.3223 23.7137 30.1799 23.7801 30.045C24.4059 30.1918 25.0498 30.2423 25.6904 30.1949C25.7494 30.4047 25.8527 30.5996 26.0961 30.5546C26.3395 30.5096 26.3395 30.2698 26.3395 30.0599C26.3395 28.606 26.3395 27.1447 26.3395 25.6908C26.2838 24.4478 26.4952 23.2074 26.9591 22.056C27.4169 20.924 27.4183 19.6546 26.9629 18.5216C26.5075 17.3887 25.6319 16.4832 24.525 16.0005C23.8652 15.6953 23.1479 15.5393 22.4229 15.5433H19.2955C20.0669 14.964 20.6831 14.1974 21.0877 13.3137C21.4923 12.43 21.6724 11.4573 21.6115 10.4846L23.1974 9.86263C23.635 10.6527 23.7615 11.582 23.5514 12.4632C23.3674 13.2644 22.9573 13.9937 22.3713 14.5616C22.209 14.719 22.1279 14.9063 22.3344 15.0862C22.5409 15.2661 22.6737 15.1761 22.8064 15.0262C23.0088 14.8285 23.1962 14.6156 23.367 14.3892C23.8607 13.7138 24.1687 12.9171 24.2594 12.0808C24.3501 11.2445 24.2203 10.3988 23.8833 9.6303C24.3105 9.4665 24.7494 9.3362 25.1962 9.24058C25.2978 9.24307 25.3967 9.20672 25.4732 9.13871C25.5497 9.07071 25.5982 8.97602 25.6093 8.87336C25.6464 8.91975 25.6785 8.97 25.7052 9.02326C25.8527 9.29306 25.7052 9.86263 26.2215 9.7727C26.7378 9.68277 26.2953 9.20311 26.3469 8.91083C27.8221 8.82089 29.2161 8.51362 30.6692 8.52861C32.7409 8.56609 34.7999 8.86567 36.7986 9.42044C36.3286 9.76132 35.9621 10.2292 35.7405 10.7709C35.5188 11.3127 35.451 11.9067 35.5447 12.4857C35.589 12.7555 35.4636 12.8004 35.2275 12.8678C34.5707 13.0394 33.9921 13.4356 33.5891 13.9898C33.1861 14.5439 32.9832 15.2222 33.0147 15.9106C33.0473 16.6603 33.3046 17.3821 33.7523 17.979C33.131 18.1756 32.587 18.5674 32.1987 19.0979C31.8104 19.6285 31.5977 20.2706 31.5912 20.9318C31.5497 21.6164 31.7279 22.2961 32.099 22.8691C32.47 23.442 33.0139 23.8772 33.6491 24.1094C33.5311 24.3118 33.4204 24.4842 33.3245 24.664C33.1078 25.0549 32.9802 25.4902 32.9511 25.9378C32.922 26.3854 32.9921 26.834 33.1563 27.2505C33.3206 27.6669 33.5747 28.0406 33.9 28.3439C34.2252 28.6473 34.6134 28.8726 35.0358 29.0033C35.5078 29.1382 35.5963 29.318 35.5299 29.7527C35.4366 30.4174 35.5702 31.0945 35.9084 31.6713C36.2466 32.2481 36.769 32.6897 37.3887 32.9228C37.8947 33.1089 38.4431 33.1414 38.967 33.0163C39.4908 32.8912 39.9676 32.6139 40.3391 32.2183C41.5782 34.5191 44.3442 34.6465 45.7235 32.2783C45.9918 32.7683 46.3648 33.1909 46.8152 33.5149C47.2174 33.7447 47.6611 33.8895 48.1198 33.9407C48.5785 33.9918 49.0426 33.9481 49.4843 33.8123C49.9259 33.6764 50.336 33.4513 50.6898 33.1503C51.0436 32.8494 51.3339 32.4788 51.5431 32.061C51.6538 31.7762 51.7423 31.6338 52.0447 31.8361C52.1679 31.9052 52.2993 31.9581 52.4356 31.9935C52.1345 36.5497 50.4751 40.9048 47.6781 44.4792C46.9405 45.3785 46.0923 46.1054 45.3768 46.9823C44.8874 46.536 44.307 46.2052 43.6771 46.0134C43.0472 45.8217 42.3834 45.7738 41.7331 45.8731C41.2299 45.912 40.743 46.0716 40.3122 46.3386C39.8814 46.6057 39.5191 46.9726 39.2548 47.4094C38.662 48.4784 38.2341 49.6335 37.9861 50.8344C37.728 51.8162 37.4256 52.0485 36.4077 52.041C35.5816 52.041 34.7481 52.041 33.922 52.041C33.2102 51.9889 32.5071 52.2261 31.9674 52.7005C31.1944 52.8254 30.41 52.8606 29.6292 52.8054C29.2228 52.4881 28.7514 52.2679 28.2499 52.1609C28.1024 52.0335 27.9253 52.1234 27.7631 52.0859C27.7114 52.1117 27.6547 52.1251 27.5971 52.1251C27.5396 52.1251 27.4828 52.1117 27.4312 52.0859C25.9728 52.2168 24.5044 52.0065 23.1384 51.4714C23.072 51.284 22.9908 51.0967 22.9318 50.9018C22.6261 49.6992 22.2316 48.5218 21.7517 47.3795C21.5339 46.8912 21.2105 46.4591 20.8057 46.1153C20.4009 45.7714 19.925 45.5247 19.4135 45.3935C18.6829 45.1719 17.9132 45.1175 17.1595 45.2341C16.4058 45.3507 15.6868 45.6355 15.0543 46.068ZM19.2217 34.8264H16.3672C15.342 34.8264 15.1059 35.1187 15.1281 36.1679C15.1281 37.5543 15.342 38.9333 15.3788 40.3123C15.3797 41.2253 15.6872 42.1107 16.2505 42.822C16.8138 43.5334 17.5992 44.0281 18.4768 44.2243C19.3991 44.3916 20.3498 44.2134 21.1527 43.7228C21.9557 43.2322 22.5563 42.4625 22.8433 41.5563C23.1457 40.687 22.9244 39.8026 23.1236 38.9183C23.2749 37.9269 23.3268 36.9226 23.2785 35.9206C23.2785 35.1711 22.9761 34.8339 22.2237 34.8264C21.2427 34.8039 20.2322 34.8114 19.2143 34.8114L19.2217 34.8264ZM30.0054 45.4085C31.0454 45.4085 31.7535 45.4085 32.4615 45.4085C33.5123 45.4058 34.5218 44.9927 35.281 44.2547C36.0403 43.5167 36.4912 42.5103 36.5404 41.4439C36.5682 40.9101 36.4919 40.376 36.3158 39.8723C36.1396 39.3686 35.8672 38.9052 35.5142 38.5089C35.1611 38.1126 34.7344 37.7911 34.2586 37.563C33.7829 37.3348 33.2674 37.2045 32.7418 37.1796C31.1287 37.0596 29.509 37.0596 27.8958 37.1796C27.2582 37.202 26.6353 37.3809 26.0804 37.701C25.5256 38.0211 25.0552 38.4729 24.7095 39.0178C24.3638 39.5627 24.1531 40.1846 24.0953 40.8302C24.0374 41.4759 24.1343 42.1261 24.3775 42.7255C24.5683 43.1008 24.6679 43.5171 24.6679 43.9395C24.6679 44.362 24.5683 44.7783 24.3775 45.1536C24.1341 45.6632 24.2742 45.7981 24.8348 45.7532C26.5469 45.5006 28.2754 45.3804 30.0054 45.3935V45.4085ZM41.3348 45.1162C42.2386 45.1162 43.1054 44.7514 43.7444 44.1021C44.3835 43.4527 44.7425 42.5721 44.7425 41.6538C44.7425 40.7355 44.3835 39.8548 43.7444 39.2055C43.1054 38.5561 42.2386 38.1914 41.3348 38.1914C40.431 38.1914 39.5643 38.5561 38.9252 39.2055C38.2862 39.8548 37.9271 40.7355 37.9271 41.6538C37.9271 42.5721 38.2862 43.4527 38.9252 44.1021C39.5643 44.7514 40.431 45.1162 41.3348 45.1162ZM26.7009 11.8337C26.7009 11.5788 26.7378 11.3015 26.3838 11.2865C26.0297 11.2715 26.1035 11.5563 26.074 11.7737C25.9892 12.7707 25.7398 13.7461 25.3364 14.659C25.2331 14.8688 25.1151 15.1087 25.4028 15.2361C25.6904 15.3635 25.8306 15.1312 25.9338 14.8988C26.3661 13.926 26.6258 12.8833 26.7009 11.8186V11.8337Z" fill="#A7A9AC"/>
<path d="M22.9023 30.3897H18.5505C18.816 29.7976 19.0742 29.1981 19.3324 28.5985C20.07 26.8224 20.8518 25.0387 21.6189 23.2626C21.6927 23.0902 21.7738 22.9178 21.6558 22.7379C21.6227 22.6863 21.5731 22.6477 21.5154 22.6286C21.4577 22.6095 21.3953 22.611 21.3386 22.633C21.11 22.7005 21.0657 22.9253 20.9919 23.1052C20.0577 25.2785 19.1258 27.4519 18.1965 29.6253C18.0629 29.8501 18.0206 30.1188 18.0784 30.3747H9.9649H8.88063L7.10302 30.3147C7.10302 29.4754 7.10302 28.6285 7.10302 27.7891C7.06694 26.9889 7.20549 26.1904 7.50872 25.4509C7.78163 24.7989 7.98078 24.1019 8.24631 23.4274C8.32745 23.1876 8.34958 22.9628 8.06929 22.8728C7.78901 22.7829 7.72262 23.0002 7.64886 23.2026L7.4497 23.7796L5.12628 30.3672C3.80598 30.3672 2.48568 30.3672 1.15801 30.3672C1.02212 30.3724 0.886622 30.3494 0.759727 30.2997C0.755679 30.2374 0.755679 30.1748 0.759727 30.1124C1.94725 26.68 3.0979 23.225 4.35181 19.8076C4.66377 18.9107 5.19727 18.1102 5.90117 17.4829C6.60507 16.8556 7.45576 16.4226 8.37169 16.2253C9.57106 16.0542 10.783 15.9915 11.9933 16.038C12.2705 15.9777 12.5598 16.0272 12.8024 16.1762C13.045 16.3251 13.2225 16.5625 13.2988 16.8399C13.6109 17.5941 14.1774 18.2106 14.8966 18.5787C15.6158 18.9468 16.4405 19.0424 17.2228 18.8484C17.799 18.6829 18.3284 18.3815 18.7681 17.9686C19.2078 17.5558 19.5452 17.0432 19.7528 16.4726C19.786 16.3358 19.8674 16.2161 19.9815 16.136C20.0956 16.0559 20.2347 16.021 20.3724 16.038C21.11 16.038 21.8476 16.038 22.5852 16.038C23.2649 16.0388 23.9336 16.2119 24.5308 16.5416C25.1281 16.8713 25.635 17.3472 26.0055 17.9262C26.3761 18.5051 26.5987 19.1688 26.6532 19.8572C26.7076 20.5456 26.5922 21.2369 26.3174 21.8686C25.1962 24.7914 24.053 27.5868 22.9023 30.3897Z" fill="#FACB62"/>
<path d="M20.6158 59.2731H13.5127C13.6971 56.0955 13.8668 52.9178 14.0659 49.7477C14.2282 47.0647 15.7993 45.6633 18.4399 45.7907C19.039 45.7952 19.6238 45.9768 20.1229 46.3136C20.6219 46.6503 21.0136 47.1275 21.2501 47.6868C21.6803 48.747 22.0377 49.8363 22.3196 50.9468C22.7179 52.2583 23.2933 52.723 24.6357 52.7305C25.6831 52.7305 26.7378 52.7305 27.7852 52.7305C28.2343 52.714 28.6759 52.8512 29.0391 53.1202C29.2592 53.2712 29.4231 53.4927 29.5046 53.7495C29.5862 54.0063 29.5807 54.2834 29.489 54.5366C29.4263 54.7802 29.277 54.9915 29.07 55.1299C28.863 55.2683 28.6129 55.3239 28.3679 55.2861C26.2289 55.2861 24.0825 55.2486 21.9435 55.2486C21.8023 55.2621 21.6601 55.2381 21.5308 55.179C21.4015 55.1199 21.2895 55.0276 21.2059 54.9113C20.6895 54.2518 20.1511 53.6148 19.62 52.9703C19.4504 52.7604 19.2512 52.4757 18.9857 52.7155C18.7202 52.9553 18.9857 53.2026 19.1406 53.405C19.6348 54.0045 20.129 54.604 20.6158 55.2111C20.719 55.346 20.9182 55.4584 20.8444 55.6758C20.4314 56.8224 20.6453 58.059 20.6158 59.2731Z" fill="#EF9A73"/>
<path d="M46.3578 59.3705L40.5677 59.6178C41.0324 58.4862 40.789 57.317 40.7595 56.1629C40.7421 56.0185 40.689 55.8809 40.6052 55.763C40.5214 55.645 40.4095 55.5506 40.2801 55.4884C39.7564 55.2336 39.8818 54.8963 40.1694 54.5591C40.4571 54.2219 40.9513 53.6748 41.3422 53.2326C41.5266 53.0228 41.8364 52.7905 41.5413 52.4832C41.2463 52.1759 41.0767 52.5581 40.907 52.738L39.3876 54.4242C39.258 54.6096 39.062 54.7361 38.8417 54.7765C37.0073 54.9226 35.1638 54.9076 33.3319 54.7315C32.5058 54.6715 32.1739 54.3043 32.1739 53.7947C32.2039 53.4755 32.3468 53.1782 32.5759 52.9577C32.8051 52.7373 33.1051 52.6086 33.4204 52.5956C33.6242 52.5805 33.8288 52.5805 34.0326 52.5956C34.8809 52.5956 35.7291 52.5956 36.5773 52.5956C36.8148 52.6271 37.056 52.6105 37.2871 52.5468C37.5182 52.4831 37.7347 52.3735 37.9239 52.2244C38.1132 52.0753 38.2715 51.8897 38.3898 51.6781C38.5081 51.4666 38.5839 51.2333 38.6131 50.9918C38.8287 49.906 39.1937 48.8565 39.6974 47.8741C39.8742 47.5369 40.1206 47.2424 40.4197 47.0109C40.7189 46.7793 41.0637 46.6162 41.4307 46.5326C43.4886 46.098 45.6276 46.9373 45.8563 49.6278C46.1218 52.8804 46.1956 56.1255 46.3578 59.3705Z" fill="#70C6B9"/>
<path d="M52.4504 31.9485C52.314 31.9131 52.1827 31.8602 52.0594 31.7911C51.757 31.5888 51.6685 31.7312 51.5579 32.016C51.3486 32.4339 51.0584 32.8044 50.7045 33.1054C50.3507 33.4063 49.9407 33.6315 49.499 33.7673C49.0574 33.9031 48.5932 33.9467 48.1346 33.8956C47.6759 33.8445 47.2321 33.6997 46.8299 33.4699C46.3903 33.1425 46.0275 32.7202 45.7678 32.2333C44.3885 34.6015 41.6225 34.4816 40.3833 32.1734C40.0118 32.569 39.5351 32.8462 39.0112 32.9713C38.4873 33.0964 37.939 33.0639 37.4329 32.8778C36.8132 32.6448 36.2908 32.2031 35.9526 31.6263C35.6144 31.0495 35.4809 30.3724 35.5742 29.7077C35.6406 29.2431 35.5742 29.0632 35.08 28.9583C34.6576 28.8276 34.2695 28.6023 33.9442 28.299C33.6189 27.9956 33.3648 27.6219 33.2006 27.2055C33.0364 26.7891 32.9662 26.3405 32.9953 25.8928C33.0244 25.4452 33.1521 25.0099 33.3688 24.6191C33.4647 24.4392 33.5753 24.2668 33.6933 24.0644C33.0582 23.8322 32.5143 23.397 32.1432 22.8241C31.7722 22.2511 31.594 21.5714 31.6354 20.8868C31.6419 20.2256 31.8546 19.5836 32.243 19.053C32.6313 18.5224 33.1752 18.1306 33.7966 17.934C33.3489 17.3371 33.0915 16.6154 33.059 15.8656C33.0275 15.1773 33.2303 14.499 33.6333 13.9448C34.0363 13.3906 34.615 12.9944 35.2718 12.8229C35.5078 12.7554 35.6332 12.7105 35.589 12.4407C35.4953 11.8618 35.5631 11.2677 35.7847 10.726C36.0063 10.1842 36.3729 9.71635 36.8429 9.37546C37.2476 9.1238 37.7076 8.97833 38.1814 8.95217C38.6552 8.926 39.128 9.01995 39.5572 9.22557C39.9481 9.42042 39.8891 9.03071 39.9481 8.88831C40.5456 7.38944 43.164 6.39269 44.7204 7.53183C45.1468 7.85602 45.4991 8.27021 45.753 8.74592C46.1361 7.99873 46.7849 7.42796 47.5675 7.14966C48.1784 6.94949 48.8379 6.96488 49.4391 7.19343C50.0402 7.42198 50.5478 7.85026 50.8793 8.40871C51.0711 8.70848 51.1596 8.7909 51.4841 8.5286C51.8436 8.2104 52.2841 8.00154 52.755 7.92599C53.226 7.85044 53.7083 7.91124 54.1468 8.10141C54.3755 8.19884 54.641 8.28126 54.5378 8.60352C54.4345 8.92578 54.1616 8.8059 53.9403 8.72346C53.6336 8.58791 53.2979 8.53396 52.9649 8.56675C52.632 8.59953 52.3128 8.71795 52.0373 8.91082C51.812 9.0247 51.6259 9.20518 51.5035 9.42857C51.381 9.65196 51.328 9.90778 51.3514 10.1624C51.38 10.9322 51.1159 11.6836 50.6138 12.2608C50.4589 12.4706 50.245 12.733 49.9647 12.5306C49.6844 12.3283 49.9647 12.066 50.0901 11.8636C50.3821 11.5366 50.5843 11.1373 50.6765 10.7058C50.7687 10.2743 50.7476 9.82584 50.6154 9.40524C50.4831 8.98465 50.2443 8.60678 49.923 8.30954C49.6017 8.0123 49.209 7.80615 48.7845 7.71173C48.1821 7.61921 47.5682 7.77312 47.0774 8.13979C46.5865 8.50646 46.2588 9.05596 46.1661 9.66776C46.1074 10.0118 46.0777 10.3603 46.0776 10.7095C46.0776 17.2696 46.0776 23.8221 46.0776 30.3672C46.0511 30.8789 46.1342 31.3902 46.321 31.8661C46.5051 32.3148 46.8219 32.6942 47.2276 32.952C47.6333 33.2098 48.1077 33.3331 48.5854 33.305C49.7655 33.1551 50.7539 32.6755 51.0785 31.5213C51.2204 31.0712 51.2589 30.5939 51.1912 30.1263C51.1234 29.6586 50.9511 29.2129 50.6875 28.8234C50.54 28.6061 50.3187 28.3437 50.6064 28.1414C50.894 27.939 51.0711 28.2463 51.2186 28.4636C51.6506 29.0394 51.8745 29.7485 51.8529 30.4722C51.8375 30.6401 51.8818 30.8081 51.9779 30.9456C52.074 31.0831 52.2155 31.1811 52.3766 31.2216C52.7222 31.375 53.1037 31.4247 53.4762 31.3649C53.8486 31.3052 54.1965 31.1384 54.4788 30.8843C54.8069 30.6225 55.0591 30.2751 55.2085 29.8792C55.3578 29.4833 55.3988 29.0537 55.327 28.636C55.2881 28.4559 55.2389 28.2782 55.1795 28.1039C55.0688 27.7367 55.1795 27.5568 55.5852 27.5643C56.008 27.5514 56.4196 27.4229 56.7767 27.1923C57.1337 26.9617 57.423 26.6376 57.614 26.2541C57.805 25.8705 57.8907 25.4418 57.862 25.0129C57.8334 24.584 57.6915 24.171 57.4513 23.8171C57.2964 23.5848 56.9276 23.3 57.3111 23.0677C57.6947 22.8354 57.8348 23.2401 57.9897 23.4874C58.2599 23.8851 58.4326 24.3426 58.4937 24.8219C58.5547 25.3011 58.5022 25.7882 58.3406 26.2427C58.179 26.6972 57.9129 27.1059 57.5645 27.4348C57.2161 27.7638 56.7954 28.0035 56.3375 28.1339C56.0056 28.2388 55.9318 28.3288 55.9687 28.696C56.0309 29.167 55.9797 29.6463 55.8195 30.0928C55.6592 30.5393 55.3948 30.9397 55.0488 31.2595C54.7029 31.5794 54.2857 31.8091 53.8331 31.9291C53.3805 32.0491 52.906 32.0558 52.4504 31.9485ZM45.3916 23.8171L45.1113 24.1169C44.603 24.6536 43.9089 24.9679 43.1762 24.9931C42.4436 25.0183 41.7301 24.7524 41.1873 24.2518C40.9955 24.0719 40.73 23.8696 40.9734 23.5923C41.2168 23.315 41.3938 23.5923 41.5856 23.7497C41.8395 24.0007 42.1525 24.1814 42.4947 24.2746C42.8369 24.3677 43.1968 24.3702 43.5402 24.2818C44.1032 24.1384 44.598 23.797 44.9369 23.3182C45.2758 22.8395 45.4369 22.2542 45.3916 21.6663C45.3916 17.8591 45.3916 14.0569 45.3916 10.2598C45.3916 8.83586 44.418 7.5918 43.1272 7.64427C41.652 7.70422 40.5087 8.25131 40.2948 9.99001C40.1885 10.7501 40.3734 11.5227 40.8111 12.1484C40.9586 12.3582 41.2168 12.5981 40.8775 12.8154C40.5382 13.0327 40.4202 12.6955 40.2727 12.4931C39.8366 11.8722 39.6044 11.1275 39.6088 10.3647C39.6241 10.2457 39.5987 10.125 39.537 10.0228C39.4752 9.92048 39.3808 9.84279 39.2696 9.80265C39.0294 9.67159 38.7652 9.59258 38.4935 9.57065C38.2218 9.54872 37.9485 9.58436 37.6911 9.67526C37.1119 9.88286 36.6364 10.3136 36.3672 10.8746C36.0981 11.4355 36.057 12.0815 36.2528 12.673C36.3634 13.0777 36.4372 13.4224 35.8397 13.4224C35.3845 13.4253 34.9411 13.5707 34.5702 13.839C34.1993 14.1072 33.9189 14.4852 33.7671 14.9213C33.5985 15.3979 33.5789 15.9156 33.7109 16.4039C33.843 16.8922 34.1202 17.3271 34.5047 17.6492C34.6743 17.8066 34.962 17.8966 34.8882 18.2113C34.8145 18.5261 34.5194 18.4661 34.2908 18.5111C33.7305 18.6219 33.2245 18.9246 32.8575 19.3688C32.4904 19.813 32.2845 20.3717 32.2742 20.9516C32.2638 21.5315 32.4496 22.0975 32.8006 22.5549C33.1515 23.0123 33.6463 23.3335 34.2023 23.4649C34.5732 23.5335 34.9554 23.5002 35.3094 23.3684C35.6634 23.2367 35.9763 23.0112 36.2159 22.7155C36.3855 22.5356 36.5847 22.3183 36.8207 22.5581C37.0568 22.7979 36.8207 23.0077 36.6732 23.1876C36.2025 23.704 35.568 24.0356 34.8809 24.1244C34.7012 24.1273 34.5265 24.1847 34.3793 24.2893C34.0545 24.6128 33.825 25.0221 33.7169 25.471C33.6087 25.9198 33.6261 26.3905 33.7671 26.8299C33.9024 27.2617 34.1586 27.6441 34.5044 27.9303C34.8503 28.2165 35.2707 28.394 35.7143 28.4412C36.5331 28.5011 36.5331 28.5011 36.2823 29.2655C36.1487 29.6324 36.108 30.0276 36.1642 30.4146C36.2204 30.8016 36.3715 31.1681 36.6037 31.4801C36.8359 31.7922 37.1417 32.0399 37.4928 32.2003C37.844 32.3608 38.2292 32.4288 38.6131 32.3982C39.0338 32.3769 39.43 32.191 39.7188 31.8795C40.0075 31.5679 40.1664 31.1549 40.162 30.7269C40.1542 30.0654 40.3674 29.4207 40.7669 28.8983C40.9513 28.6435 41.1504 28.1489 41.5487 28.4786C41.947 28.8084 41.475 29.0032 41.3127 29.2281C40.9816 29.6701 40.798 30.2079 40.7887 30.7633C40.7795 31.3187 40.9449 31.8626 41.2611 32.3158C41.5237 32.7109 41.9032 33.011 42.3447 33.1727C42.7862 33.3343 43.2669 33.3492 43.7172 33.2151C44.2171 33.0397 44.6497 32.7083 44.953 32.2682C45.2564 31.828 45.4151 31.3017 45.4063 30.7644C45.4063 28.4861 45.3916 26.2378 45.3916 23.8171Z" fill="#231F20"/>
<path d="M46.3578 59.3705C46.1956 56.1254 46.1218 52.8804 45.8489 49.6278C45.6276 46.9373 43.4886 46.0979 41.4233 46.5326C41.0564 46.6162 40.7115 46.7793 40.4123 47.0109C40.1132 47.2424 39.8668 47.5369 39.69 47.8741C39.1863 48.8564 38.8213 49.906 38.6057 50.9918C38.5766 51.2333 38.5007 51.4665 38.3824 51.6781C38.2641 51.8897 38.1058 52.0753 37.9165 52.2244C37.7273 52.3735 37.5109 52.483 37.2798 52.5467C37.0487 52.6104 36.8074 52.627 36.57 52.5955C35.7217 52.5955 34.8735 52.5955 34.0252 52.5955C33.8214 52.5805 33.6168 52.5805 33.413 52.5955C33.0977 52.6086 32.7977 52.7372 32.5686 52.9577C32.3394 53.1781 32.1966 53.4755 32.1665 53.7947C32.1665 54.3043 32.4984 54.6715 33.3245 54.7315C35.1565 54.9076 36.9999 54.9226 38.8344 54.7764C39.0547 54.7361 39.2506 54.6096 39.3802 54.4242L40.8996 52.7379C41.0693 52.5581 41.2611 52.2284 41.534 52.4832C41.8069 52.738 41.534 52.9928 41.3348 53.2326C40.9439 53.6748 40.5456 54.1094 40.162 54.5591C39.7785 55.0087 39.749 55.2336 40.2727 55.4884C40.4021 55.5506 40.514 55.645 40.5978 55.763C40.6816 55.8809 40.7347 56.0185 40.7521 56.1629C40.7521 57.317 41.025 58.4861 40.5603 59.6178C40.2287 59.8876 39.812 60.0261 39.3876 60.0075C33.595 60.0075 27.8098 60.0075 22.032 60.0075C21.7488 60.0353 21.4638 59.9794 21.2112 59.8464C20.9586 59.7135 20.7493 59.5091 20.6084 59.2581C20.6084 58.044 20.424 56.8074 20.8518 55.6158C20.9256 55.3985 20.7264 55.2861 20.6232 55.1512C20.1363 54.5441 19.6422 53.9445 19.148 53.345C18.9783 53.1426 18.7423 52.8878 18.9931 52.6555C19.2439 52.4232 19.4577 52.7005 19.6274 52.9103C20.1585 53.5549 20.6969 54.1919 21.2132 54.8514C21.2969 54.9677 21.4089 55.0599 21.5382 55.119C21.6675 55.1781 21.8097 55.2021 21.9508 55.1886C24.0898 55.1886 26.2363 55.1886 28.3753 55.2261C28.6203 55.2639 28.8703 55.2083 29.0774 55.0699C29.2844 54.9315 29.4336 54.7202 29.4964 54.4766C29.5881 54.2234 29.5936 53.9463 29.512 53.6896C29.4304 53.4328 29.2665 53.2112 29.0465 53.0602C28.6833 52.7913 28.2417 52.6541 27.7926 52.6705C26.7452 52.6705 25.6904 52.6705 24.643 52.6705C23.3006 52.6705 22.7253 52.1984 22.327 50.8869C22.045 49.7764 21.6877 48.687 21.2575 47.6268C21.0133 47.0847 20.6219 46.6248 20.1293 46.3008C19.6368 45.9769 19.0635 45.8025 18.4767 45.7981C15.8362 45.6707 14.2651 47.0722 14.1028 49.7552C13.9037 52.9253 13.734 56.103 13.5496 59.2806C13.4832 59.4904 13.3873 59.6778 13.1292 59.6103C12.871 59.5429 12.8858 59.3105 12.9005 59.1082C12.989 57.4444 13.08 55.7856 13.1734 54.1319C13.2693 52.5731 13.3726 51.0217 13.4832 49.4629C13.5567 48.1598 14.1347 46.9393 15.0912 46.068C15.7196 45.6207 16.4383 45.3213 17.1949 45.1917C17.9515 45.0621 18.7271 45.1054 19.4651 45.3185C19.9767 45.4498 20.4525 45.6965 20.8573 46.0403C21.2621 46.3841 21.5855 46.8162 21.8033 47.3045C22.2832 48.4469 22.6777 49.6243 22.9834 50.8269C23.0425 51.0217 23.1236 51.2091 23.19 51.3965C23.261 51.5654 23.3762 51.7114 23.5232 51.8184C23.6701 51.9254 23.8432 51.9895 24.0235 52.0035C25.1716 52.1568 26.3346 52.1568 27.4828 52.0035C27.5344 52.0293 27.5912 52.0427 27.6487 52.0427C27.7063 52.0427 27.7631 52.0293 27.8147 52.0035C27.965 52.0806 28.1355 52.1068 28.3015 52.0784C28.8031 52.1854 29.2745 52.4057 29.6808 52.723C29.9948 53.0662 30.1877 53.5056 30.229 53.9722C30.2704 54.4389 30.158 54.9064 29.9095 55.3011H32.4911C31.3994 54.3792 31.3035 53.8022 32.0116 52.6181C32.5514 52.1437 33.2544 51.9065 33.9662 51.9585C34.7923 51.9585 35.6258 51.9585 36.4519 51.9585C37.4698 51.9585 37.7722 51.7337 38.0304 50.752C38.2783 49.5511 38.7062 48.396 39.2991 47.327C39.5633 46.8902 39.9257 46.5233 40.3565 46.2562C40.7873 45.9892 41.2742 45.8296 41.7774 45.7907C42.4276 45.6914 43.0915 45.7393 43.7214 45.931C44.3513 46.1228 44.9317 46.4536 45.4211 46.8998C46.195 47.8791 46.6142 49.0988 46.6086 50.3547C46.7021 52.0934 46.7906 53.8421 46.8742 55.6008C46.9332 56.7699 46.9774 57.9315 47.0217 59.1007C47.0217 59.2805 47.0733 59.4829 46.8742 59.5953C46.675 59.7077 46.5053 59.5129 46.3578 59.3705ZM30.7061 55.9531V55.8406H22.0983C21.3607 55.8406 21.2575 55.968 21.2427 56.695C21.2427 57.2271 21.2427 57.7667 21.2427 58.2988C21.2427 59.2956 21.2427 59.3555 22.2385 59.3555H39.572C39.9703 59.3555 40.1989 59.1531 40.1842 58.696C40.1842 58.0814 40.1842 57.4669 40.1842 56.8523C40.1842 56.0654 40.0809 55.9606 39.3212 55.9531H30.7061Z" fill="#231F20"/>
<path d="M22.9023 30.3897C24.0382 27.5868 25.1815 24.7914 26.3026 21.981C26.5775 21.3494 26.6929 20.658 26.6384 19.9696C26.584 19.2812 26.3614 18.6175 25.9908 18.0386C25.6202 17.4596 25.1133 16.9838 24.5161 16.6541C23.9189 16.3244 23.2501 16.1512 22.5704 16.1504C21.8328 16.1504 21.0952 16.1504 20.3576 16.1504C20.2199 16.1334 20.0809 16.1683 19.9668 16.2484C19.8526 16.3285 19.7713 16.4482 19.738 16.585C19.5304 17.1556 19.193 17.6682 18.7534 18.0811C18.3137 18.4939 17.7842 18.7953 17.2081 18.9607C16.4258 19.1548 15.601 19.0593 14.8819 18.6911C14.1627 18.323 13.5962 17.7065 13.2841 16.9523C13.2078 16.6749 13.0302 16.4375 12.7877 16.2885C12.5451 16.1395 12.2557 16.0901 11.9785 16.1504C10.7683 16.1039 9.55633 16.1666 8.35695 16.3377C7.44102 16.535 6.59034 16.968 5.88643 17.5953C5.18253 18.2226 4.64901 19.0231 4.33705 19.92C3.08314 23.3375 1.93249 26.7924 0.744967 30.2248C0.740919 30.2872 0.740919 30.3498 0.744967 30.4122C0.604824 30.5846 0.538439 30.9218 0.213898 30.7494C-0.110644 30.5771 0.0516375 30.3522 0.132773 30.1049C1.32768 26.6575 2.49307 23.2026 3.71747 19.7702C4.17029 18.5098 4.99644 17.423 6.08222 16.6593C7.168 15.8957 8.46004 15.4927 9.78051 15.5058H12.6866C12.1998 14.9962 11.8679 14.629 11.1156 14.8239C10.7432 14.9007 10.3564 14.8505 10.015 14.6811C9.67356 14.5117 9.39669 14.2326 9.22731 13.8871C9.01334 13.5706 8.90378 13.1932 8.91438 12.8094C8.92498 12.4255 9.05522 12.055 9.28633 11.7512C9.39743 11.6167 9.46772 11.4524 9.48867 11.2781C9.50962 11.1038 9.48033 10.9271 9.40435 10.7694C8.99874 9.57663 8.99609 8.28052 9.39685 7.08606C9.79762 5.8916 10.5789 4.867 11.6171 4.17435C12.6571 3.42491 13.734 2.7429 14.8035 2.04593C14.9821 1.91063 15.1865 1.81473 15.4037 1.76429C15.6208 1.71386 15.8459 1.71001 16.0646 1.75304C16.2833 1.79607 16.4908 1.88503 16.6737 2.01418C16.8566 2.14334 17.011 2.30987 17.127 2.50312C17.6654 3.25256 18.1965 4.04694 18.7128 4.82636C18.755 4.92293 18.8321 4.99934 18.9282 5.03979C19.0243 5.08024 19.132 5.08161 19.2291 5.04368C19.6383 4.9186 20.0766 4.93377 20.4765 5.08681C20.8764 5.23985 21.2156 5.52226 21.4419 5.89055C21.6797 6.23992 21.7951 6.66033 21.7697 7.08432C21.7443 7.50832 21.5795 7.91132 21.3017 8.22879C21.2307 8.29987 21.1849 8.39294 21.1716 8.49332C21.1582 8.59369 21.1781 8.69573 21.228 8.78341C21.4401 9.3145 21.5839 9.87116 21.6558 10.4396C21.7166 11.4123 21.5365 12.385 21.1319 13.2687C20.7273 14.1525 20.1112 14.919 19.3398 15.4983H22.4671C23.1922 15.4943 23.9094 15.6503 24.5693 15.9555C25.6761 16.4382 26.5517 17.3437 27.0071 18.4767C27.4625 19.6096 27.4612 20.879 27.0034 22.011C26.5395 23.1625 26.328 24.4028 26.3838 25.6458C26.4207 27.0997 26.3838 28.561 26.3838 30.015C26.3838 30.2248 26.3838 30.4571 26.1404 30.5096C25.897 30.5621 25.7937 30.3597 25.7347 30.1498V25.4884H25.6241L23.8243 30.0599C23.7579 30.1948 23.6915 30.3372 23.6104 30.4721C23.3523 30.8169 23.131 30.7944 22.9023 30.3897ZM16.1017 15.8806C16.3688 15.8676 16.6349 15.8376 16.8983 15.7906C17.6415 15.667 18.3462 15.3691 18.9563 14.9204C19.5665 14.4718 20.0653 13.8849 20.4133 13.2062C20.7612 12.5275 20.9487 11.7758 20.9608 11.0107C20.9729 10.2456 20.8093 9.48806 20.483 8.79837C20.3429 8.46112 20.2986 8.22882 20.6158 7.93654C20.8628 7.73451 21.0241 7.44396 21.0666 7.12471C21.1092 6.80546 21.0297 6.48178 20.8444 6.2203C20.6647 5.94547 20.3935 5.74568 20.0806 5.65758C19.7676 5.56948 19.4339 5.59902 19.1406 5.7407C18.7349 5.94304 18.5358 5.8381 18.3071 5.47837C17.7539 4.62401 17.1712 3.78464 16.5811 2.95276C16.5126 2.80744 16.4114 2.68055 16.2857 2.58234C16.1599 2.48413 16.0132 2.41735 15.8574 2.38744C15.7016 2.35752 15.541 2.3653 15.3887 2.41013C15.2363 2.45495 15.0965 2.53561 14.9806 2.64551L12.2146 4.50411C11.1213 5.13426 10.3031 6.16125 9.9241 7.37895C9.54513 8.59665 9.63348 9.91494 10.1714 11.0692C10.2469 11.1886 10.2744 11.3329 10.2483 11.4723C10.2223 11.6117 10.1446 11.7356 10.0313 11.8186C9.77545 12.0245 9.60479 12.3202 9.55291 12.6476C9.50103 12.975 9.57172 13.3102 9.75102 13.5873C9.92249 13.8571 10.1831 14.056 10.486 14.148C10.7888 14.2401 11.1141 14.2193 11.4032 14.0894C11.8605 13.8646 12.0818 14.0145 12.3842 14.3292C12.8684 14.8339 13.4496 15.2321 14.0917 15.499C14.7337 15.7659 15.4229 15.8957 16.1164 15.8806H16.1017ZM19.2733 15.6932C17.3777 16.4951 15.519 16.9148 13.6013 15.993C13.7377 16.6486 14.0809 17.2411 14.5787 17.6807C15.0766 18.1203 15.7019 18.3828 16.3599 18.4287C17.6359 18.4587 18.9267 17.3045 19.2881 15.6932H19.2733Z" fill="#231F20"/>
<path d="M57.0972 10.2898C57.3532 10.7604 57.4637 11.2984 57.4144 11.8337C57.3554 12.3058 57.525 12.4182 57.9823 12.4182C60.3869 12.4182 62.7915 12.4182 65.2034 12.4182H65.6238C65.6694 12.4108 65.7159 12.4132 65.7604 12.4255C65.8049 12.4377 65.8464 12.4594 65.882 12.4892C65.9175 12.519 65.9465 12.5561 65.9668 12.5982C65.9872 12.6402 65.9985 12.6862 66 12.733C66 12.9353 65.8451 13.0553 65.6238 13.0478H65.2034C63.684 13.0478 62.1645 13.0478 60.6524 13.0478C60.2763 13.0478 60.0919 13.1152 60.1361 13.5424C60.1656 13.9941 60.1656 14.4472 60.1361 14.8989C60.1361 15.2136 60.232 15.3486 60.5492 15.3336C61.5597 15.2736 62.3858 15.5209 62.762 16.6076C62.8726 16.9149 63.234 16.72 63.4996 16.7575C63.7651 16.7949 64.2814 16.6526 64.2962 17.0798C64.3109 17.5069 63.8167 17.417 63.5586 17.402C63.3677 17.3658 63.1704 17.4023 63.0044 17.5046C62.8384 17.6069 62.7153 17.7679 62.6587 17.9566C62.4818 18.3083 62.1988 18.5933 61.8511 18.7699C61.5034 18.9466 61.1093 19.0056 60.7262 18.9384C60.3205 18.9384 60.1288 19.0133 60.1804 19.4704C60.232 19.9276 59.9591 20.737 60.2836 21.0742C60.6082 21.4115 61.3163 21.1417 61.8621 21.1717C61.958 21.1717 62.0613 21.1717 62.1645 21.1717C62.4374 21.1717 62.9021 21.0218 62.8652 21.4939C62.8283 21.9661 62.4522 21.7937 62.1866 21.8012C61.1983 21.8012 60.2025 21.8012 59.2363 21.8012C58.7273 21.8012 58.2258 21.8012 57.7168 21.8012C57.2079 21.8012 56.8833 21.5239 56.8612 20.9318C56.8612 20.662 56.8612 20.3922 56.8612 20.1299C56.8523 19.8405 56.7367 19.565 56.5372 19.3581C56.3377 19.1513 56.069 19.0282 55.7843 19.0133C55.636 19.0068 55.4881 19.0319 55.35 19.087C55.2118 19.1422 55.0866 19.2261 54.9824 19.3334C54.8781 19.4408 54.7972 19.5691 54.7447 19.7102C54.6923 19.8512 54.6695 20.0019 54.6779 20.1524C54.7443 22.0935 54.1616 21.8012 52.9225 21.8012C51.1153 21.8012 51.1153 21.8012 51.1153 19.9726V19.7927C51.1153 18.2938 51.1153 18.2938 52.5463 18.2938C53.3281 18.2938 53.8371 17.7992 53.8223 17.1247C53.8076 16.4502 53.3134 16.038 52.5463 16.023C52.325 16.023 52.1037 16.023 51.8824 16.023C51.7817 16.0232 51.6821 16.0025 51.5896 15.962C51.4971 15.9216 51.4137 15.8623 51.3446 15.7879C51.2755 15.7134 51.2221 15.6254 51.1877 15.5292C51.1534 15.4331 51.1388 15.3308 51.1448 15.2286C51.1448 14.5766 51.1448 13.9171 51.1448 13.2576C51.1377 13.1481 51.1542 13.0384 51.1934 12.9362C51.2325 12.8339 51.2933 12.7417 51.3714 12.6659C51.4495 12.5902 51.543 12.5327 51.6453 12.4977C51.7476 12.4627 51.8563 12.4509 51.9636 12.4632C52.4279 12.4369 52.8933 12.4369 53.3576 12.4632C53.8739 12.5082 54.1395 12.3733 54.0288 11.8037C54.0211 11.7415 54.0211 11.6785 54.0288 11.6163C54.0088 11.3536 54.0451 11.0896 54.1352 10.8426C54.2253 10.5955 54.3671 10.3712 54.5509 10.1852C54.7346 9.99928 54.9558 9.85601 55.1994 9.76538C55.4429 9.67475 55.7029 9.63892 55.9613 9.66031C57.3185 9.66031 58.6757 9.66031 60.0255 9.66031C60.291 9.66031 60.6377 9.66031 60.6303 9.99007C60.6229 10.3198 60.2984 10.3273 60.0329 10.3273L57.0972 10.2898ZM59.487 14.2469C59.4723 14.0423 59.4723 13.8369 59.487 13.6323C59.546 13.1527 59.369 12.9728 58.8822 13.0178C58.3954 13.0627 57.9971 13.0178 57.5472 13.0178C57.3515 13.0178 57.1639 12.9388 57.0256 12.7983C56.8873 12.6577 56.8096 12.4671 56.8096 12.2683C56.8096 11.9536 56.8096 11.6463 56.8096 11.339C56.7943 11.0488 56.6675 10.7762 56.4564 10.58C56.2454 10.3838 55.9669 10.2796 55.681 10.2898C55.5393 10.2908 55.3992 10.3204 55.2689 10.3768C55.1385 10.4333 55.0205 10.5155 54.9216 10.6187C54.8228 10.7219 54.7452 10.844 54.6932 10.978C54.6412 11.1119 54.616 11.2551 54.6189 11.399C54.6189 11.6463 54.6189 11.8936 54.6189 12.1485C54.6189 12.8005 54.3534 13.0328 53.719 13.0403C53.2396 13.0403 52.7528 13.0403 52.2439 13.0403C51.7349 13.0403 51.6316 13.1452 51.6907 13.5874C51.698 13.7322 51.698 13.8773 51.6907 14.022C51.6279 14.3854 51.6405 14.758 51.7275 15.1162C51.9267 15.5134 52.4283 15.2436 52.7823 15.3186C53.2086 15.3569 53.6062 15.5528 53.8998 15.8691C54.1935 16.1854 54.3627 16.6001 54.3755 17.0348C54.3833 17.4704 54.2397 17.8948 53.9698 18.2334C53.7 18.572 53.3213 18.8031 52.9003 18.8859C52.4946 18.9983 51.9119 18.6236 51.7128 19.1407C51.6223 19.5821 51.6098 20.0364 51.6759 20.4822C51.6759 20.5871 51.6759 20.6845 51.6759 20.7894C51.6759 21.0443 51.7644 21.1717 52.0299 21.1567C52.2955 21.1417 52.4356 21.1567 52.6348 21.1567C53.0331 21.1567 53.5125 21.3216 53.8149 21.0742C54.1173 20.8269 53.8518 20.3698 53.9403 20.0175C53.9403 19.9351 53.9403 19.8527 53.9846 19.7777C54.0656 19.3607 54.2929 18.9879 54.6242 18.7284C54.9555 18.4689 55.3683 18.3405 55.7858 18.3671C56.2033 18.3937 56.597 18.5734 56.8939 18.8728C57.1907 19.1723 57.3705 19.5711 57.3996 19.995C57.5029 21.1642 57.5029 21.1642 58.6683 21.1642C58.8108 21.1567 58.9536 21.1567 59.0961 21.1642C59.3838 21.1642 59.4944 21.0668 59.487 20.7745C59.487 20.2349 59.487 19.7028 59.487 19.1707C59.4715 19.052 59.4821 18.9314 59.518 18.8174C59.5539 18.7034 59.6142 18.5989 59.6946 18.5115C59.7751 18.424 59.8736 18.3558 59.9831 18.3117C60.0926 18.2676 60.2103 18.2487 60.3279 18.2563C60.527 18.2563 60.7336 18.2563 60.9327 18.2563C61.7146 18.2563 62.1793 17.8142 62.1793 17.1322C62.1793 16.4502 61.7146 15.9931 60.9106 15.9781C59.5682 15.9781 59.487 15.8657 59.487 14.4792V14.2469Z" fill="#231F20"/>
<path d="M5.07463 30.4497L7.39807 23.8621L7.59722 23.285C7.67098 23.0827 7.76687 22.8728 8.01765 22.9553C8.26843 23.0377 8.2758 23.27 8.19467 23.5099C7.95864 24.1843 7.75949 24.8813 7.45707 25.5333C7.15385 26.2728 7.01532 27.0713 7.0514 27.8716C7.0514 28.711 7.0514 29.5578 7.0514 30.3972C6.99977 30.5845 6.91864 30.7344 6.68261 30.6895C6.44658 30.6445 6.40232 30.4871 6.40232 30.2848C6.41606 29.8084 6.38643 29.3317 6.31381 28.8609C6.10728 29.4154 5.90076 29.97 5.71636 30.5321C5.63522 30.7569 5.56884 30.9593 5.2738 30.9218C4.97876 30.8843 5.10414 30.6295 5.07463 30.4497Z" fill="#231F20"/>
<path d="M6.67523 7.98904C6.67823 7.16788 6.85345 6.3568 7.18922 5.60986C7.52499 4.86292 8.01362 4.19725 8.6225 3.65727L8.85851 3.46241C9.04291 3.335 9.24206 3.29004 9.38958 3.46241C9.5371 3.63478 9.38959 3.80714 9.24207 3.92705C8.56709 4.48665 8.0356 5.20413 7.69312 6.01802C7.21366 7.15841 7.17676 8.44091 7.58984 9.60781C7.67098 9.84013 7.79638 10.1249 7.50872 10.2523C7.22106 10.3797 7.08091 10.065 6.99978 9.81767C6.78977 9.23139 6.68 8.61293 6.67523 7.98904Z" fill="#231F20"/>
<path d="M3.99038 5.59834C4.19827 4.87225 4.47751 4.1692 4.82386 3.49988C5.49849 2.20936 6.43648 1.08004 7.5751 0.187376C7.75212 0.0374882 7.95127 -0.104887 8.15042 0.11245C8.34958 0.329787 8.15043 0.532128 7.99554 0.667027C6.37847 1.94684 5.19909 3.71151 4.62472 5.71073C4.55096 5.95804 4.41819 6.05548 4.18216 6.00302C3.94613 5.95056 4.00513 5.76322 3.99038 5.59834Z" fill="#231F20"/>
<path d="M23.8907 9.57787C24.2277 10.3464 24.3575 11.1921 24.2667 12.0284C24.176 12.8646 23.868 13.6613 23.3744 14.3368C23.2035 14.5631 23.0161 14.776 22.8138 14.9738C22.681 15.1237 22.5188 15.1986 22.3417 15.0338C22.1647 14.8689 22.2164 14.6665 22.3786 14.5091C22.9646 13.9413 23.3748 13.212 23.5588 12.4107C23.7689 11.5296 23.6424 10.6003 23.2047 9.81019C23.2047 9.62283 23.2047 9.42798 23.3891 9.33804C23.5735 9.24811 23.7432 9.46545 23.8907 9.57787Z" fill="#231F20"/>
<path d="M3.62157 8.93335C3.75434 8.67105 3.38555 8.12397 3.90186 8.10148C4.41818 8.079 4.22641 8.6411 4.24853 8.96336C4.32423 9.98735 4.53767 10.996 4.88288 11.9611C4.97139 12.2084 5.07466 12.4557 4.75011 12.5606C4.42557 12.6656 4.36656 12.4108 4.28543 12.1934C3.90168 11.1475 3.67779 10.0481 3.62157 8.93335Z" fill="#231F20"/>
<path d="M26.3543 8.83585C26.3026 9.12814 26.7747 9.58526 26.2289 9.69768C25.6831 9.8101 25.8601 9.24052 25.7126 8.94824C25.6859 8.89498 25.6537 8.84473 25.6167 8.79835C25.5351 8.46351 25.4163 8.13919 25.2626 7.83159C25.1963 7.64423 25.211 7.44188 25.4101 7.35944C25.4531 7.34184 25.4992 7.33358 25.5454 7.33515C25.5917 7.33672 25.6371 7.34807 25.6788 7.36854C25.7205 7.38901 25.7575 7.41813 25.7874 7.45399C25.8174 7.48985 25.8396 7.53165 25.8527 7.57676C26.0297 8.01143 26.1846 8.42366 26.3543 8.83585Z" fill="#231F20"/>
<path d="M61.6113 10.2897H61.2573C61.036 10.2897 60.8368 10.1923 60.8442 9.94502C60.8516 9.69771 61.0655 9.63025 61.2794 9.61527H61.5818C61.8473 9.61527 62.2383 9.51783 62.2456 9.93002C62.253 10.3422 61.8326 10.2448 61.6113 10.2897Z" fill="#231F20"/>
<path d="M19.2143 34.8114C20.2249 34.8114 21.2353 34.8114 22.2459 34.8114C22.9834 34.8114 23.3228 35.1487 23.3006 35.9056C23.3489 36.9076 23.297 37.912 23.1457 38.9033C22.9466 39.7877 23.1457 40.672 22.8655 41.5413C22.5809 42.4548 21.978 43.2314 21.17 43.7254C20.362 44.2194 19.4044 44.3968 18.4768 44.2243C17.5925 44.0338 16.7994 43.5406 16.2301 42.8271C15.6609 42.1137 15.35 41.2232 15.3494 40.3048C15.3125 38.9258 15.1207 37.5468 15.0986 36.1604C15.0986 35.1112 15.3125 34.8264 16.3377 34.8189L19.2143 34.8114ZM19.2143 35.4634C18.2481 35.4634 17.2745 35.4634 16.3082 35.4634C15.9025 35.4634 15.7108 35.5533 15.7403 36.0105C15.7993 36.9098 15.8362 37.8092 15.8509 38.7085C15.8509 39.0832 16.0132 39.2106 16.3672 39.2106C18.2604 39.2106 20.1585 39.2106 22.0615 39.2106C22.3712 39.2106 22.5483 39.1132 22.5557 38.761C22.5557 37.8541 22.622 36.9548 22.6737 36.0554C22.6737 35.6283 22.5409 35.4784 22.1205 35.4859C21.1764 35.4784 20.2027 35.4634 19.2143 35.4634ZM19.2143 39.8476C18.3292 39.8476 17.4368 39.8476 16.5516 39.8476C16.1238 39.8476 15.9911 39.9675 15.9984 40.3947C16.038 41.2313 16.3928 42.0204 16.9895 42.5983C17.5862 43.1761 18.3789 43.4985 19.2033 43.4985C20.0276 43.4985 20.8203 43.1761 21.417 42.5983C22.0137 42.0204 22.3686 41.2313 22.4081 40.3947C22.4081 40.05 22.3122 39.8252 21.8844 39.8401C21.0141 39.8701 20.129 39.8476 19.2143 39.8476Z" fill="#231F20"/>
<path d="M30.0054 45.3934C28.2786 45.3708 26.5526 45.481 24.8422 45.7232C24.2816 45.7682 24.1415 45.6333 24.3849 45.1236C24.5757 44.7483 24.6753 44.332 24.6753 43.9096C24.6753 43.4871 24.5757 43.0708 24.3849 42.6955C24.1432 42.0965 24.0475 41.447 24.1061 40.8024C24.1647 40.1578 24.3757 39.5371 24.7212 38.9932C25.0667 38.4493 25.5365 37.9983 26.0906 37.6786C26.6446 37.3589 27.2665 37.18 27.9032 37.1571C29.5164 37.0371 31.1361 37.0371 32.7492 37.1571C33.2748 37.1821 33.7903 37.3123 34.266 37.5405C34.7418 37.7686 35.1685 38.0901 35.5216 38.4864C35.8746 38.8828 36.147 39.3461 36.3231 39.8498C36.4993 40.3535 36.5756 40.8876 36.5478 41.4214C36.4986 42.4879 36.0477 43.4942 35.2884 44.2322C34.5292 44.9702 33.5197 45.3833 32.4689 45.3859C31.7535 45.4084 31.0159 45.3934 30.0054 45.3934ZM25.0635 45.0487C27.5589 44.7387 30.0745 44.6285 32.587 44.7189C33.4742 44.6862 34.315 44.3074 34.9345 43.6612C35.554 43.015 35.9046 42.1511 35.9135 41.2491C35.9118 40.3482 35.5639 39.4835 34.9438 38.8396C34.3238 38.1956 33.4807 37.8231 32.5943 37.8016C31.0749 37.8016 29.5628 37.8016 28.0434 37.8016C27.5026 37.8086 26.9714 37.9483 26.4952 38.2088C26.019 38.4693 25.6118 38.8429 25.3082 39.2977C25.0047 39.7526 24.8139 40.2752 24.752 40.8211C24.6902 41.3671 24.759 41.9201 24.9528 42.4331C25.3143 43.325 25.8011 44.0894 25.0635 45.0487Z" fill="#231F20"/>
<path d="M41.3422 45.1012C40.6699 45.0923 40.0151 44.8815 39.4604 44.4954C38.9057 44.1093 38.4759 43.565 38.2249 42.9311C37.974 42.2973 37.9133 41.6022 38.0503 40.9334C38.1873 40.2645 38.516 39.6518 38.9951 39.1724C39.4741 38.693 40.082 38.3682 40.7423 38.2391C41.4026 38.1099 42.0857 38.1821 42.7056 38.4466C43.3256 38.7111 43.8547 39.156 44.2263 39.7254C44.598 40.2947 44.7955 40.9631 44.7941 41.6463C44.7749 42.5655 44.4035 43.4409 43.7588 44.0861C43.1141 44.7313 42.2471 45.0955 41.3422 45.1012ZM41.3053 44.4641C42.0499 44.4606 42.7639 44.163 43.2966 43.6344C43.8292 43.1058 44.1388 42.3875 44.1598 41.6313C44.1229 40.8983 43.8103 40.2077 43.2866 39.7022C42.763 39.1967 42.0682 38.9149 41.3459 38.9149C40.6236 38.9149 39.9288 39.1967 39.4051 39.7022C38.8815 40.2077 38.5689 40.8983 38.532 41.6313C38.5504 42.3728 38.847 43.0792 39.3612 43.6058C39.8754 44.1325 40.5682 44.4395 41.2979 44.4641H41.3053Z" fill="#231F20"/>
<path d="M18.0932 30.3897C18.0354 30.1338 18.0777 29.865 18.2112 29.6403C19.1406 27.4669 20.0724 25.2936 21.0067 23.1202C21.0805 22.9403 21.1247 22.7155 21.3534 22.648C21.4101 22.6261 21.4725 22.6245 21.5302 22.6436C21.5879 22.6626 21.6374 22.7012 21.6705 22.7529C21.7886 22.9328 21.7074 23.1052 21.6337 23.2775C20.8961 25.0537 20.1068 26.8374 19.3471 28.6135C19.089 29.2131 18.8308 29.8126 18.5653 30.4047C18.4106 30.4524 18.2447 30.4471 18.0932 30.3897Z" fill="#231F20"/>
<path d="M23.7948 29.985L25.5945 25.4135H25.7052V30.1049C25.0661 30.1622 24.4221 30.1218 23.7948 29.985Z" fill="#FACB62"/>
<path d="M26.7009 11.8187C26.6334 12.8764 26.3838 13.9138 25.9633 14.8839C25.8601 15.1162 25.7347 15.3635 25.4323 15.2211C25.1299 15.0787 25.2626 14.8539 25.3659 14.6441C25.7693 13.7312 26.0187 12.7558 26.1035 11.7587C26.1035 11.5414 26.1035 11.2641 26.4133 11.2716C26.7231 11.2791 26.7157 11.5639 26.7009 11.8187Z" fill="#231F20"/>
<path d="M45.3916 23.8172C45.3916 26.2304 45.3916 28.4937 45.3916 30.7495C45.4003 31.2867 45.2417 31.8131 44.9383 32.2532C44.635 32.6933 44.2024 33.0248 43.7025 33.2001C43.2522 33.3342 42.7715 33.3194 42.33 33.1577C41.8885 32.9961 41.509 32.696 41.2463 32.3008C40.9302 31.8476 40.7647 31.3038 40.774 30.7484C40.7833 30.193 40.9669 29.6551 41.298 29.2131C41.4602 28.9883 41.8733 28.7409 41.534 28.4637C41.1947 28.1864 40.9365 28.6286 40.7521 28.8834C40.3527 29.4058 40.1394 30.0504 40.1473 30.712C40.1516 31.1399 39.9928 31.5529 39.704 31.8645C39.4153 32.176 39.019 32.362 38.5984 32.3832C38.2145 32.4139 37.8293 32.3458 37.4781 32.1854C37.1269 32.0249 36.8212 31.7773 36.589 31.4652C36.3568 31.1531 36.2056 30.7867 36.1495 30.3996C36.0933 30.0126 36.1339 29.6175 36.2675 29.2506C36.5183 28.5012 36.5183 28.5011 35.6996 28.4262C35.256 28.379 34.8355 28.2015 34.4897 27.9153C34.1438 27.6292 33.8876 27.2468 33.7523 26.8149C33.6113 26.3755 33.594 25.9049 33.7021 25.456C33.8103 25.0071 34.0397 24.5978 34.3646 24.2743C34.5118 24.1697 34.6865 24.1123 34.8661 24.1094C35.5533 24.0206 36.1878 23.689 36.6585 23.1726C36.8207 22.9928 37.042 22.7904 36.806 22.5431C36.57 22.2958 36.3708 22.5431 36.2012 22.7005C35.9616 22.9963 35.6487 23.2217 35.2947 23.3534C34.9407 23.4852 34.5584 23.5185 34.1875 23.45C33.6315 23.3186 33.1367 22.9974 32.7858 22.5399C32.4349 22.0825 32.2491 21.5166 32.2594 20.9367C32.2698 20.3568 32.4757 19.798 32.8427 19.3538C33.2098 18.9097 33.7157 18.6069 34.2761 18.4961C34.5047 18.4512 34.7997 18.4962 34.8735 18.1964C34.9473 17.8966 34.6596 17.7917 34.4899 17.6343C34.1054 17.3122 33.8282 16.8772 33.6962 16.3889C33.5642 15.9007 33.5838 15.3829 33.7523 14.9063C33.9041 14.4702 34.1846 14.0922 34.5555 13.824C34.9264 13.5558 35.3697 13.4103 35.825 13.4075C36.4224 13.4075 36.3487 13.0777 36.238 12.658C36.0422 12.0666 36.0834 11.4206 36.3525 10.8596C36.6216 10.2987 37.0972 9.86789 37.6764 9.66028C37.9338 9.56938 38.207 9.53378 38.4787 9.55571C38.7504 9.57764 39.0147 9.65661 39.2548 9.78767C39.3661 9.82781 39.4605 9.9055 39.5222 10.0078C39.584 10.1101 39.6093 10.2308 39.5941 10.3498C39.5896 11.1125 39.8219 11.8573 40.2579 12.4782C40.4055 12.6805 40.5382 13.0103 40.8628 12.8004C41.1873 12.5906 40.9439 12.3433 40.7964 12.1334C40.3586 11.5077 40.1738 10.7351 40.2801 9.97503C40.494 8.23634 41.652 7.68924 43.1124 7.62929C44.4032 7.57683 45.3769 8.82089 45.3769 10.2448C45.3769 14.047 45.3769 17.8491 45.3769 21.6513C45.4222 22.2392 45.2611 22.8245 44.9222 23.3033C44.5833 23.782 44.0885 24.1234 43.5255 24.2668C43.1821 24.3552 42.8221 24.3527 42.4799 24.2596C42.1377 24.1664 41.8247 23.9857 41.5709 23.7347C41.3791 23.5773 41.1873 23.3225 40.9587 23.5773C40.73 23.8322 40.9586 24.057 41.1725 24.2369C41.7154 24.7374 42.4289 25.0033 43.1615 24.9782C43.8941 24.953 44.5883 24.6387 45.0966 24.102L45.3916 23.8172ZM39.5425 18.1814C39.5168 18.9301 39.7548 19.6635 40.2137 20.2498C40.3465 20.4222 40.5013 20.6545 40.7595 20.4747C41.0177 20.2948 40.8775 20.0625 40.7595 19.8526C40.3575 19.358 40.1521 18.7286 40.1835 18.088C40.2148 17.4473 40.4808 16.8418 40.9292 16.3902C41.0693 16.2253 41.3127 16.0605 41.084 15.8281C40.8554 15.5958 40.612 15.7757 40.4202 15.9855C40.1381 16.2743 39.9153 16.6171 39.7646 16.994C39.6139 17.371 39.5384 17.7746 39.5425 18.1814ZM44.1451 27.6318C44.086 27.5044 44.0492 27.3845 43.9164 27.3395C43.4135 27.3378 42.9229 27.4978 42.515 27.7967C42.4806 27.849 42.4587 27.9088 42.451 27.9712C42.4433 28.0337 42.4501 28.0971 42.4707 28.1564C42.4791 28.187 42.4935 28.2155 42.5131 28.2402C42.5327 28.2648 42.5571 28.2852 42.5848 28.2999C42.6124 28.3147 42.6427 28.3235 42.6739 28.3259C42.705 28.3283 42.7363 28.3242 42.7658 28.3138C43.1788 28.1789 43.5992 28.0365 44.0049 27.8791C44.0787 27.8491 44.1008 27.7367 44.1451 27.6318ZM42.5002 13.8571C42.8912 13.8571 43.0829 13.8571 43.1198 13.5798C43.1567 13.3025 43.0018 13.2726 42.7953 13.2351C42.4781 13.1827 42.1683 13.0852 41.8585 13.0252C41.6741 13.0252 41.4676 13.0252 41.4012 13.2126C41.3783 13.2941 41.3879 13.3815 41.4279 13.4558C41.468 13.5302 41.5352 13.5855 41.6151 13.6098C41.9618 13.7297 42.3158 13.8047 42.5002 13.8571ZM36.002 18.3163C35.9425 18.3029 35.8802 18.3113 35.8262 18.3401C35.7722 18.3689 35.7299 18.4163 35.707 18.4737C35.6778 18.5268 35.6657 18.5878 35.6723 18.6483C35.6789 18.7087 35.7039 18.7656 35.7439 18.8109C35.9725 19.0657 36.2085 19.3131 36.4815 19.5604C36.5354 19.6088 36.6049 19.6356 36.6769 19.6356C36.7489 19.6356 36.8184 19.6088 36.8724 19.5604C36.9444 19.4936 36.9913 19.4035 37.0051 19.3055C37.0051 19.0582 36.2676 18.3238 36.002 18.3163Z" fill="#FFDDB5"/>
<path d="M30.7061 55.9531H39.3212C40.0588 55.9531 40.1842 56.0655 40.1842 56.8524C40.1842 57.4669 40.1842 58.0815 40.1842 58.696C40.1842 59.1532 39.9703 59.333 39.572 59.3555H22.2237C21.2501 59.3555 21.2059 59.2956 21.228 58.2988C21.228 57.7667 21.228 57.2271 21.228 56.695C21.228 55.9456 21.3755 55.8406 22.0836 55.8406H30.6913L30.7061 55.9531Z" fill="#FACB62"/>
<path d="M16.1164 15.8805C15.4224 15.8947 14.7329 15.7637 14.0908 15.4955C13.4487 15.2274 12.8678 14.8278 12.3842 14.3217C12.0818 14.0069 11.8605 13.8571 11.4032 14.0819C11.1141 14.2118 10.7888 14.2326 10.4859 14.1405C10.1831 14.0485 9.92248 13.8496 9.75101 13.5798C9.57171 13.3027 9.50102 12.9675 9.5529 12.6401C9.60478 12.3127 9.77544 12.017 10.0313 11.8111C10.1446 11.7281 10.2222 11.6041 10.2483 11.4647C10.2744 11.3253 10.2469 11.1811 10.1714 11.0617C9.63347 9.90741 9.54512 8.58912 9.92408 7.37142C10.303 6.15372 11.1213 5.12673 12.2146 4.49658L14.9953 2.63799C15.1113 2.52808 15.2511 2.44743 15.4034 2.4026C15.5557 2.35777 15.7163 2.34999 15.8721 2.37991C16.028 2.40983 16.1747 2.47661 16.3004 2.57482C16.4262 2.67303 16.5274 2.79991 16.5959 2.94524C17.186 3.77711 17.7687 4.61648 18.3219 5.47084C18.5505 5.83057 18.7497 5.93552 19.1553 5.73317C19.4486 5.59149 19.7823 5.562 20.0953 5.6501C20.4083 5.7382 20.6795 5.93799 20.8592 6.21282C21.0444 6.4743 21.1239 6.79794 21.0814 7.11719C21.0389 7.43643 20.8775 7.72699 20.6305 7.92902C20.3134 8.2213 20.3576 8.4536 20.4977 8.79084C20.824 9.48053 20.9876 10.238 20.9755 11.0032C20.9634 11.7683 20.7759 12.52 20.428 13.1987C20.0801 13.8774 19.5812 14.4643 18.9711 14.9129C18.3609 15.3615 17.6563 15.6595 16.913 15.7831C16.6498 15.8326 16.3837 15.8651 16.1164 15.8805Z" fill="#FFDDB5"/>
<path d="M19.2881 15.6932C18.9267 17.3045 17.6359 18.4587 16.3377 18.4287C15.6797 18.3829 15.0544 18.1203 14.5566 17.6807C14.0588 17.2412 13.7156 16.6487 13.5791 15.993C15.5264 16.9148 17.3925 16.4951 19.2881 15.6932Z" fill="#FFDDB5"/>
<path d="M59.487 14.2468V14.4342C59.487 15.8207 59.5682 15.9331 60.9106 15.9331C61.7146 15.9331 62.1866 16.3752 62.1793 17.0872C62.1719 17.7992 61.7146 18.1889 60.9327 18.2114C60.7336 18.2114 60.527 18.2114 60.3279 18.2114C60.2103 18.2037 60.0926 18.2226 59.9831 18.2667C59.8736 18.3108 59.7751 18.3791 59.6946 18.4665C59.6142 18.554 59.5539 18.6584 59.518 18.7724C59.4821 18.8864 59.4715 19.0071 59.487 19.1257C59.487 19.6578 59.487 20.1899 59.487 20.7295C59.487 21.0218 59.3838 21.1417 59.0961 21.1192C58.9536 21.1118 58.8108 21.1118 58.6683 21.1192C57.5029 21.1192 57.5029 21.1192 57.3996 19.9501C57.3705 19.5261 57.1907 19.1273 56.8939 18.8278C56.597 18.5284 56.2032 18.3487 55.7858 18.3221C55.3683 18.2955 54.9555 18.4239 54.6242 18.6834C54.2929 18.9429 54.0656 19.3158 53.9846 19.7327C53.9846 19.8077 53.9846 19.8901 53.9403 19.9726C53.8518 20.3248 54.0952 20.8044 53.8149 21.0293C53.5346 21.2541 53.0331 21.0892 52.6348 21.1117C52.4356 21.1117 52.2291 21.1117 52.0299 21.1117C51.8308 21.1117 51.6612 20.9993 51.6759 20.7445C51.6759 20.6395 51.6759 20.5421 51.6759 20.4372C51.6098 19.9914 51.6222 19.5371 51.7128 19.0957C51.9119 18.5786 52.4946 18.9533 52.9003 18.8409C53.3213 18.7581 53.7 18.527 53.9698 18.1884C54.2397 17.8498 54.3833 17.4254 54.3755 16.9898C54.3627 16.5551 54.1935 16.1404 53.8998 15.8241C53.6062 15.5078 53.2086 15.3119 52.7823 15.2736C52.4283 15.1986 51.9267 15.4684 51.7275 15.0712C51.6405 14.7131 51.6279 14.3404 51.6906 13.9771C51.698 13.8323 51.698 13.6872 51.6906 13.5424C51.6316 13.1002 51.8308 12.9728 52.2438 12.9953C52.6569 13.0178 53.2175 12.9953 53.719 12.9953C54.3534 12.9953 54.5894 12.7555 54.6189 12.1035C54.6189 11.8562 54.6189 11.6088 54.6189 11.354C54.616 11.2101 54.6412 11.0669 54.6932 10.933C54.7452 10.799 54.8228 10.6769 54.9216 10.5737C55.0205 10.4705 55.1385 10.3883 55.2688 10.3318C55.3992 10.2754 55.5393 10.2458 55.681 10.2448C55.9669 10.2346 56.2454 10.3388 56.4564 10.535C56.6675 10.7312 56.7943 11.0038 56.8096 11.2941C56.8096 11.6013 56.8096 11.9086 56.8096 12.2234C56.8096 12.4221 56.8873 12.6127 57.0256 12.7533C57.1639 12.8938 57.3515 12.9728 57.5472 12.9728C57.9971 12.9728 58.4396 13.0178 58.8822 12.9728C59.3248 12.9278 59.546 13.1077 59.487 13.5873C59.47 13.8068 59.47 14.0274 59.487 14.2468Z" fill="#70C6B9"/>
<path d="M19.2143 35.4634C20.1806 35.4634 21.1542 35.4634 22.1205 35.4634C22.5409 35.4634 22.7032 35.6058 22.6737 36.033C22.622 36.9323 22.5852 37.8316 22.5557 38.7384C22.5557 39.0907 22.3712 39.1881 22.0615 39.1881C20.1585 39.1881 18.2604 39.1881 16.3672 39.1881C16.0132 39.1881 15.8583 39.0607 15.8509 38.686C15.8509 37.7867 15.814 36.8873 15.7403 35.988C15.7403 35.5309 15.9025 35.4334 16.3082 35.4409C17.2966 35.4784 18.2702 35.4634 19.2143 35.4634Z" fill="#EF9A73"/>
<path d="M19.2143 39.8476C20.1068 39.8476 20.9919 39.8476 21.8844 39.8476C22.3122 39.8476 22.4081 40.0575 22.4081 40.4022C22.3686 41.2388 22.0137 42.0279 21.417 42.6058C20.8203 43.1836 20.0276 43.506 19.2033 43.506C18.3789 43.506 17.5862 43.1836 16.9895 42.6058C16.3928 42.0279 16.038 41.2388 15.9984 40.4022C15.9984 39.975 16.1238 39.8401 16.5516 39.8551C17.4368 39.8551 18.3292 39.8551 19.2143 39.8551V39.8476Z" fill="#FFDDB5"/>
<path d="M25.0635 45.0487C25.8011 44.0894 25.3143 43.325 24.9528 42.4332C24.759 41.9201 24.6902 41.3671 24.752 40.8212C24.8139 40.2752 25.0047 39.7526 25.3082 39.2977C25.6118 38.8429 26.019 38.4693 26.4952 38.2088C26.9714 37.9483 27.5026 37.8086 28.0434 37.8016C29.5628 37.8016 31.0749 37.8016 32.5943 37.8016C33.4807 37.8231 34.3238 38.1956 34.9438 38.8396C35.5639 39.4836 35.9118 40.3482 35.9135 41.2491C35.9046 42.1511 35.554 43.015 34.9345 43.6612C34.315 44.3074 33.4742 44.6862 32.587 44.7189C30.0745 44.6285 27.5589 44.7387 25.0635 45.0487ZM30.2783 40.0725H27.5566C27.3058 40.0725 26.9591 40.0275 26.9517 40.4022C26.9443 40.7769 27.291 40.7394 27.5492 40.7394H33.059C33.3098 40.7394 33.6417 40.7844 33.6196 40.3797C33.5975 39.975 33.295 40.0799 33.0664 40.0725H30.2783ZM30.2119 42.688H33.059C33.2877 42.688 33.6048 42.7554 33.6196 42.3957C33.6343 42.036 33.3319 42.0135 33.059 42.0135H27.4902C27.232 42.0135 26.9591 42.0135 26.9517 42.3582C26.9443 42.703 27.2468 42.688 27.4902 42.688H30.2119Z" fill="#FFDDB5"/>
<path d="M41.2979 44.4642C40.5657 44.4414 39.87 44.1341 39.354 43.6057C38.8381 43.0773 38.5412 42.368 38.5246 41.6238C38.5202 41.0548 38.6829 40.4973 38.9918 40.0226C39.3008 39.548 39.7419 39.1776 40.259 38.9588C40.776 38.7401 41.3455 38.6828 41.8947 38.7944C42.4439 38.906 42.9479 39.1814 43.3423 39.5854C43.7368 39.9894 44.0038 40.5037 44.1093 41.0625C44.2148 41.6214 44.1539 42.1996 43.9345 42.7232C43.7151 43.2468 43.3471 43.6921 42.8775 44.0022C42.4079 44.3123 41.8579 44.4731 41.2979 44.4642Z" fill="#FFDDB5"/>
<path d="M39.5425 18.1814C39.5345 17.7766 39.6054 17.3743 39.7509 16.9974C39.8965 16.6206 40.1139 16.2767 40.3907 15.9855C40.5825 15.7757 40.7964 15.5733 41.0545 15.8281C41.3127 16.0829 41.0545 16.2253 40.8996 16.3902C40.4513 16.8418 40.1853 17.4473 40.1539 18.088C40.1225 18.7286 40.328 19.358 40.73 19.8526C40.8775 20.0624 41.0472 20.2798 40.73 20.4746C40.4128 20.6695 40.3169 20.4222 40.1842 20.2498C39.7359 19.6593 39.5084 18.9263 39.5425 18.1814Z" fill="#231F20"/>
<path d="M44.145 27.6318C44.1008 27.7142 44.0787 27.8491 44.0049 27.8791C43.5992 28.0365 43.1788 28.1789 42.7657 28.3138C42.7362 28.3242 42.705 28.3283 42.6738 28.3259C42.6427 28.3235 42.6124 28.3147 42.5847 28.2999C42.5571 28.2852 42.5327 28.2648 42.5131 28.2402C42.4935 28.2155 42.4791 28.187 42.4707 28.1564C42.45 28.0971 42.4433 28.0337 42.451 27.9712C42.4586 27.9088 42.4806 27.849 42.515 27.7967C42.9229 27.4978 43.4135 27.3378 43.9164 27.3395C44.0492 27.3845 44.086 27.5044 44.145 27.6318Z" fill="#231F20"/>
<path d="M42.5002 13.8571C42.3158 13.8046 41.9618 13.7297 41.6151 13.6098C41.5352 13.5855 41.468 13.5301 41.4279 13.4558C41.3879 13.3814 41.3783 13.2941 41.4012 13.2126C41.4676 12.9952 41.6741 12.9877 41.8585 13.0252C42.1683 13.0852 42.4781 13.1826 42.7953 13.2351C43.0018 13.2726 43.1493 13.3475 43.1198 13.5798C43.0903 13.8121 42.8911 13.8946 42.5002 13.8571Z" fill="#231F20"/>
<path d="M36.002 18.3162C36.2676 18.3162 37.0051 19.0657 36.983 19.3055C36.9692 19.4035 36.9222 19.4936 36.8503 19.5603C36.7963 19.6088 36.7268 19.6355 36.6548 19.6355C36.5828 19.6355 36.5133 19.6088 36.4593 19.5603C36.2085 19.328 35.9725 19.0807 35.7217 18.8109C35.6818 18.7656 35.6568 18.7087 35.6502 18.6482C35.6436 18.5878 35.6557 18.5267 35.6848 18.4736C35.7082 18.4114 35.7539 18.3605 35.8128 18.3312C35.8717 18.302 35.9394 18.2966 36.002 18.3162Z" fill="#231F20"/>
<path d="M30.2783 40.0724H33.0664C33.295 40.0724 33.6048 40.0274 33.6196 40.3797C33.6343 40.7319 33.3098 40.7394 33.059 40.7394H27.5492C27.291 40.7394 26.9517 40.7394 26.9517 40.4022C26.9517 40.0649 27.3058 40.0724 27.5565 40.0724H30.2783Z" fill="#231F20"/>
<path d="M30.2119 42.7255H27.4902C27.2468 42.7255 26.9443 42.7255 26.9517 42.3957C26.9591 42.066 27.232 42.051 27.4902 42.051H33.059C33.3319 42.051 33.6417 42.051 33.6196 42.4332C33.5974 42.8154 33.2876 42.7255 33.059 42.7255H30.2119Z" fill="#231F20"/>
</g>
<defs>
<clipPath id="clip0_186_4282">
<rect width="66" height="60" fill="white"/>
</clipPath>
</defs>
</svg>
