<svg width="148" height="37" viewBox="0 0 148 37" fill="none" xmlns="http://www.w3.org/2000/svg">
<g clip-path="url(#clip0_723_6882)">
<path d="M30.92 7.88991C30.594 7.57003 30.337 7.18669 30.165 6.76356C29.993 6.34044 29.9096 5.88653 29.92 5.4299C29.9051 4.96525 29.9862 4.50251 30.1583 4.07063C30.3304 3.63875 30.5897 3.24702 30.92 2.91991C31.2465 2.59443 31.6353 2.33812 32.0632 2.16631C32.491 1.99449 32.9491 1.91069 33.41 1.91991C33.8667 1.90893 34.3208 1.99204 34.744 2.16408C35.1672 2.33611 35.5505 2.5934 35.87 2.91991C36.1989 3.24809 36.4572 3.64002 36.6292 4.07164C36.8012 4.50326 36.8831 4.96547 36.87 5.4299C36.8824 5.88502 36.8019 6.3379 36.6334 6.76086C36.4649 7.18383 36.212 7.56801 35.8901 7.88995C35.5681 8.21189 35.1839 8.46483 34.761 8.63332C34.338 8.8018 33.8851 8.8823 33.43 8.8699C32.9668 8.8874 32.5049 8.80943 32.0731 8.64084C31.6413 8.47225 31.2488 8.21664 30.92 7.88991ZM30.45 11.6999H36.37V32.3999H30.45V11.6999Z" fill="white"/>
<path d="M42.92 31.94C41.8847 31.5772 40.935 31.0053 40.13 30.26L42.35 26.67C43.9119 27.6002 45.6922 28.1005 47.51 28.12C48.1443 28.203 48.7871 28.0538 49.32 27.7C49.4923 27.5727 49.6327 27.407 49.7299 27.2161C49.8271 27.0251 49.8785 26.8142 49.88 26.6C49.8759 26.2303 49.7373 25.8748 49.49 25.6C49.1718 25.2542 48.763 25.0048 48.31 24.88L45.98 24.11C44.9003 23.7765 43.8473 23.3619 42.83 22.87C42.0642 22.4855 41.4074 21.9147 40.92 21.21C40.3851 20.3661 40.1232 19.378 40.17 18.38C40.1716 17.2018 40.4599 16.0418 41.01 15C41.6092 13.8746 42.5185 12.9445 43.63 12.32C44.9918 11.5758 46.5292 11.213 48.08 11.27C50.7256 11.1902 53.3301 11.9383 55.53 13.41L53.05 17.27C51.6859 16.4124 50.1112 15.9487 48.5 15.93C47.8924 15.8934 47.2874 16.036 46.76 16.34C46.5769 16.4538 46.4263 16.6131 46.3229 16.8023C46.2195 16.9916 46.1668 17.2043 46.17 17.42C46.1733 17.6114 46.2179 17.7998 46.3008 17.9724C46.3836 18.145 46.5027 18.2976 46.65 18.42C47.097 18.7637 47.6115 19.0091 48.16 19.14L50.41 19.87C51.9736 20.3158 53.405 21.1361 54.58 22.26C55.52 23.3733 55.9962 24.8054 55.91 26.26C55.934 27.489 55.5508 28.6915 54.82 29.68C54.0514 30.6971 53.0117 31.4769 51.82 31.93C50.4559 32.4729 48.9981 32.7414 47.53 32.72C45.9571 32.7647 44.3907 32.4997 42.92 31.94Z" fill="white"/>
<path d="M61.51 31.94C60.4746 31.5772 59.525 31.0053 58.72 30.26L60.92 26.7C62.4819 27.6302 64.2622 28.1305 66.08 28.15C66.7278 28.2318 67.3831 28.0715 67.92 27.7C68.0923 27.5727 68.2326 27.407 68.3298 27.2161C68.427 27.0251 68.4784 26.8142 68.48 26.6C68.4759 26.2303 68.3373 25.8748 68.09 25.6C67.7718 25.2542 67.363 25.0048 66.91 24.88L64.58 24.11C63.5003 23.7765 62.4473 23.3619 61.43 22.87C60.6642 22.4855 60.0074 21.9147 59.52 21.21C58.9851 20.3661 58.7232 19.378 58.77 18.38C58.7716 17.2018 59.0599 16.0418 59.61 15C60.2092 13.8746 61.1185 12.9445 62.23 12.32C63.5918 11.5758 65.1292 11.213 66.68 11.27C69.3256 11.1902 71.9301 11.9383 74.13 13.41L71.65 17.27C70.2858 16.4124 68.7112 15.9487 67.1 15.93C66.4924 15.8934 65.8874 16.036 65.36 16.34C65.1769 16.4538 65.0263 16.6131 64.9229 16.8023C64.8195 16.9916 64.7668 17.2043 64.77 17.42C64.7733 17.6114 64.8179 17.7998 64.9008 17.9724C64.9836 18.145 65.1027 18.2976 65.25 18.42C65.6958 18.7655 66.2108 19.0111 66.76 19.14L69.01 19.87C70.5701 20.3173 71.9978 21.1375 73.17 22.26C74.1173 23.3698 74.5976 24.8035 74.51 26.26C74.534 27.489 74.1508 28.6915 73.42 29.68C72.6491 30.6948 71.6101 31.4741 70.42 31.93C69.0527 32.474 67.5914 32.7424 66.12 32.72C64.5471 32.7647 62.9807 32.4997 61.51 31.94Z" fill="white"/>
<path d="M78.69 7.88991C78.364 7.57003 78.107 7.18669 77.935 6.76356C77.763 6.34044 77.6796 5.88653 77.69 5.4299C77.6751 4.96525 77.7562 4.50251 77.9283 4.07063C78.1003 3.63875 78.3597 3.24702 78.69 2.91991C79.0165 2.59443 79.4053 2.33812 79.8332 2.16631C80.261 1.99449 80.719 1.91069 81.18 1.91991C81.6367 1.90893 82.0908 1.99204 82.514 2.16408C82.9372 2.33611 83.3205 2.5934 83.64 2.91991C83.9689 3.24809 84.2272 3.64002 84.3992 4.07164C84.5712 4.50326 84.6531 4.96547 84.64 5.4299C84.6524 5.88502 84.5719 6.3379 84.4034 6.76086C84.2349 7.18383 83.982 7.56801 83.66 7.88995C83.3381 8.21189 82.9539 8.46483 82.531 8.63332C82.108 8.8018 81.6551 8.8823 81.2 8.8699C80.7368 8.8874 80.2749 8.80943 79.8431 8.64084C79.4113 8.47225 79.0188 8.21664 78.69 7.88991ZM78.21 11.6599H84.13V32.3999H78.21V11.6599Z" fill="white"/>
<path d="M102.32 27.0201V31.7901C100.625 32.4895 98.8033 32.83 96.97 32.7901C96.0894 32.8254 95.2112 32.6763 94.3915 32.3526C93.5719 32.0289 92.8288 31.5376 92.21 30.9101C91.5982 30.2564 91.123 29.4872 90.8122 28.6475C90.5014 27.8079 90.3612 26.9146 90.4 26.0201V16.5101H87V11.7001H90.4L94.79 5.62012H96.32V11.7001H102.01V16.5501H96.32V24.8401C96.2799 25.6051 96.5339 26.3564 97.03 26.9401C97.2583 27.204 97.5433 27.413 97.8636 27.5515C98.1839 27.69 98.5313 27.7545 98.88 27.7401C100.063 27.7285 101.232 27.4839 102.32 27.0201Z" fill="white"/>
<path d="M105.81 31.6402C105.453 31.2917 105.169 30.8748 104.977 30.4143C104.784 29.9538 104.687 29.4592 104.69 28.9601C104.681 28.4665 104.774 27.9764 104.964 27.5205C105.153 27.0645 105.434 26.6525 105.79 26.3102C106.505 25.612 107.465 25.2212 108.465 25.2212C109.465 25.2212 110.425 25.612 111.14 26.3102C111.499 26.6505 111.783 27.0619 111.974 27.5182C112.165 27.9745 112.259 28.4656 112.25 28.9601C112.259 29.4603 112.167 29.9571 111.979 30.4209C111.792 30.8847 111.513 31.3062 111.16 31.6602C110.816 32.0263 110.398 32.3161 109.935 32.5108C109.472 32.7054 108.973 32.8006 108.47 32.7901C107.971 32.7914 107.478 32.69 107.02 32.4921C106.563 32.2943 106.151 32.0042 105.81 31.6402Z" fill="white"/>
<path d="M116.59 7.89015C115.945 7.21787 115.584 6.32207 115.584 5.39015C115.584 4.45824 115.945 3.56243 116.59 2.89015C116.914 2.56403 117.301 2.30721 117.727 2.1353C118.154 1.96339 118.61 1.87998 119.07 1.89015C119.528 1.87899 119.984 1.96198 120.409 2.13399C120.834 2.306 121.219 2.56336 121.54 2.89015C121.869 3.21798 122.128 3.60984 122.3 4.04155C122.472 4.47326 122.554 4.93564 122.54 5.40015C122.555 5.85603 122.477 6.31021 122.309 6.7345C122.142 7.15879 121.889 7.54416 121.567 7.8667C121.244 8.18924 120.859 8.44208 120.434 8.60953C120.01 8.77698 119.556 8.85547 119.1 8.84015C118.639 8.86157 118.178 8.78834 117.747 8.62496C117.315 8.46157 116.921 8.21149 116.59 7.89015ZM116.11 11.6602H122.03V32.4001H116.11V11.6602Z" fill="white"/>
<path d="M143.3 12.2899C144.514 12.9478 145.514 13.9405 146.18 15.1499C146.875 16.4601 147.219 17.9275 147.18 19.41V32.41H141.26V20.2899C141.278 19.7582 141.182 19.2288 140.978 18.7373C140.775 18.2457 140.469 17.8034 140.08 17.4399C139.211 16.6883 138.088 16.2982 136.94 16.3499C135.786 16.2931 134.653 16.6754 133.77 17.4199C133.376 17.7835 133.067 18.2287 132.863 18.7245C132.659 19.2202 132.566 19.7545 132.59 20.2899V32.3999H126.66V11.6999H130.92L132.44 14.3699C133.165 13.3909 134.124 12.6102 135.23 12.0999C136.499 11.5499 137.873 11.2854 139.256 11.3252C140.638 11.3649 141.995 11.7079 143.23 12.3299L143.3 12.2899Z" fill="white"/>
<path d="M6.92001 10.1202C7.35651 8.81878 8.19083 7.6874 9.30512 6.88584C10.4194 6.08428 11.7574 5.65305 13.13 5.65305C14.5027 5.65305 15.8406 6.08428 16.9549 6.88584C18.0692 7.6874 18.9035 8.81878 19.34 10.1202H25.97C25.97 9.91017 25.87 9.70017 25.81 9.49017L25.69 9.08018C25.61 8.83018 25.52 8.58017 25.42 8.34017C25.32 8.10017 25.31 8.05017 25.25 7.90017C24.5644 6.40202 23.6045 5.04535 22.42 3.90017C21.8929 3.38223 21.328 2.90425 20.73 2.47018C18.526 0.868415 15.8644 0.0197855 13.14 0.050179C10.4185 0.0183672 7.75962 0.867242 5.56001 2.47018C4.97905 2.88781 4.4308 3.34914 3.92001 3.85017C2.72942 4.99013 1.7687 6.34803 1.09001 7.85017C1.02001 8.00017 0.970011 8.14017 0.910011 8.29017C0.850011 8.44017 0.720015 8.77018 0.640015 9.02018L0.520012 9.44018C0.460012 9.65018 0.410016 9.86017 0.360016 10.0702L6.92001 10.1202Z" fill="white"/>
<path d="M26.27 11.7002H19.7C19.7099 11.87 19.7099 12.0403 19.7 12.2102C19.6338 13.907 18.9131 15.5123 17.6892 16.6894C16.4653 17.8664 14.8331 18.5239 13.135 18.5239C11.4369 18.5239 9.80474 17.8664 8.58081 16.6894C7.35688 15.5123 6.63624 13.907 6.57 12.2102C6.57 12.0402 6.57 11.8702 6.57 11.7002H0.0599976C0.0649263 11.7333 0.0649263 11.7671 0.0599976 11.8002C0.0599976 12.2002 0.0599976 12.6102 0.0599976 13.0302C0.0599976 13.4502 0.0599976 13.8302 0.0599976 14.2302C0.0903191 14.5927 0.140395 14.9532 0.209999 15.3102C0.205298 15.3768 0.205298 15.4436 0.209999 15.5102C0.276666 15.8702 0.366662 16.2402 0.479996 16.6202C0.539996 16.8302 0.609995 17.0402 0.689995 17.2602C1.00228 18.1149 1.36629 18.9497 1.78 19.7602C2.17 20.5202 2.63 21.3402 3.17 22.2602C3.71 23.1802 4.17 23.9802 4.86 24.9702C5.04 25.2602 5.23 25.5502 5.42 25.8402L6.62 27.7002L7.52 29.0602C8.97499 31.1634 10.3104 33.3469 11.52 35.6002C12.33 37.2402 13.94 37.4502 14.8 35.6002C15.0069 35.1744 15.2373 34.7605 15.49 34.3602C17.19 31.4102 19.49 28.0902 21.49 25.0202C23.1606 22.6122 24.5591 20.0264 25.66 17.3102C25.81 16.8702 25.93 16.4602 26.03 16.0602C26.2679 15.0783 26.3821 14.0705 26.37 13.0602C26.37 12.6402 26.35 12.2302 26.31 11.8302C26.3056 11.7846 26.292 11.7404 26.27 11.7002Z" fill="white"/>
</g>
<defs>
<clipPath id="clip0_723_6882">
<rect width="147.22" height="36.88" fill="white"/>
</clipPath>
</defs>
</svg>
