<svg width="60" height="64" viewBox="0 0 60 64" fill="none" xmlns="http://www.w3.org/2000/svg">
<g clip-path="url(#clip0_186_3856)">
<path d="M47.4828 15.4374C48.1703 16.3613 48.8501 17.2851 49.5533 18.2011C49.6446 18.292 49.715 18.4021 49.7596 18.5235C49.8041 18.645 49.8217 18.7748 49.8112 18.9039C49.5299 18.9039 49.2486 18.8644 48.9673 18.8644C48.0571 18.8415 47.1702 19.1568 46.4746 19.7506C45.779 20.3444 45.3232 21.1754 45.1934 22.0861C45.0629 23.0104 45.2724 23.9509 45.7822 24.7295C46.2919 25.5081 47.0666 26.0707 47.9594 26.3107C49.6783 26.7924 51.1942 26.058 52.3896 24.1708C52.9756 25.2884 53.3492 26.507 53.4913 27.7636C53.8512 29.4361 54.0138 31.1457 53.9758 32.8567C53.9109 34.8496 53.6491 36.8309 53.1944 38.7711C53.18 38.8614 53.1476 38.9479 53.0992 39.0252C53.0509 39.1025 52.9876 39.1692 52.9131 39.2212C52.9131 38.937 52.8663 38.6527 52.8663 38.3684C52.8663 35.9995 52.8663 33.678 52.8663 31.3328C52.9181 30.4648 52.6686 29.6057 52.1608 28.9037C51.653 28.2017 50.9188 27.7007 50.0846 27.4872C47.8656 26.974 46.1779 27.424 45.1152 29.1297C45.0219 29.32 44.8728 29.4766 44.6883 29.5784C44.5038 29.6801 44.2927 29.7219 44.0839 29.6982C41.3283 29.6982 38.5701 29.6982 35.8094 29.6982C35.5562 29.6775 35.3017 29.7141 35.0643 29.8052C34.8268 29.8963 34.6124 30.0396 34.4366 30.2248C34.2609 30.4101 34.128 30.6325 34.0479 30.876C33.9677 31.1196 33.9422 31.3781 33.9732 31.6328C33.9475 31.8808 33.9777 32.1315 34.0616 32.3659C34.1455 32.6004 34.2809 32.8127 34.4576 32.9867C34.6343 33.1607 34.8478 33.292 35.0819 33.3707C35.316 33.4494 35.5647 33.4735 35.8094 33.4411C38.4894 33.4411 41.1694 33.4411 43.8495 33.4411C44.373 33.4411 44.5683 33.5516 44.5449 34.1202C44.4824 36.0943 44.4589 38.0684 44.4511 40.0582C44.4511 40.4925 44.3261 40.6426 43.8807 40.6347C42.3649 40.6347 40.8413 40.6347 39.3176 40.6347C38.8951 40.5839 38.4666 40.6306 38.0646 40.7714C37.6625 40.9122 37.2973 41.1433 36.9964 41.4474C36.6955 41.7515 36.4668 42.1206 36.3275 42.5269C36.1882 42.9332 36.142 43.3662 36.1922 43.7932V53.0162C36.1922 53.3873 36.1922 53.6952 35.7 53.8058C33.5513 54.2559 32.6214 55.3851 32.3714 57.6671C30.7909 57.8329 29.2015 57.8962 27.613 57.8566C27.3864 57.4776 27.152 57.1144 26.7691 57.7145C26.1377 57.7293 25.5064 57.6763 24.8861 57.5566C24.7955 57.5554 24.7085 57.5211 24.641 57.4602C24.5735 57.3992 24.5301 57.3157 24.5188 57.2249C25.4799 56.5222 26.5581 56.0247 27.5739 55.4167C28.5897 54.8086 28.9881 54.1059 28.7694 53.1504C28.5506 52.1949 27.988 51.8317 26.8004 51.7764C26.5035 51.7764 26.4097 51.6975 26.4097 51.3816C26.4138 50.8337 26.2611 50.2962 25.97 49.8338C25.6789 49.3715 25.2618 49.0041 24.7689 48.7758C22.2685 47.3229 19.8073 45.8226 17.3148 44.3617C16.8538 44.0933 16.6272 43.8327 17.0569 43.3589C18.5727 44.3933 19.5494 44.0696 20.1823 42.3245C20.6121 41.1558 21.0574 39.9951 21.4325 38.8106C21.6278 38.1947 21.8388 37.9736 22.417 38.4237C22.7295 38.6606 23.089 38.7948 23.1983 38.1947L27.277 38.1315C27.402 38.3368 27.5348 38.5658 27.8083 38.4079C28.0818 38.25 28.0036 37.9894 27.9411 37.7762C27.7504 37.2627 27.3732 36.8419 26.8863 36.5996C24.5266 35.2309 22.1826 33.8543 19.8542 32.4698L20.0886 31.3091C20.6668 31.2222 20.5808 30.8906 20.3542 30.5194C20.0617 29.9916 19.6253 29.5597 19.0969 29.2752C18.5686 28.9908 17.9705 28.8656 17.3738 28.9147C16.7772 28.9638 16.207 29.185 15.7311 29.552C15.2552 29.9191 14.8936 30.4166 14.6894 30.9853C14.0878 32.5646 13.5486 34.1439 13.0173 35.6758C12.9771 35.8355 12.8884 35.9784 12.7637 36.0846C12.6389 36.1908 12.4845 36.255 12.3219 36.268C11.6578 36.3548 10.9936 36.4417 10.3373 36.5523C10.0482 36.6075 9.90754 36.5522 9.86847 36.2206C9.62625 34.3729 9.3684 32.5172 9.08712 30.6932C9.27924 30.3849 9.38709 30.0307 9.39967 29.6666C9.91536 29.6666 9.94661 29.3429 9.7669 28.9797C9.59189 28.5587 9.32434 28.1834 8.98455 27.8825C8.64475 27.5815 8.24162 27.3626 7.8057 27.2424C6.34457 26.8792 5.27413 27.582 4.29744 28.5374C4.35239 27.4265 4.57097 26.33 4.94596 25.2841C6.00101 21.6486 7.87283 18.3084 10.4154 15.5243C10.728 15.5243 11.0327 15.5243 11.3452 15.5243H38.5753L47.4828 15.4374ZM25.2533 25.908C24.972 23.2469 23.5187 21.6518 21.4247 21.7071C20.5174 21.7407 19.6521 22.1017 18.9856 22.7246C18.319 23.3475 17.8954 24.1911 17.7914 25.1025C17.6909 26.0666 17.9718 27.0317 18.5727 27.7873C18.9878 28.3 19.5238 28.6988 20.1314 28.9472C20.739 29.1956 21.3987 29.2855 22.0498 29.2086C21.6669 30.3931 21.8232 31.1669 22.5029 31.6565C22.8176 31.9159 23.2162 32.0482 23.6218 32.0278C24.0273 32.0073 24.411 31.8357 24.6985 31.546C25.8159 30.4721 26.9098 29.3666 27.9646 28.2295C28.2451 27.9171 28.4006 27.5103 28.4006 27.0885C28.4006 26.6666 28.2451 26.2598 27.9646 25.9474C27.7014 25.6409 27.3419 25.4351 26.9464 25.3647C26.5509 25.2942 26.1435 25.3634 25.7924 25.5605C25.6362 25.6711 25.5189 25.9159 25.2533 25.908ZM10.2123 26.6976C11.1966 26.6976 12.1406 26.3024 12.8366 25.599C13.5327 24.8956 13.9237 23.9416 13.9237 22.9468C13.9237 21.9521 13.5327 20.998 12.8366 20.2946C12.1406 19.5912 11.1966 19.1961 10.2123 19.1961C9.22794 19.1961 8.28393 19.5912 7.5879 20.2946C6.89188 20.998 6.50085 21.9521 6.50085 22.9468C6.50085 23.9416 6.89188 24.8956 7.5879 25.599C8.28393 26.3024 9.22794 26.6976 10.2123 26.6976ZM26.3863 41.5506C27.0582 41.5506 27.7224 41.5506 28.3943 41.5506C28.5713 41.5702 28.7504 41.5529 28.9205 41.4999C29.0906 41.4469 29.2482 41.3592 29.3835 41.2423C29.5189 41.1255 29.6292 40.9819 29.7075 40.8203C29.7859 40.6588 29.8307 40.4827 29.8393 40.303C29.8478 40.1233 29.8199 39.9438 29.7572 39.7754C29.6945 39.607 29.5984 39.4533 29.4748 39.3239C29.3511 39.1944 29.2026 39.0919 29.0383 39.0227C28.874 38.9534 28.6974 38.9189 28.5193 38.9212C27.1051 38.9212 25.6908 38.9212 24.2766 38.9212C24.1019 38.9171 23.9283 38.9504 23.7671 39.0188C23.606 39.0873 23.4609 39.1893 23.3415 39.3182C23.222 39.4471 23.1308 39.6001 23.0738 39.767C23.0169 39.934 22.9954 40.1113 23.0108 40.2872C23.0125 40.4632 23.0498 40.637 23.1206 40.7978C23.1913 40.9586 23.2939 41.103 23.4221 41.2222C23.5502 41.3413 23.7012 41.4326 23.8656 41.4905C24.0301 41.5484 24.2045 41.5715 24.3782 41.5585C25.058 41.5743 25.7221 41.5585 26.3863 41.5585V41.5506ZM23.5968 45.6805C22.9874 44.2591 22.4561 43.0194 21.9169 41.7954C21.8075 41.5427 21.6981 41.1874 21.3231 41.3848C20.948 41.5822 21.1434 41.8349 21.245 42.0718C21.7919 43.3589 22.3467 44.6381 22.9014 45.9252C22.9487 46.075 23.0429 46.2053 23.1697 46.2964C23.2965 46.3875 23.4491 46.4346 23.6046 46.4306C23.7605 46.4342 23.913 46.3847 24.0376 46.2902C24.1623 46.1957 24.252 46.0616 24.2922 45.9094C24.636 45.0487 24.9798 44.1801 25.3158 43.3115C25.4174 43.0431 25.5346 42.7035 25.1673 42.5772C24.8001 42.4508 24.7454 42.7904 24.6517 43.0273C24.3313 43.8406 24.0109 44.6618 23.5968 45.6805Z" fill="#A7A9AC"/>
<path d="M47.4827 15.4374H38.6691H11.439C11.1265 15.4374 10.8217 15.4374 10.5092 15.4374H5.87577C5.56323 15.4374 5.09442 15.5637 5.09442 15.0742C5.09442 14.5846 5.54761 14.7109 5.87577 14.6951C6.07111 14.6951 6.26644 14.6951 6.54772 14.6951C6.1605 14.2431 5.89183 13.7001 5.76637 13.1159C5.67325 12.5043 5.82057 11.8802 6.17685 11.377C6.53313 10.8738 7.07008 10.5315 7.67287 10.4232C12.2151 9.32826 16.7574 8.2438 21.2996 7.1699C21.8778 7.02776 22.2373 6.86985 22.4248 6.17497C22.6051 5.3912 23.0311 4.68723 23.6393 4.16789C24.2476 3.64856 25.0055 3.34165 25.8002 3.29281C28.4881 3.00064 31.1916 2.84271 33.8794 2.62161C35.4421 2.48737 37.0048 2.36892 38.5675 2.1952C39.3221 2.07087 40.0955 2.1418 40.8156 2.40141C41.5357 2.66101 42.1789 3.10081 42.6852 3.67972C42.7234 3.01114 42.932 2.3639 43.2907 1.80079C43.6494 1.23769 44.146 0.777848 44.7324 0.465896C45.1836 0.214863 45.6827 0.0645299 46.1963 0.025027C46.7098 -0.0144758 47.2258 0.0577636 47.7093 0.236895C48.204 0.403577 48.6589 0.672461 49.0451 1.02643C49.4314 1.38041 49.7405 1.81174 49.9529 2.29299C50.1653 2.77424 50.2763 3.29489 50.2788 3.82182C50.2813 4.34876 50.1752 4.87046 49.9674 5.35374C49.7322 5.94928 49.3465 6.47202 48.8488 6.86971C48.3511 7.2674 47.7588 7.5261 47.1311 7.62C46.4761 7.71891 45.8071 7.65483 45.1821 7.43329C44.5571 7.21175 43.9951 6.83945 43.5447 6.34869C43.5447 7.8569 43.5447 9.15189 43.5447 10.4548C43.5447 10.9444 43.826 10.9049 44.1464 10.9049C45.6622 10.9049 47.1858 10.9049 48.7095 10.9049C49.1581 10.8409 49.6154 10.9134 50.0231 11.1131C50.4309 11.3128 50.7705 11.6307 50.9988 12.0262C51.2238 12.4517 51.3081 12.9389 51.2392 13.4164C51.1703 13.8939 50.9519 14.3364 50.616 14.6793C51.1551 14.6793 51.5927 14.6793 52.038 14.6793C52.3271 14.6793 52.6084 14.7346 52.6006 15.0505C52.5928 15.3663 52.3115 15.4295 52.0302 15.4295L47.4827 15.4374ZM26.4878 10.6048C27.2692 10.5495 27.9802 10.4627 28.7225 10.439C29.2069 10.439 29.2538 10.1863 29.1991 9.78359C29.035 8.62283 28.9178 7.46208 28.7616 6.30132C28.66 5.51168 28.7616 4.44566 28.3318 3.99557C27.9021 3.54548 26.7691 3.9324 25.9878 3.99557C25.2845 4.01287 24.6086 4.27428 24.0736 4.73588C23.5386 5.19747 23.1771 5.8311 23.0499 6.53029C22.8936 7.40679 22.4482 7.61209 21.7138 7.78581C17.1038 8.85972 12.5094 9.96521 7.90728 11.0707C7.67559 11.0975 7.45222 11.1739 7.25204 11.2948C7.05187 11.4157 6.8795 11.5783 6.74641 11.7718C6.61333 11.9654 6.52259 12.1853 6.48024 12.4171C6.4379 12.6488 6.44492 12.8871 6.50084 13.1159C6.72744 14.0713 7.5713 14.5056 8.68863 14.2371C11.3218 13.6133 13.9315 12.9027 16.5725 12.3736C19.8541 11.7261 23.0264 10.3284 26.4878 10.6048ZM42.8259 8.63073C42.8259 8.07798 42.8259 7.53315 42.8259 6.9883C42.8259 3.88503 41.0444 2.6453 38.5206 2.92168C35.6296 3.22963 32.7308 3.45072 29.832 3.67182C29.3007 3.7113 29.1757 3.88503 29.2382 4.3746C29.4726 6.15128 29.6836 7.92795 29.8867 9.71253C29.9414 10.1547 30.1133 10.3284 30.5899 10.2811C33.4028 10.0205 36.2235 9.7994 39.0442 9.53092C39.6302 9.47565 40.0365 9.53092 39.9271 10.2653C39.8646 10.7233 40.0365 10.897 40.5287 10.9049C42.8024 10.9365 42.8024 10.9523 42.8259 8.63073ZM39.8411 14.6241C39.5598 14.2379 39.3593 13.7979 39.2519 13.3309C39.1444 12.8639 39.1322 12.3797 39.216 11.9077C39.216 11.5682 39.216 11.2286 39.216 10.897C39.2786 10.3995 39.0988 10.2495 38.6222 10.2969C35.9812 10.5338 33.3403 10.8022 30.6915 10.968C28.7772 11.0944 26.8707 11.584 24.9251 11.1892C24.6951 11.1717 24.4639 11.2013 24.2453 11.276C20.1667 12.2499 16.0776 13.2369 11.9781 14.2371C11.7672 14.2845 11.3921 14.1898 11.2905 14.632L39.8411 14.6241ZM46.4592 0.742273C45.6515 0.74162 44.8749 1.05699 44.2922 1.62228C43.7096 2.18756 43.3661 2.95886 43.3338 3.77447C43.3286 4.5996 43.648 5.39303 44.2216 5.98019C44.7953 6.56735 45.5763 6.90014 46.3928 6.90538C47.2092 6.91061 47.9943 6.58785 48.5753 6.0081C49.1563 5.42834 49.4856 4.63908 49.4908 3.81394C49.4692 3.00753 49.1431 2.24005 48.5794 1.66888C48.0157 1.09772 47.2571 0.766179 46.4592 0.742273ZM44.8027 11.6235H40.4818C40.2943 11.6235 40.0677 11.5208 39.9427 11.7814C39.82 12.0617 39.7661 12.3678 39.7856 12.6736C39.8051 12.9795 39.8975 13.276 40.0547 13.5381C40.212 13.8002 40.4296 14.0199 40.6889 14.1788C40.9483 14.3376 41.2418 14.4308 41.5445 14.4503C43.9667 14.4503 46.381 14.4503 48.7954 14.4503C49.001 14.4769 49.2098 14.4596 49.4084 14.3997C49.6069 14.3398 49.7909 14.2385 49.9484 14.1024C50.1059 13.9663 50.2335 13.7983 50.3229 13.6094C50.4123 13.4204 50.4615 13.2147 50.4675 13.0053C50.4675 12.1209 49.8737 11.5998 48.811 11.584L44.8027 11.6235Z" fill="#231F20"/>
<path d="M23.2452 38.1394C23.128 38.7396 22.7686 38.6053 22.4639 38.3684C21.8857 37.9183 21.6825 38.1394 21.4793 38.7554C21.1043 39.9398 20.6589 41.1243 20.2292 42.2692C19.5885 44.0143 18.6118 44.3381 17.1038 43.3037C16.674 43.7774 16.9006 44.038 17.3616 44.3065C19.8541 45.7673 22.3154 47.2677 24.8157 48.7206C25.3087 48.9489 25.7258 49.3163 26.0169 49.7786C26.308 50.2409 26.4607 50.7784 26.4566 51.3264C26.4566 51.6422 26.5503 51.7054 26.8472 51.7212C28.0115 51.7765 28.6053 52.2187 28.8162 53.0951C29.0272 53.9716 28.6522 54.7455 27.6208 55.3614C26.5894 55.9773 25.5268 56.4669 24.5657 57.1697C22.7451 58.1883 20.9324 59.2148 19.0962 60.2256C18.6977 60.4467 18.8931 60.7546 18.94 61.0152C19.0355 61.5287 18.9807 62.0593 18.7822 62.5418C18.5837 63.0243 18.2502 63.4378 17.8226 63.7315C17.3616 64.0869 17.0413 64.0948 16.7366 63.4947C16.4318 62.8945 16.1896 62.4366 15.9161 61.9154C14.9004 62.5708 14.8926 62.5787 14.2675 61.5759C13.4158 60.2098 12.5876 58.8358 11.7125 57.4934C11.3765 56.9802 11.4234 56.7038 11.9234 56.3563C13.1345 55.5193 14.2675 54.6349 15.502 53.7663C16.0958 53.3715 16.7131 52.9767 17.2913 52.5661C17.8695 52.1555 18.7212 51.8949 18.6899 51.4053C18.6587 50.9158 17.7211 50.6947 17.1272 50.3867C16.5334 50.0787 16.088 49.5576 15.4161 49.5497C13.8534 49.5497 12.2282 49.5497 10.6342 49.5497C10.3365 49.4744 10.0674 49.3121 9.86037 49.0833C9.65333 48.8544 9.51756 48.5689 9.46998 48.2626C9.46821 47.8685 9.61233 47.4879 9.87401 47.1957C10.1357 46.9035 10.496 46.7207 10.8842 46.6833C10.4189 46.1406 10.1285 45.4673 10.0517 44.7534C9.9749 44.0395 10.1154 43.3189 10.4545 42.6878C10.8686 41.7007 11.2358 40.6821 11.6187 39.6161C10.8466 39.6362 10.0778 39.7261 9.32152 39.8846C8.06354 40.0899 7.59473 39.8846 6.97746 38.7949C6.63367 36.3233 6.29769 33.8596 5.93046 31.3881C5.86643 31.1556 5.84991 30.9125 5.88191 30.6734C5.91391 30.4343 5.99375 30.2043 6.11658 29.9975C6.2394 29.7906 6.40263 29.6111 6.59631 29.4701C6.79 29.3291 7.01008 29.2294 7.24313 29.1771C7.98542 29.0192 8.673 29.5166 9.14181 30.5431C9.39184 32.3988 9.64969 34.2544 9.92316 36.0706C9.96223 36.3865 10.1029 36.4575 10.392 36.4023C11.0483 36.2917 11.7125 36.2048 12.3766 36.118C12.5392 36.1049 12.6936 36.0408 12.8183 35.9346C12.9431 35.8284 13.0317 35.6855 13.072 35.5257C13.6033 33.9465 14.1425 32.3672 14.7441 30.8353C14.9483 30.2666 15.3099 29.7691 15.7858 29.402C16.2617 29.035 16.8318 28.8138 17.4285 28.7647C18.0252 28.7156 18.6233 28.8407 19.1516 29.1252C19.68 29.4097 20.1164 29.8416 20.4089 30.3694C20.6355 30.7327 20.7214 31.0643 20.1432 31.1591C20.0292 31.0584 19.9246 30.9474 19.8307 30.8274C19.5995 30.3703 19.2276 30.0015 18.771 29.7765C18.3144 29.5515 17.7979 29.4825 17.2991 29.5798C16.8237 29.6485 16.3797 29.8598 16.0244 30.1865C15.6692 30.5131 15.4192 30.9399 15.3067 31.4118C14.9785 32.3988 14.6035 33.37 14.2597 34.3492C13.7283 35.8416 13.7362 35.8495 15.2442 35.6758L15.7833 35.6126C15.9922 35.5752 16.2063 35.5798 16.4134 35.6263C16.6205 35.6728 16.8164 35.7602 16.99 35.8835C17.1635 36.0068 17.3112 36.1635 17.4246 36.3447C17.538 36.5259 17.6149 36.7279 17.6507 36.9392C17.6921 37.1515 17.6898 37.3702 17.644 37.5816C17.5982 37.7929 17.51 37.9926 17.3847 38.168C17.2594 38.3435 17.0998 38.4911 16.9157 38.6017C16.7316 38.7122 16.527 38.7833 16.3146 38.8106C15.2754 38.9923 14.2284 39.1344 13.1892 39.2765C12.822 39.3318 12.5016 39.3713 12.3454 39.8135C11.9234 41.0137 11.4312 42.1824 11.0249 43.3905C10.8815 43.6925 10.8012 44.0211 10.789 44.3559C10.7768 44.6906 10.8329 45.0243 10.9539 45.3361C11.0748 45.648 11.258 45.9314 11.492 46.1686C11.726 46.4058 12.0059 46.5918 12.3141 46.7149L19.2525 50.6631C20.2214 51.2158 20.2214 51.3185 19.3306 51.9502C17.1819 53.4742 15.041 55.014 12.8689 56.5143C12.4001 56.8459 12.3454 57.0749 12.6735 57.5566C13.4158 58.6542 14.1112 59.7834 14.7754 60.9283C15.0957 61.4732 15.3223 61.4021 15.6661 60.9678C15.9586 60.6504 16.1614 60.2595 16.2535 59.8359C16.3456 59.4123 16.3235 58.9715 16.1896 58.5594C15.9161 57.7698 16.1896 57.5092 16.7991 57.1855C19.3228 55.8352 21.8232 54.4297 24.3469 53.0636C24.7336 52.9146 25.0693 52.6556 25.3134 52.3179C25.5574 51.9801 25.6994 51.5781 25.7221 51.1606C25.7116 50.7433 25.5802 50.3382 25.3441 49.9957C25.1079 49.6532 24.7775 49.3883 24.3938 49.2338C21.7841 47.7019 19.2056 46.1306 16.5803 44.6145C16.4644 44.579 16.3583 44.5168 16.2703 44.4329C16.1823 44.3489 16.1148 44.2454 16.0731 44.1306C16.0314 44.0157 16.0167 43.8926 16.0302 43.7711C16.0436 43.6495 16.0848 43.5327 16.1505 43.43C16.9788 41.2269 17.7132 38.9922 18.5805 36.7813C18.7681 36.2838 18.6821 35.9916 18.2211 35.8021C17.8031 35.5987 17.4009 35.3638 17.0178 35.0994C16.6595 34.8719 16.3878 34.5287 16.2469 34.1254C16.1061 33.7222 16.1043 33.2826 16.2419 32.8782C16.3795 32.4738 16.6484 32.1283 17.0049 31.8979C17.3614 31.6675 17.7845 31.5658 18.2055 31.6092C18.8775 31.6092 19.3228 32.1066 19.8932 32.3277C22.2373 33.7122 24.5813 35.0888 26.9254 36.4575C27.4123 36.6998 27.7895 37.1206 27.9802 37.6341C28.0427 37.8473 28.1052 38.1237 27.8474 38.2658C27.5895 38.4079 27.4411 38.1947 27.316 37.9894C27.2692 37.8 27.18 37.624 27.0554 37.4748C26.9308 37.3256 26.7741 37.2072 26.5972 37.1287C23.9953 35.6047 21.4012 34.0807 18.7837 32.5725C18.6444 32.4659 18.484 32.3911 18.3133 32.353C18.1427 32.315 17.966 32.3148 17.7953 32.3523C17.6246 32.3898 17.4639 32.4642 17.3243 32.5703C17.1847 32.6765 17.0695 32.8119 16.9866 32.9673C16.6662 33.5833 16.9084 34.1992 17.6507 34.6335C18.8931 35.3678 20.1589 36.0627 21.3778 36.8286C22.0763 37.143 22.7099 37.5877 23.2452 38.1394ZM17.4085 63.084C17.7921 62.8726 18.0806 62.5203 18.2143 62.1C18.3481 61.6797 18.317 61.2235 18.1274 60.8257C17.8695 60.2019 18.1274 59.9571 18.604 59.6728C21.5419 58.0146 24.4745 56.3379 27.402 54.6429C28.1833 54.2007 28.3865 53.5137 27.9802 52.9056C27.8761 52.7727 27.746 52.6629 27.598 52.5831C27.4501 52.5033 27.2874 52.4552 27.1201 52.4418C26.9529 52.4285 26.7848 52.4502 26.6262 52.5055C26.4677 52.5609 26.3221 52.6487 26.1987 52.7635C25.6265 53.2008 25.0261 53.5991 24.4016 53.9558C22.0576 55.2193 19.7135 56.5222 17.4163 57.7856C17.0256 57.9988 16.8069 58.1804 16.9553 58.6779C17.0601 59.0027 17.0941 59.3467 17.055 59.686C17.0159 60.0254 16.9046 60.3522 16.7287 60.6441C16.3224 61.2916 16.674 61.7732 16.8772 62.2944C17.0191 62.5801 17.1978 62.8456 17.4085 63.084ZM6.62586 31.1275C6.97747 33.4964 7.32126 35.9048 7.6885 38.2974C7.82133 39.1581 8.0948 39.3555 8.95428 39.237C11.2983 38.9212 13.6424 38.5895 15.9864 38.2421C16.5568 38.1631 16.9553 37.8631 16.9084 37.2077C16.8914 37.0715 16.8452 36.9407 16.7732 36.8244C16.7011 36.708 16.6049 36.6088 16.4912 36.5337C16.3776 36.4586 16.2491 36.4094 16.1147 36.3894C15.9803 36.3694 15.8433 36.3792 15.713 36.418C13.8612 36.6944 12.0016 36.9629 10.1498 37.2787C9.54811 37.3814 9.32153 37.2077 9.24339 36.5918C8.99336 34.6887 8.69644 32.7936 8.40734 30.8906C8.32139 30.2984 8.00103 29.9036 7.36814 30.0141C6.73525 30.1247 6.58679 30.559 6.62586 31.1275ZM18.6196 43.122C18.8056 43.0971 18.9797 43.0159 19.1192 42.889C19.2587 42.7622 19.3569 42.5957 19.401 42.4114C19.9401 40.9505 20.4558 39.4818 20.9637 38.021C21.0731 37.7209 21.0262 37.5314 20.7371 37.3893C20.448 37.2472 20.112 37.034 19.7994 36.8444C19.4869 36.6549 19.3853 36.6865 19.2759 37.0024C18.6821 38.6606 18.057 40.3109 17.5101 41.9929C17.346 42.5693 17.8539 43.1299 18.6196 43.122ZM14.2206 48.8785C13.2908 48.2547 12.4782 47.3861 11.2202 47.5124C10.7358 47.5598 10.2904 47.6546 10.3138 48.2231C10.3373 48.7916 10.7436 48.8785 11.2046 48.8785H14.2206Z" fill="#231F20"/>
<path d="M32.4027 57.6119C32.6527 55.2982 33.5825 54.2006 35.7312 53.7505C36.2547 53.6479 36.2235 53.3399 36.2235 52.9609V43.7459C36.1732 43.3188 36.2195 42.8859 36.3588 42.4795C36.4981 42.0732 36.7268 41.7041 37.0277 41.4C37.3285 41.096 37.6938 40.8648 38.0958 40.724C38.4979 40.5833 38.9263 40.5365 39.3489 40.5873C40.9116 40.5873 42.3961 40.5873 43.912 40.5873C44.3573 40.5873 44.4824 40.4452 44.4824 40.0109C44.4824 38.0289 44.4824 36.0627 44.5761 34.0728C44.5761 33.5043 44.4042 33.3858 43.8807 33.3937C41.2007 33.3937 38.5206 33.3937 35.8406 33.3937C35.596 33.4261 35.3473 33.402 35.1131 33.3233C34.879 33.2446 34.6656 33.1133 34.4889 32.9393C34.3122 32.7653 34.1768 32.5531 34.0929 32.3186C34.009 32.0841 33.9787 31.8335 34.0044 31.5855C33.9735 31.3307 33.999 31.0722 34.0791 30.8287C34.1593 30.5851 34.2921 30.3627 34.4679 30.1775C34.6437 29.9923 34.8581 29.8489 35.0955 29.7578C35.333 29.6667 35.5875 29.6302 35.8406 29.6508C38.6014 29.6508 41.3596 29.6508 44.1151 29.6508C44.324 29.6746 44.535 29.6327 44.7196 29.531C44.9041 29.4293 45.0532 29.2726 45.1465 29.0823C46.1857 27.3767 47.8969 26.9266 50.1159 27.4399C50.95 27.6534 51.6843 28.1543 52.192 28.8563C52.6998 29.5583 52.9493 30.4174 52.8975 31.2854C52.8975 33.6543 52.8975 35.9758 52.8975 38.3211C52.8975 38.6053 52.8975 38.8896 52.9444 39.1739C52.8116 40.6821 52.8116 40.6821 54.1867 41.2743C57.7653 42.8141 60.1797 46.4464 60.0391 50.055C59.9478 51.95 59.2958 53.7736 58.1674 55.2898C57.039 56.8061 55.4863 57.9451 53.7101 58.5594C52.1678 59.1843 50.4794 59.3441 48.8491 59.0193C47.2189 58.6945 45.7168 57.899 44.5246 56.7293C43.3324 55.5596 42.5013 54.0657 42.1319 52.4285C41.7624 50.7913 41.8705 49.0809 42.443 47.5045C42.6618 46.8807 42.9431 46.2806 43.2244 45.6726C42.5602 45.6726 41.943 45.6726 41.3335 45.6726C40.9897 45.6726 40.896 45.8147 40.896 46.1384C40.896 48.9732 40.896 51.8081 40.896 54.6428C40.896 55.4325 40.8413 56.2221 40.896 57.0591C40.896 57.604 40.7631 57.8488 40.1615 57.8488C37.8174 57.8488 35.4734 57.8488 33.1293 57.8488C32.8011 57.904 32.5511 57.8882 32.4027 57.6119ZM51.0613 58.3462C52.0805 58.3259 53.0852 58.0976 54.0148 57.675C55.6192 57.0002 56.9812 55.8459 57.9182 54.3668C58.8553 52.8878 59.3227 51.1547 59.2577 49.3996C59.0956 47.6822 58.4459 46.0485 57.3869 44.6953C56.3279 43.3421 54.9046 42.3269 53.2882 41.7718C52.8663 41.6296 52.5928 41.6059 52.374 42.1034C52.0322 42.8305 51.4895 43.4421 50.8113 43.8643C49.0324 45.0372 46.9501 45.6526 44.8262 45.6331C44.6499 45.603 44.4687 45.6268 44.3059 45.7013C44.143 45.7759 44.0059 45.8978 43.912 46.0516C42.8248 47.7878 42.444 49.8815 42.8493 51.8949C43.6463 55.8431 46.7639 58.3225 51.0613 58.3462ZM45.6935 29.6824H47.3187C47.8344 29.6824 48.35 29.6824 48.8814 29.6824C49.1279 29.6848 49.3712 29.74 49.5951 29.8444C49.819 29.9488 50.0184 30.1001 50.1801 30.2882C50.3418 30.4763 50.4622 30.6969 50.5333 30.9355C50.6044 31.1741 50.6246 31.4252 50.5925 31.6723C50.604 31.9076 50.5662 32.1427 50.4815 32.3622C50.3969 32.5817 50.2674 32.7807 50.1015 32.9462C49.9355 33.1117 49.7369 33.2399 49.5186 33.3224C49.3003 33.405 49.0671 33.44 48.8345 33.4253C47.9359 33.4253 47.0296 33.4727 46.131 33.4253C45.4434 33.3779 45.1934 33.5753 45.209 34.3176C45.2559 36.347 45.209 38.3842 45.209 40.4136C45.209 41.1479 44.9824 41.377 44.2792 41.3612C42.6071 41.3612 40.9272 41.3612 39.2551 41.3612C38.9452 41.322 38.6306 41.3553 38.3354 41.4585C38.0403 41.5617 37.7726 41.7321 37.5529 41.9564C37.3332 42.1807 37.1674 42.453 37.0683 42.7523C36.9692 43.0516 36.9395 43.3699 36.9814 43.6827C36.9814 46.9123 36.9814 50.1498 36.9814 53.3794C36.9814 54.0506 36.9033 54.406 36.0906 54.4454C35.4902 54.4584 34.9076 54.6547 34.4196 55.0084C33.9315 55.3622 33.5607 55.8568 33.3559 56.4274C33.1684 56.8854 33.1449 57.217 33.8247 57.217C35.7078 57.217 37.5908 57.217 39.4739 57.217C39.9427 57.217 40.0912 57.0749 40.0912 56.5932C40.0912 53.182 40.0912 49.7708 40.0912 46.328C40.0912 46.1385 40.1771 45.9016 39.9349 45.7752C39.6927 45.6489 39.513 45.5146 39.6223 45.2383C39.7317 44.9619 40.0521 45.0093 40.2943 45.0014C42.0758 44.954 43.8495 44.9461 45.6309 44.8513C47.4174 44.7623 49.1403 44.1536 50.5925 43.0983C51.0786 42.7719 51.4761 42.3278 51.749 41.8065C52.022 41.2852 52.1616 40.7033 52.1552 40.1135C52.1552 37.1445 52.1552 34.1676 52.1552 31.1985C52.1765 30.496 51.9538 29.8081 51.5256 29.2542C51.0974 28.7003 50.4909 28.3154 49.8112 28.1663C48.2407 27.8979 46.6701 27.8979 45.6935 29.6824ZM42.2633 30.4721H36.0125C35.0983 30.4721 34.6842 30.8274 34.6764 31.5934C34.6686 32.3593 35.1218 32.7699 35.9891 32.7699H48.4907C49.4674 32.7699 49.8346 32.4304 49.8268 31.5855C49.819 30.7406 49.483 30.4721 48.5141 30.4721H42.2633Z" fill="#231F20"/>
<path d="M4.35995 28.4505C5.33664 27.4951 6.40708 26.7923 7.86821 27.1555C8.30413 27.2757 8.70726 27.4946 9.04706 27.7956C9.38685 28.0965 9.6544 28.4717 9.82941 28.8927C10.0091 29.256 9.97787 29.5639 9.46217 29.5797L8.94648 28.7901C8.66838 28.3461 8.23886 28.0205 7.73921 27.8749C7.23956 27.7294 6.70446 27.7741 6.23519 28.0004C5.83671 28.1583 5.47636 28.4007 5.17848 28.7113C4.88059 29.0219 4.6521 29.3934 4.50841 29.8008C3.43796 32.7777 2.33625 35.7468 1.28142 38.7316C1.00182 39.2869 0.82444 39.8889 0.757917 40.5083C0.757917 47.057 0.757917 53.5978 0.757917 60.1307C0.757917 60.5492 0.859487 60.7309 1.31267 60.723C3.17229 60.723 5.02409 60.723 6.88371 60.723C7.40722 60.723 7.51661 60.565 7.31346 60.0834C7.12743 59.5792 6.80435 59.1383 6.38138 58.8114C5.95842 58.4845 5.45274 58.2849 4.92252 58.2356C4.35995 58.1645 4.14117 57.9198 4.22712 57.367C4.28963 56.5774 4.31307 55.8588 4.33651 55.1087L4.64124 43.9353C4.60725 43.6764 4.67144 43.414 4.82094 43.2009C5.5002 42.3807 5.97689 41.4091 6.21175 40.3661C6.2977 40.0661 6.37584 39.7423 6.78995 39.7502C7.09468 40.0345 7.00091 40.3583 6.88371 40.6741C6.61024 41.3927 6.32895 42.1113 6.04766 42.8219C5.7769 43.0989 5.56727 43.4306 5.43259 43.7954C5.29791 44.1602 5.24124 44.5496 5.26631 44.9381C5.19599 48.8863 5.07879 52.795 4.94596 56.7274C4.92472 56.8347 4.92579 56.9454 4.9491 57.0522C4.97241 57.1591 5.01746 57.2599 5.08138 57.3483C5.1453 57.4367 5.2267 57.5106 5.32041 57.5655C5.41412 57.6204 5.51809 57.655 5.62574 57.6671C6.29994 57.85 6.90445 58.2328 7.36127 58.7663C7.81808 59.2997 8.10624 59.9593 8.18857 60.6598C8.24326 61.2047 8.12606 61.4494 7.50097 61.4494C5.23505 61.4494 2.96133 61.4494 0.695408 61.4494C0.148462 61.4494 -0.015625 61.2441 -0.015625 60.7151C-0.015625 53.9716 -0.015625 47.2281 -0.015625 40.4846C-0.00662263 40.1723 0.0596099 39.8644 0.179713 39.5765C1.36737 36.2916 2.52377 33.0067 3.7505 29.7218C3.93021 29.2875 4.1568 28.8848 4.35995 28.4505Z" fill="#231F20"/>
<path d="M6.03984 42.8061C6.32113 42.0954 6.60242 41.3769 6.87589 40.6583C6.9931 40.3425 7.08685 40.0187 6.78212 39.7344C6.85244 39.4423 6.92277 39.158 6.98528 38.8658C7.61818 39.9397 8.08699 40.1609 9.32934 39.9555C10.0856 39.7971 10.8544 39.7072 11.6265 39.6871C11.228 40.7531 10.8452 41.7717 10.4623 42.7587C10.1232 43.3898 9.98271 44.1105 10.0595 44.8244C10.1363 45.5383 10.4267 46.2116 10.892 46.7543C10.5038 46.7917 10.1435 46.9745 9.88181 47.2667C9.62013 47.559 9.47602 47.9395 9.47778 48.3336C8.60137 47.4042 7.85955 46.3541 7.27438 45.2145C6.85245 44.4091 6.45396 43.6037 6.03984 42.8061Z" fill="#A7A9AC"/>
<path d="M10.6576 49.5891C12.2203 49.5891 13.8455 49.5891 15.4395 49.5891C16.1115 49.5891 16.5959 50.1182 17.1507 50.4261C17.7054 50.7341 18.6509 50.9868 18.7134 51.4448C18.7759 51.9027 17.8148 52.2344 17.3148 52.6055C16.8147 52.9767 16.1193 53.3952 15.5255 53.8058C14.6269 53.4504 14.0096 52.6687 13.1814 52.2265C13.1814 51.8869 13.1814 51.5474 13.1345 51.2158C13.0876 50.8841 13.3455 50.2129 12.7985 50.1735C12.2516 50.134 12.5094 50.7973 12.4 51.1368C12.3964 51.1868 12.3964 51.2369 12.4 51.2868C11.6795 50.8885 11.0779 50.3022 10.6576 49.5891Z" fill="#A7A9AC"/>
<path d="M52.3896 24.1708C51.1942 26.058 49.6783 26.7924 47.9594 26.3107C47.0666 26.0707 46.2919 25.5082 45.7822 24.7296C45.2724 23.951 45.0629 23.0104 45.1934 22.0862C45.3232 21.1754 45.779 20.3444 46.4746 19.7506C47.1702 19.1568 48.0571 18.8415 48.9673 18.8644C49.2486 18.8644 49.5299 18.8645 49.8112 18.9039C52.2959 19.9542 53.0225 21.4387 52.3896 24.1708ZM48.897 25.7501C49.701 25.7191 50.4641 25.3835 51.0344 24.81C51.6048 24.2365 51.9408 23.4671 51.9755 22.6547C51.9807 21.8338 51.663 21.0444 51.0922 20.4602C50.5215 19.876 49.7445 19.5448 48.9322 19.5396C48.1198 19.5344 47.3387 19.8555 46.7606 20.4323C46.1826 21.009 45.8549 21.7943 45.8497 22.6152C45.8782 23.4265 46.2072 24.1975 46.7716 24.7752C47.336 25.3529 48.0946 25.6952 48.897 25.7343V25.7501Z" fill="#231F20"/>
<path d="M40.8647 54.6981C40.8647 51.8633 40.8647 49.0285 40.8647 46.1937C40.8647 45.87 40.9585 45.7199 41.3023 45.7278C41.9117 45.7278 42.529 45.7278 43.1931 45.7278C42.9431 46.3359 42.6618 46.936 42.4118 47.5598C41.7255 49.6199 41.7892 51.86 42.5915 53.8769C41.9351 53.9716 41.5054 54.5638 40.8647 54.6981Z" fill="#A7A9AC"/>
<path d="M26.8004 57.6671C27.1832 57.067 27.4176 57.4302 27.6442 57.8092C28.074 59.049 28.4959 60.2966 28.9413 61.5363C29.121 62.018 29.2069 62.4681 28.7147 62.7761C28.2224 63.084 27.9333 62.8392 27.5505 62.4997C26.6285 61.5916 25.6908 60.7072 24.761 59.8149C24.5813 59.6412 24.3157 59.4359 24.5501 59.1674C24.7845 58.8989 25.058 59.0805 25.2611 59.2859C26.2144 60.186 27.152 61.0941 28.2771 62.1759C27.8943 60.4624 27.2379 59.0963 26.8004 57.6671Z" fill="#231F20"/>
<path d="M12.3297 51.2632C12.3261 51.2133 12.3261 51.1631 12.3297 51.1132C12.4391 50.7737 12.0797 50.1025 12.7282 50.1498C13.3767 50.1972 13.0251 50.8131 13.0642 51.1921C13.1033 51.5712 13.0642 51.8633 13.1111 52.2029C13.1111 52.8662 13.1111 53.5374 13.072 54.2086C13.072 54.5086 13.072 54.8324 12.6579 54.8087C12.2438 54.785 12.3375 54.4691 12.3375 54.2007C12.3532 53.2215 12.3454 52.2424 12.3297 51.2632Z" fill="#231F20"/>
<path d="M12.3688 61.7574C12.4938 61.4653 12.0953 60.7941 12.7126 60.7941C13.3299 60.7941 13.033 61.4732 13.1033 61.8601C13.115 61.9624 13.115 62.0657 13.1033 62.1681C13.1033 62.476 13.158 62.8708 12.7048 62.8629C12.2516 62.855 12.3766 62.476 12.3688 62.1996C12.361 62.0733 12.3688 61.939 12.3688 61.7574Z" fill="#231F20"/>
<path d="M19.8854 32.3988C19.315 32.1777 18.8696 31.696 18.1977 31.6803C17.7767 31.6369 17.3536 31.7386 16.9971 31.969C16.6406 32.1994 16.3717 32.5449 16.2341 32.9493C16.0965 33.3537 16.0982 33.7932 16.2391 34.1965C16.38 34.5997 16.6517 34.943 17.01 35.1705C17.3931 35.4349 17.7953 35.6698 18.2133 35.8732C18.6743 36.0943 18.7603 36.3549 18.5727 36.8524C17.7445 39.0634 17.01 41.298 16.1427 43.5011C16.077 43.6038 16.0358 43.7206 16.0224 43.8422C16.0089 43.9637 16.0236 44.0868 16.0653 44.2017C16.107 44.3165 16.1745 44.42 16.2625 44.504C16.3505 44.5879 16.4566 44.6501 16.5725 44.6856C19.1822 46.2017 21.7606 47.773 24.386 49.3049C24.7697 49.4594 25.1001 49.7243 25.3363 50.0668C25.5724 50.4093 25.7038 50.8143 25.7143 51.2316C25.6916 51.6492 25.5496 52.0512 25.3055 52.389C25.0615 52.7267 24.7258 52.9857 24.3391 53.1347C21.8153 54.5007 19.315 55.9063 16.7912 57.2566C16.1974 57.5803 15.9083 57.8567 16.1818 58.6305C16.3157 59.0426 16.3378 59.4834 16.2457 59.907C16.1536 60.3306 15.9507 60.7215 15.6583 61.0389C15.3145 61.4732 15.0879 61.5443 14.7675 60.9994C14.1034 59.8545 13.408 58.7253 12.6657 57.6277C12.3375 57.146 12.3922 56.917 12.861 56.5854C15.0332 55.0851 17.1741 53.5453 19.3228 52.0213C20.2136 51.3896 20.2136 51.2869 19.2447 50.7342L12.3063 46.786C11.9981 46.6628 11.7182 46.4769 11.4842 46.2397C11.2502 46.0025 11.067 45.7191 10.946 45.4073C10.8251 45.0954 10.769 44.7617 10.7812 44.427C10.7934 44.0922 10.8737 43.7636 11.0171 43.4616C11.4234 42.2614 11.9156 41.0927 12.3375 39.8846C12.4938 39.4424 12.8142 39.4029 13.1814 39.3476C14.2206 39.2055 15.2676 39.0633 16.3068 38.8817C16.5192 38.8544 16.7238 38.7833 16.9079 38.6728C17.092 38.5622 17.2516 38.4146 17.3769 38.2391C17.5022 38.0637 17.5904 37.864 17.6362 37.6526C17.682 37.4413 17.6842 37.2226 17.6429 37.0103C17.607 36.799 17.5302 36.597 17.4168 36.4158C17.3034 36.2346 17.1557 36.0779 16.9821 35.9546C16.8086 35.8313 16.6127 35.7439 16.4056 35.6974C16.1985 35.6509 15.9844 35.6463 15.7755 35.6837L15.2364 35.7469C13.7283 35.9206 13.7205 35.9127 14.2518 34.4203C14.5956 33.4411 14.9707 32.4699 15.2989 31.4828C15.4114 31.011 15.6614 30.5842 16.0166 30.2575C16.3718 29.9309 16.8159 29.7196 17.2913 29.6509C17.7901 29.5535 18.3066 29.6226 18.7632 29.8476C19.2198 30.0726 19.5917 30.4414 19.8229 30.8985C19.9168 31.0185 20.0214 31.1295 20.1354 31.2302L19.8854 32.3988Z" fill="#FACB62"/>
<path d="M6.98529 38.8659C6.92278 39.1581 6.85245 39.4424 6.78213 39.7345C6.36801 39.7345 6.28988 40.0504 6.20394 40.3505C5.96908 41.3934 5.49238 42.365 4.81313 43.1853C4.66363 43.3983 4.59942 43.6607 4.63341 43.9196L4.32868 55.093C4.32868 55.8431 4.2818 56.6012 4.2193 57.3513C4.1646 57.9041 4.35212 58.141 4.9147 58.2199C5.44492 58.2693 5.95059 58.4688 6.37356 58.7957C6.79652 59.1226 7.1196 59.5635 7.30563 60.0677C7.50878 60.5494 7.3994 60.7152 6.8759 60.7073C5.01628 60.7073 3.16447 60.7073 1.30486 60.7073C0.851673 60.7073 0.750092 60.5336 0.750092 60.1151C0.750092 53.5769 0.750092 47.036 0.750092 40.4926C0.816614 39.8732 0.993999 39.2712 1.2736 38.7159C2.32842 35.7311 3.43013 32.7621 4.50058 29.7851C4.64428 29.3777 4.87278 29.0062 5.17066 28.6956C5.46855 28.385 5.82889 28.1426 6.22738 27.9848C6.69664 27.7584 7.23175 27.7137 7.7314 27.8593C8.23105 28.0048 8.66057 28.3304 8.93867 28.7744L9.45435 29.564C9.44177 29.9281 9.33394 30.2823 9.14181 30.5906C8.673 29.564 7.98542 29.0666 7.24313 29.2245C7.01008 29.2768 6.79 29.3765 6.59632 29.5175C6.40263 29.6585 6.2394 29.838 6.11658 30.0449C5.99376 30.2517 5.91391 30.4817 5.88191 30.7208C5.84991 30.9599 5.86643 31.203 5.93046 31.4355C6.30551 33.9307 6.64149 36.3944 6.98529 38.8659Z" fill="#70C6B9"/>
<path d="M25.2533 25.9079C25.519 25.9079 25.6362 25.6711 25.8315 25.5605C26.1825 25.3634 26.59 25.2942 26.9855 25.3647C27.381 25.4351 27.7405 25.6409 28.0037 25.9474C28.2842 26.2598 28.4396 26.6666 28.4396 27.0885C28.4396 27.5103 28.2842 27.9171 28.0037 28.2295C26.9488 29.3666 25.8549 30.4721 24.7376 31.546C24.45 31.8357 24.0664 32.0073 23.6608 32.0277C23.2553 32.0482 22.8566 31.9159 22.542 31.6565C21.8622 31.1669 21.706 30.3931 22.0888 29.2086C21.4378 29.2855 20.7781 29.1956 20.1705 28.9472C19.5629 28.6988 19.0269 28.2999 18.6118 27.7873C18.0109 27.0317 17.73 26.0666 17.8304 25.1025C17.9344 24.1911 18.3581 23.3475 19.0247 22.7246C19.6912 22.1017 20.5565 21.7407 21.4637 21.7071C23.5187 21.6518 24.972 23.2469 25.2533 25.9079ZM21.5028 22.473C20.9161 22.4683 20.3413 22.6399 19.8513 22.9659C19.3612 23.2918 18.978 23.7576 18.7502 24.304C18.5225 24.8504 18.4605 25.4529 18.5721 26.0349C18.6837 26.617 18.9639 27.1525 19.3771 27.5734C19.7903 27.9943 20.3179 28.2817 20.893 28.3991C21.468 28.5165 22.0647 28.4587 22.6071 28.2329C23.1496 28.0071 23.6135 27.6235 23.9399 27.1309C24.2664 26.6382 24.4407 26.0587 24.4407 25.4658C24.4367 24.6774 24.1266 23.9221 23.5771 23.3624C23.0277 22.8027 22.2829 22.4834 21.5028 22.473ZM23.5968 31.2459C23.7095 31.2596 23.8238 31.2483 23.9318 31.2129C24.0397 31.1774 24.1387 31.1186 24.2219 31.0406C25.3392 29.9272 26.4644 28.8138 27.5427 27.6609C27.6229 27.5728 27.6843 27.4688 27.7229 27.3556C27.7615 27.2423 27.7765 27.1222 27.7669 27.0028C27.7574 26.8834 27.7235 26.7673 27.6674 26.6618C27.6114 26.5563 27.5343 26.4636 27.4411 26.3896C27.3638 26.2907 27.2667 26.2093 27.1563 26.1507C27.0458 26.092 26.9244 26.0575 26.8 26.0493C26.6755 26.0411 26.5507 26.0595 26.4336 26.1031C26.3166 26.1468 26.21 26.2148 26.1206 26.3028C24.9954 27.3688 23.9094 28.4822 22.8389 29.6034C22.706 29.7496 22.6224 29.9345 22.5999 30.1317C22.5775 30.3289 22.6174 30.5282 22.7139 30.701C22.7885 30.872 22.9131 31.0159 23.0709 31.1133C23.2287 31.2107 23.4122 31.2569 23.5968 31.2459Z" fill="#231F20"/>
<path d="M23.2452 38.1394C22.7072 37.6204 22.0796 37.2055 21.3934 36.9155C20.1745 36.1258 18.9087 35.4546 17.6664 34.7203C16.9241 34.286 16.6818 33.67 17.0022 33.0541C17.0851 32.8987 17.2003 32.7633 17.3399 32.6571C17.4795 32.551 17.6402 32.4766 17.8109 32.4391C17.9816 32.4016 18.1584 32.4018 18.329 32.4399C18.4996 32.4779 18.66 32.5527 18.7993 32.6593C21.409 34.1675 24.0031 35.6915 26.6128 37.2155C26.7897 37.294 26.9464 37.4124 27.071 37.5616C27.1956 37.7108 27.2848 37.8868 27.3317 38.0762L23.2452 38.1394Z" fill="#FACB62"/>
<path d="M10.2123 26.7055C9.22793 26.7055 8.28392 26.3103 7.5879 25.6069C6.89187 24.9035 6.50084 23.9495 6.50084 22.9548C6.50084 21.96 6.89187 21.006 7.5879 20.3025C8.28392 19.5991 9.22793 19.204 10.2123 19.204C11.1966 19.204 12.1406 19.5991 12.8366 20.3025C13.5327 21.006 13.9237 21.96 13.9237 22.9548C13.9237 23.9495 13.5327 24.9035 12.8366 25.6069C12.1406 26.3103 11.1966 26.7055 10.2123 26.7055ZM13.1814 23.0021C13.1897 22.6109 13.1214 22.2219 12.9804 21.8574C12.8394 21.493 12.6285 21.1603 12.3598 20.8785C12.0911 20.5967 11.77 20.3714 11.4148 20.2154C11.0597 20.0595 10.6776 19.9761 10.2904 19.9699C9.90151 19.9647 9.51542 20.037 9.15418 20.1826C8.79293 20.3282 8.4636 20.5443 8.18499 20.8186C7.90637 21.0928 7.68394 21.4198 7.53038 21.7809C7.37682 22.142 7.29514 22.5301 7.29001 22.9232C7.28488 23.3162 7.3564 23.7063 7.50048 24.0714C7.64456 24.4365 7.85838 24.7693 8.12974 25.0509C8.40109 25.3325 8.72466 25.5573 9.08198 25.7125C9.43931 25.8676 9.82337 25.9502 10.2123 25.9554C10.9929 25.9596 11.7434 25.6513 12.2998 25.0979C12.8562 24.5445 13.1731 23.791 13.1814 23.0021Z" fill="#231F20"/>
<path d="M26.3863 41.5585C25.7221 41.5585 25.0579 41.5585 24.386 41.5585C24.213 41.5725 24.039 41.5507 23.8747 41.4943C23.7103 41.4379 23.5591 41.3482 23.4304 41.2306C23.3016 41.113 23.1979 40.9701 23.1258 40.8106C23.0536 40.6511 23.0145 40.4783 23.0108 40.303C22.9954 40.127 23.0169 39.9498 23.0738 39.7828C23.1308 39.6158 23.222 39.4628 23.3415 39.3339C23.4609 39.205 23.606 39.103 23.7671 39.0346C23.9283 38.9662 24.1019 38.9329 24.2766 38.9369C25.6908 38.8895 27.1051 38.8895 28.5193 38.9369C28.6974 38.9346 28.874 38.9692 29.0383 39.0384C29.2026 39.1077 29.3511 39.2102 29.4748 39.3396C29.5984 39.4691 29.6945 39.6227 29.7572 39.7911C29.8199 39.9595 29.8478 40.1391 29.8393 40.3188C29.8307 40.4985 29.7859 40.6745 29.7075 40.8361C29.6292 40.9976 29.5189 41.1412 29.3835 41.2581C29.2482 41.375 29.0906 41.4626 28.9205 41.5156C28.7504 41.5686 28.5713 41.5859 28.3943 41.5664C27.7224 41.5743 27.0582 41.5585 26.3863 41.5585ZM26.3863 40.7689H28.3162C28.699 40.7689 29.0038 40.6188 29.0116 40.2161C29.0194 39.8134 28.7147 39.6397 28.3396 39.6397H24.4329C24.0422 39.6397 23.7453 39.7976 23.7218 40.1924C23.6984 40.5872 24.0266 40.761 24.4016 40.761L26.3863 40.7689Z" fill="#231F20"/>
<path d="M23.5968 45.6805C24.0031 44.6618 24.3235 43.8406 24.6517 43.0273C24.7454 42.7904 24.847 42.4666 25.1673 42.5772C25.4877 42.6877 25.4174 43.0431 25.3158 43.3116C24.9798 44.1802 24.636 45.0487 24.2922 45.9094C24.252 46.0616 24.1623 46.1957 24.0376 46.2902C23.913 46.3847 23.7605 46.4342 23.6046 46.4306C23.4491 46.4346 23.2965 46.3876 23.1697 46.2964C23.0428 46.2053 22.9487 46.075 22.9014 45.9252C22.3467 44.6381 21.7919 43.3589 21.245 42.0718C21.1434 41.8349 21.0105 41.5349 21.3231 41.3848C21.6356 41.2348 21.8075 41.5428 21.9169 41.7954C22.4639 43.0194 22.9952 44.2433 23.5968 45.6805Z" fill="#231F20"/>
<path d="M26.4878 10.6048C23.0264 10.3284 19.8541 11.7261 16.549 12.3815C13.9081 12.9105 11.2983 13.6212 8.66519 14.245C7.54785 14.5135 6.70399 14.0792 6.4774 13.1237C6.42147 12.8949 6.41445 12.6567 6.4568 12.4249C6.49914 12.1932 6.58988 11.9732 6.72297 11.7797C6.85605 11.5862 7.02842 11.4235 7.2286 11.3026C7.42877 11.1817 7.65215 11.1053 7.88383 11.0786C12.486 9.97307 17.0803 8.86757 21.6903 7.79367C22.4248 7.61995 22.8702 7.41465 23.0264 6.53815C23.1464 5.83704 23.5016 5.19907 24.0325 4.73166C24.5633 4.26425 25.2372 3.99592 25.9409 3.97183C26.7222 3.90077 27.7849 3.44278 28.2849 3.97183C28.785 4.50089 28.6131 5.48005 28.7147 6.27758C28.8709 7.43835 28.9881 8.59909 29.1522 9.75985C29.2069 10.1626 29.1522 10.3995 28.6756 10.4153C27.9802 10.4626 27.2379 10.5495 26.4878 10.6048Z" fill="#70C6B9"/>
<path d="M42.8259 8.63073C42.8259 10.9523 42.8259 10.9365 40.5287 10.9049C40.0365 10.9049 39.8646 10.7233 39.9271 10.2653C40.0365 9.52303 39.6302 9.47566 39.0442 9.53093C36.2235 9.79941 33.4028 10.0205 30.5899 10.2811C30.1133 10.3284 29.9414 10.1547 29.8867 9.71253C29.6836 7.92795 29.4726 6.15129 29.2382 4.37461C29.1757 3.88503 29.3007 3.7113 29.832 3.67182C32.7308 3.45072 35.6296 3.22964 38.5207 2.92168C41.0444 2.64531 42.7946 3.88503 42.8259 6.9883C42.8337 7.53315 42.8259 8.07799 42.8259 8.63073Z" fill="#FACB62"/>
<path d="M39.8411 14.6241H11.2905C11.3921 14.1819 11.7672 14.2766 11.9781 14.2292C16.0724 13.229 20.1693 12.2446 24.2688 11.276C24.4873 11.2012 24.7185 11.1717 24.9486 11.1892C26.8941 11.584 28.8006 11.0944 30.7149 10.968C33.3637 10.8022 36.0047 10.5338 38.6456 10.2969C39.1223 10.2495 39.302 10.3995 39.2395 10.897C39.1926 11.2286 39.2395 11.5682 39.2395 11.9077C39.1523 12.378 39.1607 12.8614 39.2642 13.3284C39.3676 13.7953 39.5639 14.2361 39.8411 14.6241Z" fill="#A7A9AC"/>
<path d="M46.4592 0.74231C47.2612 0.760249 48.0256 1.08916 48.5943 1.66094C49.163 2.23272 49.4924 3.00358 49.5143 3.81398C49.5091 4.63911 49.1798 5.42838 48.5988 6.00813C48.0178 6.58789 47.2327 6.91065 46.4162 6.90541C45.5997 6.90018 44.8187 6.56739 44.2451 5.98023C43.6714 5.39307 43.352 4.59964 43.3572 3.77451C43.3893 2.96298 43.7296 2.19514 44.3072 1.63048C44.8849 1.06582 45.6555 0.747752 46.4592 0.74231Z" fill="#FFDDB5"/>
<path d="M44.8027 11.6234H48.811C49.8737 11.6234 50.4675 12.1604 50.4675 13.0447C50.4615 13.2541 50.4123 13.4599 50.3229 13.6488C50.2335 13.8378 50.1059 14.0057 49.9484 14.1418C49.7909 14.2779 49.6069 14.3792 49.4084 14.4391C49.2098 14.4991 49.001 14.5163 48.7954 14.4898C46.381 14.4898 43.9667 14.4898 41.5445 14.4898C41.2418 14.4702 40.9483 14.377 40.689 14.2182C40.4296 14.0594 40.212 13.8396 40.0547 13.5775C39.8975 13.3155 39.8052 13.0189 39.7856 12.713C39.7661 12.4072 39.82 12.1011 39.9427 11.8208C40.0677 11.5602 40.2943 11.6629 40.4818 11.6629H44.8027V11.6234Z" fill="#FFDDB5"/>
<path d="M17.4085 63.084C17.1868 62.8475 16.9976 62.5819 16.8459 62.2944C16.6428 61.7732 16.2912 61.2915 16.6975 60.644C16.8733 60.3522 16.9846 60.0254 17.0237 59.686C17.0629 59.3466 17.0289 59.0027 16.9241 58.6779C16.7756 58.1804 16.9944 57.9988 17.3851 57.7856C19.7291 56.5221 22.0341 55.2192 24.3704 53.9558C24.9949 53.5991 25.5953 53.2008 26.1675 52.7635C26.2909 52.6487 26.4364 52.5608 26.595 52.5055C26.7535 52.4501 26.9217 52.4285 27.0889 52.4418C27.2561 52.4552 27.4188 52.5032 27.5668 52.583C27.7148 52.6629 27.8449 52.7727 27.949 52.9056C28.3553 53.5136 28.1365 54.2006 27.3708 54.6428C24.4433 56.3326 21.5106 58.0093 18.5727 59.6728C18.0727 59.9571 17.8383 60.2019 18.0961 60.8257C18.2883 61.2197 18.3241 61.673 18.1963 62.0929C18.0684 62.5127 17.7866 62.8673 17.4085 63.084Z" fill="#FACB62"/>
<path d="M6.62586 31.1275C6.58679 30.559 6.77432 30.1089 7.36033 30.0141C7.94634 29.9194 8.31358 30.2984 8.39953 30.8906C8.68863 32.7936 8.98554 34.6888 9.23557 36.5918C9.3137 37.2077 9.5403 37.3814 10.1419 37.2788C11.9937 36.9629 13.8534 36.6944 15.7052 36.4181C15.8354 36.3792 15.9725 36.3695 16.1069 36.3894C16.2413 36.4094 16.3697 36.4586 16.4834 36.5337C16.5971 36.6088 16.6933 36.708 16.7654 36.8244C16.8374 36.9407 16.8835 37.0715 16.9006 37.2077C16.9475 37.8631 16.549 38.1631 15.9786 38.2421C13.6398 38.5896 11.2957 38.9212 8.94647 39.2371C8.08699 39.3555 7.81352 39.1581 7.68069 38.2974C7.32127 35.9048 6.97747 33.5122 6.62586 31.1275Z" fill="#70C6B9"/>
<path d="M18.6196 43.1221C17.8383 43.1221 17.3226 42.5693 17.5179 41.9929C18.0649 40.311 18.6899 38.6606 19.2838 37.0024C19.3931 36.6865 19.565 36.6865 19.8073 36.8445C20.0495 37.0024 20.4245 37.2156 20.7449 37.3893C21.0652 37.563 21.0809 37.721 20.9715 38.021C20.4323 39.4818 19.9167 40.9506 19.4088 42.4114C19.3642 42.5968 19.2648 42.7641 19.1238 42.8911C18.9829 43.018 18.807 43.0986 18.6196 43.1221Z" fill="#EF9A73"/>
<path d="M14.2206 48.8785H11.2046C10.7436 48.8785 10.3373 48.7285 10.3138 48.2231C10.2904 47.7177 10.7358 47.5598 11.2202 47.5124C12.4391 47.4019 13.2517 48.2547 14.2206 48.8785Z" fill="#EF9A73"/>
<path d="M51.0613 58.3462C46.7639 58.3462 43.6463 55.843 42.8181 51.8948C42.4128 49.8815 42.7935 47.7877 43.8807 46.0515C43.9746 45.8978 44.1118 45.7758 44.2746 45.7013C44.4375 45.6267 44.6186 45.603 44.7949 45.633C46.9189 45.6525 49.0011 45.0371 50.78 43.8642C51.4582 43.442 52.001 42.8305 52.3427 42.1034C52.5615 41.6059 52.835 41.6296 53.2569 41.7717C54.8733 42.3268 56.2966 43.3421 57.3557 44.6953C58.4147 46.0485 59.0643 47.6821 59.2265 49.3996C59.2923 51.1497 58.8287 52.8784 57.8976 54.3555C56.9665 55.8325 55.6121 56.9877 54.0148 57.6671C53.0857 58.0924 52.0811 58.3234 51.0613 58.3462Z" fill="#70C6B9"/>
<path d="M45.6934 29.6824C46.6701 27.8978 48.2407 27.8979 49.819 28.1663C50.4987 28.3154 51.1052 28.7003 51.5334 29.2542C51.9616 29.8081 52.1843 30.496 52.163 31.1985C52.163 34.1676 52.163 37.1445 52.163 40.1135C52.1694 40.7032 52.0298 41.2852 51.7569 41.8065C51.4839 42.3278 51.0864 42.7719 50.6003 43.0983C49.1481 44.1535 47.4252 44.7623 45.6388 44.8513C43.8573 44.9461 42.0836 44.954 40.3021 45.0013C40.0599 45.0013 39.7552 44.9145 39.6302 45.2383C39.5051 45.562 39.7161 45.6647 39.9427 45.7752C40.1693 45.8857 40.099 46.1384 40.099 46.328C40.099 49.7471 40.099 53.1583 40.099 56.5932C40.099 57.0749 39.9505 57.217 39.4817 57.217C37.5986 57.217 35.7156 57.217 33.8325 57.217C33.1528 57.217 33.1762 56.9012 33.3637 56.4274C33.5685 55.8568 33.9393 55.3621 34.4274 55.0084C34.9154 54.6547 35.498 54.4584 36.0985 54.4454C36.8798 54.4059 36.997 54.0506 36.9892 53.3794C36.9892 50.1498 36.9892 46.9123 36.9892 43.6827C36.9473 43.3699 36.977 43.0516 37.0761 42.7523C37.1752 42.453 37.341 42.1807 37.5607 41.9564C37.7804 41.732 38.0481 41.5617 38.3433 41.4585C38.6384 41.3553 38.953 41.322 39.2629 41.3611C40.935 41.3611 42.6149 41.3611 44.287 41.3611C44.9902 41.3611 45.2325 41.1479 45.2168 40.4136C45.1778 38.3842 45.2168 36.3469 45.2168 34.3176C45.2168 33.5753 45.4512 33.3779 46.1388 33.4253C47.0374 33.4806 47.9437 33.4253 48.8423 33.4253C49.075 33.44 49.3081 33.405 49.5264 33.3224C49.7447 33.2398 49.9433 33.1116 50.1093 32.9462C50.2752 32.7807 50.4047 32.5817 50.4894 32.3622C50.574 32.1427 50.6118 31.9076 50.6003 31.6723C50.6324 31.4252 50.6122 31.1741 50.5411 30.9355C50.47 30.6969 50.3496 30.4762 50.1879 30.2882C50.0262 30.1001 49.8268 29.9488 49.6029 29.8444C49.379 29.74 49.1357 29.6848 48.8892 29.6824C48.3735 29.6824 47.8578 29.6824 47.3265 29.6824H45.6934Z" fill="#EF9A73"/>
<path d="M42.2633 30.4404H48.5141C49.483 30.4404 49.819 30.7326 49.8268 31.5538C49.8346 32.375 49.4674 32.7383 48.4907 32.7383H35.9891C35.1218 32.7383 34.6764 32.3198 34.6764 31.5617C34.6764 30.8037 35.0983 30.4404 36.0125 30.4404H42.2633Z" fill="#EF9A73"/>
<path d="M48.897 25.7342C48.0881 25.6945 47.324 25.3467 46.7587 24.7606C46.1933 24.1746 45.8685 23.3939 45.8497 22.5757C45.8549 21.7547 46.1826 20.9695 46.7606 20.3927C47.3387 19.8159 48.1198 19.4948 48.9322 19.5001C49.7445 19.5053 50.5215 19.8364 51.0922 20.4206C51.663 21.0048 51.9807 21.7942 51.9755 22.6152C51.9465 23.4317 51.6131 24.207 51.0421 24.7855C50.4712 25.364 49.7049 25.7029 48.897 25.7342Z" fill="#FFDDB5"/>
<path d="M21.5028 22.473C22.0891 22.4794 22.6604 22.6614 23.1442 22.9962C23.628 23.331 24.0025 23.8033 24.2204 24.3535C24.4383 24.9036 24.4897 25.5067 24.3681 26.0864C24.2465 26.666 23.9573 27.1962 23.5373 27.6096C23.1172 28.023 22.5852 28.3011 22.0086 28.4086C21.432 28.5161 20.8368 28.4483 20.2984 28.2136C19.76 27.9789 19.3026 27.588 18.9843 27.0904C18.666 26.5928 18.501 26.0109 18.5102 25.4184C18.5286 24.6294 18.8523 23.8791 19.4117 23.3285C19.9712 22.7779 20.7219 22.4708 21.5028 22.473Z" fill="#FFDDB5"/>
<path d="M23.5968 31.246C23.4122 31.257 23.2287 31.2107 23.0709 31.1133C22.9131 31.0159 22.7885 30.8721 22.7139 30.7011C22.6174 30.5283 22.5775 30.3289 22.5999 30.1318C22.6224 29.9346 22.706 29.7497 22.8389 29.6035C23.9094 28.4822 24.9954 27.3688 26.1206 26.3028C26.2099 26.2149 26.3166 26.1468 26.4336 26.1032C26.5507 26.0595 26.6755 26.0412 26.7999 26.0494C26.9244 26.0576 27.0458 26.0921 27.1563 26.1507C27.2667 26.2093 27.3637 26.2908 27.4411 26.3897C27.5316 26.4666 27.6054 26.5614 27.658 26.6684C27.7105 26.7754 27.7407 26.8922 27.7466 27.0116C27.7524 27.1309 27.7339 27.2502 27.6921 27.3619C27.6503 27.4736 27.5861 27.5755 27.5036 27.661C26.4253 28.8139 25.3002 29.9273 24.1828 31.0406C24.1042 31.1135 24.0116 31.1693 23.9108 31.2046C23.8101 31.2399 23.7032 31.254 23.5968 31.246Z" fill="#EF9A73"/>
<path d="M13.1814 23.0021C13.1737 23.3941 13.0897 23.7807 12.9342 24.1398C12.7786 24.499 12.5546 24.8237 12.2749 25.0953C11.9952 25.367 11.6653 25.5803 11.304 25.7232C10.9427 25.866 10.5572 25.9355 10.1693 25.9277C9.78143 25.9199 9.39888 25.835 9.04349 25.6778C8.6881 25.5206 8.36683 25.2943 8.09801 25.0116C7.8292 24.7289 7.6181 24.3955 7.47678 24.0304C7.33546 23.6653 7.26669 23.2756 7.27439 22.8837C7.30087 22.0961 7.63128 21.3503 8.19492 20.8057C8.75856 20.2612 9.51069 19.9612 10.2904 19.9699C10.6776 19.9761 11.0597 20.0595 11.4148 20.2154C11.77 20.3713 12.0911 20.5967 12.3598 20.8785C12.6285 21.1603 12.8394 21.493 12.9804 21.8574C13.1214 22.2219 13.1897 22.6109 13.1814 23.0021Z" fill="#FFDDB5"/>
<path d="M26.4175 40.8006H24.3782C24.0031 40.8006 23.6828 40.6505 23.6984 40.232C23.714 39.8135 24.0187 39.6714 24.4094 39.6793H28.3162C28.6912 39.6793 29.0038 39.8372 28.9881 40.2557C28.9725 40.6742 28.6756 40.8084 28.2927 40.8084L26.4175 40.8006Z" fill="#EF9A73"/>
</g>
<defs>
<clipPath id="clip0_186_3856">
<rect width="60" height="64" fill="white"/>
</clipPath>
</defs>
</svg>
