<svg width="62" height="67" viewBox="0 0 62 67" fill="none" xmlns="http://www.w3.org/2000/svg">
<g clip-path="url(#clip0_186_4312)">
<path d="M20.2571 16.5917C21.3886 15.8385 22.43 14.9656 23.624 14.3039C25.9079 12.9938 28.4049 12.1093 30.9965 11.6923C31.6283 11.5938 32.2669 11.4882 32.8987 11.4319C33.3152 11.3896 33.2597 11.108 33.2597 10.8476C33.2597 9.37638 33.2597 7.9122 33.2597 6.44099C33.2134 6.20331 33.2426 5.9569 33.343 5.73706C33.343 7.67991 33.343 9.62982 33.3777 11.5727C33.3889 11.806 33.3486 12.039 33.2597 12.2545C33.1708 12.4701 33.0356 12.6628 32.864 12.8186C31.4755 14.2264 30.1704 15.6343 28.8236 17.0774C28.602 17.2501 28.4402 17.4898 28.3616 17.7618C28.283 18.0338 28.2916 18.3241 28.3863 18.5908C28.5012 18.8764 28.7054 19.1157 28.9676 19.2721C29.2297 19.4286 29.5352 19.4934 29.8372 19.4566C30.3509 19.4566 30.8646 19.4566 31.3783 19.4566C31.8921 19.4566 32.0726 19.5763 32.0726 20.1183C32.0726 24.7361 32.0726 29.3609 32.0378 33.9787C32.0378 34.6826 32.1906 34.8586 32.8848 34.8586C40.41 34.8586 47.9353 34.8586 55.4605 34.8586C56.0159 34.8586 56.5782 34.8586 57.1336 34.8586C56.9705 37.9884 56.2287 41.0593 54.9468 43.9112C54.1503 45.5457 53.187 47.0911 52.0728 48.5219C52.0728 47.459 52.0728 46.4101 52.0728 45.3331C52.0842 45.0789 51.9968 44.8302 51.8293 44.6407C51.6619 44.4511 51.4277 44.3358 51.1773 44.3194C50.9207 44.2693 50.655 44.323 50.437 44.4691C50.2191 44.6151 50.0661 44.8419 50.011 45.1008C49.9269 45.4077 49.908 45.7292 49.9554 46.0441C49.9771 46.2085 49.9447 46.3757 49.8631 46.5195C49.7815 46.6633 49.6553 46.7758 49.5042 46.8395C48.4472 47.4322 47.487 48.1873 46.6579 49.078C46.1095 49.6693 45.6652 50.3381 45.0613 51.0842C45.3135 50.0272 45.46 48.947 45.4986 47.8602C45.4872 47.0867 45.1995 46.3436 44.6888 45.7689C44.1782 45.1941 43.4793 44.8267 42.7218 44.7348C41.9367 44.641 41.1463 44.858 40.5152 45.3406C39.884 45.8232 39.4609 46.5341 39.334 47.3252C39.1872 48.3065 38.9382 49.2692 38.5912 50.1973C38.4107 50.6267 38.251 50.7463 37.7581 50.6267C37.1125 50.4577 36.3697 50.0213 35.7658 50.4929C35.2688 50.819 34.6703 50.9469 34.0858 50.8519C29.9775 50.8031 25.8967 51.5361 22.0551 53.013C21.0624 52.2035 20.0419 51.4221 19.1255 50.514C18.9381 50.331 18.6951 50.1761 18.6882 49.8664C19.462 49.7691 20.2436 49.7526 21.0207 49.8171C21.6386 49.8171 21.8191 49.6412 21.8121 49.0147C21.7774 46.0511 21.8121 43.0876 21.8121 40.124C21.8121 39.6242 21.9232 39.4201 22.4438 39.3567C23.263 39.2511 24.0544 39.0118 24.8597 38.8358C25.2693 38.7443 25.4498 38.5613 25.3456 38.0756C25.0957 36.9071 24.9083 35.7245 24.7 34.5559L22.2217 20.9349C21.8468 19.3229 21.7149 17.6617 20.2571 16.5917ZM41.3819 44.0449C41.7941 44.0496 42.2031 43.971 42.5849 43.8136C42.9668 43.6563 43.314 43.4233 43.6061 43.1284C43.8982 42.8335 44.1294 42.4826 44.2863 42.0961C44.4432 41.7095 44.5226 41.2952 44.5198 40.8772C44.5198 40.0215 44.185 39.2008 43.5889 38.595C42.9929 37.9893 42.1842 37.6481 41.3403 37.6462C40.5106 37.6786 39.7249 38.0324 39.1449 38.6349C38.565 39.2374 38.2351 40.0425 38.2233 40.8843C38.2251 41.7288 38.5572 42.5381 39.1468 43.1346C39.7364 43.7311 40.5352 44.066 41.368 44.066L41.3819 44.0449Z" fill="#A7A9AC"/>
<path d="M21.9926 52.9989C25.8343 51.522 29.9151 50.789 34.0233 50.8378C34.6078 50.9328 35.2063 50.8049 35.7033 50.4788C36.3211 50.0072 37.0501 50.4788 37.6957 50.6125C38.1886 50.7322 38.3482 50.6126 38.5287 50.1832C38.8758 49.2551 39.1248 48.2924 39.2715 47.3111C39.3984 46.52 39.8215 45.8091 40.4527 45.3265C41.0838 44.8439 41.8742 44.6268 42.6593 44.7207C43.4168 44.8126 44.1157 45.18 44.6264 45.7548C45.137 46.3295 45.4247 47.0726 45.4361 47.8461C45.3975 48.9329 45.251 50.0131 44.9988 51.0701C45.6027 50.3239 46.047 49.6623 46.5954 49.0639C47.4245 48.1732 48.3847 47.4181 49.4417 46.8254C49.5928 46.7617 49.719 46.6492 49.8006 46.5054C49.8822 46.3616 49.9147 46.1944 49.893 46.03C49.8455 45.7151 49.8644 45.3936 49.9485 45.0867C50.0036 44.8278 50.1566 44.601 50.3746 44.455C50.5925 44.3089 50.8582 44.2552 51.1148 44.3054C51.3652 44.3217 51.5994 44.4371 51.7668 44.6266C51.9343 44.8162 52.0217 45.0648 52.0103 45.319C52.0103 46.382 52.0103 47.4308 52.0103 48.5078C52.0103 54.3739 52.0103 60.24 52.0103 66.106C52.0103 66.3665 52.2463 66.8522 51.7604 66.8522C51.2744 66.8522 51.4549 66.3594 51.441 66.0568C51.441 65.3528 51.6771 64.4236 51.33 64.0294C50.9829 63.6352 49.9901 63.8887 49.282 63.8887C38.9244 63.8887 28.5668 63.8887 18.2092 63.8887C17.6191 63.8887 17.3761 64.0083 17.4386 64.6559C17.5011 65.3036 17.4386 65.9652 17.4386 66.6199C17.4386 66.8029 17.4386 67.0071 17.1748 67.0211C16.911 67.0352 16.8485 66.8451 16.8485 66.6199V52.7384C16.8901 52.478 16.7097 52.0345 17.1609 52.0345C17.6121 52.0345 17.4316 52.492 17.4316 52.7384C17.4316 53.7802 17.4316 54.8502 17.4316 55.8639C17.3954 56.1024 17.4266 56.3466 17.5219 56.5678C17.9801 56.061 18.4035 55.5612 18.8687 55.0966C19.8434 54.3004 20.8892 53.5981 21.9926 52.9989ZM34.4884 63.241C39.9171 63.241 45.3389 63.241 50.7677 63.241C51.2744 63.241 51.4619 63.1284 51.4619 62.5793C51.4202 61.4249 51.4063 60.2634 51.4619 59.116C51.4619 58.4825 51.2814 58.4121 50.7121 58.4121C43.1221 58.4121 35.532 58.4121 27.942 58.4121C24.707 58.4121 21.465 58.4121 18.223 58.4121C17.7302 58.4121 17.5705 58.5247 17.5913 59.0456C17.633 60.2212 17.6399 61.4038 17.5913 62.5653C17.5913 63.1425 17.744 63.2692 18.2855 63.2692C23.6726 63.227 29.0736 63.241 34.4745 63.241H34.4884ZM17.7232 57.7645H31.3714C34.1482 57.7645 36.9876 57.7645 39.7991 57.7645C40.3476 57.7645 40.3823 57.6026 40.2018 57.1591C39.84 56.2109 39.3963 55.2969 38.8758 54.4279C38.7847 54.2472 38.6542 54.0899 38.4942 53.9679C38.3342 53.846 38.149 53.7626 37.9525 53.7239C37.2583 53.5832 36.6196 53.372 35.9532 53.1889C35.6739 53.1363 35.4198 52.9907 35.2312 52.7753C35.0426 52.5598 34.9303 52.2868 34.9119 51.9993C34.9119 51.5206 34.6758 51.4713 34.301 51.4573C31.496 51.3874 28.6945 51.6976 25.9704 52.3794C23.9021 52.7537 21.9427 53.5932 20.2362 54.8361C19.1854 55.6048 18.3212 56.6063 17.7093 57.7645H17.7232ZM39.5076 54.1885C39.8547 54.8924 40.1671 55.4978 40.4239 56.1102C40.5697 56.4481 40.6947 56.3566 40.896 56.1877C42.1391 55.1882 43.1406 53.914 43.824 52.4622C44.5074 51.0104 44.8546 49.4195 44.8391 47.8109C44.8269 47.1587 44.5679 46.5362 44.1156 46.0724C43.6633 45.6085 43.0524 45.3388 42.4094 45.319C41.7902 45.3095 41.1889 45.5295 40.7185 45.9378C40.2481 46.3462 39.9409 46.9146 39.8547 47.5364C39.7321 48.5175 39.4992 49.4811 39.1605 50.4084C39.1049 50.5703 38.7717 50.7956 39.1605 50.9434C39.2208 50.9777 39.2875 50.9987 39.3564 51.0052C39.4253 51.0116 39.4947 51.0032 39.5602 50.9807C39.6256 50.9581 39.6857 50.9218 39.7364 50.8742C39.7872 50.8265 39.8275 50.7685 39.8547 50.7041C40.2642 49.9297 40.7363 49.1906 41.1806 48.4374C41.3125 48.2122 41.4583 47.9658 41.7429 48.1629C42.0275 48.36 41.8123 48.5782 41.7013 48.7612C41.2361 49.5566 40.7224 50.3239 40.3128 51.1405C40.2733 51.2507 40.2111 51.3512 40.1304 51.4354C40.0498 51.5195 39.9525 51.5853 39.8449 51.6285C39.7374 51.6718 39.622 51.6914 39.5064 51.6861C39.3908 51.6809 39.2776 51.6509 39.1743 51.5981C38.4315 51.3798 37.6679 51.2179 36.9112 51.0349C36.7811 51.0035 36.6488 50.9823 36.5155 50.9716C36.3087 50.9466 36.1001 51.001 35.9309 51.1242C35.7618 51.2475 35.6443 51.4305 35.6016 51.6372C35.5589 51.8439 35.5941 52.0594 35.7003 52.2411C35.8065 52.4228 35.976 52.5575 36.1753 52.6188C37.3138 52.9285 38.4523 53.2241 39.5839 53.555C39.867 53.6655 40.1814 53.6606 40.461 53.5411C40.7406 53.4217 40.9636 53.1971 41.0834 52.9144C41.7013 51.8726 42.3399 50.8026 42.9856 49.8101C43.1036 49.613 43.2216 49.2821 43.527 49.4581C43.8325 49.6341 43.6173 49.9368 43.527 50.1621C42.9439 51.1264 42.3261 52.0626 41.7707 53.0411C41.5976 53.4835 41.2694 53.8455 40.849 54.0573C40.4287 54.2691 39.946 54.3158 39.4937 54.1885H39.5076ZM43.416 57.0042C47.4632 55.6738 49.8582 51.3728 49.8444 47.3182C46.1373 49.4792 44.3531 52.8651 43.4021 56.962L43.416 57.0042ZM43.6034 57.7926H49.4348C49.6777 57.7926 49.9138 57.8349 49.9138 57.4407C49.9138 55.3711 49.9138 53.3015 49.9138 51.225C49.3671 52.7016 48.5222 54.0462 47.4331 55.1723C46.344 56.2985 45.0348 57.1814 43.5895 57.7645L43.6034 57.7926ZM50.5455 51.3939C50.5455 53.3368 50.5455 55.2867 50.5455 57.2295C50.5455 57.5885 50.5455 57.8138 51.0315 57.7997C51.5174 57.7856 51.4966 57.6237 51.4966 57.2647C51.4966 53.4212 51.4966 49.5801 51.4966 45.7414C51.4966 45.4105 51.5521 45.0374 51.0384 45.0374C50.5247 45.0374 50.5663 45.4668 50.5663 45.7977C50.5247 47.6138 50.5247 49.4933 50.5247 51.3658L50.5455 51.3939ZM43.2216 54.9136C42.4024 55.6668 41.6874 56.3214 40.9585 56.9761C40.7363 57.1732 40.9168 57.3492 40.9585 57.5251C41.0001 57.7011 41.1112 57.8208 41.3333 57.8138C41.729 57.8138 42.1317 57.8138 42.5343 57.8138C42.6315 57.8138 42.8051 57.8138 42.7981 57.7082C42.7009 56.7367 43.1591 55.9131 43.2008 54.8502L43.2216 54.9136Z" fill="#231F20"/>
<path d="M20.2571 16.5917C21.7149 17.6616 21.8468 19.3229 22.1314 20.9138L24.6098 34.5348C24.818 35.7104 25.0055 36.893 25.2554 38.0545C25.3595 38.5402 25.179 38.7584 24.7694 38.8147C23.9642 38.9907 23.1728 39.23 22.3536 39.3356C21.8329 39.406 21.7219 39.6031 21.7219 40.1029C21.7219 43.0664 21.7219 46.03 21.7219 48.9935C21.7219 49.62 21.5483 49.8171 20.9305 49.796C20.1533 49.7315 19.3717 49.748 18.5979 49.8453C16.5153 49.7115 14.4326 49.7819 12.3084 49.8031C11.6141 49.8031 11.4475 49.5848 11.4684 48.9161C11.5239 47.2478 12.1626 46.3749 13.7315 45.9525C14.03 45.8681 14.0716 45.7554 14.0647 45.5091C14.0647 44.6925 14.0647 43.876 14.0647 43.0664C14.0647 42.2569 14.0647 41.5389 14.0647 40.7716C14.0647 39.413 14.0647 39.413 12.7249 39.1666C12.232 39.047 11.7322 38.9062 11.2323 38.8006C10.7325 38.695 10.7047 38.5191 10.7811 38.0967C11.3781 34.6756 11.9404 31.2545 12.5374 27.8334C12.6277 27.3477 12.5374 27.2069 12.0445 27.2139C10.552 27.2139 9.04556 27.1295 7.55995 27.2139C6.07434 27.2984 4.7831 26.1158 5.67169 24.2997H2.89485C2.11733 24.2997 1.33287 24.2997 0.555355 24.2997C0.14577 24.2997 -0.0138952 24.1589 -1.09894e-05 23.7436C-1.09894e-05 23.1804 -1.09894e-05 22.6103 -1.09894e-05 22.0471C-1.09894e-05 21.5966 0.166599 21.4488 0.590067 21.4558C1.49948 21.4558 2.4089 21.4558 3.36691 21.4558C2.954 20.7841 2.67126 20.0387 2.53386 19.2595C2.45749 18.7809 2.58245 18.5556 3.12394 18.5556C4.94971 18.5556 6.78243 18.5556 8.61515 18.5556C9.12887 18.5556 9.27464 18.7316 9.17051 19.2595C9.02426 20.0329 8.7446 20.774 8.3444 21.4488C9.37877 21.4488 10.3229 21.4488 11.267 21.4488C11.8779 21.4488 12.1417 21.6107 12.0654 22.2583C12.0445 22.6193 12.0445 22.9813 12.0654 23.3423C12.0654 23.7084 12.232 23.7295 12.475 23.5465C12.7588 23.3948 13.0042 23.1786 13.192 22.9148C13.3799 22.6511 13.5051 22.3469 13.5579 22.026C13.7149 21.0277 13.9234 20.0385 14.1827 19.0624C14.2935 18.4424 14.5508 17.8588 14.9326 17.3616C15.3144 16.8645 15.8093 16.4685 16.375 16.2076C16.9407 15.9468 17.5603 15.8288 18.1807 15.8638C18.8012 15.8988 19.4041 16.0858 19.9377 16.4086L20.2571 16.5917ZM18.105 19.7945C16.4597 21.1461 14.8075 22.4765 13.1761 23.8492C12.8161 24.1807 12.3432 24.3574 11.8571 24.3419C10.3646 24.3419 8.872 24.3419 7.37945 24.3419C6.51168 24.3419 5.99102 24.7572 5.99102 25.4682C5.99102 26.1792 6.4978 26.6367 7.37945 26.6438C8.51795 26.6438 9.6634 26.5523 10.788 26.6438C11.716 26.7546 12.6565 26.6691 13.5502 26.3929C14.4439 26.1167 15.2715 25.6556 15.9807 25.0388C16.9526 24.2223 18.1258 23.6802 19.07 22.8144C19.667 23.096 19.6878 23.2438 19.1741 23.6028L15.7794 25.9046C15.107 26.4687 14.334 26.8965 13.5024 27.1647C13.1969 27.228 13.2039 27.4814 13.1692 27.6856C12.5999 31.0433 12.0445 34.4081 11.4614 37.7658C11.392 38.146 11.5239 38.2445 11.8293 38.322C15.8499 39.3568 20.0617 39.3568 24.0822 38.322C24.4709 38.2234 24.6375 38.1178 24.5403 37.618C24.2696 36.365 24.0752 35.0909 23.8461 33.8239C22.9506 28.8963 22.069 23.9689 21.1526 19.0977C21.0604 18.4746 20.7787 17.8963 20.3469 17.4433C19.9151 16.9903 19.3546 16.6852 18.7437 16.5705C18.1471 16.3968 17.5128 16.4094 16.9234 16.6065C16.334 16.8036 15.8168 17.1762 15.4392 17.6757C14.4743 18.9217 14.6131 20.4914 14.2383 21.9345C15.4115 21.0757 16.4944 20.1817 17.5774 19.2806C17.744 19.1469 17.9315 18.9991 18.1189 19.1399C18.3063 19.2807 18.2439 19.6115 18.105 19.7945ZM21.1526 42.7638C21.1526 41.8346 21.1526 40.9124 21.1526 39.948C21.1526 39.6454 21.111 39.4623 20.75 39.5468C19.8669 39.6712 18.9756 39.7254 18.0842 39.7087C17.7579 39.7087 17.6677 39.7932 17.6677 40.117C17.6677 41.905 17.6677 43.6929 17.6677 45.4809C17.6677 45.7906 17.7371 45.9314 18.0703 45.9244C18.945 45.9244 19.8128 45.8751 20.6805 45.9244C21.0971 45.9244 21.1526 45.7555 21.1457 45.3965C21.1387 44.5306 21.1526 43.6507 21.1526 42.7638ZM6.05351 22.1456C4.42212 22.1456 2.79072 22.1808 1.19403 22.1456C0.541475 22.1456 0.59701 22.4765 0.617837 22.8989C0.638663 23.3212 0.45122 23.7436 1.18708 23.7365C4.44988 23.6943 7.71036 23.6943 10.9685 23.7365C11.6211 23.7365 11.5655 23.3986 11.5517 22.9763C11.5378 22.5539 11.7113 22.1245 10.9755 22.1527C9.3163 22.1808 7.68491 22.1456 6.05351 22.1456ZM14.6756 42.7215C14.6756 43.1932 14.6756 43.6648 14.6756 44.1294C14.6756 44.594 14.4188 45.495 14.8075 45.8047C15.1963 46.1145 15.9113 45.8751 16.4875 45.9174C16.911 45.9174 17.0637 45.8329 17.0498 45.3683C17.0498 43.9604 17.0498 42.4822 17.0498 41.0391C17.0498 40.6097 17.1678 40.0888 16.9665 39.7861C16.7652 39.4834 16.2237 39.7087 15.8349 39.6383C15.6197 39.5961 15.3976 39.5749 15.1407 39.5398C14.7797 39.4764 14.627 39.582 14.6409 39.9973C14.7034 40.9124 14.6826 41.8135 14.6756 42.7215ZM18.4591 49.2188C19.1949 49.2188 19.9238 49.2188 20.6597 49.2188C20.979 49.2188 21.1595 49.1695 21.1387 48.7823C21.1387 48.177 21.1387 47.5645 21.1387 46.9592C21.1387 46.6424 21.0485 46.5086 20.7222 46.5227C20.028 46.5227 19.3338 46.5227 18.6396 46.5227C18.0006 46.5461 17.3859 46.7769 16.8859 47.1811C16.386 47.5854 16.0274 48.1418 15.8627 48.7683C15.7655 49.1132 15.8072 49.2117 16.1612 49.2047C16.9665 49.2188 17.7232 49.2188 18.4591 49.2188ZM5.96326 19.2244H4.49154C3.03369 19.2244 2.97815 19.337 3.65847 20.6815C3.74628 20.96 3.92996 21.1971 4.17595 21.3496C4.42195 21.5021 4.71384 21.5598 4.99831 21.5121C5.52997 21.4769 6.06333 21.4769 6.595 21.5121C7.74044 21.5121 7.87234 21.4276 8.3097 20.3436C8.393 20.1324 8.42771 19.9072 8.51101 19.703C8.66374 19.3299 8.51101 19.2244 8.16391 19.2314C7.41416 19.2384 6.65747 19.2244 5.96326 19.2244ZM16.7305 46.5016C15.8141 46.5016 15.0852 46.5016 14.3493 46.5016C14.0538 46.49 13.7591 46.5399 13.4833 46.6481C13.2076 46.7564 12.9566 46.9208 12.7458 47.1312C12.5351 47.3416 12.3691 47.5935 12.258 47.8714C12.147 48.1493 12.0932 48.4474 12.1001 48.7472C12.1001 49.0428 12.1417 49.2047 12.4958 49.1906C13.2941 49.1906 14.0925 49.1906 14.8978 49.1906C15.0921 49.1906 15.2518 49.1906 15.2796 48.9302C15.446 47.9684 15.9579 47.1031 16.7166 46.5016H16.7305Z" fill="#231F20"/>
<path d="M57.1128 34.8446C56.5574 34.8446 55.9951 34.8446 55.4397 34.8446C47.9145 34.8446 40.3892 34.8446 32.864 34.8446C32.1697 34.8446 32.017 34.6404 32.017 33.9647C32.0517 29.3469 32.017 24.7221 32.0517 20.1043C32.0517 19.5623 31.9059 19.4004 31.3575 19.4426C30.8091 19.4848 30.3301 19.4426 29.8164 19.4426C29.5144 19.4794 29.2089 19.4145 28.9467 19.2581C28.6846 19.1017 28.4804 18.8623 28.3655 18.5767C28.2708 18.31 28.2621 18.0197 28.3407 17.7477C28.4194 17.4757 28.5812 17.236 28.8028 17.0633C30.1496 15.6555 31.4825 14.2054 32.8431 12.8046C33.0148 12.6487 33.15 12.456 33.2389 12.2404C33.3278 12.0249 33.3681 11.7919 33.3569 11.5586C33.3221 9.61575 33.3569 7.66588 33.3221 5.72303C33.4124 4.37853 34.0163 3.82946 35.3215 3.82946C36.1476 3.82946 36.9737 3.82946 37.7929 3.82946C38.8134 3.82946 39.5909 4.10399 39.9241 5.23732C40.2851 4.87832 40.6183 4.5756 40.9376 4.24476C42.1803 2.94249 43.4229 1.64025 44.6447 0.31686C45.0057 -0.070301 45.2487 -0.070301 45.6166 0.31686C50.8926 5.91545 56.1733 11.5023 61.4585 17.0774C61.6826 17.2656 61.8426 17.5205 61.9161 17.8059C61.9896 18.0914 61.9728 18.393 61.8681 18.6683C61.7524 18.9355 61.5549 19.1579 61.3048 19.3024C61.0547 19.447 60.7654 19.506 60.4797 19.4708H60.3478C59.6536 19.513 58.7789 19.1751 58.4318 19.5975C58.0847 20.0198 58.3207 20.8927 58.3207 21.5684C58.3207 25.5738 58.3207 29.5792 58.3207 33.5845C58.3137 34.7742 58.3137 34.7742 57.1128 34.8446ZM45.096 34.2322C49.0321 34.2322 52.9614 34.2322 56.8975 34.2322C57.557 34.2322 57.6959 34.0491 57.6889 33.4156C57.6889 28.84 57.6889 24.2645 57.6889 19.689C57.6889 18.9146 57.8209 18.788 58.5845 18.7809H60.5283C60.8754 18.7809 61.2225 18.7387 61.3683 18.3656C61.5141 17.9925 61.3127 17.725 61.0698 17.4646C55.8724 12.0115 50.6936 6.54429 45.5333 1.06302C45.214 0.725138 45.0613 0.774413 44.7766 1.06302C43.2447 2.71022 41.7013 4.35272 40.1462 5.99053C39.9935 6.15947 39.8685 6.46919 39.5631 6.33545C39.2576 6.2017 39.3548 5.92013 39.341 5.67375C39.3062 4.7868 38.9938 4.49115 38.0914 4.48411H35.3145C34.3357 4.48411 34.0094 4.82198 34.0025 5.83564C34.0025 7.87704 34.0025 9.9114 34.0025 11.9528C34.0132 12.1414 33.9827 12.3301 33.9131 12.5054C33.8435 12.6806 33.7365 12.838 33.5998 12.9665C32.2114 14.4236 30.823 15.9018 29.4346 17.366C29.136 17.6757 28.8653 17.9784 29.0597 18.429C29.2541 18.8795 29.6359 18.795 29.9899 18.802H31.6491C32.5307 18.802 32.5655 18.8372 32.5655 19.7101C32.5655 24.3349 32.5655 28.9527 32.5655 33.5705C32.5655 34.0984 32.6765 34.2744 33.218 34.2744C37.2028 34.2251 41.1459 34.2322 45.096 34.2322Z" fill="#231F20"/>
<path d="M21.6177 9.65793C22.0204 11.7697 21.104 13.5788 19.2991 14.2405C18.4366 14.5715 17.486 14.5797 16.6181 14.2636C15.7503 13.9475 15.0221 13.3277 14.5645 12.5159C14.2061 11.8869 14.0448 11.1623 14.1018 10.4382C14.1588 9.71404 14.4316 9.02459 14.8839 8.46124C15.3644 7.83961 16.0213 7.38223 16.766 7.15066C17.5107 6.91908 18.3075 6.92445 19.0492 7.16604C19.5212 7.3209 19.7434 7.25052 19.9863 6.82817C20.3312 6.24399 20.7838 5.73255 21.3192 5.32175C21.6042 5.05944 21.9554 4.88232 22.3337 4.81013C22.7119 4.73793 23.1025 4.77345 23.4621 4.91272C23.8217 5.052 24.1361 5.28963 24.3706 5.59917C24.605 5.9087 24.7503 6.27804 24.7903 6.66623C24.8527 6.89602 24.89 7.13209 24.9014 7.37016C24.8458 8.66539 25.6442 9.32007 26.6647 9.81282L26.9632 9.96062C27.1437 10.0451 27.3658 10.1296 27.2964 10.39C27.227 10.6505 27.0673 10.6294 26.8729 10.6505C25.2415 10.8546 23.6309 10.9602 22.2009 9.8691C22.1224 9.7963 22.0305 9.74013 21.9303 9.70386C21.8302 9.6676 21.7239 9.65198 21.6177 9.65793ZM17.9592 7.60247C17.353 7.62044 16.7654 7.81897 16.2697 8.1733C15.7739 8.52762 15.392 9.02206 15.1716 9.59499C14.9511 10.1679 14.9019 10.794 15.03 11.3951C15.158 11.9962 15.4578 12.5458 15.8918 12.9754C16.3259 13.4049 16.875 13.6954 17.4708 13.8106C18.0665 13.9258 18.6825 13.8607 19.242 13.6233C19.8015 13.3859 20.2797 12.9868 20.617 12.4756C20.9543 11.9645 21.1357 11.364 21.1387 10.749C21.1342 10.3306 21.0483 9.91717 20.886 9.53243C20.7237 9.1477 20.4881 8.7992 20.1927 8.50692C19.8974 8.21463 19.5481 7.98431 19.1648 7.82911C18.7816 7.67391 18.3719 7.59689 17.9592 7.60247ZM25.8594 10.0944C24.5126 8.954 24.4293 8.79209 24.2766 7.22937C24.2498 6.96234 24.1987 6.69841 24.1238 6.44097C24.0706 6.21247 23.9619 6.00111 23.8075 5.82611C23.6532 5.6511 23.4581 5.51801 23.2401 5.43895C23.0221 5.3599 22.788 5.33739 22.5592 5.37348C22.3304 5.40956 22.1142 5.50306 21.9301 5.64553C21.3723 6.05861 20.8886 6.56578 20.5001 7.1449C20.2224 7.51094 20.2363 7.71509 20.5764 8.08114C20.9702 8.62115 21.5415 9.00065 22.187 9.15112C22.423 9.21891 22.6412 9.33915 22.8257 9.50309C23.7073 10.1507 24.707 10.1014 25.8594 10.0944Z" fill="#231F20"/>
<path d="M12.7527 39.1736C14.0925 39.42 14.0994 39.42 14.0925 40.7786C14.0925 41.5459 14.0925 42.3062 14.0925 43.0734C13.4681 41.8435 13.0171 40.5307 12.7527 39.1736Z" fill="#A7A9AC"/>
<path d="M41.368 44.066C40.5364 44.0697 39.7371 43.7393 39.1452 43.147C38.5532 42.5546 38.2167 41.7486 38.2094 40.9054C38.2212 40.0636 38.5511 39.2585 39.131 38.656C39.711 38.0535 40.4967 37.6997 41.3264 37.6673C42.1703 37.6692 42.979 38.0104 43.575 38.6161C44.1711 39.2219 44.5059 40.0426 44.5059 40.8983C44.5087 41.3163 44.4293 41.7306 44.2724 42.1171C44.1156 42.5036 43.8843 42.8546 43.5922 43.1495C43.3001 43.4444 42.9529 43.6774 42.5711 43.8347C42.1892 43.9921 41.7802 44.0707 41.368 44.066ZM41.368 38.3219C41.0338 38.3144 40.7014 38.375 40.3908 38.5004C40.0801 38.6258 39.7975 38.8133 39.5598 39.0517C39.322 39.2901 39.1341 39.5746 39.007 39.8882C38.88 40.2018 38.8165 40.5382 38.8203 40.8772C38.8166 41.2167 38.8792 41.5536 39.0044 41.8685C39.1295 42.1835 39.3149 42.4702 39.5497 42.7122C39.7845 42.9543 40.0642 43.1469 40.3727 43.2789C40.6812 43.411 41.0124 43.4799 41.3472 43.4817C42.0232 43.4671 42.6671 43.1865 43.1426 42.699C43.6181 42.2116 43.8879 41.5557 43.895 40.8702C43.8828 40.203 43.6179 39.5663 43.1552 39.0918C42.6925 38.6174 42.0674 38.3417 41.4097 38.3219H41.368Z" fill="#231F20"/>
<path d="M34.4745 63.241C29.0736 63.241 23.6726 63.241 18.2647 63.241C17.7163 63.241 17.5358 63.1284 17.5705 62.5371C17.6191 61.3615 17.6121 60.1789 17.5705 59.0174C17.5705 58.4965 17.7093 58.3769 18.2022 58.3839C21.4372 58.3839 24.6792 58.3839 27.9212 58.3839C35.5066 58.3839 43.0966 58.3839 50.6913 58.3839C51.2606 58.3839 51.4758 58.4824 51.4411 59.0878C51.3855 60.2352 51.3994 61.3967 51.4411 62.5511C51.4411 63.1002 51.2744 63.2128 50.7468 63.2128C45.3251 63.234 39.9033 63.241 34.4745 63.241Z" fill="#FACB62"/>
<path d="M17.7093 57.7645C18.3158 56.6169 19.1702 55.6231 20.2085 54.8572C21.9149 53.6143 23.8743 52.7749 25.9427 52.4005C28.6667 51.7187 31.4683 51.4086 34.2732 51.4784C34.6481 51.4784 34.8563 51.5417 34.8841 52.0204C34.9025 52.3079 35.0149 52.5809 35.2035 52.7964C35.3921 53.0119 35.6461 53.1574 35.9254 53.21C36.6196 53.393 37.2514 53.6042 37.9248 53.745C38.1212 53.7836 38.3065 53.8671 38.4664 53.989C38.6264 54.111 38.7569 54.2683 38.8481 54.4489C39.3686 55.3179 39.8123 56.2319 40.174 57.1802C40.3545 57.6237 40.3198 57.7926 39.7714 57.7856C36.9598 57.7856 34.1552 57.7856 31.3436 57.7856L17.7093 57.7645Z" fill="#EF9A73"/>
<path d="M39.4937 54.1885C39.9367 54.2916 40.4015 54.2305 40.8039 54.0161C41.2063 53.8018 41.5197 53.4484 41.6874 53.02C42.2428 52.0415 42.8606 51.1053 43.4437 50.1409C43.5687 49.9227 43.8256 49.6481 43.4437 49.437C43.0619 49.2258 43.0203 49.5918 42.9023 49.7889C42.2566 50.8167 41.618 51.8514 41.0001 52.8932C40.8803 53.1759 40.6573 53.4005 40.3777 53.5199C40.0981 53.6394 39.7837 53.6444 39.5006 53.5338C38.369 53.203 37.2305 52.9073 36.092 52.5976C35.8927 52.5363 35.7232 52.4016 35.617 52.2199C35.5108 52.0382 35.4756 51.8228 35.5183 51.6161C35.5609 51.4093 35.6785 51.2263 35.8476 51.1031C36.0168 50.9799 36.2254 50.9254 36.4322 50.9504C36.5655 50.9612 36.6978 50.9824 36.8279 51.0137C37.5846 51.1968 38.3482 51.3587 39.091 51.5769C39.1943 51.6297 39.3075 51.6597 39.4231 51.665C39.5387 51.6703 39.6541 51.6506 39.7616 51.6074C39.8692 51.5642 39.9665 51.4983 40.0471 51.4142C40.1278 51.3301 40.19 51.2296 40.2295 51.1194C40.6461 50.3028 41.1598 49.5355 41.618 48.7401C41.729 48.557 41.9234 48.3247 41.6596 48.1417C41.3958 47.9587 41.2292 48.191 41.0973 48.4162C40.653 49.1695 40.1809 49.9086 39.7714 50.6829C39.7441 50.7474 39.7039 50.8053 39.6531 50.853C39.6024 50.9006 39.5423 50.9369 39.4769 50.9595C39.4114 50.9821 39.342 50.9904 39.2731 50.984C39.2042 50.9776 39.1375 50.9565 39.0771 50.9222C38.7023 50.7744 39.0355 50.5491 39.0771 50.3872C39.4159 49.4599 39.6488 48.4963 39.7714 47.5152C39.8576 46.8935 40.1647 46.325 40.6352 45.9167C41.1056 45.5083 41.7069 45.2883 42.3261 45.2978C42.9871 45.2959 43.6222 45.559 44.0929 46.0297C44.5636 46.5004 44.8318 47.1406 44.8391 47.8109C44.8575 49.4213 44.5124 51.0146 43.8302 52.4689C43.1479 53.9233 42.1466 55.2001 40.9029 56.2017C40.7016 56.3706 40.5766 56.4622 40.4309 56.1243C40.1532 55.4978 39.8408 54.8994 39.4937 54.1885Z" fill="#FFDDB5"/>
<path d="M43.4021 56.962C44.3532 52.851 46.1373 49.4651 49.8305 47.2759C49.8444 51.3305 47.4493 55.6456 43.4021 56.962Z" fill="#70C6B9"/>
<path d="M50.5247 51.3657C50.5247 49.4932 50.5247 47.6137 50.5247 45.7342C50.5247 45.4034 50.3858 44.9529 50.9967 44.974C51.6077 44.9951 51.4549 45.3752 51.4549 45.6779C51.4549 49.5167 51.4549 53.3578 51.4549 57.2013C51.4549 57.5603 51.3994 57.7221 50.9898 57.7362C50.5802 57.7503 50.5039 57.525 50.5039 57.166C50.5039 55.2232 50.5039 53.2733 50.5039 51.3305L50.5247 51.3657Z" fill="#FACB62"/>
<path d="M18.105 19.7945C18.2439 19.6115 18.3897 19.3933 18.1467 19.2102C17.9037 19.0272 17.7718 19.2102 17.6052 19.351C16.5222 20.2521 15.4393 21.1461 14.266 22.0049C14.6409 20.597 14.5021 18.992 15.467 17.7461C15.8446 17.2466 16.3618 16.874 16.9512 16.6769C17.5406 16.4798 18.1749 16.4672 18.7715 16.6409C19.3824 16.7555 19.9429 17.0606 20.3747 17.5136C20.8065 17.9666 21.0882 18.545 21.1804 19.168C22.0967 24.0955 22.9784 29.023 23.8739 33.8942C24.103 35.1613 24.2974 36.4354 24.5681 37.6884C24.6653 38.153 24.4987 38.2586 24.11 38.3923C20.0894 39.4271 15.8777 39.4271 11.8571 38.3923C11.5517 38.3149 11.4198 38.2163 11.4892 37.8362C12.0723 34.4785 12.6277 31.1137 13.197 27.756C13.2317 27.5518 13.1969 27.2984 13.5302 27.2351C14.3618 26.9668 15.1348 26.5391 15.8072 25.975L19.2019 23.6732C19.7156 23.3142 19.6948 23.1663 19.0977 22.8848C18.8322 21.8343 18.5006 20.8021 18.105 19.7945Z" fill="#EF9A73"/>
<path d="M18.105 19.7945C18.4981 20.7814 18.8297 21.7923 19.0978 22.8214C18.1536 23.6872 17.0151 24.2292 16.0085 25.0458C15.2993 25.6626 14.4717 26.1237 13.578 26.3999C12.6842 26.6761 11.7437 26.7615 10.8158 26.6508C9.69119 26.5381 8.54574 26.6508 7.40724 26.6508C6.5117 26.6508 6.01881 26.2073 6.01881 25.4752C6.01881 24.7431 6.52559 24.3559 7.40724 24.3489C8.89979 24.3489 10.3923 24.3489 11.8849 24.3489C12.371 24.3644 12.8439 24.1877 13.2039 23.8561C14.8075 22.4694 16.4598 21.146 18.105 19.7945Z" fill="#FFDDB5"/>
<path d="M21.1526 42.7637C21.1526 43.6507 21.1526 44.5306 21.1526 45.4105C21.1526 45.7695 21.104 45.9455 20.6875 45.9385C19.8197 45.9385 18.952 45.9385 18.0773 45.9385C17.744 45.9385 17.6677 45.8047 17.6746 45.495C17.6746 43.707 17.6746 41.919 17.6746 40.131C17.6746 39.8072 17.7649 39.7439 18.0911 39.7227C18.9825 39.7394 19.8738 39.6853 20.7569 39.5609C21.1179 39.4764 21.1596 39.6594 21.1596 39.9621C21.1457 40.9124 21.1526 41.8345 21.1526 42.7637Z" fill="#FFDDB5"/>
<path d="M6.05352 22.1456C7.68492 22.1456 9.31631 22.1808 10.913 22.1456C11.6489 22.1456 11.4684 22.575 11.4892 22.9692C11.51 23.3634 11.5586 23.7365 10.906 23.7294C7.6664 23.6872 4.40592 23.6872 1.12462 23.7294C0.388753 23.7294 0.57619 23.286 0.555364 22.8918C0.534537 22.4976 0.478996 22.1175 1.13155 22.1386C2.79072 22.1808 4.42212 22.1456 6.05352 22.1456Z" fill="#FFDDB5"/>
<path d="M14.6756 42.7215C14.6756 41.8135 14.6756 40.9124 14.6756 40.0114C14.6756 39.5961 14.8145 39.4905 15.1755 39.5539C15.3976 39.589 15.6198 39.6101 15.8697 39.6524C16.2584 39.7228 16.8138 39.5116 17.0012 39.8002C17.1887 40.0888 17.0845 40.6238 17.0845 41.0532C17.0845 42.4963 17.0845 43.9393 17.0845 45.3824C17.0845 45.847 16.9457 45.9666 16.5222 45.9315C15.946 45.8892 15.2032 46.1144 14.8422 45.8188C14.4812 45.5231 14.7381 44.7207 14.7103 44.1434C14.6826 43.5662 14.6756 43.1932 14.6756 42.7215Z" fill="#FFDDB5"/>
<path d="M18.4591 49.2187C17.7024 49.2187 16.9457 49.2187 16.189 49.2187C15.835 49.2187 15.7933 49.1272 15.8905 48.7823C16.0551 48.1558 16.4138 47.5995 16.9137 47.1952C17.4136 46.791 18.0283 46.5601 18.6673 46.5368C19.3616 46.4945 20.0558 46.5368 20.75 46.5368C21.0763 46.5368 21.1734 46.6564 21.1665 46.9732C21.1665 47.5786 21.1665 48.191 21.1665 48.7964C21.1665 49.1836 21.0068 49.2399 20.6875 49.2328C19.9447 49.2188 19.2158 49.2187 18.4591 49.2187Z" fill="#FFDDB5"/>
<path d="M5.96328 19.2243C6.69914 19.2243 7.42806 19.2243 8.16393 19.2243C8.5388 19.2243 8.66376 19.3229 8.51103 19.696C8.42773 19.9001 8.39302 20.1253 8.30972 20.3365C7.87236 21.4206 7.74046 21.5051 6.59501 21.5051C6.06335 21.4698 5.52999 21.4698 4.99833 21.5051C4.71386 21.5527 4.42197 21.4951 4.17597 21.3426C3.92998 21.1901 3.7463 20.9529 3.65849 20.6744C2.96428 19.3299 3.03371 19.2173 4.49155 19.2173L5.96328 19.2243Z" fill="#FACB62"/>
<path d="M16.7166 46.5016C15.9528 47.1007 15.4357 47.9662 15.2657 48.9301C15.2657 49.1765 15.0783 49.1906 14.8839 49.1906C14.0786 49.1906 13.2803 49.1906 12.4819 49.1906C12.1279 49.1906 12.0862 49.0427 12.0862 48.7471C12.0794 48.4473 12.1331 48.1493 12.2442 47.8713C12.3552 47.5934 12.5213 47.3415 12.732 47.1312C12.9427 46.9208 13.1937 46.7563 13.4695 46.6481C13.7452 46.5398 14.04 46.4899 14.3355 46.5016C15.0713 46.4875 15.8003 46.5016 16.7166 46.5016Z" fill="#FFDDB5"/>
<path d="M45.096 34.232C41.1459 34.232 37.1958 34.232 33.2388 34.232C32.6973 34.232 32.5863 34.0842 32.5863 33.5281C32.5863 28.9103 32.5863 24.2925 32.5863 19.6677C32.5863 18.7949 32.5516 18.7596 31.6699 18.7596H29.9274C29.5734 18.7596 29.1777 18.7948 28.9972 18.3866C28.8167 17.9783 29.0736 17.6334 29.3721 17.3236C30.7605 15.8595 32.1489 14.3812 33.5373 12.9241C33.674 12.7957 33.781 12.6382 33.8506 12.4629C33.9202 12.2877 33.9507 12.099 33.94 11.9104C33.94 9.86902 33.94 7.83466 33.94 5.79326C33.94 4.77961 34.2732 4.44877 35.252 4.44173H38.0289C38.9314 4.44173 39.2438 4.74442 39.2785 5.63137C39.2785 5.87775 39.216 6.16636 39.5006 6.29307C39.7852 6.41978 39.931 6.11709 40.0837 5.94815C41.6295 4.31973 43.173 2.67723 44.7141 1.02065C44.9988 0.710917 45.1515 0.661642 45.4708 1.02065C50.6358 6.50191 55.8123 11.9761 61.0003 17.4433C61.2433 17.7037 61.4516 17.9713 61.2989 18.3443C61.1461 18.7174 60.806 18.7596 60.4589 18.7596H58.5151C57.7514 18.7596 57.6195 18.8934 57.6195 19.6677C57.6195 24.2433 57.6195 28.8188 57.6195 33.3943C57.6195 34.0279 57.4876 34.2179 56.8281 34.2109C52.9614 34.2179 49.0044 34.232 45.096 34.232ZM47.734 26.5662C47.734 25.3625 47.734 24.1658 47.734 22.9692C47.734 22.6172 47.8034 22.5327 48.1644 22.5468C49.0807 22.589 49.5528 22.054 49.5875 21.0756C49.5875 19.175 49.5875 17.2743 49.5875 15.3737C49.6193 14.6891 49.4 14.0168 48.9718 13.4865C48.5436 12.9561 47.937 12.6053 47.2688 12.5017C45.8162 12.2588 44.3341 12.2588 42.8814 12.5017C42.3129 12.588 41.7902 12.8677 41.3991 13.2949C41.008 13.7221 40.7719 14.2715 40.7294 14.8528C40.6947 16.9646 40.6947 19.1468 40.7294 21.3008C40.709 21.4657 40.7253 21.6332 40.7772 21.7908C40.829 21.9485 40.915 22.0923 41.0289 22.2119C41.1427 22.3314 41.2816 22.4235 41.4352 22.4815C41.5888 22.5394 41.7532 22.5617 41.9165 22.5468C42.4649 22.5468 42.4163 22.7861 42.4163 23.1381C42.4163 25.3766 42.4163 27.6151 42.4163 29.8536C42.3673 30.1564 42.407 30.4672 42.5304 30.7474C42.6538 31.0277 42.8555 31.2651 43.1105 31.4304C43.3883 31.6032 43.7141 31.6795 44.0386 31.6477C44.363 31.616 44.6684 31.4779 44.9085 31.2544C45.0335 31.1558 45.1098 31.0784 45.2834 31.2544C45.5067 31.4792 45.7986 31.6204 46.1114 31.655C46.4242 31.6895 46.7393 31.6153 47.005 31.4444C47.261 31.2813 47.4661 31.0479 47.5963 30.7712C47.7266 30.4946 47.7767 30.1861 47.7409 29.8817C47.727 28.8047 47.734 27.6714 47.734 26.5662ZM45.089 12.1075C45.401 12.1199 45.7123 12.0681 46.0041 11.9555C46.2959 11.8429 46.5623 11.6717 46.7872 11.4521C47.0122 11.2325 47.1911 10.9691 47.3132 10.6778C47.4353 10.3864 47.4982 10.073 47.4979 9.75639C47.5091 9.12891 47.2754 8.52237 46.8476 8.06883C46.4198 7.61529 45.8327 7.35148 45.214 7.33487C44.9049 7.32655 44.5973 7.38005 44.3086 7.49229C44.02 7.60453 43.7559 7.7733 43.5316 7.989C43.3073 8.20471 43.127 8.46314 43.0012 8.74948C42.8753 9.03581 42.8063 9.34445 42.7981 9.65783C42.7899 9.9712 42.8427 10.2831 42.9533 10.5759C43.064 10.8686 43.2305 11.1363 43.4432 11.3638C43.656 11.5912 43.9108 11.774 44.1932 11.9016C44.4756 12.0292 44.78 12.0992 45.089 12.1075Z" fill="#FFDDB5"/>
<path d="M17.9592 7.60244C18.5652 7.63294 19.1488 7.84365 19.6374 8.20833C20.126 8.573 20.4979 9.0755 20.7066 9.65309C20.9154 10.2307 20.9518 10.8578 20.8114 11.4563C20.6709 12.0547 20.3598 12.598 19.9168 13.0183C19.4739 13.4386 18.9187 13.7174 18.3204 13.8198C17.7222 13.9223 17.1075 13.8438 16.553 13.5943C15.9985 13.3448 15.5287 12.9352 15.2022 12.4167C14.8758 11.8982 14.7071 11.2937 14.7173 10.6786C14.7516 9.83712 15.1108 9.04303 15.7172 8.46758C16.3237 7.89212 17.1289 7.58141 17.9592 7.60244Z" fill="#FFDDB5"/>
<path d="M25.8594 10.0943C24.6931 10.0943 23.7073 10.1507 22.8395 9.50307C22.6551 9.33913 22.4369 9.2189 22.2009 9.15111C21.5554 9.00064 20.9841 8.62114 20.5903 8.08112C20.2501 7.71508 20.2363 7.51092 20.5139 7.14488C20.8983 6.56692 21.3773 6.05983 21.9301 5.64551C22.114 5.50626 22.3291 5.41542 22.5561 5.38111C22.7832 5.34679 23.015 5.3701 23.231 5.4489C23.4469 5.52771 23.6403 5.65958 23.7937 5.8327C23.9471 6.00583 24.0557 6.21481 24.11 6.44095C24.1848 6.69839 24.2359 6.96232 24.2627 7.22935C24.4293 8.79207 24.5126 8.95398 25.8594 10.0943Z" fill="#FACB62"/>
<path d="M41.4097 38.3219C42.0747 38.3309 42.7102 38.6019 43.1818 39.0774C43.6534 39.553 43.9241 40.1959 43.9366 40.8701C43.9296 41.5557 43.6597 42.2116 43.1842 42.699C42.7087 43.1864 42.0649 43.4671 41.3889 43.4817C41.054 43.4799 40.7229 43.411 40.4144 43.2789C40.1059 43.1468 39.8262 42.9542 39.5914 42.7122C39.3565 42.4702 39.1712 42.1834 39.046 41.8685C38.9208 41.5536 38.8583 41.2167 38.8619 40.8772C38.8581 40.5382 38.9216 40.2018 39.0487 39.8882C39.1757 39.5746 39.3637 39.2901 39.6014 39.0517C39.8391 38.8133 40.1217 38.6258 40.4324 38.5004C40.7431 38.375 41.0754 38.3143 41.4097 38.3219Z" fill="#FFDDB5"/>
<path d="M47.734 26.5662C47.734 27.6714 47.734 28.7836 47.734 29.8887C47.7698 30.1931 47.7197 30.5016 47.5894 30.7783C47.4591 31.0549 47.2541 31.2884 46.9981 31.4515C46.7324 31.6223 46.4173 31.6965 46.1045 31.662C45.7917 31.6274 45.4997 31.4862 45.2765 31.2614C45.1029 31.1066 45.0265 31.184 44.9016 31.2614C44.6615 31.4849 44.3561 31.623 44.0316 31.6548C43.7072 31.6865 43.3814 31.6102 43.1036 31.4374C42.8485 31.2722 42.6468 31.0347 42.5234 30.7545C42.4001 30.4742 42.3604 30.1635 42.4094 29.8606C42.4094 27.6221 42.4094 25.3836 42.4094 23.1451C42.4094 22.7932 42.458 22.5257 41.9095 22.5538C41.7463 22.5688 41.5819 22.5465 41.4282 22.4885C41.2746 22.4306 41.1358 22.3384 41.0219 22.2189C40.9081 22.0994 40.822 21.9555 40.7702 21.7979C40.7184 21.6402 40.7021 21.4727 40.7224 21.3078C40.7224 19.1538 40.7224 17.0069 40.7224 14.8599C40.7649 14.2786 41.0011 13.7292 41.3922 13.3019C41.7832 12.8747 42.306 12.595 42.8745 12.5087C44.3271 12.2658 45.8092 12.2658 47.2619 12.5087C47.9301 12.6123 48.5367 12.9632 48.9649 13.4935C49.393 14.0239 49.6124 14.6962 49.5806 15.3808C49.5806 17.2814 49.5806 19.182 49.5806 21.0826C49.5806 22.0611 49.0738 22.5961 48.1574 22.5538C47.7964 22.5538 47.7201 22.6242 47.727 22.9762C47.7409 24.1658 47.734 25.3625 47.734 26.5662ZM43.0342 23.0466C43.0342 25.393 43.0342 27.7254 43.0342 30.0436C43.0342 30.7476 43.3674 31.0432 43.9575 31.001C44.5475 30.9587 44.7836 30.5856 44.7836 29.9028C44.7836 27.3687 44.7836 24.8275 44.7836 22.2934C44.7836 22.1103 44.7836 21.9273 44.7836 21.7513C44.781 21.6703 44.8078 21.5911 44.859 21.5288C44.9102 21.4665 44.9822 21.4255 45.0613 21.4135C45.2765 21.4135 45.3736 21.5542 45.4014 21.7513C45.4119 21.9318 45.4119 22.1128 45.4014 22.2934C45.4014 24.8486 45.4014 27.4109 45.4014 29.9662C45.4014 30.6701 45.6722 30.9798 46.1998 30.9869C46.7274 30.9939 47.0259 30.6701 47.0467 30.0014C47.0467 29.8184 47.0467 29.6424 47.0467 29.4594C47.0467 25.0152 47.0467 20.5758 47.0467 16.141C47.0467 15.8665 46.9564 15.4371 47.366 15.4371C47.7756 15.4371 47.6784 15.8665 47.6784 16.141C47.6784 17.8164 47.6784 19.4917 47.6784 21.1671C47.6784 21.5824 47.734 21.871 48.2338 21.871C48.7336 21.871 48.928 21.5965 48.928 21.1178C48.928 19.1961 49.0044 17.2744 49.0113 15.3456C49.0218 15.033 48.9692 14.7215 48.8567 14.4303C48.7441 14.139 48.5741 13.8742 48.3569 13.652C48.1398 13.4298 47.8801 13.255 47.5939 13.1383C47.3077 13.0216 47.001 12.9655 46.6926 12.9733C45.6652 12.9733 44.61 12.9733 43.6103 12.9733C43.296 12.955 42.9815 13.0054 42.6881 13.1212C42.3947 13.2371 42.1294 13.4155 41.91 13.6446C41.6907 13.8736 41.5226 14.1479 41.4171 14.4487C41.3116 14.7495 41.2712 15.0698 41.2986 15.3878C41.2986 17.1969 41.2986 19.013 41.2986 20.8221C41.2844 21.0249 41.2984 21.2287 41.3403 21.4275C41.3793 21.5795 41.4709 21.712 41.5984 21.8012C41.7258 21.8904 41.8806 21.9302 42.0345 21.9133C42.4233 21.9133 42.3885 21.5754 42.3885 21.3008V17.1617C42.3885 16.6831 42.3885 16.2114 42.3885 15.7539C42.3885 15.5709 42.4857 15.3949 42.7218 15.423C42.8017 15.4319 42.8749 15.4723 42.9256 15.5356C42.9762 15.5988 43.0003 15.6798 42.9925 15.7609V23.0254L43.0342 23.0466Z" fill="#231F20"/>
<path d="M45.089 12.1076C44.6246 12.0964 44.1739 11.9461 43.7935 11.6757C43.4132 11.4052 43.1203 11.0267 42.9518 10.5878C42.7833 10.1488 42.7466 9.66909 42.8464 9.20907C42.9462 8.74904 43.1781 8.32928 43.5128 8.00262C43.8475 7.67597 44.27 7.45705 44.7271 7.37345C45.1843 7.28986 45.6556 7.34532 46.0817 7.53285C46.5079 7.72038 46.8697 8.0316 47.1217 8.42729C47.3738 8.82297 47.5047 9.28545 47.4979 9.75643C47.4982 10.073 47.4353 10.3864 47.3132 10.6778C47.1911 10.9692 47.0122 11.2326 46.7872 11.4522C46.5623 11.6717 46.2959 11.8429 46.0041 11.9556C45.7123 12.0682 45.401 12.1199 45.089 12.1076ZM43.4229 9.70011C43.4154 10.1684 43.5893 10.621 43.9073 10.9606C44.2254 11.3002 44.6621 11.4997 45.1237 11.5163C45.3647 11.5342 45.6068 11.5019 45.835 11.4214C46.0632 11.3409 46.2728 11.2139 46.4507 11.0482C46.6287 10.8824 46.7714 10.6815 46.8699 10.4578C46.9684 10.234 47.0206 9.9922 47.0235 9.7472C47.0263 9.50219 46.9797 9.2592 46.8864 9.03317C46.7931 8.80714 46.6552 8.60289 46.4811 8.43296C46.3071 8.26302 46.1005 8.13101 45.8743 8.04507C45.648 7.95914 45.4067 7.92106 45.1654 7.93324C44.7098 7.94594 44.2767 8.13706 43.957 8.46647C43.6374 8.79587 43.4559 9.23798 43.4507 9.70011H43.4229Z" fill="#231F20"/>
<path d="M43.0341 23.0818V15.8172C43.0419 15.7361 43.0179 15.6552 42.9672 15.5919C42.9165 15.5287 42.8433 15.4882 42.7634 15.4794C42.5274 15.4794 42.4441 15.6272 42.4302 15.8102C42.4302 16.2889 42.4302 16.7605 42.4302 17.218V21.3571C42.4302 21.6317 42.4649 21.9484 42.0761 21.9696C41.9222 21.9865 41.7674 21.9467 41.64 21.8576C41.5126 21.7684 41.421 21.6358 41.3819 21.4839C41.34 21.285 41.326 21.0813 41.3403 20.8785C41.3403 19.0694 41.3403 17.2533 41.3403 15.4442C41.3129 15.1261 41.3533 14.8058 41.4588 14.5051C41.5643 14.2043 41.7324 13.93 41.9517 13.7009C42.171 13.4719 42.4364 13.2934 42.7297 13.1775C43.0231 13.0617 43.3377 13.0113 43.652 13.0297C44.6794 13.0297 45.7346 13.0297 46.7343 13.0297C47.041 13.0284 47.3448 13.0904 47.6273 13.2118C47.9097 13.3333 48.1648 13.5117 48.3771 13.7362C48.5894 13.9607 48.7545 14.2266 48.8623 14.5178C48.9702 14.809 49.0185 15.1194 49.0044 15.4301C49.0044 17.3588 48.9419 19.2806 48.9211 21.2023C48.9211 21.681 48.7128 21.9062 48.2269 21.9555C47.7409 22.0048 47.6645 21.6528 47.6715 21.2516C47.6715 19.5762 47.6715 17.9009 47.6715 16.2255C47.6715 15.951 47.7826 15.5216 47.3591 15.5216C46.9356 15.5216 47.0397 15.9369 47.0397 16.2255C47.0397 20.6697 47.0397 25.1091 47.0397 29.5439C47.0397 29.7269 47.0397 29.9029 47.0397 30.0859C47.0397 30.7898 46.7412 31.0714 46.1928 31.0714C45.6444 31.0714 45.3945 30.7406 45.3945 30.0507C45.3945 27.4954 45.3945 24.9331 45.3945 22.3779C45.405 22.1973 45.405 22.0163 45.3945 21.8358C45.3945 21.6387 45.2695 21.4768 45.0543 21.4979C44.9752 21.51 44.9033 21.5511 44.8521 21.6133C44.8009 21.6756 44.774 21.7548 44.7766 21.8358C44.7766 22.0118 44.7766 22.1948 44.7766 22.3779C44.7766 24.912 44.7766 27.4532 44.7766 29.9873C44.7766 30.6913 44.492 31.0432 43.9505 31.0855C43.409 31.1277 43.0272 30.7969 43.0272 30.1281C43.0272 27.7817 43.0272 25.4493 43.0272 23.1311L43.0341 23.0818Z" fill="#70C6B9"/>
<path d="M43.4507 9.70012C43.4561 9.23322 43.6414 8.78698 43.967 8.45681C44.2926 8.12664 44.7327 7.93873 45.1932 7.93325C45.4345 7.92107 45.6757 7.95915 45.902 8.04508C46.1283 8.13102 46.3349 8.26303 46.5089 8.43297C46.683 8.60291 46.8209 8.80715 46.9142 9.03318C47.0075 9.25921 47.0541 9.5022 47.0513 9.74721C47.0484 9.99221 46.9961 10.2341 46.8976 10.4578C46.7991 10.6815 46.6565 10.8824 46.4785 11.0482C46.3005 11.2139 46.091 11.3409 45.8628 11.4214C45.6346 11.5019 45.3925 11.5342 45.1515 11.5163C44.6899 11.4997 44.2532 11.3002 43.9351 10.9606C43.6171 10.621 43.4431 10.1684 43.4507 9.70012Z" fill="#70C6B9"/>
</g>
<defs>
<clipPath id="clip0_186_4312">
<rect width="62" height="67" fill="white"/>
</clipPath>
</defs>
</svg>
