<svg width="65" height="71" viewBox="0 0 65 71" fill="none" xmlns="http://www.w3.org/2000/svg">
<g clip-path="url(#clip0_186_4244)">
<path d="M20.5348 15.2881C23.1944 13.2445 26.2367 11.7691 29.477 10.9511C30.3702 10.6782 31.2947 10.5241 32.2273 10.4926C31.6896 12.1127 31.3717 13.7991 31.2823 15.5057C31.1943 15.8912 31.0052 16.2456 30.7348 16.5315C30.4644 16.8174 30.1227 17.0242 29.7459 17.1301C29.1379 17.2264 28.5839 17.5394 28.1839 18.0126C27.7838 18.4857 27.564 19.0879 27.5641 19.7105C27.5641 21.6613 27.5641 23.5967 27.5641 25.5631C27.5293 25.9185 27.5663 26.2774 27.6729 26.618C27.7795 26.9585 27.9534 27.2735 28.184 27.5439C28.4147 27.8144 28.6973 28.0345 29.0146 28.191C29.332 28.3475 29.6775 28.4371 30.0301 28.4543C30.1931 28.455 30.3516 28.5081 30.4828 28.6059C30.614 28.7037 30.7111 28.8411 30.76 28.9984C30.8721 29.2659 31.0365 29.5076 31.2434 29.709C31.4503 29.9105 31.6953 30.0675 31.9637 30.1706C32.2322 30.2737 32.5184 30.3208 32.8053 30.309C33.0922 30.2973 33.3738 30.2268 33.6331 30.1021C34.724 29.5969 34.9161 28.602 34.9852 27.545C35.8389 28.5657 36.744 29.5411 37.6971 30.4674C39.6202 32.2228 42.0376 33.3261 44.6111 33.6229C44.6922 34.0811 44.9115 34.5027 45.2389 34.8297C45.5662 35.1568 45.9857 35.3732 46.4395 35.4494C47.2351 35.5893 48.0485 35.5893 48.8441 35.4494C49.1699 35.4044 49.4781 35.2728 49.7372 35.068C49.9963 34.8632 50.1971 34.5925 50.3191 34.2836C50.3766 34.0843 50.5049 33.9138 50.6794 33.8047C50.8539 33.6956 51.0622 33.6557 51.264 33.6929C53.9631 33.776 56.6192 32.9954 58.8542 31.4622C59.1 33.3921 59.1 35.346 58.8542 37.2759C58.8249 37.3986 58.7783 37.5164 58.7159 37.6257C57.817 37.1827 58.0014 37.9288 58.0321 38.3252C58.0859 39.0325 57.8478 39.2423 57.1563 39.1957C56.1192 39.1335 55.0744 39.1957 54.0296 39.1957C53.4996 39.1957 53.2614 39.0791 53.3075 38.5039C53.3075 38.1464 53.4919 37.5246 52.9849 37.5169C52.3472 37.5169 52.6161 38.1542 52.6238 38.5195C52.6238 39.0169 52.5162 39.219 51.9785 39.1957C51.0412 39.149 50.104 39.1957 49.1591 39.1957C48.0067 39.1957 48.0067 39.1957 47.9145 38.0532C47.9145 37.8044 47.9145 37.5324 47.5919 37.5091C47.2692 37.4858 47.2231 37.8044 47.2078 38.0687C47.1886 38.2261 47.1886 38.3854 47.2078 38.5428C47.2769 39.0713 47.0541 39.2268 46.5471 39.2112C45.4024 39.2112 44.2424 39.2112 43.1054 39.2112C42.583 39.2112 42.4294 39.048 42.4447 38.535C42.4447 38.1775 42.6675 37.5479 42.1605 37.5402C41.6535 37.5324 41.7994 38.1853 41.8071 38.5428C41.8071 39.0636 41.6611 39.2345 41.1464 39.2112C40.3782 39.1646 39.61 39.2112 38.7956 39.2112C38.4828 39.1674 38.1642 39.1975 37.8648 39.2991C37.5655 39.4008 37.2934 39.5713 37.0701 39.7972C36.8468 40.0231 36.6783 40.2983 36.5778 40.6012C36.4773 40.9041 36.4476 41.2264 36.4909 41.5429C36.4909 42.8875 36.4909 44.2321 36.4909 45.5767C36.4909 48.1572 36.4909 50.7453 36.4909 53.3491C36.4909 53.7532 36.3911 54.2506 37.0594 54.2273C37.4315 54.5143 37.7602 54.8547 38.0351 55.2377C37.8354 55.7818 37.5281 56.2637 36.9212 56.3103C36.3143 56.3569 36.053 55.8828 35.7842 55.4553C35.5901 55.1442 35.4181 54.8195 35.2695 54.4838C35.1524 54.1557 34.946 53.8678 34.6742 53.6532C34.4023 53.4387 34.076 53.3063 33.733 53.2713C33.5795 53.2734 33.4313 53.2142 33.3205 53.1066C33.2098 52.9989 33.1455 52.8515 33.1415 52.6962C32.9071 51.4582 32.7454 50.2072 32.6575 48.9499C32.6114 48.1727 32.7189 47.582 33.71 47.6908C33.7616 47.7031 33.8154 47.703 33.867 47.6904C33.9185 47.6778 33.9665 47.6531 34.0069 47.6183C34.0472 47.5835 34.079 47.5396 34.0995 47.49C34.12 47.4405 34.1286 47.3868 34.1248 47.3333C34.1248 47.069 33.9404 47.0069 33.7023 46.9835C32.5038 46.8281 31.8431 47.411 31.9046 48.639C31.9645 50.0613 32.1444 51.4759 32.4424 52.8672C32.501 53.0239 32.508 53.1956 32.4623 53.3566C32.4166 53.5177 32.3207 53.6595 32.1888 53.761C31.8901 54.0231 31.6846 54.3773 31.6041 54.7691C31.5236 55.1608 31.5725 55.5685 31.7433 55.9295C32.1079 56.804 32.5747 57.6311 33.1338 58.3933C30.6165 58.2916 28.1418 57.7033 25.8433 56.6601C24.0874 55.934 22.4362 54.972 20.9343 53.7999C21.1647 53.5434 21.472 53.6522 21.7486 53.6522C23.8305 53.6522 25.9124 53.5978 27.9866 53.6522C28.8163 53.6522 29.2081 53.4656 29.1313 52.6107C29.1313 52.8438 29.1928 53.0693 29.2158 53.3024C29.2388 53.5356 29.1543 53.9631 29.5922 53.932C30.0301 53.9009 29.8919 53.5589 29.8765 53.3102C29.8304 52.0433 29.7612 50.7842 29.7228 49.5173C29.7115 47.8979 29.2004 46.3226 28.2611 45.0114C27.3218 43.7001 26.0011 42.7185 24.4835 42.2035C22.6244 41.5299 20.7704 40.846 18.9215 40.1517C18.5881 40.0811 18.28 39.9198 18.0304 39.6853C17.8844 39.491 17.7384 39.289 17.8306 39.0325C17.9228 38.776 18.1917 38.8848 18.3761 38.8848C19.3671 38.8848 20.3581 38.8848 21.3491 38.8848C22.9855 38.8848 23.723 38.1076 23.723 36.4598C23.723 34.8121 23.723 32.9234 23.723 31.1591C23.6995 30.9938 23.7214 30.825 23.7865 30.6715C23.8515 30.5179 23.9571 30.3855 24.0917 30.2886C24.4529 30.0699 24.7519 29.7602 24.9595 29.3896C25.1672 29.0191 25.2763 28.6005 25.2763 28.1745C25.2763 27.7486 25.1672 27.33 24.9595 26.9595C24.7519 26.5889 24.4529 26.2792 24.0917 26.0605C23.9687 25.9951 23.8708 25.8899 23.8138 25.7617C23.7567 25.6336 23.7436 25.4897 23.7767 25.3532C24.0208 24.0542 24.0623 22.7246 23.8997 21.4126C23.8467 20.3285 23.5491 19.2711 23.0298 18.3213C22.5105 17.3715 21.7831 16.5546 20.9035 15.9332C20.7192 15.7311 20.458 15.63 20.5348 15.2881ZM35.5383 47.3177C35.5436 47.0135 35.4424 46.7171 35.2527 46.481C35.0629 46.2449 34.7967 46.0843 34.5012 46.0276C34.2708 46.0276 34.071 46.0275 33.9788 46.2607C33.8867 46.4939 34.0556 46.626 34.2477 46.7426C35.0159 47.2012 35.0159 47.4032 34.2477 47.8696C34.071 47.9784 33.9404 48.0794 33.9865 48.2893C34.0326 48.4991 34.2631 48.5535 34.4782 48.5458C34.7721 48.5061 35.0418 48.3597 35.2369 48.1337C35.4319 47.9078 35.5391 47.6177 35.5383 47.3177Z" fill="#A7A9AC"/>
<path d="M20.5348 15.2881C20.458 15.6301 20.7422 15.7311 20.9496 15.871C21.8292 16.4925 22.5566 17.3094 23.0759 18.2592C23.5952 19.209 23.8928 20.2664 23.9457 21.3505C24.1084 22.6625 24.0669 23.9921 23.8228 25.291C23.7897 25.4276 23.8028 25.5714 23.8598 25.6996C23.9169 25.8278 24.0148 25.933 24.1378 25.9983C24.499 26.2171 24.798 26.5268 25.0056 26.8973C25.2132 27.2679 25.3224 27.6865 25.3224 28.1124C25.3224 28.5383 25.2132 28.9569 25.0056 29.3275C24.798 29.698 24.499 30.0077 24.1378 30.2265C24.0032 30.3233 23.8976 30.4557 23.8326 30.6093C23.7675 30.7629 23.7455 30.9316 23.769 31.097C23.769 32.8587 23.769 34.6256 23.769 36.3977C23.769 38.0765 23.0008 38.8226 21.3952 38.8226C20.4042 38.8226 19.4132 38.8226 18.4222 38.8226C18.2378 38.8226 17.9766 38.7061 17.8767 38.9703C17.7768 39.2346 17.9305 39.4289 18.0765 39.6232C18.3261 39.8576 18.6342 40.0189 18.9676 40.0895C20.8216 40.7838 22.6756 41.4678 24.5296 42.1414C26.0472 42.6564 27.3679 43.638 28.3072 44.9492C29.2465 46.2604 29.7576 47.8358 29.7689 49.4551C29.8073 50.722 29.8765 51.9811 29.9226 53.248C29.9226 53.4967 30.0147 53.8465 29.6383 53.8698C29.2619 53.8931 29.2926 53.5201 29.2619 53.2402C29.2312 52.9604 29.2081 52.7817 29.1774 52.5485C29.1774 51.5692 29.1774 50.5976 29.1006 49.6261C29.1034 48.5032 28.8439 47.3955 28.3432 46.3933C27.8426 45.3911 27.115 44.5228 26.2197 43.8591C24.5296 42.631 22.5015 42.188 20.5732 41.5274C20.5732 41.5274 20.5117 41.5818 20.4503 41.6362L21.2569 42.8798C21.4423 43.1042 21.5779 43.3664 21.6546 43.6484C21.7312 43.9305 21.7472 44.2259 21.7013 44.5147C21.6554 44.8035 21.5488 45.079 21.3886 45.3226C21.2285 45.5661 21.0185 45.7721 20.773 45.9265C19.636 46.8514 18.5144 47.7919 17.339 48.6623C16.6476 49.1753 16.2711 49.6106 16.5707 50.6054C16.7475 51.5869 16.8119 52.5858 16.7628 53.5822C16.6783 53.8776 16.8627 54.3595 16.3556 54.3595C15.8486 54.3595 16.0406 53.862 15.9638 53.5822C15.9407 53.2407 15.9407 52.8979 15.9638 52.5563C16.0183 52.2383 15.9735 51.9112 15.8359 51.6201C15.6982 51.329 15.4744 51.0885 15.1956 50.9319C13.1521 49.3774 11.1547 47.7064 9.14193 46.0819C7.91276 45.0871 7.77447 44.1156 8.63489 42.7943C8.88841 42.4057 9.14192 42.0171 9.40312 41.6051C7.88109 41.9999 6.39347 42.5198 4.95508 43.1596C3.97356 43.585 3.11014 44.2475 2.44047 45.089C1.7708 45.9304 1.31532 46.9252 1.11393 47.9862C0.722132 49.8282 0.868087 51.7091 0.74517 53.5667C0.652983 53.761 0.560798 53.9631 0.291917 53.8931C0.246735 53.8948 0.201746 53.8863 0.160159 53.8684C0.118572 53.8504 0.0814121 53.8234 0.0513292 53.7893C0.0212463 53.7552 -0.00101188 53.7147 -0.01387 53.6708C-0.0267282 53.627 -0.0298721 53.5808 -0.0230603 53.5356C0.168997 51.1417 -0.192074 48.6701 0.814308 46.3773C1.24412 45.3824 1.87697 44.4908 2.67135 43.7608C3.46573 43.0308 4.40369 42.4789 5.42369 42.1414C7.29818 41.4652 9.17266 40.7657 11.0395 40.074C11.2109 40.0168 11.3778 39.9467 11.5388 39.8641C11.8307 39.7087 12.0689 39.4755 11.9997 39.0869C11.9306 38.6983 11.5619 38.7838 11.3007 38.7838C10.3096 38.7838 9.31862 38.7838 8.3276 38.7838C8.0469 38.8093 7.7641 38.7717 7.49943 38.6737C7.23475 38.5758 6.99472 38.4198 6.79653 38.2171C6.59835 38.0144 6.44691 37.7698 6.35301 37.501C6.25911 37.2322 6.2251 36.9456 6.25339 36.6619C6.25339 34.7862 6.25339 32.9131 6.25339 31.0426C6.28185 30.8801 6.25847 30.7127 6.18665 30.5646C6.11483 30.4165 5.99829 30.2953 5.8539 30.2187C5.49117 30.0049 5.18924 29.6999 4.97738 29.3332C4.76552 28.9666 4.65093 28.5508 4.64475 28.1261C4.63856 27.7014 4.74098 27.2823 4.94207 26.9095C5.14317 26.5367 5.43611 26.2228 5.79245 25.9983C6.26875 25.6486 6.0767 25.291 6.03829 24.9024C5.80014 22.4075 5.81549 19.967 7.17526 17.7286C7.55136 17.0315 8.10254 16.447 8.77319 16.0342C9.00541 15.8986 9.19849 15.7039 9.33326 15.4693C9.46803 15.2348 9.5398 14.9687 9.54142 14.6974C9.62593 14.0212 9.68737 13.3372 9.81797 12.6688C9.86985 12.2581 10.0741 11.8827 10.3893 11.6186C10.7046 11.3545 11.1072 11.2215 11.5158 11.2465C13.8358 11.2465 16.1559 11.2465 18.4759 11.2465C18.9057 11.2366 19.3233 11.3911 19.6453 11.6793C19.9672 11.9676 20.1696 12.3682 20.2121 12.801C20.3043 13.6715 20.4196 14.4798 20.5348 15.2881ZM15.6027 50.2634C15.6412 50.3256 15.6796 50.4267 15.7564 50.3567C15.8332 50.2868 15.7564 50.2168 15.7564 50.1391C14.7961 48.1883 13.5439 46.4084 12.4376 44.5508C11.7923 43.4782 11.124 42.4212 10.4402 41.3176C9.94089 42.0948 9.47995 42.7399 9.04974 43.4238C8.93706 43.555 8.85338 43.709 8.8043 43.8756C8.75522 44.0421 8.74187 44.2174 8.76515 44.3896C8.78842 44.5618 8.84779 44.727 8.93927 44.8741C9.03075 45.0212 9.15223 45.1468 9.29558 45.2426C11.3929 46.9602 13.5055 48.6235 15.6027 50.2946V50.2634ZM12.5298 18.5369C12.4684 17.8607 12.9677 17.9384 13.3672 17.9151C15.4935 17.7427 17.6333 17.9479 19.6897 18.5214C20.0815 18.638 20.2659 18.5214 20.2044 18.0861C19.9586 16.3762 19.7205 14.6611 19.49 12.9409C19.4804 12.795 19.4419 12.6525 19.3767 12.522C19.3116 12.3916 19.221 12.2757 19.1106 12.1814C19.0002 12.0871 18.8721 12.0163 18.734 11.9732C18.5959 11.9301 18.4507 11.9155 18.3069 11.9304C16.0944 11.9304 13.8819 11.9304 11.6694 11.9304C11.5198 11.914 11.3685 11.9298 11.2253 11.9766C11.0821 12.0235 10.9504 12.1005 10.8387 12.2025C10.727 12.3045 10.6378 12.4293 10.5771 12.5686C10.5164 12.7079 10.4855 12.8586 10.4863 13.0108C10.2943 14.5653 10.1022 16.1897 9.82566 17.7674C9.69506 18.498 9.75653 18.7468 10.5248 18.4359C10.809 18.3271 11.2085 18.1716 11.3391 18.7001C10.9857 19.252 10.3557 19.1976 9.84102 19.3608C8.9806 19.6328 8.83465 19.4774 8.98829 18.5836C9.08816 17.9618 9.16498 17.3322 9.27254 16.5472C8.64233 16.9863 8.11733 17.5626 7.73607 18.2338C6.68284 20.2501 6.33877 22.5689 6.76041 24.8091C6.8065 25.0967 6.71433 25.462 7.1599 25.5864C7.60548 25.7107 7.70534 25.3066 7.80521 25.0035C8.28322 23.5659 9.26775 22.3568 10.5708 21.607C11.0318 21.3272 11.3391 21.3116 11.5695 21.9179C12.408 23.6861 13.8658 25.0763 15.66 25.8187C17.4542 26.5612 19.457 26.603 21.28 25.9361C21.6871 25.7652 21.7563 25.5786 21.6871 25.1589C21.5871 24.4847 21.4172 23.823 21.1801 23.1848C21.0802 22.9283 20.8728 22.5941 21.2493 22.4075C21.6257 22.221 21.7486 22.6485 21.8638 22.9205C22.1442 23.6277 22.3277 24.3704 22.4093 25.1278C22.4093 25.3377 22.4093 25.5553 22.7242 25.5475C23.0392 25.5398 23.1468 25.4309 23.1775 25.1434C23.5199 23.3029 23.4118 21.4057 22.8625 19.6173C22.5143 18.3893 21.7501 17.3245 20.7038 16.6094C20.8114 17.3866 20.9343 18.0706 20.9957 18.7468C21.0802 19.524 20.9957 19.6251 20.2275 19.3997C17.9382 18.6675 15.5227 18.4292 13.1367 18.7001C13.0296 18.7304 12.9168 18.7335 12.8083 18.709C12.6997 18.6846 12.5988 18.6335 12.5145 18.5602L12.5298 18.5369ZM10.8397 22.2287C10.1844 22.5824 9.6184 23.084 9.18544 23.6945C8.75248 24.3051 8.46422 25.0083 8.34298 25.7496C8.07413 27.6571 8.07413 29.5936 8.34298 31.5011C8.62165 33.0246 9.40615 34.4062 10.5667 35.4172C11.7272 36.4281 13.1941 37.0079 14.7246 37.0604C16.2552 37.113 17.7576 36.6353 18.9832 35.7063C20.2088 34.7773 21.0842 33.4528 21.4644 31.9519C21.9022 30.2653 21.6564 28.5399 21.7102 26.8378C21.7102 26.3714 21.3798 26.6046 21.2185 26.659C20.5096 26.9152 19.766 27.0593 19.0137 27.0864C15.3876 27.1097 12.599 25.5553 10.8244 22.2599L10.8397 22.2287ZM18.7986 40.8201C18.3914 40.5481 18.1533 40.8201 17.8844 40.9522C16.6357 41.7374 15.1318 41.9942 13.6975 41.6673C13.0179 41.4974 12.373 41.208 11.7923 40.8123C11.71 40.7474 11.6086 40.7122 11.5042 40.7122C11.3999 40.7122 11.2985 40.7474 11.2162 40.8123C11.0011 40.96 11.1778 41.1232 11.2699 41.2787L14.9805 47.3178L18.7986 40.8201ZM6.92942 33.8251C6.92942 34.781 6.92942 35.7292 6.92942 36.6775C6.91459 36.8629 6.94059 37.0494 7.00552 37.2235C7.07045 37.3976 7.1727 37.555 7.30493 37.6843C7.43716 37.8136 7.59608 37.9117 7.77026 37.9714C7.94443 38.0312 8.12954 38.0511 8.31225 38.0298C9.34936 38.0298 10.3942 38.0298 11.439 38.0298C11.6771 38.0298 12.0382 38.2397 12.138 37.7811C12.2379 37.3226 12.0535 37.1671 11.6848 37.0039C10.62 36.4998 9.69991 35.7294 9.01134 34.7655C8.29978 33.7907 7.82834 32.6583 7.6362 31.4622C7.59011 31.1824 7.77449 30.584 7.19064 30.6462C6.60678 30.7083 6.95247 31.198 6.93711 31.4778C6.89101 32.2783 6.89102 33.0711 6.89102 33.8561L6.92942 33.8251ZM23.0623 34.0038C23.0623 33.0556 23.0623 32.1074 23.0623 31.1592C23.0623 30.9571 23.2082 30.6539 22.8318 30.5995C22.4554 30.5451 22.4784 30.8483 22.44 31.1047C22.2473 32.7102 21.556 34.2124 20.4657 35.395C19.829 36.0932 19.0611 36.656 18.2071 37.0505C17.8383 37.2215 17.8844 37.4858 17.8921 37.7656C17.8921 38.1698 18.2224 38.0221 18.4145 38.0221C19.5361 38.0221 20.6577 38.0221 21.7793 38.0221C21.9557 38.0425 22.1344 38.0221 22.3018 37.9622C22.4692 37.9022 22.6209 37.8045 22.7454 37.6763C22.8698 37.5482 22.9637 37.393 23.02 37.2226C23.0762 37.0522 23.0933 36.8711 23.07 36.693C23.0239 35.8303 23.0239 34.9365 23.0239 34.0349L23.0623 34.0038ZM19.4055 41.2709L18.1686 43.3694C17.3313 44.7917 16.517 46.2297 15.6412 47.6287C15.3416 48.1183 15.7103 48.3592 15.8793 48.6701C16.0483 48.981 16.202 48.6702 16.3172 48.5924C17.7461 47.4499 19.1827 46.3151 20.5962 45.1415C20.8278 44.9659 20.9861 44.7091 21.0401 44.4216C21.0941 44.134 21.0399 43.8363 20.8882 43.5871C20.3888 42.8409 19.8741 42.1103 19.3517 41.302L19.4055 41.2709ZM15.0189 41.0766C15.8265 41.0684 16.6191 40.8546 17.3236 40.4548C17.4926 40.3615 17.7768 40.2993 17.531 40.0118C17.1383 39.4155 16.9946 38.6862 17.1315 37.9832C17.1315 37.5557 16.9856 37.4935 16.6399 37.579C15.5741 37.8355 14.4637 37.8355 13.3979 37.579C12.9908 37.478 12.8755 37.5791 12.8832 38.0376C12.9526 38.5311 12.9212 39.0337 12.791 39.5144C12.4223 40.4548 12.453 40.4937 13.4133 40.8356C13.9118 41.0131 14.4367 41.1025 14.9651 41.0999L15.0189 41.0766ZM22.463 28.0735C22.463 28.5476 22.463 29.014 22.463 29.4881C22.463 29.7757 22.5476 29.9156 22.8625 29.9078C23.3035 29.8801 23.7209 29.6971 24.0423 29.3904C24.3637 29.0837 24.5687 28.6727 24.6218 28.229C24.6506 27.7941 24.5247 27.3631 24.2669 27.0139C24.009 26.6647 23.6363 26.4202 23.2159 26.3248C22.7012 26.2237 22.3632 26.3248 22.4477 26.9777C22.4634 27.3538 22.4506 27.7305 22.4093 28.1046L22.463 28.0735ZM7.55937 28.0735C7.53631 27.6541 7.53631 27.2338 7.55937 26.8144C7.60547 26.3092 7.37501 26.2393 6.96784 26.2937C6.53313 26.3664 6.13874 26.5948 5.85667 26.9372C5.57459 27.2797 5.42364 27.7133 5.43138 28.159C5.47998 28.6198 5.6891 29.048 6.02129 29.367C6.35349 29.686 6.78706 29.875 7.2444 29.9C7.54401 29.9 7.58242 29.7368 7.58242 29.4959C7.49791 29.0684 7.50559 28.5943 7.50559 28.1202L7.55937 28.0735Z" fill="#231F20"/>
<path d="M58.8311 31.439C56.5961 32.9721 53.94 33.7527 51.241 33.6696C51.0392 33.6325 50.8309 33.6723 50.6564 33.7814C50.4819 33.8905 50.3535 34.0611 50.2961 34.2603C50.1741 34.5693 49.9733 34.8399 49.7142 35.0447C49.4551 35.2495 49.1469 35.3812 48.8211 35.4262C48.0255 35.5661 47.2121 35.5661 46.4165 35.4262C45.9626 35.35 45.5432 35.1335 45.2158 34.8065C44.8884 34.4794 44.6692 34.0578 44.5881 33.5997C44.6342 32.2006 45.172 31.4001 46.3243 31.1514C47.1436 30.9882 47.9864 30.9882 48.8057 31.1514C49.1715 31.2014 49.5154 31.357 49.796 31.5997C50.0767 31.8423 50.2823 32.1616 50.3883 32.5193C50.3996 32.5955 50.4268 32.6684 50.4681 32.7331C50.5094 32.7978 50.5638 32.853 50.6277 32.8949C50.6916 32.9367 50.7635 32.9644 50.8388 32.9761C50.9141 32.9877 50.9909 32.983 51.0643 32.9624C51.7864 32.908 52.5239 32.9079 53.2384 32.7991C55.3963 32.5916 57.4318 31.69 59.0462 30.2265C57.794 29.255 57.6327 28.9363 57.6327 27.3352C57.6327 24.3351 57.6327 21.3272 57.6327 18.3193C57.5754 17.8885 57.6044 17.4504 57.7179 17.0311C57.8314 16.6119 58.0271 16.22 58.2934 15.8788C58.4393 15.7234 58.4009 15.5368 58.3932 15.3581C58.2927 12.7088 57.3345 10.1664 55.666 8.12207C55.5354 7.95885 55.4202 7.79563 55.1743 7.78008C54.4283 7.65449 53.7388 7.29891 53.2 6.76191C51.2226 5.21373 48.7954 4.36919 46.295 4.35935C43.7947 4.34951 41.3611 5.17492 39.3718 6.7075C38.7726 7.16607 38.2349 7.73343 37.3898 7.66348C37.1363 7.66348 37.0518 7.88887 36.9212 8.04432C35.5683 9.65266 34.6664 11.5985 34.3092 13.6792C34.1863 14.3943 33.8098 15.2337 34.3092 15.8944C34.7458 16.5491 34.9639 17.3281 34.9315 18.1172C34.9315 21.2262 34.9315 24.3895 34.9775 27.5295C34.9084 28.5865 34.7163 29.5814 33.6255 30.0866C33.3662 30.2114 33.0846 30.2818 32.7977 30.2935C32.5108 30.3053 32.2245 30.2583 31.9561 30.1552C31.6876 30.052 31.4426 29.895 31.2357 29.6935C31.0288 29.4921 30.8644 29.2504 30.7523 28.9829C30.7034 28.8256 30.6063 28.6882 30.4751 28.5904C30.3439 28.4926 30.1854 28.4395 30.0225 28.4389C29.6698 28.4217 29.3243 28.3321 29.007 28.1756C28.6896 28.019 28.407 27.7989 28.1764 27.5284C27.9457 27.258 27.7718 26.943 27.6652 26.6024C27.5587 26.2619 27.5217 25.903 27.5564 25.5476C27.5564 23.5967 27.5564 21.6614 27.5564 19.695C27.5563 19.0724 27.7761 18.4702 28.1762 17.9971C28.5762 17.5239 29.1302 17.211 29.7382 17.1146C30.1151 17.0087 30.4567 16.8019 30.7271 16.5161C30.9975 16.2302 31.1867 15.8757 31.2747 15.4902C31.364 13.7836 31.6819 12.0971 32.2196 10.4771C32.9279 8.81098 33.8725 7.25833 35.0236 5.86808C35.1132 5.77626 35.1746 5.66019 35.2003 5.53388C35.3463 3.97942 36.4833 3.38871 37.6203 2.70475C38.4271 2.14186 39.2805 1.65042 40.1708 1.23582C46.0785 -1.09587 51.5099 -0.194319 56.465 3.77733C56.7141 3.95304 56.9194 4.18497 57.0647 4.45475C57.2101 4.72452 57.2914 5.02475 57.3023 5.33179C57.3139 5.592 57.4207 5.83857 57.602 6.02354C59.8239 8.62222 61.0936 11.9158 61.1973 15.3503C61.1973 15.8944 61.7197 16.1275 61.8118 16.5706C61.9424 17.2234 62.4495 17.0447 62.849 17.1068C63.4171 17.2016 63.9362 17.4898 64.3204 17.9237C64.7045 18.3576 64.9308 18.9113 64.9616 19.493C64.9974 21.6537 64.9974 23.8169 64.9616 25.9828C64.9343 26.6063 64.6797 27.1975 64.2471 27.6424C63.8144 28.0873 63.2343 28.3545 62.6185 28.3923C62.1806 28.3923 61.9194 28.5244 61.7734 28.9985C61.7007 29.2414 61.5702 29.4627 61.3935 29.6429C61.2167 29.8231 60.999 29.9568 60.7594 30.0322C60.0091 30.3281 59.3455 30.8122 58.8311 31.439ZM46.0094 0.683967C45.5072 0.707329 45.0069 0.761855 44.5113 0.847203C41.5961 1.18151 38.8434 2.3793 36.5985 4.29033C36.2793 4.5257 36.062 4.87642 35.9916 5.26965C35.9343 5.55702 35.9672 5.85532 36.0857 6.12287C36.2041 6.39042 36.4022 6.61383 36.6523 6.76191C36.9483 6.93391 37.2924 7.00127 37.6305 6.95342C37.9685 6.90557 38.2812 6.74521 38.5191 6.49764C43.4204 2.68143 49.2359 2.69698 54.045 6.49764C54.9131 7.18937 55.7505 7.17383 56.3497 6.49764C56.949 5.82144 56.7799 4.94321 55.9041 4.25148C53.1116 1.94273 49.6157 0.682287 46.0094 0.683967ZM58.3625 22.6951V27.444C58.3625 27.6072 58.3625 27.7627 58.3625 27.9259C58.3424 28.1224 58.3616 28.321 58.4187 28.5099C58.4759 28.6988 58.5699 28.8742 58.6953 29.0256C58.8206 29.1771 58.9748 29.3016 59.1485 29.3917C59.3223 29.4818 59.5122 29.5358 59.7069 29.5503C59.9088 29.5635 60.1112 29.5337 60.3009 29.4627C60.4907 29.3918 60.6636 29.2812 60.8084 29.1384C60.9533 28.9955 61.0669 28.8234 61.1418 28.6333C61.2167 28.4432 61.2513 28.2392 61.2434 28.0347C61.2434 24.5216 61.2434 21.0396 61.2434 17.5032C61.2422 17.2146 61.1682 16.931 61.0283 16.6794C60.552 15.84 59.7299 16.2286 59.0769 16.2596C58.4239 16.2907 58.3548 16.9514 58.3471 17.4721C58.3625 19.2131 58.3625 20.9541 58.3625 22.6951ZM31.2363 22.6951C31.2363 24.405 31.2363 26.1227 31.2363 27.8326C31.2363 28.8897 31.7663 29.5348 32.6421 29.5503C33.5179 29.5659 34.0787 28.9363 34.0864 27.8793C34.0864 24.475 34.0864 21.0785 34.0864 17.682C34.0864 16.5706 33.8175 16.2908 32.7881 16.2908C31.4437 16.2908 31.2516 16.454 31.2516 17.6354C31.2593 19.3375 31.267 21.0085 31.267 22.6951H31.2363ZM61.9655 22.6951C61.9655 24.2496 61.9655 25.7496 61.9655 27.2808C61.9655 27.7316 62.1191 27.8249 62.5186 27.7549C63.0285 27.6925 63.4958 27.436 63.8254 27.0376C64.1551 26.6391 64.3223 26.1285 64.2932 25.6098C64.2932 23.8454 64.2932 22.0811 64.2932 20.3168C64.3598 19.7953 64.2421 19.2668 63.961 18.8245C63.6799 18.3823 63.2534 18.0547 62.7568 17.8996C62.2113 17.682 61.9425 17.8297 61.9425 18.4282C61.9962 19.8272 62.0039 21.2495 62.0039 22.6718L61.9655 22.6951ZM30.468 22.8428C30.468 21.3661 30.468 19.8815 30.468 18.4048C30.468 17.7908 30.2145 17.752 29.7613 17.853C29.2966 17.9511 28.8807 18.2109 28.5859 18.5872C28.2912 18.9636 28.1362 19.4326 28.148 19.9126C28.148 21.8402 28.148 23.7599 28.148 25.6875C28.1368 26.1676 28.2932 26.6365 28.5896 27.0117C28.886 27.3869 29.3035 27.6445 29.7689 27.7394C30.2376 27.8482 30.4834 27.8015 30.468 27.1953C30.4911 25.7185 30.5218 24.2651 30.5218 22.8195L30.468 22.8428ZM35.4462 6.47434C33.3766 8.89201 32.1628 11.9388 31.9968 15.1327C31.9968 15.2804 31.92 15.4436 32.0967 15.5524C32.2257 15.6232 32.3698 15.661 32.5166 15.6625C32.6634 15.664 32.8082 15.6291 32.9386 15.5608C33.0689 15.4926 33.1808 15.3931 33.2644 15.271C33.3479 15.149 33.4007 15.0081 33.418 14.8606C33.568 12.6755 34.2834 10.5687 35.4923 8.75162C35.7304 8.37855 36.1606 8.05987 36.2605 7.66348C36.3604 7.26709 35.6229 7.08056 35.4999 6.451L35.4462 6.47434ZM56.1116 7.60907C57.384 9.17102 58.2831 11.0089 58.7389 12.9798C58.8926 13.6948 58.931 14.4409 59.0769 15.156C59.2229 15.871 59.7914 15.4358 60.1678 15.498C60.5443 15.5602 60.4674 15.257 60.4521 15.0083C60.2728 12.3563 59.3773 9.8049 57.8631 7.63241C57.2025 6.69196 57.2025 6.69195 56.3805 7.38369L56.1116 7.60907ZM47.661 34.75C47.7916 34.75 48.1297 34.75 48.4677 34.75C48.642 34.7411 48.8128 34.6973 48.9703 34.6212C49.1277 34.5451 49.2688 34.4382 49.3852 34.3067C49.5016 34.1752 49.5911 34.0216 49.6486 33.8549C49.706 33.6882 49.7303 33.5117 49.7199 33.3354C49.7379 33.1593 49.72 32.9814 49.6675 32.8125C49.615 32.6436 49.5289 32.4874 49.4145 32.3535C49.3 32.2195 49.1598 32.1106 49.0022 32.0336C48.8447 31.9565 48.6732 31.9128 48.4984 31.9053C47.8485 31.8664 47.197 31.8664 46.5471 31.9053C46.3343 31.9199 46.1277 31.9845 45.9438 32.0938C45.7599 32.2031 45.6036 32.3542 45.4874 32.5351C45.3711 32.7161 45.2981 32.9219 45.274 33.1364C45.2499 33.3508 45.2755 33.568 45.3487 33.7707C45.7635 34.8277 46.647 34.7655 47.7225 34.7267L47.661 34.75Z" fill="#231F20"/>
<path d="M0.745178 53.5356C0.868095 51.678 0.745187 49.7972 1.11394 47.9551C1.31533 46.8942 1.77081 45.8994 2.44048 45.0579C3.11015 44.2164 3.97357 43.5539 4.95509 43.1285C6.39348 42.4887 7.88109 41.9688 9.40313 41.574C9.1573 41.9704 8.90378 42.3513 8.6349 42.7632C7.77448 44.0845 7.91277 45.0949 9.14193 46.0509C11.1547 47.6753 13.1521 49.3153 15.1956 50.9008C15.4745 51.0574 15.6982 51.2979 15.8359 51.589C15.9735 51.8801 16.0183 52.2073 15.9638 52.5252C15.9407 52.8668 15.9407 53.2096 15.9638 53.5512L0.745178 53.5356Z" fill="#70C6B9"/>
<path d="M16.7474 53.5822C16.7965 52.5858 16.7321 51.587 16.5554 50.6054C16.2634 49.6106 16.6399 49.1753 17.3236 48.6624C18.499 47.7919 19.6283 46.8514 20.7576 45.9265C21.0032 45.7721 21.2131 45.5662 21.3733 45.3226C21.5334 45.0791 21.64 44.8036 21.6859 44.5147C21.7318 44.2259 21.7159 43.9305 21.6392 43.6485C21.5626 43.3664 21.4269 43.1043 21.2416 42.8798L20.4349 41.6362C20.4964 41.5818 20.5348 41.5196 20.5579 41.5274C22.4861 42.1958 24.5142 42.6388 26.2044 43.8591C27.1042 44.5243 27.8352 45.396 28.3374 46.4026C28.8395 47.4092 29.0985 48.5219 29.0929 49.6495C29.139 50.621 29.1467 51.5925 29.1697 52.5719C29.2465 53.4268 28.8547 53.6366 28.0251 53.6133C25.9508 53.5434 23.8689 53.6133 21.787 53.6133C21.5105 53.6133 21.2031 53.5045 20.9727 53.761C20.0738 53.4423 19.1366 53.6677 18.2147 53.6133C17.7307 53.5356 17.2391 53.5822 16.7474 53.5822Z" fill="#70C6B9"/>
<path d="M37.0748 54.1574C36.4065 54.1574 36.5063 53.6833 36.5063 53.2791C36.5063 50.6987 36.5063 48.1105 36.5063 45.5068C36.5063 44.1622 36.5063 42.8176 36.5063 41.473C36.463 41.1565 36.4927 40.8342 36.5932 40.5313C36.6937 40.2284 36.8622 39.9532 37.0855 39.7272C37.3088 39.5013 37.5808 39.3309 37.8802 39.2292C38.1796 39.1275 38.4982 39.0974 38.811 39.1413C39.5792 39.1413 40.3475 39.1413 41.1618 39.1413C41.6765 39.1413 41.8302 38.9936 41.8225 38.4729C41.8225 38.1154 41.5613 37.4547 42.1759 37.4703C42.7904 37.4858 42.4755 38.1076 42.4601 38.4651C42.4601 38.9781 42.5984 39.1568 43.1208 39.1413C44.2655 39.1413 45.4255 39.1413 46.5625 39.1413C47.0695 39.1413 47.2923 39.0014 47.2231 38.4729C47.2039 38.3154 47.2039 38.1562 47.2231 37.9988C47.2231 37.7345 47.2231 37.4158 47.6073 37.4392C47.9914 37.4625 47.9146 37.7345 47.9299 37.9832C48.0221 39.1258 48.0221 39.1258 49.1745 39.1258C50.1194 39.1258 51.0566 39.1258 51.9938 39.1258C52.5316 39.1258 52.6392 38.947 52.6392 38.4496C52.6392 38.0843 52.3626 37.4314 53.0002 37.4469C53.5073 37.4469 53.3536 38.0765 53.3229 38.434C53.2845 39.0092 53.515 39.1413 54.045 39.1258C55.0898 39.1258 56.1346 39.0636 57.1717 39.1258C57.8631 39.1724 58.1013 38.9626 58.0475 38.2553C58.0475 37.8589 57.8324 37.1127 58.7312 37.5558C58.7312 39.1102 58.7312 39.1102 60.2677 39.1102C62.027 39.1102 62.6799 39.7709 62.6799 41.5585C62.6799 48.6546 62.6338 55.7507 62.6799 62.8468C62.705 63.3156 62.6329 63.7845 62.4681 64.2234C62.3034 64.6623 62.0498 65.0615 61.7235 65.3953C61.3971 65.729 61.0054 65.9901 60.5734 66.1616C60.1415 66.3331 59.6788 66.4112 59.2152 66.391C55.4355 66.2899 51.6481 66.391 47.8685 66.3444C47.6303 66.3444 47.154 66.6164 47.1002 66.1034C47.0464 65.5904 47.5689 65.6682 47.9069 65.6682H59.0539C61.0743 65.6682 61.9808 64.7666 61.9808 62.7536C61.9808 56.629 61.9808 50.5122 61.9808 44.3876C61.9808 43.7736 61.904 43.5404 61.2126 43.5482C53.4689 43.5482 45.7225 43.5482 37.9736 43.5482C37.4128 43.5482 37.2054 43.6493 37.2054 44.271C37.2438 47.2478 37.2054 50.2324 37.2054 53.217C37.2824 53.5358 37.2357 53.8724 37.0748 54.1574ZM49.6584 42.8409H51.6943C54.9003 42.8409 58.1064 42.8409 61.3125 42.8409C61.566 42.8409 61.9809 43.043 61.9885 42.4756C61.9885 40.2294 62.0423 39.8797 59.7914 39.9496H59.7146C58.9464 39.802 58.5776 40.1206 58.7082 40.9523C58.7543 41.2243 58.7927 41.6051 58.3855 41.6207C57.9784 41.6362 58.0245 41.2554 58.0091 40.9756C57.9976 40.8697 57.9976 40.7628 58.0091 40.6569C58.0859 40.1284 57.9169 39.8797 57.3408 39.9419C56.2499 39.9885 55.1513 39.9419 54.0527 39.9419C53.4842 39.9419 53.2845 40.074 53.2845 40.6802C53.2845 41.03 53.4612 41.6207 52.9004 41.6207C52.3396 41.6207 52.6238 41.0455 52.57 40.7113C52.5623 40.6598 52.5623 40.6074 52.57 40.5559C52.6545 40.0584 52.4318 39.9341 51.9631 39.9496C50.8185 39.9496 49.6584 39.9496 48.5215 39.9496C47.9991 39.9496 47.8531 40.1051 47.8685 40.6258C47.8685 40.9678 48.122 41.5818 47.5612 41.5974C47.0004 41.6129 47.154 40.9678 47.1771 40.6103C47.1771 40.0507 46.9927 39.9419 46.5087 39.9574C45.5484 39.9574 44.5804 39.9574 43.6201 39.9574C42.5216 39.9574 42.5216 39.9574 42.4524 41.03C42.4524 41.2942 42.4524 41.6285 42.1221 41.644C41.7917 41.6595 41.7457 41.3409 41.7533 41.0611C41.7533 40.9056 41.7533 40.7424 41.7533 40.587C41.8148 40.1129 41.6535 39.9263 41.1541 39.9496C40.2399 39.9496 39.3334 39.9496 38.4192 39.9496C38.1278 39.9323 37.8413 40.0306 37.6204 40.2236C37.3995 40.4167 37.2616 40.6892 37.2361 40.9833C37.1747 41.3098 37.2361 41.6673 37.2361 42.0015C37.1593 42.6699 37.4128 42.8643 38.0658 42.8643C41.9377 42.8254 45.8019 42.8409 49.6584 42.8409Z" fill="#231F20"/>
<path d="M33.1722 58.3233C32.6136 57.5636 32.1468 56.7391 31.7817 55.8673C31.6109 55.5064 31.5621 55.0987 31.6426 54.707C31.7231 54.3152 31.9285 53.961 32.2273 53.6989C32.3591 53.5974 32.455 53.4556 32.5007 53.2945C32.5464 53.1335 32.5394 52.9617 32.4808 52.805C32.1828 51.4137 32.0029 49.9992 31.943 48.5769C31.8816 47.3489 32.5423 46.7659 33.7407 46.9214C33.9789 46.9214 34.1555 47.0069 34.1632 47.2711C34.1671 47.3247 34.1584 47.3784 34.1379 47.4279C34.1174 47.4774 34.0857 47.5213 34.0453 47.5562C34.0049 47.591 33.957 47.6157 33.9054 47.6283C33.8538 47.6409 33.8 47.641 33.7484 47.6287C32.7574 47.5199 32.6498 48.0717 32.6959 48.8878C32.7839 50.1451 32.9455 51.3961 33.1799 52.6341C33.1839 52.7894 33.2483 52.9368 33.359 53.0444C33.4697 53.1521 33.6179 53.2113 33.7714 53.2092C34.1145 53.2442 34.4407 53.3765 34.7126 53.5911C34.9845 53.8056 35.1908 54.0936 35.3079 54.4217C35.4565 54.7574 35.6285 55.0821 35.8226 55.3932C36.0915 55.8207 36.3988 56.287 36.9596 56.2481C37.5204 56.2093 37.8738 55.7196 38.0735 55.1756C38.2908 54.9194 38.453 54.6203 38.5498 54.2973C38.6658 53.9994 38.8633 53.7411 39.119 53.5526C39.3748 53.364 39.6783 53.253 39.9941 53.2325C40.4781 53.2325 40.601 52.9605 40.6778 52.5796C40.9552 51.2658 41.1375 49.9332 41.2233 48.5924C41.2233 47.9318 41.0466 47.582 40.3552 47.6053C40.117 47.6053 39.7713 47.7142 39.7559 47.31C39.7406 46.9058 40.0786 46.9292 40.3629 46.9214C41.5152 46.9214 42.0453 47.4343 41.9608 48.6157C41.8661 50.0608 41.6554 51.4956 41.3308 52.9061C41.2676 53.0358 41.25 53.1834 41.2807 53.3247C41.3114 53.4659 41.3887 53.5924 41.4998 53.6833C41.848 53.9714 42.0812 54.3775 42.1561 54.8262C42.2309 55.275 42.1424 55.736 41.907 56.1238C41.3637 57.5607 40.3674 58.7764 39.0722 59.5825C38.6651 59.8079 38.7188 60.1343 38.7342 60.4607C38.7957 61.4634 38.6266 62.3106 37.505 62.6214C37.3668 62.6214 37.2746 62.7147 37.2822 62.8779C37.3667 64.5024 37.0134 66.1656 37.4973 67.7512C37.7751 68.5962 38.3437 69.3122 39.0995 69.7687C39.8553 70.2252 40.748 70.3919 41.6151 70.2383C42.4959 70.101 43.2992 69.6495 43.8797 68.9652C44.4602 68.281 44.7796 67.4093 44.7802 66.5076C44.7802 64.2925 44.7802 62.0774 44.7802 59.8623C44.746 59.0911 44.8716 58.3211 45.1487 57.6018C45.4258 56.8826 45.8484 56.2298 46.3894 55.6853C46.9304 55.1409 47.5779 54.7169 48.2903 54.4404C49.0028 54.1639 49.7644 54.041 50.5265 54.0797C51.2948 54.0797 51.9862 54.0797 52.716 54.0797C53.1001 54.0797 53.2461 53.9631 53.3767 53.6056C53.5046 53.1122 53.7579 52.6612 54.1114 52.2976C54.465 51.9339 54.9064 51.6702 55.3919 51.5327C55.8774 51.3951 56.3901 51.3886 56.8789 51.5136C57.3676 51.6386 57.8156 51.891 58.1781 52.2454C58.5853 52.5874 58.7313 52.4087 58.9464 52.1444C59.1615 51.8801 59.3612 51.6703 59.6531 51.9812C59.945 52.2921 59.6531 52.4708 59.4457 52.6263C59.2529 52.7531 59.1065 52.9402 59.0288 53.1592C58.9511 53.3782 58.9464 53.6169 59.0155 53.8388C59.1878 54.5596 59.0765 55.3199 58.7053 55.9594C58.3341 56.5989 57.7319 57.0674 57.0258 57.2663C56.3144 57.5053 55.5389 57.4528 54.8653 57.1201C54.1918 56.7874 53.6739 56.201 53.4228 55.4865C53.4065 55.3675 53.366 55.2533 53.304 55.1509C53.2419 55.0485 53.1596 54.9603 53.0622 54.8916C52.9648 54.823 52.8544 54.7755 52.738 54.7522C52.6215 54.7288 52.5016 54.7301 52.3857 54.7559C51.2683 54.701 50.1484 54.7635 49.0438 54.9424C47.9886 55.2207 47.0584 55.8541 46.4064 56.7384C45.7543 57.6227 45.4192 58.7052 45.4562 59.8079C45.4562 61.9919 45.4562 64.1837 45.4562 66.3755C45.4747 66.9766 45.3744 67.5754 45.1613 68.1369C44.9483 68.6984 44.6267 69.2113 44.2154 69.6455C43.804 70.0797 43.3112 70.4266 42.7658 70.6659C42.2204 70.9051 41.6333 71.0319 41.0389 71.0389C40.4369 71.04 39.8406 70.9196 39.2852 70.6846C38.7297 70.4497 38.2262 70.105 37.8041 69.6707C37.382 69.2364 37.0498 68.7213 36.8269 68.1554C36.6041 67.5896 36.4951 66.9845 36.5063 66.3755C36.5063 65.3185 36.5063 64.2614 36.5063 63.2044C36.5063 62.8624 36.5063 62.6214 36.0838 62.5048C35.734 62.4233 35.4303 62.2051 35.2389 61.8979C35.0475 61.5907 34.9839 61.2193 35.0621 60.8649C35.1396 60.5243 35.0939 60.1668 34.9332 59.8574C34.7725 59.5479 34.5075 59.307 34.1863 59.1783C33.8206 58.9287 33.4808 58.6422 33.1722 58.3233ZM36.852 61.8598C37.7509 61.8598 38.0197 61.611 38.0351 60.7094C38.0351 60.3675 38.0351 60.0255 38.0351 59.6835C38.0166 59.5548 38.0424 59.4235 38.1081 59.3118C38.1739 59.2 38.2756 59.1145 38.3962 59.0695C39.7198 58.3609 40.7337 57.1771 41.2386 55.7507C41.3315 55.6076 41.3928 55.4459 41.4182 55.2766C41.4436 55.1073 41.4326 54.9345 41.3859 54.77C41.3392 54.6054 41.258 54.453 41.1477 54.3231C41.0374 54.1932 40.9007 54.089 40.747 54.0175C40.094 53.6833 39.5178 53.932 39.126 54.7403C38.8843 55.3231 38.5609 55.8676 38.1657 56.357C38.0351 56.5347 37.8684 56.6822 37.6769 56.7895C37.4854 56.8968 37.2734 56.9614 37.0552 56.9791C36.8369 56.9967 36.6175 56.967 36.4116 56.8919C36.2056 56.8168 36.0179 56.698 35.861 56.5435C35.3139 56.0189 34.8911 55.3759 34.6242 54.6626C34.5725 54.512 34.4908 54.3736 34.3841 54.2562C34.2774 54.1388 34.1481 54.0448 34.0041 53.9799C33.8601 53.9151 33.7044 53.8808 33.5468 53.8793C33.3892 53.8777 33.2329 53.9089 33.0877 53.9709C32.8019 54.0945 32.5752 54.3263 32.4561 54.6168C32.3369 54.9072 32.3348 55.2333 32.4501 55.5253C32.8331 56.8168 33.6691 57.9223 34.8008 58.6343C35.141 58.7729 35.4209 59.0302 35.59 59.3594C35.7591 59.6887 35.8062 60.0683 35.7227 60.4297C35.7111 60.5069 35.7111 60.5855 35.7227 60.6628C35.7381 61.5722 36.0223 61.852 36.852 61.8598ZM58.2396 53.6444C57.9492 54.0386 57.6389 54.4173 57.31 54.7792C55.981 56.1005 56.4112 56.2015 54.9208 54.7092L54.8056 54.6004C54.6519 54.4372 54.5444 54.2429 54.7134 54.0408C54.8824 53.8388 55.1129 53.932 55.3203 54.0875C55.5277 54.2429 55.8273 54.9113 56.2652 54.7637C56.7031 54.616 56.8721 54.2118 57.1717 53.9165C57.2926 53.7773 57.4236 53.6474 57.5635 53.5278C58.0782 53.1548 57.8939 52.8672 57.479 52.5641C57.1642 52.3263 56.7931 52.1766 56.4029 52.1301C56.0127 52.0836 55.6174 52.142 55.2566 52.2993C54.8958 52.4567 54.5824 52.7073 54.3479 53.0262C54.1134 53.3451 53.9661 53.7209 53.9208 54.1157C53.8755 54.5105 53.9339 54.9105 54.09 55.2752C54.2462 55.6399 54.4945 55.9566 54.8101 56.1933C55.1257 56.43 55.4974 56.5783 55.8877 56.6234C56.278 56.6685 56.6732 56.6088 57.0334 56.4502C58.0321 56.0616 58.5161 55.0901 58.2396 53.6444Z" fill="#231F20"/>
<path d="M46.2936 47.4577C46.3403 46.9544 46.5236 46.4739 46.8232 46.0693C47.1228 45.6647 47.5271 45.3517 47.9914 45.1649C48.4905 44.8965 49.0605 44.7942 49.6204 44.8723C50.1804 44.9505 50.7017 45.2051 51.1104 45.6001C51.4868 45.9343 51.7096 45.981 52.0092 45.6001C52.1706 45.3747 52.4625 45.196 52.6776 45.4058C52.8927 45.6157 52.739 45.9421 52.5009 46.1364C52.305 46.2767 52.1599 46.478 52.0877 46.7096C52.0156 46.9412 52.0204 47.1903 52.1014 47.4189C52.176 47.8279 52.1642 48.2483 52.0667 48.6524C51.9692 49.0564 51.7882 49.435 51.5356 49.7632C51.2831 50.0914 50.9647 50.3618 50.6014 50.5565C50.2381 50.7513 49.8382 50.8659 49.428 50.8931C47.7763 51.0174 46.2936 49.5951 46.2936 47.4577ZM51.3485 47.2556C50.7339 47.893 50.2116 48.437 49.6815 48.9733C49.4587 49.1987 49.2129 49.4319 48.9133 49.1054C48.6136 48.779 48.2065 48.3982 47.8685 48.0406C47.8301 48.0043 47.7995 47.9604 47.7786 47.9116C47.7576 47.8628 47.7469 47.8101 47.7469 47.757C47.7469 47.7038 47.7576 47.6511 47.7786 47.6023C47.7995 47.5536 47.8301 47.5096 47.8685 47.4733C48.0528 47.2945 48.2449 47.4188 48.4216 47.551C48.7366 47.7919 48.9363 48.3671 49.3511 48.2349C49.766 48.1028 49.958 47.6909 50.2577 47.3955C50.3938 47.2358 50.5401 47.0852 50.6955 46.9448C51.1872 46.595 50.9875 46.3385 50.6187 46.0587C50.2072 45.7507 49.704 45.5942 49.1926 45.6154C48.6811 45.6366 48.1922 45.8342 47.807 46.1753C47.4078 46.5183 47.1434 46.9946 47.0616 47.518C46.9799 48.0413 47.0862 48.5769 47.3614 49.0277C47.6365 49.479 48.0592 49.8186 48.5559 49.9876C49.0527 50.1565 49.5923 50.1442 50.081 49.9526C50.5878 49.7455 50.9993 49.3534 51.234 48.8539C51.4687 48.3545 51.5096 47.7841 51.3485 47.2556Z" fill="#231F20"/>
<path d="M52.1475 61.0359C52.1678 61.4371 52.1073 61.8382 51.9696 62.2149C51.8319 62.5916 51.6198 62.936 51.3464 63.2272C51.073 63.5184 50.7438 63.7502 50.379 63.9087C50.0142 64.0671 49.6214 64.1488 49.2244 64.1488C48.8274 64.1488 48.4345 64.0671 48.0697 63.9087C47.7049 63.7502 47.3758 63.5184 47.1024 63.2272C46.8289 62.936 46.6169 62.5916 46.4792 62.2149C46.3415 61.8382 46.2809 61.4371 46.3012 61.0359C46.2809 60.6348 46.3415 60.2337 46.4792 59.857C46.6169 59.4803 46.8289 59.1359 47.1024 58.8447C47.3758 58.5535 47.7049 58.3216 48.0697 58.1632C48.4345 58.0047 48.8274 57.923 49.2244 57.923C49.6214 57.923 50.0142 58.0047 50.379 58.1632C50.7438 58.3216 51.073 58.5535 51.3464 58.8447C51.6198 59.1359 51.8319 59.4803 51.9696 59.857C52.1073 60.2337 52.1678 60.6348 52.1475 61.0359ZM49.2666 58.8053C48.6722 58.7906 48.0962 59.0145 47.6644 59.4281C47.2325 59.8417 46.98 60.4113 46.9619 61.0126C46.9614 61.6139 47.1904 62.1922 47.6013 62.6266C48.0121 63.0611 48.573 63.3182 49.1668 63.3443C49.778 63.3443 50.3642 63.0986 50.7964 62.6614C51.2286 62.2241 51.4715 61.631 51.4715 61.0126C51.4414 60.4331 51.1988 59.8857 50.791 59.4775C50.3833 59.0693 49.8397 58.8296 49.2666 58.8053Z" fill="#231F20"/>
<path d="M58.8542 61.0436C58.8542 63.3209 58.8542 63.3209 56.6186 63.3209H54.9823C54.5367 63.3209 54.3139 63.1577 54.3216 62.6681C54.3216 61.5955 54.3216 60.5151 54.3216 59.4348C54.3216 58.9685 54.506 58.7741 54.9746 58.7819C56.0655 58.7819 57.1564 58.7819 58.2473 58.7819C58.6698 58.7819 58.8695 58.9451 58.8618 59.3882C58.8542 59.8312 58.8542 60.5306 58.8542 61.0436ZM55.0898 61.0436C55.0898 62.5981 55.0898 62.5981 56.5341 62.5981C58.109 62.5981 58.109 62.5981 58.109 61.0436C58.109 59.4892 58.109 59.4892 56.6186 59.4892C55.1282 59.4892 55.0898 59.4737 55.0898 61.0359V61.0436Z" fill="#231F20"/>
<path d="M56.6493 45.4836C57.164 45.4836 57.6864 45.4836 58.1858 45.4836C58.6851 45.4836 58.8465 45.639 58.8388 46.1209C58.8388 47.2012 58.8388 48.2738 58.8388 49.3541C58.8388 49.836 58.6544 50.0148 58.1935 50.007C57.1256 50.007 56.0578 50.007 54.9899 50.007C54.506 50.007 54.2832 49.8516 54.2909 49.3231C54.2909 48.2738 54.2909 47.2168 54.2909 46.1675C54.2909 45.6545 54.4676 45.4525 54.9746 45.4836C55.4816 45.5146 56.1039 45.4836 56.6493 45.4836ZM58.109 47.7453C58.109 46.1908 58.109 46.1908 56.6801 46.1908C55.0898 46.1908 55.0898 46.1908 55.0898 47.8308C55.0898 49.323 55.0898 49.3231 56.5879 49.3231C58.0859 49.3231 58.109 49.292 58.109 47.7453Z" fill="#231F20"/>
<path d="M41.8532 63.321C39.6023 63.321 39.5869 63.321 39.61 61.0437C39.61 60.6706 39.3718 60.0255 40.0018 60.0488C40.6317 60.0722 40.3244 60.6784 40.3244 61.0359C40.3244 62.5904 40.3244 62.5904 41.8609 62.5904C43.3973 62.5904 43.3973 62.5904 43.3973 61.0826C43.3973 59.5747 43.3973 59.4892 41.8609 59.4737H41.5459C41.3078 59.4737 41.1003 59.3959 41.0927 59.1472C41.085 58.8985 41.277 58.7897 41.5152 58.7897H43.7123C44.0964 58.7897 44.1656 59.0773 44.1656 59.3882C44.1656 60.4997 44.1656 61.6033 44.1656 62.7147C44.1656 63.1578 43.9505 63.3288 43.5433 63.321H41.8532Z" fill="#231F20"/>
<path d="M44.1195 47.7997V48.9811C44.1195 49.9759 43.8737 50.1703 42.9134 50.007C42.7136 49.9682 42.5523 49.9215 42.5446 49.6883C42.5369 49.4552 42.6291 49.2764 42.8442 49.3075C43.4204 49.3852 43.3743 49.0199 43.3743 48.6391C43.3743 47.9862 43.3743 47.3256 43.3743 46.6727C43.3743 46.2452 43.236 46.1286 42.8366 46.152C42.2911 46.152 41.7457 46.152 41.2002 46.152C40.9697 46.152 40.6932 46.152 40.6778 45.8333C40.6625 45.5146 40.9083 45.4758 41.1618 45.4758C41.9684 45.4758 42.7674 45.4758 43.574 45.4758C43.9889 45.4758 44.1195 45.6934 44.1195 46.0665V47.7997Z" fill="#231F20"/>
<path d="M44.1195 54.445C44.1195 54.9191 44.1195 55.3932 44.1195 55.8674C44.1195 56.1394 44.2117 56.5047 43.8429 56.598C43.6364 56.674 43.4167 56.7063 43.1973 56.6929C42.9779 56.6796 42.7636 56.6208 42.5677 56.5203C42.5297 56.4881 42.4996 56.4475 42.4796 56.4017C42.4596 56.3559 42.4503 56.306 42.4524 56.256C42.4676 56.1631 42.5176 56.0798 42.592 56.0233C42.6664 55.9668 42.7595 55.9416 42.8519 55.9528C43.4357 56.0383 43.3743 55.6497 43.3666 55.2767C43.3436 54.8573 43.3436 54.4369 43.3666 54.0175C43.4588 53.2403 43.3666 52.6108 42.3218 52.8206C42.1067 52.8673 41.8916 52.8206 41.8993 52.4942C41.907 52.1677 42.0606 52.1211 42.3141 52.1444H42.3909C44.396 52.1444 44.0964 51.8957 44.1118 53.6989L44.1195 54.445Z" fill="#231F20"/>
<path d="M49.2436 52.1444C49.6892 52.1444 50.1347 52.1444 50.5726 52.1444C51.0105 52.1444 51.4407 51.9501 51.4407 52.4941C51.4407 53.0382 50.926 52.8128 50.6111 52.8206C49.8428 52.8206 49.0746 52.8206 48.3064 52.8206C47.8531 52.8206 47.615 52.8983 47.6764 53.419C47.7148 53.7377 47.6764 54.1263 47.2616 54.103C46.8467 54.0797 46.9235 53.7144 46.9235 53.419C46.9235 52.1444 46.8851 52.1444 48.1143 52.1444H49.2436Z" fill="#231F20"/>
<path d="M41.3692 66.3988C40.6471 66.3988 39.9173 66.3988 39.1875 66.3988C38.9032 66.3988 38.4807 66.3366 38.5191 65.9247C38.5575 65.5128 38.957 65.6604 39.2489 65.6682L42.8289 65.7148H43.4511C43.7277 65.7148 44.0964 65.6604 44.0734 66.0879C44.0504 66.5154 43.7354 66.4066 43.4742 66.4066H41.3692V66.3988Z" fill="#231F20"/>
<path d="M38.3885 47.1468C38.414 46.8777 38.524 46.6239 38.7023 46.4225C38.8806 46.2211 39.1179 46.0828 39.3795 46.0276C39.6407 45.9421 39.8558 45.981 39.9557 46.253C39.9753 46.3036 39.9827 46.3583 39.9772 46.4124C39.9718 46.4665 39.9536 46.5185 39.9243 46.5641C39.895 46.6097 39.8554 46.6475 39.8088 46.6745C39.7621 46.7015 39.7098 46.7169 39.6561 46.7193C39.3411 46.7893 39.1183 46.9448 39.126 47.2867C39.1337 47.6287 39.3795 47.7841 39.6791 47.8541C39.7248 47.8593 39.7689 47.8744 39.8084 47.8983C39.8479 47.9222 39.8819 47.9544 39.9081 47.9927C39.9343 48.0309 39.9521 48.0744 39.9603 48.1202C39.9685 48.166 39.9669 48.2131 39.9557 48.2583C39.9019 48.5381 39.6791 48.5303 39.464 48.5225C39.1456 48.4743 38.8572 48.3053 38.6574 48.0498C38.4577 47.7943 38.3615 47.4715 38.3885 47.1468Z" fill="#231F20"/>
<path d="M50.0272 56.6445H49.0131C48.8134 56.6445 48.6367 56.5512 48.6136 56.3414C48.6066 56.2887 48.6114 56.235 48.6275 56.1844C48.6436 56.1337 48.6706 56.0873 48.7067 56.0486C48.7428 56.0099 48.7869 55.9798 48.8359 55.9605C48.885 55.9412 48.9376 55.9333 48.9901 55.9373C49.6892 55.9373 50.3959 55.9373 51.095 55.9373C51.1411 55.9352 51.187 55.9424 51.2303 55.9586C51.2735 55.9747 51.3131 55.9995 51.3467 56.0313C51.3804 56.0632 51.4074 56.1015 51.4262 56.1441C51.445 56.1867 51.4551 56.2326 51.4561 56.2792C51.4561 56.528 51.264 56.629 51.0336 56.6445H50.0272Z" fill="#231F20"/>
<path d="M34.9545 27.545C34.9545 24.4361 34.9084 21.2727 34.9084 18.1327C34.9408 17.3436 34.7228 16.5646 34.2861 15.9099C33.8252 15.2259 34.2016 14.4098 34.2861 13.6947C34.6433 11.614 35.5453 9.66815 36.8981 8.05981C37.0287 7.90436 37.1132 7.66343 37.3668 7.67897C38.2118 7.74892 38.7496 7.18156 39.3488 6.723C41.338 5.19042 43.7716 4.36501 46.272 4.37484C48.7723 4.38468 51.1995 5.22922 53.1769 6.77741C53.7157 7.3144 54.4052 7.66998 55.1513 7.79558C55.3971 7.79558 55.5123 7.97434 55.6429 8.13756C57.3086 10.1829 58.2641 12.7253 58.3625 15.3736C58.3625 15.5523 58.4086 15.7389 58.2626 15.8943C57.9963 16.2355 57.8006 16.6274 57.6871 17.0466C57.5736 17.4659 57.5447 17.904 57.6019 18.3348C57.6019 21.3427 57.6019 24.3506 57.6019 27.3507C57.6019 28.9518 57.7633 29.2705 59.0155 30.242C57.4011 31.7055 55.3656 32.6071 53.2077 32.8146C52.4932 32.9234 51.7557 32.9234 51.0336 32.9778C50.9602 32.9985 50.8834 33.0032 50.8081 32.9915C50.7328 32.9799 50.6608 32.9522 50.5969 32.9104C50.533 32.8685 50.4786 32.8133 50.4374 32.7486C50.3961 32.6839 50.3689 32.611 50.3575 32.5348C50.2516 32.177 50.046 31.8577 49.7653 31.6151C49.4846 31.3725 49.1408 31.2169 48.775 31.1669C47.9557 31.0037 47.1129 31.0037 46.2936 31.1669C45.1412 31.4156 44.6035 32.2161 44.5574 33.6151C41.9839 33.3183 39.5665 32.215 37.6433 30.4596C36.6983 29.5352 35.8009 28.5624 34.9545 27.545ZM41.7226 16.2285C42.6675 15.1015 43.4358 14.06 44.3346 13.1196C44.6563 12.7987 44.8984 12.4054 45.0413 11.9719C45.1842 11.5383 45.2237 11.0766 45.1566 10.6247C45.1718 10.19 45.0204 9.76629 44.7341 9.44188C44.4478 9.11747 44.0487 8.91747 43.6201 8.88367C41.8225 8.70491 40.9313 9.10129 40.6471 10.1894C40.6109 10.3157 40.5928 10.4466 40.5933 10.578C40.5933 10.8967 40.5318 11.3008 40.9774 11.3008C41.423 11.3008 41.3539 10.9433 41.3462 10.6402C41.3249 10.5081 41.3344 10.3728 41.3738 10.245C41.4131 10.1172 41.4813 10.0005 41.573 9.90398C41.6646 9.80747 41.7773 9.73387 41.9019 9.68899C42.0265 9.6441 42.1598 9.62918 42.2911 9.64539C43.0593 9.64539 43.9505 9.29563 44.4421 10.2672C44.449 10.2926 44.449 10.3194 44.4421 10.3449C44.5176 10.7277 44.5085 11.1227 44.4156 11.5016C44.3226 11.8805 44.148 12.2339 43.9044 12.5367C42.8212 13.6792 41.8532 14.9228 40.8315 16.1275C40.7085 16.2751 40.5011 16.4228 40.6087 16.6715C40.6647 16.7769 40.7517 16.862 40.8578 16.9149C40.9638 16.9678 41.0835 16.986 41.2002 16.9669H44.5343C44.8186 16.9669 45.0875 16.9047 45.0798 16.5705C45.0721 16.2363 44.7725 16.2052 44.5036 16.2052L41.7226 16.2285ZM51.1949 12.9486C51.1949 11.8994 51.1949 10.8423 51.1949 9.78528C51.1949 9.47439 51.3562 8.96142 50.8799 8.95364C50.4036 8.94587 50.5265 9.4977 50.5112 9.82414C50.5112 10.6635 50.5112 11.5107 50.5112 12.3501C50.5112 12.7621 50.3959 12.902 49.9888 12.8864C49.282 12.8864 48.5752 12.8476 47.8761 12.8864C47.4382 12.8864 47.2846 12.7776 47.3 12.319C47.3 11.4252 47.3 10.5236 47.3 9.62983C47.3 9.3578 47.4075 8.9614 46.9927 8.93808C46.5778 8.91477 46.6393 9.31117 46.6393 9.59098C46.6393 10.7024 46.6393 11.8061 46.6393 12.9097C46.6393 13.5004 46.8774 13.6403 47.4075 13.6248C48.2449 13.6248 49.0823 13.6248 49.9119 13.6248C50.442 13.6248 50.5803 13.8036 50.5573 14.3088C50.5112 14.9927 50.5573 15.6767 50.5573 16.3606C50.5573 16.6327 50.5573 16.9591 50.9106 16.9591C51.264 16.9591 51.2563 16.6482 51.2563 16.3684L51.1949 12.9486ZM47.953 22.5396L44.5343 29.1383C44.4114 29.3715 44.2424 29.6513 44.5343 29.83C44.8263 30.0088 45.0337 29.7213 45.172 29.4648L48.7673 22.5862C49.0285 22.0888 48.9593 21.809 48.3294 21.809H45.364C45.0951 21.809 44.7878 21.8479 44.7955 22.1899C44.8032 22.5318 45.0951 22.5707 45.3717 22.5707L47.953 22.5396ZM46.5701 19.0421H39.9941C39.7175 19.0421 39.3257 18.9566 39.3104 19.3608C39.295 19.7649 39.7329 19.7183 40.0171 19.7183H53.1616C53.4151 19.7183 53.8222 19.8582 53.8376 19.4151C53.853 18.9721 53.4228 19.0421 53.1385 19.0421H46.5701Z" fill="white"/>
<path d="M35.5384 47.3178C35.5386 47.6202 35.4293 47.9121 35.2311 48.1384C35.0329 48.3647 34.7596 48.5097 34.4628 48.5458C34.2477 48.5458 34.0249 48.5458 33.9712 48.2893C33.9174 48.0329 34.0557 47.9785 34.2324 47.8696C35.0006 47.4033 35.0006 47.2012 34.2324 46.7427C34.0403 46.6261 33.8713 46.5095 33.9635 46.2608C34.0557 46.0121 34.2554 45.9888 34.4859 46.0276C34.7842 46.0811 35.0539 46.2404 35.2468 46.4768C35.4397 46.7132 35.543 47.0113 35.5384 47.3178Z" fill="#231F20"/>
<path d="M10.8244 22.2599C12.599 25.5864 15.3876 27.102 19.0291 27.1176C19.7813 27.0905 20.525 26.9463 21.2339 26.6901C21.3952 26.6357 21.7409 26.4025 21.7256 26.8689C21.6718 28.571 21.9176 30.2965 21.4797 31.983C21.0995 33.4839 20.2242 34.8084 18.9986 35.7374C17.773 36.6664 16.2705 37.1442 14.74 37.0916C13.2094 37.039 11.7425 36.4592 10.582 35.4483C9.42154 34.4373 8.63702 33.0557 8.35835 31.5322C8.08949 29.6247 8.08949 27.6882 8.35835 25.7807C8.47627 25.0423 8.75985 24.341 9.18732 23.7307C9.6148 23.1203 10.1748 22.6172 10.8244 22.2599Z" fill="#FFDDB5"/>
<path d="M12.5145 18.5603C12.5931 18.6277 12.6858 18.676 12.7857 18.7016C12.8855 18.7272 12.9899 18.7294 13.0907 18.7079C15.4766 18.437 17.8922 18.6753 20.1814 19.4075C20.9497 19.6329 21.0572 19.5707 20.9497 18.7546C20.8882 18.0784 20.7653 17.4022 20.6578 16.6172C21.7041 17.3323 22.4683 18.3971 22.8165 19.6251C23.3657 21.4135 23.4739 23.3107 23.1315 25.1512C23.1315 25.4387 22.9624 25.5476 22.6782 25.5553C22.3939 25.5631 22.3863 25.3455 22.3632 25.1356C22.2817 24.3782 22.0981 23.6355 21.8178 22.9283C21.7025 22.6563 21.6334 22.2288 21.2032 22.4153C20.773 22.6019 21.0342 22.905 21.1341 23.1926C21.3711 23.8308 21.5411 24.4925 21.6411 25.1667C21.7102 25.5787 21.6411 25.7652 21.2339 25.9439C19.4109 26.6108 17.4081 26.569 15.6139 25.8265C13.8197 25.0841 12.362 23.6939 11.5235 21.9257C11.27 21.3194 10.9857 21.335 10.5248 21.6148C9.22169 22.3646 8.23716 23.5737 7.75915 25.0113C7.65928 25.3144 7.60551 25.6952 7.11384 25.5942C6.62217 25.4931 6.76044 25.1434 6.71435 24.817C6.29271 22.5767 6.63678 20.2579 7.69001 18.2416C8.07127 17.5704 8.59627 16.9941 9.22648 16.555C9.11892 17.3322 9.0421 17.9695 8.94223 18.5913C8.78859 19.5007 8.94222 19.6561 9.79496 19.3686C10.3097 19.2053 10.9396 19.2598 11.293 18.7079C11.6794 18.5477 12.1016 18.4966 12.5145 18.5603Z" fill="#A7A9AC"/>
<path d="M12.5145 18.5603C12.1103 18.5072 11.6994 18.5635 11.3237 18.7235C11.1931 18.195 10.7936 18.3504 10.5094 18.4592C9.74116 18.7701 9.6797 18.5214 9.8103 17.7908C10.0869 16.2364 10.2789 14.6197 10.471 13.0342C10.4701 12.8819 10.501 12.7312 10.5618 12.5919C10.6225 12.4526 10.7116 12.3279 10.8233 12.2259C10.935 12.1239 11.0668 12.0469 11.21 12C11.3531 11.9531 11.5045 11.9374 11.6541 11.9538C13.8666 11.9538 16.0791 11.9538 18.2916 11.9538C18.4353 11.9389 18.5806 11.9534 18.7187 11.9965C18.8567 12.0396 18.9848 12.1105 19.0953 12.2048C19.2057 12.2991 19.2962 12.4149 19.3614 12.5454C19.4266 12.6759 19.4651 12.8183 19.4747 12.9642C19.7051 14.6845 19.9433 16.3996 20.1891 18.1095C20.2506 18.5603 20.0662 18.6613 19.6744 18.5447C17.618 17.9712 15.4782 17.7661 13.3519 17.9385C12.9524 17.9696 12.453 17.8919 12.5145 18.5603Z" fill="#70C6B9"/>
<path d="M18.7833 40.8512L14.9421 47.31L11.2315 41.2709C11.1393 41.1155 10.9626 40.9523 11.1778 40.8046C11.2601 40.7397 11.3615 40.7044 11.4658 40.7044C11.5702 40.7044 11.6716 40.7397 11.7539 40.8046C12.3346 41.2003 12.9795 41.4896 13.6591 41.6595C15.0934 41.9864 16.5973 41.7296 17.846 40.9445C18.1379 40.8357 18.4145 40.5792 18.7833 40.8512Z" fill="#70C6B9"/>
<path d="M15.6028 50.2946C13.5055 48.6235 11.3929 46.9602 9.30329 45.2736C9.15994 45.1779 9.03844 45.0522 8.94696 44.9051C8.85548 44.758 8.79611 44.5928 8.77284 44.4206C8.74956 44.2485 8.76293 44.0733 8.81201 43.9067C8.86109 43.7401 8.94477 43.5861 9.05745 43.4549C9.48766 42.771 9.9486 42.1025 10.4479 41.3486C11.1317 42.4523 11.8 43.5093 12.4454 44.5819C13.5516 46.4395 14.8038 48.2193 15.7641 50.1702L15.6028 50.2946Z" fill="#FFDDB5"/>
<path d="M6.89103 33.8562C6.89103 33.079 6.89103 32.3017 6.89103 31.5245C6.89103 31.2447 6.61445 30.7473 7.14453 30.6928C7.67461 30.6384 7.54403 31.2291 7.59012 31.5089C7.78226 32.705 8.2537 33.8374 8.96526 34.8122C9.65383 35.7761 10.5739 36.5465 11.6387 37.0506C12.0074 37.2293 12.1764 37.4392 12.0919 37.8278C12.0074 38.2164 11.631 38.0688 11.3928 38.0765C10.3481 38.0765 9.30328 38.0765 8.26617 38.0765C8.08346 38.0978 7.89835 38.0779 7.72418 38.0181C7.55 37.9584 7.39108 37.8603 7.25885 37.731C7.12662 37.6017 7.02437 37.4443 6.95944 37.2702C6.89451 37.0961 6.86851 36.9096 6.88334 36.7242C6.89102 35.7604 6.89103 34.8122 6.89103 33.8562Z" fill="#A7A9AC"/>
<path d="M23.0239 34.0349C23.0239 34.9365 23.0239 35.8303 23.0239 36.7241C23.0472 36.9022 23.0301 37.0833 22.9739 37.2537C22.9176 37.4241 22.8237 37.5793 22.6993 37.7074C22.5748 37.8356 22.4232 37.9333 22.2558 37.9932C22.0884 38.0532 21.9097 38.0737 21.7332 38.0532C20.6116 38.0532 19.49 38.0532 18.3684 38.0532C18.1763 38.0532 17.8614 38.2009 17.846 37.7967C17.846 37.5169 17.7922 37.2527 18.161 37.0817C19.0151 36.6871 19.7829 36.1243 20.4196 35.4262C21.5099 34.2435 22.2012 32.7413 22.3939 31.1358C22.3939 30.8794 22.3939 30.5763 22.7857 30.6307C23.1775 30.6851 23.0085 30.9882 23.0162 31.1903C23.0239 32.1385 23.0239 33.0867 23.0239 34.0349Z" fill="#A7A9AC"/>
<path d="M19.3517 41.3021C19.8741 42.0793 20.3888 42.8565 20.8344 43.6338C20.9861 43.883 21.0403 44.1807 20.9863 44.4682C20.9323 44.7558 20.774 45.0126 20.5425 45.1882C19.1289 46.3618 17.6924 47.5199 16.2634 48.6391C16.1482 48.7324 15.9792 48.9889 15.8255 48.7168C15.6719 48.4448 15.2878 48.165 15.5874 47.6754C16.4632 46.2763 17.2775 44.8384 18.1149 43.4161L19.3517 41.3021Z" fill="#FFDDB5"/>
<path d="M14.9651 41.1C14.4196 41.1139 13.876 41.0297 13.3595 40.8513C12.3993 40.5093 12.3685 40.4704 12.7373 39.53C12.8674 39.0493 12.8988 38.5467 12.8295 38.0532C12.8295 37.6335 12.937 37.4936 13.3442 37.5947C14.4099 37.8511 15.5203 37.8511 16.5861 37.5947C16.9318 37.5092 17.1008 37.5947 17.0778 37.9988C16.9409 38.7019 17.0845 39.4311 17.4772 40.0274C17.7231 40.315 17.4773 40.3772 17.2698 40.4704C16.5661 40.8729 15.7735 41.0894 14.9651 41.1Z" fill="#FFDDB5"/>
<path d="M22.4093 28.1047C22.4362 27.7399 22.4362 27.3736 22.4093 27.0088C22.3171 26.3404 22.6551 26.2316 23.1775 26.3559C23.5979 26.4514 23.9707 26.6958 24.2285 27.045C24.4863 27.3942 24.6122 27.8252 24.5834 28.2601C24.5304 28.7039 24.3253 29.1148 24.0039 29.4215C23.6825 29.7282 23.2651 29.9113 22.8241 29.939C22.5092 29.939 22.417 29.8068 22.4247 29.5192C22.4247 29.0451 22.4247 28.5788 22.4247 28.1047H22.4093Z" fill="#FFDDB5"/>
<path d="M7.50561 28.1202C7.50561 28.5943 7.50561 29.0684 7.50561 29.5425C7.50561 29.7835 7.4672 29.9311 7.16759 29.9467C6.71025 29.9216 6.27668 29.7326 5.94449 29.4136C5.61229 29.0946 5.40317 28.6664 5.35458 28.2056C5.34684 27.7599 5.49779 27.3263 5.77986 26.9839C6.06193 26.6414 6.45632 26.413 6.89104 26.3403C7.2982 26.2859 7.52866 26.3403 7.48257 26.8611C7.46718 27.2809 7.47487 27.7012 7.50561 28.1202Z" fill="#FFDDB5"/>
<path d="M15.7641 50.1702C15.7641 50.248 15.7641 50.349 15.7641 50.3879C15.7641 50.4267 15.6489 50.3879 15.6105 50.2946L15.7641 50.1702Z" fill="#FFDDB5"/>
<path d="M46.0093 0.68396C49.6033 0.685054 53.087 1.9395 55.8734 4.23591C56.7492 4.95873 56.8952 5.75152 56.319 6.48212C55.7428 7.21271 54.9131 7.20494 54.0143 6.48212C49.2052 2.66591 43.3897 2.65037 38.4884 6.48212C38.2504 6.72969 37.9378 6.89005 37.5997 6.9379C37.2617 6.98575 36.9175 6.91834 36.6216 6.74635C36.3715 6.59827 36.1734 6.37485 36.0549 6.10731C35.9365 5.83976 35.9036 5.54145 35.9609 5.25408C36.0312 4.86085 36.2486 4.51014 36.5678 4.27476C38.8127 2.36373 41.5654 1.16594 44.4806 0.831636C44.9866 0.75022 45.4972 0.700898 46.0093 0.68396Z" fill="#FACB62"/>
<path d="M58.3625 22.6951C58.3625 20.9541 58.3625 19.2131 58.3625 17.4721C58.3625 16.9514 58.5008 16.2907 59.0923 16.2596C59.6839 16.2285 60.5673 15.8399 61.0436 16.6794C61.1835 16.931 61.2575 17.2145 61.2587 17.5032C61.2587 21.0085 61.2587 24.4983 61.2587 28.0347C61.2667 28.2392 61.2321 28.4431 61.1571 28.6333C61.0822 28.8234 60.9687 28.9954 60.8238 29.1383C60.679 29.2812 60.506 29.3918 60.3163 29.4627C60.1265 29.5337 59.9241 29.5635 59.7222 29.5503C59.5275 29.5357 59.3377 29.4818 59.1639 29.3917C58.9901 29.3015 58.836 29.1771 58.7106 29.0256C58.5853 28.8742 58.4913 28.6988 58.4341 28.5099C58.3769 28.321 58.3578 28.1224 58.3778 27.9259C58.3778 27.7626 58.3778 27.6072 58.3778 27.444L58.3625 22.6951Z" fill="#FBB040"/>
<path d="M31.267 22.6951C31.267 21.0086 31.267 19.322 31.267 17.6354C31.267 16.454 31.4821 16.283 32.8035 16.2908C33.8329 16.2908 34.1018 16.5706 34.1018 17.682C34.1018 21.0785 34.1018 24.475 34.1018 27.8793C34.1018 28.9363 33.541 29.5659 32.6575 29.5503C31.774 29.5348 31.2516 28.8897 31.2516 27.8326C31.2516 26.1227 31.2516 24.4051 31.2516 22.6951H31.267Z" fill="#FBB040"/>
<path d="M62.0039 22.6718C62.0039 21.2495 62.0039 19.8271 62.0039 18.4048C62.0039 17.8063 62.2728 17.6276 62.8182 17.8763C63.3148 18.0314 63.7414 18.3589 64.0225 18.8012C64.3036 19.2435 64.4213 19.772 64.3547 20.2935C64.3086 22.0578 64.3547 23.8221 64.3547 25.5864C64.3838 26.1052 64.2165 26.6157 63.8869 27.0142C63.5572 27.4127 63.09 27.6692 62.5801 27.7316C62.1806 27.8015 62.0193 27.7316 62.0269 27.2575C62.0193 25.7263 62.0039 24.2029 62.0039 22.6718Z" fill="#FBB040"/>
<path d="M30.5218 22.8195C30.5218 24.2651 30.5218 25.7186 30.5218 27.172C30.5218 27.7782 30.2913 27.8249 29.8227 27.7161C29.3573 27.6212 28.9397 27.3636 28.6433 26.9883C28.3469 26.6131 28.1906 26.1443 28.2017 25.6642C28.2017 23.7366 28.2017 21.8169 28.2017 19.8893C28.1899 19.4093 28.3449 18.9403 28.6397 18.5639C28.9345 18.1876 29.3504 17.9277 29.815 17.8297C30.2683 17.7286 30.5372 17.7675 30.5218 18.3815C30.4911 19.8582 30.5218 21.3427 30.5218 22.8195Z" fill="#FBB040"/>
<path d="M35.4999 6.45105C35.6228 7.08061 36.3911 7.14281 36.2682 7.64024C36.1452 8.13766 35.7611 8.35526 35.4999 8.72833C34.291 10.5454 33.5757 12.6523 33.4257 14.8374C33.4084 14.9848 33.3556 15.1257 33.272 15.2478C33.1884 15.3698 33.0766 15.4693 32.9463 15.5376C32.8159 15.6058 32.671 15.6407 32.5243 15.6392C32.3775 15.6378 32.2333 15.5999 32.1044 15.5291C31.9277 15.4203 31.9968 15.2571 32.0045 15.1094C32.1834 11.9098 33.4136 8.86243 35.4999 6.45105Z" fill="#FFDDB5"/>
<path d="M56.1654 7.5857L56.4342 7.36032C57.2562 6.66858 57.2562 6.66854 57.9169 7.60899C59.431 9.78148 60.3266 12.3329 60.5059 14.9849C60.5059 15.2337 60.575 15.529 60.2216 15.4746C59.8682 15.4202 59.2767 15.8244 59.1307 15.1326C58.9848 14.4409 58.9463 13.6714 58.7927 12.9563C58.3368 10.9855 57.4378 9.14765 56.1654 7.5857Z" fill="#FFDDB5"/>
<path d="M47.7225 34.7267C46.647 34.7655 45.7635 34.8277 45.4178 33.7396C45.3446 33.5369 45.319 33.3197 45.3431 33.1053C45.3672 32.8908 45.4402 32.685 45.5565 32.5041C45.6727 32.3231 45.829 32.172 46.013 32.0627C46.1969 31.9534 46.4034 31.8889 46.6162 31.8742C47.2661 31.8354 47.9177 31.8354 48.5675 31.8742C48.7424 31.8818 48.9138 31.9254 49.0714 32.0025C49.2289 32.0796 49.3692 32.1884 49.4836 32.3224C49.598 32.4563 49.6841 32.6125 49.7367 32.7814C49.7892 32.9503 49.807 33.1282 49.789 33.3043C49.7994 33.4806 49.7752 33.6571 49.7177 33.8239C49.6603 33.9906 49.5707 34.1441 49.4543 34.2757C49.3379 34.4072 49.1969 34.514 49.0394 34.5901C48.8819 34.6662 48.7111 34.7099 48.5368 34.7189C48.1911 34.75 47.8531 34.7267 47.7225 34.7267Z" fill="#FBB040"/>
<path d="M49.6584 42.841C45.8173 42.841 41.9377 42.841 38.0812 42.841C37.4282 42.841 37.1747 42.6467 37.2515 41.9783C37.2899 41.6441 37.2054 41.2865 37.2515 40.9601C37.277 40.6659 37.4148 40.3934 37.6357 40.2004C37.8566 40.0074 38.1432 39.9091 38.4346 39.9264C39.3488 39.9264 40.2553 39.9264 41.1695 39.9264C41.6688 39.9264 41.8302 40.0896 41.7687 40.5637C41.7687 40.7191 41.7687 40.8824 41.7687 41.0378C41.7687 41.3176 41.7687 41.6285 42.1375 41.6207C42.5062 41.613 42.4524 41.271 42.4678 41.0067C42.5369 39.9342 42.5369 39.9341 43.6355 39.9341C44.5958 39.9341 45.5638 39.9341 46.5241 39.9341C47.008 39.9341 47.2308 40.0274 47.1924 40.587C47.1924 40.9446 46.9466 41.5974 47.5765 41.5741C48.2065 41.5508 47.8915 40.9445 47.8838 40.6026C47.8838 40.0818 48.0144 39.9108 48.5368 39.9264C49.6815 39.9264 50.8415 39.9264 51.9785 39.9264C52.4471 39.9264 52.6699 40.0352 52.5854 40.5326C52.5777 40.5842 52.5777 40.6365 52.5854 40.688C52.6392 41.0222 52.401 41.5897 52.9157 41.5974C53.4305 41.6052 53.3229 41.0067 53.2999 40.657C53.2461 40.0507 53.4765 39.8797 54.0681 39.9186C55.1667 39.9652 56.2652 39.973 57.3561 39.9186C57.9323 39.9186 58.1243 40.1052 58.0245 40.6337C58.0129 40.7396 58.0129 40.8464 58.0245 40.9523C58.0245 41.2321 57.986 41.613 58.4009 41.5974C58.8157 41.5819 58.7697 41.2011 58.7236 40.929C58.593 40.0974 58.931 39.7787 59.7299 39.9264H59.8068C62.0577 39.8564 62.0116 40.2062 62.0039 42.4524C62.0039 43.0197 61.5814 42.8177 61.3278 42.8177C58.1166 42.8177 54.9106 42.8177 51.7096 42.8177L49.6584 42.841Z" fill="#FFDDB5"/>
<path d="M36.852 61.8598C36.0223 61.8598 35.7381 61.5722 35.715 60.725C35.7035 60.6477 35.7035 60.5691 35.715 60.4918C35.7985 60.1305 35.7514 59.7509 35.5823 59.4216C35.4133 59.0923 35.1334 58.8351 34.7932 58.6964C33.6614 57.9845 32.8255 56.8789 32.4424 55.5875C32.3271 55.2955 32.3293 54.9694 32.4484 54.6789C32.5676 54.3885 32.7942 54.1567 33.08 54.033C33.2253 53.9711 33.3815 53.9399 33.5391 53.9414C33.6968 53.943 33.8524 53.9772 33.9964 54.0421C34.1404 54.1069 34.2698 54.201 34.3764 54.3184C34.4831 54.4358 34.5648 54.5741 34.6165 54.7248C34.8834 55.4381 35.3062 56.081 35.8533 56.6057C36.0102 56.7602 36.1979 56.8789 36.4039 56.9541C36.6098 57.0292 36.8293 57.0589 37.0475 57.0412C37.2657 57.0235 37.4777 56.9589 37.6692 56.8516C37.8608 56.7444 38.0274 56.5969 38.158 56.4191C38.5533 55.9298 38.8767 55.3853 39.1183 54.8025C39.5101 54.0253 40.0863 53.7455 40.7393 54.0797C40.893 54.1512 41.0297 54.2554 41.14 54.3853C41.2503 54.5151 41.3316 54.6676 41.3782 54.8321C41.4249 54.9967 41.4359 55.1695 41.4105 55.3388C41.3851 55.5081 41.3238 55.6698 41.231 55.8129C40.7261 57.2393 39.7122 58.4231 38.3885 59.1317C38.2679 59.1766 38.1662 59.2622 38.1004 59.3739C38.0347 59.4857 38.0089 59.617 38.0274 59.7457C38.0274 60.0877 38.0274 60.4296 38.0274 60.7716C38.0197 61.611 37.7509 61.8675 36.852 61.8598Z" fill="#70C6B9"/>
<path d="M58.2396 53.6444C58.5161 55.0901 58.0321 56.0616 57.0334 56.4891C56.6732 56.6477 56.278 56.7074 55.8877 56.6623C55.4974 56.6172 55.1257 56.4688 54.8101 56.2321C54.4945 55.9954 54.2462 55.6788 54.09 55.314C53.9339 54.9493 53.8755 54.5494 53.9208 54.1546C53.9661 53.7598 54.1134 53.384 54.3479 53.0651C54.5824 52.7462 54.8958 52.4955 55.2566 52.3382C55.6174 52.1809 56.0127 52.1225 56.4029 52.169C56.7931 52.2154 57.1642 52.3651 57.479 52.6029C57.8939 52.906 58.0782 53.1936 57.5635 53.5667C57.4236 53.6862 57.2926 53.8161 57.1717 53.9553C56.8721 54.2506 56.6186 54.6859 56.2652 54.8025C55.9118 54.9191 55.643 54.3595 55.3203 54.1263C54.9976 53.8931 54.9208 53.8465 54.7134 54.0797C54.506 54.3129 54.6519 54.476 54.8056 54.6393L54.9208 54.7481C56.4112 56.2404 55.981 56.1394 57.31 54.8181C57.64 54.4436 57.9503 54.0519 58.2396 53.6444Z" fill="#FACB62"/>
<path d="M51.3485 47.2556C51.5065 47.7909 51.458 48.3668 51.2128 48.8673C50.9675 49.3678 50.5439 49.7557 50.0272 49.9526C49.5385 50.1441 48.9989 50.1565 48.5022 49.9875C48.0054 49.8186 47.5828 49.479 47.3076 49.0277C47.0324 48.5769 46.9261 48.0413 47.0078 47.5179C47.0896 46.9946 47.354 46.5183 47.7532 46.1753C48.1384 45.8342 48.6273 45.6366 49.1388 45.6154C49.6502 45.5942 50.1535 45.7506 50.565 46.0587C50.9337 46.3385 51.1335 46.595 50.6418 46.9447C50.4863 47.0852 50.34 47.2358 50.2039 47.3955C49.9043 47.6909 49.6508 48.1339 49.2974 48.2349C48.944 48.336 48.6828 47.7919 48.3678 47.551C48.1911 47.4188 47.9991 47.2945 47.8147 47.4733C47.7763 47.5096 47.7457 47.5535 47.7248 47.6023C47.7039 47.6511 47.6931 47.7038 47.6931 47.7569C47.6931 47.8101 47.7039 47.8627 47.7248 47.9115C47.7457 47.9603 47.7763 48.0043 47.8147 48.0406C48.1527 48.3981 48.5061 48.7479 48.8595 49.1054C49.2129 49.463 49.428 49.1987 49.6277 48.9733C50.2116 48.437 50.734 47.8929 51.3485 47.2556Z" fill="#FACB62"/>
<path d="M49.2666 58.8053C49.8424 58.8279 50.3888 59.0678 50.7984 59.4778C51.2079 59.8878 51.4508 60.4382 51.4791 61.0204C51.4791 61.6388 51.2363 62.2319 50.8041 62.6692C50.3719 63.1064 49.7857 63.3521 49.1745 63.3521C48.5807 63.326 48.0198 63.0689 47.609 62.6344C47.1981 62.2 46.9691 61.6217 46.9696 61.0204C46.9857 60.4191 47.2363 59.8487 47.6667 59.4337C48.0971 59.0187 48.6722 58.7928 49.2666 58.8053ZM50.5419 61.0592C50.5382 60.7153 50.4035 60.3861 50.166 60.14C49.9285 59.8939 49.6064 59.7499 49.2666 59.7379C48.914 59.7316 48.5729 59.8658 48.3171 60.1115C48.0613 60.3572 47.9112 60.6948 47.8992 61.0515C47.9117 61.3954 48.0498 61.7224 48.2868 61.9693C48.5237 62.2162 48.8427 62.3655 49.1821 62.3883C49.5355 62.3905 49.8757 62.2526 50.1298 62.0042C50.3839 61.7558 50.5319 61.4166 50.5419 61.0592Z" fill="#FACB62"/>
<path d="M55.0898 61.0359C55.0898 59.4814 55.0898 59.4814 56.6263 59.4814C58.1627 59.4814 58.1166 59.4814 58.1166 61.0359C58.1166 62.5904 58.1167 62.5904 56.5418 62.5904C55.0898 62.5981 55.0898 62.5981 55.0898 61.0359Z" fill="#FFDDB5"/>
<path d="M58.109 47.7452C58.109 49.2997 58.109 49.2997 56.5725 49.2997C55.0361 49.2997 55.0745 49.2997 55.0745 47.8074C55.0745 46.1675 55.0745 46.1675 56.6647 46.1675C58.109 46.1597 58.109 46.1597 58.109 47.7452Z" fill="#FFDDB5"/>
<path d="M41.7226 16.2286H44.5343C44.8032 16.2286 45.1028 16.2286 45.1105 16.5939C45.1182 16.9592 44.8493 16.9903 44.5651 16.9903H41.2002C41.0835 17.0094 40.9638 16.9912 40.8577 16.9383C40.7517 16.8853 40.6647 16.8003 40.6087 16.6949C40.5011 16.4462 40.7085 16.2986 40.8314 16.1509C41.8455 14.9462 42.8135 13.7026 43.9044 12.5601C44.148 12.2574 44.3226 11.9039 44.4155 11.525C44.5085 11.1461 44.5176 10.7511 44.4421 10.3683C44.449 10.3428 44.449 10.316 44.4421 10.2905C43.9505 9.319 43.0439 9.6843 42.2911 9.66876C42.1598 9.65255 42.0265 9.66747 41.9019 9.71236C41.7772 9.75724 41.6646 9.83088 41.573 9.92739C41.4813 10.0239 41.4131 10.1406 41.3737 10.2684C41.3344 10.3962 41.3249 10.5315 41.3462 10.6636C41.3462 10.9668 41.3462 11.332 40.9774 11.3243C40.6087 11.3165 40.5856 10.9201 40.5933 10.6014C40.5928 10.47 40.6109 10.3391 40.6471 10.2128C40.9313 9.12471 41.8225 8.72833 43.6201 8.90709C44.0487 8.94089 44.4478 9.14084 44.7341 9.46525C45.0204 9.78966 45.1718 10.2134 45.1566 10.6481C45.2237 11.1001 45.1841 11.5616 45.0413 11.9952C44.8984 12.4288 44.6563 12.8221 44.3346 13.143C43.4357 14.0601 42.6675 15.1016 41.7226 16.2286Z" fill="#231F20"/>
<path d="M51.1949 12.9487V16.3529C51.1949 16.6327 51.1949 16.9436 50.8492 16.9436C50.5035 16.9436 50.5035 16.6172 50.4958 16.3452C50.4958 15.6612 50.4958 14.9772 50.4958 14.2933C50.4958 13.7881 50.3806 13.586 49.8505 13.6093C49.0208 13.6093 48.1834 13.6093 47.3461 13.6093C46.8467 13.6093 46.5778 13.485 46.5778 12.8943C46.5778 11.7906 46.5778 10.6869 46.5778 9.57547C46.5778 9.29566 46.5241 8.90703 46.9312 8.92257C47.3384 8.93812 47.2385 9.34229 47.2385 9.61432C47.2385 10.5081 47.2385 11.4097 47.2385 12.3036C47.2385 12.7621 47.3768 12.8865 47.8147 12.8709C48.5138 12.8321 49.2205 12.8709 49.9273 12.8709C50.3345 12.8709 50.4651 12.7466 50.4497 12.3346C50.4497 11.4952 50.4497 10.648 50.4497 9.80863C50.4497 9.48219 50.273 8.93036 50.8185 8.93813C51.3639 8.9459 51.1258 9.45888 51.1334 9.76977C51.1334 10.8268 51.1334 11.8838 51.1334 12.9331L51.1949 12.9487Z" fill="#231F20"/>
<path d="M47.953 22.5397H45.3563C45.0798 22.5397 44.7955 22.4931 44.7802 22.1589C44.7648 21.8246 45.0798 21.778 45.3487 21.778H48.314C48.944 21.778 49.0131 22.0889 48.7519 22.5552L45.1566 29.4415C45.0183 29.698 44.8647 30.0244 44.519 29.8068C44.1733 29.5891 44.4037 29.3482 44.519 29.1151L47.953 22.5397Z" fill="#231F20"/>
<path d="M46.5701 19.0421H53.1385C53.4228 19.0421 53.853 18.9178 53.8376 19.4152C53.8222 19.9126 53.4151 19.7183 53.1616 19.7183H40.0171C39.7329 19.7183 39.295 19.8349 39.3104 19.3608C39.3257 18.8867 39.7175 19.0421 39.9941 19.0421H46.5701Z" fill="#231F20"/>
<path d="M50.5419 61.0592C50.5319 61.4166 50.3839 61.7558 50.1298 62.0042C49.8757 62.2526 49.5355 62.3904 49.1821 62.3883C48.8427 62.3654 48.5237 62.2161 48.2868 61.9692C48.0498 61.7223 47.9117 61.3953 47.8992 61.0514C47.9112 60.6947 48.0613 60.3572 48.3171 60.1115C48.5729 59.8657 48.914 59.7316 49.2666 59.7379C49.6064 59.7499 49.9285 59.8939 50.166 60.14C50.4035 60.3861 50.5382 60.7153 50.5419 61.0592ZM49.7737 60.9581C49.7737 60.6162 49.5125 60.4529 49.1898 60.4607C49.1118 60.4585 49.0343 60.4739 48.9629 60.5055C48.8914 60.5371 48.8277 60.5843 48.7764 60.6437C48.725 60.7031 48.6872 60.7732 48.6658 60.849C48.6443 60.9249 48.6396 61.0046 48.652 61.0825C48.6468 61.1608 48.6588 61.2392 48.6872 61.3122C48.7157 61.3852 48.7598 61.4509 48.8165 61.5044C48.8731 61.558 48.9408 61.5982 49.0147 61.622C49.0886 61.6458 49.1668 61.6527 49.2436 61.6421C49.6277 61.6188 49.789 61.3934 49.7813 60.9581H49.7737Z" fill="#231F20"/>
<path d="M49.7814 60.9582C49.7814 61.3934 49.6277 61.6188 49.2513 61.6421C49.1745 61.6527 49.0963 61.6458 49.0224 61.622C48.9485 61.5982 48.8808 61.558 48.8241 61.5045C48.7675 61.4509 48.7234 61.3852 48.6949 61.3122C48.6665 61.2393 48.6545 61.1608 48.6597 61.0825C48.6473 61.0046 48.652 60.9249 48.6735 60.849C48.6949 60.7732 48.7327 60.7031 48.7841 60.6437C48.8355 60.5843 48.8991 60.5371 48.9706 60.5055C49.0421 60.4739 49.1195 60.4586 49.1975 60.4607C49.5202 60.4529 49.7967 60.6162 49.7814 60.9582Z" fill="#FFDDB5"/>
</g>
<defs>
<clipPath id="clip0_186_4244">
<rect width="65" height="71" fill="white"/>
</clipPath>
</defs>
</svg>
