<svg width="70" height="56" viewBox="0 0 70 56" fill="none" xmlns="http://www.w3.org/2000/svg">
<g clip-path="url(#clip0_186_4026)">
<path d="M61.324 26.6951C60.7937 26.7489 60.8629 27.148 60.9167 27.4627C61.0624 28.6003 61.0933 29.7498 61.0089 30.8936C60.9874 32.4557 60.7416 34.0066 60.2789 35.4989C60.1866 35.4298 60.0791 35.3607 59.9868 35.2763C58.624 34.048 56.9902 33.1583 55.2182 32.6795C53.4463 32.2007 51.5862 32.1463 49.7892 32.5208C48.2156 32.8379 46.7228 33.4707 45.4012 34.3808C44.0795 35.2909 42.9565 36.4594 42.1001 37.8156C41.2438 39.1718 40.6719 40.6875 40.419 42.2709C40.1661 43.8542 40.2376 45.4724 40.6291 47.0274C41.1956 49.1787 42.3318 51.1381 43.9181 52.6995C42.4242 53.0909 40.9037 53.3731 39.3688 53.5438C39.0229 53.5438 38.6771 53.5438 38.3236 53.5975C38.4299 52.2672 38.4479 50.9313 38.3774 49.5986C38.2314 47.0197 37.8088 44.4561 37.7319 41.8695C37.6845 41.601 37.6942 41.3256 37.7604 41.0611C37.8266 40.7966 37.9478 40.549 38.1162 40.3344C38.3825 39.9927 38.5642 39.5929 38.6464 39.1677C39.3226 36.819 38.9692 34.4396 38.8693 32.0679C38.8693 31.8453 38.7617 31.6458 38.4927 31.6842C38.2237 31.7225 38.2007 31.8914 38.2084 32.091C38.2161 32.2905 38.2084 32.467 38.2084 32.6513C38.3429 34.1235 38.3737 35.6034 38.3006 37.08C38.3123 38.1687 38.0022 39.2366 37.4092 40.1502C37.3093 40.2883 37.1786 40.5109 36.9865 40.4495C36.7944 40.3881 36.8789 40.1271 36.8789 39.9583C36.8789 37.4791 36.8789 34.9923 36.8789 32.5131C36.8791 32.3076 36.8637 32.1023 36.8328 31.8991C36.8197 31.8272 36.78 31.7629 36.7217 31.7188C36.6633 31.6748 36.5905 31.6542 36.5177 31.6611C36.4446 31.6626 36.3746 31.6908 36.3208 31.7402C36.267 31.7897 36.2332 31.8571 36.2257 31.9298C36.2142 32.0933 36.2142 32.2575 36.2257 32.421C36.2257 34.872 36.2257 37.3154 36.2257 39.751C36.2257 39.9966 36.3717 40.3958 36.1028 40.4649C35.8338 40.5339 35.6647 40.1578 35.511 39.9122C35.4471 39.8063 35.3906 39.696 35.342 39.5822C34.919 38.5751 34.7197 37.4883 34.7579 36.3969C34.7579 35.023 34.8425 33.6491 34.8809 32.2752C34.8809 32.0372 34.9501 31.7149 34.6196 31.6765C34.2892 31.6381 34.2584 31.9912 34.2354 32.2368C34.0716 33.7892 34.0228 35.3516 34.0894 36.9111C34.0443 38.2876 34.4638 39.6392 35.2805 40.7489C35.3693 40.8878 35.4047 41.0541 35.3804 41.217C35.3804 41.7543 35.3804 42.2839 35.3266 42.8212C35.1038 46.3749 34.4121 49.9057 34.7579 53.4901C32.7626 53.3383 30.8002 52.8961 28.9329 52.1776C25.364 50.8619 22.1624 48.7117 19.596 45.9068C18.4193 44.6473 17.3882 43.2595 16.5221 41.7697C16.3997 41.579 16.3307 41.359 16.3223 41.1326C16.3863 40.3976 16.4043 39.6593 16.3761 38.9221C16.3761 38.6918 16.3761 38.4232 16.0687 38.4232C15.7613 38.4232 15.7152 38.6842 15.7152 38.9451C15.7152 39.6052 15.7152 40.2576 15.7152 40.91C15.4001 38.9374 14.2936 37.2105 13.9477 35.2532C13.9477 35.1151 13.9093 34.9693 13.8939 34.8311C14.3473 34.8311 14.8008 34.8311 15.2465 34.8311C15.6922 34.8311 15.7537 34.9692 15.7306 35.3377C15.7076 35.7061 15.7306 36.1052 15.7306 36.5043C15.7306 36.7346 15.7998 36.9265 16.0534 36.9342C16.3069 36.9418 16.3915 36.7269 16.4069 36.512C16.4222 36.2971 16.4069 36.1052 16.4069 35.898C16.4069 34.9078 16.4068 34.9078 17.3751 34.8234C17.5769 34.8277 17.7767 34.7819 17.9564 34.6903C18.1362 34.5986 18.2905 34.4639 18.4054 34.2982C18.5204 34.1325 18.5924 33.9409 18.6151 33.7405C18.6378 33.5402 18.6105 33.3374 18.5355 33.1502C18.1096 32.1022 17.5007 31.138 16.7373 30.3026C15.8014 29.4085 14.6367 28.7897 13.3714 28.5142C13.4724 27.2252 13.652 25.9436 13.9093 24.6765C14.1015 23.6556 14.5087 22.6962 14.7316 21.6831H23.2386C24.9215 21.6831 25.713 22.4506 25.713 24.1776V46.3443C25.713 46.659 25.713 46.966 25.713 47.273C25.713 47.58 25.713 47.7181 25.959 47.7642C26.2049 47.8102 26.3355 47.58 26.3662 47.3421C26.475 47.3931 26.5882 47.4342 26.7044 47.4649C27.9339 47.5877 27.9339 47.5877 27.9339 46.3596V24.0471C27.9339 23.8168 27.9339 23.5942 27.98 23.3716C28.0547 23.6203 28.0756 23.8819 28.0415 24.1392C28.0415 31.7532 28.0415 39.3673 28.0415 46.9813C28.0299 47.1448 28.0299 47.309 28.0415 47.4725C28.0425 47.5088 28.0506 47.5446 28.0655 47.5777C28.0803 47.6109 28.1015 47.6408 28.1279 47.6657C28.1543 47.6906 28.1854 47.7102 28.2194 47.7231C28.2533 47.7361 28.2895 47.7422 28.3258 47.7412C28.3998 47.7479 28.4735 47.7263 28.532 47.6806C28.5906 47.635 28.6295 47.5688 28.6409 47.4956C28.6526 47.3525 28.6526 47.2088 28.6409 47.0657C28.6409 39.2675 28.6409 31.4692 28.6409 23.671C28.6465 23.3825 28.6208 23.0943 28.5641 22.8114C28.3353 21.5988 27.6795 20.508 26.7154 19.7365C25.7512 18.965 24.5424 18.5637 23.3077 18.6052H16.1609C16.8424 17.1667 17.719 15.8289 18.7661 14.6293C19.9737 13.1608 21.3599 11.8484 22.8927 10.7225C23.0122 10.6611 23.1159 10.5732 23.1958 10.4653C23.2758 10.3575 23.3298 10.2328 23.3538 10.1008C23.4529 10.2933 23.593 10.4618 23.7643 10.5944C23.9355 10.727 24.1338 10.8205 24.3452 10.8684C24.9292 10.9221 25.3749 11.0065 25.006 11.7741C24.9061 11.9813 25.006 12.2499 25.1367 12.4802C25.4594 13.2477 26.1434 13.3782 26.858 13.432C29.9704 13.6776 33.0827 13.9155 36.195 14.1995C37.199 14.341 38.2207 14.1206 39.0768 13.5778C39.2466 13.4576 39.4532 13.4006 39.6608 13.4166C41.1593 13.4627 42.6578 13.5241 44.1563 13.5548C44.2776 13.5396 44.3999 13.573 44.4965 13.6479C44.593 13.7227 44.6559 13.8328 44.6712 13.9539C44.7942 14.4528 44.9479 14.944 45.0939 15.4352C45.578 17.0087 45.578 17.0087 43.9412 16.8475C43.7058 16.8144 43.4659 16.8382 43.2417 16.917C43.0175 16.9958 42.8156 17.1272 42.6529 17.3003C42.4902 17.4733 42.3715 17.6829 42.3068 17.9113C42.2421 18.1397 42.2334 18.3804 42.2813 18.6129C42.3735 19.035 42.2813 19.1502 41.9124 19.3267C41.7102 19.4306 41.5354 19.5808 41.4023 19.7649C41.2692 19.9491 41.1814 20.162 41.1462 20.3864C41.111 20.6108 41.1294 20.8403 41.1997 21.0563C41.2701 21.2723 41.3905 21.4686 41.5512 21.6293C41.8202 21.9133 42.3197 21.921 42.4811 22.1666C42.6425 22.4122 42.2659 22.8114 42.3428 23.1951C42.4503 23.7401 42.9883 24.0241 43.1573 24.4309C43.3264 24.8377 42.873 25.421 43.1573 25.966C43.29 26.2454 43.5004 26.4809 43.7634 26.6442C44.0264 26.8075 44.3308 26.8918 44.6405 26.887C46.7691 27.0328 48.8978 27.2094 51.0342 27.3552C51.8201 27.444 52.61 27.2268 53.2397 26.7488C53.4997 26.5522 53.7985 26.4128 54.1165 26.3401C54.4344 26.2673 54.7642 26.2627 55.084 26.3267C55.5758 26.3267 56.0676 26.3881 56.5595 26.4265L61.324 26.6951Z" fill="#A7A9AC"/>
<path d="M61.324 26.6952L56.5979 26.3805C56.106 26.3422 55.6142 26.3038 55.1224 26.2808C54.8026 26.2168 54.4728 26.2214 54.1549 26.2941C53.837 26.3669 53.5381 26.5062 53.2781 26.7029C52.6484 27.1809 51.8585 27.3981 51.0726 27.3093C48.9362 27.1634 46.8075 26.9869 44.6789 26.8411C44.3692 26.8459 44.0648 26.7616 43.8018 26.5982C43.5388 26.4349 43.3284 26.1995 43.1957 25.92C42.9345 25.3827 43.3879 24.7994 43.1957 24.3849C43.0036 23.9705 42.4887 23.6941 42.3812 23.1492C42.3043 22.7654 42.7039 22.3816 42.5195 22.1207C42.335 21.8597 41.8586 21.8674 41.5896 21.5834C41.4289 21.4227 41.3085 21.2263 41.2381 21.0103C41.1678 20.7944 41.1494 20.5648 41.1846 20.3404C41.2198 20.1161 41.3076 19.9031 41.4407 19.719C41.5738 19.5348 41.7486 19.3847 41.9508 19.2808C42.2889 19.1042 42.4119 18.9891 42.3197 18.567C42.2718 18.3344 42.2805 18.0938 42.3452 17.8654C42.4099 17.6369 42.5286 17.4274 42.6913 17.2543C42.854 17.0813 43.0559 16.9498 43.2801 16.871C43.5043 16.7922 43.7442 16.7684 43.9796 16.8016C45.6164 16.9628 45.6164 16.9628 45.1323 15.3893C44.9863 14.8981 44.8326 14.4069 44.7096 13.908C44.6943 13.7869 44.6314 13.6768 44.5349 13.6019C44.4383 13.5271 44.316 13.4936 44.1947 13.5088C42.6962 13.5088 41.1977 13.4167 39.6992 13.3707C39.4917 13.3546 39.285 13.4117 39.1152 13.5319C38.2591 14.0747 37.2374 14.2951 36.2334 14.1536C33.1211 13.8926 30.0088 13.6547 26.8965 13.386C26.1818 13.3323 25.4978 13.2095 25.1751 12.4343C25.0752 12.204 24.9446 11.9354 25.0445 11.7281C25.4133 10.9606 24.9676 10.8761 24.3836 10.8224C24.1722 10.7746 23.974 10.6811 23.8027 10.5485C23.6314 10.4159 23.4913 10.2474 23.3923 10.0549C23.2926 9.81881 23.249 9.5629 23.265 9.30721C23.281 9.05152 23.3561 8.80302 23.4845 8.5812C23.3308 8.39699 23.1233 8.46607 22.9619 8.42002C22.6209 8.33597 22.319 8.13779 22.1065 7.85849C21.8939 7.57918 21.7836 7.2356 21.7938 6.88493C21.8146 6.5338 21.9611 6.20183 22.2066 5.94961C22.452 5.69738 22.7801 5.54172 23.131 5.51102C23.5229 5.51102 23.6996 5.44962 23.6458 4.95839C23.6168 4.73785 23.639 4.51359 23.7106 4.30297C23.7823 4.09236 23.9014 3.90102 24.0589 3.74374C24.2163 3.58645 24.4079 3.46743 24.6188 3.3959C24.8297 3.32436 25.0542 3.30224 25.275 3.3312C26.9579 3.45401 28.6332 3.6152 30.3162 3.74568C31.392 3.83011 32.4756 3.89917 33.5822 3.91452C32.9012 3.44407 32.1658 3.0575 31.392 2.7632C31.1951 2.70361 31.0133 2.60223 30.8592 2.466C30.705 2.32977 30.5822 2.16192 30.499 1.9739C30.4158 1.78587 30.3743 1.58212 30.3772 1.37657C30.3801 1.17103 30.4275 0.968534 30.516 0.782949C30.6382 0.480447 30.8688 0.234251 31.1629 0.0923516C31.457 -0.0495474 31.7935 -0.076979 32.1067 0.0154051C33.7589 0.552686 35.4265 1.07461 37.048 1.71167C38.3964 2.25535 39.5354 3.2155 40.2986 4.45181C40.375 4.59036 40.4858 4.70693 40.6204 4.79028C40.755 4.87363 40.9089 4.92094 41.0671 4.92768C46.057 5.43938 51.0418 5.96899 56.0215 6.5165C56.2905 6.5165 56.6286 6.5165 56.6056 6.91562C56.5825 7.31474 56.2136 7.25336 55.937 7.22265L43.995 5.91782C43.0651 5.81804 43.0651 5.81036 43.3187 6.68536C44.1179 9.44341 44.9222 12.1963 45.7317 14.9441C45.7591 15.0383 45.7924 15.1306 45.8316 15.2204C46.9382 14.6985 48.0448 14.2226 49.0976 13.6854C49.585 13.3832 50.1659 13.2687 50.7317 13.3633C51.2974 13.458 51.8093 13.7553 52.1715 14.1996C52.3253 14.3847 52.533 14.5173 52.7657 14.5792C52.9984 14.6411 53.2446 14.6291 53.4702 14.545C54.7074 14.1919 55.9754 13.9156 57.228 13.6086L57.5892 13.5242C57.8351 13.4705 58.0656 13.5242 58.1118 13.7928C58.1579 14.0615 57.9581 14.1459 57.7352 14.1996L55.8294 14.6755L53.2166 15.2895C53.909 16.1816 54.4969 17.1499 54.9687 18.1755C55.0456 18.3674 55.2069 18.3674 55.3683 18.3827C56.2612 18.4825 57.1598 18.521 58.058 18.4979C58.0693 18.5054 58.0827 18.5095 58.0964 18.5095C58.1101 18.5095 58.1234 18.5054 58.1348 18.4979L58.2962 18.5439H58.9263H59.2798C59.5488 18.5439 59.8639 18.613 59.7947 18.9891C59.7255 19.3652 59.4566 19.2807 59.1953 19.2654C58.227 19.204 58.2193 19.2117 58.1579 20.1711C58.0503 21.8674 57.9504 23.5637 57.8351 25.2599C57.8351 25.5977 57.8812 25.7281 58.2424 25.7435C59.2491 25.7895 60.2481 25.874 61.2471 25.943C61.4776 25.943 61.7312 25.9431 61.7543 26.2654C61.7774 26.5878 61.5776 26.6876 61.324 26.6952ZM41.728 12.7029V12.8334C42.4964 12.8334 43.2034 12.8334 43.9412 12.8334C44.31 12.8334 44.3946 12.772 44.2793 12.3882C43.7644 10.7073 43.2265 9.0187 42.8192 7.30707C42.5579 6.21716 42.189 5.44962 40.8826 5.63383C40.7674 5.63383 40.6444 5.56474 40.5214 5.57242C40.2064 5.57242 40.0604 5.38822 39.922 5.13493C39.0366 3.63149 37.6146 2.51824 35.9414 2.01871C34.7349 1.60423 33.5207 1.25114 32.3142 0.821317C31.6687 0.606405 31.2844 0.698519 31.1307 1.16672C30.977 1.63492 31.3075 1.98799 31.7455 2.19523L33.8588 3.20071C34.5571 3.54299 35.1044 4.13059 35.3958 4.85092C36.0259 6.24785 36.8021 7.57572 38.5772 7.79063C38.6237 7.79087 38.6695 7.80136 38.7114 7.82136C38.7533 7.84136 38.7903 7.87038 38.8197 7.90632C38.849 7.94226 38.8701 7.98423 38.8813 8.02925C38.8925 8.07427 38.8937 8.12121 38.8846 8.16672C38.8773 8.21319 38.8606 8.2577 38.8354 8.29749C38.8103 8.33728 38.7773 8.3715 38.7384 8.3981C38.6996 8.42469 38.6557 8.44309 38.6095 8.45214C38.5633 8.46118 38.5157 8.46068 38.4696 8.45071C38.1393 8.43056 37.8146 8.35534 37.5091 8.22814C36.2825 7.61701 35.3307 6.56772 34.8425 5.28843C34.7815 5.11799 34.6688 4.97085 34.52 4.86762C34.3711 4.7644 34.1937 4.71024 34.0125 4.71277C31.123 4.49786 28.2336 4.27527 25.3442 4.06804C24.691 4.02198 24.3682 4.26761 24.3298 4.77419C24.2914 5.28077 24.6218 5.61847 25.2596 5.6722L31.5918 6.1711C31.8608 6.1711 32.1835 6.17111 32.1451 6.57024C32.1067 6.96936 31.8147 6.86189 31.5688 6.84654L23.5767 6.20949C22.9542 6.16344 22.57 6.39369 22.5085 6.86957C22.447 7.34544 22.7314 7.75226 23.3846 7.82134C24.153 7.90577 24.9215 7.94414 25.69 8.00554C27.5881 8.15905 29.4939 8.32024 31.3997 8.46607C31.6533 8.46607 31.953 8.46607 31.9453 8.82682C31.9376 9.18756 31.5995 9.14919 31.3382 9.14151L30.4161 9.06476C28.5871 8.91892 26.7658 8.76542 24.9446 8.63493C24.2837 8.58888 23.9225 8.8959 23.9148 9.40248C23.9071 9.90906 24.2452 10.17 24.8523 10.2314L29.6476 10.5998C30.2239 10.6459 30.7926 10.7073 31.369 10.761C31.5995 10.761 31.7839 10.8838 31.7609 11.1371C31.7378 11.3904 31.538 11.4518 31.3075 11.4365L30.8771 11.3904L26.7581 11.0757C26.5344 11.0344 26.3034 11.0639 26.0973 11.1601C25.9402 11.2432 25.8168 11.3782 25.7482 11.5419C25.6795 11.7056 25.6698 11.8881 25.7207 12.0582C25.7721 12.2486 25.8887 12.415 26.0501 12.5285C26.2115 12.6421 26.4076 12.6957 26.6045 12.6799C29.5323 12.9178 32.4602 13.1788 35.3881 13.3937C36.3871 13.4704 37.4476 13.7468 38.3467 13.1404C39.0108 12.7411 39.792 12.5812 40.5599 12.6876C40.9825 12.7183 41.3514 12.7029 41.728 12.7029ZM57.4509 20.624C57.4471 20.3367 57.4625 20.0495 57.497 19.7643C57.5584 19.3498 57.4278 19.158 56.9898 19.158C56.5518 19.158 55.96 19.0735 55.4529 19.0966C54.815 19.1349 54.5307 18.8663 54.2694 18.2829C53.6268 16.7917 52.636 15.4758 51.3799 14.4452C51.1363 14.2235 50.8277 14.0859 50.4998 14.0528C50.1718 14.0196 49.8419 14.0926 49.5587 14.261C48.721 14.6985 47.8527 15.0746 46.9843 15.443C46.4387 15.6733 46.1697 16.1185 46.3618 16.5713C46.5539 17.0242 46.9766 17.0856 47.5299 16.886C48.0832 16.6865 48.7211 16.4485 49.3281 16.2566C49.9352 16.0648 50.404 16.2183 50.5423 16.6327C50.6806 17.0472 50.3963 17.5308 49.82 17.7534C49.2266 17.9308 48.5992 17.9624 47.991 17.8455C46.7 17.738 45.4089 17.6152 44.1486 17.5231C43.4263 17.4694 43.0574 17.7226 43.0267 18.2446C42.9959 18.7665 43.3341 19.0735 44.0334 19.1272C44.7327 19.181 45.4243 19.2577 46.1236 19.3345C46.3772 19.3345 46.6539 19.4343 46.6077 19.7643C46.5616 20.0944 46.285 20.0713 46.0237 20.0483L42.8884 19.795C42.7819 19.7667 42.6706 19.7617 42.5619 19.7802C42.4533 19.7987 42.35 19.8402 42.2589 19.9021C42.1678 19.964 42.0911 20.0447 42.0339 20.1388C41.9768 20.2329 41.9406 20.3381 41.9278 20.4474C41.8355 20.9233 42.1199 21.2841 42.6962 21.3915C42.9191 21.4299 43.142 21.4376 43.3725 21.4606L46.0083 21.6755C46.2312 21.6755 46.4464 21.7369 46.4387 22.0132C46.431 22.2895 46.1928 22.3433 45.9545 22.3279C45.3398 22.2819 44.725 22.2281 44.1025 22.2051C43.4801 22.1821 43.1881 22.443 43.1573 22.9266C43.1266 23.4102 43.3955 23.7862 43.9642 23.7862C44.5329 23.7862 45.2322 23.8784 45.87 23.9091C46.1467 23.9091 46.3849 24.0012 46.3541 24.3235C46.3234 24.6459 46.0852 24.6536 45.8393 24.6305C45.432 24.6305 45.0247 24.5461 44.6097 24.5308C44.5007 24.5165 44.39 24.5257 44.2849 24.5579C44.1798 24.59 44.0828 24.6443 44.0005 24.717C43.9182 24.7898 43.8525 24.8793 43.8078 24.9796C43.7631 25.0798 43.7404 25.1885 43.7413 25.2983C43.7306 25.4054 43.7425 25.5135 43.7762 25.6157C43.81 25.7178 43.8649 25.8118 43.9374 25.8914C44.0098 25.971 44.0982 26.0345 44.1968 26.0778C44.2955 26.1211 44.4021 26.1431 44.5098 26.1426C46.7384 26.3191 48.9746 26.488 51.2109 26.6262C51.5923 26.6497 51.9746 26.5936 52.3331 26.4615C52.6917 26.3293 53.0187 26.124 53.2935 25.8586C53.4158 25.7369 53.5651 25.6456 53.7293 25.5923C53.8935 25.5389 54.068 25.525 54.2387 25.5516C55.0071 25.636 55.8371 25.6667 56.6363 25.7435C56.9821 25.7435 57.1589 25.7435 57.1742 25.306C57.2664 23.7402 57.3663 22.1821 57.4509 20.624ZM48.8286 17.193C49.0277 17.2421 49.2369 17.231 49.4298 17.1614C49.6227 17.0917 49.7905 16.9665 49.9122 16.8016C49.5225 16.8331 49.1483 16.9683 48.8286 17.193Z" fill="#231F20"/>
<path d="M13.3868 28.4989C14.6521 28.7744 15.8168 29.3932 16.7527 30.2872C17.5161 31.1227 18.1249 32.0868 18.5509 33.1348C18.6258 33.322 18.6532 33.5248 18.6305 33.7252C18.6078 33.9255 18.5358 34.1171 18.4208 34.2828C18.3059 34.4486 18.1516 34.5833 17.9718 34.6749C17.792 34.7666 17.5923 34.8123 17.3905 34.8081C16.4222 34.8925 16.4222 34.8925 16.4222 35.8826C16.4222 36.0899 16.4222 36.2894 16.4222 36.4967C16.4222 36.7039 16.3377 36.9265 16.0687 36.9188C15.7998 36.9111 15.746 36.7192 15.746 36.489C15.746 36.0975 15.746 35.7214 15.746 35.3223C15.746 34.9232 15.6537 34.785 15.2618 34.8157C14.8699 34.8464 14.3627 34.8157 13.9093 34.8157H13.7095C13.635 34.7761 13.5519 34.7554 13.4675 34.7554C13.383 34.7554 13.2999 34.7761 13.2254 34.8157H13.1716H13.1332C12.9963 35.3472 12.9701 35.901 13.0563 36.4429C13.0563 36.6809 12.9718 36.9188 12.6644 36.8804C12.357 36.8421 12.3954 36.6118 12.3801 36.4046C12.3801 36.3201 12.3801 36.2434 12.3801 36.1589C12.3801 34.762 12.3801 34.762 10.9353 34.7697C9.69041 34.7697 9.69042 34.7697 9.69042 36.0361V36.2817C9.69042 36.5427 9.69042 36.8804 9.33692 36.8727C8.98343 36.8651 9.02185 36.5274 8.9988 36.2664C8.96037 35.7829 9.22164 35.1381 8.86815 34.8541C8.51465 34.5701 7.96137 34.7697 7.4926 34.7697C6.32452 34.7697 6.33989 34.7697 6.31684 35.9363C6.31684 36.2664 6.50896 36.8344 6.00176 36.8497C5.49457 36.8651 5.64827 36.2664 5.64058 35.9363C5.64058 34.7697 5.64057 34.7543 4.47249 34.7697C3.98836 34.7697 3.36591 34.5625 3.04315 34.8772C2.72039 35.1918 2.96629 35.8135 2.93555 36.2971C2.93555 36.5581 2.98168 36.8958 2.57439 36.8727C2.1671 36.8497 2.29005 36.535 2.28237 36.2971C2.28237 36.1973 2.28237 36.0899 2.28237 35.9901C2.28237 34.8771 2.28235 34.8771 1.16039 34.762C0.974939 34.749 0.79503 34.6934 0.634665 34.5994C0.474299 34.5055 0.337828 34.3759 0.235913 34.2206C0.133997 34.0653 0.0693837 33.8886 0.047125 33.7042C0.0248663 33.5199 0.0455538 33.3329 0.107584 33.1578C1.08354 30.8552 2.53596 28.967 5.20255 28.5526C6.17851 28.3991 6.90086 28.307 6.68569 27.0175C6.61653 26.6337 7.00845 26.296 7.45416 26.2499C7.89988 26.2039 7.87682 25.9967 7.8845 25.682C7.83313 24.7583 7.85111 23.8321 7.9383 22.9111C8.11503 21.7873 8.66649 20.7559 9.50334 19.9842C10.3402 19.2124 11.4134 18.7454 12.5491 18.6589C13.7941 18.5054 15.039 18.659 16.2839 18.5438H23.4307C24.6654 18.5023 25.8742 18.9036 26.8383 19.6751C27.8025 20.4466 28.4583 21.5374 28.687 22.7499C28.7437 23.0329 28.7695 23.3211 28.7639 23.6096C28.7639 31.4078 28.7639 39.2061 28.7639 47.0043C28.7756 47.1474 28.7756 47.2911 28.7639 47.4342C28.7524 47.5074 28.7135 47.5736 28.655 47.6192C28.5964 47.6649 28.5227 47.6865 28.4488 47.6798C28.4125 47.6808 28.3763 47.6747 28.3423 47.6617C28.3084 47.6488 28.2773 47.6293 28.2509 47.6043C28.2245 47.5794 28.2033 47.5494 28.1884 47.5163C28.1736 47.4832 28.1655 47.4474 28.1645 47.4111C28.1528 47.2476 28.1528 47.0835 28.1645 46.9199C28.1645 39.3059 28.1645 31.6918 28.1645 24.0778C28.1986 23.8205 28.1776 23.5589 28.103 23.3103C28.0179 22.2134 27.5223 21.1888 26.7148 20.4406C25.9073 19.6924 24.8472 19.2755 23.7458 19.273C20.1724 19.273 16.5913 19.273 12.9872 19.273C12.1582 19.26 11.3434 19.4883 10.642 19.9298C9.94064 20.3714 9.38305 21.0072 9.03721 21.7598C8.61089 22.7857 8.4497 23.9022 8.56845 25.0065C8.56845 26.2653 8.56844 26.2499 9.82873 26.2039C10.1592 26.2039 10.2591 26.0811 10.2437 25.7664C10.2437 25.1754 10.2437 24.5767 10.2437 23.978C10.2045 23.5651 10.2571 23.1486 10.3977 22.7583C10.5383 22.3681 10.7635 22.0136 11.0572 21.7203C11.3508 21.427 11.7057 21.2021 12.0964 21.0617C12.4872 20.9212 12.9042 20.8687 13.3176 20.9078C16.6681 20.9078 20.0263 20.9539 23.3769 20.9078C24.1778 20.9323 24.9398 21.2584 25.51 21.8208C26.0801 22.3831 26.4162 23.1401 26.4508 23.9397C26.3662 31.4539 26.4508 38.9681 26.4508 46.4901C26.4508 46.7587 26.4508 47.0197 26.4508 47.2576C26.4508 47.4956 26.3509 47.7335 26.0435 47.6798C25.7361 47.6261 25.7976 47.3958 25.7976 47.1885C25.7976 46.9813 25.7976 46.5745 25.7976 46.2598V24.1622C25.7976 22.466 25.0291 21.6677 23.3231 21.6677H14.8161C14.2013 21.6677 13.5866 21.6217 12.9718 21.6677C12.6993 21.6687 12.4297 21.7233 12.1784 21.8284C11.927 21.9335 11.6988 22.087 11.5069 22.2801C11.3149 22.4733 11.1629 22.7023 11.0596 22.9541C10.9563 23.2059 10.9036 23.4756 10.9046 23.7478C10.9046 24.4232 10.9046 25.0986 10.9046 25.7741C10.9046 26.0888 10.9584 26.2346 11.3119 26.2883C11.5344 26.3256 11.7354 26.4431 11.877 26.6185C12.0187 26.7939 12.091 27.015 12.0804 27.2401C12.0804 27.6239 11.9036 28.1458 12.1803 28.3453C12.4569 28.5449 12.9487 28.4528 13.3714 28.4912L13.3868 28.4989ZM9.30618 34.1403H17.1369C17.9054 34.1403 18.1436 33.7565 17.7901 33.0734C17.598 32.7127 17.4059 32.3059 17.1984 31.9989C16.7891 31.2088 16.1847 30.5361 15.4424 30.0445C14.7 29.5529 13.8444 29.2587 12.9564 29.1896C10.4973 29.0323 8.03057 29.0323 5.57142 29.1896C4.54087 29.2912 3.56805 29.7126 2.78956 30.3947C1.99229 31.1208 1.35841 32.0077 0.929853 32.9967C0.507194 33.7642 0.699308 34.1557 1.59842 34.1557L9.30618 34.1403ZM9.38303 28.4605H10.4896C11.4963 28.4605 11.4963 28.4605 11.4041 27.4166C11.4041 27.1096 11.2581 26.9561 10.9584 26.9561C9.87484 26.9561 8.78362 26.9561 7.70008 26.9561C7.0853 26.9561 7.2928 27.501 7.27743 27.8541C7.26206 28.2072 7.27743 28.5065 7.78462 28.4605C8.29181 28.4144 8.85279 28.4605 9.38303 28.4605Z" fill="#231F20"/>
<path d="M43.9181 52.7302C42.3317 51.1687 41.1956 49.2095 40.629 47.0581C40.2376 45.5031 40.1661 43.8849 40.419 42.3016C40.6719 40.7182 41.2438 39.2025 42.1001 37.8463C42.9565 36.4901 44.0795 35.3216 45.4012 34.4115C46.7228 33.5014 48.2156 32.8686 49.7892 32.5515C51.5856 32.176 53.4453 32.2292 55.2172 32.7066C56.9891 33.1841 58.6233 34.0724 59.9868 35.2993C60.079 35.3837 60.1866 35.4528 60.2789 35.5219C62.0722 37.2927 63.2929 39.5599 63.7831 42.0307C64.3035 44.9471 63.715 47.9526 62.133 50.4585C60.5509 52.9643 58.0892 54.7899 55.23 55.5778C53.2593 56.1256 51.1797 56.1511 49.1961 55.6518C47.2125 55.1525 45.3934 54.1455 43.9181 52.7302ZM52.1407 33.0044C49.9295 32.9952 47.7653 33.6416 45.9221 34.8617C44.0789 36.0817 42.6396 37.8206 41.7864 39.8581C40.9332 41.8956 40.7044 44.1402 41.1291 46.3077C41.5537 48.4751 42.6127 50.468 44.172 52.034C45.7313 53.5999 47.7207 54.6686 49.8884 55.1047C52.0561 55.5408 54.3046 55.3247 56.3492 54.4837C58.3939 53.6428 60.1427 52.2148 61.3744 50.3806C62.606 48.5463 63.2651 46.3883 63.2682 44.1798C63.2764 41.2233 62.1088 38.3846 60.0222 36.2875C57.9357 34.1905 55.1008 33.0068 52.1407 32.9967V33.0044Z" fill="#231F20"/>
<path d="M34.7426 53.4978C34.3968 49.9133 35.0884 46.3826 35.3112 42.8289C35.3112 42.2916 35.3497 41.762 35.365 41.2247C35.3894 41.0617 35.3539 40.8954 35.2651 40.7565C34.4484 39.6469 34.0289 38.2953 34.074 36.9188C34.0075 35.3592 34.0563 33.7969 34.22 32.2445C34.22 31.9989 34.22 31.6381 34.6042 31.6842C34.9885 31.7302 34.8732 32.0449 34.8655 32.2829C34.8271 33.6568 34.7503 35.0307 34.7426 36.4046C34.7044 37.496 34.9036 38.5828 35.3266 39.5899C35.3752 39.7037 35.4317 39.8139 35.4957 39.9199C35.6494 40.1655 35.8338 40.5339 36.0874 40.4725C36.341 40.4111 36.2103 40.0043 36.2103 39.7587C36.2103 37.3179 36.2103 34.8746 36.2103 32.4287C36.1988 32.2652 36.1988 32.101 36.2103 31.9375C36.2178 31.8648 36.2516 31.7974 36.3054 31.7479C36.3592 31.6984 36.4293 31.6703 36.5024 31.6688C36.5752 31.6619 36.6479 31.6824 36.7063 31.7265C36.7646 31.7706 36.8043 31.8349 36.8174 31.9067C36.8484 32.11 36.8638 32.3152 36.8636 32.5208C36.8636 35 36.8636 37.4868 36.8636 39.966C36.8636 40.1348 36.756 40.3881 36.9711 40.4572C37.1863 40.5263 37.2939 40.296 37.3938 40.1578C37.9869 39.2443 38.2969 38.1764 38.2852 37.0877C38.3583 35.6111 38.3275 34.1312 38.193 32.6589C38.193 32.4747 38.193 32.2828 38.193 32.0986C38.193 31.9144 38.2622 31.7149 38.4773 31.6918C38.6925 31.6688 38.8462 31.853 38.8539 32.0756C38.9538 34.4473 39.3073 36.8267 38.631 39.1754C38.5488 39.6006 38.3671 40.0003 38.1008 40.3421C37.9324 40.5567 37.8112 40.8043 37.745 41.0687C37.6788 41.3332 37.6691 41.6087 37.7165 41.8772C37.7934 44.4638 38.216 47.0274 38.3621 49.6063C38.4325 50.939 38.4146 52.2749 38.3083 53.6052C38.202 54.1336 38.037 54.6485 37.8164 55.1403C37.7076 55.3921 37.5273 55.6064 37.2979 55.7571C37.0685 55.9077 36.8 55.988 36.5254 55.988C36.2509 55.988 35.9823 55.9077 35.7529 55.7571C35.5235 55.6064 35.3433 55.3921 35.2344 55.1403C35.0096 54.6129 34.8446 54.0619 34.7426 53.4978ZM37.7473 51.0263V50.8344C37.7089 47.7642 37.1018 44.694 37.0633 41.6239C37.0633 40.9714 36.5638 41.4627 36.2949 41.3475C35.9183 41.1787 35.9875 41.5471 35.9875 41.739C35.9875 44.1875 35.5341 46.6052 35.3958 49.0383C35.1993 50.7342 35.2615 52.4499 35.5802 54.1271C35.7185 54.6568 35.8492 55.3168 36.5485 55.2938C37.2478 55.2708 37.3169 54.5953 37.4783 54.0734C37.709 53.0751 37.7996 52.0495 37.7473 51.0263Z" fill="#231F20"/>
<path d="M69.6004 38.546C69.3568 42.0081 69.4443 45.4854 69.8617 48.9309C70.0666 50.5638 70.0408 52.2174 69.7848 53.8432C69.7211 54.3386 69.5647 54.8177 69.3237 55.2554C69.2127 55.4915 69.0366 55.6911 68.8161 55.8309C68.5957 55.9707 68.34 56.045 68.0788 56.045C67.8177 56.045 67.5619 55.9707 67.3415 55.8309C67.121 55.6911 66.945 55.4915 66.8339 55.2554C66.4213 54.4237 66.2157 53.5048 66.2345 52.5767C66.1768 50.1754 66.3078 47.7733 66.6264 45.3925C66.6724 44.8429 66.5963 44.2899 66.4036 43.773C65.5506 41.2938 65.0126 38.7763 65.7504 36.1743C66.2328 34.4414 67.3241 32.9401 68.8242 31.9451C68.9856 31.8377 69.147 31.6535 69.3775 31.7686C69.6081 31.8837 69.5773 32.1524 69.5773 32.375L69.6004 38.546ZM68.8934 32.7971C67.4997 33.7909 66.5443 35.2841 66.2268 36.9649C65.9204 39.1266 66.1853 41.3307 66.9953 43.3585C67.2647 44.0465 67.375 44.7864 67.318 45.523C67.2028 46.5438 67.0875 47.5647 67.003 48.5932C66.7803 50.3793 66.8088 52.1877 67.0875 53.966C67.2565 54.7335 67.6408 55.3399 68.0788 55.2938C68.8089 55.2094 68.9165 54.58 69.0471 54.0274C69.3275 52.5735 69.3896 51.0861 69.2315 49.614C69.0471 46.6666 68.6321 43.7346 68.7243 40.7719C68.8089 38.1469 68.8396 35.4989 68.8934 32.7971Z" fill="#231F20"/>
<path d="M58.0733 18.5055C57.1752 18.5286 56.2765 18.4901 55.3837 18.3903C55.2223 18.3903 55.0609 18.3903 54.9841 18.1831C54.5123 17.1575 53.9244 16.1892 53.232 15.2971L55.8448 14.6831C56.0933 15.3226 56.458 15.9107 56.9206 16.4177C57.3951 17.06 57.7826 17.762 58.0733 18.5055Z" fill="#A7A9AC"/>
<path d="M5.60983 39.7357V38.8146C5.60983 38.569 5.72509 38.4078 5.96332 38.4078C6.01041 38.4052 6.05751 38.413 6.10128 38.4306C6.14505 38.4481 6.18443 38.475 6.21667 38.5094C6.2489 38.5438 6.2732 38.5848 6.28784 38.6296C6.30249 38.6744 6.30713 38.7218 6.30145 38.7686C6.30145 39.444 6.30145 40.1195 6.30145 40.7949C6.30145 40.9868 6.21693 41.171 5.9787 41.1787C5.74047 41.1864 5.61751 41.0175 5.60983 40.7796C5.60214 40.5416 5.60983 40.0888 5.60983 39.7357Z" fill="#231F20"/>
<path d="M5.61753 44.0033C5.61753 43.6732 5.61753 43.3509 5.61753 43.0208C5.61441 42.9748 5.62055 42.9287 5.63557 42.8851C5.65058 42.8415 5.67419 42.8014 5.70498 42.767C5.73578 42.7327 5.77315 42.7049 5.81488 42.6852C5.85661 42.6655 5.90186 42.6543 5.94797 42.6524C5.99529 42.6474 6.04313 42.6531 6.08791 42.6692C6.13268 42.6853 6.17323 42.7113 6.2065 42.7453C6.23978 42.7792 6.26493 42.8203 6.28005 42.8654C6.29516 42.9104 6.29986 42.9583 6.29379 43.0055C6.29379 43.6963 6.29379 44.3871 6.29379 45.0855C6.29638 45.1326 6.28861 45.1796 6.27104 45.2233C6.25347 45.267 6.22653 45.3064 6.1921 45.3386C6.15767 45.3708 6.11658 45.395 6.07175 45.4097C6.02691 45.4243 5.97943 45.4289 5.93261 45.4232C5.88601 45.4205 5.84047 45.4082 5.79888 45.387C5.7573 45.3658 5.72056 45.3363 5.69096 45.3002C5.66136 45.2642 5.63955 45.2224 5.62691 45.1775C5.61428 45.1326 5.61109 45.0856 5.61753 45.0395V44.0033Z" fill="#231F20"/>
<path d="M8.9911 43.9879C8.9911 43.6655 8.9911 43.3355 8.9911 43.0131C8.9911 42.8135 9.09102 42.6447 9.32156 42.6524C9.36833 42.6533 9.41441 42.6637 9.45704 42.6829C9.49967 42.7022 9.53795 42.7299 9.56956 42.7643C9.60117 42.7987 9.62546 42.8392 9.64095 42.8833C9.65644 42.9274 9.66279 42.9742 9.65967 43.0208C9.65967 43.7116 9.65967 44.41 9.65967 45.1008C9.66274 45.1473 9.65516 45.194 9.6375 45.2371C9.61985 45.2803 9.59258 45.3189 9.55777 45.35C9.52296 45.381 9.48152 45.4038 9.43659 45.4165C9.39167 45.4292 9.34446 45.4315 9.29851 45.4232C9.25712 45.4212 9.2165 45.4111 9.17902 45.3935C9.14154 45.3758 9.10794 45.3509 9.0801 45.3203C9.05226 45.2896 9.03073 45.2538 9.01678 45.2148C9.00283 45.1758 8.99672 45.1345 8.99879 45.0932C8.99879 44.7247 8.99879 44.3256 8.99879 43.9879H8.9911Z" fill="#231F20"/>
<path d="M9.67505 39.8125C9.67505 40.1426 9.67505 40.4726 9.67505 40.795C9.67505 40.9946 9.57515 41.1634 9.34461 41.1711C9.29716 41.1751 9.2494 41.1683 9.20495 41.1513C9.16051 41.1342 9.12052 41.1073 9.08798 41.0726C9.05543 41.0379 9.0312 40.9962 9.01708 40.9508C9.00297 40.9054 8.99934 40.8574 9.00648 40.8103C9.00648 40.1349 9.00648 39.4595 9.00648 38.784C9.00648 38.5691 9.11406 38.4156 9.33692 38.4156C9.38391 38.412 9.43113 38.4187 9.47524 38.4353C9.51935 38.4519 9.55928 38.478 9.59224 38.5116C9.6252 38.5453 9.65039 38.5857 9.66602 38.6301C9.68165 38.6745 9.68737 38.7218 9.68274 38.7687C9.67505 39.1371 9.66736 39.4595 9.67505 39.8125Z" fill="#231F20"/>
<path d="M2.91249 39.8508V40.8333C2.91966 40.8793 2.91678 40.9262 2.90405 40.971C2.89132 41.0157 2.86904 41.0572 2.83874 41.0926C2.80844 41.1279 2.77083 41.1563 2.72851 41.1757C2.6862 41.1952 2.64018 41.2053 2.59359 41.2053C2.54701 41.2053 2.50097 41.1952 2.45865 41.1757C2.41633 41.1563 2.37873 41.1279 2.34843 41.0926C2.31813 41.0572 2.29585 41.0157 2.28311 40.971C2.27038 40.9262 2.26751 40.8793 2.27467 40.8333C2.27467 40.1348 2.27467 39.4364 2.27467 38.7379C2.27087 38.6913 2.27753 38.6443 2.29418 38.6006C2.31084 38.5568 2.33705 38.5173 2.37092 38.485C2.40478 38.4526 2.44546 38.4282 2.48996 38.4136C2.53446 38.3989 2.58167 38.3943 2.62816 38.4002C2.83565 38.4002 2.92788 38.5767 2.92788 38.7993C2.92788 39.1447 2.92788 39.4901 2.92788 39.8432L2.91249 39.8508Z" fill="#231F20"/>
<path d="M16.4069 44.0033C16.4069 44.3487 16.4069 44.6941 16.4069 45.0395C16.4069 45.2544 16.3069 45.4079 16.0841 45.4156C15.8612 45.4233 15.7306 45.2621 15.7306 45.0242V43.0669C15.7306 42.8367 15.8228 42.6525 16.0764 42.6601C16.33 42.6678 16.4068 42.8674 16.4145 43.0823C16.4222 43.2972 16.4145 43.6963 16.4145 44.0033H16.4069Z" fill="#231F20"/>
<path d="M13.0333 39.751C13.0333 40.1041 13.0333 40.4495 13.0333 40.8026C13.0399 40.8486 13.0365 40.8955 13.0233 40.9401C13.0101 40.9847 12.9874 41.0259 12.9567 41.0609C12.9261 41.0959 12.8882 41.1239 12.8457 41.1429C12.8032 41.1619 12.7571 41.1715 12.7105 41.171C12.4723 41.171 12.3878 41.0098 12.3878 40.8026C12.3878 40.1272 12.3878 39.4517 12.3878 38.7763C12.3878 38.5537 12.4953 38.4078 12.7105 38.4078C12.7576 38.4052 12.8047 38.413 12.8485 38.4306C12.8922 38.4481 12.9316 38.475 12.9638 38.5094C12.9961 38.5438 13.0204 38.5848 13.035 38.6296C13.0497 38.6744 13.0543 38.7218 13.0486 38.7686L13.0333 39.751Z" fill="#231F20"/>
<path d="M13.0333 44.08V45.0011C13.0333 45.2313 12.9564 45.4155 12.6951 45.4155C12.4339 45.4155 12.3801 45.2544 12.3801 45.0471C12.3801 44.364 12.3801 43.6885 12.3801 43.0131C12.3801 42.8059 12.4723 42.6447 12.7105 42.6524C12.7568 42.6541 12.8022 42.6655 12.8437 42.6858C12.8853 42.7061 12.9221 42.7349 12.9518 42.7704C12.9815 42.8059 13.0034 42.8472 13.0161 42.8916C13.0288 42.9361 13.0321 42.9827 13.0256 43.0285C13.0333 43.3815 13.0333 43.7423 13.0333 44.08Z" fill="#231F20"/>
<path d="M2.9125 44.0186V45.0011C2.9125 45.2313 2.84334 45.4232 2.58206 45.4155C2.32078 45.4079 2.26698 45.2544 2.26698 45.0394C2.26698 44.364 2.26698 43.6886 2.26698 43.0131C2.26698 42.7982 2.3669 42.6447 2.59744 42.6524C2.82798 42.6601 2.90483 42.8212 2.90483 43.0361C2.90483 43.2511 2.9125 43.6886 2.9125 44.0186Z" fill="#231F20"/>
<path d="M15.7229 40.9178C15.7229 40.2654 15.7229 39.613 15.7229 38.9529C15.7229 38.6919 15.7229 38.4233 16.0764 38.4309C16.4299 38.4386 16.3915 38.6996 16.3838 38.9299C16.412 39.6671 16.394 40.4054 16.33 41.1404C16.0764 41.2018 15.8459 41.2018 15.7229 40.9178Z" fill="#231F20"/>
<path d="M12.7105 46.897C13.0025 46.9584 13.0563 47.1579 13.041 47.4036C13.0256 47.6492 12.9026 47.8027 12.6567 47.7643C12.4108 47.7259 12.3647 47.5187 12.3724 47.3038C12.3801 47.0889 12.4569 46.92 12.7105 46.897Z" fill="#231F20"/>
<path d="M9.33693 47.7796C9.02185 47.7105 8.97574 47.5033 8.9988 47.2653C9.02185 47.0274 9.13712 46.8662 9.38303 46.9046C9.62894 46.943 9.68273 47.1579 9.66736 47.3728C9.67605 47.4702 9.64641 47.5672 9.58472 47.6431C9.52303 47.719 9.43415 47.768 9.33693 47.7796Z" fill="#231F20"/>
<path d="M2.92019 47.3651C2.92019 47.6031 2.82029 47.7719 2.58207 47.7642C2.34384 47.7566 2.25931 47.5647 2.26699 47.3344C2.27467 47.1042 2.33615 46.9046 2.58207 46.8969C2.82798 46.8892 2.93556 47.1118 2.92019 47.3651Z" fill="#231F20"/>
<path d="M16.4069 47.3344C16.4069 47.557 16.33 47.7565 16.0841 47.7642C15.8382 47.7719 15.7306 47.603 15.7306 47.3651C15.7306 47.1271 15.7998 46.9045 16.0841 46.9045C16.3684 46.9045 16.4145 47.1041 16.4069 47.3344Z" fill="#231F20"/>
<path d="M5.93261 47.772C5.66364 47.7029 5.59448 47.511 5.61753 47.2577C5.64058 47.0044 5.75586 46.8893 5.95566 46.897C6.15546 46.9046 6.32452 47.1272 6.30915 47.3729C6.3112 47.4239 6.30304 47.4748 6.28513 47.5227C6.26723 47.5705 6.23993 47.6143 6.20486 47.6515C6.16979 47.6886 6.12764 47.7184 6.08089 47.7391C6.03414 47.7598 5.98373 47.771 5.93261 47.772Z" fill="#231F20"/>
<path d="M13.0486 36.4813C12.9624 35.9394 12.9886 35.3855 13.1255 34.8541C13.1883 35.3971 13.1624 35.9467 13.0486 36.4813Z" fill="#A7A9AC"/>
<path d="M59.3336 18.5976H58.9801C59.0009 18.5705 59.0277 18.5486 59.0583 18.5336C59.089 18.5185 59.1227 18.5106 59.1569 18.5106C59.191 18.5106 59.2248 18.5185 59.2554 18.5336C59.2861 18.5486 59.3128 18.5705 59.3336 18.5976Z" fill="#A7A9AC"/>
<path d="M13.2254 34.8311C13.2999 34.7915 13.383 34.7708 13.4675 34.7708C13.5519 34.7708 13.635 34.7915 13.7095 34.8311C13.5533 34.8887 13.3816 34.8887 13.2254 34.8311Z" fill="#A7A9AC"/>
<path d="M58.3116 18.5592L58.1502 18.5132L58.3116 18.5592Z" fill="#A7A9AC"/>
<path d="M26.3893 47.3267C26.3893 47.0581 26.3893 46.7971 26.3893 46.5592C26.3893 39.0373 26.3432 31.523 26.3893 24.0088C26.3547 23.2092 26.0187 22.4522 25.4485 21.8899C24.8783 21.3275 24.1163 21.0014 23.3154 20.9769C19.9649 21.0383 16.6067 20.9769 13.2561 20.9769C12.8427 20.9378 12.4257 20.9903 12.035 21.1308C11.6442 21.2712 11.2893 21.4961 10.9957 21.7894C10.7021 22.0827 10.4769 22.4372 10.3363 22.8274C10.1956 23.2177 10.1431 23.6342 10.1822 24.0471C10.1822 24.6458 10.1822 25.2445 10.1822 25.8355C10.1822 26.1502 10.0977 26.2576 9.76727 26.273C8.50697 26.319 8.50696 26.3344 8.50696 25.0756C8.38821 23.9713 8.54942 22.8548 8.97574 21.8289C9.32158 21.0763 9.87917 20.4405 10.5805 19.9989C11.2819 19.5574 12.0967 19.3291 12.9257 19.3421C16.5067 19.3421 20.0878 19.3421 23.6843 19.3421C24.7857 19.3446 25.8458 19.7615 26.6533 20.5097C27.4608 21.2579 27.9565 22.2825 28.0415 23.3794C28.0415 23.6019 27.9954 23.8245 27.9954 24.0548V46.3519C27.9954 47.58 27.9954 47.58 26.7658 47.4572C26.6363 47.4264 26.5101 47.3827 26.3893 47.3267Z" fill="#EF9A73"/>
<path d="M41.728 12.7028C41.3514 12.7028 40.9595 12.7028 40.6137 12.7028C39.8458 12.5965 39.0646 12.7563 38.4005 13.1557C37.5014 13.762 36.4409 13.4857 35.4419 13.409C32.514 13.1941 29.5861 12.9331 26.6583 12.6951C26.4614 12.7109 26.2653 12.6574 26.1039 12.5438C25.9425 12.4303 25.8259 12.2638 25.7745 12.0734C25.7236 11.9033 25.7333 11.7209 25.802 11.5571C25.8706 11.3934 25.994 11.2585 26.1511 11.1754C26.3572 11.0791 26.5882 11.0496 26.8119 11.091L30.9309 11.4057L31.3613 11.4517C31.5918 11.4517 31.7916 11.4057 31.8147 11.1524C31.8377 10.8991 31.6533 10.7916 31.4228 10.7763C30.8464 10.7225 30.2777 10.6611 29.7014 10.6151L24.9061 10.2467C24.299 10.2006 23.9609 9.90895 23.9686 9.41772C23.9763 8.9265 24.3375 8.59645 24.9984 8.65018C26.8196 8.78066 28.6409 8.93417 30.4699 9.08L31.392 9.15676C31.6533 9.15676 31.9837 9.23351 31.9991 8.84207C32.0145 8.45062 31.7071 8.50435 31.4535 8.48132C29.5477 8.33549 27.6112 8.1743 25.7438 8.02079C24.9753 7.95939 24.2068 7.92102 23.4384 7.83659C22.7852 7.76751 22.4854 7.41444 22.5623 6.88484C22.6391 6.35523 23.008 6.17869 23.6305 6.22474L31.6226 6.86181C31.8685 6.86181 32.1605 6.93856 32.1989 6.58549C32.2373 6.23242 31.9146 6.20172 31.6456 6.18637L25.3134 5.68747C24.6756 5.63375 24.3451 5.32672 24.3836 4.78944C24.422 4.25216 24.7447 4.02188 25.3979 4.08329C28.2874 4.29052 31.1768 4.51313 34.0663 4.72804C34.2475 4.72552 34.4249 4.77964 34.5737 4.88287C34.7226 4.9861 34.8353 5.13326 34.8963 5.3037C35.3845 6.58299 36.3363 7.63226 37.5629 8.24338C37.8684 8.37059 38.1931 8.44583 38.5234 8.46598C38.5695 8.47596 38.617 8.47643 38.6633 8.46738C38.7095 8.45834 38.7534 8.43996 38.7922 8.41337C38.8311 8.38678 38.8641 8.35253 38.8892 8.31274C38.9144 8.27295 38.9311 8.22847 38.9384 8.18199C38.9475 8.13649 38.9463 8.08954 38.9351 8.04452C38.9239 7.9995 38.9028 7.95751 38.8735 7.92157C38.8441 7.88563 38.8071 7.85661 38.7652 7.83661C38.7233 7.81661 38.6775 7.80612 38.631 7.80588C36.8558 7.59097 36.0797 6.2708 35.4496 4.8662C35.1582 4.14586 34.6109 3.55826 33.9126 3.21598L31.7993 2.2105C31.3613 2.00326 30.9924 1.74995 31.1845 1.18197C31.3767 0.613988 31.7225 0.621678 32.368 0.83659C33.5745 1.24339 34.7887 1.60413 35.9952 2.03396C37.6684 2.53349 39.0904 3.64674 39.9758 5.15018C40.1142 5.40347 40.2602 5.58769 40.5752 5.58769C40.6982 5.58769 40.8212 5.66443 40.9364 5.64908C42.2428 5.46487 42.6117 6.23241 42.873 7.32232C43.2803 9.03395 43.8182 10.7226 44.3331 12.4035C44.4484 12.7873 44.3331 12.8563 43.995 12.8486C43.2265 12.8486 42.5195 12.8486 41.7818 12.8486L41.728 12.7028Z" fill="#FFDDB5"/>
<path d="M57.4509 20.6239C57.3663 22.159 57.2664 23.7401 57.2126 25.2982C57.2126 25.7127 57.0205 25.7664 56.6747 25.7357C55.9063 25.659 55.0763 25.6283 54.2771 25.5438C54.1065 25.5172 53.932 25.5312 53.7678 25.5845C53.6035 25.6378 53.4542 25.7291 53.3319 25.8509C53.0572 26.1163 52.7301 26.3216 52.3715 26.4537C52.013 26.5859 51.6308 26.642 51.2493 26.6184C49.0131 26.4802 46.7768 26.3114 44.5483 26.1348C44.4405 26.1354 44.3339 26.1133 44.2353 26.07C44.1367 26.0267 44.0482 25.9632 43.9758 25.8836C43.9033 25.804 43.8484 25.7101 43.8147 25.6079C43.7809 25.5057 43.769 25.3976 43.7798 25.2905C43.7789 25.1808 43.8015 25.0721 43.8462 24.9718C43.8909 24.8715 43.9567 24.782 44.039 24.7092C44.1213 24.6365 44.2182 24.5822 44.3233 24.5501C44.4284 24.518 44.5392 24.5087 44.6482 24.523C45.0631 24.523 45.4704 24.5921 45.8777 24.6228C46.1236 24.6228 46.3619 24.6228 46.3926 24.3158C46.4233 24.0088 46.1851 23.9166 45.9084 23.9013C45.2706 23.9013 44.6405 23.8322 44.0026 23.7785C43.3648 23.7248 43.0882 23.4024 43.1189 22.8958C43.1496 22.3892 43.4724 22.1283 44.0641 22.1743C44.6558 22.2204 45.3014 22.2511 45.9161 22.2971C46.1544 22.2971 46.3926 22.2971 46.4003 21.9824C46.408 21.6677 46.1928 21.6601 45.9699 21.6447L43.3341 21.4298C43.1035 21.4298 42.8807 21.4298 42.6578 21.3607C42.1045 21.2533 41.8202 20.8925 41.8893 20.4166C41.9022 20.3073 41.9384 20.2021 41.9955 20.108C42.0527 20.0139 42.1294 19.9332 42.2205 19.8713C42.3116 19.8095 42.4149 19.7679 42.5235 19.7494C42.6322 19.7309 42.7435 19.736 42.8499 19.7642L45.9853 20.0175C46.2466 20.0175 46.5232 20.0559 46.5693 19.7335C46.6155 19.4112 46.3388 19.3267 46.0852 19.3037C45.3859 19.227 44.6943 19.1579 43.995 19.0965C43.2957 19.0351 42.9498 18.7511 42.9883 18.2138C43.0267 17.6765 43.3879 17.4462 44.1102 17.4923C45.4013 17.5844 46.6923 17.7072 47.9526 17.8147C48.5608 17.9316 49.1882 17.9001 49.7815 17.7226C50.3579 17.5 50.6499 17.0395 50.5039 16.602C50.3579 16.1645 49.8968 16.0263 49.2897 16.2259C48.6826 16.4254 48.0832 16.6327 47.4915 16.8552C46.8998 17.0778 46.4848 16.9397 46.3234 16.5405C46.1621 16.1414 46.4003 15.6425 46.9459 15.4123C47.8143 15.0438 48.6826 14.6447 49.5203 14.2302C49.8035 14.0618 50.1334 13.9888 50.4613 14.022C50.7893 14.0551 51.0979 14.1927 51.3415 14.4145C52.5976 15.445 53.5883 16.7609 54.231 18.2522C54.4923 18.8355 54.7766 19.1041 55.4144 19.0658C55.9216 19.0658 56.4365 19.1272 56.9514 19.1272C57.4662 19.1272 57.52 19.3191 57.4586 19.7335C57.4355 20.0298 57.4329 20.3273 57.4509 20.6239Z" fill="#FFDDB5"/>
<path d="M48.8286 17.193C49.1483 16.9682 49.5225 16.8331 49.9122 16.8015C49.7905 16.9664 49.6227 17.0916 49.4298 17.1613C49.237 17.231 49.0277 17.242 48.8286 17.193Z" fill="#A7A9AC"/>
<path d="M9.30617 34.1403H1.62147C0.722357 34.1403 0.530243 33.7873 0.952902 32.9814C1.38427 32.0006 2.01798 31.1218 2.81261 30.4024C3.5911 29.7203 4.56392 29.2989 5.59447 29.1974C8.05362 29.04 10.5203 29.04 12.9795 29.1974C13.8674 29.2664 14.7231 29.5606 15.4654 30.0522C16.2077 30.5438 16.8121 31.2165 17.2214 32.0066C17.4289 32.352 17.621 32.7204 17.8132 33.0811C18.1666 33.7642 17.9361 34.1403 17.1599 34.148H9.30617V34.1403Z" fill="#EF9A73"/>
<path d="M9.38304 28.4605C8.85279 28.4605 8.31487 28.4605 7.78463 28.4605C7.25438 28.4605 7.25438 28.1996 7.27743 27.8542C7.30049 27.5088 7.08531 26.9792 7.70008 26.9561C8.78363 26.9178 9.87485 26.9561 10.9584 26.9561C11.2581 26.9561 11.3811 27.1097 11.4041 27.4167C11.4963 28.4452 11.4963 28.4605 10.4896 28.4605H9.38304Z" fill="#A7A9AC"/>
<path d="M52.1407 32.9968C54.351 33.0013 56.5102 33.6605 58.3453 34.8909C60.1804 36.1213 61.609 37.8677 62.4502 39.9091C63.2915 41.9505 63.5076 44.1953 63.0714 46.3595C62.6352 48.5236 61.5661 50.5099 59.9995 52.0672C58.4328 53.6244 56.439 54.6826 54.2702 55.1079C52.1013 55.5331 49.8549 55.3064 47.8151 54.4563C45.7753 53.6063 44.0337 52.1711 42.8107 50.3323C41.5876 48.4935 40.938 46.3337 40.9441 44.1261C40.9431 42.6598 41.2324 41.2077 41.7954 39.8534C42.3583 38.4992 43.1839 37.2695 44.2245 36.2351C45.2651 35.2008 46.5003 34.3821 47.8588 33.8264C49.2174 33.2706 50.6726 32.9887 52.1407 32.9968ZM52.0869 53.7204C53.972 53.7174 55.814 53.1569 57.3805 52.1096C58.9471 51.0622 60.168 49.5751 60.8894 47.8356C61.6107 46.0961 61.8002 44.1822 61.4339 42.3352C61.0677 40.4883 60.162 38.7911 58.8312 37.4576C57.5004 36.1241 55.804 35.2141 53.9561 34.8423C52.1081 34.4706 50.1913 34.6537 48.4474 35.3686C46.7035 36.0835 45.2106 37.2982 44.157 38.8595C43.1034 40.4208 42.5363 42.2587 42.5272 44.1415C42.5241 45.3977 42.7691 46.6422 43.2481 47.8037C43.7271 48.9652 44.4306 50.021 45.3185 50.9107C46.2064 51.8004 47.2613 52.5065 48.4227 52.9886C49.5841 53.4708 50.8292 53.7194 52.0869 53.7204Z" fill="#70C6B9"/>
<path d="M37.7473 51.0263C37.8093 52.0561 37.7265 53.0896 37.5014 54.0965C37.3631 54.6184 37.2555 55.2938 36.5715 55.3168C35.8876 55.3399 35.7416 54.6798 35.6033 54.1502C35.2846 52.473 35.2224 50.7572 35.4188 49.0614C35.5572 46.6283 35.9952 44.2105 36.0105 41.762C36.0105 41.5702 35.9414 41.2017 36.3179 41.3706C36.5638 41.4857 37.048 40.9945 37.0864 41.6469C37.1248 44.7171 37.7319 47.7872 37.7703 50.8574L37.7473 51.0263Z" fill="#FFDDB5"/>
<path d="M68.8934 32.7971C68.8396 35.4989 68.8089 38.1699 68.7167 40.7949C68.6244 43.7577 69.0394 46.6897 69.2238 49.637C69.3819 51.1091 69.3198 52.5966 69.0394 54.0504C68.9088 54.603 68.8012 55.2324 68.0711 55.3169C67.6331 55.3629 67.2489 54.7949 67.0798 53.989C66.8011 52.2108 66.7726 50.4023 66.9953 48.6162C67.0798 47.5954 67.1951 46.5745 67.3104 45.546C67.3674 44.8095 67.257 44.0696 66.9876 43.3816C66.1776 41.3537 65.9127 39.1496 66.2191 36.9879C66.533 35.2976 67.4918 33.795 68.8934 32.7971Z" fill="#FFDDB5"/>
<path d="M52.087 53.7204C50.1987 53.7082 48.3564 53.1368 46.7934 52.0785C45.2303 51.0202 44.0166 49.5227 43.306 47.7752C42.5954 46.0278 42.4196 44.1091 42.8011 42.262C43.1826 40.4148 44.1041 38.7221 45.449 37.3982C46.7939 36.0743 48.5017 35.1785 50.3565 34.8244C52.2112 34.4702 54.1295 34.6735 55.8685 35.4086C57.6075 36.1436 59.0892 37.3774 60.1259 38.9538C61.1627 40.5301 61.708 42.3782 61.6928 44.2642C61.6585 46.7854 60.631 49.1916 58.8331 50.9615C57.0351 52.7314 54.6114 53.7226 52.087 53.7204ZM52.1254 35.3607C50.3796 35.3683 48.6751 35.8917 47.2266 36.8651C45.7781 37.8384 44.6504 39.2181 43.9855 40.8303C43.3206 42.4426 43.1482 44.2153 43.4901 45.9252C43.832 47.6351 44.6729 49.2058 45.9068 50.4393C47.1407 51.6728 48.7125 52.514 50.4242 52.8569C52.1359 53.1999 53.9109 53.0293 55.5257 52.3665C57.1405 51.7038 58.5228 50.5787 59.4985 49.1328C60.4743 47.6869 60.9998 45.9849 61.0089 44.2412C61.0232 43.0688 60.8037 41.9053 60.3632 40.8185C59.9227 39.7317 59.27 38.7433 58.4431 37.9111C57.6162 37.0788 56.6318 36.4192 55.5471 35.9708C54.4625 35.5224 53.2993 35.2941 52.1254 35.2993V35.3607Z" fill="#231F20"/>
<path d="M52.1254 35.2994C53.8711 35.3161 55.5728 35.8483 57.0162 36.8292C58.4596 37.81 59.5801 39.1955 60.2367 40.8111C60.8932 42.4268 61.0563 44.2004 60.7056 45.9085C60.3548 47.6166 59.5058 49.1829 58.2655 50.41C57.0252 51.637 55.449 52.4701 53.7356 52.8042C52.0221 53.1383 50.248 52.9585 48.6367 52.2874C47.0254 51.6163 45.649 50.484 44.6807 49.0331C43.7125 47.5822 43.1958 45.8775 43.1957 44.1338C43.1967 42.9668 43.429 41.8116 43.8791 40.7346C44.3292 39.6577 44.9884 38.6805 45.8185 37.8592C46.6486 37.0379 47.6333 36.3889 48.7157 35.9496C49.7982 35.5103 50.957 35.2893 52.1254 35.2994ZM49.8661 37.9398C48.5964 38.0065 47.4004 38.5557 46.5232 39.4748C44.9094 41.0099 44.5252 43.9343 46.6001 45.4847C47.1117 45.8852 47.5373 46.3846 47.8515 46.9529C48.1657 47.5213 48.3621 48.147 48.429 48.7928C48.5292 49.4487 48.8521 50.0503 49.3435 50.4968C51.4184 52.4694 55.5681 51.4639 56.6056 48.67C56.9493 47.5816 57.6368 46.6337 58.5652 45.9683C60.8706 44.3641 59.9791 40.8871 57.9196 40.0352C57.0663 39.6821 56.1695 39.4446 55.253 39.329C54.2292 39.2355 53.2273 38.9762 52.2867 38.5615C51.5393 38.1727 50.7088 37.9699 49.8661 37.9705V37.9398Z" fill="#70C6B9"/>
<path d="M49.8661 37.9705C50.7121 37.971 51.5453 38.1765 52.2944 38.5691C53.235 38.9839 54.2368 39.2431 55.2607 39.3367C56.1771 39.4523 57.074 39.6897 57.9273 40.0428C59.9868 40.8948 60.8475 44.3718 58.5728 45.9759C57.6416 46.6402 56.9513 47.5882 56.6056 48.6777C55.5681 51.4715 51.4184 52.477 49.3435 50.5044C48.8521 50.058 48.5292 49.4564 48.429 48.8005C48.3621 48.1547 48.1657 47.5289 47.8515 46.9606C47.5373 46.3922 47.1117 45.8929 46.6001 45.4924C44.5252 43.9573 44.9094 41.0253 46.5232 39.4825C47.4041 38.5718 48.5997 38.0311 49.8661 37.9705ZM52.0716 50.8191C52.9936 50.8743 53.9065 50.6106 54.6566 50.0724C55.4068 49.5342 55.9485 48.7544 56.1906 47.8641C56.4262 46.9644 57.0056 46.1929 57.8044 45.715C58.2747 45.4721 58.6606 45.093 58.9115 44.6273C59.1624 44.1617 59.2667 43.6312 59.2107 43.1053C59.2036 42.5356 59.0204 41.982 58.6861 41.5203C58.3518 41.0587 57.8828 40.7115 57.3433 40.5264C56.8263 40.32 56.2875 40.1732 55.7372 40.0889C54.3136 39.9314 52.9193 39.5748 51.5951 39.0296C50.7677 38.6346 49.8277 38.5419 48.9389 38.7677C48.05 38.9935 47.2686 39.5235 46.7307 40.2654C46.4255 40.5851 46.19 40.9645 46.0391 41.3797C45.8882 41.7949 45.8253 42.2368 45.8541 42.6776C45.883 43.1184 46.0032 43.5484 46.207 43.9404C46.4107 44.3324 46.6938 44.6779 47.0381 44.9551C47.5788 45.3537 48.0327 45.8579 48.3722 46.4372C48.7117 47.0164 48.9298 47.6586 49.0131 48.3246C49.0983 49.0559 49.4652 49.7253 50.0362 50.191C50.6071 50.6566 51.3371 50.8819 52.0716 50.8191Z" fill="#231F20"/>
<path d="M52.0716 50.8191C51.3346 50.8861 50.6007 50.6627 50.0264 50.1966C49.452 49.7306 49.0829 49.0587 48.9977 48.3245C48.9144 47.6585 48.6964 47.0163 48.3568 46.4371C48.0173 45.8578 47.5634 45.3536 47.0227 44.955C46.6784 44.6778 46.3954 44.3323 46.1916 43.9403C45.9878 43.5483 45.8677 43.1183 45.8388 42.6775C45.8099 42.2368 45.8729 41.7948 46.0238 41.3796C46.1746 40.9644 46.4101 40.585 46.7153 40.2653C47.2533 39.5234 48.0347 38.9934 48.9235 38.7676C49.8123 38.5418 50.7523 38.6345 51.5798 39.0296C52.9039 39.5747 54.2983 39.9313 55.7218 40.0888C56.2721 40.1731 56.811 40.3199 57.3279 40.5263C57.8674 40.7114 58.3364 41.0586 58.6707 41.5203C59.005 41.9819 59.1882 42.5355 59.1953 43.1052C59.2514 43.6311 59.1471 44.1616 58.8962 44.6272C58.6452 45.0929 58.2593 45.472 57.789 45.7149C56.9903 46.1928 56.4109 46.9643 56.1752 47.864C55.9337 48.7516 55.3943 49.5294 54.6473 50.0673C53.9003 50.6052 52.991 50.8706 52.0716 50.8191ZM55.8602 44.3103C55.8617 43.6381 55.6637 42.9806 55.2912 42.4207C54.9187 41.8609 54.3885 41.4239 53.7675 41.1649C53.1464 40.906 52.4625 40.8366 51.802 40.9657C51.1416 41.0948 50.5342 41.4165 50.0568 41.8902C49.5793 42.3639 49.2531 42.9683 49.1194 43.6271C48.9857 44.2858 49.0504 44.9694 49.3055 45.5914C49.5606 46.2134 49.9946 46.746 50.5525 47.1218C51.1105 47.4976 51.7675 47.6998 52.4405 47.7028C53.3434 47.7028 54.2098 47.3462 54.8504 46.7106C55.4911 46.075 55.8541 45.2121 55.8602 44.3103Z" fill="white"/>
<path d="M55.8601 44.3104C55.8616 44.9848 55.6622 45.6445 55.2874 46.2054C54.9125 46.7664 54.3791 47.2034 53.7549 47.4607C53.1307 47.7181 52.444 47.7843 51.7821 47.6508C51.1202 47.5173 50.513 47.1902 50.0377 46.7112C49.5624 46.2321 49.2404 45.6227 49.1128 44.9604C48.9852 44.2981 49.0577 43.6128 49.321 42.9918C49.5844 42.3707 50.0267 41.8419 50.5917 41.4726C51.1568 41.1033 51.819 40.9102 52.4942 40.9178C53.3897 40.9259 54.2458 41.2869 54.8762 41.9222C55.5065 42.5576 55.8602 43.4159 55.8601 44.3104ZM49.7585 44.2643C49.7555 44.7991 49.9119 45.3227 50.2078 45.7684C50.5037 46.2141 50.9257 46.5617 51.4201 46.7671C51.9145 46.9724 52.4589 47.0261 52.984 46.9214C53.509 46.8167 53.991 46.5582 54.3685 46.179C54.746 45.7998 55.002 45.3169 55.1039 44.7918C55.2057 44.2668 55.1488 43.7234 54.9404 43.2308C54.7319 42.7382 54.3814 42.3187 53.9335 42.0257C53.4856 41.7327 52.9605 41.5795 52.4251 41.5856C51.7189 41.5975 51.0453 41.8841 50.5473 42.3843C50.0494 42.8845 49.7664 43.559 49.7585 44.2643Z" fill="#231F20"/>
<path d="M49.7585 44.2643C49.7751 43.7351 49.9475 43.2224 50.2541 42.7905C50.5608 42.3585 50.9881 42.0264 51.4826 41.8356C51.9772 41.6448 52.517 41.6038 53.0348 41.7177C53.5525 41.8317 54.0252 42.0954 54.3937 42.4761C54.7622 42.8568 55.0102 43.3375 55.1067 43.8582C55.2033 44.3788 55.144 44.9163 54.9365 45.4036C54.7289 45.8908 54.3822 46.3062 53.9396 46.5977C53.497 46.8893 52.9783 47.0441 52.4481 47.0428C52.0883 47.0388 51.7327 46.9636 51.4022 46.8214C51.0716 46.6792 50.7726 46.4729 50.5224 46.2145C50.2723 45.9561 50.0759 45.6506 49.9448 45.3159C49.8137 44.9811 49.7503 44.6237 49.7585 44.2643Z" fill="#FBB040"/>
</g>
<defs>
<clipPath id="clip0_186_4026">
<rect width="70" height="56" fill="white"/>
</clipPath>
</defs>
</svg>
