<svg width="86" height="118" viewBox="0 0 86 118" fill="none" xmlns="http://www.w3.org/2000/svg">
<g clip-path="url(#clip0_427_6699)">
<path d="M85.1307 0.296585H0.130737V117.51H85.1307V0.296585Z" fill="#E7B7D5"/>
<path d="M0.130737 117.51H6.86567L0.130737 115.21V117.51Z" fill="#010101"/>
<path d="M58.8009 84.8773C59.8811 80.7855 58.0131 77.634 54.8235 75.2958C57.2761 72.3985 60.0336 73.0212 62.8546 74.3174C62.9817 74.3174 63.1596 74.3174 63.2867 74.3174C64.7499 74.8687 66.3716 74.8202 67.7992 74.1825C69.2269 73.5448 70.3452 72.3694 70.9111 70.9118C72.5546 66.3202 74.1176 61.7074 75.6002 57.0734C76.693 53.7059 75.13 50.834 71.7244 49.6141C70.5299 49.1948 69.3481 48.7119 68.1536 48.3434C60.4148 45.7002 52.6887 42.9936 44.9117 40.4648C44.1636 40.2253 43.375 40.1386 42.5927 40.2101C41.8104 40.2815 41.0505 40.5096 40.3582 40.8806C39.6658 41.2517 39.0552 41.7582 38.5625 42.3701C38.0699 42.9819 37.7054 43.6866 37.4906 44.4422C36.4486 47.4412 35.3557 50.4401 34.4027 53.4645C33.9706 54.8369 33.2082 55.091 31.8612 55.0021C24.7959 54.4938 17.7051 54.0871 10.6398 53.6297C9.80109 53.6297 9.03864 53.4136 8.68284 52.3589C8.46166 51.9279 8.14738 51.5515 7.76275 51.257C7.37813 50.9625 6.93279 50.7573 6.45903 50.6561C4.33689 49.9191 2.21475 49.2202 0.10532 48.5213V52.1937C1.83026 52.7098 3.50922 53.3686 5.12476 54.1634C6.31926 54.7988 4.90873 56.1712 4.71812 57.2132C4.56563 58.0264 3.95567 57.9629 3.20594 57.6579C2.18934 57.2513 1.14733 56.9336 0.10532 56.5905V60.2629L9.92817 63.5923C11.1989 64.0117 12.279 64.2023 13.0796 62.8553C13.3846 61.0889 12.2917 60.6696 10.8685 60.1613C9.90275 59.8182 7.99663 60.1613 8.13642 58.4712C8.30161 56.4253 10.1188 57.0988 11.3768 57.2005C18.0609 57.6071 24.745 58.1027 31.4291 58.4712C32.5601 58.4712 32.6999 59.0812 32.6999 59.8563C32.8778 63.1094 34.7331 64.9393 37.6812 65.8669C41.4934 67.1377 45.1913 68.3195 48.9654 69.5267C50.0201 69.8698 50.9096 70.0858 50.2361 71.6742C49.6897 73.0212 49.2958 73.5295 47.6947 72.945C41.1376 70.556 34.5298 68.2686 27.9092 66.0194C26.6384 65.6128 25.2787 64.9647 24.1986 66.4388C24.0207 68.4084 25.3804 68.9803 26.8926 69.4886C34.9915 72.191 43.0734 74.9189 51.1384 77.6721C54.9506 78.9429 56.107 81.6369 54.7346 85.5634C52.7141 91.3326 50.9223 97.1653 48.9019 102.947C47.2499 107.814 45.5598 112.668 43.8189 117.523H47.4024C49.9439 110.025 52.5997 102.591 55.1666 95.1067C56.4882 91.7011 57.886 88.3591 58.8009 84.8773ZM54.6456 69.2598C54.6456 67.4935 53.108 67.3029 52.1041 66.9089C48.635 65.6382 45.115 64.4437 41.5697 63.3636C35.9022 61.6099 35.0253 61.5337 37.5033 55.1673C38.6597 52.181 39.6127 49.1058 40.6674 46.0815C41.4299 43.9085 42.5481 43.2477 44.7084 43.9593C53.3495 46.8566 61.9736 49.8217 70.5807 52.8545C70.9546 52.9755 71.2983 53.175 71.5888 53.4396C71.8793 53.7042 72.1098 54.0278 72.2651 54.3888C72.4203 54.7498 72.4966 55.1398 72.4888 55.5327C72.481 55.9255 72.3894 56.3122 72.22 56.6668C70.8476 60.9026 69.4201 65.0833 67.9376 69.209C67.2006 71.2549 66.0442 71.6742 63.7823 70.9626C62.7657 70.6322 61.7109 70.4162 60.7325 69.9968C59.9544 69.5483 59.067 69.3251 58.1694 69.352C57.2717 69.3789 56.3993 69.655 55.6495 70.1493C54.6456 70.7339 54.5185 70.556 54.6456 69.2598Z" fill="#010101"/>
<path d="M54.8235 85.5507C56.1959 81.6241 55.1031 78.981 51.2273 77.6594C43.1793 74.9146 35.0973 72.1868 26.9815 69.4758C25.4693 68.9675 24.1097 68.3957 24.2876 66.4261L20.3737 65.4349C19.9035 66.1719 19.446 66.7056 18.3659 66.4769C17.0952 66.1719 16.8918 65.2824 16.8156 64.2404L13.0034 62.8553C12.2028 64.2023 11.0718 64.0116 9.85192 63.5923L0.118027 60.2502V63.9481C13.8929 68.6753 27.6762 73.377 41.468 78.0533C44.3653 79.0318 47.288 79.9595 50.1726 80.9506C51.1002 81.2683 52.2058 81.5225 51.9898 83.3905C51.3417 85.3093 50.6046 87.6856 49.7278 89.9983C47.5803 95.6404 49.0798 95.2465 43.0946 93.2387C29.1926 88.5878 15.3034 83.9623 1.47772 79.1081L0.118027 78.6379V84.0386L2.58327 84.9027C3.02457 85.0462 3.39778 85.3468 3.63204 85.7474C3.8663 86.148 3.94529 86.6206 3.85401 87.0756C3.72694 87.8635 3.16781 88.5243 1.85895 88.3464L0.143447 87.7745V91.3453C1.68105 91.879 3.24405 92.4 4.78165 92.9465C5.5441 93.2133 6.53528 93.3531 6.71319 94.4332C6.81398 94.745 6.84119 95.076 6.79269 95.4C6.74418 95.7241 6.62128 96.0326 6.43362 96.3012C6.20395 96.5361 5.90708 96.6941 5.58391 96.7532C5.26075 96.8124 4.92718 96.7699 4.62917 96.6316L0.143447 95.094V98.7919L3.02803 99.7704C3.4586 99.8715 3.84582 100.107 4.13367 100.443C4.42151 100.779 4.59505 101.197 4.62917 101.638C4.24795 102.909 3.59987 103.57 1.99873 103.011L0.143447 102.375V115.223L6.87838 117.523H28.0744C27.7081 116.725 27.5133 115.859 27.5025 114.981C27.5989 113.546 28.2237 112.197 29.2563 111.194C30.2888 110.192 31.656 109.608 33.0938 109.555C33.8107 109.543 34.5226 109.676 35.1863 109.947C35.85 110.219 36.4515 110.622 36.9543 111.133C37.4571 111.645 37.8507 112.253 38.1111 112.921C38.3715 113.589 38.4933 114.303 38.4691 115.019C38.5009 115.889 38.3449 116.756 38.0116 117.561H43.9587C45.6488 112.707 47.3388 107.852 49.0416 102.985C50.9605 97.1526 52.803 91.3199 54.8235 85.5507ZM17.667 115.566C15.2526 115.566 12.4188 112.49 12.4442 109.962C12.5116 108.483 13.1386 107.086 14.198 106.052C15.2574 105.019 16.6702 104.427 18.1499 104.396C19.6222 104.467 21.0114 105.1 22.0323 106.163C23.0531 107.226 23.6282 108.64 23.6395 110.114C23.6136 110.867 23.4376 111.607 23.1217 112.291C22.8059 112.975 22.3566 113.589 21.8002 114.097C21.2439 114.604 20.5917 114.996 19.8819 115.248C19.1721 115.501 18.4191 115.608 17.667 115.566ZM36.7281 106.366C31.2006 104.77 25.7588 102.891 20.4245 100.736C19.2198 100.116 18.2806 99.0806 17.7806 97.8213C17.2806 96.5621 17.2538 95.1643 17.7051 93.8868C17.9151 93.2367 18.2519 92.6346 18.696 92.1153C19.14 91.5961 19.6825 91.1699 20.2922 90.8615C20.9019 90.5532 21.5666 90.3686 22.248 90.3186C22.9294 90.2686 23.614 90.3541 24.2621 90.5702C29.5484 92.184 34.8474 93.8233 39.9812 95.8946C42.0907 96.7587 43.641 98.2201 43.3233 100.825C44.1239 104.053 39.8669 107.408 36.7027 106.366H36.7281Z" fill="#FFCE6A"/>
<path d="M55.6749 70.0604C56.4247 69.5661 57.2971 69.29 58.1948 69.2631C59.0924 69.2361 59.9799 69.4594 60.7579 69.9079C61.7364 70.3273 62.7911 70.5433 63.8077 70.8737C66.0696 71.5853 67.226 71.1659 67.963 69.12C69.4455 64.952 70.873 60.7713 72.2454 56.5778C72.4148 56.2232 72.5064 55.8366 72.5142 55.4437C72.522 55.0508 72.4457 54.6608 72.2905 54.2999C72.1353 53.9389 71.9047 53.6152 71.6142 53.3506C71.3237 53.086 70.98 52.8865 70.6061 52.7656C61.999 49.7412 53.3749 46.7761 44.7338 43.8704C42.5736 43.1588 41.4553 43.8704 40.6929 45.9925C39.6381 49.0169 38.6851 52.0921 37.5287 55.0783C34.9872 61.432 35.9276 61.521 41.5951 63.2746C45.1405 64.3548 48.6604 65.5238 52.1295 66.82C53.197 67.2139 54.7854 67.4045 54.671 69.1709C54.5185 70.556 54.6456 70.7339 55.6749 70.0604ZM60.8722 58.0519C61.9651 58.0519 62.3717 58.7508 62.7148 59.742C62.1811 60.2757 62.232 61.4193 61.0502 61.3558C59.8684 61.2923 59.1568 60.8983 59.1695 59.5513C59.1822 58.2043 59.9065 58.1027 60.8341 58.0519H60.8722ZM47.5803 56.9336C47.3664 56.9631 47.1485 56.944 46.943 56.8777C46.7375 56.8114 46.5496 56.6996 46.3933 56.5506C46.2369 56.4016 46.1162 56.2193 46.0401 56.0172C45.964 55.8151 45.9345 55.5984 45.9537 55.3833C45.9315 55.1473 45.9604 54.9093 46.0383 54.6855C46.1163 54.4617 46.2415 54.2572 46.4054 54.0861C46.5693 53.9149 46.7682 53.781 46.9884 53.6935C47.2087 53.606 47.4452 53.5669 47.6819 53.5788C48.7748 53.5788 49.4864 54.0236 49.4102 55.1927C49.5118 56.6286 48.2665 56.8319 47.5422 56.9336H47.5803ZM54.2517 59.1447C54.0347 59.1685 53.8152 59.1453 53.608 59.077C53.4008 59.0086 53.2106 58.8966 53.0504 58.7484C52.8902 58.6002 52.7636 58.4194 52.6793 58.2181C52.595 58.0168 52.5548 57.7998 52.5616 57.5817C52.5507 57.3452 52.5893 57.109 52.6749 56.8883C52.7605 56.6675 52.8911 56.467 53.0585 56.2996C53.226 56.1322 53.4264 56.0015 53.6472 55.916C53.868 55.8304 54.1041 55.7918 54.3406 55.8026C55.6114 55.701 55.9036 56.5143 56.0688 57.5309C56.0673 57.7634 56.0162 57.993 55.9191 58.2044C55.822 58.4157 55.681 58.6039 55.5055 58.7566C55.33 58.9092 55.124 59.0228 54.9013 59.0897C54.6785 59.1566 54.4441 59.1754 54.2136 59.1447H54.2517Z" fill="#F69173"/>
<path d="M16.9427 63.9481V64.0498C17.451 63.4271 17.8068 62.5884 18.9504 63.0713C19.3921 63.2196 19.7694 63.5152 20.0192 63.9084C20.269 64.3016 20.3762 64.7687 20.3228 65.2315L20.5516 65.1172C21.897 65.0559 23.2151 65.5104 24.2367 66.3879C25.3169 64.9139 26.7782 65.5619 27.9473 65.9686C34.5679 68.2178 41.1757 70.5051 47.7328 72.8941C49.2831 73.4533 49.677 72.8941 50.2742 71.6234C50.8969 70.035 50.0074 69.8189 49.0035 69.4758C45.1913 68.2686 41.4807 67.036 37.7193 65.8161C34.7712 64.8757 32.9159 63.0586 32.738 59.8055C32.738 59.0303 32.5474 58.5347 31.4672 58.4204C24.7831 58.0646 18.099 57.569 11.4149 57.1496C10.1442 57.0734 8.33973 56.3999 8.17454 58.4204C8.03476 60.0977 9.94086 59.7674 10.9066 60.1105C12.3299 60.6188 13.4481 61.0381 13.1177 62.8044C14.5537 62.3724 15.7482 63.1475 16.9427 63.9481Z" fill="#E7B7D5"/>
<path d="M16.9935 64.0498V63.9481C15.799 63.1476 14.6045 62.3724 13.0669 62.8553L16.8791 64.2404L16.9935 64.0498Z" fill="#E7B7D5"/>
<path d="M20.3737 65.2316C20.3673 65.2992 20.3673 65.3673 20.3737 65.4349L24.2876 66.4261C23.2659 65.5485 21.9478 65.094 20.6024 65.1553L20.3737 65.2316Z" fill="#E7B7D5"/>
<path d="M4.74353 57.2005C4.93414 56.1585 6.34467 54.786 5.15017 54.1507C3.53463 53.3559 1.85568 52.697 0.130737 52.181V56.5778C1.17275 56.9209 2.21476 57.2386 3.23135 57.6452C3.98109 57.9502 4.59104 58.0137 4.74353 57.2005Z" fill="#6D92AC"/>
<path d="M43.1073 93.2387C49.0925 95.2465 47.593 95.6404 49.7406 89.9983C50.6174 87.6856 51.3544 85.3093 52.0025 83.3905C52.2185 81.5225 51.1129 81.2683 50.1853 80.9506C47.3007 79.9595 44.378 79.0318 41.4807 78.0533C27.6974 73.3685 13.9141 68.6668 0.130737 63.9481V67.4808C8.88616 70.4924 17.6416 73.5295 26.4224 76.503C27.528 76.8716 27.6932 77.3926 27.4009 78.3456C26.9208 79.3663 26.5379 80.43 26.2572 81.5225C25.9522 83.4286 25.1771 83.6827 23.4489 82.9838C22.1781 82.4755 21.9113 82.0435 22.4831 80.8744C22.9024 80.023 23.1693 79.1843 21.8859 78.6633C20.6024 78.1423 19.7891 78.46 19.446 79.5528C18.925 81.2429 18.0736 81.065 16.7648 80.544C15.8117 80.1501 15.2399 80.0611 15.8117 78.7904C15.944 78.5446 16.0196 78.2722 16.0328 77.9934C16.046 77.7145 15.9965 77.4363 15.888 77.1791C15.7795 76.9218 15.6147 76.6922 15.4058 76.5071C15.1969 76.3219 14.9491 76.1859 14.6807 76.1091C13.41 75.6898 12.6603 76.6937 12.4697 77.6467C11.9741 79.9595 10.6652 78.2694 9.8265 78.2185C8.98781 78.1677 8.19995 77.6213 8.88616 76.3887C9.02631 76.1861 9.11938 75.9547 9.15856 75.7115C9.19773 75.4683 9.18202 75.2195 9.11258 74.9831C9.04314 74.7468 8.92173 74.529 8.75722 74.3456C8.59272 74.1623 8.38929 74.018 8.16183 73.9234C7.4121 73.6312 6.14135 73.6057 5.92532 74.6605C5.3662 77.4688 3.8413 76.2108 2.43078 75.6771C2.15958 75.5901 1.88384 75.518 1.60479 75.461C1.70204 75.318 1.78302 75.1646 1.84624 75.0036C2.01144 73.8853 3.19323 72.4621 1.57938 71.7505C1.13122 71.5248 0.616066 71.4706 0.130737 71.598V78.6379L1.49043 79.1081C15.3161 83.9623 29.2053 88.5878 43.1073 93.2387ZM29.5993 82.8059C31.2004 78.0279 31.2004 78.0152 35.737 79.6164C39.3967 80.8871 42.9929 82.412 46.7035 83.4286C48.2792 83.8734 48.114 84.4325 47.6692 85.4999C47.1784 86.4336 46.8029 87.4236 46.551 88.448C46.2206 90.621 45.1913 90.3923 43.5901 89.7188C42.599 89.3121 42.3194 89.0453 42.8023 88.0414C43.2852 87.0375 43.1708 85.8049 41.7857 85.3347C40.4006 84.8645 39.689 86.0082 39.4602 86.9867C39.1553 88.2574 38.1895 88.1303 37.7447 87.7237C37.3 87.3171 35.2033 87.7237 36.0419 85.7922C36.2028 85.5479 36.3036 85.269 36.3361 84.9783C36.3687 84.6877 36.332 84.3934 36.2292 84.1196C36.1264 83.8458 35.9603 83.6002 35.7444 83.4028C35.5286 83.2054 35.2691 83.0618 34.9872 82.9838C33.3098 82.3739 33.0303 83.6573 32.7507 84.6612C32.4711 85.6651 32.128 85.8176 31.086 85.3728C30.4049 84.9103 29.5752 84.7199 28.7606 84.8391C29.091 84.0767 29.3832 83.454 29.5993 82.8059Z" fill="#010101"/>
<path d="M39.9812 95.9327C34.8983 93.8614 29.5484 92.2221 24.2621 90.6083C23.6172 90.3911 22.9358 90.3034 22.2569 90.35C21.578 90.3967 20.9149 90.5769 20.3058 90.8803C19.6967 91.1837 19.1534 91.6043 18.7071 92.118C18.2608 92.6318 17.9203 93.2285 17.7051 93.8741C17.2503 95.1533 17.2753 96.554 17.7755 97.8161C18.2757 99.0782 19.217 100.116 20.4245 100.736C25.7503 102.895 31.1835 104.778 36.7027 106.378C39.8669 107.42 44.1239 104.065 43.3233 100.876C43.641 98.2582 42.0907 96.7968 39.9812 95.9327ZM37.8845 103.112C36.6138 102.655 35.2287 102.172 33.8817 101.715C30.2601 100.444 26.6384 99.3002 23.0041 98.1184C21.5555 97.6482 20.361 96.8477 21.009 95.2211C21.6571 93.5946 22.8516 93.5691 24.3892 94.1155C29.0401 95.8099 33.7249 97.4152 38.4436 98.9317C38.9564 99.1057 39.3897 99.4579 39.6649 99.9242C39.94 100.391 40.0388 100.94 39.9431 101.473C39.8735 101.957 39.6217 102.397 39.2391 102.701C38.8565 103.006 38.3719 103.153 37.8845 103.112Z" fill="#010201"/>
<path d="M6.42091 96.2885C6.60857 96.0199 6.73147 95.7114 6.77998 95.3874C6.82848 95.0633 6.80127 94.7323 6.70048 94.4205C6.52257 93.3404 5.5314 93.1498 4.76895 92.9338C3.23135 92.3873 1.66834 91.8663 0.130737 91.3326V95.1449L4.61646 96.6825C4.92076 96.8131 5.25829 96.8453 5.58183 96.7747C5.90537 96.7041 6.19873 96.5341 6.42091 96.2885Z" fill="#020201"/>
<path d="M4.61646 101.626C4.58234 101.185 4.4088 100.766 4.12096 100.43C3.83311 100.094 3.44589 99.8588 3.01532 99.7576L0.130737 98.7792V102.363L1.98602 102.998C3.57445 103.557 4.23524 102.947 4.61646 101.626Z" fill="#010101"/>
<path d="M33.0938 109.542C31.656 109.596 30.2888 110.18 29.2563 111.182C28.2237 112.184 27.5989 113.533 27.5025 114.968C27.5133 115.846 27.7081 116.712 28.0744 117.51H38.0116C38.3449 116.705 38.5009 115.839 38.4691 114.968C38.488 114.255 38.3623 113.545 38.0996 112.882C37.8368 112.218 37.4424 111.615 36.9401 111.108C36.4379 110.601 35.8382 110.2 35.1771 109.931C34.5161 109.662 33.8074 109.53 33.0938 109.542ZM33.0938 117.167C32.8025 117.176 32.5128 117.121 32.2453 117.005C31.9779 116.889 31.7391 116.716 31.5462 116.498C31.3533 116.279 31.2109 116.021 31.1292 115.741C31.0474 115.462 31.0284 115.167 31.0733 114.88C31.0693 114.625 31.1179 114.373 31.216 114.139C31.3141 113.905 31.4596 113.693 31.6434 113.518C31.8272 113.342 32.0453 113.207 32.2839 113.12C32.5226 113.033 32.7767 112.996 33.0303 113.012C34.5933 113.075 34.911 114.142 35.1397 115.553C35.0593 116.044 34.8014 116.489 34.415 116.803C34.0285 117.117 33.5403 117.278 33.043 117.256L33.0938 117.167Z" fill="#030301"/>
<path d="M18.1499 104.396C16.6746 104.433 15.2682 105.028 14.2141 106.061C13.1601 107.094 12.5367 108.487 12.4697 109.962C12.4697 112.503 15.278 115.54 17.6924 115.566C18.4445 115.608 19.1975 115.501 19.9073 115.248C20.6171 114.996 21.2693 114.604 21.8257 114.097C22.382 113.589 22.8313 112.975 23.1472 112.291C23.463 111.607 23.639 110.867 23.6649 110.114C23.6533 108.636 23.0747 107.219 22.0485 106.155C21.0223 105.09 19.6267 104.461 18.1499 104.396ZM17.8957 112.02C17.6273 112.026 17.3609 111.974 17.1143 111.868C16.8678 111.761 16.6468 111.604 16.4662 111.405C16.2856 111.206 16.1497 110.972 16.0675 110.716C15.9853 110.46 15.9587 110.19 15.9896 109.924C15.9749 109.653 16.0175 109.382 16.1145 109.129C16.2115 108.875 16.3607 108.645 16.5525 108.453C16.7443 108.262 16.9744 108.112 17.2277 108.015C17.481 107.918 17.7519 107.876 18.0228 107.89C19.0013 107.89 20.0814 108.513 20.0687 110.432C20.3101 111.614 18.9759 112.058 17.8957 112.046V112.02Z" fill="#030301"/>
<path d="M3.84131 87.0756C3.93258 86.6206 3.85359 86.148 3.61933 85.7474C3.38507 85.3468 3.01186 85.0462 2.57056 84.9026L0.10532 84.0386V87.7618L1.82083 88.3337C3.15511 88.5243 3.71423 87.8635 3.84131 87.0756Z" fill="#020201"/>
<path d="M17.0443 64.1387C18.099 66.1338 18.3151 66.21 20.2847 65.2697C20.1693 64.9634 19.9881 64.6862 19.7538 64.4576C19.5195 64.229 19.2379 64.0546 18.9289 63.9468C18.6198 63.8389 18.2909 63.8002 17.9653 63.8334C17.6397 63.8665 17.3253 63.9708 17.0443 64.1387Z" fill="#15120C"/>
<path d="M20.2847 65.2697C18.2515 66.21 18.099 66.1338 17.0443 64.1387L16.8156 64.2404C16.8918 65.2824 17.0697 66.1719 18.3659 66.4769C19.446 66.731 19.9035 66.1719 20.3737 65.4349C20.3483 65.3713 20.3101 65.3205 20.2847 65.2697Z" fill="#15120C"/>
<path d="M20.2847 65.2697H20.3737C20.427 64.8069 20.3198 64.3398 20.07 63.9465C19.8202 63.5533 19.4429 63.2578 19.0013 63.1094C17.8576 62.6265 17.5018 63.4652 16.9935 64.0879V64.1768C17.2737 63.9986 17.59 63.885 17.9196 63.8442C18.2491 63.8035 18.5836 63.8367 18.8988 63.9413C19.2139 64.046 19.5018 64.2195 19.7415 64.4492C19.9812 64.679 20.1668 64.9593 20.2847 65.2697Z" fill="#15120C"/>
<path d="M16.9935 64.0498L16.8156 64.2404L17.0443 64.1387L16.9935 64.0498Z" fill="#15120C"/>
<path d="M20.2847 65.2697C20.2847 65.2697 20.2847 65.3713 20.3737 65.4349C20.3673 65.3673 20.3673 65.2992 20.3737 65.2316L20.2847 65.2697Z" fill="#15120C"/>
<path d="M47.6438 53.5788C47.4071 53.5669 47.1706 53.606 46.9503 53.6935C46.7301 53.781 46.5312 53.9149 46.3673 54.0861C46.2033 54.2572 46.0781 54.4617 46.0002 54.6855C45.9223 54.9093 45.8934 55.1473 45.9156 55.3833C45.8964 55.5984 45.9259 55.8151 46.002 56.0172C46.0781 56.2193 46.1988 56.4016 46.3551 56.5506C46.5115 56.6996 46.6994 56.8114 46.9049 56.8777C47.1104 56.944 47.3282 56.9631 47.5422 56.9336C48.2665 56.8319 49.5118 56.6286 49.372 55.1927C49.4483 54.0236 48.7367 53.5534 47.6438 53.5788Z" fill="#150906"/>
<path d="M56.0307 57.5309C55.8655 56.5143 55.5351 55.701 54.3025 55.8026C54.066 55.7918 53.8298 55.8304 53.6091 55.916C53.3883 56.0015 53.1878 56.1322 53.0204 56.2996C52.853 56.467 52.7223 56.6675 52.6368 56.8883C52.5512 57.109 52.5126 57.3452 52.5235 57.5817C52.5167 57.7998 52.5569 58.0168 52.6412 58.2181C52.7255 58.4194 52.8521 58.6002 53.0123 58.7484C53.1725 58.8966 53.3626 59.0086 53.5699 59.077C53.7771 59.1454 53.9966 59.1685 54.2136 59.1447C54.4412 59.1696 54.6715 59.1465 54.8896 59.0769C55.1077 59.0073 55.3089 58.8928 55.4801 58.7408C55.6513 58.5888 55.7887 58.4025 55.8835 58.1942C55.9784 57.9858 56.0285 57.7598 56.0307 57.5309Z" fill="#160A06"/>
<path d="M61.012 61.3431C62.1938 61.4066 62.143 60.2629 62.6767 59.7292C62.3336 58.7381 61.927 57.9756 60.8341 58.0391C59.7413 58.1027 59.144 58.3314 59.1313 59.5386C59.1186 60.7458 59.8938 61.3431 61.012 61.3431Z" fill="#160A06"/>
<path d="M1.57938 71.7505C3.19323 72.4875 2.01144 73.8853 1.84624 75.0036C1.78302 75.1646 1.70204 75.318 1.60479 75.461C1.88384 75.518 2.15958 75.5901 2.43078 75.6771C3.8413 76.2108 5.3662 77.4688 5.92532 74.6605C6.14135 73.6057 7.41209 73.6312 8.16183 73.9234C8.38929 74.018 8.59272 74.1623 8.75722 74.3456C8.92173 74.529 9.04314 74.7468 9.11258 74.9831C9.18202 75.2195 9.19773 75.4683 9.15856 75.7115C9.11938 75.9547 9.02631 76.1861 8.88616 76.3887C8.19995 77.6594 8.82262 78.1677 9.8265 78.2185C10.8304 78.2694 11.9741 79.9595 12.4697 77.6467C12.6603 76.6937 13.3846 75.6898 14.6807 76.1091C14.9491 76.1859 15.1969 76.3219 15.4058 76.5071C15.6147 76.6922 15.7795 76.9218 15.888 77.1791C15.9965 77.4363 16.046 77.7145 16.0328 77.9934C16.0196 78.2722 15.944 78.5446 15.8117 78.7904C15.2399 80.0611 15.8117 80.1501 16.7648 80.544C18.0355 81.065 18.925 81.2429 19.446 79.5528C19.7891 78.46 20.7168 78.2058 21.8859 78.6633C23.0549 79.1208 22.9024 80.023 22.4831 80.8744C21.9113 82.0435 22.229 82.4755 23.4489 82.9838C25.1771 83.6827 25.9904 83.4286 26.2572 81.5225C26.5379 80.43 26.9208 79.3663 27.4009 78.3456C27.744 77.3926 27.528 76.8716 26.4224 76.503C17.6416 73.5295 8.88616 70.4924 0.130737 67.4808V71.598C0.616066 71.4706 1.13122 71.5248 1.57938 71.7505Z" fill="white"/>
<path d="M31.086 85.4872C32.128 85.9319 32.3568 85.8684 32.7507 84.7756C33.1446 83.6827 33.3098 82.4882 34.9872 83.0982C35.2691 83.1762 35.5286 83.3198 35.7444 83.5171C35.9603 83.7145 36.1264 83.9602 36.2292 84.234C36.332 84.5078 36.3687 84.802 36.3361 85.0927C36.3036 85.3834 36.2028 85.6622 36.0419 85.9065C35.216 87.8635 37.1602 87.2917 37.7447 87.8381C38.3293 88.3845 39.1553 88.4226 39.4602 87.101C39.689 86.1226 40.3243 84.9535 41.7857 85.4491C43.247 85.9447 43.3106 87.0121 42.8023 88.1558C42.294 89.2994 42.599 89.4265 43.5901 89.8331C45.1913 90.4812 46.2206 90.7099 46.551 88.5624C46.8029 87.538 47.1784 86.548 47.6692 85.6143C48.114 84.5468 48.2792 83.9877 46.7035 83.543C42.9929 82.4755 39.3967 81.0015 35.737 79.7307C31.2004 78.1296 31.2004 78.1423 29.5993 82.9203C29.3832 83.5684 29.091 84.191 28.7606 85.0297C29.5656 84.8881 30.3946 85.0512 31.086 85.4872Z" fill="white"/>
<path d="M38.3928 98.9317C33.6741 97.4068 28.9893 95.8014 24.3384 94.1155C22.8008 93.5691 21.53 93.7343 20.9582 95.2211C20.3864 96.7079 21.5046 97.6482 22.9533 98.1184C26.5876 99.3002 30.2092 100.507 33.8308 101.715C35.1778 102.172 36.4994 102.655 37.8337 103.112C38.3288 103.152 38.82 102.998 39.204 102.683C39.5879 102.368 39.8346 101.916 39.8923 101.422C39.9749 100.897 39.8699 100.36 39.5957 99.9042C39.3215 99.4487 38.8956 99.1044 38.3928 98.9317Z" fill="#35C4EA"/>
<path d="M32.9794 113.05C32.7259 113.034 32.4718 113.071 32.2331 113.158C31.9944 113.245 31.7764 113.38 31.5926 113.556C31.4088 113.731 31.2633 113.943 31.1652 114.177C31.0671 114.411 31.0185 114.664 31.0225 114.918C30.9775 115.206 30.9966 115.5 31.0783 115.78C31.1601 116.059 31.3024 116.318 31.4954 116.536C31.6883 116.754 31.927 116.928 32.1945 117.043C32.462 117.159 32.7517 117.214 33.043 117.205C33.5262 117.216 33.9976 117.054 34.3725 116.749C34.7474 116.444 35.0014 116.016 35.0889 115.54C34.8601 114.181 34.5425 113.113 32.9794 113.05Z" fill="#EB5C7B"/>
<path d="M18.0228 107.916C17.7519 107.901 17.481 107.944 17.2277 108.041C16.9744 108.138 16.7443 108.287 16.5525 108.479C16.3607 108.671 16.2115 108.901 16.1145 109.154C16.0175 109.407 15.9749 109.678 15.9896 109.949C15.9587 110.216 15.9853 110.486 16.0675 110.741C16.1497 110.997 16.2856 111.232 16.4662 111.431C16.6468 111.629 16.8678 111.787 17.1143 111.893C17.3609 111.999 17.6273 112.051 17.8957 112.046C18.9759 112.046 20.3101 111.614 20.0687 110.495C20.0941 108.538 19.0013 107.954 18.0228 107.916Z" fill="#8DC888"/>
<path d="M15.8498 12.8642H17.1206V20.7683H15.8498V12.8642Z" fill="#010101"/>
<path d="M25.355 12.8515V20.7683H24.0842L20.1831 14.8593V20.7683H18.8234V12.8515H20.0941L23.9953 18.7478V12.8515H25.355Z" fill="#010101"/>
<path d="M27.0578 12.8642H31.7214V13.919H28.3539V16.2444H30.9717V17.3118H28.3539V20.7683H27.0832L27.0578 12.8642Z" fill="#010101"/>
<path d="M36.5248 20.8445C35.7261 20.8445 34.9454 20.6078 34.2811 20.1643C33.6168 19.7209 33.0989 19.0905 32.7927 18.3529C32.4865 17.6152 32.4057 16.8034 32.5606 16.0198C32.7155 15.2363 33.0991 14.5163 33.663 13.9506C34.2268 13.385 34.9457 12.9991 35.7287 12.8418C36.5117 12.6844 37.3238 12.7626 38.0624 13.0665C38.801 13.3704 39.433 13.8864 39.8786 14.5493C40.3241 15.2121 40.5633 15.9921 40.5658 16.7908C40.5779 17.3254 40.4817 17.8569 40.2831 18.3533C40.0844 18.8498 39.7874 19.3009 39.4099 19.6796C39.0324 20.0583 38.5822 20.3567 38.0864 20.5569C37.5906 20.7571 37.0594 20.8549 36.5248 20.8445ZM36.5248 19.7262C37.1096 19.7696 37.6939 19.636 38.2017 19.3429C38.7096 19.0498 39.1176 18.6107 39.3726 18.0826C39.6276 17.5546 39.7179 16.9621 39.6318 16.3821C39.5456 15.8021 39.287 15.2614 38.8895 14.8303C38.492 14.3992 37.974 14.0976 37.4028 13.9648C36.8317 13.832 36.2338 13.874 35.6869 14.0854C35.1399 14.2969 34.6692 14.668 34.336 15.1504C34.0027 15.6329 33.8223 16.2045 33.8181 16.7908C33.7824 17.1659 33.8261 17.5442 33.9463 17.9012C34.0666 18.2582 34.2607 18.5859 34.5161 18.8628C34.7715 19.1398 35.0824 19.3598 35.4285 19.5086C35.7746 19.6573 36.1481 19.7315 36.5248 19.7262Z" fill="#010101"/>
<path d="M44.5686 12.8642C46.4493 12.8642 47.377 13.9444 47.377 15.2278C47.3867 15.7599 47.2086 16.2783 46.874 16.692C46.5393 17.1057 46.0694 17.3882 45.5471 17.4897L47.504 20.7683H45.9537L44.1366 17.6041H43.1454V20.7683H41.8746V12.8642H44.5686ZM44.5686 13.919H43.1454V16.5748H44.5686C45.5852 16.5748 46.0427 16.0157 46.0427 15.2278C46.0427 14.44 45.5852 13.919 44.5686 13.919Z" fill="#010101"/>
<path d="M49.0416 12.8642H50.4394L53.2097 19.0655L55.9799 12.8642H57.365V20.7683H56.0943V15.3549L53.6798 20.7683H52.7776L50.3632 15.3549V20.7683H49.0925L49.0416 12.8642Z" fill="#010101"/>
<path d="M63.8458 19.1544H60.5291L59.9573 20.7683H58.6103L61.4441 12.8515H62.9436L65.7773 20.7683H64.4049L63.8458 19.1544ZM62.1938 14.4145L60.9231 18.0997H63.4646L62.1938 14.4145Z" fill="#010101"/>
<path d="M69.6531 20.8445C68.0647 20.8445 66.8447 19.9804 66.8447 18.5826H68.2426C68.2552 18.7532 68.3021 18.9195 68.3805 19.0715C68.4589 19.2236 68.5672 19.3582 68.6989 19.4674C68.8307 19.5766 68.9831 19.658 69.147 19.7069C69.311 19.7557 69.4831 19.7709 69.6531 19.7517C70.5553 19.7517 71.0763 19.2688 71.0763 18.5953C71.0763 16.6765 66.8702 17.9218 66.8702 15.0118C66.8702 13.6267 67.9757 12.7626 69.5895 12.7626C69.9082 12.7219 70.2318 12.7456 70.5411 12.8323C70.8504 12.9189 71.1392 13.0667 71.3904 13.267C71.6416 13.4672 71.8501 13.7158 72.0035 13.998C72.1569 14.2803 72.2521 14.5904 72.2835 14.9101H70.8603C70.8088 14.6118 70.6526 14.3416 70.4196 14.1482C70.1866 13.9548 69.8923 13.851 69.5895 13.8554C68.8398 13.8554 68.2553 14.1985 68.2553 14.961C68.2553 16.7527 72.4487 15.6344 72.4487 18.5317C72.4308 18.8723 72.3424 19.2054 72.1891 19.51C72.0358 19.8146 71.821 20.0841 71.5583 20.3015C71.2956 20.5188 70.9906 20.6793 70.6626 20.7728C70.3347 20.8663 69.9909 20.8907 69.6531 20.8445Z" fill="#010101"/>
<path d="M73.872 12.8642H75.1427V20.7683H73.872V12.8642Z" fill="#010101"/>
<path d="M31.3148 28.3038C31.3365 28.191 31.3319 28.0748 31.3016 27.9641C31.2713 27.8533 31.2159 27.751 31.1398 27.6651C31.0636 27.5791 30.9688 27.5118 30.8625 27.4683C30.7563 27.4249 30.6415 27.4063 30.5269 27.4142C30.42 27.4037 30.312 27.4154 30.2098 27.4488C30.1077 27.4822 30.0136 27.5365 29.9335 27.6082C29.8534 27.6799 29.7892 27.7674 29.7447 27.8653C29.7003 27.9632 29.6768 28.0692 29.6755 28.1767C29.6755 28.6087 29.917 28.9645 30.4761 29.5618L32.5728 31.6458L33.3734 30.3751H34.7712L33.7546 32.116C33.6676 32.2789 33.5699 32.436 33.4623 32.5862L35.3939 34.505H33.6911L32.7126 33.5265C32.3603 33.893 31.9352 34.1819 31.4647 34.3744C30.9942 34.567 30.4887 34.6591 29.9805 34.6448C28.265 34.6448 27.134 33.7044 27.134 32.2177C27.128 31.6507 27.3054 31.0969 27.6397 30.6389C27.9741 30.1809 28.4475 29.8432 28.9893 29.6762C28.5974 29.2704 28.3787 28.7281 28.3794 28.164C28.3794 27.1347 29.218 26.3468 30.5777 26.3468C30.8454 26.3116 31.1175 26.3369 31.3741 26.4208C31.6307 26.5047 31.8652 26.6451 32.0603 26.8317C32.2554 27.0183 32.4061 27.2462 32.5014 27.4988C32.5967 27.7514 32.6341 28.0221 32.6109 28.2911L31.3148 28.3038ZM31.8612 32.6116L29.7645 30.5149C28.8495 30.8707 28.4937 31.4171 28.4937 32.1287C28.4997 32.322 28.5454 32.512 28.628 32.6869C28.7105 32.8618 28.8281 33.0178 28.9735 33.1453C29.1189 33.2728 29.289 33.3691 29.4731 33.4281C29.6573 33.4871 29.8516 33.5077 30.044 33.4884C30.3936 33.4755 30.7364 33.3884 31.0497 33.2329C31.363 33.0773 31.6397 32.8569 31.8612 32.5862V32.6116Z" fill="#010101"/>
<path d="M42.3702 34.4288H39.1553V26.512H42.1669C43.8443 26.512 44.7084 27.4397 44.7084 28.5579C44.7128 28.9648 44.5834 29.3618 44.34 29.6879C44.0966 30.0139 43.7527 30.2509 43.3614 30.3624C43.7971 30.4634 44.1855 30.7096 44.4626 31.0607C44.7398 31.4117 44.8892 31.8466 44.8863 32.2939C44.9626 33.5011 43.9841 34.4288 42.3702 34.4288ZM42.1034 27.5794H40.5022V29.8414H42.1034C42.9421 29.8414 43.4631 29.4347 43.4631 28.7104C43.4631 27.9861 42.9675 27.5794 42.1034 27.5794ZM42.205 30.8961H40.5022V33.3867H42.2559C43.1327 33.3867 43.6664 32.942 43.6664 32.116C43.6685 31.9318 43.6305 31.7493 43.5551 31.5813C43.4796 31.4132 43.3686 31.2636 43.2296 31.1427C43.0906 31.0218 42.9269 30.9326 42.75 30.8812C42.5731 30.8299 42.3872 30.8176 42.205 30.8452V30.8961Z" fill="#010101"/>
<path d="M50.7444 27.5667H47.6692V29.8795H50.4013V30.9469H47.6692V33.3867H50.7444V34.4542H46.3731V26.5247H50.7444V27.5667Z" fill="#010101"/>
<path d="M55.065 26.512C56.9457 26.512 57.8606 27.5921 57.8606 28.8883C57.8729 29.421 57.6957 29.9407 57.3606 30.355C57.0255 30.7692 56.5542 31.051 56.0307 31.1502L57.9877 34.4288H56.4374L54.6202 31.2646H53.629V34.4288H52.3583V26.512H55.065ZM55.065 27.5794H53.629V30.2226H55.065C56.0815 30.2226 56.539 29.6635 56.539 28.8883C56.539 28.1132 56.0815 27.5794 55.065 27.5794Z" fill="#010101"/>
<path d="M59.4871 26.512H60.7579V34.4288H59.4871V26.512Z" fill="#010101"/>
<path d="M62.1176 26.512H67.6453V27.5794H65.5359V34.4288H64.2651V27.5794H62.143L62.1176 26.512Z" fill="#010101"/>
<path d="M73.7195 32.8022H70.4028L69.8437 34.4288H68.484L71.3178 26.4993H72.8172L75.651 34.4288H74.2913L73.7195 32.8022ZM72.0675 28.075L70.7967 31.7475H73.3382L72.0675 28.075Z" fill="#010101"/>
</g>
<defs>
<clipPath id="clip0_427_6699">
<path d="M0.130737 10.2966C0.130737 4.77374 4.60789 0.296585 10.1307 0.296585H75.1307C80.6536 0.296585 85.1307 4.77374 85.1307 10.2966V107.51C85.1307 113.033 80.6536 117.51 75.1307 117.51H10.1307C4.60789 117.51 0.130737 113.033 0.130737 107.51V10.2966Z" fill="white"/>
</clipPath>
</defs>
</svg>
