<?xml version="1.0" encoding="utf-8"?>
<!-- Generator: Adobe Illustrator 25.4.1, SVG Export Plug-In . SVG Version: 6.00 Build 0)  -->
<svg version="1.1" id="Layer_1" xmlns="http://www.w3.org/2000/svg" xmlns:xlink="http://www.w3.org/1999/xlink" x="0px" y="0px"
	 viewBox="0 0 86 118" style="enable-background:new 0 0 86 118;" xml:space="preserve">
<style type="text/css">
	.st0{clip-path:url(#SVGID_00000049212488124676295960000000459889966662373251_);}
	.st1{fill:#A3D49F;}
	.st2{fill:#131416;}
	.st3{fill:#6794CD;}
	.st4{fill:#FBFAFA;}
	.st5{fill:#5A6282;}
	.st6{fill:#B6DEEF;}
	.st7{fill:#5868B0;}
	.st8{fill:#475079;}
	.st9{fill:#E7E6E6;}
	.st10{fill:#648FCA;}
	.st11{fill:#9AD6F1;}
	.st12{fill:#92CAE4;}
	.st13{fill:#1A1A1A;}
	.st14{fill:#090E11;}
	.st15{fill:#EFEEED;}
	.st16{fill:#B9E4F4;}
	.st17{fill:#010101;}
</style>
<g>
	<g>
		<defs>
			<path id="SVGID_1_" d="M0.5,10.4c0-5.5,4.5-10,10-10h65c5.5,0,10,4.5,10,10v97.2c0,5.5-4.5,10-10,10h-65c-5.5,0-10-4.5-10-10
				V10.4z"/>
		</defs>
		<clipPath id="SVGID_00000152962883954114707900000007069511870796287663_">
			<use xlink:href="#SVGID_1_"  style="overflow:visible;"/>
		</clipPath>
		<g style="clip-path:url(#SVGID_00000152962883954114707900000007069511870796287663_);">
			<path class="st1" d="M51.1,55c-0.4-0.2-0.7-0.3-1.1-0.4l-8.6-4.2l8.6,4.2C50.4,54.7,50.8,54.8,51.1,55z"/>
			<path class="st1" d="M58.1,77.4l0.3,0.4L58.1,77.4z"/>
			<path class="st1" d="M58.6,76.4c-0.1,0.2-0.2,0.5-0.2,0.8C58.4,76.9,58.4,76.6,58.6,76.4z"/>
			<path class="st1" d="M56.6,60.8c1.4,0.6,2.8,1.3,4.1,1.9C59.4,62.1,58,61.5,56.6,60.8z"/>
			<path class="st1" d="M59,75.5c-0.2,0.2-0.2,0.5-0.2,0.7c0-0.1,0-0.3,0-0.4C58.9,75.7,58.9,75.6,59,75.5z"/>
			<path class="st1" d="M41.7,111.4c-0.2,0.2-0.2,0.5-0.2,0.7C41.5,111.9,41.6,111.6,41.7,111.4z"/>
			<path class="st1" d="M30.7,112.4c0.2,0.1,0.4,0.1,0.6,0.3C31.1,112.6,30.9,112.5,30.7,112.4z"/>
			<path class="st1" d="M30.7,112.4c-0.3-0.1-0.7-0.2-1-0.3l-2.1-1.1l2.1,1.1C30,112.2,30.4,112.3,30.7,112.4z"/>
			<path class="st1" d="M59.4,74.6c-0.2,0.2-0.2,0.5-0.2,0.7C59.2,75.1,59.3,74.9,59.4,74.6z"/>
			<path class="st1" d="M51.1,55c0.1,0.1,0.2,0.2,0.4,0.3C51.4,55.2,51.2,55.1,51.1,55z"/>
			<path class="st1" d="M59.8,73.9c0,0.2,0,0.4,0,0.5C59.7,74.3,59.7,74.1,59.8,73.9z"/>
			<path class="st1" d="M13.4,31.4H16l-1.3-3.7L13.4,31.4z"/>
			<path class="st1" d="M41.1,113.1c0-0.3,0-0.6,0.2-0.8C41.1,112.5,41.1,112.8,41.1,113.1z"/>
			<path class="st1" d="M31.5,17.7h2.6l-1.3-3.7L31.5,17.7z"/>
			<path class="st1" d="M42.2,110.5c-0.2,0.2-0.2,0.5-0.2,0.8C42,111,42,110.7,42.2,110.5z"/>
			<path class="st1" d="M62.4,17.7H65l-1.3-3.7L62.4,17.7z"/>
			<path class="st1" d="M53.6,75.4c1.7,1.8,2.8,4,3.3,6.4C56.5,79.4,55.3,77.2,53.6,75.4c-1.8-2.7-4.4-4.7-7.4-5.7
				C49.3,70.7,51.9,72.7,53.6,75.4z"/>
			<path class="st1" d="M46.3,17.7h2.6l-1.3-3.7L46.3,17.7z"/>
			<path class="st1" d="M50.4,96c-0.1,0.1-0.3,0.2-0.5,0.2C50.2,96.1,50.3,96.1,50.4,96z"/>
			<path class="st1" d="M44.4,106c0,0.1,0,0.3-0.1,0.4c0,0,0,0-0.1,0.1c0,0,0,0,0,0.1c0,0,0-0.1,0-0.1c0,0,0,0,0.1-0.1
				C44.3,106.3,44.4,106.2,44.4,106z"/>
			<path class="st1" d="M47.7,98.4c0.5-0.2,0.9-0.5,1.2-0.9c0.3-0.4,0.5-0.9,0.6-1.4c-0.1,0.5-0.3,1-0.6,1.4
				C48.5,97.9,48.1,98.2,47.7,98.4z"/>
			<path class="st1" d="M42.5,109.8c0,0.2,0,0.4,0,0.5C42.5,110.2,42.5,110,42.5,109.8z"/>
			<path class="st1" d="M53,91.6L52.7,92L53,91.6z"/>
			<path class="st1" d="M85.5,0.4h-85v63.8C1.3,62.6,2,61,2.8,59.4c0.5-1,1-2.2,2.5-2.1l1-2c0.8,0.4,1.3,0.1,1.6-0.3
				c-0.3,0.5-0.7,0.7-1.6,0.3c-0.8-0.7-0.6-1.5-0.2-2.4C7.9,49,9.8,45,11.7,41c0.6-1.1,1.5-1.8,2.7-2.2c1.1-0.4,2.4-0.2,3.4,0.3
				c3.2,1.6,6.4,3.3,9.6,4.8c1,0.5,2.2,1.5,3.1-0.4c0.3-0.8,1.3-0.5,1.9-0.2c0.9,0.4,1.8,0.9,2.7,1.3c1.7,0.8,3.1,1.5,5.2,0.2
				c3.3-2.1,7.5,0.7,7.6,4.6c0,0.4,0.1,0.9,0.3,1.2c0.3,0.4,0.6,0.6,1.1,0.7c1.6,0.6,3.1,1.6,4.7,2.3c0.9,0.4,1.4,1.1,1,1.9
				c-0.7,1.4,0.3,1.7,1.1,2.1c3.1,1.5,6.1,3.1,9.3,4.4c3.2,1.3,4.5,4.3,2.7,7.5c-2.8,5.1-5.1,10.4-7.6,15.6c-0.4,1-0.7,2-0.8,3.1
				c-0.3,3-1.5,5.8-3.4,8.1c-3.8,4.4-5.8,9.8-8.3,14.9c-1,2.1-2.1,4.2-3.1,6.4h40.7L85.5,0.4z M24.6,12.5h1.3v6.9h2.7v1h-4V12.5z
				 M17,34.1l-0.6-1.6h-3.3l-0.6,1.6h-1.4l2.8-7.9h1.5l2.8,7.9L17,34.1z M22.2,34.2c-1.6,0-2.8-0.9-2.8-2.3h1.4
				c0,0.2,0.1,0.3,0.1,0.5s0.2,0.3,0.3,0.4c0.1,0.1,0.3,0.2,0.4,0.2c0.2,0,0.3,0.1,0.5,0c0.9,0,1.4-0.5,1.4-1.2
				c0-1.9-4.2-0.7-4.2-3.6c0-1.4,1.1-2.3,2.7-2.3c0.3,0,0.6,0,1,0.1c0.3,0.1,0.6,0.2,0.8,0.4c0.3,0.2,0.5,0.5,0.6,0.7
				c0.2,0.3,0.2,0.6,0.3,0.9h-1.5c-0.1-0.3-0.2-0.6-0.4-0.8c-0.2-0.2-0.5-0.3-0.8-0.3c-0.7,0-1.3,0.3-1.3,1.1c0,1.8,4.2,0.7,4.2,3.6
				c0,0.3-0.1,0.7-0.3,1c-0.2,0.3-0.4,0.6-0.6,0.8c-0.3,0.2-0.6,0.4-0.9,0.5C22.8,34.2,22.5,34.2,22.2,34.2L22.2,34.2z M29.1,34.2
				c-1.6,0-2.8-0.9-2.8-2.3h1.4c0,0.2,0.1,0.3,0.1,0.5c0.1,0.2,0.2,0.3,0.3,0.4c0.1,0.1,0.3,0.2,0.5,0.2c0.2,0,0.3,0.1,0.5,0
				c0.9,0,1.4-0.5,1.4-1.2c0-1.9-4.2-0.7-4.2-3.6c0-1.4,1.1-2.3,2.7-2.3c0.3,0,0.6,0,1,0.1c0.3,0.1,0.6,0.2,0.8,0.4
				c0.3,0.2,0.5,0.5,0.6,0.7c0.2,0.3,0.2,0.6,0.3,0.9h-1.5c-0.1-0.3-0.2-0.6-0.4-0.8c-0.2-0.2-0.5-0.3-0.8-0.3
				c-0.7,0-1.3,0.3-1.3,1.1c0,1.8,4.2,0.7,4.2,3.6c0,0.3-0.1,0.7-0.3,1c-0.2,0.3-0.4,0.6-0.6,0.8c-0.3,0.2-0.6,0.4-0.9,0.5
				C29.7,34.2,29.4,34.2,29.1,34.2L29.1,34.2z M31.1,18.8l-0.6,1.6h-1.4l2.8-7.9h1.5l2.8,7.9H35l-0.5-1.7L31.1,18.8z M37.7,27.2
				h-3.1v2.3h2.7v1.1h-2.7V33h3.1v1.1h-4.4v-8h4.4L37.7,27.2z M36.9,12.5h1.4l1.8,3.9l1.9-3.9h1.4l-2.6,5.1v2.9h-1.3v-2.9L36.9,12.5
				z M41.9,34.1c-1.6,0-2.8-0.9-2.8-2.3h1.4c0,0.2,0.1,0.3,0.1,0.5c0.1,0.2,0.2,0.3,0.3,0.4c0.1,0.1,0.3,0.2,0.4,0.2
				c0.2,0,0.3,0.1,0.5,0c0.9,0,1.4-0.5,1.4-1.2c0-1.9-4.2-0.7-4.2-3.6c0-1.4,1.1-2.3,2.7-2.3c0.3,0,0.6,0,1,0.1
				c0.3,0.1,0.6,0.2,0.9,0.4c0.3,0.2,0.5,0.5,0.6,0.7c0.2,0.3,0.3,0.6,0.3,0.9h-1.4c-0.1-0.3-0.2-0.6-0.4-0.8
				c-0.2-0.2-0.5-0.3-0.8-0.3c-0.7,0-1.3,0.3-1.3,1.1c0,1.8,4.2,0.7,4.2,3.6c0,0.4-0.1,0.7-0.3,1c-0.2,0.3-0.4,0.6-0.7,0.8
				c-0.3,0.2-0.6,0.4-0.9,0.5C42.6,34.2,42.2,34.2,41.9,34.1L41.9,34.1z M45.4,20.4H44l2.8-7.9h1.5l2.8,7.9h-1.4l-0.6-1.6h-3.4
				L45.4,20.4z M54.5,34.1h-1.3v-5.4l-2.4,5.4h-0.9l-2.4-5.4v5.4h-1.3v-7.9h1.4l2.8,6.2l2.8-6.2h1.4L54.5,34.1z M53.7,14.5v5.9h-1.3
				v-7.9h1.3l3.9,5.9v-5.9h1.3v7.9h-1.3L53.7,14.5z M60.6,27.2h-3.1v2.3h2.7v1.1h-2.7V33h3.1v1.1h-4.4v-7.9h4.4V27.2z M61.5,20.4
				h-1.4l2.8-7.9h1.5l2.8,7.9H66l-0.6-1.6h-3.3L61.5,20.4z M68.7,34.1h-1.3l-3.9-5.9v5.9h-1.3v-7.9h1.3l3.9,5.9v-5.9h1.3V34.1z
				 M69.9,20.4h-1.3v-7.9h1.3l3.9,5.9v-5.9h1.3v7.9h-1.3l-3.9-5.9V20.4z M75.5,27.2h-2.2v6.8h-1.3v-6.8h-2.1v-1.1h5.5L75.5,27.2z"/>
			<path class="st2" d="M18.9,117.6c-6.1-3-12.3-5.9-18.4-8.9v2.8l12.5,6L18.9,117.6z"/>
			<path class="st2" d="M0.5,117.6h5.9l-5.9-2.9V117.6z"/>
			<path class="st2" d="M5.5,60.1c0.2-0.4,0.4-0.9,0.3-1.4c0-0.5-0.3-1-0.6-1.4c-1.5-0.1-2,1-2.5,2.1C2,61,1.2,62.6,0.5,64.2v6.2
				C2.2,66.9,3.8,63.5,5.5,60.1z"/>
			<path class="st2" d="M56.2,96.3c1.9-2.3,3.1-5.1,3.4-8.1c0.1-1.1,0.4-2.1,0.8-3.1c2.5-5.2,4.9-10.5,7.6-15.6
				c1.8-3.2,0.6-6.2-2.7-7.5c-3.4-1.3-6.2-2.9-9.3-4.4c-0.9-0.4-1.9-0.7-1.1-2.1c0.4-0.8-0.1-1.5-1-1.9c-1.6-0.7-3-1.6-4.7-2.3
				c-0.4-0.1-0.8-0.3-1.1-0.7c-0.3-0.4-0.4-0.8-0.3-1.2c0-3.9-4.3-6.6-7.6-4.6c-2.1,1.3-3.5,0.6-5.2-0.2c-0.9-0.4-1.8-0.9-2.7-1.3
				c-0.7-0.3-1.6-0.6-1.9,0.2c-0.9,2-2,0.9-3.1,0.4c-3.2-1.6-6.4-3.2-9.6-4.8c-1-0.5-2.3-0.6-3.4-0.3c-1.1,0.3-2.1,1.1-2.6,2.1
				C9.9,45,7.9,49,6,52.9c-0.4,0.9-0.6,1.6,0.2,2.4c0.8,0.4,1.3,0.1,1.6-0.3c0.2-0.3,0.3-0.6,0.5-0.9c1.8-3.7,3.7-7.3,5.3-11.1
				c0.8-1.9,1.8-2,3.5-1.2c3.3,1.7,6.6,3.3,10,4.8c1,0.5,1.6,0.8,0.9,2c-0.7,1.3-1.3,1.3-2.4,0.7c-2.5-1.3-5.2-2.5-7.8-3.7
				c-1.2-0.6-2-0.4-2.7,0.9c-3.5,7.5-7.1,15-10.7,22.4L0.5,77V83C4.7,74.2,9,65.4,13.2,56.6c1.2-2.5,2.4-5,3.5-7.5
				c0.4-0.9,0.9-1.3,2-0.6c1.8,1,3.7,1.9,5.6,2.8c1.1,0.5,2.3,0.8,1.3,2.5c-0.5,0.8,0.4,1.4,1.1,1.8c7,3.4,14.1,6.7,21,10.1
				c0.9,0.4,1.8,0.4,2.1-0.1c1.1-1.9,2.2-1,3.4-0.4c1.2,0.7,2.5,1.3,3.8,2c2.2,0.5,2.5,1.6,1.4,3.5c-0.7,1.2-1.3,2.5-2.1,4.2
				c0-1.6-1.7-1.7-1.6-3c-2.5-1.7-4.9-3.8-7.9-4.8c-4.2-1.4-8.7-1.4-12.8,0.2c-4.1,1.5-7.6,4.4-9.8,8.2c-2.2,3.8-3.1,8.2-2.4,12.6
				s2.8,8.3,6.1,11.3c1.3,1.2,0.6,1.9,0.2,2.9c-0.5,1.4-1.3,0.7-2,0.4c-1.1-0.5-1.4,0.3-1.8,1c-1.5,3-2.9,6-4.3,9
				c-0.5,1-0.4,1.8,0.7,2.3c1.8,0.9,3.5,1.7,5.3,2.5h6.8c1.3-2.5,2.5-5.1,3.8-7.6c0.3-1.1,0.6-2.2-0.9-2.7c-0.9-0.3-0.5-1.1,0-1.5
				c0.5-0.5,0.1-2,1.6-1.7c0.8,0.2,1.6,0.2,2.4,0.2h2.8c-1.3,2.6-2.3,5.1-3.5,7.6c-0.9,1.9-1.8,3.8-2.8,5.7h2.9
				c0.6-1.6,1.4-3.1,2.3-4.5c0-0.3,0-0.6,0.2-0.8c0.1-0.1,0.2-0.1,0.3-0.1c0-0.3,0-0.5,0.2-0.7c0.1-0.1,0.2-0.1,0.3-0.1
				c0-0.3,0-0.5,0.2-0.8c0.1-0.1,0.2-0.1,0.3-0.1c0-0.2,0-0.4,0-0.5c0-0.1,0.1-0.2,0.2-0.3c0.1-0.1,0.2-0.1,0.3-0.2
				c0,0-0.1-0.1-0.1-0.1s0-0.1,0.1-0.1l0.4-0.6c0,0-0.1-0.1-0.1-0.1c0-0.1,0-0.1,0.1-0.1l0.4-0.6c0,0-0.1-0.1-0.1-0.1s0-0.1,0.1-0.1
				l0.4-0.6c0-0.1,0-0.1,0-0.2c0,0,0,0,0-0.1c0,0,0,0,0.1-0.1c0-0.1,0.1-0.3,0.1-0.4c0.2-0.9,0.3-2,1.6-2.2l3.4-1.6
				c-1.9,4-3.5,7.5-5.2,10.9l-2.2,4.3h2.7c1-2.1,2.1-4.2,3.1-6.4C50.4,106.1,52.4,100.8,56.2,96.3z M45,48.1
				c0.1,0.1,0.2,0.3,0.2,0.5s0,0.4-0.1,0.5c-0.3,0.4-0.6,0.1-0.9-0.1c-1.1-0.4-2.1-1-3-1.7c0.3-0.2,0.6-0.4,1-0.4
				c0.4-0.1,0.7-0.1,1.1,0c0.4,0.1,0.7,0.2,1,0.4C44.6,47.5,44.8,47.8,45,48.1L45,48.1z M51.3,57.6c-0.8,1.2-1.4,2.5-2,3.8
				c-0.6,1.6-1.4,2-2.8,0.8c-2.1-1-4.1-2-6.2-2.9c-0.6-0.3-0.8-0.6-0.4-1.3s0.7-1.6-0.2-2c-0.2-0.1-0.4-0.2-0.6-0.2
				c-0.2,0-0.4,0-0.6,0.1c-0.2,0.1-0.4,0.2-0.5,0.4c-0.1,0.2-0.2,0.3-0.3,0.5c-0.3,1.1-1,0.7-1.6,0.4c-2.5-1.2-5.2-2.4-7.6-3.6
				c1-2.3,2-4.5,3.1-6.7c0.2-0.4,0.3-1.3,1.4-0.7c2.8,1.4,5.7,2.9,8.5,4.3l8.6,4.2c0.4,0.1,0.8,0.2,1.1,0.4c0.1,0.1,0.2,0.2,0.4,0.3
				c0.1,0.1,0.2,0.2,0.2,0.3c0.1,0.3,0.1,0.7,0,1S51.5,57.3,51.3,57.6z M58.6,76.4c0.1-0.1,0.2-0.1,0.3-0.1c0-0.3,0-0.5,0.2-0.7
				c0.1-0.1,0.2-0.1,0.3-0.1c0-0.3,0-0.5,0.2-0.7c0.1-0.1,0.2-0.1,0.3-0.1c0-0.2,0-0.4,0-0.5c0-0.1,0.1-0.2,0.2-0.3s0.2-0.1,0.3-0.2
				c0,0-0.1-0.1-0.1-0.1s0-0.1,0.1-0.1l0.4-0.6c0,0-0.1-0.1-0.1-0.1s0-0.1,0.1-0.1l0.4-0.6c0,0-0.1-0.1-0.1-0.1c0-0.1,0-0.1,0.1-0.1
				l0.4-0.6c0,0-0.1-0.1-0.1-0.1s0-0.1,0.1-0.1c1-3.6,1-3.6-2.5-5.3c-2.1-1-4.3-2-6.5-3c-1.5-0.7-0.1-1.4,0-2.1
				c0.1-0.7,0.7-0.9,1.4-0.6c0.9,0.4,1.8,0.9,2.7,1.3c1.4,0.6,2.8,1.3,4.1,1.9c1.4,0.7,2.6,1.3,3.8,2.1c1.5,0.3,1.9,1.1,1.8,2.1
				c-0.1,0.4-0.2,0.8-0.4,1.1c-2.1,4.3-4.1,8.6-6.4,13.1c-0.5-0.8-0.9-1.6-1.1-2.5c-0.1-0.3-0.1-0.6-0.1-0.9l-0.3-0.4l0.3-0.2
				c0-0.2,0.1-0.3,0.1-0.4C58.4,76.6,58.5,76.5,58.6,76.4z M30,116.6c-0.6,0.6-1.5-0.4-2.1-0.8c-1-0.4-2-0.9-3-1.3
				c-2.5-1.3-2.6-1.6-1-4.1c0.4-0.6,0.8-0.9,1.6-0.5c0.8,0.5,1.4,0.8,2.1,1.1l2.1,1.1c0.3,0.1,0.6,0.2,1,0.3
				c0.2,0.1,0.4,0.1,0.6,0.3c0.1,0.1,0.2,0.2,0.3,0.4c0.1,0.1,0.1,0.3,0,0.5C31.4,114.7,30.9,115.7,30,116.6z M33.3,110
				c-0.6,1.1-1.6,0.1-2.4-0.4c-1.5-0.7-3-1.4-4.5-2.1c-0.5-0.2-0.9-0.6-0.6-1.2c0.3-0.6,0.9-0.4,1.3-0.2c0.7,0.4,1.5,0.7,2.3,1
				c0.8,0.3,1.5,0.7,2.1,1.2c0.1,0,0.1,0,0.2,0C32.4,108.7,34,108.7,33.3,110z M29.9,104c0.1-0.6,0.4-2,1.3-1.9
				c0.9,0.2,2.3,0.3,2,1.7c-0.2,0.6,0,1.8-1.2,2C31.3,105.1,29.7,105.3,29.9,104z M41.3,101.8c-0.1,0-0.1,0-0.2,0
				c-0.2,0-0.3-0.2-0.5-0.2c-3.4,0.3-6.9-0.7-9.6-2.8c-0.9-0.7-1.8-1.5-2.5-2.4c-4.8-5.5-5.9-11.7-2.8-18.3c1.1-2.6,3-4.8,5.3-6.5
				c2.3-1.6,5-2.6,7.9-2.8c2.5-0.3,4.9,0,7.3,0.7c3,1,5.6,3.1,7.4,5.7c1.7,1.8,2.8,4,3.3,6.4c0.2,0.9,0.3,1.7,0.3,2.6
				c0,0.6,0,1.2-0.1,1.8c-0.1,0.9-0.2,1.9-0.4,2.8C55.1,96.7,48.8,101.2,41.3,101.8z"/>
			<path class="st3" d="M0.5,111.6v3.2l5.9,2.8H13L0.5,111.6z"/>
			<path class="st3" d="M5.5,60.1c-1.7,3.4-3.3,6.9-5,10.3v6.6l3.9-8.2C8,61.4,11.6,54,15.1,46.5c0.6-1.3,1.5-1.4,2.7-0.9
				c2.6,1.3,5.2,2.4,7.8,3.7c1.1,0.5,1.7,0.6,2.4-0.7c0.6-1.2,0-1.6-0.9-2c-3.3-1.6-6.7-3.2-10-4.8C15.4,41,14.4,41,13.6,43
				c-1.6,3.8-3.5,7.4-5.3,11.1c-0.2,0.3-0.3,0.6-0.5,1c-0.3,0.5-0.7,0.7-1.6,0.3l-1,2c0.3,0.4,0.5,0.9,0.6,1.4
				C5.9,59.2,5.8,59.7,5.5,60.1z"/>
			<path class="st4" d="M10.8,101.6c0.3,0.2,0.6,0.3,0.8,0.7c0.1,0.2,0.3,0.5,0.4,0.7c-0.4,0.8-0.7,1.6-1.8,1.1
				c-3.3-1.5-6.5-3-9.7-4.7v3.3l3.5,1.8c0.3,0.1,0.5,0.4,0.6,0.6c0.1,0.3,0.1,0.6,0,0.8c-0.3,0.7-0.8,0.8-1.5,0.7l-2.5-1.3v3.3
				c6.1,2.9,12.3,5.9,18.4,8.9h7c-1.8-0.8-3.5-1.7-5.3-2.5c-1-0.5-1.2-1.3-0.7-2.3c1.5-3,2.9-6,4.3-9c0.3-0.7,0.7-1.5,1.8-1
				c0.7,0.3,1.5,1,2-0.4c0.4-1.1,1.1-1.8-0.2-2.9c-3.3-3-5.4-7-6.1-11.3c-0.7-4.4,0.2-8.8,2.4-12.6c2.2-3.8,5.7-6.7,9.9-8.2
				c4.1-1.5,8.7-1.6,12.9-0.1c3,1,5.3,3.1,7.9,4.8c1.6-1.2,2-3,2.3-4.8c-1.3-0.6-2.5-1.3-3.8-2c-1.3-0.7-2.3-1.6-3.4,0.4
				c-0.3,0.6-1.3,0.5-2.1,0.1c-7-3.4-14-6.7-21-10.1c-0.7-0.4-1.6-1-1.1-1.8c1-1.7-0.2-2-1.3-2.5c-1.9-0.9-3.8-1.8-5.6-2.8
				c-1-0.6-1.5-0.3-2,0.6c-1.2,2.5-2.3,5-3.5,7.5C9.1,65.4,4.8,74.2,0.6,83v13.6C4,98.2,7.4,99.9,10.8,101.6z M14.6,60.5
				c0.1-0.5,0.3-0.9,0.7-1.3c0.3-0.3,0.8-0.6,1.2-0.7c1.9,1,4.4,1.5,5.6,3c1.2,1.5-1,3.4-1.7,5.2c-0.3,0.7-0.5,2-1.7,1.6
				c-2.1-0.7-4.5-1.4-5.7-3.1C12,63.8,14,62.1,14.6,60.5L14.6,60.5z M8.8,72.6c0.2-0.7,0.6-1.9,1.8-1.5c1.9,0.7,3.8,1.6,5.6,2.5
				c0.2,0.2,0.3,0.4,0.3,0.6c0.1,0.2,0.1,0.5,0,0.7c-0.8,1.8-1.7,3.6-2.6,5.4c-0.2,0.4-0.5,0.5-1.3,0.4c-1.8-0.7-4.2-1.2-5.4-2.8
				C5.9,76.1,8.3,74.4,8.8,72.6L8.8,72.6z M4.5,83.4c2,0.8,3.9,1.7,5.8,2.7c0.3,0.2,0.3,0.4,0.3,1.1c-0.7,2-1.7,3.9-2.9,5.7
				c-0.1,0.1-0.2,0.2-0.4,0.2c-0.1,0-0.3,0-0.4,0c-2.1-0.8-4.6-1.4-5.7-3.1c-1.1-1.7,1-3.3,1.7-5C3.2,84.3,3.4,83,4.5,83.4z"/>
			<path class="st5" d="M40.7,101.6l3-1.3c1-0.5,2-0.9,3-1.4c0.3-0.1,0.6-0.3,0.9-0.5c0.5-0.2,0.9-0.5,1.2-0.9
				c0.3-0.4,0.5-0.9,0.6-1.4C46.7,97.4,44,99,40.8,99c-2.3,0-4.6-0.6-6.6-1.6c-2-1.1-3.7-2.7-5-4.6c-1.2-1.9-2-4.1-2.1-6.4
				c-0.2-2.3,0.3-4.6,1.2-6.7c1-2.1,2.4-3.9,4.3-5.2c1.9-1.4,4-2.2,6.3-2.5c2.3-0.3,4.6,0,6.7,0.8c2.1,0.8,4,2.2,5.5,4
				c1.5,1.7,2.5,3.7,2.9,5.9c0.4,2.2,0.3,4.5-0.4,6.6c1.9-1.8,1.4-4.2,1.4-6.4c0-2.5-1-4.9-1.6-7.4c-1.8-2.7-4.4-4.7-7.4-5.7
				c-2.4-0.8-4.8-1-7.3-0.7c-2.8,0.2-5.6,1.1-7.9,2.8c-2.3,1.6-4.2,3.9-5.3,6.5c-3.1,6.6-2,12.9,2.8,18.3c0.8,0.9,1.6,1.7,2.5,2.4
				C33.8,100.9,37.3,101.9,40.7,101.6z"/>
			<path class="st5" d="M40.7,101.6c-3.4,0.3-6.9-0.7-9.6-2.8C33.8,100.9,37.3,101.9,40.7,101.6z"/>
			<path class="st6" d="M41.4,50.5c-2.9-1.4-5.7-2.8-8.5-4.3c-1.1-0.6-1.2,0.3-1.4,0.7c-1.1,2.2-2,4.4-3.1,6.7
				c2.5,1.2,5.1,2.4,7.6,3.6c0.6,0.3,1.3,0.7,1.6-0.4c0-0.2,0.1-0.4,0.3-0.5c0.1-0.2,0.3-0.3,0.5-0.4c0.2-0.1,0.4-0.1,0.6-0.1
				c0.2,0,0.4,0.1,0.6,0.2c0.9,0.5,0.8,1.3,0.2,2c-0.5,0.7-0.3,0.9,0.4,1.3c2.1,0.9,4.1,1.9,6.2,2.9c0.8-2.7,2.4-5,3.5-7.5
				L41.4,50.5z"/>
			<path class="st7" d="M42.5,110.4c0,0.4,0,0.7-0.4,0.9c0.1,0.4,0,0.8-0.4,0.9c0,0.4,0,0.7-0.4,0.9c0,1.7-0.6,3.3-1.7,4.5h2.7
				l2.1-4.4c1.7-3.5,3.3-7,5.2-10.9l-3.4,1.5c-0.3,1-0.4,2.2-1.7,2.5c0,0,0,0-0.1,0.1c0,0,0,0,0,0.1c0,0.1,0,0.1,0,0.2l-0.4,0.6
				c0,0-0.1,0.1-0.1,0.1s0,0.1,0.1,0.1l-0.4,0.6c0,0-0.1,0.1-0.1,0.1s0,0.1,0.1,0.1L43,109c0,0-0.1,0.1-0.1,0.1s0,0.1,0.1,0.1
				C43,109.8,42.9,110.2,42.5,110.4z"/>
			<path class="st8" d="M56.7,89c0.2-0.9,0.3-1.8,0.4-2.8c0.1-0.6,0.1-1.2,0.1-1.8c0-0.9-0.1-1.8-0.3-2.6c-0.5-2.4-1.6-4.6-3.3-6.4
				c0.5,2.5,1.6,4.8,1.6,7.4c0,2.2,0.5,4.6-1.4,6.4c0,0.5-0.2,1-0.3,1.4c-0.1,0.3-0.3,0.7-0.5,1L52.7,92c-0.5,0.8-1,1.5-1.4,2.3
				c-0.4,0.8-0.4,1.3-0.9,1.7c-0.1,0.1-0.3,0.2-0.5,0.2c-0.2,0-0.3,0-0.5,0l-0.1-0.1c-0.1,0.5-0.3,1-0.6,1.4
				c-0.3,0.4-0.7,0.7-1.2,0.9c-0.3,0.2-0.6,0.3-0.9,0.5c-1,0.5-2,1-3,1.4l-3,1.3c0.2,0,0.3,0.2,0.5,0.2c0.1,0,0.1,0,0.2,0
				C48.8,101.2,55.1,96.7,56.7,89z"/>
			<path class="st8" d="M40.7,101.6c0.2,0,0.3,0.2,0.5,0.2C41,101.8,40.9,101.7,40.7,101.6z"/>
			<path class="st8" d="M57.2,84.4c0,0.6,0,1.2-0.1,1.8C57.2,85.6,57.2,85,57.2,84.4z"/>
			<path class="st8" d="M40.7,101.6l3-1.3L40.7,101.6z"/>
			<path class="st9" d="M38.7,111.9c1.2-2.5,2.3-5,3.5-7.6h-2.8c-0.7,2.1-1.1,4.3-3,5.7c-1.2,2.5-2.5,5.1-3.8,7.6h3.3
				C36.8,115.7,37.8,113.8,38.7,111.9z"/>
			<path class="st10" d="M64.6,64.9c-1.3-0.8-2.5-1.4-3.8-2.1c-1.3-0.6-2.8-1.3-4.1-1.9c-0.9-0.4-1.8-0.8-2.7-1.3
				c-0.7-0.3-1.4-0.2-1.4,0.6c0,0.8-1.4,1.5,0,2.1c2.2,1,4.3,2,6.5,3c3.5,1.7,3.5,1.7,2.5,5.3C63.5,69.2,64,67,64.6,64.9z"/>
			<path class="st10" d="M64.6,64.9c-1.3-0.8-2.5-1.4-3.8-2.1C62.1,63.4,63.4,64.1,64.6,64.9z"/>
			<path class="st7" d="M59.7,74.5c0,0.4,0,0.7-0.4,0.9c0,0.4,0,0.7-0.4,0.9c0.1,0.4,0,0.7-0.4,0.9v0.5c0,0.3,0,0.6,0.1,0.9
				c0.2,0.9,0.6,1.8,1.1,2.5c2.2-4.5,4.2-8.8,6.4-13.1c0.2-0.4,0.3-0.7,0.4-1.1c0.2-1-0.3-1.7-1.8-2.1c-0.6,2.1-1.1,4.3-3,5.7
				c0,0-0.1,0.1-0.1,0.1c0,0.1,0,0.1,0.1,0.1l-0.4,0.6c0,0-0.1,0.1-0.1,0.1c0,0.1,0,0.1,0.1,0.1l-0.4,0.6c0,0-0.1,0.1-0.1,0.1
				s0,0.1,0.1,0.1l-0.4,0.6c0,0-0.1,0.1-0.1,0.1s0,0.1,0.1,0.1C60.2,74,60.2,74.4,59.7,74.5z"/>
			<path class="st7" d="M66.4,66.9c0.2-1-0.3-1.7-1.8-2.1C66.1,65.2,66.5,65.9,66.4,66.9z"/>
			<path class="st7" d="M58.4,77.7c0,0.3,0,0.6,0.1,0.9C58.5,78.3,58.5,78,58.4,77.7z"/>
			<path class="st5" d="M27.6,111c-0.7-0.4-1.4-0.7-2.1-1.1c-0.7-0.4-1.2-0.2-1.6,0.5c-1.6,2.5-1.6,2.8,1,4.1c1,0.5,2,0.9,3,1.3
				c0.6-1.3,1.3-2.4,1.8-3.6L27.6,111z"/>
			<path class="st11" d="M51.5,55.3c-0.1-0.1-0.2-0.2-0.4-0.3c-0.4-0.2-0.7-0.3-1.1-0.4c-1.1,2.5-2.7,4.8-3.5,7.5
				c1.4,1.2,2.2,0.8,2.8-0.8c0.5-1.3,1.2-2.6,2-3.8c0.2-0.3,0.4-0.6,0.4-0.9c0.1-0.3,0.1-0.7,0-1C51.6,55.5,51.6,55.4,51.5,55.3z"/>
			<path class="st11" d="M51.5,55.3c0.1,0.1,0.2,0.2,0.2,0.3C51.6,55.5,51.6,55.4,51.5,55.3z"/>
			<path class="st9" d="M54.8,72c-0.1,1.3,1.6,1.4,1.6,3c0.8-1.7,1.3-3,2.1-4.2c1.3-1.9,0.9-3-1.4-3.5C56.8,69,56.4,70.8,54.8,72z"
				/>
			<path class="st4" d="M39.4,104.3c-0.8,0-1.6-0.1-2.4-0.2c-1.5-0.4-1.1,1.1-1.6,1.7c-0.5,0.5-0.9,1.3,0,1.5
				c1.6,0.6,1.3,1.6,0.9,2.7C38.3,108.6,38.7,106.4,39.4,104.3z"/>
			<path class="st8" d="M31.3,112.7c-0.2-0.1-0.4-0.2-0.6-0.3c-0.3-0.1-0.7-0.2-1-0.3c-0.6,1.2-1.3,2.4-1.8,3.6
				c0.7,0.5,1.5,1.4,2.1,0.8c0.8-0.8,1.4-1.9,1.6-3.1c0-0.2,0-0.3,0-0.5C31.5,112.9,31.4,112.8,31.3,112.7z"/>
			<path class="st5" d="M29.4,107.1c-0.8-0.3-1.5-0.6-2.2-0.9c-0.4-0.3-1-0.4-1.3,0.2s0.1,0.9,0.6,1.2c1.5,0.7,3,1.4,4.5,2.1
				l0.4-1.3C30.9,107.8,30.2,107.4,29.4,107.1z"/>
			<path class="st5" d="M31.4,108.3c-0.6-0.5-1.3-0.9-2.1-1.1C30.1,107.4,30.8,107.8,31.4,108.3L31.4,108.3z"/>
			<path class="st12" d="M33.2,103.8c0.4-1.4-1.3-1.6-2-1.7c-0.7-0.1-1.3,1.3-1.3,1.9c-0.2,1.3,1.4,1.1,2.1,1.8
				C33.2,105.6,33,104.4,33.2,103.8z"/>
			<path class="st9" d="M45.1,49.1c0.1-0.2,0.1-0.3,0.1-0.5c0-0.2-0.1-0.4-0.2-0.5c-0.2-0.3-0.4-0.6-0.7-0.8c-0.3-0.2-0.6-0.4-1-0.4
				c-0.4-0.1-0.7-0.1-1.1,0c-0.4,0.1-0.7,0.2-1,0.4c0.9,0.7,1.9,1.3,3,1.7C44.5,49.2,44.8,49.5,45.1,49.1z"/>
			<path class="st8" d="M31.6,108.3c-0.1,0-0.1,0-0.2,0l-0.4,1.3c0.7,0.5,1.8,1.5,2.4,0.4C33.9,108.9,32.4,108.7,31.6,108.3z"/>
			<path class="st8" d="M31.4,108.3c0.1,0,0.1,0,0.2,0C31.6,108.3,31.5,108.3,31.4,108.3z"/>
			<path class="st10" d="M41.1,113.1c-1,1.4-1.7,2.9-2.3,4.5h0.6C40.5,116.3,41.2,114.7,41.1,113.1z"/>
			<path class="st10" d="M46,103.8c-1.3,0.2-1.4,1.3-1.6,2.2c0,0.1,0,0.3-0.1,0.4C45.6,106.1,45.7,104.9,46,103.8z"/>
			<path class="st10" d="M59.7,74.5c0.5-0.2,0.5-0.6,0.4-1c-0.1,0-0.2,0.1-0.3,0.2c-0.1,0.1-0.1,0.2-0.2,0.3
				C59.7,74.1,59.7,74.3,59.7,74.5L59.7,74.5z"/>
			<path class="st10" d="M58.4,77.2c0.4-0.1,0.5-0.5,0.4-0.9c-0.1,0-0.2,0.1-0.3,0.1C58.4,76.6,58.4,76.9,58.4,77.2L58.4,77.2z"/>
			<path class="st10" d="M42.5,110.3c0.5-0.2,0.5-0.6,0.4-1c-0.1,0-0.2,0.1-0.3,0.2s-0.1,0.2-0.2,0.3
				C42.4,109.9,42.4,110.1,42.5,110.3L42.5,110.3z"/>
			<path class="st10" d="M42.1,111.2c0.4-0.1,0.5-0.5,0.4-0.9c-0.1,0-0.2,0.1-0.3,0.1C42.1,110.7,42,111,42.1,111.2L42.1,111.2z"/>
			<path class="st10" d="M42.4,110.4L42.4,110.4L42.4,110.4z"/>
			<path class="st10" d="M41.6,112.1c0.4-0.1,0.5-0.5,0.4-0.9c-0.1,0-0.2,0.1-0.3,0.1C41.6,111.6,41.5,111.9,41.6,112.1z"/>
			<path class="st10" d="M42,111.3L42,111.3L42,111.3z"/>
			<path class="st10" d="M59.3,75.4c0.4-0.1,0.5-0.5,0.4-0.9c-0.1,0-0.2,0.1-0.3,0.1C59.3,74.8,59.2,75.1,59.3,75.4L59.3,75.4z"/>
			<path class="st10" d="M59.7,74.5L59.7,74.5L59.7,74.5z"/>
			<path class="st10" d="M41.1,113.1c0.5-0.2,0.5-0.5,0.4-0.9c-0.1,0-0.2,0.1-0.3,0.1C41.2,112.5,41.1,112.8,41.1,113.1L41.1,113.1z
				"/>
			<path class="st10" d="M41.1,113.1L41.1,113.1L41.1,113.1z"/>
			<path class="st10" d="M41.5,112.2L41.5,112.2L41.5,112.2z"/>
			<path class="st10" d="M58.8,76.3c0.5-0.1,0.5-0.5,0.4-0.9c-0.1,0-0.2,0.1-0.3,0.1c-0.1,0.1-0.1,0.2-0.2,0.4
				C58.8,76,58.8,76.1,58.8,76.3L58.8,76.3z"/>
			<path class="st10" d="M58.8,76.3L58.8,76.3L58.8,76.3z"/>
			<path class="st10" d="M59.3,75.4L59.3,75.4L59.3,75.4z"/>
			<path class="st10" d="M58.4,77.7v-0.5l-0.3,0.2L58.4,77.7z"/>
			<path class="st10" d="M58.4,77.2L58.4,77.2L58.4,77.2L58.4,77.2L58.4,77.2z"/>
			<path class="st10" d="M58.4,77.2L58.4,77.2L58.4,77.2z"/>
			<path class="st13" d="M12.6,80.7c0.7,0.1,1,0,1.3-0.4c0.9-1.8,1.8-3.6,2.6-5.4c0-0.2,0-0.5,0-0.7c-0.1-0.2-0.2-0.4-0.3-0.6
				c-1.8-1-3.7-1.8-5.6-2.5c-1.1-0.4-1.5,0.7-1.8,1.5c-0.6,1.8-3,3.5-1.6,5.3C8.5,79.6,10.9,80.1,12.6,80.7z M10.1,75.4
				c1.1-2.5,2.2-0.4,3.8-0.3c-1.3,0.8-0.7,3.4-3,2.1C10.2,76.8,9.6,76.6,10.1,75.4L10.1,75.4z"/>
			<path class="st2" d="M18.8,68.3c1.2,0.4,1.4-0.8,1.7-1.6c0.7-1.7,2.9-3.6,1.7-5.2c-1.2-1.6-3.6-2.1-5.6-3
				c-0.5,0.1-0.9,0.4-1.2,0.7c-0.3,0.3-0.6,0.8-0.7,1.3C14,62.1,12,63.8,13,65.2C14.2,66.9,16.7,67.6,18.8,68.3z M17.4,61.9
				c0.4,0,0.9,0.1,1.2,0.4c0.4,0.2,0.7,0.5,0.9,0.9c-0.8,0.6-0.4,2.1-1.7,2c-0.8,0-2.1-0.2-1.9-1.4C16.1,63.1,16.1,61.8,17.4,61.9
				L17.4,61.9z"/>
			<path class="st2" d="M1.2,90c1.1,1.7,3.7,2.3,5.7,3.1c0.1,0,0.3,0,0.4,0c0.1,0,0.3-0.1,0.4-0.2c1.2-1.8,2.1-3.7,2.9-5.7
				c0.1-0.6,0-0.9-0.3-1.1c-1.9-1-3.8-1.9-5.8-2.7c-1-0.4-1.3,0.9-1.6,1.6C2.2,86.7,0.1,88.5,1.2,90z M5.3,86.4
				c0.8,0.7,2.3,0.4,2,1.7c-0.1,0.6-0.2,2.1-1.6,1.8c-0.7-0.2-1.9-0.2-1.8-1.4c0-0.4,0.2-0.9,0.4-1.2C4.6,86.9,5,86.6,5.3,86.4z"/>
			<path class="st13" d="M12,102.9c-0.2-0.2-0.3-0.5-0.4-0.7c-0.2-0.4-0.4-0.5-0.8-0.7c-3.5-1.7-6.9-3.3-10.3-5v2.8
				c3.2,1.6,6.5,3.2,9.7,4.7C11.4,104.6,11.6,103.8,12,102.9z"/>
			<path class="st14" d="M4.6,106c0.1-0.3,0.1-0.6,0-0.8c-0.1-0.3-0.3-0.5-0.6-0.6l-3.5-1.8v2.8l2.5,1.3
				C3.8,106.7,4.4,106.6,4.6,106z"/>
			<path class="st14" d="M51.2,76.6c-1.5-1.8-3.4-3.2-5.5-4c-2.1-0.8-4.5-1.1-6.7-0.9c-2.3,0.3-4.5,1.2-6.3,2.5
				c-1.9,1.4-3.3,3.2-4.3,5.2c-1,2.1-1.4,4.4-1.2,6.7c0.2,2.3,0.9,4.5,2.1,6.5c1.2,1.9,3,3.5,5,4.6c2,1.1,4.3,1.7,6.6,1.6
				c3.2,0,5.9-1.5,8.6-2.8l0.1,0.1c0.1-0.5,0.3-0.9,0.6-1.2c0.3-0.3,0.7-0.6,1.2-0.7c0.4-0.8,1-1.5,1.4-2.3l0.2-0.4
				c0.2-0.3,0.3-0.6,0.5-1c0.2-0.5,0.3-0.9,0.3-1.4c0.7-2.1,0.8-4.4,0.4-6.6C53.7,80.4,52.7,78.3,51.2,76.6z M51.2,88.6
				c-1.9,5-5.6,7.7-10.1,7.6c-0.7,0-1.4,0-2.2-0.1c-4.4-0.3-8.5-4.6-9.2-8.5c-0.5-2.4-0.2-4.9,0.8-7.1c1.1-2.2,2.8-4,5-5.1
				c2.3-1.2,4.9-1.6,7.4-1c2,0.5,3.8,1.5,5.2,2.9c1.2,1,2.2,2.3,2.8,3.8c0.2,0.5,0.4,1,0.5,1.5c0.2,1,0.3,2,0.3,3.1
				C51.7,86.7,51.6,87.6,51.2,88.6L51.2,88.6z"/>
			<path class="st14" d="M40.8,98.9c3.2,0,5.9-1.5,8.6-2.8C46.7,97.4,44,99,40.8,98.9z"/>
			<path class="st14" d="M53.4,90.6c-0.1,0.3-0.3,0.7-0.5,1C53.1,91.3,53.3,90.9,53.4,90.6z"/>
			<path class="st14" d="M51.3,94.3c0.4-0.8,1-1.6,1.4-2.3C52.3,92.7,51.8,93.5,51.3,94.3L51.3,94.3z"/>
			<path class="st5" d="M51.3,94.3c-0.5,0.1-0.9,0.4-1.2,0.7c-0.3,0.3-0.5,0.8-0.6,1.2c0.2,0,0.3,0,0.5,0c0.2,0,0.3-0.1,0.5-0.2
				C51,95.6,51.1,94.9,51.3,94.3z"/>
			<path class="st5" d="M50.4,96c0.5-0.4,0.7-1.1,0.9-1.7C51.1,94.9,51,95.6,50.4,96z"/>
			<path class="st4" d="M11,77.2c2.3,1.3,1.7-1.3,3-2.1c-1.6-0.1-2.8-2.2-3.8,0.3C9.6,76.6,10.2,76.8,11,77.2z"/>
			<path class="st15" d="M17.9,65.2c1.3,0.1,0.9-1.5,1.7-2c-0.2-0.4-0.5-0.7-0.9-0.9c-0.4-0.2-0.8-0.3-1.2-0.4
				c-1.3-0.1-1.4,1.2-1.4,1.9C15.8,65,17.1,65.2,17.9,65.2z"/>
			<path class="st15" d="M5.8,89.9c1.3,0.3,1.4-1.3,1.6-1.8c0.3-1.3-1.3-1-2-1.7c-0.4,0.2-0.7,0.5-0.9,0.9c-0.2,0.4-0.3,0.8-0.4,1.2
				C4,89.8,5.1,89.8,5.8,89.9z"/>
			<path class="st16" d="M47.5,90.8c1.2-1.6,1.9-3.5,2.2-5.5c0.2-2,0-4-0.7-5.9c-0.4-0.6-0.6-1.3-0.6-2.1c-1.4-1.4-3.3-2.5-5.2-2.9
				c-2.5-0.6-5.2-0.2-7.4,1c-2.2,1.1-3.9,2.9-5,5.1c-1.1,2.2-1.3,4.7-0.8,7.1c0.7,3.9,4.8,8.2,9.2,8.5
				C42.3,95.5,45.4,93.6,47.5,90.8z"/>
			<path class="st16" d="M48.2,77.3c-1.4-1.4-3.3-2.5-5.2-2.9C45,74.9,46.8,75.9,48.2,77.3z"/>
			<path class="st11" d="M51,81.2c-0.6-1.5-1.5-2.8-2.8-3.8c0.1,0.7,0.3,1.4,0.6,2.1c0.7,1.9,1,3.9,0.7,5.9c-0.2,2-1,3.9-2.2,5.5
				c-2.1,2.7-5.1,4.6-8.5,5.3c0.7,0,1.5,0.1,2.2,0.1c4.5,0,8.1-2.7,10.1-7.6c0.3-0.9,0.5-1.8,0.5-2.8c0-1-0.1-2.1-0.3-3.1
				C51.4,82.2,51.2,81.7,51,81.2z"/>
			<path class="st11" d="M51,81.2c-0.6-1.5-1.5-2.8-2.8-3.8C49.5,78.4,50.5,79.7,51,81.2z"/>
			<path class="st11" d="M51.8,85.8c0-1-0.1-2.1-0.3-3.1C51.7,83.7,51.8,84.7,51.8,85.8z"/>
			<path class="st17" d="M28.6,19.4h-2.7v-6.9h-1.3v7.9h4V19.4z"/>
			<path class="st17" d="M35,20.4h1.4l-2.8-7.9H32l-2.8,7.9h1.4l0.6-1.6h3.3L35,20.4z M31.5,17.7l1.3-3.7l1.3,3.7H31.5z"/>
			<path class="st17" d="M39.5,20.4h1.3v-2.9l2.6-5H42l-1.8,3.9l-1.8-3.9h-1.4l2.6,5V20.4z"/>
			<path class="st17" d="M49.8,20.4h1.4l-2.8-7.9h-1.5L44,20.4h1.4l0.6-1.6h3.3L49.8,20.4z M46.3,17.7l1.3-3.7l1.3,3.7H46.3z"/>
			<path class="st17" d="M58.9,20.4v-7.9h-1.3v5.9l-3.9-5.9h-1.3v7.9h1.3v-5.9l3.9,5.9H58.9z"/>
			<path class="st17" d="M65.9,20.4h1.4l-2.8-7.9H63l-2.8,7.9h1.4l0.6-1.6h3.3L65.9,20.4z M62.4,17.7l1.3-3.7l1.3,3.7H62.4z"/>
			<path class="st17" d="M75,20.4v-7.9h-1.3v5.9l-3.9-5.9h-1.3v7.9h1.3v-5.9l3.9,5.9H75z"/>
			<path class="st17" d="M14,26.1l-2.8,7.9h1.3l0.6-1.6h3.3l0.6,1.6h1.4l-2.8-7.9H14z M13.4,31.4l1.3-3.7l1.3,3.7H13.4z"/>
			<path class="st17" d="M20.7,28.3c0-0.8,0.6-1.1,1.3-1.1c0.3,0,0.6,0.1,0.8,0.3c0.2,0.2,0.4,0.5,0.4,0.8h1.4
				c0-0.3-0.1-0.6-0.3-0.9c-0.2-0.3-0.4-0.5-0.6-0.7c-0.3-0.2-0.5-0.4-0.8-0.4C22.6,26,22.3,26,22,26c-1.6,0-2.7,0.9-2.7,2.3
				c0,2.9,4.2,1.7,4.2,3.6c0,0.7-0.5,1.2-1.4,1.2c-0.2,0-0.3,0-0.5,0c-0.2,0-0.3-0.1-0.4-0.2c-0.1-0.1-0.2-0.2-0.3-0.4
				c-0.1-0.2-0.1-0.3-0.1-0.5h-1.4c0,1.4,1.3,2.3,2.8,2.3c0.3,0,0.7,0,1-0.1c0.3-0.1,0.6-0.3,0.9-0.5c0.3-0.2,0.5-0.5,0.6-0.8
				c0.1-0.3,0.2-0.6,0.2-1C24.9,28.9,20.7,30.1,20.7,28.3z"/>
			<path class="st17" d="M27.6,28.3c0-0.8,0.6-1.1,1.3-1.1c0.3,0,0.6,0.1,0.8,0.3c0.2,0.2,0.4,0.5,0.4,0.8h1.6
				c0-0.3-0.1-0.6-0.3-0.9c-0.2-0.3-0.4-0.5-0.6-0.7c-0.3-0.2-0.5-0.4-0.8-0.4C29.6,26,29.3,26,29,26c-1.6,0-2.7,0.9-2.7,2.3
				c0,2.9,4.2,1.7,4.2,3.6c0,0.7-0.5,1.2-1.4,1.2c-0.2,0-0.3,0-0.5,0c-0.2,0-0.3-0.1-0.5-0.2c-0.1-0.1-0.2-0.2-0.3-0.4
				c-0.1-0.2-0.1-0.3-0.1-0.5h-1.4c0,1.4,1.3,2.3,2.8,2.3c0.3,0,0.7,0,1-0.1c0.3-0.1,0.6-0.3,0.9-0.5c0.3-0.2,0.5-0.5,0.6-0.8
				c0.1-0.3,0.2-0.6,0.2-1C31.7,28.9,27.6,30.1,27.6,28.3z"/>
			<path class="st17" d="M33.3,34.1h4.4V33h-3.1v-2.4h2.7v-1.1h-2.7v-2.3h3.1v-1.1h-4.4V34.1z"/>
			<path class="st17" d="M40.4,28.3c0-0.8,0.6-1.1,1.3-1.1c0.3,0,0.6,0.1,0.8,0.3c0.2,0.2,0.4,0.5,0.4,0.8h1.4
				c0-0.3-0.1-0.6-0.3-0.9c-0.2-0.3-0.4-0.5-0.6-0.7c-0.3-0.2-0.5-0.3-0.9-0.4S42,26,41.7,26c-1.6,0-2.7,0.9-2.7,2.3
				c0,2.9,4.2,1.7,4.2,3.6c0,0.7-0.5,1.2-1.4,1.2c-0.2,0-0.3,0-0.5,0c-0.2,0-0.3-0.1-0.4-0.2c-0.1-0.1-0.2-0.2-0.3-0.4
				s-0.1-0.3-0.1-0.5h-1.4c0,1.4,1.3,2.3,2.8,2.3c0.3,0.1,0.7,0,1,0c0.3-0.1,0.7-0.2,0.9-0.5c0.3-0.2,0.5-0.5,0.7-0.8
				c0.2-0.3,0.2-0.7,0.3-1C44.6,28.9,40.4,30.1,40.4,28.3z"/>
			<path class="st17" d="M50.3,32.4l-2.8-6.2h-1.4v7.9h1.3v-5.4l2.4,5.4h0.9l2.4-5.4v5.4h1.3v-7.9h-1.4L50.3,32.4z"/>
			<path class="st17" d="M56.2,34.1h4.4V33h-3.1v-2.4h2.7v-1.1h-2.7v-2.3h3.1v-1.1h-4.4V34.1z"/>
			<path class="st17" d="M67.3,32l-3.9-5.9h-1.3v7.9h1.3v-5.9l3.9,5.9h1.3v-7.9h-1.3V32z"/>
			<path class="st17" d="M69.9,27.2H72v6.8h1.3v-6.8h2.1v-1.1h-5.5V27.2z"/>
		</g>
	</g>
</g>
</svg>
