<svg width="86" height="118" viewBox="0 0 86 118" fill="none" xmlns="http://www.w3.org/2000/svg">
<g clip-path="url(#clip0_427_6700)">
<path d="M85.2614 0.296585H0.261444V117.51H85.2614V0.296585Z" fill="#F79444"/>
<path d="M42.5137 94.2807C42.9851 91.2252 42.7811 88.1034 41.9161 85.1351C41.0511 82.1669 39.546 79.4243 37.5069 77.1003C35.5251 74.6608 33.0125 72.706 30.1607 71.3847C27.3089 70.0634 24.1932 69.4105 21.0508 69.4758C10.8849 69.5775 3.67975 75.3085 0.261452 84.3308V87.8381L0.464756 88.0668C2.10401 88.2828 2.43442 87.0756 2.84106 85.9193C3.82901 82.6605 5.6809 79.7301 8.20014 77.439C10.7194 75.148 13.812 73.5819 17.1496 72.9069C20.5902 72.1378 24.1787 72.3671 27.4935 73.5676C35.0036 76.4903 38.9301 82.2849 39.8578 89.9856C40.1267 92.5915 39.783 95.2242 38.8539 97.6736C36.503 104.167 34.1267 110.648 31.8775 117.18C31.8407 117.31 31.794 117.437 31.7377 117.561H34.8384C36.1091 114.104 37.2401 110.622 38.46 107.166C39.9595 102.884 41.9672 98.7538 42.5137 94.2807Z" fill="#010101"/>
<path d="M0.261452 90.7608V93.1117V93.01C0.553723 92.2348 0.909531 91.3199 0.261452 90.7608Z" fill="#010101"/>
<path d="M17.9248 112.846C18.5729 111.665 18.0646 109.949 19.7165 109.237C20.8888 108.719 22.0153 108.103 23.084 107.395C23.3574 107.272 23.5975 107.086 23.7838 106.852C23.9701 106.617 24.0973 106.341 24.1546 106.047C24.212 105.753 24.1977 105.45 24.1131 105.162C24.0285 104.875 23.876 104.612 23.6685 104.396C22.6265 103.9 21.8133 104.548 21.1271 105.12C20.5663 105.651 19.9027 106.061 19.1771 106.325C18.4515 106.589 17.6795 106.701 16.9088 106.655C16.1381 106.608 15.3851 106.404 14.6965 106.055C14.0079 105.706 13.3982 105.219 12.9053 104.625C10.7324 102.083 11.2407 98.4996 14.049 96.1233C16.8573 93.747 22.0166 95.7802 23.0459 99.6179C23.3 100.609 23.389 101.499 24.5326 101.804C26.1465 100.711 26.0957 98.1565 24.4183 95.9073C23.1185 94.1265 21.1915 92.9053 19.0263 92.4902C16.8611 92.0751 14.619 92.497 12.7528 93.6708C8.94061 96.2123 7.39032 101.295 9.80473 105.107C11.0755 107.192 9.74118 108.577 9.46162 110.267C9.37267 110.8 8.96604 110.661 8.53398 110.483C6.64058 109.708 4.72176 108.996 2.81564 108.259C1.93852 108.161 1.0815 107.929 0.274155 107.573V110.495C2.81564 111.398 5.28087 112.389 7.80965 113.24C11.9014 114.613 15.9678 116.049 20.0342 117.497H28.5101C25.3205 116.366 22.1563 115.248 18.916 114.168C18.1916 113.939 17.5436 113.444 17.9248 112.846ZM14.2523 112.3C13.4518 112.3 12.0794 112.3 12.2446 110.927C12.3335 110.178 12.3208 108.996 13.5153 108.64C14.2777 109.199 15.701 108.742 15.612 110.089C15.4595 110.902 15.5231 112.287 14.2015 112.3H14.2523Z" fill="#010101"/>
<path d="M0.261452 114.714V117.485H8.06381L7.56822 117.307L0.261452 114.714Z" fill="#010101"/>
<path d="M2.90458 107.84C4.3024 102.02 6.71682 96.5554 8.59752 90.9133C9.79202 87.3298 11.0374 83.7463 13.6043 80.8617C16.7359 77.0138 21.2443 74.5384 26.1719 73.9616H26.5785C22.3802 72.6215 17.838 72.8518 13.7967 74.6095C9.75532 76.3672 6.48984 79.5328 4.60739 83.5175C4.03556 84.6739 3.51454 85.8557 2.90458 86.9867C2.40899 87.9143 1.77362 88.8293 0.464756 88.0541L0.261452 88.5243V90.4939C1.53219 90.837 0.998475 92.1459 0.769741 93.0354C0.629959 93.62 0.452063 94.2045 0.261452 94.7763V106.912H0.401234C1.21451 107.293 2.05318 107.573 2.90458 107.84Z" fill="#E12126"/>
<path d="M2.90458 86.9486C3.51453 85.8176 4.03555 84.6358 4.60739 83.4794C6.48983 79.4947 9.75532 76.3291 13.7967 74.5714C17.838 72.8137 22.3801 72.5834 26.5785 73.9234C26.7519 73.9295 26.9243 73.896 27.0829 73.8256C27.2414 73.7551 27.3818 73.6495 27.4935 73.5168C24.1787 72.3162 20.5902 72.087 17.1496 72.856C13.812 73.531 10.7194 75.0972 8.20014 77.3882C5.68089 79.6793 3.82901 82.6097 2.84105 85.8684C2.43442 87.0248 2.10401 88.232 0.464752 88.016C1.77362 88.7911 2.40899 87.8762 2.90458 86.9486Z" fill="#E12126"/>
<path d="M0.261452 90.4558V90.7608C0.909531 91.3199 0.553723 92.2348 0.261452 93.01V93.1117V94.7763C0.452063 94.2045 0.629959 93.62 0.769741 93.0354C0.998475 92.1078 1.53219 90.7989 0.261452 90.4558Z" fill="#E12126"/>
<path d="M2.90458 107.84C2.05318 107.573 1.21449 107.293 0.363091 106.963H0.223328V107.636C1.03067 107.993 1.88769 108.224 2.76481 108.322L2.90458 107.84Z" fill="#E12126"/>
<path d="M40.0865 41.9007C39.6037 41.2653 39.6672 40.2487 38.7014 40.0708C37.3163 39.804 37.0876 41.0747 36.808 41.8372C34.2665 48.8136 31.9284 55.8154 29.4123 62.8299C28.9929 64.0116 28.599 65.1553 29.8952 65.689C31.4836 66.3625 31.8902 64.8376 32.2715 63.7575C34.203 58.395 36.1006 53.0155 37.9644 47.6191C38.5009 45.6538 39.2111 43.7402 40.0865 41.9007Z" fill="#060606"/>
<path d="M15.5993 66.604C16.6413 65.6382 15.7645 64.952 15.1418 64.2658C10.1859 58.7592 5.22582 53.2527 0.261452 47.7461V52.2827C4.50573 56.8701 8.86437 61.3812 12.8926 66.1719C13.0257 66.3974 13.2069 66.5907 13.4232 66.7381C13.6396 66.8855 13.8858 66.9833 14.1443 67.0246C14.4029 67.0658 14.6673 67.0495 14.9188 66.9768C15.1703 66.9041 15.4027 66.7768 15.5993 66.604Z" fill="#060505"/>
<path d="M64.7135 70.4924C60.0753 71.2549 55.399 71.8267 50.7353 72.5002C47.8635 72.9196 45.017 73.4024 42.1451 73.8472C41.1412 73.9997 40.2517 74.4444 40.455 75.55C40.4374 75.8074 40.4986 76.064 40.6304 76.2858C40.7622 76.5076 40.9584 76.684 41.1929 76.7916C41.4274 76.8991 41.6891 76.9328 41.9431 76.8881C42.1972 76.8434 42.4316 76.7224 42.6153 76.5412C42.7805 76.4522 43.0601 76.5412 43.1998 76.5412L55.9073 74.6859C58.9443 74.2411 61.9814 73.8091 65.0185 73.3262C66.1113 73.1483 67.4456 72.7798 67.2423 71.4201C67.039 70.0604 65.9334 70.2383 64.7135 70.4924Z" fill="#050505"/>
<path d="M19.1955 39.2067C19.1807 39.0227 19.1261 38.8441 19.0353 38.6834C18.9445 38.5227 18.8198 38.3836 18.6698 38.276C18.5198 38.1684 18.3482 38.0947 18.1669 38.0601C17.9855 38.0255 17.7988 38.0309 17.6198 38.0758C16.654 38.2029 16.1838 38.6857 16.349 39.7023C16.4253 40.1725 16.349 40.6681 16.4507 41.1383C17.2216 45.8231 18.0095 50.4825 18.8143 55.1164C19.2845 57.8485 19.7419 60.5806 20.3519 63.2746C20.5044 63.9735 20.9873 64.8376 22.042 64.6724C22.2277 64.6566 22.4076 64.6002 22.5691 64.5072C22.7305 64.4141 22.8695 64.2866 22.9762 64.1339C23.0829 63.9811 23.1547 63.8067 23.1865 63.6231C23.2183 63.4394 23.2093 63.2511 23.1602 63.0713C21.737 54.9894 20.4662 47.1108 19.1955 39.2067Z" fill="#050504"/>
<path d="M57.0764 52.0285C55.8819 50.6307 54.5349 52.2573 53.6581 53.0197C48.2701 58.001 42.7297 62.7917 37.1384 67.5443C36.8769 67.7799 36.6757 68.0748 36.5519 68.4043C36.4281 68.7338 36.3852 69.0882 36.4268 69.4377C36.503 70.0731 37.2909 70.3145 37.939 70.5433C38.699 70.3069 39.38 69.8675 39.9086 69.2725C45.1526 64.6047 50.388 59.9453 55.615 55.2944C56.6316 54.3667 58.2327 53.3755 57.0764 52.0285Z" fill="#060505"/>
<path d="M25.1807 74.7748C17.5563 76.2235 12.918 81.1285 10.2622 88.1431C8.00027 94.0901 5.92896 100.126 3.90848 106.162C3.75813 106.787 3.50012 107.38 3.14603 107.916L6.81847 109.187C8.88978 109.873 10.0081 108.92 9.65224 106.721C9.41549 105.952 9.10481 105.207 8.72459 104.498C6.72952 98.9698 9.63953 93.6454 15.5612 91.968C19.9961 90.6973 25.1934 94.052 26.1973 98.7792C26.5023 100.215 26.5785 101.575 24.7233 102.045H24.4437C24.215 102.744 23.9735 103.43 23.7448 104.129H23.8464C25.2061 105.59 24.4945 106.81 23.3 107.852C22.3268 108.571 21.2986 109.213 20.2248 109.771C19.7338 110.066 19.3383 110.496 19.0858 111.01C18.8334 111.524 18.7347 112.1 18.8016 112.668C18.8905 113.774 19.9961 113.939 20.7966 114.13C23.4906 115.007 26.1084 116.074 28.7769 117.002C30.4035 117.573 31.3184 117.307 31.9284 115.604C34.0759 109.339 36.592 103.189 38.4727 96.8476C39.8783 92.3409 39.4941 87.4659 37.3999 83.235C35.3057 79.004 31.6625 75.7422 27.2266 74.1268C26.731 74.7367 25.8542 74.6478 25.1807 74.7748ZM30.3526 78.6506C31.6234 77.939 32.1698 78.9937 32.7925 79.8324C35.3185 83.0102 36.8916 86.8393 37.329 90.8752C37.329 91.9934 37.5959 93.2387 35.9566 93.4166C34.0632 93.6073 34.4826 91.968 34.4444 91.1039C34.2005 87.5025 32.7449 84.0897 30.3145 81.4208C29.4885 80.4042 28.9294 79.4639 30.3526 78.6506Z" fill="#EF463E"/>
<path d="M38.8539 97.6228C39.783 95.1734 40.1267 92.5407 39.8578 89.9348C38.892 82.2341 35.0036 76.4395 27.4935 73.5168C27.4527 73.7403 27.3566 73.95 27.2139 74.1268C31.6498 75.7422 35.293 79.004 37.3872 83.235C39.4814 87.4659 39.8656 92.3409 38.46 96.8477C36.5793 103.201 34.0632 109.339 31.9157 115.604C31.3311 117.307 30.3908 117.573 28.7642 117.002C26.0957 116.074 23.4779 115.007 20.784 114.13C19.9834 113.876 18.8778 113.774 18.7889 112.668C18.722 112.1 18.8207 111.524 19.0731 111.01C19.3256 110.496 19.7211 110.066 20.2121 109.771C21.2859 109.213 22.3141 108.571 23.2873 107.852C24.4818 106.81 25.1934 105.59 23.8337 104.129H23.7321L23.6177 104.434C23.8252 104.65 23.9777 104.913 24.0623 105.2C24.1469 105.488 24.1611 105.791 24.1038 106.085C24.0465 106.379 23.9193 106.655 23.733 106.89C23.5466 107.124 23.3066 107.311 23.0332 107.433C21.9645 108.141 20.838 108.757 19.6657 109.276C18.0137 109.987 18.522 111.703 17.874 112.884C17.5436 113.482 18.1916 113.977 18.9033 114.219C22.1055 115.299 25.257 116.417 28.4974 117.548H31.7378C31.794 117.425 31.8407 117.297 31.8775 117.167C34.1267 110.597 36.503 104.116 38.8539 97.6228Z" fill="#EF463E"/>
<path d="M24.7105 102.007C26.5658 101.537 26.4896 100.177 26.1846 98.7411C25.1807 94.0139 19.9834 90.6846 15.5485 91.9299C9.62682 93.6073 6.71681 98.9317 8.71188 104.459C9.09211 105.169 9.40276 105.914 9.63952 106.683C9.99533 108.882 8.87708 109.835 6.80577 109.148L3.13332 107.878C3.03237 108.009 2.91731 108.128 2.79021 108.234C4.69633 108.971 6.60244 109.682 8.50856 110.457C8.94061 110.635 9.34726 110.775 9.43621 110.241C9.71578 108.551 11.0882 107.166 9.7793 105.082C7.36489 101.27 8.9025 96.1869 12.7274 93.6454C14.5936 92.4716 16.8357 92.0497 19.0009 92.4648C21.1661 92.8799 23.0931 94.1011 24.3928 95.8819C26.0702 98.1311 26.1211 100.685 24.5072 101.778L24.431 101.981L24.7105 102.007Z" fill="#EF463E"/>
<path d="M26.5785 73.9234H26.1719C21.2443 74.5003 16.7359 76.9756 13.6043 80.8236C11.0628 83.7082 9.79202 87.2917 8.59752 90.8752C6.72953 96.5173 4.3024 101.981 2.90458 107.801L3.12062 107.878C3.47471 107.342 3.73271 106.748 3.88306 106.124C5.91625 100.088 7.98756 94.052 10.2368 88.1049C12.8926 81.1158 17.48 76.1854 25.1553 74.7367C25.8288 74.6096 26.7056 74.7367 27.1885 74.0886C27.1885 74.0886 27.125 74.0886 27.0868 74.0886L26.5785 73.9234Z" fill="#EF463E"/>
<path d="M2.9173 107.84L2.80294 108.272C2.93003 108.166 3.04508 108.047 3.14603 107.916L2.9173 107.84Z" fill="#EF463E"/>
<path d="M27.1122 74.0505C27.1122 74.0505 27.1758 74.0505 27.2139 74.0505C27.3566 73.8737 27.4527 73.664 27.4935 73.4406C27.3818 73.5733 27.2414 73.6789 27.0829 73.7493C26.9244 73.8198 26.7519 73.8532 26.5785 73.8472L27.1122 74.0505Z" fill="#EF463E"/>
<path d="M0.261452 110.508V114.714L7.56822 117.256L8.06381 117.434H20.0215C15.9551 115.985 11.8887 114.549 7.79695 113.177C5.21734 112.402 2.77752 111.41 0.261452 110.508Z" fill="#2896AF"/>
<path d="M22.3724 99.7068C22.1427 98.8486 21.6865 98.0678 21.0516 97.4463C20.4167 96.8248 19.6264 96.3854 18.7635 96.1742C16.0568 95.4371 14.2142 96.1742 12.7147 98.7156C12.2168 99.6455 12.0451 100.716 12.2271 101.755C12.4091 102.793 12.9343 103.741 13.7186 104.447C14.5207 105.249 15.5682 105.76 16.6943 105.898C17.8203 106.036 18.9603 105.794 19.9325 105.209C21.0508 104.561 22.0166 103.468 23.4525 103.938C23.3448 103.571 23.3682 103.177 23.5189 102.824C23.6696 102.472 23.9381 102.183 24.2785 102.007C23.0077 101.778 22.7028 100.736 22.3724 99.7068Z" fill="#FCC012"/>
<path d="M19.9325 105.26C18.9603 105.845 17.8203 106.087 16.6943 105.949C15.5682 105.811 14.5207 105.3 13.7186 104.498C12.9343 103.792 12.4091 102.844 12.2271 101.805C12.0451 100.766 12.2168 99.6963 12.7147 98.7665C14.2142 96.225 16.0568 95.4371 18.7635 96.225C19.6264 96.4363 20.4167 96.8756 21.0516 97.4971C21.6865 98.1186 22.1427 98.8994 22.3724 99.7576C22.7028 100.812 23.0586 101.829 24.2149 102.032C24.3058 101.963 24.4038 101.903 24.5072 101.854C23.3635 101.549 23.2365 100.66 23.0204 99.6687C21.9911 95.8565 16.7684 93.8614 14.0236 96.1742C11.2788 98.4869 10.707 102.109 12.8799 104.675C13.3728 105.27 13.9824 105.757 14.6711 106.106C15.3597 106.455 16.1126 106.659 16.8833 106.706C17.654 106.752 18.4261 106.64 19.1517 106.376C19.8772 106.112 20.5409 105.702 21.1016 105.171C21.7624 104.599 22.5757 103.9 23.6431 104.447C23.6431 104.307 23.5287 104.18 23.4779 104.04C22.0166 103.519 21.0508 104.612 19.9325 105.26Z" fill="#FCC012"/>
<path d="M24.2785 102.007C23.933 102.196 23.6663 102.502 23.5265 102.87C23.3867 103.238 23.383 103.644 23.516 104.015L23.7956 104.116C24.0243 103.417 24.2658 102.731 24.4945 102.032L24.2785 102.007Z" fill="#FCC012"/>
<path d="M24.431 102.007L24.5072 101.804C24.4038 101.852 24.3058 101.912 24.215 101.981L24.431 102.007Z" fill="#FCC012"/>
<path d="M23.6177 104.396L23.7321 104.091L23.4525 103.989C23.5033 104.129 23.5542 104.256 23.6177 104.396Z" fill="#FCC012"/>
<path d="M13.4136 108.64C12.27 108.996 12.2827 110.178 12.1429 110.927C11.9777 112.198 13.3501 112.313 14.1507 112.3C15.4214 112.3 15.4214 110.927 15.4214 110.089C15.5993 108.742 14.1761 109.199 13.4136 108.64Z" fill="#BA2125"/>
<path d="M34.4444 91.0912C34.4444 91.9553 34.0632 93.6327 35.9566 93.4039C37.5959 93.2387 37.3163 91.9934 37.329 90.8624C36.8916 86.8266 35.3185 82.9975 32.7925 79.8197C32.1698 78.981 31.598 77.9263 30.3526 78.6379C29.1073 79.3495 29.4885 80.4296 30.3526 81.3954C32.7718 84.0729 34.2139 87.4901 34.4444 91.0912Z" fill="#0A0201"/>
<path d="M27.1885 12.8642V19.7262H29.857V20.7683H25.8923V12.8642H27.1885Z" fill="#010101"/>
<path d="M35.7152 19.1544H32.3985L31.8267 20.7683H30.4797L33.3135 12.8515H34.8129L37.6467 20.7683H36.2743L35.7152 19.1544ZM34.0632 14.4145L32.7925 18.0997H35.3339L34.0632 14.4145Z" fill="#010101"/>
<path d="M38.2567 12.8642H39.7053L41.5352 16.74L43.365 12.8642H44.801L42.1832 17.9472V20.8191H40.9125V17.9472L38.2567 12.8642Z" fill="#010101"/>
<path d="M50.532 19.1544H47.2154L46.6436 20.7683H45.2966L48.1303 12.8515H49.6933L52.5271 20.7683H51.0912L50.532 19.1544ZM48.8801 14.4145L47.6093 18.0997H50.1508L48.8801 14.4145Z" fill="#010101"/>
<path d="M60.1897 12.8515V20.7683H58.9189L55.0178 14.8593V20.7683H53.747V12.8515H55.0178L58.9189 18.7478V12.8515H60.1897Z" fill="#010101"/>
<path d="M66.6578 19.1544H63.3538L62.782 20.7683H61.435L64.2688 12.8515H65.7682L68.602 20.7683H67.2296L66.6578 19.1544ZM65.0185 14.4145L63.7478 18.0997H66.2892L65.0185 14.4145Z" fill="#010101"/>
<path d="M76.379 12.8515V20.7683H75.1082L71.207 14.8593V20.7683H69.9363V12.8515H71.207L75.1082 18.7478V12.8515H76.379Z" fill="#010101"/>
<path d="M32.2333 30.5022C32.2526 31.0473 32.1548 31.5901 31.9463 32.0942C31.7379 32.5982 31.4237 33.0516 31.0249 33.4238C30.6262 33.7961 30.1523 34.0784 29.6351 34.2517C29.118 34.4251 28.5697 34.4855 28.0272 34.4288H25.4857V26.512H28.0272C28.5752 26.4543 29.1292 26.5161 29.6511 26.6932C30.1729 26.8702 30.6502 27.1583 31.05 27.5376C31.4498 27.9168 31.7626 28.3782 31.9669 28.89C32.1712 29.4018 32.2621 29.9518 32.2333 30.5022ZM28.0907 33.3867C28.4795 33.4414 28.8757 33.4052 29.2481 33.281C29.6206 33.1568 29.9592 32.948 30.2374 32.671C30.5156 32.394 30.7259 32.0564 30.8517 31.6845C30.9775 31.3126 31.0155 30.9166 30.9626 30.5276C31.0082 30.1371 30.9657 29.7415 30.8382 29.3696C30.7108 28.9978 30.5016 28.6593 30.2262 28.3789C29.9507 28.0985 29.6158 27.8834 29.2463 27.7495C28.8767 27.6155 28.4819 27.5661 28.0907 27.6049H26.82V33.3867H28.0907Z" fill="#010101"/>
<path d="M38.2567 32.8022H34.94L34.3809 34.4288H33.0466L35.8804 26.4993H37.3798L40.2136 34.4288H38.8539L38.2567 32.8022ZM36.6047 28.075L35.3339 31.7475H37.8754L36.6047 28.075Z" fill="#010101"/>
<path d="M44.1783 26.512C46.059 26.512 46.974 27.5921 46.974 28.8883C46.9863 29.421 46.8091 29.9407 46.474 30.355C46.1389 30.7692 45.6676 31.051 45.1441 31.1502L47.101 34.4288H45.5507L43.7336 31.2646H42.7424V34.4288H41.4716V26.512H44.1783ZM44.1783 27.5794H42.7424V30.2226H44.1783C45.1949 30.2226 45.6397 29.6635 45.6397 28.8883C45.6397 28.1132 45.1949 27.5794 44.1783 27.5794Z" fill="#010101"/>
<path d="M48.6259 26.512H49.8967V31.595C49.8967 32.0702 50.0854 32.5259 50.4215 32.8619C50.7575 33.198 51.2132 33.3867 51.6884 33.3867C52.1636 33.3867 52.6193 33.198 52.9554 32.8619C53.2914 32.5259 53.4802 32.0702 53.4802 31.595V26.512H54.7509V31.595C54.7509 32.4139 54.4256 33.1994 53.8465 33.7785C53.2674 34.3576 52.482 34.6829 51.663 34.6829C50.844 34.6829 50.0586 34.3576 49.4795 33.7785C48.9004 33.1994 48.5751 32.4139 48.5751 31.595L48.6259 26.512Z" fill="#010101"/>
<path d="M59.2239 26.512C61.1046 26.512 62.0196 27.5921 62.0196 28.8883C62.0319 29.421 61.8547 29.9407 61.5196 30.355C61.1845 30.7692 60.7132 31.051 60.1897 31.1502L62.1466 34.4288H60.5963L58.7792 31.2646H57.788V34.4288H56.5172V26.512H59.2239ZM59.2239 27.5794H57.788V30.2226H59.2239C60.2405 30.2226 60.6853 29.6635 60.6853 28.8883C60.6853 28.1132 60.2405 27.5794 59.2239 27.5794Z" fill="#010101"/>
<path d="M68.4495 32.8022H65.1456L64.5738 34.4288H63.2141L66.0478 26.4993H67.5473L70.381 34.4288H69.0214L68.4495 32.8022ZM66.7976 28.075L65.5268 31.7475H68.0683L66.7976 28.075Z" fill="#010101"/>
<path d="M71.207 26.512H76.7221V27.5794H74.6126V34.4288H73.3419V27.5794H71.2325L71.207 26.512Z" fill="#010101"/>
</g>
<defs>
<clipPath id="clip0_427_6700">
<path d="M0.261444 10.2966C0.261444 4.77374 4.7386 0.296585 10.2614 0.296585H75.2614C80.7843 0.296585 85.2614 4.77374 85.2614 10.2966V107.51C85.2614 113.033 80.7843 117.51 75.2614 117.51H10.2614C4.7386 117.51 0.261444 113.033 0.261444 107.51V10.2966Z" fill="white"/>
</clipPath>
</defs>
</svg>
