<svg width="85" height="118" viewBox="0 0 85 118" fill="none" xmlns="http://www.w3.org/2000/svg">
<g clip-path="url(#clip0_427_6695)">
<path d="M15.4268 110.771C14.1561 110.618 13.6986 111.52 13.3682 112.461C12.7856 113.959 12.3225 115.502 11.9831 117.074V117.213H14.7533C15.061 116.079 15.4343 114.963 15.8716 113.871C16.1396 113.375 16.2411 112.806 16.161 112.248C16.081 111.689 15.8236 111.172 15.4268 110.771Z" fill="#010101"/>
<path d="M12.0594 85.8641L12.4025 85.9658C12.294 85.9145 12.1783 85.8802 12.0594 85.8641Z" fill="#010101"/>
<path d="M0 115.231V117.213H5.87083C4.06638 116.616 2.26192 116.006 0.470175 115.371C0.316613 115.314 0.159563 115.267 0 115.231H0Z" fill="#010101"/>
<path d="M85 0H0V117.213H85V0Z" fill="#C7C0E0"/>
<path d="M62.762 109.386C64.7444 102.816 61.8725 95.2422 54.8834 92.8659C51.8515 91.9445 48.6106 91.9711 45.5943 92.9422C45.0351 93.0946 44.4506 93.6792 43.6881 92.5991C39.3803 86.5884 31.2222 83.6276 24.627 89.257C24.4921 89.4238 24.3203 89.5569 24.1251 89.6459C23.93 89.735 23.7168 89.7775 23.5024 89.7701C23.2881 89.7627 23.0783 89.7056 22.8898 89.6033C22.7012 89.5011 22.539 89.3564 22.4159 89.1808C20.8783 87.605 19.2518 86.131 17.5744 84.7077C15.897 83.2845 16.0495 79.9425 17.9302 78.9004C23.8264 75.6219 23.8264 75.6219 30.4216 77.8839C30.8748 78.0631 31.3424 78.2034 31.8194 78.3032C32.6227 78.3709 33.3838 78.6915 33.9934 79.219C34.603 79.7464 35.0297 80.4535 35.2123 81.2386C35.6189 82.5094 36.5847 83.0812 37.919 81.8994C38.9864 80.9463 40.2317 80.1966 41.4898 79.2817C41.7566 80.6795 42.0997 81.9629 42.2522 83.2718C42.4047 84.5807 41.9345 86.4105 43.4086 86.8934C44.8826 87.3763 46.0263 85.8387 47.1192 84.8857C47.5019 84.4414 48.0111 84.1243 48.5786 83.9767C49.1462 83.8292 49.7453 83.8581 50.296 84.0597C54.464 85.5083 58.6956 86.7536 62.8637 88.1642C63.9692 88.5327 65.062 88.9393 65.4814 87.5288C65.9007 86.1183 64.541 85.9277 63.6388 85.6354C59.7249 84.3646 55.7221 83.3353 51.859 81.9121C49.6606 81.0988 47.7672 80.4889 45.9501 82.5602C45.3528 83.221 44.8826 83.3735 44.7683 82.0011C44.6412 80.3999 44.2981 78.8115 44.1456 77.1977C43.9931 75.5838 43.129 75.1136 41.7058 75.9269C40.6461 76.5262 39.6425 77.2194 38.7068 77.9982C37.6775 78.8877 36.9024 79.4215 36.3814 77.5789C36.2538 77.2541 36.0457 76.9671 35.7768 76.7448C35.5078 76.5225 35.1868 76.3723 34.8438 76.3081C32.531 75.6092 30.2437 74.8468 27.9563 74.1479C27.321 73.9573 26.495 73.9318 26.5585 73.0423C26.6221 72.1528 27.5624 71.8987 28.3249 71.9876C32.4294 72.4578 33.9797 70.9202 35.53 67.4129C36.6991 64.7825 35.5935 62.5968 32.3658 60.4238C31.6542 59.9537 31.7305 59.7758 31.9465 58.9752C33.3637 54.8248 33.074 50.2814 31.1413 46.3445C29.2086 42.4076 25.7912 39.3997 21.6408 37.9825C17.4903 36.5653 12.9469 36.855 9.01003 38.7877C5.07314 40.7204 2.06526 44.1378 0.648079 48.2882C0.51056 48.6824 0.289488 49.0422 0 49.343L0 59.1404C0.470175 57.3868 1.09284 55.6586 1.58843 53.9049C1.89341 52.8629 2.66856 53.5364 3.02437 53.6381C6.51588 54.7831 10.164 55.379 13.8384 55.4044C15.8847 55.4984 17.9206 55.0606 19.7473 54.1337C19.9626 53.955 20.2118 53.8219 20.4799 53.7422C20.7481 53.6625 21.0295 53.638 21.3074 53.67C21.5853 53.7021 21.8538 53.7901 22.0967 53.9288C22.3396 54.0674 22.552 54.2538 22.7209 54.4768C23.89 55.7475 25.364 56.942 25.9104 58.7465C29.3033 63.1305 26.1392 69.7511 23.369 72.623C19.0611 77.0452 13.9019 77.8838 8.18359 76.1429C8.01184 76.0979 7.85424 76.0102 7.7254 75.888C7.59656 75.7659 7.50065 75.6131 7.44655 75.444C5.62681 74.7479 4.00072 73.6252 2.70494 72.1702C1.40916 70.7152 0.481528 68.9704 0 67.0825L0 73.1694C0.292685 73.6938 0.446336 74.2844 0.446336 74.8849C0.446336 75.4854 0.292685 76.076 0 76.6004L0 80.8574C0.381223 81.1115 0.673494 81.48 1.01659 81.7596C1.96015 82.6077 2.84335 83.5206 3.65974 84.4917C2.389 84.9492 1.11825 85.4702 0 85.9658V95.1532C0.686201 93.0819 1.35969 90.9979 2.08402 88.9266C2.41441 88.0117 5.23546 86.3851 5.68022 86.9442C6.62057 87.999 8.00568 88.9393 7.3576 90.7565C6.60786 92.8913 5.90895 95.0516 5.23546 97.2246C5.09568 97.6312 5.23546 98.1268 4.76529 98.0633C3.11332 97.5295 1.67738 97.1356 0.304978 96.5765C0.167408 96.5185 0.0579546 96.4091 0 96.2715L0 99.3213C1.1945 99.7279 2.37629 100.224 3.5835 100.592C5.6421 101.215 6.90013 100.49 7.62446 98.3682C8.24712 96.5257 8.8952 94.6831 9.50516 92.6118C10.3438 93.6665 11.0682 94.5179 11.7163 95.4201C12.7837 96.9069 13.7749 97.3516 14.8423 95.4201C15.1741 94.9622 15.5486 94.5367 15.9605 94.1494L19.0611 89.9051C21.3612 91.1758 21.3866 92.4466 20.2556 94.9881C17.5744 100.961 18.6672 107.06 21.6662 112.639C22.0491 113.328 22.2832 114.091 22.3532 114.877C22.4233 115.662 22.3277 116.454 22.0728 117.201H26.8C24.4631 113.414 22.7833 109.259 21.8314 104.913C20.8148 99.4865 22.0601 94.6704 26.3679 90.9344C29.9133 87.8592 37.2455 88.4819 40.0792 92.5991C42.2141 95.687 44.2981 96.5892 47.8562 95.2168C49.131 94.7667 50.4949 94.6275 51.8343 94.811C53.1738 94.9944 54.4501 95.4952 55.5569 96.2715C59.6233 98.2157 61.2371 103.121 60.3857 107.505C59.6079 111.385 57.4329 114.844 54.2734 117.226H58.1873C60.3087 115.01 61.8762 112.323 62.762 109.386ZM32.0863 63.3974C32.5752 63.8433 32.9128 64.4307 33.0518 65.0777C33.1907 65.7247 33.1242 66.3989 32.8614 67.0063C32.0863 68.9632 30.4978 69.3699 28.5536 69.5478C29.2271 67.4256 29.8243 65.6085 30.3835 63.8167C30.6884 62.978 31.0951 62.2664 32.0863 63.3974ZM13.6224 52.7994C10.4327 52.6411 7.27041 52.1297 4.19345 51.2745C2.79563 50.8424 2.82105 50.0037 3.29122 49.1015C4.10533 47.2711 5.30855 45.64 6.81714 44.3218C8.32574 43.0037 10.1035 42.0301 12.0266 41.4689C13.9497 40.9077 15.972 40.7723 17.9528 41.0722C19.9336 41.3721 21.8252 42.1 23.496 43.2053C24.5253 43.8534 24.932 44.476 24.2331 45.7468C21.9076 49.9529 18.8832 53.0154 13.6224 52.7994ZM24.1441 52.4055C23.5087 51.9734 23.3308 51.5032 24.0043 50.8297C24.6799 50.176 25.25 49.4216 25.6944 48.5932C26.0502 47.907 26.3806 46.9031 27.0922 46.9921C27.8039 47.081 28.2359 48.0214 28.5028 48.7838C29.5956 51.8463 30.5868 54.9215 29.0873 58.505C27.4099 56.1923 26.2917 53.8922 24.1441 52.4055ZM2.12214 78.7861C1.91882 78.4049 1.94424 78.1253 2.35087 77.9347C2.32454 77.5754 2.37811 77.2147 2.50774 76.8785C2.63737 76.5423 2.83984 76.2391 3.10061 75.9904C5.74427 78.0697 8.92799 79.3484 12.2754 79.6756C12.8599 79.7646 14.1434 78.964 14.0036 80.3491C13.8892 81.4038 13.8257 82.9668 11.9704 82.7635H11.5383C6.97638 84.0978 4.30782 82.9922 2.12214 78.7861ZM16.6849 88.7106C16.0622 89.2824 15.9097 90.2609 15.0583 90.6421C14.7539 91.2051 14.4144 91.7484 14.0417 92.2687C13.5715 92.8532 13.1903 93.0184 12.6312 92.1416C11.3604 90.1338 9.89909 88.215 8.3869 86.0929C9.35267 85.8768 10.1024 85.3685 11.0173 85.7498C12.0652 85.2867 13.2473 85.2278 14.336 85.5845C15.4246 85.9411 16.3428 86.688 16.9136 87.6813C17.2694 88.2277 17.0025 88.4691 16.6849 88.7487V88.7106Z" fill="#010101"/>
<path d="M12.9743 113.096C13.4826 112.092 14.118 111.215 15.5158 111.546C16.7896 107.313 17.3648 102.901 17.2186 98.4826C17.1423 97.4025 17.2186 96.2334 16.3799 95.4328C13.5334 98.9401 13.5334 98.9401 9.83555 95.077C9.19187 96.1771 8.7608 97.3884 8.56481 98.6478C7.59904 101.964 6.02332 102.854 2.71939 101.812C1.76633 101.494 0.876813 101.202 0 100.897V117.213H11.2207C11.725 115.808 12.3105 114.433 12.9743 113.096Z" fill="#F8F7F8"/>
<path d="M8.48856 97.6439C8.68456 96.3845 9.11563 95.1732 9.75931 94.0731C13.4572 97.8853 13.4572 97.8853 16.3036 94.4289C16.1862 94.3105 16.0538 94.2079 15.9097 94.1239C15.4977 94.5113 15.1233 94.9368 14.7914 95.3947C13.724 97.3262 12.7328 96.8815 11.6654 95.3947C11.0173 94.4925 10.293 93.6411 9.45433 92.5863C8.8952 94.6958 8.24712 96.5765 7.62446 98.3809C6.90013 100.503 5.6421 101.227 3.5835 100.605C2.37629 100.224 1.1945 99.7279 0 99.334V99.944C0.876813 100.249 1.76633 100.541 2.64315 100.821C5.89625 101.85 7.5228 100.961 8.48856 97.6439Z" fill="#F8F7F8"/>
<path d="M0 114.837V115.231C0.159563 115.267 0.316613 115.314 0.470175 115.371C2.26192 116.006 4.06638 116.642 5.87083 117.213H7.3576C5.08297 116.464 2.83376 115.638 0.533712 114.977L0 114.837Z" fill="#F8F7F8"/>
<path d="M13.3682 112.461C13.6986 111.52 14.1561 110.618 15.4268 110.771C15.4268 110.694 15.4268 110.618 15.4268 110.529C14.0671 110.199 13.4318 111.076 12.8853 112.08C12.3843 113.206 11.9597 114.365 11.6146 115.549C11.4464 116.117 11.2383 116.674 10.9919 117.213H11.945V117.074C12.2968 115.501 12.7727 113.958 13.3682 112.461Z" fill="#F8F7F8"/>
<path d="M55.6077 96.2588C54.5009 95.4824 53.2246 94.9817 51.8852 94.7982C50.5457 94.6148 49.1818 94.7539 47.907 95.2041C44.3489 96.5765 42.2649 95.6742 40.1301 92.5863C37.2963 88.4691 29.9641 87.8465 26.4187 90.9217C22.1109 94.7339 20.8656 99.4992 21.8822 104.9C22.8341 109.247 24.514 113.401 26.8508 117.188H32.2896C32.174 116.909 32.0847 116.62 32.0227 116.324C32.1371 115.752 32.2133 115.256 32.3531 114.774C33.2045 111.902 33.2299 111.762 30.2945 111.165C28.363 110.771 28.0072 109.754 28.4392 108.153C28.8713 106.552 29.405 105.014 29.9006 103.451C30.4597 101.698 31.7686 101.545 33.1664 102.18C35.4156 103.172 36.6863 102.854 37.1184 100.16C37.4107 98.2793 38.6814 97.5295 40.6257 98.3555C41.7566 98.8257 42.9384 99.1815 44.1075 99.6263C46.5727 100.427 46.9285 100.999 46.0009 103.553C45.3401 105.383 45.5561 106.374 47.6783 106.933C50.6518 107.721 50.817 108.293 49.8512 111.228C49.7242 111.635 49.559 112.029 49.4319 112.499C48.0468 116.769 48.0595 116.769 43.65 115.574C42.8749 115.371 42.1633 115.078 41.9981 116.362C41.9451 116.697 41.8423 117.023 41.6931 117.328H47.2716C48.8816 116.32 50.4149 115.194 51.859 113.96C54.2717 111.783 55.9336 108.898 56.6069 105.718C57.2802 102.539 56.9305 99.2275 55.6077 96.2588Z" fill="#EB5669"/>
<path d="M7.44655 75.444C7.77204 75.3032 8.12135 75.2255 8.47586 75.2153C16.7103 76.2319 22.6192 71.4031 25.2751 64.0582C25.9104 62.3299 25.453 60.5382 25.9104 58.8227C25.4149 57.0182 23.89 55.9127 22.7209 54.553C22.552 54.3301 22.3396 54.1436 22.0967 54.005C21.8538 53.8664 21.5853 53.7783 21.3074 53.7463C21.0295 53.7142 20.7481 53.7388 20.4799 53.8184C20.2118 53.8981 19.9626 54.0313 19.7473 54.2099C17.9206 55.1368 15.8847 55.5747 13.8384 55.4806C10.164 55.4552 6.51588 54.8593 3.02437 53.7143C2.66856 53.6127 1.89341 52.9392 1.58843 53.9812C1.09284 55.6713 0.470175 57.3995 0 59.1531V67.0825C0.481528 68.9704 1.40916 70.7152 2.70494 72.1702C4.00072 73.6252 5.62681 74.7479 7.44655 75.444Z" fill="#FFE5C1"/>
<path d="M23.496 43.2053C21.8252 42.1 19.9336 41.372 17.9528 41.0722C15.972 40.7723 13.9497 40.9077 12.0266 41.4689C10.1035 42.0301 8.32574 43.0037 6.81714 44.3218C5.30855 45.64 4.10533 47.271 3.29123 49.1015C2.82105 50.0673 2.79564 50.8424 4.19345 51.2745C7.27041 52.1297 10.4327 52.6411 13.6224 52.7994C18.8832 53.0154 21.9076 49.9529 24.2331 45.734C24.932 44.476 24.5253 43.8533 23.496 43.2053Z" fill="#385E7E"/>
<path d="M60.4365 107.492C61.2879 103.108 59.6741 98.203 55.6077 96.2588C57.2597 97.7964 57.2597 99.9185 57.3995 101.888C57.7553 106.971 55.3409 110.923 51.9607 114.443C50.9137 115.506 49.7401 116.437 48.4661 117.213H54.3243C57.4837 114.831 59.6587 111.372 60.4365 107.492Z" fill="#E53A50"/>
<path d="M57.3995 101.888C57.2597 99.9185 57.2597 97.7964 55.6077 96.2588C56.9038 99.2135 57.2392 102.501 56.5666 105.656C55.894 108.812 54.2473 111.676 51.859 113.846C50.4149 115.08 48.8816 116.205 47.2716 117.213H48.4661C49.7401 116.437 50.9137 115.506 51.9607 114.443C55.3409 110.923 57.7553 106.971 57.3995 101.888Z" fill="#E53A50"/>
<path d="M20.9673 112.308C18.4592 107.582 17.7374 102.11 18.9341 96.8942C19.1989 95.6904 19.672 94.5422 20.3319 93.5013C20.4685 93.3297 20.5662 93.1305 20.6182 92.9175C20.6701 92.7044 20.6751 92.4826 20.6328 92.2674C20.5905 92.0522 20.5019 91.8488 20.3731 91.6713C20.2444 91.4938 20.0785 91.3464 19.8871 91.2394C18.9214 90.5277 18.6164 91.5316 18.2225 91.9891C17.6379 92.6499 17.1296 93.3615 16.6086 94.0731C17.4473 94.1875 17.4092 95.1914 17.5617 95.8267C17.9404 97.9232 18.0089 100.064 17.765 102.18C17.6125 104.506 16.9263 106.742 16.4942 109.042C16.4095 109.692 16.0772 110.284 15.5666 110.694C16.0198 111.018 16.3479 111.488 16.496 112.024C16.644 112.561 16.6031 113.132 16.3799 113.643C16.0368 114.913 15.6047 116.057 15.2235 117.277H21.4756C21.7361 116.458 21.8254 115.594 21.738 114.74C21.6505 113.885 21.3882 113.057 20.9673 112.308Z" fill="#DEDAEB"/>
<path d="M21.717 112.651C18.7181 107.073 17.6252 100.973 20.3065 95.0008C21.4374 92.4593 21.412 91.1885 19.112 89.9178L15.9605 94.1366C16.1739 94.089 16.3952 94.089 16.6086 94.1366C17.1296 93.425 17.6379 92.7134 18.2225 92.0526C18.6418 91.5952 18.9214 90.5913 19.8871 91.3029C20.0689 91.4108 20.226 91.5555 20.3483 91.7279C20.4706 91.9002 20.5555 92.0962 20.5974 92.3034C20.6393 92.5105 20.6373 92.7241 20.5916 92.9305C20.5459 93.1368 20.4574 93.3312 20.3319 93.5013C19.672 94.5422 19.1989 95.6904 18.9341 96.8942C17.7374 102.11 18.4592 107.582 20.9673 112.308C21.3878 113.045 21.6543 113.86 21.7504 114.703C21.8465 115.547 21.7703 116.4 21.5264 117.213H22.1236C22.3786 116.467 22.4741 115.675 22.404 114.889C22.334 114.103 22.1 113.341 21.717 112.651Z" fill="#DEDAEB"/>
<path d="M15.6174 110.631C15.6174 110.631 15.5031 110.733 15.4268 110.771C15.8174 111.176 16.0677 111.696 16.1409 112.254C16.2141 112.812 16.1064 113.379 15.8335 113.871C15.3962 114.963 15.0228 116.079 14.7152 117.213H15.2489C15.6301 115.943 16.0622 114.799 16.4053 113.579C16.6311 113.072 16.676 112.502 16.5326 111.966C16.3893 111.429 16.0662 110.958 15.6174 110.631Z" fill="#DEDAEB"/>
<path d="M16.3545 94.4289C17.2186 95.2295 17.1169 96.3986 17.1932 97.4787C17.3442 101.901 16.7689 106.318 15.4904 110.555L15.6174 110.656C16.128 110.246 16.4603 109.654 16.5451 109.004C16.9263 106.704 17.6125 104.468 17.8158 102.142C18.0597 100.026 17.9912 97.8851 17.6125 95.7886C17.46 95.1532 17.4981 94.1494 16.6594 94.035L16.418 94.3654L16.3545 94.4289Z" fill="#DEDAEB"/>
<path d="M16.3672 94.4035L16.6086 94.0731C16.3952 94.0254 16.1739 94.0254 15.9605 94.0731C16.1046 94.1571 16.2371 94.2596 16.3545 94.3781L16.3672 94.4035Z" fill="#DEDAEB"/>
<path d="M15.4268 110.771C15.5031 110.771 15.5539 110.669 15.6174 110.631L15.4904 110.529C15.4649 110.618 15.4522 110.694 15.4268 110.771Z" fill="#DEDAEB"/>
<path d="M7.44655 75.444C7.50064 75.6131 7.59655 75.7659 7.72539 75.888C7.85423 76.0102 8.01183 76.0979 8.18358 76.1429C13.9019 77.8838 19.0738 77.0452 23.3308 72.6992C26.1392 69.8273 29.3033 63.2068 25.8723 58.8227C27.9563 67.3494 17.981 78.2905 7.44655 75.444Z" fill="#FDD1A3"/>
<path d="M8.47585 75.2153C8.12135 75.2255 7.77203 75.3032 7.44655 75.444C17.981 78.2905 27.9563 67.3494 25.9104 58.8227C25.453 60.5382 25.9104 62.3299 25.2751 64.0582C22.6192 71.3903 16.7103 76.2446 8.47585 75.2153Z" fill="#FDD1A3"/>
<path d="M0.304978 96.5765C1.67738 97.1229 3.11332 97.5168 4.76529 98.0505C5.17192 98.0505 5.09568 97.6185 5.23546 97.2118C5.90896 95.0389 6.60786 92.8786 7.3576 90.7438C8.00568 88.9266 6.62057 87.9863 5.68022 86.9315C5.23546 86.4105 2.41441 88.0117 2.08402 88.952C1.3597 90.9979 0.686201 93.0819 0 95.1532V96.2715C0.0579546 96.4091 0.167408 96.5185 0.304978 96.5765ZM3.81223 91.9637C4.53655 91.9637 5.08297 92.2814 5.08297 93.2344C4.85424 93.8063 4.49843 94.5052 3.65974 94.5052C2.82105 94.5052 2.389 94.1875 2.389 93.3361C2.38706 93.151 2.42295 92.9674 2.49445 92.7967C2.56595 92.626 2.67156 92.4716 2.80481 92.3431C2.93805 92.2146 3.09614 92.1147 3.26937 92.0495C3.4426 91.9842 3.62732 91.955 3.81223 91.9637Z" fill="#BDB8DA"/>
<path d="M28.5155 48.7838C28.2486 48.0214 27.7657 47.081 27.1049 46.9921C26.4442 46.9031 26.0629 47.907 25.7071 48.5932C25.2627 49.4216 24.6926 50.176 24.017 50.8297C23.3435 51.5032 23.5215 51.9734 24.1568 52.4054C26.2917 53.8922 27.4099 56.2177 29.1 58.505C30.5995 54.9215 29.6083 51.8463 28.5155 48.7838Z" fill="#2C4E66"/>
<path d="M1.01659 81.7596C0.673494 81.48 0.381223 81.1115 0 80.8574V85.9404C1.16908 85.4448 2.36358 84.9238 3.65974 84.4663C2.84244 83.5039 1.95927 82.5995 1.01659 81.7596Z" fill="#DDD9EA"/>
<path d="M12.4025 85.9658L12.0593 85.8641C11.7162 85.8641 11.3604 85.8641 11.0173 85.7879C10.1024 85.4066 9.35267 85.9149 8.3869 86.131C9.89909 88.2531 11.3477 90.2228 12.6312 92.1797C13.1903 93.0565 13.5715 92.8913 14.0417 92.3068C14.4144 91.7865 14.7539 91.2432 15.0583 90.6802C14.7787 89.0537 13.6351 87.8846 12.9235 86.4741C12.8156 86.2482 12.6309 86.068 12.4025 85.9658Z" fill="#DCD8E9"/>
<path d="M11.5383 82.7254C11.8179 82.09 12.4406 81.1878 11.1952 81.0988C8.03788 80.7172 5.00202 79.6503 2.30005 77.9728C1.89341 78.1634 1.86799 78.443 2.07131 78.8242C4.30782 82.9922 6.97638 84.0978 11.5383 82.7254Z" fill="#FCD0A3"/>
<path d="M3.55808 77.9093C5.8494 79.2464 8.37076 80.1429 10.9919 80.5524C12.3643 80.8574 12.9616 81.6071 11.5383 82.7254H11.9704C13.8257 82.9287 13.8892 81.3657 14.0036 80.311C14.1434 78.9259 12.8599 79.7264 12.2754 79.6375C8.93196 79.3214 5.74861 78.056 3.10061 75.9904C2.83984 76.2391 2.63737 76.5423 2.50774 76.8785C2.37811 77.2147 2.32454 77.5754 2.35087 77.9347C2.5212 77.7981 2.73187 77.7215 2.95016 77.7169C3.16845 77.7123 3.38215 77.7799 3.55808 77.9093Z" fill="#F7B883"/>
<path d="M11.5383 82.7254C12.9616 81.6071 12.3643 80.8574 10.9919 80.5524C8.37077 80.1429 5.84941 79.2464 3.55808 77.9093C3.38494 77.7763 3.17276 77.7043 2.95448 77.7043C2.7362 77.7043 2.52402 77.7763 2.35088 77.9093C5.05285 79.5867 8.08871 80.6536 11.2461 81.0353C12.4406 81.1878 11.8179 82.09 11.5383 82.7254Z" fill="#F7B883"/>
<path d="M32.8614 67.0063C33.1242 66.3989 33.1907 65.7247 33.0518 65.0777C32.9128 64.4307 32.5752 63.8433 32.0863 63.3974C31.0951 62.2664 30.6884 62.978 30.3835 63.8548C29.7608 65.6466 29.2271 67.4637 28.5536 69.5859C30.4978 69.3699 32.0863 68.9632 32.8614 67.0063Z" fill="#F8B983"/>
<path d="M11.0173 85.7879C11.3665 85.7549 11.7187 85.7807 12.0593 85.8641C12.1782 85.8802 12.294 85.9145 12.4024 85.9658C13.3115 86.3374 14.0685 87.0053 14.5505 87.861C15.0326 88.7167 15.2115 89.7101 15.0583 90.6802C15.9097 90.299 16.0622 89.3205 16.6848 88.7487C17.0025 88.4691 17.2694 88.2277 16.9136 87.694C16.3387 86.7052 15.4188 85.9636 14.3305 85.6118C13.2422 85.26 12.0622 85.3227 11.0173 85.7879Z" fill="#BBB6D7"/>
<path d="M12.0593 85.8641C11.7187 85.7807 11.3665 85.7549 11.0173 85.7879C11.3604 85.8514 11.7162 85.8133 12.0593 85.8641Z" fill="#BBB6D7"/>
<path d="M12.4025 85.9658C12.6309 86.068 12.8156 86.2482 12.9235 86.4741C13.6351 87.8846 14.7787 89.0156 15.0583 90.6802C15.2115 89.7101 15.0326 88.7167 14.5505 87.861C14.0685 87.0053 13.3116 86.3374 12.4025 85.9658Z" fill="#BBB6D7"/>
<path d="M43.65 115.46C48.0595 116.654 48.0468 116.654 49.4319 112.385C49.559 111.978 49.7242 111.584 49.8513 111.114C50.817 108.178 50.6518 107.607 47.6783 106.819C45.5561 106.26 45.3401 105.268 46.0009 103.438C46.9285 100.897 46.5727 100.312 44.1075 99.5119C42.9384 99.1307 41.7566 98.7749 40.6257 98.2412C38.6814 97.4152 37.4107 98.1649 37.1184 100.046C36.6864 102.74 35.4156 103.057 33.1664 102.066C31.7686 101.443 30.4597 101.596 29.9006 103.337C29.405 104.9 28.8713 106.463 28.4392 108.039C28.0072 109.614 28.363 110.656 30.2945 111.05C33.2299 111.647 33.2045 111.787 32.3531 114.659C32.2133 115.142 32.1371 115.638 32.0227 116.209C32.0847 116.505 32.174 116.794 32.2896 117.074H41.6931C41.8423 116.769 41.9451 116.443 41.9981 116.108C42.1633 114.964 42.8749 115.256 43.65 115.46ZM39.8378 114.481C39.8378 114.685 39.5964 114.862 39.5709 115.066C39.3549 117.607 38.0588 117.34 36.4449 116.337C35.6571 116.502 34.9709 116.54 35.1742 115.371C35.1742 115.091 35.1742 114.786 35.2377 114.519C36.2289 110.453 36.2797 110.301 32.4675 109.106C30.231 108.407 31.6542 107.187 31.7813 106.26C31.9084 105.332 32.2006 104.455 33.8018 104.989C37.8554 106.463 37.8681 106.26 39.2405 102.193C39.3295 101.939 39.1008 100.401 40.4096 101.189C44.476 102.219 43.9423 102.282 42.6843 105.243C41.8837 107.124 42.3412 108.191 44.3743 108.547C44.7047 108.547 45.0224 108.788 45.3655 108.877C46.0899 109.068 47.2589 109.093 47.2843 109.843C47.1938 110.978 46.8785 112.084 46.3567 113.096C46.2042 113.503 45.6197 113.414 45.2003 113.223C44.628 112.961 44.0427 112.728 43.4467 112.524C41.045 111.711 40.5494 111.991 39.787 114.481H39.8378Z" fill="#030202"/>
<path d="M3.5835 94.4798C4.42219 94.4798 4.778 93.8317 5.00673 93.209C5.00673 92.2305 4.47302 91.9383 3.73599 91.9383C3.55637 91.9349 3.37786 91.9672 3.21078 92.0332C3.0437 92.0992 2.89137 92.1977 2.76257 92.323C2.63378 92.4482 2.53109 92.5977 2.46042 92.7629C2.38976 92.9281 2.35253 93.1056 2.35088 93.2853C2.26193 94.1621 2.88459 94.4798 3.5835 94.4798Z" fill="#141318"/>
<path d="M45.2003 113.21C45.6197 113.401 46.2042 113.49 46.3567 113.083C46.8504 112.07 47.1397 110.969 47.2081 109.843C47.2081 109.093 46.0136 109.068 45.2893 108.877C44.9462 108.788 44.6285 108.598 44.2981 108.547C42.2649 108.191 41.7566 107.124 42.608 105.243C43.8788 102.282 44.3998 102.219 40.3334 101.189C41.6041 102.308 40.8036 103.832 40.4986 104.773C39.2278 108.585 38.4781 112.715 36.3941 116.298C38.0079 117.34 39.3041 117.569 39.5201 115.028C39.5201 114.824 39.7361 114.646 39.787 114.443C40.5494 111.902 41.0577 111.673 43.4467 112.473C44.0434 112.689 44.6287 112.935 45.2003 113.21Z" fill="#DEDAEC"/>
<path d="M40.3334 101.189C39.0626 100.401 39.2532 101.939 39.1643 102.193C37.7919 106.323 37.7792 106.463 33.7255 104.989C32.1244 104.417 31.8448 105.319 31.705 106.26C31.5653 107.2 30.1547 108.407 32.3912 109.106C36.2035 110.301 36.2035 110.453 35.1615 114.519C35.0979 114.786 35.1615 115.091 35.0979 115.371C34.92 116.54 35.6062 116.502 36.3687 116.337C37.1184 113.198 38.2621 110.186 39.266 107.136C39.9417 105.225 40.3022 103.216 40.3334 101.189Z" fill="#F7F6F7"/>
<path d="M40.3334 101.189C40.3063 103.202 39.9544 105.197 39.2914 107.098C38.2875 110.148 37.1438 113.16 36.3941 116.298C38.4781 112.715 39.2533 108.674 40.4986 104.773C40.8036 103.832 41.6295 102.308 40.3334 101.189Z" fill="#F7F6F7"/>
<path d="M26.7618 12.1102V18.9595H29.4431V20.0142H25.4149V12.1102H26.7618Z" fill="#010101"/>
<path d="M35.2885 18.4004H31.9719L31.4128 20.0142H30.0531L32.8868 12.0975H34.3863L37.2201 20.0142H35.8604L35.2885 18.4004ZM33.6366 13.6605L32.3658 17.3329H34.9073L33.6366 13.6605Z" fill="#010101"/>
<path d="M37.7665 12.1102H39.2151L41.045 15.986L42.8749 12.1102H44.3108L41.6931 17.1932V20.065H40.4223V17.1423L37.7665 12.1102Z" fill="#010101"/>
<path d="M50.1054 18.4004H46.7888L46.2296 20.0142H44.8699L47.7037 12.0975H49.2032L52.1005 20.0142H50.6772L50.1054 18.4004ZM48.4534 13.6605L47.1827 17.3329H49.7242L48.4534 13.6605Z" fill="#010101"/>
<path d="M59.7249 12.0975V20.0142H58.4542L54.5657 14.1052V20.0142H53.295V12.0975H54.5657L58.4542 17.981V12.0975H59.7249Z" fill="#010101"/>
<path d="M66.2438 18.4004H62.9272L62.3681 20.0142H60.9957L63.8294 12.0975H65.3289L68.1627 20.0142H66.8157L66.2438 18.4004ZM64.5919 13.6605L63.3211 17.3329H65.8626L64.5919 13.6605Z" fill="#010101"/>
<path d="M75.9015 12.0975V20.0142H74.6307L70.7041 14.1052V20.0142H69.4334V12.0975H70.7041L74.6053 17.981V12.0975H75.9015Z" fill="#010101"/>
<path d="M39.9267 25.758H45.4418V26.8127H43.3323V33.662H42.0616V26.8127H39.9267V25.758Z" fill="#010101"/>
<path d="M51.122 26.8127H48.0468V29.1254H50.8297V30.1801H48.0468V32.6073H51.122V33.662H46.7506V25.7453H51.122V26.8127Z" fill="#010101"/>
<path d="M55.4425 25.758C57.3232 25.758 58.2382 26.8381 58.2382 28.1215C58.2535 28.6564 58.0778 29.1792 57.7424 29.5961C57.407 30.013 56.934 30.2966 56.4083 30.3962L58.3652 33.662H56.8149L54.9978 30.4978H54.0066V33.6493H52.7358V25.758H55.4425ZM55.4425 26.8127H54.0066V29.4685H55.4425C56.4591 29.4685 56.9166 28.9094 56.9166 28.1215C56.9166 27.3337 56.4591 26.8127 55.4425 26.8127Z" fill="#010101"/>
<path d="M64.6681 32.0481H61.3642L60.7923 33.662H59.4326L62.2664 25.7453H63.7786L66.6123 33.662H65.2399L64.6681 32.0481ZM63.0161 27.321L61.7454 30.9934H64.2869L63.0161 27.321Z" fill="#010101"/>
<path d="M70.5644 30.4978H69.1284V33.7001H67.8577V25.758H70.5898C72.4705 25.758 73.3854 26.8254 73.3854 28.1215C73.3854 29.4177 72.623 30.4978 70.5644 30.4978ZM70.5644 29.4431C71.5809 29.4431 72.0384 28.9475 72.0384 28.1724C72.0384 27.3972 71.5809 26.9016 70.5644 26.9016H69.1284V29.4431H70.5644Z" fill="#010101"/>
<path d="M74.6053 25.758H75.8761V33.662H74.6053V25.758Z" fill="#010101"/>
</g>
<defs>
<clipPath id="clip0_427_6695">
<path d="M0 10C0 4.47715 4.47715 0 10 0H75C80.5228 0 85 4.47715 85 10V107.213C85 112.736 80.5228 117.213 75 117.213H10C4.47715 117.213 0 112.736 0 107.213V10Z" fill="white"/>
</clipPath>
</defs>
</svg>
