<svg width="86" height="118" viewBox="0 0 86 118" fill="none" xmlns="http://www.w3.org/2000/svg">
<g clip-path="url(#clip0_427_6697)">
<path d="M85.2614 0H0.261444V117.213H85.2614V0Z" fill="#FBE265"/>
<path d="M18.9795 111.457C17.7087 111.114 17.2004 111.775 16.9844 112.817C16.7684 113.859 16.3236 113.782 15.5231 113.49C13.8838 112.906 12.2191 112.41 10.529 111.876C11.1771 109.83 11.7998 107.759 12.5114 105.751C12.8799 104.773 12.6766 104.163 11.749 103.921C10.8213 103.68 10.4782 104.15 10.2114 104.989C9.08039 108.521 7.82237 112.029 6.69141 115.574C6.37372 116.565 6.08145 116.845 5.02674 116.425L0.261452 114.799V117.213H8.77543C8.59752 116.629 9.27101 115.866 9.38538 115.244C9.49974 114.621 9.88097 113.973 10.834 114.481C11.8809 114.896 12.95 115.252 14.0363 115.549C14.4039 115.668 14.7314 115.887 14.9825 116.18C15.2337 116.474 15.3988 116.832 15.4595 117.213H18.2425C18.5729 116.222 18.827 115.206 19.1447 114.214C19.4624 113.223 19.8309 112.321 18.9795 111.457Z" fill="#010101"/>
<path d="M0.668079 80.1966C0.528298 79.9552 0.401233 79.701 0.261452 79.4469V85.4321C0.79939 84.6791 1.12156 83.7935 1.19322 82.8709C1.26488 81.9483 1.0833 81.0236 0.668079 80.1966Z" fill="#010101"/>
<path d="M54.5349 109.449C52.6796 108.089 49.9983 107.467 49.706 104.531C49.706 104.315 49.3503 103.972 49.1851 103.985C48.3845 104.061 47.7491 103.871 47.9143 102.981C48.0795 102.092 48.1685 101.469 49.1851 101.177C50.7233 100.561 52.0484 99.5103 52.9973 98.1522C53.246 97.7696 53.5901 97.4583 53.9955 97.2488C54.401 97.0394 54.854 96.9391 55.31 96.9577C56.4262 96.852 57.4915 96.4401 58.3884 95.7674C59.2853 95.0947 59.979 94.1874 60.393 93.1455C60.5447 92.6954 60.6028 92.219 60.5636 91.7456C60.5243 91.2722 60.3886 90.8118 60.1649 90.3928C59.9411 89.9739 59.6339 89.6051 59.2623 89.3092C58.8907 89.0134 58.4625 88.7967 58.004 88.6725C57.178 88.3548 57.7753 88.0244 57.9151 87.6305C58.9773 85.4075 59.4416 82.946 59.262 80.4889C59.0714 79.2181 59.262 77.7314 57.4449 77.401C57.0683 77.6529 56.788 78.0248 56.6496 78.4563C56.5112 78.8877 56.5228 79.3532 56.6824 79.7773C57.4068 82.2044 56.4029 84.5171 55.5769 86.7791C55.4625 87.0713 55.2592 87.4653 54.878 87.2746C54.4968 87.084 54.4713 86.7536 54.5603 86.2708C55.3482 82.1535 54.9796 81.6071 50.8624 80.1966C49.1723 79.6248 47.4823 79.0021 45.7795 78.443C42.9203 77.5153 41.586 78.1253 40.3534 80.832C40.0168 81.5643 39.5899 82.2516 39.0826 82.8779C39.1573 80.3164 40.0476 77.8456 41.6241 75.8252C41.9672 75.3805 42.1833 75.4821 42.5645 75.6219C43.4286 75.9269 44.3054 76.1811 45.1822 76.4606C47.5712 77.2358 48.0287 77.0833 48.7022 74.6562C49.1215 73.1313 49.9094 72.9152 51.142 73.4617C51.92 73.8253 52.6679 74.2502 53.3785 74.7324C53.6765 75.011 54.0641 75.1743 54.4717 75.1929C54.8792 75.2116 55.2801 75.0843 55.6023 74.8341C56.2122 73.881 55.831 73.2202 54.9923 72.6738C54.0484 71.9338 52.9493 71.4169 51.7774 71.1616C49.8967 70.9075 50.0746 70.0052 50.5066 68.6201C52.4636 62.9526 54.3188 57.247 56.2377 51.5668C56.746 50.0673 56.5681 49.2032 54.8017 48.733C52.1586 48.0341 49.6044 47.0048 46.9994 46.1915C38.892 43.4975 30.772 40.829 22.6774 38.0969C21.2795 37.6267 20.4535 37.6902 20.0215 39.3676C19.5894 41.045 18.7508 42.8495 18.2298 44.6158C17.9375 45.5434 17.7723 46.5727 18.9414 47.1573C21.0254 46.7634 20.7966 44.8064 21.3177 43.4467C22.3724 40.6257 22.2834 40.5748 25.1299 41.5152L48.7276 49.559C53.8106 50.4993 53.963 50.6518 52.4254 55.3409C50.532 61.1482 48.6132 66.9428 46.7325 72.75C46.3894 73.8175 46.0082 74.2114 44.801 73.7666C41.802 72.6611 38.7014 71.8351 35.7279 70.666C33.4787 69.7892 31.4073 69.319 29.0565 71.581C29.8443 68.7091 28.3449 68.0991 26.515 67.5908C24.1641 66.9428 24.1895 66.8665 24.2658 64.719C23.8973 60.6399 22.4867 57.0945 18.7889 54.9088C17.8866 54.3624 17.9502 53.511 18.2933 52.6088C18.6364 51.7065 19.2972 50.6137 17.785 50.0673C16.8828 50.0673 16.2474 50.3341 16.133 51.338C15.9805 52.7994 15.2054 53.1044 13.7186 52.8629C11.6944 52.5127 9.61363 52.7045 7.68753 53.4187C5.76143 54.1329 4.05864 55.3441 2.7521 56.9293C1.60374 58.2133 0.73789 59.7242 0.210609 61.3642V77.3501C1.01404 78.8541 2.00463 80.2503 3.15874 81.5055C5.70023 84.3138 8.72458 83.6403 11.7617 82.5983C12.5749 82.3315 13.3628 81.9884 14.4556 81.569C14.2669 82.0614 13.9668 82.5035 13.5788 82.8606C13.1908 83.2177 12.7254 83.4802 12.2191 83.6276C10.9179 84.2171 9.88799 85.2772 9.33638 86.595C8.78477 87.9127 8.75233 89.3904 9.24559 90.7311C9.83013 92.2178 9.02958 92.1543 8.16547 92.2305C5.37898 92.4816 2.59034 91.7732 0.26145 90.2228V93.1455C3.44256 94.8525 7.16854 95.2361 10.6307 94.2129C13.1722 93.5394 14.4429 95.3439 16.0314 96.424C17.6463 97.3996 18.8552 98.9248 19.4365 100.72C20.0177 102.515 19.9321 104.459 19.1955 106.196C18.738 107.467 19.3226 108.051 20.3011 108.547C20.6576 108.462 20.976 108.262 21.2061 107.976C21.4361 107.691 21.5648 107.338 21.5718 106.971C21.5718 105.624 22.0801 105.357 23.1475 106.171C27.0614 107.441 30.9626 108.839 34.8892 110.135C35.9947 110.504 36.4776 110.809 35.9566 112.219C35.334 113.871 34.7748 115.536 34.2284 117.213H36.8843C37.4815 115.358 38.155 113.515 38.7649 111.698C39.2351 110.428 38.6506 109.246 39.0954 107.759C39.7036 108.488 40.1071 109.365 40.2644 110.301C40.3661 110.809 40.4677 111.66 40.7727 111.762C43.5938 112.753 41.586 114.125 40.976 115.142C40.5694 115.816 40.1374 116.413 39.7053 117.15H42.6026C44.3943 114.329 46.1988 111.457 48.1685 108.344C48.5116 109.475 48.7784 110.25 48.9817 111.038C49.3502 112.385 49.4011 113.579 47.4314 113.452C47.218 113.437 47.0043 113.477 46.8103 113.567C46.6162 113.657 46.448 113.795 46.3213 113.967C46.1946 114.139 46.1134 114.341 46.0853 114.553C46.0573 114.765 46.0832 114.981 46.1607 115.18C46.323 115.481 46.4143 115.815 46.4275 116.156C46.4407 116.498 46.3755 116.838 46.2369 117.15H49.4519C49.589 116.612 49.8792 116.125 50.2875 115.748C50.6957 115.371 51.2044 115.121 51.7519 115.028C52.2475 114.913 52.1332 114.075 52.0188 113.541C51.8028 112.562 51.5613 111.597 51.3199 110.567C52.6796 110.909 53.8575 111.757 54.6133 112.938C55.369 114.119 55.6455 115.543 55.3863 116.921C55.371 116.995 55.3497 117.067 55.3227 117.137H57.9913C58.0737 115.672 57.8027 114.209 57.2012 112.871C56.5996 111.533 55.6852 110.36 54.5349 109.449ZM55.2846 93.8063C55.7929 92.8024 55.6404 91.2648 56.9874 90.9344C57.4449 90.7946 58.0421 91.4046 58.0675 92.2941C57.5084 93.0692 57.0891 94.1494 55.8056 94.34C55.3736 94.4035 55.094 94.1748 55.2846 93.8063ZM42.6534 81.4419C42.9584 80.4253 43.9242 80.311 44.9535 80.6414L48.2828 81.7723C48.5143 81.8869 48.7518 81.9888 48.9944 82.0773C52.3873 83.1066 52.3111 83.1066 52.1586 86.3851C52.1164 88.3117 52.2013 90.2389 52.4127 92.1543C52.545 93.3333 52.3231 94.5249 51.7754 95.5773C51.2277 96.6297 50.379 97.4951 49.3375 98.0633C48.1125 98.9645 46.6517 99.4901 45.1333 99.5758C43.6148 99.6615 42.1042 99.3038 40.7854 98.5461C39.5251 97.9431 38.5399 96.8853 38.0279 95.5853C37.0893 94.3379 36.6294 92.795 36.732 91.2373C36.8346 89.6795 37.4929 88.2103 38.587 87.0967C40.1119 85.3558 41.9418 83.869 42.6534 81.4419ZM14.0236 78.9004C12.507 79.8761 10.8079 80.5332 9.02957 80.832C6.19581 81.4165 5.21733 80.7303 3.18414 77.2231C2.15863 75.6788 1.47017 73.9356 1.16363 72.1073C0.85709 70.2791 0.939371 68.4067 1.40511 66.6124C2.04048 63.9819 2.45983 61.3134 4.04826 58.9879C6.94555 54.7436 14.4302 53.7397 17.7469 57.2724C19.142 58.0643 20.2576 59.269 20.9402 60.7208C21.6229 62.1725 21.8391 63.8001 21.5591 65.3797C20.695 70.6406 18.7635 75.5711 14.0236 78.8623V78.9004ZM22.3724 76.2446C22.2165 76.8702 21.8887 77.4398 21.4262 77.8889C20.9636 78.338 20.3846 78.6488 19.7546 78.7861C19.8151 77.6965 20.1471 76.6394 20.7204 75.7109C20.8602 75.3805 20.8729 74.5545 21.5718 74.8976C22.0547 75.1009 22.5757 75.444 22.3724 76.2446ZM27.5316 103.629C25.994 105.395 24.6089 103.998 23.0459 103.54C24.2335 102.696 25.6891 102.316 27.1377 102.473C28.0907 102.562 28.0907 103.006 27.5316 103.642V103.629ZM31.9029 105.611C31.9029 106.107 31.725 106.793 30.8482 106.196C30.2963 105.919 29.7112 105.714 29.1073 105.586C29.2471 104.824 29.8825 104.671 30.3018 104.531C30.7212 104.392 30.8991 103.006 31.7886 103.718C32.3477 104.201 31.9029 104.989 31.9029 105.611ZM32.7162 99.2578C32.1017 99.7632 31.3723 100.11 30.5923 100.267C29.8123 100.425 29.0056 100.388 28.2432 100.16C26.0655 99.8042 23.8313 100.18 21.8895 101.227C21.1016 96.1444 17.0861 94.0731 13.2993 91.7858C12.7439 91.517 12.2727 91.1014 11.9367 90.584C11.6007 90.0666 11.4127 89.467 11.3932 88.8504C11.3901 88.2204 11.5666 87.6026 11.9019 87.0692C12.2372 86.5359 12.7175 86.109 13.2866 85.8387C14.9155 85.1727 16.3153 84.0467 17.3148 82.5983C17.5981 82.1773 17.9749 81.8274 18.4158 81.5761C18.8566 81.3248 19.3497 81.1789 19.8563 81.1497C23.91 80.6032 26.21 76.2827 24.3166 74.0208C23.9572 73.493 23.4783 73.0576 22.9188 72.75C22.3597 72.4705 22.1563 72.1274 22.4486 71.3268C23.2873 69.0522 24.0116 68.7091 26.1211 69.9544C27.0995 70.539 26.2481 71.2252 26.1211 71.797C25.9432 72.7246 25.0918 73.6523 26.0448 74.491C26.9979 75.3297 27.9636 74.5926 28.5863 74.0462C31.9792 71.2506 35.2323 73.0169 38.5235 74.186C39.2478 74.4529 39.2097 74.7197 38.8158 75.2661C38.1642 76.188 37.6664 77.2093 37.3417 78.2905C36.8461 79.8408 37.024 81.5182 34.1776 81.3911C30.683 81.2386 30.2383 86.347 31.9919 88.1769C33.609 89.8273 34.5205 92.0421 34.5334 94.3527C34.7052 95.2637 35.0644 96.1292 35.5881 96.8942C36.0329 97.7329 35.5246 98.3301 35.2069 98.9782C34.8892 99.6263 34.1903 99.2196 33.8599 98.9782C33.6657 98.8948 33.4505 98.8733 33.2436 98.9165C33.0367 98.9597 32.8482 99.0655 32.7035 99.2196L32.7162 99.2578ZM35.7152 84.5553C35.4737 85.61 35.5118 86.9951 34.5207 87.4653C34.114 87.6559 33.4914 86.3089 33.5676 85.3685C33.6439 84.4282 33.7074 83.7039 34.8384 83.6784C35.2831 83.6784 35.9439 83.8691 35.7152 84.5553ZM37.9898 105.472C37.5042 106.057 36.9495 106.582 36.3378 107.035C35.2577 105.637 35.4356 103.934 34.508 102.663C35.2577 102.689 38.2566 105.052 37.9898 105.472ZM37.4688 101.266C37.0622 100.516 37.7611 100.198 37.8119 99.5882C39.7678 101.027 42.0785 101.905 44.496 102.13C44.9662 102.13 45.4745 102.015 45.4363 102.778C45.4362 103.012 45.3589 103.24 45.2165 103.426C45.0742 103.612 44.8746 103.746 44.6485 103.807C43.3412 104.279 41.9105 104.283 40.6009 103.817C39.2913 103.351 38.1842 102.445 37.4688 101.253V101.266ZM42.9838 108.826C42.3103 109.297 42.1578 108.826 42.1197 108.318C42.0816 107.81 41.1794 106.755 42.628 106.539C43.8352 106.348 45.0424 106.183 46.2496 106.018L46.4275 106.437L42.9838 108.826Z" fill="#010101"/>
<path d="M18.9287 52.1005C18.4331 53.4602 18.9287 54.1337 19.9453 54.9469C21.4096 56.055 22.5965 57.4881 23.4124 59.1332C24.2283 60.7782 24.651 62.5904 24.647 64.4267C24.647 64.541 24.647 64.6427 24.647 64.7444C27.9636 65.888 31.2549 67.1207 34.6096 68.0991C35.5763 68.4104 36.5955 68.5255 37.6073 68.4375C38.619 68.3495 39.603 68.0603 40.5015 67.5868C41.3999 67.1133 42.1947 66.4651 42.8392 65.6802C43.4837 64.8953 43.9649 63.9896 44.2546 63.0162C45.7922 58.6575 47.1773 54.248 48.6132 49.8513C40.6965 47.1573 32.7416 44.5777 24.8122 41.9091C22.7536 41.2229 22.6774 41.2865 21.9403 43.3959C21.7037 44.2628 21.4065 45.1121 21.0508 45.9374C20.6315 46.7379 20.1105 47.4368 19.0176 47.0683L17.7469 49.9275C19.7165 49.7877 19.259 51.211 18.9287 52.1005ZM31.5217 51.8336C31.9671 50.955 32.7026 50.2574 33.6035 49.8591C34.5044 49.4607 35.5153 49.3861 36.4649 49.6479C38.7777 50.1816 39.718 51.4143 39.8324 54.0193C39.9657 55.0136 39.7096 56.021 39.1176 56.8309C38.5256 57.6408 37.6434 58.1905 36.6555 58.3652C35.7787 58.6194 35.0925 58.8227 34.7748 59.7885C34.4571 60.7542 33.8091 60.678 33.1102 60.4238C32.9625 60.3733 32.8274 60.2918 32.7139 60.1847C32.6004 60.0776 32.5111 59.9474 32.4521 59.803C32.3931 59.6585 32.3658 59.5031 32.3719 59.3471C32.378 59.1912 32.4174 59.0384 32.4875 58.8989C33.0339 57.5138 33.0466 55.6204 35.4992 56.0271C35.7548 56.048 36.0121 56.0161 36.2549 55.9332C36.4977 55.8504 36.7209 55.7184 36.9105 55.5456C37.1 55.3727 37.2519 55.1626 37.3567 54.9284C37.4615 54.6943 37.517 54.441 37.5196 54.1845C37.5718 53.7942 37.5066 53.3973 37.3324 53.0443C37.1581 52.6912 36.8827 52.398 36.5412 52.2021C36.0981 51.9409 35.5725 51.8572 35.0703 51.968C34.568 52.0789 34.1264 52.3759 33.8345 52.7994C33.6904 52.9351 33.5701 53.094 33.4787 53.2696C33.1229 54.121 32.4367 54.4259 31.7377 53.9558C31.0388 53.4856 31.0261 52.6723 31.5217 51.8209V51.8336ZM32.3223 62.3554C33.2118 62.2664 33.1229 63.2449 33.5295 63.7532C33.4526 64.028 33.2855 64.269 33.0549 64.4373C32.8244 64.6056 32.544 64.6914 32.2588 64.6808C31.5344 64.6808 31.1913 64.1725 31.1786 63.499C31.185 63.1965 31.3071 62.908 31.5199 62.6928C31.7327 62.4777 32.0199 62.3524 32.3223 62.3427V62.3554Z" fill="#31BCC8"/>
<path d="M18.2806 52.4944C17.9375 53.3966 17.8739 54.248 18.7762 54.7944C22.474 57.031 23.8591 60.5255 24.2531 64.6046L24.6216 64.7317C24.6216 64.63 24.6216 64.5283 24.6216 64.414C24.6256 62.5777 24.2029 60.7655 23.387 59.1205C22.5711 57.4754 21.3842 56.0423 19.9199 54.9342C18.8778 54.1209 18.4077 53.4475 18.9033 52.0878C19.2336 51.211 19.6911 49.7877 17.7469 49.9021C19.2845 50.4993 18.6491 51.5413 18.2806 52.4944Z" fill="#31BCC8"/>
<path d="M21.0254 45.912C21.381 45.0867 21.6783 44.2374 21.9149 43.3705C22.6519 41.261 22.7282 41.1975 24.7868 41.8837C32.7162 44.5523 40.6711 47.1319 48.5878 49.8258L48.7403 49.3811L25.1426 41.3373C22.3342 40.3969 22.4232 40.4478 21.3304 43.2688C20.8093 44.6285 21.0381 46.5854 18.9541 46.9794C20.085 47.4114 20.606 46.7125 21.0254 45.912Z" fill="#31BCC8"/>
<path d="M53.6835 75.3296C53.1263 75.0849 52.5833 74.8092 52.0569 74.5037C50.0492 73.5633 49.8586 73.6269 48.8674 75.6219C48.1049 77.1468 47.2154 77.4899 45.3347 76.9689C41.586 75.9396 41.3573 76.054 40.0484 79.7264C39.8766 80.304 39.6642 80.8688 39.413 81.4165C39.5782 81.4165 39.5655 81.4165 39.6418 81.2132C41.5733 77.312 42.8822 76.7656 47.0502 78.1253C48.8753 78.6467 50.6628 79.292 52.4 80.0568C54.9415 81.3276 55.8692 83.0431 55.31 85.5718C56.2885 82.8397 56.3139 82.8397 56.0598 79.485C55.9835 78.3921 56.2631 77.6297 57.4322 77.3883C56.6402 76.6766 56.0005 75.8121 55.5515 74.8468C55.1575 75.7363 54.4205 75.5711 53.6835 75.3296Z" fill="#FBB87E"/>
<path d="M53.3277 74.6816C52.6171 74.1993 51.8692 73.7744 51.0912 73.4108C49.8204 72.8644 49.0707 73.0804 48.6513 74.6053C47.9778 77.0324 47.5204 77.1468 45.1314 76.4098C44.2546 76.1302 43.3778 75.8761 42.5137 75.5711C42.1324 75.4313 41.9164 75.3297 41.5733 75.7744C39.9968 77.7947 39.1064 80.2655 39.0318 82.827C39.5391 82.2008 39.966 81.5135 40.3026 80.7811C41.5733 78.0745 42.844 77.4645 45.7286 78.3921C47.4187 78.9513 49.1088 79.5739 50.8116 80.1458C54.9288 81.5563 55.2973 82.1027 54.5095 86.2199C54.4205 86.7028 54.5095 87.0332 54.8271 87.2238C55.1448 87.4144 55.4117 87.0205 55.5261 86.7282C56.352 84.4663 57.3559 82.1535 56.6316 79.7264C56.4719 79.3024 56.4604 78.8368 56.5988 78.4054C56.7372 77.974 57.0175 77.6021 57.394 77.3501C56.225 77.5916 55.9454 78.354 56.0216 79.4469C56.2758 82.8016 56.2504 82.8016 55.2719 85.5337C55.831 82.9922 54.9415 81.2767 52.3619 80.0187C50.6234 79.2712 48.8359 78.6428 47.0121 78.138C42.844 76.7783 41.5352 77.3247 39.6036 81.2259C39.5274 81.3784 39.5401 81.4801 39.3749 81.4292C39.6261 80.8815 39.8384 80.3167 40.0103 79.7391C41.281 76.0667 41.5479 75.9269 45.2966 76.9816C47.1773 77.5026 48.0668 77.1595 48.8293 75.6346C49.8204 73.6396 50.011 73.576 52.0188 74.5164C52.5451 74.8219 53.0882 75.0976 53.6454 75.3424C54.3824 75.5838 55.1194 75.749 55.5134 74.7959C55.1927 75.0344 54.7989 75.1535 54.3999 75.1326C54.0009 75.1117 53.6217 74.9522 53.3277 74.6816Z" fill="#FBB87E"/>
<path d="M6.69141 115.638C7.82237 112.092 9.08039 108.585 10.2114 105.052C10.4909 104.214 10.9611 103.782 11.749 103.985C12.5368 104.188 12.8799 104.836 12.5114 105.815C11.7617 107.823 11.1771 109.894 10.529 111.94C12.2191 112.473 13.8838 112.969 15.5231 113.554C16.3236 113.846 16.7938 113.82 16.9844 112.88C17.175 111.94 17.7723 111.177 18.9795 111.52C19.1447 110.44 19.1066 109.271 20.2502 108.61C19.2718 108.115 18.6872 107.53 19.1447 106.26C19.8869 104.53 19.9821 102.591 19.4128 100.797C18.8436 99.0024 17.6478 97.4729 16.0441 96.4875C14.5065 95.4074 13.1849 93.6029 10.6434 94.2764C7.18126 95.2996 3.45526 94.9161 0.274155 93.209V114.812L5.03944 116.438C6.08145 116.794 6.37372 116.565 6.69141 115.638Z" fill="#92C6EB"/>
<path d="M35.3212 98.9528C35.6389 98.3047 36.1472 97.682 35.7025 96.8688C35.1788 96.1037 34.8196 95.2383 34.6478 94.3273C34.6349 92.0167 33.7234 89.8018 32.1063 88.1515C30.3526 86.3216 30.8355 81.2132 34.292 81.3657C37.1384 81.4928 36.9605 79.8154 37.4561 78.2651C37.7808 77.1839 38.2786 76.1626 38.9302 75.2407C39.3241 74.6943 39.3622 74.4274 38.6379 74.1606C35.3467 72.9915 32.0936 71.2252 28.7007 74.0208C28.0526 74.5672 27.0487 75.2915 26.1592 74.4655C25.2697 73.6396 26.0575 72.6992 26.2354 71.7716C26.3371 71.2124 27.1885 70.5008 26.2354 69.929C24.126 68.6583 23.4017 69.0268 22.563 71.3014C22.2707 72.102 22.474 72.4451 23.0332 72.7246C23.5927 73.0322 24.0716 73.4676 24.431 73.9954C26.2863 76.2573 24.0243 80.5778 19.9707 81.1242C19.464 81.1534 18.971 81.2994 18.5301 81.5507C18.0892 81.802 17.7125 82.1518 17.4292 82.5729C16.4306 83.9808 15.0507 85.0742 13.4518 85.7243C12.8827 85.9947 12.4024 86.4215 12.0671 86.9548C11.7318 87.4882 11.5553 88.106 11.5584 88.736C11.5779 89.3526 11.7659 89.9522 12.1019 90.4696C12.4379 90.9871 12.9091 91.4027 13.4645 91.6714C17.2767 93.9587 21.2668 96.0809 22.0547 101.113C23.9965 100.065 26.2307 99.6898 28.4084 100.046C29.1708 100.273 29.9775 100.31 30.7575 100.153C31.5375 99.9955 32.2669 99.6489 32.8814 99.1434C33.0386 98.9701 33.2501 98.8556 33.4811 98.8186C33.7121 98.7817 33.9488 98.8245 34.1522 98.9401C34.3047 99.1942 34.9273 99.7533 35.3212 98.9528Z" fill="#FBE265"/>
<path d="M14.7352 69.0903C16.6795 65.4941 18.2298 61.5675 17.785 57.247C14.4684 53.7143 6.98369 54.7055 4.08639 58.9625C2.49796 61.3134 2.07862 64.0455 1.44324 66.5869C0.97199 68.3786 0.883462 70.2495 1.18342 72.0777C1.48338 73.9059 2.16508 75.6505 3.18416 77.1976C5.614 76.8576 7.92834 75.9453 9.93657 74.5358C11.9448 73.1263 13.5895 71.2599 14.7352 69.0903Z" fill="#3692BD"/>
<path d="M34.7621 110.135C30.8355 108.865 26.9343 107.492 23.0204 106.171C22.2326 105.904 21.9022 106.565 21.4447 106.971C21.4377 107.338 21.309 107.691 21.079 107.976C20.8489 108.262 20.5306 108.462 20.174 108.547C20.0035 109.609 19.5663 110.61 18.9032 111.457C19.7546 112.321 19.3734 113.274 19.0684 114.214C18.7635 115.155 18.4966 116.222 18.1662 117.213H22.1182C21.537 116.592 21.2066 115.777 21.1906 114.926C21.1627 114.468 21.2293 114.009 21.3863 113.579C21.5433 113.148 21.7873 112.753 22.1032 112.421C22.4191 112.088 22.8001 111.824 23.2224 111.645C23.6447 111.466 24.0994 111.376 24.558 111.381C25.4245 111.375 26.2607 111.699 26.8976 112.286C27.5345 112.873 27.9247 113.681 27.9891 114.545C27.9995 115.04 27.9091 115.531 27.7234 115.99C27.5378 116.449 27.2606 116.865 26.9089 117.213H34.0251C34.5715 115.536 35.1306 113.871 35.7533 112.219C36.3505 110.809 35.8677 110.555 34.7621 110.135Z" fill="#B4D2E2"/>
<path d="M18.9795 111.457C19.6425 110.61 20.0798 109.609 20.2502 108.547C19.1066 109.208 19.1955 110.377 18.9795 111.457Z" fill="#B4D2E2"/>
<path d="M48.6386 51.5922C47.3679 55.3282 46.2242 59.0769 44.9026 62.7747C43.0982 67.8577 38.9174 69.9671 33.7455 68.4041C31.204 67.629 28.6626 66.714 26.0321 65.8626C25.5193 65.7251 25.0424 65.4779 24.6343 65.1383C24.736 66.0914 25.4222 66.6124 26.4515 66.9173C27.8239 67.324 29.209 67.7814 29.7427 69.3445C29.946 69.9544 30.3018 70.0561 30.8101 69.7384C32.2588 68.8235 33.6566 69.2936 35.0925 69.7384C37.9771 70.7423 40.8998 71.6064 43.759 72.6611C45.3601 73.2583 46.1098 72.8263 46.5546 71.2252C48.2828 65.1637 50.3668 59.2293 52.4382 53.2696C52.9592 51.7447 52.6923 50.9822 51.1674 50.6391C50.4408 50.4556 49.724 50.2351 49.0199 49.9783C49.0251 50.5392 48.8943 51.093 48.6386 51.5922Z" fill="#10ACBA"/>
<path d="M51.1039 50.6772C52.6923 51.0203 52.9592 51.7828 52.3746 53.3077C50.3414 59.2675 48.2193 65.2018 46.4911 71.2633C46.0463 72.8644 45.2966 73.2965 43.6954 72.6992C40.8363 71.6445 37.9136 70.7804 35.029 69.7765C33.593 69.2809 32.1952 68.8107 30.7466 69.7765C30.2383 70.0942 29.8825 69.9925 29.6791 69.3826C29.1454 67.8196 27.7603 67.3621 26.3879 66.9555C25.3586 66.6505 24.6724 66.1295 24.5707 65.1764C24.4101 65.03 24.2805 64.8528 24.1895 64.6554C24.1133 66.803 24.0879 66.8792 26.4387 67.5273C28.294 68.0356 29.7935 68.6455 28.9802 71.5174C31.3311 69.2555 33.4024 69.7257 35.6516 70.6025C38.6252 71.7716 41.7258 72.5976 44.7247 73.7031C45.9955 74.1479 46.3132 73.7031 46.6563 72.6865C48.5243 66.8792 50.4685 61.0846 52.3492 55.2773C53.8868 50.5883 53.7851 50.4358 48.6513 49.4954C48.7563 49.6719 48.8294 49.8655 48.8674 50.0673C49.6016 50.3098 50.3482 50.5134 51.1039 50.6772Z" fill="#10ACBA"/>
<path d="M24.6343 65.1256C25.0424 65.4652 25.5193 65.7123 26.0321 65.8499C28.5736 66.714 31.1151 67.6289 33.7455 68.3914C38.9174 69.9544 43.0982 67.8577 44.9026 62.762C46.1734 59.0641 47.4441 55.3154 48.6386 51.5795C48.8664 51.0863 48.9752 50.5466 48.9563 50.0037L48.5878 49.8767C47.1519 54.2734 45.7667 58.6829 44.2291 63.0416C43.9395 64.015 43.4583 64.9207 42.8138 65.7056C42.1693 66.4905 41.3745 67.1387 40.4761 67.6122C39.5776 68.0857 38.5936 68.3749 37.5818 68.4629C36.5701 68.5509 35.5509 68.4358 34.5842 68.1245C31.2295 67.1461 27.9382 65.9134 24.6216 64.7698C24.6203 64.8885 24.6245 65.0072 24.6343 65.1256Z" fill="#10ACBA"/>
<path d="M24.6343 65.1256C24.6275 64.9944 24.6275 64.8629 24.6343 64.7316L24.2658 64.6046C24.353 64.8009 24.4783 64.9779 24.6343 65.1256Z" fill="#10ACBA"/>
<path d="M48.9563 50.0164C48.9183 49.8147 48.8452 49.6211 48.7403 49.4446L48.5878 49.8894L48.9563 50.0164Z" fill="#10ACBA"/>
<path d="M21.5718 65.3543C21.8518 63.7747 21.6356 62.1471 20.953 60.6953C20.2703 59.2436 19.1547 58.0389 17.7596 57.247C18.9032 60.0045 17.7596 62.5206 16.9844 65.0875C16.3078 67.5762 15.0982 69.888 13.4394 71.8628C11.7805 73.8376 9.71217 75.4281 7.3776 76.5242C6.76118 76.9269 6.06972 77.201 5.34473 77.3298C4.61975 77.4587 3.8762 77.4396 3.15874 77.2739C5.16652 80.7811 6.17039 81.4673 9.00415 80.8828C10.7854 80.5724 12.4846 79.9022 13.9982 78.9131C18.7635 75.5711 20.695 70.6406 21.5718 65.3543Z" fill="#0B81AF"/>
<path d="M7.40302 76.4733C9.73759 75.3773 11.806 73.7868 13.4648 71.812C15.1236 69.8372 16.3332 67.5253 17.0098 65.0366C17.8358 62.4951 18.9287 59.9536 17.785 57.1961C18.2297 61.5167 16.6794 65.4433 14.7352 69.0395C13.5925 71.2138 11.9492 73.0852 9.94076 74.4993C7.93234 75.9134 5.61641 76.8295 3.18414 77.1722C3.89823 77.3454 4.63991 77.3727 5.3648 77.2526C6.08969 77.1325 6.78292 76.8675 7.40302 76.4733Z" fill="#0B81AF"/>
<path d="M38.0279 95.5853C39.0191 95.4582 40.023 96.0682 41.0015 95.5853C41.0015 94.6831 40.023 94.4035 39.7307 93.6665C39.6466 93.5313 39.5906 93.3806 39.5662 93.2233C39.5418 93.0661 39.5494 92.9055 39.5885 92.7512C39.6277 92.5969 39.6976 92.4521 39.7941 92.3255C39.8906 92.199 40.0117 92.0932 40.1501 92.0145C40.2684 91.926 40.4041 91.8634 40.5482 91.8307C40.6924 91.798 40.8418 91.796 40.9867 91.8247C41.1317 91.8535 41.269 91.9124 41.3898 91.9976C41.5105 92.0829 41.612 92.1925 41.6876 92.3195C42.5136 93.3869 43.4032 94.5306 45.0424 94.3146C45.8303 93.2471 47.2916 92.6372 47.317 91.036C46.3513 91.6079 45.6015 92.5609 44.2037 92.2051C43.8533 92.1516 43.5364 91.967 43.317 91.6886C43.0975 91.4102 42.9921 91.0588 43.0219 90.7056C43.0219 89.7399 43.6319 89.6636 44.2927 89.7907C45.3347 89.9813 45.2584 89.0664 45.4236 88.52C45.9573 86.9951 46.6944 86.6266 47.9651 87.7956H48.3209C48.9309 85.7752 48.0541 83.7674 48.3209 81.7469L44.9916 80.6159C44.0131 80.2856 42.9965 80.3999 42.6915 81.4165C41.9799 83.8055 40.15 85.3304 38.6252 87.0713C37.5186 88.1816 36.8492 89.6533 36.7395 91.217C36.6298 92.7806 37.0872 94.3315 38.0279 95.5853Z" fill="#FBCEC0"/>
<path d="M8.2163 92.2305C9.0804 92.1543 9.88098 92.2305 9.29644 90.7311C8.80317 89.3904 8.83561 87.9127 9.38722 86.595C9.93883 85.2772 10.9687 84.2171 12.27 83.6276C12.7763 83.4802 13.2416 83.2177 13.6296 82.8606C14.0176 82.5034 14.3177 82.0614 14.5065 81.569C13.4136 81.9883 12.6258 82.3314 11.8125 82.5983C8.77542 83.6403 5.78917 84.3138 3.20957 81.5055C2.05546 80.2503 1.06489 78.8541 0.261452 77.3501V79.4469C0.401233 79.701 0.528298 79.9552 0.668079 80.1966C1.0833 81.0236 1.26488 81.9483 1.19322 82.8709C1.12156 83.7935 0.79939 84.6791 0.261452 85.4321V90.2228C2.60432 91.7845 5.41289 92.4934 8.2163 92.2305Z" fill="#D78979"/>
<path d="M48.4226 87.8719C48.4226 87.8719 48.3336 87.8719 48.2955 87.8719C48.4517 88.1367 48.5491 88.432 48.5813 88.7378C48.6135 89.0435 48.5796 89.3526 48.482 89.6442C48.3845 89.9357 48.2254 90.2029 48.0157 90.4277C47.8059 90.6525 47.5503 90.8296 47.2662 90.9471C47.3573 90.9864 47.4428 91.0377 47.5204 91.0996C47.6474 92.7261 46.5165 93.4631 45.4618 94.251C45.8223 94.1892 46.1756 94.0913 46.5165 93.9587C47.2535 93.7554 48.0668 93.8698 48.2701 94.7847C48.4734 95.6996 47.9143 96.0555 47.19 96.3604C44.9535 97.3008 43.0092 96.3604 41.0396 95.5217C40.0738 96.6908 39.0318 95.9665 38.0025 95.5217C38.51 96.8524 39.5115 97.9358 40.7981 98.5461C42.1169 99.3038 43.6275 99.6615 45.146 99.5758C46.6644 99.49 48.1252 98.9645 49.3502 98.0632C50.3917 97.4951 51.2405 96.6297 51.7881 95.5773C52.3358 94.5249 52.5577 93.3333 52.4254 92.1543C52.214 90.2389 52.1291 88.3117 52.1713 86.3851C52.3238 83.1066 52.4 83.1066 49.0072 82.0773C48.7645 81.9887 48.527 81.8869 48.2955 81.7723C48.8674 83.7928 49.4646 85.8133 48.4226 87.8719Z" fill="#F8AE9E"/>
<path d="M48.2955 87.8211V87.91C48.2955 87.91 48.3845 87.91 48.4226 87.91C49.4265 85.8514 48.8292 83.8309 48.2447 81.8104C48.0287 83.7928 48.9055 85.8006 48.2955 87.8211Z" fill="#F8AE9E"/>
<path d="M45.4872 94.2891C46.5419 93.5013 47.6729 92.7643 47.5458 91.1377C47.4682 91.0758 47.3828 91.0245 47.2917 90.9852C47.2917 92.5863 45.8049 93.1963 45.017 94.2637C45.1694 94.3098 45.3307 94.3186 45.4872 94.2891Z" fill="#F8AE9E"/>
<path d="M41.065 95.5599H41.0015C40.023 96.0936 39.0191 95.4836 38.0279 95.5599C39.0572 96.0046 40.0992 96.729 41.065 95.5599Z" fill="#F8AE9E"/>
<path d="M51.1801 110.631C51.4216 111.66 51.663 112.626 51.879 113.604C51.9934 114.138 52.1077 114.977 51.6122 115.091C51.0646 115.185 50.5559 115.435 50.1477 115.811C49.7395 116.188 49.4492 116.675 49.3121 117.213H55.183C55.21 117.143 55.2312 117.071 55.2465 116.997C55.5093 115.618 55.2345 114.19 54.4785 113.006C53.7224 111.822 52.5424 110.973 51.1801 110.631Z" fill="#D8EAF8"/>
<path d="M40.6457 111.825C40.3407 111.724 40.239 110.872 40.1373 110.364C39.98 109.428 39.5765 108.551 38.9683 107.823C38.5235 109.309 39.1081 110.491 38.6379 111.762C37.9644 113.579 37.3671 115.422 36.7572 117.277H39.5909C40.0103 116.603 40.4423 116.006 40.8617 115.269C41.4589 114.189 43.4667 112.817 40.6457 111.825Z" fill="#F27E87"/>
<path d="M46.0209 115.244C45.9434 115.044 45.9175 114.829 45.9455 114.616C45.9736 114.404 46.0548 114.203 46.1815 114.031C46.3083 113.858 46.4764 113.721 46.6705 113.631C46.8646 113.541 47.0782 113.501 47.2916 113.515C49.2613 113.617 49.2105 112.448 48.842 111.101C48.6386 110.313 48.3718 109.538 48.0287 108.407C46.059 111.52 44.2164 114.392 42.4628 117.213H46.0717C46.2142 116.903 46.2837 116.564 46.2749 116.223C46.2661 115.881 46.1792 115.546 46.0209 115.244Z" fill="#E9F3F9"/>
<path d="M14.0363 115.549C12.95 115.252 11.8809 114.896 10.834 114.481C9.88096 114.036 9.48703 114.646 9.38538 115.244C9.28372 115.841 8.59752 116.629 8.77542 117.213H15.4595C15.3988 116.832 15.2337 116.474 14.9825 116.18C14.7314 115.887 14.4039 115.668 14.0363 115.549Z" fill="#D68878"/>
<path d="M44.6104 103.731C44.8364 103.669 45.036 103.535 45.1784 103.349C45.3208 103.163 45.398 102.936 45.3982 102.701C45.3982 101.939 44.9281 102.066 44.4579 102.053C42.0404 101.829 39.7297 100.95 37.7738 99.5119C37.7738 100.122 37.024 100.44 37.4307 101.189C38.148 102.379 39.256 103.282 40.5654 103.746C41.8748 104.209 43.3045 104.204 44.6104 103.731Z" fill="#F5A48F"/>
<path d="M42.628 106.526C41.1794 106.742 42.0689 107.657 42.1197 108.305C42.1705 108.954 42.3103 109.284 42.9838 108.814L46.4275 106.425L46.2496 106.005C45.0424 106.171 43.8352 106.336 42.628 106.526Z" fill="#E67880"/>
<path d="M34.508 102.651C35.4356 103.921 35.2577 105.624 36.3379 107.022C36.9496 106.57 37.5042 106.045 37.9898 105.459C38.2567 105.052 35.2577 102.689 34.508 102.651Z" fill="#EB7B83"/>
<path d="M27.1377 102.485C25.6891 102.329 24.2335 102.709 23.0459 103.553C24.6089 104.01 25.994 105.408 27.5316 103.642C28.0907 103.006 28.0907 102.562 27.1377 102.485Z" fill="#D4E5F2"/>
<path d="M33.6185 85.3685C33.5422 86.3089 34.1649 87.6559 34.5715 87.4652C35.5627 86.9951 35.5246 85.61 35.766 84.5552C35.9439 83.8309 35.2831 83.6784 34.8257 83.6784C33.7582 83.7038 33.6566 84.5425 33.6185 85.3685Z" fill="#EDA798"/>
<path d="M55.8056 94.34C57.0764 94.1494 57.5084 93.0692 58.0675 92.2941C58.0675 91.4046 57.4449 90.7946 56.9874 90.9344C55.6404 91.3156 55.7929 92.8024 55.2846 93.8063C55.094 94.1748 55.3736 94.4035 55.8056 94.34Z" fill="#EE9F8B"/>
<path d="M20.7204 75.6855C20.1471 76.614 19.8151 77.6711 19.7546 78.7607C20.3846 78.6233 20.9636 78.3126 21.4262 77.8635C21.8887 77.4143 22.2165 76.8448 22.3724 76.2192C22.5757 75.4059 22.0547 75.0628 21.5718 74.8341C20.8729 74.5291 20.8602 75.3551 20.7204 75.6855Z" fill="#D08475"/>
<path d="M30.2891 104.531C29.8697 104.671 29.2344 104.824 29.0946 105.586C29.6985 105.714 30.2836 105.919 30.8355 106.196C31.7123 106.793 31.8521 106.107 31.8902 105.611C31.9284 105.116 32.3477 104.188 31.7759 103.718C30.8863 103.006 30.8609 104.328 30.2891 104.531Z" fill="#DFE7EC"/>
<path d="M23.0077 106.171C21.9403 105.357 21.4066 105.624 21.432 106.971C21.737 106.196 22.042 105.535 23.0077 106.171Z" fill="#4F5C63"/>
<path d="M23.0077 106.171C22.0293 105.535 21.737 106.171 21.432 106.971C21.9022 106.565 22.2326 105.904 23.0077 106.171Z" fill="#4F5C63"/>
<path d="M31.7378 53.943C32.4367 54.4132 33.1229 54.1082 33.4787 53.2568C33.5701 53.0813 33.6904 52.9223 33.8345 52.7867C34.1264 52.3632 34.568 52.0662 35.0703 51.9553C35.5725 51.8445 36.0981 51.9282 36.5412 52.1894C36.8827 52.3853 37.1581 52.6785 37.3324 53.0315C37.5066 53.3846 37.5718 53.7815 37.5196 54.1718C37.517 54.4283 37.4616 54.6816 37.3567 54.9157C37.2519 55.1499 37.1 55.36 36.9105 55.5328C36.7209 55.7057 36.4978 55.8377 36.2549 55.9205C36.0121 56.0034 35.7549 56.0353 35.4992 56.0144C33.0466 55.6077 33.0339 57.5011 32.4875 58.8862C32.4174 59.0257 32.378 59.1785 32.3719 59.3344C32.3658 59.4903 32.3931 59.6458 32.4521 59.7902C32.5111 59.9347 32.6004 60.0649 32.7139 60.172C32.8274 60.2791 32.9625 60.3606 33.1102 60.4111C33.8091 60.6653 34.5207 60.5763 34.7748 59.7758C35.029 58.9752 35.7787 58.6067 36.6555 58.3525C37.6434 58.1778 38.5256 57.6281 39.1176 56.8182C39.7096 56.0083 39.9658 55.0009 39.8324 54.0066C39.718 51.4651 38.7777 50.1944 36.4649 49.6352C35.5153 49.3734 34.5044 49.448 33.6035 49.8463C32.7026 50.2447 31.9671 50.9423 31.5217 51.8209C31.0261 52.6723 30.9753 53.4347 31.7378 53.943Z" fill="#010505"/>
<path d="M32.2079 64.6681C32.4931 64.6787 32.7736 64.5929 33.0041 64.4246C33.2346 64.2563 33.4018 64.0153 33.4787 63.7405C33.072 63.2322 33.161 62.2537 32.2715 62.3427C31.9623 62.3392 31.6641 62.457 31.4408 62.6708C31.2175 62.8846 31.0869 63.1773 31.077 63.4863C31.1405 64.1598 31.4836 64.7062 32.2079 64.6681Z" fill="#001F21"/>
<path d="M28.0907 114.545C28.0263 113.681 27.6362 112.873 26.9993 112.286C26.3623 111.699 25.5261 111.375 24.6597 111.381C24.201 111.376 23.7464 111.466 23.3241 111.645C22.9017 111.824 22.5208 112.088 22.2049 112.421C21.889 112.754 21.6449 113.148 21.4879 113.579C21.3309 114.009 21.2643 114.468 21.2922 114.926C21.3082 115.777 21.6387 116.592 22.2199 117.213H27.0106C27.3623 116.865 27.6394 116.449 27.8251 115.99C28.0108 115.531 28.1012 115.04 28.0907 114.545ZM24.7741 115.688C24.431 115.688 23.7066 115.79 23.7575 115.028C23.7575 114.507 23.7575 113.871 24.558 113.846C25.3586 113.82 25.4094 114.202 25.5365 114.723C25.3713 115.142 25.2824 115.739 24.7486 115.638L24.7741 115.688Z" fill="#020405"/>
<path d="M43.3396 95.8649C44.4805 96.2979 45.734 96.3337 46.8977 95.9665C47.3171 95.8267 47.927 95.6742 47.7872 95.0643C47.6856 94.6449 47.19 94.5941 46.7706 94.5814C46.3513 94.5687 45.7413 94.7974 45.2966 94.4797L45.1949 94.556C44.064 95.0008 43.3015 94.34 42.4501 93.73C41.8529 93.2853 41.4208 92.0018 40.5694 92.6245C39.718 93.2471 40.8363 94.0096 41.1158 94.6831C41.226 94.9257 41.2572 95.1969 41.2048 95.4582C41.9291 95.0643 42.5899 95.6488 43.3396 95.8649Z" fill="#0B0706"/>
<path d="M41.0523 94.6831C40.7727 94.0096 39.5909 93.298 40.5059 92.6245C41.4208 91.951 41.7766 93.2853 42.3866 93.73C43.238 94.34 44.0004 95.0008 45.1314 94.556L45.233 94.4798C45.1518 94.4176 45.0792 94.345 45.017 94.2637C43.3778 94.4798 42.4755 93.3361 41.6622 92.2687C41.5866 92.1417 41.4851 92.032 41.3644 91.9468C41.2436 91.8616 41.1063 91.8027 40.9613 91.7739C40.8164 91.7451 40.667 91.7472 40.5228 91.7799C40.3787 91.8126 40.243 91.8752 40.1247 91.9637C39.9863 92.0423 39.8652 92.1481 39.7687 92.2747C39.6722 92.4013 39.6023 92.5461 39.5631 92.7004C39.524 92.8546 39.5164 93.0152 39.5408 93.1725C39.5653 93.3298 39.6212 93.4805 39.7053 93.6156C40.023 94.3527 40.9761 94.6322 40.9761 95.5345L41.1158 95.4582C41.1762 95.1996 41.154 94.9285 41.0523 94.6831Z" fill="#0B0706"/>
<path d="M46.7071 94.5814C47.1264 94.5814 47.622 94.5814 47.7237 95.0643C47.8635 95.6742 47.2535 95.8267 46.8342 95.9665C45.6705 96.3337 44.417 96.2979 43.2761 95.8649C42.5899 95.6488 41.9291 95.0643 41.1413 95.4582L41.065 95.5472C43.0347 96.3986 44.9789 97.3262 47.2154 96.3859C47.9397 96.0809 48.4861 95.6361 48.2955 94.8101C48.1049 93.9842 47.2789 93.7808 46.5419 93.9842C46.201 94.1167 45.8477 94.2146 45.4872 94.2764L45.2331 94.467C45.6778 94.7974 46.2115 94.5814 46.7071 94.5814Z" fill="#0B0706"/>
<path d="M45.2331 94.4798L45.4872 94.2891C45.3327 94.3268 45.1715 94.3268 45.017 94.2891C45.0808 94.3614 45.1534 94.4255 45.2331 94.4798Z" fill="#0B0706"/>
<path d="M41.0654 95.5605L41.1422 95.4709L41.0015 95.5477L41.0654 95.5605Z" fill="#0B0706"/>
<path d="M47.3043 90.9598C47.3043 89.9432 47.9778 89.041 47.9397 88.0117C47.7408 87.9195 47.5249 87.8698 47.3057 87.8658C47.0865 87.8618 46.8688 87.9036 46.6667 87.9885C46.4646 88.0734 46.2824 88.1996 46.1318 88.3589C45.9812 88.5183 45.8655 88.7073 45.7922 88.9139C45.6927 89.2094 45.5263 89.4779 45.3058 89.6983C45.0854 89.9188 44.8169 90.0852 44.5214 90.1846C44.0639 90.3117 43.5429 90.5023 43.7971 91.1377C44.0512 91.7731 44.6231 91.6714 45.1695 91.6333C45.7159 91.5952 46.4402 90.6548 47.3043 91.0233V90.9598Z" fill="#130E0C"/>
<path d="M45.1568 91.5952C44.6104 91.5952 44.0258 91.7222 43.7844 91.0996C43.543 90.4769 44.0513 90.2736 44.5087 90.1465C44.8042 90.0471 45.0727 89.8807 45.2931 89.6602C45.5136 89.4398 45.68 89.1713 45.7795 88.8758C45.8528 88.6692 45.9685 88.4802 46.1191 88.3208C46.2697 88.1615 46.4519 88.0353 46.654 87.9504C46.8561 87.8655 47.0737 87.8237 47.2929 87.8277C47.5122 87.8317 47.7281 87.8814 47.927 87.9736V87.8084C46.6563 86.6393 45.9192 87.0078 45.3855 88.5327C45.2203 89.0156 45.2966 89.9305 44.2546 89.8034C43.5938 89.6763 42.9838 89.8034 42.9838 90.7184C42.954 91.0716 43.0594 91.4229 43.2789 91.7013C43.4983 91.9797 43.8152 92.1643 44.1656 92.2178C45.5634 92.5736 46.3132 91.6206 47.279 91.0488C46.4657 90.6167 45.8811 91.4935 45.1568 91.5952Z" fill="#130E0C"/>
<path d="M48.2828 87.9227C48.1901 87.9358 48.096 87.9358 48.0033 87.9227C48.0837 88.1061 48.1434 88.2979 48.1812 88.4946C48.2066 88.3421 48.2447 88.126 48.2828 87.9227Z" fill="#EFC2B6"/>
<path d="M48.2828 87.9227V87.8211H47.927C47.927 87.8846 47.927 87.9481 47.927 87.999C48.0493 87.9954 48.1699 87.9696 48.2828 87.9227Z" fill="#EFC2B6"/>
<path d="M48.1812 88.5581C48.2386 89.0032 48.1891 89.4557 48.0366 89.8778C47.8841 90.2999 47.633 90.6796 47.3044 90.9852C47.5885 90.8677 47.844 90.6906 48.0538 90.4658C48.2635 90.241 48.4226 89.9738 48.5202 89.6823C48.6177 89.3908 48.6516 89.0816 48.6194 88.7759C48.5872 88.4701 48.4898 88.1749 48.3337 87.91C48.2447 88.126 48.2066 88.3421 48.1812 88.5581Z" fill="#EFC2B6"/>
<path d="M48.1812 88.5581C48.1434 88.3614 48.0837 88.1696 48.0033 87.9862C48.0033 89.0155 47.4187 89.9178 47.3679 90.9344C47.4147 90.7774 47.4831 90.6277 47.5712 90.4896C47.9113 89.8972 48.1194 89.2384 48.1812 88.5581Z" fill="#EFC2B6"/>
<path d="M48.1812 88.5581C48.1036 89.2521 47.8736 89.9203 47.5077 90.515C47.4196 90.6531 47.3512 90.8028 47.3044 90.9598C47.6293 90.6568 47.8781 90.2813 48.0305 89.864C48.1828 89.4466 48.2345 88.9992 48.1812 88.5581Z" fill="#EFC2B6"/>
<path d="M24.5326 113.846C23.7829 113.846 23.7702 114.507 23.7321 115.028C23.7321 115.79 24.4056 115.663 24.7487 115.688C25.0918 115.714 25.3713 115.142 25.5111 114.723C25.384 114.202 25.0918 113.82 24.5326 113.846Z" fill="#0C7CA7"/>
<path d="M28.0907 12.1102V18.9595H30.772V20.0142H26.7946V12.1102H28.0907Z" fill="#010101"/>
<path d="M36.5666 18.4004H33.2499L32.6908 20.0142H31.3311L34.1649 12.0975H35.7152L38.5489 20.0142H37.1892L36.5666 18.4004ZM34.9146 13.6605L33.6439 17.3329H36.1853L34.9146 13.6605Z" fill="#010101"/>
<path d="M39.0445 12.1102H40.4932L42.323 15.986L44.1529 12.1102H45.5888L42.9711 17.1932V20.065H41.7004V17.1423L39.0445 12.1102Z" fill="#010101"/>
<path d="M51.3834 18.4004H48.0668L47.495 20.0142H46.148L48.9817 12.0975H50.4812L53.315 20.0142H51.9553L51.3834 18.4004ZM49.6934 13.6605L48.4226 17.3329H50.9641L49.6934 13.6605Z" fill="#010101"/>
<path d="M61.0411 12.0975V20.0142H59.7703L55.8692 14.1052V20.0142H54.5984V12.0975H55.8692L59.7703 17.981V12.0975H61.0411Z" fill="#010101"/>
<path d="M67.4838 18.4004H64.1671L63.6715 20.0142H62.3245L65.1583 12.0975H66.6578L69.4915 20.0142H68.1191L67.4838 18.4004ZM65.8318 13.6605L64.561 17.3329H67.1025L65.8318 13.6605Z" fill="#010101"/>
<path d="M77.1795 12.0975V20.0142H75.9088L72.0076 14.1052V20.0142H70.7368V12.0975H72.0076L75.9088 17.981V12.0975H77.1795Z" fill="#010101"/>
<path d="M11.8506 30.1293V33.662H10.5799V25.758H11.8506V29.3669L14.9258 25.758H16.5524L13.1087 29.7227L16.6032 33.662H14.9131L11.8506 30.1293Z" fill="#010101"/>
<path d="M21.3558 33.7509C20.5535 33.7535 19.7685 33.5178 19.1002 33.074C18.4319 32.6301 17.9104 31.9979 17.6016 31.2574C17.2928 30.5169 17.2108 29.7014 17.3657 28.9143C17.5207 28.1271 17.9058 27.4036 18.4722 26.8354C19.0386 26.2672 19.7609 25.8799 20.5476 25.7224C21.3342 25.565 22.1499 25.6445 22.8914 25.951C23.6328 26.2574 24.2667 26.777 24.7127 27.4439C25.1587 28.1108 25.3967 28.895 25.3967 29.6973C25.4106 30.2323 25.3157 30.7646 25.1177 31.2619C24.9197 31.7591 24.6228 32.211 24.2449 32.5901C23.8671 32.9691 23.4161 33.2675 22.9195 33.467C22.4229 33.6666 21.8909 33.7632 21.3558 33.7509ZM21.3558 32.62C21.7323 32.6269 22.1061 32.5543 22.4528 32.4071C22.7995 32.2599 23.1113 32.0413 23.3678 31.7656C23.6244 31.4899 23.82 31.1632 23.9418 30.8068C24.0637 30.4504 24.1091 30.0724 24.0752 29.6973C24.1006 29.3254 24.0494 28.9522 23.9246 28.601C23.7997 28.2497 23.604 27.9279 23.3496 27.6554C23.0952 27.383 22.7875 27.1658 22.4456 27.0172C22.1037 26.8687 21.7349 26.7921 21.3621 26.7921C20.9894 26.7921 20.6206 26.8687 20.2787 27.0172C19.9368 27.1658 19.6291 27.383 19.3746 27.6554C19.1202 27.9279 18.9245 28.2497 18.7997 28.601C18.6749 28.9522 18.6236 29.3254 18.6491 29.6973C18.6152 30.0713 18.6603 30.4482 18.7815 30.8037C18.9026 31.1592 19.097 31.4853 19.3522 31.7608C19.6074 32.0363 19.9176 32.2552 20.2627 32.4032C20.6079 32.5512 20.9803 32.6251 21.3558 32.62Z" fill="#010101"/>
<path d="M33.1737 25.7453V33.662H31.9029L28.0018 27.7657V33.662H26.731V25.7453H28.0018L31.9029 31.6415V25.7453H33.1737Z" fill="#010101"/>
<path d="M37.4815 33.7509C35.9058 33.7509 34.6859 32.8868 34.6859 31.489H36.071C36.0836 31.6596 36.1305 31.8259 36.2089 31.978C36.2873 32.13 36.3956 32.2647 36.5274 32.3738C36.6591 32.483 36.8115 32.5644 36.9754 32.6133C37.1394 32.6621 37.3115 32.6774 37.4815 32.6581C38.3964 32.6581 38.9047 32.1625 38.9047 31.489C38.9047 29.5829 34.7113 30.8282 34.7113 27.9055C34.7113 26.5204 35.8168 25.6563 37.4307 25.6563C37.7491 25.6175 38.072 25.6424 38.3806 25.7298C38.6892 25.8171 38.9773 25.9651 39.2281 26.165C39.4789 26.3649 39.6874 26.6128 39.8413 26.8942C39.9952 27.1756 40.0916 27.4848 40.1247 27.8039H38.6887C38.6346 27.5078 38.4771 27.2406 38.2444 27.0498C38.0117 26.859 37.7189 26.7569 37.418 26.7618C36.6555 26.7618 36.0837 27.105 36.0837 27.8674C36.0837 29.6464 40.2644 28.5409 40.2644 31.4255C40.248 31.7659 40.1612 32.0992 40.0094 32.4043C39.8577 32.7095 39.6443 32.9798 39.3828 33.1984C39.1213 33.4169 38.8173 33.5788 38.4901 33.6739C38.1628 33.769 37.8194 33.7952 37.4815 33.7509Z" fill="#010101"/>
<path d="M41.7385 25.758H43.0093V30.8409C43.0093 31.3161 43.198 31.7719 43.534 32.1079C43.8701 32.4439 44.3258 32.6327 44.801 32.6327C45.2762 32.6327 45.7319 32.4439 46.0679 32.1079C46.404 31.7719 46.5927 31.3161 46.5927 30.8409V25.758H47.8635V30.7774C47.8814 31.1847 47.8121 31.5912 47.66 31.9696C47.508 32.3479 47.2767 32.6893 46.9819 32.971C46.687 33.2526 46.3353 33.4679 45.9504 33.6024C45.5655 33.7369 45.1563 33.7876 44.7502 33.7509C44.3457 33.7882 43.938 33.7377 43.5549 33.6029C43.1717 33.4681 42.8222 33.2522 42.5302 32.9698C42.2383 32.6875 42.0107 32.3454 41.8631 31.9671C41.7155 31.5887 41.6513 31.1829 41.675 30.7774L41.7385 25.758Z" fill="#010101"/>
<path d="M50.9641 25.758V32.62H53.6454V33.662H49.6679V25.758H50.9641Z" fill="#010101"/>
<path d="M54.2553 25.758H59.7703V26.8127H57.6609V33.662H56.3902V26.8127H54.2807L54.2553 25.758Z" fill="#010101"/>
<path d="M65.8445 32.0481H62.5279L61.9687 33.662H60.609L63.4428 25.7453H64.9423L67.776 33.662H66.4163L65.8445 32.0481ZM64.1925 27.321L62.9218 30.9934H65.4633L64.1925 27.321Z" fill="#010101"/>
<path d="M71.6137 33.7509C70.0379 33.7509 68.818 32.8868 68.818 31.489H70.2031C70.2157 31.6596 70.2627 31.8259 70.3411 31.978C70.4195 32.13 70.5278 32.2647 70.6595 32.3738C70.7912 32.483 70.9437 32.5644 71.1076 32.6133C71.2716 32.6621 71.4437 32.6774 71.6137 32.6581C72.5286 32.6581 73.0369 32.1625 73.0369 31.489C73.0369 29.5829 68.8435 30.8282 68.8435 27.9055C68.8435 26.5204 69.9363 25.6563 71.5628 25.6563C71.8812 25.6175 72.2041 25.6424 72.5128 25.7298C72.8214 25.8171 73.1095 25.9651 73.3603 26.165C73.6111 26.3649 73.8195 26.6128 73.9735 26.8942C74.1274 27.1756 74.2237 27.4848 74.2568 27.8039H72.8209C72.7667 27.5078 72.6093 27.2406 72.3766 27.0498C72.1439 26.859 71.851 26.7569 71.5501 26.7618C70.8004 26.7618 70.2158 27.105 70.2158 27.8674C70.2158 29.6464 74.4093 28.5409 74.4093 31.4255C74.393 31.7671 74.3059 32.1016 74.1534 32.4077C74.0008 32.7138 73.7863 32.9849 73.5234 33.2036C73.2604 33.4223 72.9549 33.5839 72.6261 33.6781C72.2973 33.7724 71.9525 33.7972 71.6137 33.7509Z" fill="#010101"/>
<path d="M75.8834 25.758H77.1541V33.662H75.8834V25.758Z" fill="#010101"/>
</g>
<defs>
<clipPath id="clip0_427_6697">
<path d="M0.261444 10C0.261444 4.47715 4.7386 0 10.2614 0H75.2614C80.7843 0 85.2614 4.47715 85.2614 10V107.213C85.2614 112.736 80.7843 117.213 75.2614 117.213H10.2614C4.7386 117.213 0.261444 112.736 0.261444 107.213V10Z" fill="white"/>
</clipPath>
</defs>
</svg>
